<svg xmlns="http://www.w3.org/2000/svg" viewBox="0 0 71.9 80" style="enable-background:new 0 0 71.9 80" xml:space="preserve">
    <path d="M64 40c0-6.6-5.4-12-12-12H1.8C.6 31.8 0 35.8 0 40s.6 8.2 1.8 12H52c6.6 0 12-5.4 12-12z" style="fill:#29b6f6"/>
    <path d="M40 80c13 0 24.6-6.3 31.9-15.9C67.7 60.3 62.1 58 56 58H4.3C10.9 71 24.4 80 40 80z" style="fill:#4db6ac"/>
    <path d="M40 0C24.4 0 10.9 9 4.3 22H56c6.1 0 11.7-2.3 15.9-6C64.6 6.3 53 0 40 0z" style="fill:#ffca28"/>
    <path d="M34.1 22c-3-6.7-7.7-12.6-13.5-17-7 3.9-12.7 9.8-16.4 17h29.9z" style="fill:#f9a825"/>
    <path d="M20.7 75c5.8-4.4 10.5-10.3 13.5-17H4.3c3.6 7.2 9.3 13.1 16.4 17z" style="fill:#009688"/>
    <path d="M1.9 28C.7 31.8 0 35.8 0 40s.7 8.2 1.9 12h34.5c1.1-3.8 1.7-7.8 1.7-12s-.6-8.2-1.7-12H1.9z" style="fill:#212121"/>
</svg>
