<?xml version="1.0" encoding="utf-8"?>
<!-- Generator: Adobe Illustrator 26.3.1, SVG Export Plug-In . SVG Version: 6.00 Build 0)  -->
<svg version="1.1" id="Layer_1" xmlns="http://www.w3.org/2000/svg" xmlns:xlink="http://www.w3.org/1999/xlink" x="0px" y="0px"
	 viewBox="0 0 78 76.1" style="enable-background:new 0 0 78 76.1;" xml:space="preserve">
<style type="text/css">
	.st0{fill-rule:evenodd;clip-rule:evenodd;fill:#FFFFFF;}
	.st1{fill:#FFFFFF;}
</style>
<g>
	<path class="st0" d="M39,0C17.5,0,0,17.5,0,39c0,17.2,11.2,31.8,26.7,37c1.9,0.4,2.7-0.8,2.7-1.9c0-0.9,0-4-0.1-7.3
		c-10.8,2.4-13.1-4.6-13.1-4.6c-1.8-4.5-4.3-5.7-4.3-5.7c-3.5-2.4,0.3-2.4,0.3-2.4c3.9,0.3,6,4,6,4c3.5,6,9.1,4.2,11.3,3.2
		c0.4-2.5,1.4-4.2,2.5-5.2c-8.7-1-17.8-4.3-17.8-19.3c0-4.3,1.5-7.7,4-10.5c-0.4-1-1.7-4.9,0.4-10.3c0,0,3.3-1,10.7,4
		c3.1-0.9,6.4-1.3,9.8-1.3c3.3,0,6.7,0.4,9.8,1.3c7.4-5,10.7-4,10.7-4c2.1,5.4,0.8,9.3,0.4,10.3c2.5,2.7,4,6.2,4,10.5
		c0,15-9.1,18.3-17.8,19.2c1.4,1.2,2.6,3.6,2.6,7.2c0,5.2,0,9.4,0,10.7c0,1,0.7,2.3,2.7,1.9C66.8,70.8,78,56.2,78,39
		C78,17.5,60.5,0,39,0z"/>
	<path class="st1" d="M14.8,56c-0.1,0.2-0.4,0.3-0.7,0.1c-0.3-0.1-0.4-0.4-0.4-0.6c0.1-0.2,0.4-0.3,0.7-0.1
		C14.7,55.5,14.9,55.8,14.8,56L14.8,56z M14.3,55.6"/>
	<path class="st1" d="M16.4,57.8c-0.2,0.2-0.5,0.1-0.8-0.2c-0.3-0.3-0.3-0.6-0.1-0.8c0.2-0.2,0.5-0.1,0.8,0.2
		C16.5,57.2,16.5,57.6,16.4,57.8L16.4,57.8z M16,57.4"/>
	<path class="st1" d="M17.9,60c-0.2,0.2-0.6,0-0.9-0.3c-0.2-0.3-0.2-0.8,0-0.9c0.2-0.2,0.6,0,0.9,0.3C18.1,59.4,18.1,59.8,17.9,60
		L17.9,60z M17.9,60"/>
	<path class="st1" d="M20,62.2c-0.2,0.2-0.7,0.2-1-0.1c-0.3-0.3-0.4-0.8-0.2-1c0.2-0.2,0.7-0.2,1,0.1C20.1,61.5,20.2,61.9,20,62.2
		L20,62.2z M20,62.2"/>
	<path class="st1" d="M22.9,63.4c-0.1,0.3-0.5,0.4-1,0.3c-0.4-0.1-0.7-0.5-0.6-0.8c0.1-0.3,0.5-0.5,1-0.3
		C22.7,62.8,23,63.1,22.9,63.4L22.9,63.4z M22.9,63.4"/>
	<path class="st1" d="M26.1,63.7c0,0.3-0.4,0.6-0.8,0.6c-0.5,0-0.8-0.2-0.8-0.6c0-0.3,0.4-0.6,0.8-0.6
		C25.7,63.1,26.1,63.3,26.1,63.7L26.1,63.7z M26.1,63.7"/>
	<path class="st1" d="M29.1,63.2c0.1,0.3-0.3,0.6-0.7,0.7c-0.5,0.1-0.9-0.1-0.9-0.4c-0.1-0.3,0.3-0.6,0.7-0.7
		C28.6,62.7,29,62.8,29.1,63.2L29.1,63.2z M29.1,63.2"/>
</g>
</svg>
