<svg version="1.1" id="Layer_1" xmlns="http://www.w3.org/2000/svg" x="0" y="0" viewBox="0 0 98.1 80" style="enable-background:new 0 0 98.1 80" xml:space="preserve">
    <style>
        .st0{fill:#003545}
    </style>
    <path class="st0" d="m17.8 66 3.6 13.8h-2.7l-2.4-9.9-4.5 9.9H9.5l-4.4-9.9-2.4 9.9H0L3.5 66h2.3l4.8 10.7L15.5 66h2.3zM31.5 71.3v-1.6h2.6v10.1h-2.6v-1.6c-.7 1.2-2.1 1.8-3.8 1.8-3.6 0-5.6-2.5-5.6-5.4 0-2.8 1.9-5.1 5.2-5.1 1.9 0 3.5.6 4.2 1.8zm-6.6 3.4c0 1.9 1.2 3.4 3.4 3.4s3.4-1.5 3.4-3.4-1.2-3.4-3.5-3.4c-2.2 0-3.3 1.6-3.3 3.4zM40 79.8h-2.6V69.7H40V72c.6-1.5 2-2.4 3.6-2.5.6 0 1.1.1 1.6.3l-.6 1.9c-.4-.1-.9-.2-1.4-.2-1.9 0-3.3 1.4-3.3 3.5v4.8zM46.5 67.1c0-.7.6-1.3 1.3-1.4h.1c.8 0 1.4.6 1.4 1.3v.1c0 .7-.6 1.3-1.3 1.3h-.1c-.7 0-1.4-.5-1.4-1.3zm.1 2.6h2.6v7.4c0 .5.1.8.5.8.2 0 .3 0 .5-.1l.4 1.9c-.6.2-1.1.3-1.7.3-1.1 0-2.3-.3-2.3-2.8v-7.5zM60.8 71.3v-1.6h2.6v10.1h-2.6v-1.6c-.7 1.1-2.1 1.8-3.8 1.8-3.6 0-5.6-2.5-5.6-5.4 0-2.8 1.9-5.1 5.2-5.1 1.9 0 3.5.6 4.2 1.8zm-6.6 3.4c0 1.9 1.2 3.4 3.4 3.4s3.4-1.5 3.4-3.4-1.2-3.4-3.5-3.4c-2.2 0-3.3 1.6-3.3 3.4zM67.4 66h6.2c5.2 0 7.8 2.9 7.8 6.9 0 4.2-2.8 6.9-7.3 6.9h-6.7V66zm1.7 1.2v11.4h4.7c4.2 0 5.7-2.8 5.7-5.7 0-3.3-2-5.6-5.7-5.6l-4.7-.1zM92 79.8h-7.9V66h7.1c2.7 0 5.3.5 5.3 3.6 0 2.2-1.3 2.8-2.8 3 2 .2 3.2 1.4 3.2 3.5.1 3-2.6 3.7-4.9 3.7zm-.5-7.8c2.7 0 3.3-1.1 3.3-2.4 0-2-1.2-2.5-3.3-2.5h-5.7V72h5.7zm0 1.2h-5.7v5.4h6c1.7 0 3.5-.6 3.5-2.7-.1-2.4-2.1-2.7-3.8-2.7zM97.6.3c-.2-.2-.5-.3-.9-.3-.9 0-2.1.6-2.7.9l-.2.1c-1 .5-2.2.8-3.3.8-1.2 0-2.2.1-3.6.2C79 3 75.5 9 72.1 14.9c-1.9 3.2-3.8 6.5-6.4 9-.5.5-1.1 1-1.7 1.5-2.7 2-6.1 3.5-8.8 4.5-2.6 1-5.3 1.9-8 2.7-2.5.8-4.8 1.5-6.9 2.3-1 .4-1.8.6-2.5.9-1.9.6-3.4 1.1-5.4 2.5-.8.5-1.6 1.1-2.1 1.6-1.6 1.3-3.1 2.8-4.3 4.5-1 1.6-2.3 3-3.6 4.3-.4.4-1.2.6-2.4.6-1.3 0-3-.3-4.7-.6-1.8-.3-3.6-.6-5.2-.6-1.3 0-2.3.2-3 .6 0 0-1.2.7-1.8 1.7l.5.2c.8.4 1.5 1 2.2 1.6.7.6 1.5 1.2 2.3 1.6.3.1.5.2.7.4-.2.3-.5.7-.9 1.2-1.8 2.4-2.9 3.9-2.3 4.7.3.2.6.2.9.2 4 0 6.1-1 8.8-2.3.8-.4 1.6-.8 2.5-1.2 1.6-.7 3.3-1.8 5.1-2.9 2.4-1.5 4.8-3.1 7.2-3.9 2-.6 4-.9 6.1-.9 2.5 0 5.2.3 7.8.7 1.9.2 3.9.5 5.8.6.8 0 1.5.1 2.1.1.9 0 1.8 0 2.7-.1l.2-.1c1.4-.8 2-2.6 2.6-4.4.4-1.1.7-2.1 1.3-2.8l.1-.1h.2v.1c-.3 6.8-3.1 11.1-5.8 15l-1.9 2s2.6 0 4.1-.6C63 57.9 67 54.3 70 48.7c.7-1.5 1.4-2.9 2-4.5.1-.1.5-.4.5.3v1c-.1.9-.3 3-.3 3l1.7-.9c4-2.5 7.1-7.6 9.4-15.6 1-3.3 1.7-6.6 2.3-9.5.8-3.5 1.4-6.5 2.1-7.6 1.2-1.8 2.9-3 4.7-4.2.2-.2.5-.3.7-.5 2.2-1.5 4.3-3.3 4.8-6.6v.1c.4-2.5.1-3.1-.3-3.4z"/>
</svg>
