<svg xmlns="http://www.w3.org/2000/svg" viewBox="0 0 35.9 80" style="enable-background:new 0 0 35.9 80" xml:space="preserve">
    <path d="m17.7.2 2.1 4c.5.7 1 1.4 1.6 2 1.8 1.8 3.5 3.7 5 5.7 3.6 4.7 6.1 10 7.8 15.7 1 3.5 1.6 7.1 1.7 10.7.2 10.8-3.5 20.1-11 27.8-1.2 1.2-2.5 2.3-3.9 3.4-.7 0-1.1-.6-1.4-1.1-.6-1-.9-2-1.1-3.1-.3-1.3-.4-2.6-.3-4v-.6c-.1-.2-.7-60.2-.5-60.5z" style="fill:#599636"/>
    <path d="M17.7.1c-.1-.2-.2 0-.3 0 0 .9-.3 1.7-.7 2.4-.5.7-1.2 1.3-1.9 1.9-3.9 3.4-6.9 7.4-9.4 11.9C2.2 22.5.5 29 0 35.9c-.2 2.5.8 11.2 1.6 13.8 2.1 6.7 6 12.3 10.9 17.2 1.2 1.2 2.5 2.3 3.9 3.3.4 0 .4-.3.5-.6.2-.6.3-1.1.4-1.7l.9-6.5L17.7.1z" style="fill:#6cac48"/>
    <path d="M19.9 72.1c.1-1 .6-1.8 1.1-2.7-.5-.2-.9-.6-1.2-1.1-.3-.4-.5-1-.6-1.4-.6-1.8-.7-3.7-.9-5.6v-1.1c-.2.2-.3 1.7-.3 1.9-.1 2-.4 3.9-.8 5.9-.1.8-.2 1.6-.7 2.3v.3c.8 2.3 1 4.7 1.1 7.1v.9c0 1 0 .8.8 1.2.3.1.7.2 1.1.4.3 0 .3-.2.3-.4l-.1-1.4v-4c-.1-.9.1-1.6.2-2.3z" style="fill:#c2bfbf"/>
</svg>
