<?xml version="1.0" encoding="utf-8"?>
<!-- Generator: Adobe Illustrator 26.3.1, SVG Export Plug-In . SVG Version: 6.00 Build 0)  -->
<svg version="1.1" id="Layer_1" xmlns="http://www.w3.org/2000/svg" xmlns:xlink="http://www.w3.org/1999/xlink" x="0px" y="0px"
	 viewBox="0 0 78 48.4" style="enable-background:new 0 0 78 48.4;" xml:space="preserve">
<style type="text/css">
	.st0{fill:#012F55;}
	.st1{fill:#96D8E9;}
	.st2{fill:#48C4E5;}
</style>
<g>
	<path class="st0" d="M12,0l17,28.7v-13l9.9,15.5l-10.1,16L11.9,19.8l-0.1,28.6H0V0H12z M40.9,13.5l4.9,7.8l0.1,0.1
		c3.2-4.9,8.7-7.9,14.6-7.8c9.5,0,17.3,8.1,17.5,17.5v0.3l0,0v0.1c0,0.8-0.4,1.5-1.1,1.9c-0.7,0.4-1.6,0.4-2.3,0.1
		c-0.7-0.4-1.1-1.1-1.2-1.9v-0.1v-0.1c-0.1-1.5-0.9-2.1-1.9-2.5l-0.2-0.1l0,0L71,28.8l0,0l-0.2-0.1l0,0l-0.9-0.3l0,0l-0.2-0.1l0,0
		l-0.2-0.1l0,0l-0.2-0.1c0,0-0.1,0-0.1-0.1l-0.2-0.1l0,0l-0.2-0.1c-0.7-0.3-1.4-0.7-1.9-1.4L67,26.6l0,0l-0.1-0.1l0,0l-0.1-0.1l0,0
		l-0.1-0.2l0,0l-0.4-0.6l0,0l-0.1-0.2l0,0l-0.1-0.2l0,0L66,25l0,0l-0.1-0.2l0,0l-0.1-0.1l0,0l-0.1-0.1c0,0,0-0.1-0.1-0.1l-0.1-0.1
		c-0.9-1.1-2.4-2-5.2-2c-2.3,0-4.5,0.9-6.2,2.5c-1.6,1.6-2.5,3.9-2.5,6.2c0,0.3,0.1,0.7,0.2,0.9l0.1,0.1l10.4,16.3H50.9l-5.1-7.7
		l-5,7.7H29.3l11-17.3L29.1,13.5H40.9z M78,33.9c0.1,0.8,0,1.7-0.3,2.4c-0.4,0.9-1,1.1-1.4,1.1h-0.1l0,0h-0.1l0,0h-0.1l0,0H76l0,0
		H76l0,0h-0.1l0,0l0,0l0,0h-0.1l0,0l-0.1-0.1l0,0h-0.1l0,0l-0.1-0.1l0,0l-0.1-0.1l0,0l-0.1-0.1c-0.2-0.2-0.4-0.6-0.1-1.1
		c0.2-0.4,0.6-0.6,0.9-0.8l0.4-0.2C77.3,34.7,77.6,34.5,78,33.9z M40.9,0v12.3v0.1H29.1v-0.1V0H40.9z"/>
	<path class="st1" d="M59.2,25.9c-2.9-0.1-5.4,1.7-6.4,4.3c1.7-2.5,4.8-3.5,7.6-2.4c1.3,0.5,3,1.4,4.3,0.9
		C63.5,27,61.4,25.9,59.2,25.9L59.2,25.9z"/>
	<path class="st2" d="M72.6,31.7c0-1.4-0.8-1.8-2.4-2.4c-1.2-0.4-2.6-0.9-3.6-2.2c-0.2-0.2-0.4-0.6-0.6-0.9c-0.4-0.8-1-1.5-1.7-2.1
		c-0.9-0.7-2.2-1.1-3.9-1.1c-3.3,0-6.2,2-7.5,5c1.6-2.2,4.2-3.4,6.8-3.1c2.7,0.2,5,1.9,6.1,4.3c0.6,0.9,1.7,1.4,2.7,1.1
		c1.6-0.4,1.5,1.2,3.9,1.7V31.7z"/>
</g>
</svg>
