<?xml version="1.0" encoding="utf-8"?>
<!-- Generator: Adobe Illustrator 26.3.1, SVG Export Plug-In . SVG Version: 6.00 Build 0)  -->
<svg version="1.1" id="Layer_1" xmlns="http://www.w3.org/2000/svg" xmlns:xlink="http://www.w3.org/1999/xlink" x="0px" y="0px"
	 viewBox="0 0 78 78" style="enable-background:new 0 0 78 78;" xml:space="preserve">
<style type="text/css">
	.st0{fill:#93D500;}
	.st1{fill:#4D5A31;}
	.st2{fill:#6BA43A;}
	.st3{fill:#424143;}
</style>
<path class="st0" d="M20.6,44.8H0c0,0.1,0,0.2,0,0.3c0,0.2,0,0.4,0,0.6c0,0.1,0,0.2,0,0.2c0,0.2,0,0.4,0.1,0.7c0,0.1,0,0.1,0,0.1
	c0,0.2,0.1,0.5,0.1,0.7c0,0,0,0,0,0.1c0,0.3,0.1,0.5,0.1,0.8c0,0,0,0,0,0c0.2,1.6,0.6,3.3,1.1,4.9c0,0,0,0,0,0
	c0.1,0.3,0.2,0.5,0.2,0.8c0,0,0,0,0,0s0,0,0,0c0.1,0.2,0.1,0.4,0.2,0.7c0,0.1,0,0.1,0.1,0.2c0.1,0.2,0.1,0.4,0.2,0.6
	c0,0.1,0.1,0.2,0.1,0.3c0.1,0.2,0.1,0.3,0.2,0.5c0,0.1,0.1,0.2,0.1,0.4c0.1,0.1,0.1,0.2,0.2,0.4c0.1,0.2,0.1,0.3,0.2,0.5
	c0,0.1,0.1,0.2,0.1,0.3c0.1,0.2,0.2,0.4,0.3,0.5c0,0.1,0.1,0.1,0.1,0.2c0.1,0.2,0.2,0.4,0.3,0.6c0,0,0,0.1,0,0.1
	c0.1,0.2,0.2,0.5,0.4,0.7c0,0,0,0,0,0c0,0,0.1,0.1,0.1,0.1l17.6-10.6l0.1,0C21.2,48,20.8,46.4,20.6,44.8L20.6,44.8z"/>
<path class="st1" d="M25.7,54.3L25.7,54.3L11.1,68.8c0.1,0.1,0.1,0.1,0.2,0.2c0.1,0.1,0.3,0.2,0.4,0.4c0.1,0.1,0.1,0.1,0.2,0.2
	c0.2,0.1,0.3,0.3,0.5,0.4c0,0,0.1,0.1,0.1,0.1c0.2,0.2,0.4,0.3,0.6,0.5c0.2,0.2,0.4,0.3,0.6,0.5c0,0,0,0,0,0
	c0.9,0.7,1.8,1.3,2.7,1.8c0,0,0.1,0,0.1,0.1c0.2,0.1,0.4,0.2,0.5,0.3l0.3,0.2c0.1,0.1,0.2,0.1,0.3,0.2c0.2,0.1,0.4,0.2,0.6,0.3
	c0,0,0.1,0,0.1,0c0.5,0.3,1.1,0.5,1.6,0.8l0.5-1.2l7.3-17.7l0-0.1C27.2,55.4,26.4,54.9,25.7,54.3L25.7,54.3z"/>
<path class="st2" d="M24.2,52.8c-0.2-0.2-0.3-0.4-0.5-0.5c-0.1-0.2-0.3-0.3-0.4-0.5c-0.1-0.2-0.3-0.4-0.4-0.6
	c-0.1-0.2-0.3-0.4-0.4-0.6L5,61.3c0.3,0.4,0.6,0.9,0.8,1.3c0,0,0,0,0,0c0,0,0,0,0,0c0,0,0,0,0,0c0,0,0,0,0,0c0,0,0,0.1,0.1,0.1
	c0,0,0,0,0,0c0,0,0,0,0,0c0.3,0.5,0.6,0.9,0.9,1.3c0,0,0,0,0,0c0,0,0,0,0,0c0.1,0.2,0.3,0.4,0.4,0.6c0,0,0,0,0.1,0.1
	c0.1,0.2,0.3,0.4,0.5,0.6c0,0,0.1,0.1,0.1,0.1c0.1,0.2,0.3,0.3,0.4,0.5c0.1,0.1,0.1,0.1,0.2,0.2c0.1,0.1,0.2,0.3,0.4,0.4
	c0.1,0.1,0.1,0.1,0.2,0.2c0,0,0.1,0.1,0.1,0.1c0.1,0.1,0.2,0.2,0.3,0.3c0,0,0.1,0.1,0.1,0.1c0.2,0.2,0.3,0.3,0.5,0.5l14.5-14.5
	C24.5,53.2,24.3,53,24.2,52.8L24.2,52.8z"/>
<path class="st1" d="M43.4,54.3c-0.2,0.1-0.3,0.3-0.5,0.4l0,0.1l10.6,17.6c0.5-0.3,1-0.7,1.4-1c1-0.8,2-1.6,3-2.5L43.4,54.3
	L43.4,54.3z"/>
<path class="st0" d="M52,72.4l-0.4-0.6l-9.9-16.4c-0.2,0.1-0.4,0.2-0.6,0.3c-0.2,0.1-0.4,0.2-0.6,0.3c-1.9,0.9-4,1.4-6,1.4
	c-1.3,0-2.7-0.2-4-0.6c-0.2-0.1-0.4-0.2-0.7-0.2c-0.2-0.1-0.4-0.1-0.7-0.2l-7.3,17.7l-0.3,0.7l-0.2,0.6l0,0c0,0,0,0,0.1,0
	c0,0,0,0,0.1,0h0c0,0,0,0,0,0c0.2,0.1,0.3,0.1,0.5,0.2c0.2,0.1,0.4,0.2,0.7,0.2c0.1,0,0.2,0.1,0.3,0.1h0c2.3,0.8,4.6,1.4,7,1.7
	c0.1,0,0.2,0,0.3,0c0.1,0,0.2,0,0.3,0c0.2,0,0.4,0,0.6,0.1l0.1,0c0.2,0,0.5,0,0.7,0.1c0.1,0,0.2,0,0.2,0c0.2,0,0.4,0,0.6,0
	c0.1,0,0.2,0,0.4,0c0.2,0,0.3,0,0.5,0c0.2,0,0.5,0,0.7,0c0.1,0,0.1,0,0.2,0c1.9,0,3.8-0.2,5.7-0.5c0,0,0.1,0,0.1,0
	c0.2,0,0.4-0.1,0.6-0.1c0.1,0,0.2,0,0.3-0.1c0.1,0,0.2,0,0.4-0.1c0.2,0,0.4-0.1,0.6-0.1c0,0,0.1,0,0.1,0c2.9-0.7,5.7-1.7,8.3-3.1v0
	c0.2-0.1,0.3-0.2,0.5-0.3c0.2-0.1,0.4-0.2,0.6-0.3c0.1-0.1,0.3-0.2,0.4-0.2c0,0,0,0,0,0h0c0,0,0,0,0,0l0,0l0,0l0,0c0,0,0,0,0,0
	c0,0,0,0,0,0c0,0,0,0,0,0c0,0,0.1-0.1,0.1-0.1L52,72.4z M25.7,32.6c0.2-0.1,0.3-0.3,0.5-0.4l0-0.1L15.5,14.6c-0.5,0.3-1,0.7-1.5,1
	c-1,0.8-2,1.6-3,2.5L25.7,32.6L25.7,32.6z"/>
<path class="st1" d="M10.1,19c-0.2,0.2-0.3,0.3-0.5,0.5c-0.2,0.2-0.3,0.3-0.5,0.5c-1.1,1.1-2,2.4-2.9,3.6c0,0.1-0.1,0.1-0.1,0.2
	C6,24,5.9,24.1,5.8,24.3c-0.1,0.2-0.2,0.3-0.3,0.5c0,0.1-0.1,0.1-0.1,0.2C2.1,30.1,0.3,36.1,0,42.1c0,0.2,0,0.5,0,0.7
	c0,0.2,0,0.5,0,0.7h20.5c0-0.2,0-0.5,0-0.7c0-0.2,0-0.5,0-0.7c0.3-2.7,1.3-5.3,3.1-7.5c0.1-0.2,0.3-0.3,0.5-0.5
	c0.2-0.2,0.3-0.4,0.5-0.5L10.1,19z M52.5,13.9C52.5,13.9,52.4,13.9,52.5,13.9c-0.3-0.2-0.4-0.3-0.6-0.4c-0.1-0.1-0.2-0.1-0.3-0.2
	c-0.1-0.1-0.2-0.1-0.3-0.2c-0.2-0.1-0.4-0.2-0.6-0.3c0,0-0.1,0-0.1,0c-1.2-0.6-2.4-1.2-3.7-1.7c0,0-0.1,0-0.1,0
	c-0.3-0.1-0.6-0.2-0.8-0.3c-2.2-0.8-4.6-1.3-6.9-1.6l-0.3,0c-0.1,0-0.2,0-0.3,0c-0.2,0-0.4,0-0.6-0.1c-0.1,0-0.1,0-0.2,0
	c-0.2,0-0.4,0-0.7-0.1l-0.3,0c-0.2,0-0.4,0-0.6,0c-0.1,0-0.2,0-0.3,0v20.6c1.1,0.1,2.1,0.3,3.1,0.7l15.1-15.1
	C53.6,14.7,53.1,14.3,52.5,13.9L52.5,13.9z"/>
<path class="st2" d="M33.8,8.9c-0.2,0-0.5,0-0.7,0c-1.5,0.1-2.9,0.2-4.3,0.4c0,0-0.1,0-0.1,0c-0.2,0-0.4,0.1-0.6,0.1
	c-0.1,0-0.2,0-0.3,0.1c-0.1,0-0.2,0-0.4,0.1c-0.2,0-0.4,0.1-0.6,0.1c0,0-0.1,0-0.1,0c-2.9,0.7-5.7,1.7-8.3,3.1
	c-0.2,0.1-0.3,0.2-0.5,0.3c-0.2,0.1-0.4,0.2-0.6,0.3c-0.1,0.1-0.3,0.2-0.5,0.3c0,0,0,0,0,0c0,0,0,0,0,0c0,0-0.1,0-0.1,0.1l0,0
	l0.4,0.6l10.2,17c0.2-0.1,0.4-0.2,0.6-0.3c0.2-0.1,0.4-0.2,0.6-0.3c1.4-0.7,3-1.1,4.6-1.3c0.2,0,0.5,0,0.7-0.1c0.2,0,0.5,0,0.7,0
	V8.9C34.3,8.9,34.1,8.9,33.8,8.9L33.8,8.9z"/>
<path class="st1" d="M69,41.8c0-0.2,0-0.4,0-0.6c0-0.1,0-0.2,0-0.3c0-0.2,0-0.4-0.1-0.7c0-0.1,0-0.1,0-0.2c0-0.2,0-0.5-0.1-0.7
	c0,0,0,0,0-0.1l0,0c0-0.3-0.1-0.5-0.1-0.8l0,0c-0.2-1.6-0.6-3.3-1.1-4.9c0,0,0,0,0,0c-0.1-0.2-0.2-0.5-0.2-0.7c0,0,0-0.1,0-0.1
	c-0.1-0.2-0.1-0.4-0.2-0.7l-0.1-0.2c-0.1-0.2-0.1-0.4-0.2-0.6c0-0.1-0.1-0.2-0.1-0.3c-0.1-0.2-0.1-0.3-0.2-0.5
	c0-0.1-0.1-0.2-0.2-0.4c-0.1-0.1-0.1-0.2-0.2-0.4c-0.1-0.2-0.1-0.3-0.2-0.5c0-0.1-0.1-0.2-0.1-0.3c-0.1-0.2-0.2-0.4-0.3-0.6
	c0-0.1-0.1-0.1-0.1-0.2c-0.1-0.2-0.2-0.4-0.3-0.6c0,0,0-0.1,0-0.1c-0.1-0.2-0.2-0.5-0.4-0.7c0,0,0,0,0,0c-0.6-1.1-1.3-2.2-2-3.2
	L47.8,38.9c0.3,1,0.6,2.1,0.7,3.1h20.6C69.1,42,69,41.9,69,41.8L69,41.8z"/>
<path class="st2" d="M48.6,43.5c0,0.2,0,0.5,0,0.7c0,0.2,0,0.5,0,0.7c-0.3,2.7-1.3,5.3-3.1,7.5c-0.1,0.2-0.3,0.3-0.5,0.5
	c-0.2,0.2-0.3,0.3-0.5,0.5L59,67.9c0.2-0.2,0.3-0.3,0.5-0.5c0.2-0.2,0.3-0.3,0.5-0.5c1.1-1.2,2.1-2.4,2.9-3.6c0-0.1,0.1-0.1,0.1-0.1
	c0.1-0.2,0.2-0.3,0.3-0.5c0.1-0.1,0.2-0.3,0.3-0.4c0-0.1,0.1-0.1,0.1-0.2c3.3-5.2,5.1-11.2,5.4-17.1c0-0.2,0-0.5,0-0.7
	c0-0.2,0-0.5,0-0.7H48.6z"/>
<path class="st3" d="M75.2,2.8c-3.8-3.8-9.8-3.8-13.6,0c-3,3-3.6,7.5-1.8,11.1l-21,21c-3.6-1.8-8.1-1.2-11.1,1.8
	c-3.8,3.8-3.8,9.8,0,13.6c3.8,3.8,9.8,3.8,13.6,0c3-3,3.6-7.5,1.8-11.1l21-21c3.6,1.8,8.1,1.2,11.1-1.8C78.9,12.7,78.9,6.6,75.2,2.8
	L75.2,2.8z"/>
</svg>
