<svg version="1.1" id="Layer_1" xmlns="http://www.w3.org/2000/svg" x="0" y="0" viewBox="0 0 77.7 80" style="enable-background:new 0 0 77.7 80" xml:space="preserve">
    <style>
        .st2{fill:none;stroke:#fff;stroke-width:2.2351;stroke-linecap:round;stroke-linejoin:round}
    </style>
    <g id="Layer_x0020_3">
        <path d="M58 58.3c.6-4.2.4-4.9 3.5-4.1l.8.1c2.4.1 5.6-.4 7.4-1.3 4-1.8 6.4-5 2.5-4.1-9 1.8-9.6-1.2-9.6-1.2 9.5-14.1 13.5-32 10.1-36.4-9.4-12-25.6-6.4-25.9-6.2h-.1c-1.7-.4-3.8-.6-6.1-.6-4-.1-7.2 1.1-9.5 2.8 0 0-28.9-11.9-27.6 15 .3 5.7 8.2 43.3 17.6 31.9 3.5-4.1 6.8-7.7 6.8-7.7 1.7 1.1 3.7 1.7 5.7 1.5l.2-.1c-.1.6 0 1 .1 1.7-2.5 2.8-1.7 3.2-6.6 4.2-5 1-2 2.8-.2 3.3 2.3.6 7.6 1.4 11.2-3.7l-.2.6c.9.7.9 5.5 1 8.9.1 3.4.4 6.5 1 8.4.7 1.8 1.5 6.6 7.9 5.2 5.5-1.2 9.5-2.9 10-18.2" style="stroke:#000;stroke-width:6.7055"/>
        <path d="M72.1 48.7c-9 1.8-9.6-1.2-9.6-1.2C72 33.4 76 15.5 72.6 11.1 63.2-.8 47 4.8 46.7 5h-.1c-1.7-.4-3.8-.6-6.1-.6-4-.1-7.2 1.1-9.5 2.8 0 0-28.9-11.9-27.6 15 .3 5.7 8.2 43.3 17.6 31.9 3.5-4.1 6.8-7.7 6.8-7.7 1.7 1.1 3.7 1.7 5.7 1.5l.2-.1c-.1.6 0 1 .1 1.7-2.5 2.8-1.7 3.2-6.6 4.2-5 1-2 2.8-.2 3.3 2.3.6 7.6 1.4 11.2-3.7l-.2.5c.9.7 1.7 5 1.5 8.8-.1 3.9-.2 6.4.5 8.4s1.5 6.6 7.9 5.2c5.3-1.1 8.1-4.1 8.5-9.1.3-3.5.9-3 .9-6.1l.5-1.5c.6-4.8.1-6.3 3.4-5.6l.8.1c2.4.1 5.6-.4 7.4-1.3 4.3-1.7 6.7-4.8 2.7-4z" style="fill:#336791"/>
        <path class="st2" d="M38.7 51.5c-.3 8.9.1 17.8.9 20 .8 2.2 2.8 6.4 9.1 5 5.3-1.1 7.3-3.4 8.2-8.3.6-3.6 1.8-13.6 2-15.7M31 7S2-4.9 3.4 22c.3 5.7 8.3 43.3 17.7 31.9 3.5-4.1 6.6-7.4 6.6-7.4M46.7 4.8c-1 .4 16.1-6.2 25.8 6.1 3.4 4.4-.6 22.3-10.1 36.4"/>
        <path d="M62.5 47.5s.6 3 9.6 1.2c3.9-.8 1.6 2.3-2.5 4.1-3.3 1.6-10.6 1.9-10.8-.2-.2-5.4 4-3.8 3.7-5.1-.3-1.2-2.1-2.5-3.4-5.4C58 39.4 44.2 19.3 63 22.3c.6-.2-5-17.8-22.4-18.1S23.7 25.7 23.7 25.7" style="fill:none;stroke:#fff;stroke-width:2.2351;stroke-linecap:round;stroke-linejoin:bevel"/>
        <path class="st2" d="M33.9 49.3c-2.5 2.8-1.7 3.2-6.6 4.2-5 1-2 2.8-.2 3.3 2.3.6 7.6 1.4 11.2-3.7 1.1-1.6 0-3.9-1.5-4.6-.7-.2-1.7-.6-2.9.8h0z"/>
        <path class="st2" d="M33.7 49.2c-.3-1.6.6-3.5 1.4-5.7 1.3-3.3 4.1-6.7 1.8-17.3-1.7-7.9-13.1-1.7-13.1-.6s.6 5.4-.2 10.5c-.9 6.6 4.2 12.2 10.1 11.7"/>
        <path d="M30.9 25.5c-.1.4.6 1.4 1.7 1.5.9.1 1.7-.6 1.8-1 .1-.4-.6-.7-1.7-.9-.9-.1-1.7.1-1.8.4z" style="fill:#fff;stroke:#fff;stroke-width:.745"/>
        <path d="M59.6 24.8c.1.4-.6 1.4-1.7 1.5-.9.1-1.7-.6-1.8-1-.1-.4.6-.7 1.7-.9.8-.2 1.7 0 1.8.4z" style="fill:#fff;stroke:#fff;stroke-width:.3725"/>
        <path class="st2" d="M62.9 22.2c.2 2.8-.6 4.9-.7 7.9-.2 4.4 2.1 9.5-1.3 14.6"/>
    </g>
</svg>
