<svg version="1.1" id="Layer_1" xmlns="http://www.w3.org/2000/svg" x="0" y="0" viewBox="0 0 80 80" style="enable-background:new 0 0 80 80" xml:space="preserve">
    <style>
        .st0{fill:#689ec1}.st1{fill:#6db56d}.st2{fill:#eb822f}
    </style>
    <g id="Layer_2_00000172417298037286058280000007326730796413528967_">
        <g id="Layer_1-2">
            <path class="st0" d="M19.8 47.7c-.1 0-.2 0-.3-.1L.3 36c-.2-.1-.3-.3-.3-.5V13.8c0-.2.1-.4.3-.5.1-.1.4-.1.6 0l19 11.1c.1.1.3.3.3.4l.2 22.2c0 .2-.1.4-.3.5-.2.2-.3.2-.3.2zM1.1 35.2l18.1 11-.2-20.9L1.1 14.8v20.4z"/>
            <path class="st0" d="M19.8 47.2c-.2 0-.4-.1-.4-.3-.1-.3-.1-.6.2-.7l10.7-6.3 5.6-3.2c.3-.1.6-.1.7.2.1.3.1.6-.2.7L20 47.1l-.2.1z"/>
            <path class="st0" d="M38.9 80c-.1 0-.2 0-.3-.1L19.8 68.7c-.1-.1-.3-.3-.3-.4l-.3-21.1c0-.2.1-.4.3-.5.1-.1.4-.1.6 0l19 10.6c.1.1.3.3.3.5l.1 21.6c0 .2-.1.4-.3.5-.2 0-.3.1-.3.1zM20.5 68l17.8 10.6-.1-20.4-17.8-10 .1 19.8z"/>
            <path class="st1" d="M42.2 79.9c-.1 0-.1 0-.3-.1-.1-.1-.3-.3-.3-.4l-.3-21.6c0-.2.1-.4.3-.5l19-10.9c.1-.1.4-.1.6 0 .1.1.3.3.3.5L61 68.4c0 .2-.1.4-.3.4L42.5 79.9h-.3zm.3-21.8.3 20.3L59.9 68l.4-20.2-17.8 10.3z"/>
            <path class="st1" d="M60.7 46.9c-.1 0-.2 0-.3-.1l-10.8-6.2h-.1L44 37.4c-.3-.1-.4-.5-.2-.7.1-.3.5-.4.7-.2l16.4 9.4c.3.1.4.5.2.7-.1.2-.3.3-.4.3z"/>
            <path class="st1" d="M61 47.1c-.1 0-.2 0-.3-.1-.1-.1-.3-.3-.3-.4l-.3-21.7c0-.2.1-.4.3-.5l18.7-10.9c.1-.1.4-.1.6 0 .1.1.3.3.3.5v21.7c0 .2-.1.4-.3.4L61.3 47c-.1.1-.1.1-.3.1zm.3-22 .2 20.5 17.3-10.3V14.8L61.3 25.1z"/>
            <path class="st2" d="M59.6 22.2c-.1 0-.2 0-.3-.1L40.5 11.5c-.1-.1-.3-.3-.3-.5s.1-.4.3-.5L59.6.2c.1-.1.4-.1.5 0l18.4 10c.1.1.3.3.3.4 0 .2-.1.4-.3.5L59.9 22.2h-.3zM41.9 11.1l17.7 10.1 17.6-10.5-17.3-9.4-18 9.8z"/>
            <path class="st2" d="M40.4 30.7c-.3 0-.5-.2-.6-.5v-6.5l-.1-12.4c0-.3.2-.6.5-.6s.5.2.6.5l.1 18.9c0 .3-.2.6-.5.6z"/>
            <path class="st2" d="M21.5 22.5c-.1 0-.2 0-.3-.1L2.4 11.7c-.1-.1-.3-.3-.3-.5s.1-.4.3-.5L21.5 0c.2 0 .4 0 .6.1l18.4 10.5c.1.1.3.3.3.4 0 .2-.1.4-.3.5L21.8 22.4c-.1.1-.1.1-.3.1zM3.9 11.3l17.7 10.1 17.7-10.3-17.5-10L3.9 11.3z"/>
        </g>
    </g>
</svg>
