<svg version="1.1" id="Layer_1" xmlns="http://www.w3.org/2000/svg" x="0" y="0" viewBox="0 0 75.4 80" style="enable-background:new 0 0 75.4 80" xml:space="preserve">
    <style>
        .st3{fill-rule:evenodd;clip-rule:evenodd;fill:#c4c4c4}
    </style>
    <g id="svg_9">
        <path id="svg_1" transform="rotate(-30.114 36.865 28.926)" style="fill:#5c94b9" d="M20.3 25.5h33.2v6.9H20.3z"/>
        <path id="svg_2" style="fill:#62ac62" d="m22.9 43.7 28.7 16.4-3.5 6-28.6-16.4z"/>
        <path id="svg_3" style="fill:#e8762b" d="M58.2 23.2v33.1l6.9-.1v-33z"/>
        <path id="svg_4" class="st3" d="M20.7 53.4c6.6-3.8 8.9-12.3 5.1-18.8C22 28 13.6 25.8 7 29.6s-9 12.3-5.1 18.8c3.8 6.6 12.2 8.8 18.8 5zm-3.4-6c3.3-1.9 4.4-6.1 2.5-9.4-1.9-3.3-6.1-4.4-9.4-2.5-3.3 1.9-4.4 6.1-2.5 9.4 1.8 3.4 6.1 4.5 9.4 2.5z"/>
        <path id="svg_5" class="st3" d="M68.5 25.7c6.6-3.8 8.9-12.3 5.1-18.8-3.8-6.6-12.2-8.8-18.8-5s-8.9 12.3-5.1 18.8c3.8 6.6 12.2 8.8 18.8 5zm-3.4-6c3.3-1.9 4.4-6.1 2.5-9.4-1.9-3.3-6.1-4.4-9.4-2.5-3.3 1.9-4.4 6.1-2.5 9.4.5.8 1.1 1.5 1.7 2 2.1 1.7 5.2 2 7.7.5z"/>
        <path id="svg_6" d="M68.5 25.7c6.6-3.8 8.9-12.3 5.1-18.8-3.8-6.6-12.2-8.8-18.8-5-6.6 3.8-8.9 12.3-5.1 18.8 3.8 6.6 12.2 8.8 18.8 5zm-3.4-6c3.3-1.9 4.4-6.1 2.5-9.4-1.9-3.3-6.1-4.4-9.4-2.5-3.3 1.9-4.4 6.1-2.5 9.4.5.8 1.1 1.5 1.7 2 2.1 1.7 5.2 2 7.7.5z" style="fill-rule:evenodd;clip-rule:evenodd;fill:#5c94b9"/>
        <path id="svg_7" d="M53.9 78.2c6.6 3.8 15 1.5 18.9-5.1 3.8-6.6 1.6-15-5-18.8-6.6-3.8-15-1.5-18.9 5.1-3.9 6.6-1.6 15 5 18.8zm3.4-6c3.3 1.9 7.5.7 9.4-2.6 1.9-3.3.8-7.5-2.5-9.4-3.3-1.9-7.5-.7-9.4 2.6-1.9 3.3-.8 7.5 2.5 9.4z" style="fill-rule:evenodd;clip-rule:evenodd;fill:#e8762b"/>
        <path id="svg_8" d="M20.7 53.3c6.6-3.8 8.9-12.3 5.1-18.8-3.8-6.6-12.2-8.8-18.8-5-6.7 3.8-9 12.3-5.2 18.8 3.9 6.6 12.3 8.8 18.9 5zm-.4-9.6c.7-1.8.6-4-.5-5.8-1-1.7-2.7-2.9-4.5-3.3-1.6-.4-3.4-.1-4.9.8-1.7 1-2.8 2.5-3.2 4.2-.4 1.7-.2 3.5.7 5.2 1.9 3.3 6.1 4.4 9.4 2.5 1.4-.8 2.4-2.1 3-3.6z" style="fill-rule:evenodd;clip-rule:evenodd;fill:#62ac62"/>
    </g>
</svg>
