<?xml version="1.0" encoding="utf-8"?>
<!-- Generator: Adobe Illustrator 26.3.1, SVG Export Plug-In . SVG Version: 6.00 Build 0)  -->
<svg version="1.1" id="Layer_1" xmlns="http://www.w3.org/2000/svg" xmlns:xlink="http://www.w3.org/1999/xlink" x="0px" y="0px"
	 viewBox="0 0 78 77.6" style="enable-background:new 0 0 78 77.6;" xml:space="preserve">
<style type="text/css">
	.st0{fill-rule:evenodd;clip-rule:evenodd;fill:#FFFFFF;filter:url(#Adobe_OpacityMaskFilter);}
	.st1{mask:url(#mask0_00000022518230716279594780000009792465103132042921_);}
	.st2{fill:#0065A9;}
	.st3{fill:#007ACC;}
	.st4{fill:#1F9CF0;}
	.st5{opacity:0.25;}
	.st6{fill-rule:evenodd;clip-rule:evenodd;fill:url(#SVGID_1_);}
</style>
<defs>
	<filter id="Adobe_OpacityMaskFilter" filterUnits="userSpaceOnUse" x="0" y="0" width="78" height="77.6">
		<feColorMatrix  type="matrix" values="1 0 0 0 0  0 1 0 0 0  0 0 1 0 0  0 0 0 1 0"/>
	</filter>
</defs>
<mask maskUnits="userSpaceOnUse" x="0" y="0" width="78" height="77.6" id="mask0_00000022518230716279594780000009792465103132042921_">
	<path class="st0" d="M55.3,77.2c1.2,0.5,2.6,0.4,3.9-0.1l16-7.7c1.7-0.8,2.8-2.5,2.8-4.4V12.6c0-1.9-1.1-3.6-2.8-4.4l-16-7.7
		c-1.6-0.8-3.5-0.6-5,0.4c-0.2,0.1-0.4,0.3-0.6,0.5l-30.7,28L9.5,19.3c-1.2-0.9-3-0.9-4.1,0.2l-4.3,3.9c-1.4,1.3-1.4,3.5,0,4.8
		l11.6,10.6L1.1,49.4c-1.4,1.3-1.4,3.5,0,4.8l4.3,3.9c1.2,1.1,2.9,1.1,4.1,0.2l13.4-10.2l30.7,28C54.1,76.6,54.7,77,55.3,77.2z
		 M58.5,21.1L35.2,38.8l23.3,17.7V21.1z"/>
</mask>
<g class="st1">
	<path class="st2" d="M75.2,8.2L59.2,0.5c-1.9-0.9-4.1-0.5-5.5,0.9L1.1,49.4c-1.4,1.3-1.4,3.5,0,4.8l4.3,3.9
		c1.2,1.1,2.9,1.1,4.1,0.2l63.3-48c2.1-1.6,5.2-0.1,5.2,2.6v-0.2C78,10.7,76.9,9,75.2,8.2z"/>
	<g>
		<path class="st3" d="M75.2,69.3l-16.1,7.7c-1.9,0.9-4.1,0.5-5.5-0.9L1.1,28.2c-1.4-1.3-1.4-3.5,0-4.8l4.3-3.9
			c1.2-1.1,2.9-1.1,4.1-0.2l63.3,48c2.1,1.6,5.2,0.1,5.2-2.6v0.2C78,66.8,76.9,68.5,75.2,69.3z"/>
	</g>
	<g>
		<path class="st4" d="M59.2,77.1c-1.9,0.9-4.1,0.5-5.5-0.9c1.8,1.8,4.9,0.5,4.9-2V3.4c0-2.5-3.1-3.8-4.9-2c1.5-1.5,3.7-1.8,5.5-0.9
			l16.1,7.7C76.9,9,78,10.7,78,12.6V65c0,1.9-1.1,3.6-2.8,4.4L59.2,77.1z"/>
	</g>
	<g class="st5">
		
			<linearGradient id="SVGID_1_" gradientUnits="userSpaceOnUse" x1="38.9763" y1="79.5507" x2="38.9763" y2="2" gradientTransform="matrix(1 0 0 -1 0 79.5508)">
			<stop  offset="0" style="stop-color:#FFFFFF"/>
			<stop  offset="1" style="stop-color:#FFFFFF;stop-opacity:0"/>
		</linearGradient>
		<path class="st6" d="M55.3,77.2c1.2,0.5,2.6,0.4,3.9-0.1l16-7.7c1.7-0.8,2.8-2.5,2.8-4.4V12.6c0-1.9-1.1-3.6-2.8-4.4l-16-7.7
			c-1.6-0.8-3.5-0.6-5,0.4c-0.2,0.1-0.4,0.3-0.6,0.5l-30.7,28L9.5,19.3c-1.2-0.9-3-0.9-4.1,0.2l-4.3,3.9c-1.4,1.3-1.4,3.5,0,4.8
			l11.6,10.6L1.1,49.4c-1.4,1.3-1.4,3.5,0,4.8l4.3,3.9c1.2,1.1,2.9,1.1,4.1,0.2l13.4-10.2l30.7,28C54.1,76.6,54.7,77,55.3,77.2z
			 M58.5,21.1L35.2,38.8l23.3,17.7V21.1z"/>
	</g>
</g>
</svg>
