<svg
  version="1.1"
  xmlns="http://www.w3.org/2000/svg"
  xmlns:xlink="http://www.w3.org/1999/xlink"
  viewBox="0 0 20 20"
  xml:space="preserve"
>
  <path
    class="svg-icon-bg"
    fill="transparent"
    d="M8.4,19L8,16.2L7.5,16c-0.5-0.2-1-0.5-1.5-0.8l-0.5-0.3l-2.6,1l-1.6-2.7l2.2-1.7l-0.1-0.6
		c0-0.3-0.1-0.6-0.1-0.9s0-0.6,0.1-0.9l0.1-0.6L1.4,6.9L3,4.1l2.6,1L6,4.9C6.5,4.5,7,4.2,7.5,4L8,3.8L8.4,1h3.1L12,3.8L12.5,4
		c0.5,0.2,1,0.5,1.5,0.8l0.5,0.3l2.6-1l1.6,2.7l-2.2,1.7l0.1,0.6c0,0.3,0.1,0.6,0.1,0.9s0,0.6-0.1,0.9l-0.1,0.6l2.2,1.7L17,15.9
		l-2.6-1L14,15.1c-0.5,0.4-1,0.7-1.5,0.9L12,16.2L11.6,19H8.4z"
  />
  <path
    fill="currentColor"
    d="M17.4,11c0-0.3,0.1-0.6,0.1-1c0-0.3,0-0.7-0.1-1l2.1-1.6c0.2-0.1,0.2-0.4,0.1-0.6l-2-3.5
	C17.6,3.1,17.4,3,17.2,3c-0.1,0-0.1,0-0.2,0l-2.5,1c-0.5-0.4-1.1-0.7-1.7-1l-0.4-2.6C12.5,0.2,12.3,0,12,0H8C7.8,0,7.5,0.2,7.5,0.4
	L7.1,3.1C6.5,3.3,6,3.7,5.4,4.1L3,3.1C2.9,3,2.8,3,2.8,3C2.6,3,2.4,3.1,2.3,3.3l-2,3.5C0.2,7,0.3,7.2,0.5,7.4L2.6,9
	c0,0.3-0.1,0.7-0.1,1c0,0.3,0,0.7,0.1,1l-2.1,1.6c-0.2,0.1-0.2,0.4-0.1,0.6l2,3.5C2.4,16.9,2.6,17,2.8,17c0.1,0,0.1,0,0.2,0l2.5-1
	c0.5,0.4,1.1,0.7,1.7,1l0.4,2.6C7.5,19.8,7.8,20,8,20h4c0.2,0,0.5-0.2,0.5-0.4l0.4-2.6c0.6-0.3,1.2-0.6,1.7-1l2.5,1
	c0.1,0,0.1,0,0.2,0c0.2,0,0.3-0.1,0.4-0.2l2-3.5c0.1-0.2,0.1-0.5-0.1-0.6L17.4,11z M15.5,9.3c0,0.3,0,0.5,0,0.7c0,0.2,0,0.4,0,0.7
	l-0.1,1.1l0.9,0.7l1.1,0.8l-0.7,1.2l-1.3-0.5l-1-0.4l-0.9,0.7c-0.4,0.3-0.8,0.6-1.2,0.7l-1.1,0.4l-0.2,1.1L10.7,18H9.3l-0.2-1.3
	L9,15.5l-1.1-0.4c-0.4-0.2-0.8-0.4-1.2-0.7l-0.9-0.7l-1.1,0.4l-1.3,0.5l-0.7-1.2l1.1-0.8l0.9-0.7l-0.1-1.1c0-0.3-0.1-0.5-0.1-0.7
	c0-0.2,0-0.4,0.1-0.7l0.1-1.1L3.8,7.4L2.7,6.6l0.7-1.2l1.3,0.5l1,0.4l0.9-0.7c0.4-0.3,0.8-0.6,1.3-0.7l1.1-0.4l0.2-1.1L9.3,2h1.4
	l0.2,1.3L11,4.5l1.1,0.4c0.4,0.2,0.8,0.4,1.2,0.7l0.9,0.7l1.1-0.4l1.3-0.5l0.7,1.2l-1.1,0.9l-0.9,0.7L15.5,9.3z M10,6
	c-2.2,0-4,1.8-4,4c0,2.2,1.8,4,4,4c2.2,0,4-1.8,4-4C14,7.8,12.2,6,10,6z M10,12c-1.1,0-2-0.9-2-2s0.9-2,2-2c1.1,0,2,0.9,2,2
	S11.1,12,10,12z"
  />
  <path fill="currentColor" d="M32.9,6.1" />
</svg>