<svg width="42" height="40" viewBox="0 0 42 40" fill="none" xmlns="http://www.w3.org/2000/svg">
<path d="M26.0284 18.2725C24.6769 17.2878 23.1019 16.6449 20.9051 16.6449C16.9503 16.6449 15.0101 18.728 12.7636 21.1402C10.3358 23.7467 7.58421 26.7011 2.17312 26.7011C1.249 26.7011 0.5 25.9521 0.5 25.0279C0.5 24.1036 1.249 23.3545 2.17312 23.3545C6.1279 23.3545 8.06809 21.2714 10.3146 18.8593C12.7424 16.2527 15.4938 13.2984 20.9051 13.2984C24.0899 13.2984 26.3535 14.3218 28.172 15.6954" stroke="currentColor" stroke-miterlimit="2" stroke-linecap="round" stroke-linejoin="round"/>
<path d="M34.5068 21.7227C35.8597 22.7102 37.4362 23.3548 39.6364 23.3548C40.5605 23.3548 41.3095 24.1038 41.3095 25.0282C41.3095 25.9523 40.5605 26.7013 39.6364 26.7013C36.4626 26.7013 34.2039 25.685 32.3885 24.3187" stroke="currentColor" stroke-miterlimit="2" stroke-linecap="round" stroke-linejoin="round"/>
<path d="M15.8457 21.7726C17.183 22.7316 18.7432 23.3545 20.9055 23.3545C24.8603 23.3545 26.8005 21.2714 29.047 18.8593C31.4748 16.2527 34.2264 13.2984 39.6375 13.2984C40.5616 13.2984 41.3106 14.0474 41.3106 14.9718C41.3106 15.8959 40.5616 16.6449 39.6375 16.6449C35.6827 16.6449 33.7425 18.728 31.496 21.1402C29.0683 23.7467 26.3169 26.7011 20.9055 26.7011C17.8534 26.7011 15.6474 25.7611 13.8684 24.474" stroke="currentColor" stroke-miterlimit="2" stroke-linecap="round" stroke-linejoin="round"/>
<path d="M7.44543 18.3832C6.06059 17.3361 4.45112 16.6449 2.17312 16.6449C1.249 16.6449 0.5 15.8959 0.5 14.9718C0.5 14.0474 1.249 13.2984 2.17312 13.2984C5.4806 13.2984 7.79445 14.402 9.64806 15.8554" stroke="currentColor" stroke-miterlimit="2" stroke-linecap="round" stroke-linejoin="round"/>
<path d="M11.6794 9.66345V12.6456" stroke="currentColor" stroke-miterlimit="2" stroke-linecap="round" stroke-linejoin="round"/>
<path fill-rule="evenodd" clip-rule="evenodd" d="M11.6789 9.66376C10.5965 9.66376 9.71899 8.78622 9.71899 7.7038C9.71899 6.62138 10.5965 5.74384 11.6789 5.74384C12.7614 5.74384 13.6389 6.62138 13.6389 7.7038C13.6389 8.78622 12.7614 9.66376 11.6789 9.66376Z" stroke="currentColor" stroke-miterlimit="2" stroke-linecap="round" stroke-linejoin="round"/>
<path d="M11.6794 30.3357V27.3536" stroke="currentColor" stroke-miterlimit="2" stroke-linecap="round" stroke-linejoin="round"/>
<path fill-rule="evenodd" clip-rule="evenodd" d="M11.6789 30.3361C12.7614 30.3361 13.6389 31.2136 13.6389 32.296C13.6389 33.3784 12.7614 34.256 11.6789 34.256C10.5965 34.256 9.71899 33.3784 9.71899 32.296C9.71899 31.2136 10.5965 30.3361 11.6789 30.3361Z" stroke="currentColor" stroke-miterlimit="2" stroke-linecap="round" stroke-linejoin="round"/>
<path d="M20.9064 5.86188V9.94082" stroke="currentColor" stroke-miterlimit="2" stroke-linecap="round" stroke-linejoin="round"/>
<path fill-rule="evenodd" clip-rule="evenodd" d="M20.9052 5.86185C19.4245 5.86185 18.2243 4.66162 18.2243 3.18092C18.2243 1.70022 19.4245 0.5 20.9052 0.5C22.3859 0.5 23.5861 1.70022 23.5861 3.18092C23.5861 4.66162 22.3859 5.86185 20.9052 5.86185Z" stroke="currentColor" stroke-miterlimit="2" stroke-linecap="round" stroke-linejoin="round"/>
<path d="M20.9064 34.1377V30.0587" stroke="currentColor" stroke-miterlimit="2" stroke-linecap="round" stroke-linejoin="round"/>
<path fill-rule="evenodd" clip-rule="evenodd" d="M20.9052 34.1379C22.3859 34.1379 23.5861 35.3383 23.5861 36.8188C23.5861 38.2995 22.3859 39.5 20.9052 39.5C19.4245 39.5 18.2243 38.2995 18.2243 36.8188C18.2243 35.3383 19.4245 34.1379 20.9052 34.1379Z" stroke="currentColor" stroke-miterlimit="2" stroke-linecap="round" stroke-linejoin="round"/>
<path d="M30.1314 9.66345V12.6456" stroke="currentColor" stroke-miterlimit="2" stroke-linecap="round" stroke-linejoin="round"/>
<path fill-rule="evenodd" clip-rule="evenodd" d="M30.1309 9.66376C29.0485 9.66376 28.171 8.78622 28.171 7.7038C28.171 6.62138 29.0485 5.74384 30.1309 5.74384C31.2133 5.74384 32.0909 6.62138 32.0909 7.7038C32.0909 8.78622 31.2133 9.66376 30.1309 9.66376Z" stroke="currentColor" stroke-miterlimit="2" stroke-linecap="round" stroke-linejoin="round"/>
<path d="M30.1314 30.3357V27.3536" stroke="currentColor" stroke-miterlimit="2" stroke-linecap="round" stroke-linejoin="round"/>
<path fill-rule="evenodd" clip-rule="evenodd" d="M30.1309 30.3361C31.2133 30.3361 32.0909 31.2136 32.0909 32.296C32.0909 33.3784 31.2133 34.256 30.1309 34.256C29.0485 34.256 28.171 33.3784 28.171 32.296C28.171 31.2136 29.0485 30.3361 30.1309 30.3361Z" stroke="currentColor" stroke-miterlimit="2" stroke-linecap="round" stroke-linejoin="round"/>
</svg>
