<svg width="339" height="72" viewBox="0 0 339 72" fill="none" xmlns="http://www.w3.org/2000/svg">
<path d="M17.774 39.3588L23.4397 43.378L40.4366 45.4689L44.1325 49.5578H53.5868L62.9369 42.5881L68.4634 35.8043C68.4634 35.8043 69.6221 35.572 69.2397 28.0098C68.8574 20.4477 61.1294 13.5477 61.1294 13.5477L52.8337 4.52197L37.6095 3.13965L25.5483 4.49874L11.645 13.5245L3.53467 25.8957V34.3523L9.58264 40.1604L18.7589 36.7917L17.774 39.3588Z" fill="#CA4382"/>
<path d="M66.9223 36.6516C63.641 39.0231 59.6012 40.0946 55.5795 39.6602C55.1539 40.8327 54.509 41.913 53.6794 42.8431C51.0327 45.8049 47.737 48.1111 44.0513 49.5804C45.2181 51.0132 46.7789 52.0709 48.5399 52.6223C50.301 53.1737 52.1847 53.1944 53.9574 52.6819C55.191 52.3361 56.3314 51.7168 57.2942 50.8698C57.7807 50.7827 58.2608 50.6624 58.7309 50.5097C61.938 49.5604 64.7109 47.5123 66.5657 44.7227C68.4206 41.9332 69.2398 38.5793 68.8804 35.2461C68.2914 35.798 67.6332 36.2705 66.9223 36.6516Z" fill="#E567A1"/>
<path d="M69.3555 22.9101C69.2536 22.0442 69.0752 21.189 68.8225 20.3546C68.8225 20.2617 68.7183 20.1803 68.7183 20.0874C68.0883 17.8608 67.0247 15.7814 65.5889 13.9691C64.1532 12.1568 62.3736 10.6475 60.3531 9.52832C58.3251 6.23368 55.3052 3.6705 51.7294 2.20893C48.1537 0.747354 44.2071 0.463028 40.4596 1.397C40.1816 1.50155 39.9267 1.57125 39.5443 1.67579H39.4516C36.2723 0.10458 32.6671 -0.379233 29.1875 0.29835C25.7079 0.975934 22.5455 2.77761 20.1839 5.42781C18.5117 5.34274 16.8369 5.53106 15.225 5.98539C12.8064 6.71644 10.6321 8.09435 8.93576 9.97108C7.23943 11.8478 6.08515 14.1525 5.59692 16.6374C3.45172 18.453 1.82888 20.8099 0.896021 23.4646C-0.0368385 26.1193 -0.245891 28.9756 0.29046 31.7384C2.00521 39.3819 9.2118 45.1202 19.732 40.648C19.732 40.7526 19.732 40.7526 19.8247 40.8339C19.9734 39.2254 20.464 37.6674 21.2634 36.2649C22.0628 34.8623 23.1525 33.6477 24.4592 32.7026C21.7596 28.8808 15.364 21.5162 10.6832 23.6884C10.0841 23.9205 9.53846 24.2726 9.07957 24.7232C8.62069 25.1738 8.2582 25.7134 8.01425 26.3091C7.77029 26.9048 7.64998 27.5441 7.66066 28.188C7.67134 28.8319 7.81278 29.4668 8.07635 30.0541C9.06118 32.2263 11.4943 33.7945 15.028 32.3773C15.3409 32.2968 15.6724 32.3341 15.9598 32.4821C16.2471 32.63 16.4704 32.8784 16.5874 33.1803C16.7044 33.4822 16.707 33.8166 16.5948 34.1203C16.4825 34.424 16.2631 34.6758 15.9781 34.8283C10.9497 36.9192 7.05677 34.3637 5.71278 31.0879C5.31349 30.1893 5.09695 29.2198 5.07582 28.2362C5.0547 27.2527 5.22941 26.2748 5.58974 25.3597C5.95007 24.4446 6.48879 23.6108 7.17437 22.907C7.85996 22.2032 8.67865 21.6435 9.58255 21.2606C10.6143 20.7425 11.7705 20.5252 12.9194 20.6334C12.8862 19.3966 13.0997 18.1656 13.5474 17.0127C13.995 15.8597 14.6678 14.808 15.5262 13.9192C18.2258 11.1894 22.1999 10.6435 24.0768 10.5622C25.4092 6.54296 29.2095 4.27781 34.1568 4.64953C36.5198 4.9095 38.7632 5.82688 40.6334 7.29801C41.3291 7.82442 41.9872 8.39888 42.6031 9.01721C45.488 7.19347 49.5548 6.11317 53.0306 7.37933C55.3478 8.19246 58.256 10.2834 59.2524 15.8359C60.3113 16.3056 61.2593 16.9945 62.034 17.8573C62.8087 18.7201 63.3928 19.7374 63.7478 20.8425C64.0101 21.8867 64.0327 22.9771 63.814 24.0314C63.5952 25.0857 63.1408 26.0765 62.4849 26.9293C61.3263 28.5672 58.7889 30.5652 53.8416 30.751H53.6563C53.5636 30.751 44.5611 29.8334 41.3286 36.3036C41.1432 36.6637 40.9694 37.0354 40.7956 37.3142C39.9781 38.9142 38.6 40.1552 36.9259 40.799C36.6478 40.892 36.3929 40.892 36.1148 40.9733C35.2063 40.991 34.3052 40.8052 33.4774 40.4294C32.6496 40.0536 31.9159 39.4973 31.3298 38.801C31.1172 38.5329 31.0177 38.1921 31.0523 37.8514C31.0869 37.5106 31.253 37.197 31.5151 36.9773C31.7774 36.7643 32.1127 36.6631 32.4487 36.6957C32.7846 36.7283 33.0943 36.892 33.311 37.1516C33.9478 37.851 34.8353 38.2687 35.7788 38.3132C36.8679 38.2202 37.9339 37.047 39.0114 35.0374C39.5084 34.1422 40.0863 33.2945 40.7377 32.5051C42.7086 30.4226 45.2894 29.0231 48.1065 28.5091C50.0036 28.063 51.9621 27.9413 53.8996 28.149C57.7694 27.9748 59.5652 26.6041 60.4805 25.4192C60.8807 24.8799 61.1595 24.26 61.2975 23.6022C61.4355 22.9444 61.4295 22.2644 61.28 21.6091C60.6543 19.2278 57.6882 18.1243 57.6882 18.043C57.4597 17.9683 57.2599 17.8242 57.1167 17.6306C56.9734 17.4371 56.8938 17.2036 56.8888 16.9627C56.3558 13.1409 54.8149 10.7712 52.2543 9.86519C49.0913 8.77327 44.9435 10.3182 42.6958 12.4091C41.8186 13.3131 41.2241 14.4544 40.9853 15.6927C40.7465 16.9309 40.8739 18.2122 41.3518 19.3788C42.7514 19.0011 44.2153 18.927 45.6458 19.1614C47.0763 19.3957 48.4405 19.9332 49.6475 20.7379C49.9276 20.9392 50.1199 21.2408 50.1846 21.5802C50.2493 21.9196 50.1814 22.271 49.995 22.5617C49.8023 22.8457 49.5052 23.0418 49.1688 23.1071C48.8323 23.1724 48.4838 23.1016 48.1992 22.9101C47.2245 22.3148 46.134 21.9352 45.001 21.797C43.868 21.6588 42.7186 21.765 41.6298 22.1086C41.2707 22.2015 40.9926 22.2829 40.7261 22.3758C37.9339 23.4677 37.1228 25.2101 37.1228 25.3844C37.0728 25.5641 36.9833 25.7303 36.8611 25.871C36.7388 26.0116 36.5868 26.1232 36.4161 26.1975C36.0653 26.3315 35.6777 26.3315 35.327 26.1975C34.3781 25.8689 33.3583 25.8033 32.3753 26.0078C31.3923 26.2123 30.4826 26.6791 29.7425 27.3591C28.8741 27.943 28.2039 28.7782 27.821 29.7536C27.438 30.7289 27.3606 31.7981 27.599 32.8187C27.6862 33.1104 27.6704 33.4234 27.5543 33.7048C27.4382 33.9862 27.229 34.2189 26.9618 34.3637C25.7244 35.0785 24.6825 36.0888 23.9285 37.3047C23.1746 38.5207 22.732 39.9046 22.6401 41.3334C22.5988 42.4664 22.8514 43.5908 23.3733 44.5967C23.8953 45.6025 24.6686 46.4553 25.6178 47.0718C28.0537 48.2743 30.8462 48.5349 33.4616 47.8036C34.4207 47.5223 35.3311 47.0953 36.1612 46.5374C37.5876 47.2781 39.1962 47.5926 40.7956 47.4435C42.7155 47.2281 44.576 46.6444 46.2759 45.7243C48.3673 44.588 50.2297 43.0714 51.7677 41.2521C52.7066 40.3525 53.3355 39.1768 53.5636 37.895C53.5776 37.5121 53.7396 37.1496 54.0154 36.8844C54.3285 36.6529 54.7192 36.5529 55.1045 36.6056C56.9074 36.9855 58.7704 36.9747 60.5688 36.574C62.3671 36.1733 64.0594 35.392 65.5321 34.2824C67.0703 33.334 68.2394 31.8873 68.8457 30.1819C69.0209 29.7159 69.1641 29.2386 69.2744 28.7531C69.5435 27.6115 69.6719 26.4411 69.6567 25.2682C69.6336 24.5945 69.4945 24.0369 69.3555 22.9101Z" fill="#E567A1"/>
<path d="M33.8786 7.33269C29.835 7.0539 26.9269 8.79632 26.2201 12.1534C26.1587 12.4578 25.9878 12.7289 25.74 12.9152C25.4922 13.1016 25.1848 13.1901 24.8761 13.164C24.7834 13.164 19.9288 13.0595 17.2177 15.8125C16.5665 16.4973 16.0693 17.314 15.7595 18.2077C15.4498 19.1014 15.3346 20.0512 15.4218 20.9933V21.2721C17.7537 22.1895 19.8488 23.6229 21.5509 25.4655C22.7624 26.6582 23.8926 27.9311 24.9341 29.2756C25.4891 27.6882 26.4912 26.2962 27.819 25.268C28.7816 24.4342 29.924 23.8355 31.1563 23.519C32.3887 23.2026 33.6774 23.177 34.9213 23.4443C35.8784 22.1198 37.1484 21.0542 38.6173 20.3428C37.9553 18.7317 37.7727 16.9629 38.0913 15.25C38.41 13.5371 39.2164 11.9533 40.4132 10.6898C39.2893 9.60945 36.7635 7.53016 33.8786 7.33269Z" fill="#E567A1"/>
<path d="M66.1811 51.6138C67.8379 53.2749 69.4715 54.936 71.1284 56.6204C71.3322 56.79 71.5918 56.8774 71.8564 56.8656C72.121 56.8538 72.3718 56.7436 72.5598 56.5566C72.7479 56.3695 72.8597 56.1189 72.8735 55.8537C72.8873 55.5885 72.8021 55.3276 72.6346 55.1219C70.9777 53.4608 69.3325 51.7997 67.6757 50.1153C66.714 49.128 65.2078 50.6497 66.1811 51.6138Z" fill="#2F8E94"/>
<path d="M87.8936 66.3079L82.2627 71.9998L69.124 58.7341L71.8815 55.9462L74.7549 53.0654L87.8936 66.3079Z" fill="#FCCB71"/>
<path opacity="0.85" d="M69.0426 41.7977C69.0431 44.9577 67.9825 48.0257 66.0316 50.5075C64.0806 52.9893 61.3531 54.7403 58.2885 55.4783C55.2239 56.2162 52.0007 55.8982 49.1383 54.5754C46.276 53.2526 43.9413 51.0021 42.5103 48.1866C42.0001 47.2037 41.611 46.1622 41.3517 45.0851C41.1052 44.007 40.9846 42.9038 40.9926 41.7977C40.9934 38.4963 42.1543 35.3006 44.2714 32.772C45.5884 31.1873 47.238 29.9138 49.1027 29.0423C50.9673 28.1708 53.0009 27.7229 55.0581 27.7306C57.2751 27.7262 59.4606 28.2561 61.4305 29.2755C63.4944 30.3398 65.2627 31.9008 66.577 33.8186C67.8914 35.7364 68.7107 37.9511 68.9615 40.2644C68.9615 40.7871 69.0426 41.2982 69.0426 41.7977Z" fill="white"/>
<path d="M69.1586 41.6351C69.1472 44.4791 68.2955 47.256 66.7112 49.6152C65.1269 51.9744 62.8809 53.81 60.2569 54.8905C57.6328 55.9709 54.7483 56.2476 51.9675 55.6858C49.1866 55.1239 46.6342 53.7486 44.6324 51.7335C42.6306 49.7184 41.2691 47.1538 40.7199 44.3635C40.1707 41.5733 40.4583 38.6824 41.5465 36.0559C42.6347 33.4294 44.4746 31.1851 46.8341 29.6062C49.1935 28.0272 51.9666 27.1846 54.8034 27.1846C58.6178 27.1938 62.2726 28.7211 64.9644 31.4307C67.6562 34.1404 69.1648 37.8107 69.1586 41.6351V41.6351Z" stroke="#7EC8CC" stroke-width="2" stroke-miterlimit="10"/>
<path d="M110.278 45.2831H107.624C107.362 45.2908 107.104 45.2089 106.894 45.0507C106.705 44.909 106.56 44.7154 106.477 44.4932L105.099 40.7295H97.4633L96.0846 44.4932C96.01 44.7102 95.8729 44.9002 95.6906 45.0391C95.4821 45.2014 95.2246 45.2875 94.9607 45.2831H92.2959L99.5257 26.8018H103.001L110.278 45.2831ZM98.3439 38.3134H104.218L101.982 32.1684C101.878 31.8896 101.762 31.576 101.634 31.2043C101.507 30.8326 101.391 30.426 101.275 30.0427C101.159 30.4725 101.043 30.879 100.928 31.2043C100.812 31.5295 100.696 31.9129 100.592 32.1917L98.3439 38.3134Z" fill="#3C4A63"/>
<path d="M128.665 35.9897C128.676 37.2639 128.449 38.5289 127.993 39.7185C127.57 40.8203 126.92 41.8203 126.086 42.653C125.251 43.4857 124.251 44.1324 123.15 44.5508C121.934 45.018 120.64 45.2506 119.338 45.2362H112.305V26.7897H119.338C120.64 26.7753 121.934 27.0078 123.15 27.475C124.25 27.9023 125.252 28.5506 126.093 29.3801C126.94 30.2051 127.607 31.1981 128.051 32.2958C128.48 33.4787 128.688 34.731 128.665 35.9897ZM125.189 35.9897C125.205 35.0635 125.068 34.1411 124.783 33.2599C124.54 32.5063 124.146 31.8106 123.625 31.2154C123.118 30.6572 122.492 30.2205 121.794 29.9377C121.025 29.6264 120.202 29.4723 119.373 29.4846H115.793V42.4947H119.373C120.201 42.505 121.023 42.3551 121.794 42.0533C122.493 41.7665 123.119 41.3258 123.625 40.7639C124.146 40.1688 124.54 39.473 124.783 38.7195C125.058 37.8367 125.184 36.914 125.154 35.9897H125.189Z" fill="#3C4A63"/>
<path d="M140.077 34.5379H140.877C141.15 34.5472 141.422 34.4998 141.676 34.3985C141.891 34.3041 142.079 34.1561 142.221 33.9687L147.307 27.5218C147.482 27.2807 147.713 27.0855 147.979 26.9526C148.257 26.8321 148.558 26.7765 148.86 26.7899H151.826L145.616 34.4682C145.444 34.6823 145.259 34.8841 145.059 35.0723C144.884 35.2286 144.69 35.3613 144.48 35.4672C144.754 35.5663 145.009 35.7117 145.233 35.897C145.485 36.1061 145.707 36.3484 145.894 36.6172L152.289 45.2829H149.265C148.95 45.3039 148.635 45.2439 148.35 45.1086C148.142 44.9814 147.967 44.8062 147.84 44.5975L142.638 37.7788C142.486 37.5754 142.287 37.4119 142.059 37.3026C141.772 37.1857 141.464 37.1341 141.155 37.1516H140.077V45.2829H136.602V26.7783H140.077V34.5379Z" fill="#3C4A63"/>
<path d="M154.271 45.2831V32.1568H156.194C156.372 32.1427 156.55 32.192 156.697 32.296C156.843 32.4001 156.948 32.5523 156.993 32.726L157.213 33.7599C157.475 33.4973 157.753 33.2528 158.048 33.028C158.338 32.8061 158.648 32.6117 158.974 32.4472C159.312 32.2872 159.666 32.1626 160.029 32.0755C160.433 31.9892 160.844 31.9463 161.257 31.9477C161.909 31.9385 162.556 32.0651 163.157 32.3194C163.689 32.5501 164.16 32.8998 164.536 33.3417C164.919 33.8008 165.203 34.3348 165.37 34.9099C165.572 35.5602 165.669 36.2385 165.66 36.9194V45.2831H162.52V36.9194C162.561 36.2533 162.364 35.5941 161.964 35.0609C161.753 34.833 161.493 34.6561 161.204 34.5435C160.915 34.4308 160.604 34.3853 160.295 34.4104C159.764 34.4053 159.239 34.5288 158.766 34.7705C158.271 35.0401 157.819 35.3805 157.422 35.7811V45.2831H154.271Z" fill="#3C4A63"/>
<path d="M174.465 31.9478C175.375 31.9369 176.279 32.0985 177.13 32.424C177.892 32.7209 178.583 33.1761 179.158 33.7599C179.735 34.3689 180.177 35.0933 180.455 35.8857C181.073 37.7046 181.073 39.6774 180.455 41.4963C180.174 42.2908 179.732 43.0186 179.158 43.6336C178.586 44.2238 177.895 44.6835 177.13 44.9811C175.41 45.6158 173.52 45.6158 171.8 44.9811C171.033 44.6823 170.338 44.223 169.761 43.6336C169.179 43.0222 168.732 42.2936 168.452 41.4963C167.819 39.6799 167.819 37.702 168.452 35.8857C168.729 35.0902 169.176 34.3649 169.761 33.7599C170.342 33.1793 171.037 32.7246 171.8 32.424C172.651 32.0996 173.555 31.938 174.465 31.9478ZM174.465 43.0296C174.934 43.0588 175.403 42.9675 175.826 42.7642C176.25 42.5609 176.615 42.2524 176.887 41.868C177.468 40.9007 177.739 39.7773 177.663 38.6503C177.737 37.5198 177.467 36.3934 176.887 35.421C176.615 35.0366 176.25 34.7281 175.826 34.5248C175.403 34.3215 174.934 34.2302 174.465 34.2594C173.993 34.2306 173.521 34.3219 173.094 34.525C172.666 34.7281 172.297 35.0364 172.02 35.421C171.439 36.3932 171.165 37.5189 171.233 38.6503C171.162 39.7783 171.437 40.9008 172.02 41.868C172.299 42.2511 172.668 42.5581 173.095 42.761C173.522 42.9639 173.993 43.0563 174.465 43.0296Z" fill="#3C4A63"/>
<path d="M181.915 32.1567H184.406C184.618 32.1508 184.828 32.2073 185.009 32.3193C185.161 32.4177 185.269 32.5719 185.31 32.7491L187.187 39.7188C187.291 40.1021 187.372 40.4854 187.442 40.8804C187.511 41.2753 187.557 41.6122 187.627 41.9839C187.72 41.6122 187.812 41.2521 187.917 40.8804C188.021 40.5087 188.137 40.137 188.264 39.7188L190.419 32.7491C190.48 32.5819 190.589 32.4365 190.732 32.3309C190.889 32.2239 191.075 32.1672 191.265 32.1683H192.655C192.86 32.1636 193.062 32.2202 193.235 32.3309C193.378 32.4338 193.483 32.5806 193.536 32.7491L195.679 39.9046C195.784 40.2764 195.888 40.6248 195.981 40.9733C196.073 41.3218 196.154 41.6703 196.236 42.0188C196.293 41.6471 196.363 41.287 196.432 40.9152C196.502 40.5435 196.595 40.1718 196.711 39.7536L198.645 32.7839C198.69 32.6087 198.797 32.4559 198.947 32.3541C199.117 32.2468 199.314 32.1904 199.514 32.1915H201.901L197.753 45.2829H195.251C194.984 45.2829 194.787 45.0854 194.671 44.7137L192.354 37.14C192.273 36.8961 192.204 36.6405 192.146 36.3849C192.088 36.1294 192.03 35.8855 191.983 35.6415C191.983 35.8971 191.879 36.1526 191.821 36.4082C191.763 36.6637 191.694 36.9077 191.613 37.1632L189.295 44.7137C189.261 44.8736 189.174 45.0171 189.047 45.1206C188.921 45.224 188.763 45.2813 188.6 45.2829H186.19L181.915 32.1567Z" fill="#3C4A63"/>
<path d="M207.149 26.2793V45.2833H203.998V26.2793H207.149Z" fill="#3C4A63"/>
<path d="M216.233 31.9479C217.023 31.937 217.808 32.0708 218.55 32.3428C219.226 32.5942 219.839 32.9907 220.346 33.5044C220.859 34.0394 221.254 34.6766 221.505 35.3747C221.796 36.1823 221.937 37.0366 221.922 37.8954C221.922 38.1277 221.922 38.3252 221.922 38.4878C221.91 38.6185 221.87 38.7452 221.806 38.8595C221.755 38.9486 221.672 39.015 221.574 39.0454C221.46 39.0717 221.341 39.0717 221.227 39.0454H213.116C213.114 40.1352 213.5 41.19 214.205 42.0191C214.535 42.3372 214.926 42.5847 215.354 42.7465C215.783 42.9082 216.239 42.9809 216.696 42.96C217.143 42.9687 217.588 42.91 218.017 42.7858C218.352 42.6769 218.678 42.541 218.99 42.3792C219.268 42.2398 219.512 42.112 219.72 41.9842C219.903 41.8749 220.11 41.8148 220.323 41.81C220.435 41.8071 220.546 41.831 220.647 41.8797C220.741 41.9373 220.824 42.0122 220.891 42.1004L221.817 43.262C221.482 43.6596 221.092 44.0077 220.659 44.2959C220.236 44.5718 219.781 44.7942 219.303 44.958C218.836 45.1191 218.355 45.2358 217.867 45.3065C217.395 45.3751 216.918 45.41 216.441 45.411C215.575 45.4177 214.715 45.2642 213.904 44.958C213.137 44.6592 212.441 44.1998 211.865 43.6105C211.261 42.9848 210.799 42.236 210.509 41.4151C210.158 40.4439 209.989 39.416 210.011 38.3832C210.003 37.5241 210.149 36.6705 210.44 35.8625C210.714 35.1019 211.135 34.4032 211.68 33.8065C212.238 33.2105 212.912 32.736 213.661 32.4125C214.478 32.0865 215.353 31.9285 216.233 31.9479ZM216.302 34.213C215.909 34.1877 215.515 34.2437 215.144 34.3776C214.773 34.5115 214.434 34.7204 214.147 34.9913C213.584 35.5982 213.234 36.3734 213.151 37.1984H219.06C219.062 36.8054 219.007 36.4142 218.898 36.0368C218.794 35.6879 218.621 35.3638 218.388 35.0842C218.147 34.8085 217.851 34.5868 217.519 34.4337C217.133 34.2773 216.719 34.2022 216.302 34.213Z" fill="#3C4A63"/>
<path d="M233.786 45.283C233.605 45.2948 233.425 45.2434 233.277 45.1375C233.129 45.0317 233.023 44.8779 232.975 44.7022L232.72 43.4361C232.456 43.7322 232.173 44.0115 231.874 44.2724C231.573 44.5132 231.251 44.727 230.913 44.9113C230.544 45.0932 230.155 45.2297 229.754 45.3179C229.334 45.4237 228.901 45.4745 228.468 45.4689C227.79 45.4744 227.12 45.3234 226.51 45.0275C225.906 44.7146 225.379 44.27 224.969 43.7265C224.511 43.0942 224.177 42.3808 223.984 41.6239C223.73 40.6893 223.609 39.7233 223.625 38.7547C223.62 37.8369 223.756 36.9239 224.03 36.0482C224.278 35.2581 224.671 34.5215 225.189 33.876C225.672 33.2786 226.276 32.7915 226.962 32.4472C227.682 32.0924 228.476 31.9133 229.279 31.9244C229.918 31.9076 230.554 32.0264 231.144 32.2729C231.657 32.5055 232.128 32.8237 232.535 33.2138V26.2441H235.686V45.283H233.786ZM229.592 42.9598C230.175 42.9799 230.752 42.8393 231.26 42.5532C231.76 42.2486 232.2 41.8549 232.558 41.3916V35.5022C232.252 35.1061 231.854 34.791 231.399 34.5845C230.97 34.4054 230.509 34.3146 230.044 34.3174C229.601 34.3124 229.162 34.4035 228.758 34.5845C228.364 34.7644 228.024 35.0448 227.773 35.3977C227.48 35.8137 227.271 36.2834 227.159 36.78C227 37.4219 226.926 38.0819 226.939 38.7431C226.925 39.3986 226.987 40.0535 227.124 40.6946C227.22 41.1575 227.401 41.5985 227.657 41.9957C227.861 42.3134 228.15 42.567 228.491 42.7275C228.838 42.8819 229.213 42.961 229.592 42.9598Z" fill="#3C4A63"/>
<path d="M243.762 31.924C244.292 31.9206 244.821 31.9791 245.337 32.0982C245.81 32.2028 246.265 32.3708 246.693 32.5977H250.447V33.7593C250.458 33.9243 250.404 34.0872 250.296 34.2124C250.152 34.3435 249.969 34.4249 249.775 34.4447L248.616 34.6654C248.701 34.8919 248.767 35.125 248.813 35.3624C248.86 35.6191 248.883 35.8796 248.883 36.1406C248.891 36.7507 248.76 37.3545 248.5 37.9063C248.238 38.4219 247.871 38.8769 247.423 39.2421C246.936 39.6178 246.387 39.9048 245.801 40.0901C245.144 40.2945 244.461 40.3964 243.773 40.3922C243.29 40.3897 242.809 40.3391 242.336 40.2411C241.919 40.4967 241.722 40.7755 241.722 41.0775C241.718 41.2007 241.749 41.3226 241.813 41.428C241.877 41.5333 241.97 41.6175 242.082 41.6699C242.386 41.8106 242.71 41.9008 243.043 41.9371C243.49 41.9866 243.938 42.0099 244.387 42.0068C244.885 42.0068 245.395 42.0068 245.928 42.0765C246.446 42.1142 246.961 42.1879 247.469 42.2972C247.942 42.3932 248.396 42.5658 248.813 42.8083C249.208 43.0317 249.536 43.3565 249.763 43.7492C250.027 44.2158 250.155 44.7468 250.134 45.2826C250.135 45.8713 249.988 46.4508 249.705 46.9669C249.398 47.536 248.976 48.0345 248.466 48.4305C247.874 48.8935 247.202 49.2438 246.484 49.4644C245.619 49.7374 244.715 49.8707 243.808 49.8593C242.938 49.87 242.07 49.7725 241.224 49.5689C240.582 49.4082 239.969 49.1496 239.405 48.8022C238.968 48.5198 238.6 48.1427 238.328 47.6987C238.099 47.3028 237.976 46.855 237.968 46.3977C237.96 45.8265 238.163 45.2724 238.536 44.8411C238.968 44.3925 239.5 44.0539 240.089 43.8538C239.775 43.6805 239.509 43.4333 239.312 43.1336C239.104 42.7832 239.004 42.3793 239.023 41.9719C239.026 41.7673 239.057 41.5641 239.116 41.3679C239.191 41.1458 239.297 40.9348 239.428 40.7406C239.587 40.5303 239.766 40.3359 239.961 40.1598C240.192 39.967 240.444 39.8031 240.714 39.6719C240.085 39.3574 239.543 38.8903 239.139 38.3129C238.755 37.6797 238.559 36.9508 238.571 36.2103C238.561 35.6026 238.696 35.0012 238.965 34.4563C239.217 33.9337 239.585 33.4765 240.042 33.1204C240.533 32.7345 241.091 32.4431 241.688 32.2608C242.359 32.0497 243.058 31.9362 243.762 31.924ZM247.237 45.8634C247.245 45.7466 247.228 45.6296 247.188 45.5196C247.148 45.4097 247.086 45.3092 247.006 45.2245C246.832 45.0474 246.617 44.9157 246.38 44.8411C246.083 44.7394 245.776 44.6693 245.465 44.632C245.106 44.632 244.735 44.632 244.306 44.632H243.078C242.688 44.6285 242.299 44.5818 241.919 44.4927C241.589 44.6639 241.297 44.901 241.062 45.1896C240.846 45.4459 240.731 45.7721 240.738 46.1073C240.736 46.3359 240.796 46.5607 240.911 46.7578C241.042 46.9755 241.231 47.1524 241.456 47.2689C241.759 47.4376 242.088 47.5553 242.429 47.6174C242.923 47.6617 243.419 47.6578 243.912 47.6058C244.422 47.6126 244.93 47.5659 245.43 47.4664C245.793 47.3911 246.144 47.266 246.473 47.0947C246.724 46.9575 246.936 46.7574 247.087 46.5139C247.187 46.2961 247.231 46.0563 247.214 45.8169L247.237 45.8634ZM243.762 38.4406C244.108 38.4461 244.453 38.3911 244.781 38.278C245.05 38.1856 245.295 38.0348 245.5 37.8366C245.693 37.6465 245.843 37.4167 245.94 37.1629C246.035 36.8823 246.082 36.5878 246.079 36.2916C246.095 36.0079 246.051 35.724 245.952 35.458C245.852 35.1919 245.698 34.9497 245.5 34.7467C244.995 34.3767 244.387 34.1772 243.762 34.1772C243.137 34.1772 242.528 34.3767 242.024 34.7467C241.825 34.9497 241.671 35.1919 241.572 35.458C241.472 35.724 241.429 36.0079 241.444 36.2916C241.446 36.5846 241.497 36.8752 241.595 37.1512C241.692 37.405 241.842 37.6349 242.035 37.825C242.238 38.0333 242.489 38.1888 242.765 38.278C243.088 38.3732 243.425 38.4124 243.762 38.3942V38.4406Z" fill="#3C4A63"/>
<path d="M257.955 31.9481C258.745 31.9398 259.529 32.0735 260.272 32.343C260.943 32.5976 261.551 32.9937 262.056 33.5046C262.573 34.0367 262.968 34.6748 263.215 35.3749C263.516 36.1802 263.661 37.0357 263.644 37.8956C263.657 38.0928 263.657 38.2907 263.644 38.488C263.632 38.6187 263.592 38.7454 263.528 38.8597C263.478 38.9452 263.4 39.0109 263.308 39.0456C263.189 39.0729 263.067 39.0729 262.948 39.0456H254.838C254.832 40.1339 255.214 41.1885 255.916 42.0193C256.247 42.3383 256.64 42.5863 257.07 42.748C257.501 42.9098 257.959 42.982 258.418 42.9602C258.865 42.9689 259.31 42.9102 259.739 42.786C260.07 42.6772 260.392 42.5412 260.701 42.3794C260.979 42.24 261.222 42.1122 261.431 41.9844C261.613 41.8751 261.821 41.815 262.033 41.8102C262.149 41.8072 262.264 41.8311 262.369 41.8799C262.463 41.9375 262.546 42.0124 262.612 42.1006L263.528 43.2622C263.193 43.6604 262.802 44.0085 262.369 44.2961C261.944 44.5676 261.489 44.7897 261.014 44.9582C260.543 45.1193 260.058 45.236 259.565 45.3067C259.097 45.3749 258.625 45.4098 258.152 45.4112C257.285 45.4201 256.425 45.2664 255.614 44.9582C254.845 44.6637 254.149 44.2037 253.575 43.6107C252.972 42.9826 252.506 42.2347 252.208 41.4153C251.857 40.4441 251.688 39.4162 251.71 38.3834C251.706 37.5237 251.855 36.6701 252.15 35.8627C252.415 35.0905 252.837 34.382 253.389 33.7821C253.942 33.1821 254.613 32.704 255.36 32.3779C256.187 32.0607 257.07 31.9145 257.955 31.9481ZM258.024 34.2132C257.631 34.1899 257.238 34.2469 256.867 34.3807C256.497 34.5145 256.157 34.7223 255.869 34.9915C255.31 35.6013 254.961 36.3749 254.873 37.1986H260.793C260.797 36.8046 260.738 36.4125 260.62 36.037C260.52 35.6862 260.346 35.3613 260.11 35.0844C259.874 34.8033 259.577 34.5807 259.241 34.4339C258.855 34.2775 258.441 34.2024 258.024 34.2132Z" fill="#3C4A63"/>
<path d="M275.079 38.7666V45.2833H271.604V26.7903H277.605C278.687 26.7679 279.765 26.9129 280.803 27.2201C281.622 27.4639 282.381 27.8797 283.027 28.4398C283.605 28.9467 284.053 29.5837 284.337 30.2984C284.613 31.0415 284.755 31.8284 284.754 32.6217C284.764 33.4641 284.61 34.3006 284.302 35.0843C284.014 35.8194 283.558 36.4761 282.97 37.0009C282.342 37.5914 281.595 38.0391 280.78 38.3136C279.768 38.6335 278.712 38.7865 277.651 38.7666H275.079ZM275.079 36.0833H277.651C278.21 36.0932 278.765 36.0108 279.297 35.8393C279.728 35.7026 280.123 35.4726 280.455 35.1656C280.762 34.8671 280.996 34.5013 281.139 34.0969C281.296 33.6413 281.375 33.1619 281.371 32.6797C281.375 32.224 281.296 31.7714 281.139 31.3439C280.996 30.9532 280.761 30.6027 280.455 30.3217C280.122 30.0221 279.726 29.8 279.297 29.6712C278.763 29.5135 278.208 29.4391 277.651 29.4504H275.079V36.0833Z" fill="#3C4A63"/>
<path d="M292.574 31.9478C293.484 31.9369 294.388 32.0985 295.239 32.424C296.001 32.7209 296.692 33.1761 297.266 33.7599C297.844 34.3689 298.286 35.0933 298.564 35.8857C299.182 37.7046 299.182 39.6774 298.564 41.4963C298.283 42.2908 297.841 43.0186 297.266 43.6336C296.695 44.2238 296.004 44.6835 295.239 44.9811C293.519 45.6158 291.629 45.6158 289.909 44.9811C289.167 44.6738 288.496 44.2149 287.94 43.6336C287.357 43.0199 286.908 42.2922 286.619 41.4963C286.001 39.6774 286.001 37.7046 286.619 35.8857C286.905 35.0919 287.355 34.3676 287.94 33.7599C288.519 33.1767 289.213 32.7216 289.979 32.424C290.808 32.108 291.687 31.9466 292.574 31.9478ZM292.574 43.0296C293.043 43.0588 293.511 42.9675 293.935 42.7642C294.359 42.5609 294.724 42.2524 294.996 41.868C295.577 40.9007 295.848 39.7773 295.772 38.6503C295.846 37.5198 295.576 36.3934 294.996 35.421C294.724 35.0366 294.359 34.7281 293.935 34.5248C293.511 34.3215 293.043 34.2302 292.574 34.2594C292.102 34.2306 291.63 34.3219 291.203 34.525C290.775 34.7281 290.406 35.0364 290.129 35.421C289.548 36.3932 289.273 37.5189 289.341 38.6503C289.271 39.7783 289.546 40.9008 290.129 41.868C290.408 42.2511 290.777 42.5581 291.204 42.761C291.631 42.9639 292.102 43.0563 292.574 43.0296Z" fill="#3C4A63"/>
<path d="M301.646 45.2831V32.1568H303.5C303.737 32.1323 303.976 32.1941 304.172 32.3311C304.319 32.5042 304.409 32.7197 304.427 32.9467L304.612 34.5382C305.025 33.7941 305.585 33.142 306.257 32.6215C306.867 32.1577 307.612 31.9086 308.378 31.9129C308.947 31.8927 309.508 32.0466 309.988 32.3543L309.571 34.6775C309.561 34.8029 309.503 34.9194 309.409 35.0028C309.308 35.0741 309.184 35.1071 309.061 35.0957C308.885 35.0905 308.71 35.0632 308.54 35.0144C308.251 34.9459 307.955 34.9147 307.659 34.9215C307.054 34.9095 306.462 35.1018 305.979 35.4674C305.473 35.899 305.076 36.4443 304.821 37.0589V45.1902L301.646 45.2831Z" fill="#3C4A63"/>
<path d="M316.488 45.4689C316.009 45.4982 315.529 45.4277 315.078 45.2618C314.628 45.0958 314.216 44.8381 313.87 44.5048C313.225 43.7745 312.896 42.8179 312.954 41.8447V34.5149H311.622C311.543 34.5184 311.465 34.5058 311.391 34.4779C311.317 34.4499 311.25 34.4072 311.193 34.3523C311.127 34.2882 311.076 34.2101 311.044 34.1237C311.012 34.0372 311 33.9446 311.008 33.8528V32.5982L313.105 32.2613L313.765 28.6836C313.792 28.5251 313.879 28.3834 314.009 28.2886C314.143 28.1907 314.306 28.1415 314.472 28.1492H316.106V32.273H319.582V34.5149H316.106V41.624C316.082 41.9718 316.19 42.3158 316.407 42.5881C316.511 42.6988 316.637 42.7861 316.776 42.8441C316.916 42.9022 317.067 42.9298 317.218 42.925C317.387 42.9289 317.555 42.9053 317.716 42.8553L318.052 42.7159L318.319 42.5649C318.388 42.521 318.468 42.4969 318.551 42.4952C318.633 42.4935 318.714 42.5179 318.782 42.5649C318.852 42.6268 318.914 42.697 318.968 42.774L319.906 44.3073C319.441 44.6957 318.906 44.9914 318.33 45.1785C317.736 45.3744 317.114 45.4725 316.488 45.4689Z" fill="#3C4A63"/>
<path d="M332.431 45.2832H331.017C330.774 45.2952 330.531 45.2473 330.31 45.1438C330.213 45.084 330.128 45.0046 330.062 44.9107C329.997 44.8168 329.951 44.7103 329.928 44.5978L329.65 43.6685C329.314 43.9706 328.989 44.2261 328.677 44.4584C328.36 44.6748 328.027 44.8651 327.68 45.0276C327.336 45.1835 326.974 45.2966 326.603 45.3645C326.183 45.4472 325.756 45.4861 325.328 45.4807C324.831 45.4898 324.335 45.4232 323.857 45.2832C323.429 45.14 323.035 44.9108 322.698 44.6095C322.35 44.288 322.081 43.8905 321.91 43.4478C321.715 42.9526 321.621 42.4235 321.632 41.8913C321.637 41.3778 321.773 40.874 322.026 40.4276C322.336 39.8868 322.778 39.4348 323.312 39.115C324.061 38.6714 324.874 38.3462 325.722 38.1509C326.949 37.8711 328.206 37.7424 329.465 37.7675V36.9893C329.519 36.2893 329.322 35.5929 328.908 35.0261C328.702 34.8104 328.45 34.6425 328.172 34.5341C327.894 34.4258 327.596 34.3796 327.298 34.3988C326.866 34.3874 326.436 34.4462 326.023 34.5731C325.713 34.6766 325.414 34.8129 325.131 34.9797L324.436 35.3746C324.224 35.4956 323.985 35.5597 323.741 35.5605C323.541 35.5655 323.346 35.5043 323.185 35.3862C323.032 35.2802 322.906 35.1413 322.814 34.9797L322.246 33.969C323.725 32.5975 325.678 31.8561 327.692 31.9014C328.389 31.8915 329.082 32.0177 329.731 32.2731C330.311 32.5111 330.832 32.8717 331.26 33.3302C331.687 33.7908 332.011 34.3373 332.21 34.9332C332.429 35.5923 332.539 36.2829 332.535 36.9776L332.431 45.2832ZM326.313 43.3084C326.612 43.3123 326.911 43.2851 327.205 43.2271C327.468 43.1626 327.724 43.0731 327.97 42.96C328.219 42.8367 328.456 42.6888 328.677 42.5185C328.919 42.3342 329.147 42.1323 329.36 41.9145V39.7074C328.584 39.6946 327.809 39.753 327.043 39.8817C326.533 39.9677 326.035 40.1159 325.56 40.3231C325.243 40.4632 324.967 40.6833 324.761 40.962C324.609 41.1932 324.529 41.4637 324.529 41.7403C324.513 41.9586 324.549 42.1775 324.634 42.3793C324.718 42.5811 324.849 42.7602 325.015 42.9019C325.392 43.1748 325.849 43.3138 326.313 43.2968V43.3084Z" fill="#3C4A63"/>
<path d="M339 26.2793V45.2833H335.86V26.2793H339Z" fill="#3C4A63"/>
</svg>
