<svg width="213" height="71" viewBox="0 0 213 71" fill="none" xmlns="http://www.w3.org/2000/svg">
<path d="M124.05 48.1963H122.144C121.918 48.1963 121.733 48.1399 121.588 48.027C121.444 47.898 121.331 47.7367 121.25 47.5432L117.219 37.6003H100.443L96.4363 47.5432C96.3719 47.7206 96.2593 47.8738 96.0983 48.0028C95.9374 48.1318 95.7443 48.1963 95.519 48.1963H93.6362L107.612 13.9648H110.074L124.05 48.1963ZM101.192 35.7617H116.495L109.519 18.4645C109.407 18.1904 109.294 17.8839 109.181 17.5452C109.069 17.1904 108.956 16.8195 108.843 16.4324C108.731 16.8195 108.618 17.1904 108.505 17.5452C108.393 17.8839 108.28 18.1984 108.167 18.4887L101.192 35.7617Z" fill="#3C4A63"/>
<path d="M136.218 23.7142C137.264 23.7142 138.229 23.8432 139.114 24.1012C140.015 24.3593 140.82 24.7222 141.528 25.1899H147.683V25.9882C147.683 26.3914 147.458 26.6091 147.007 26.6414L143.363 26.9075C143.813 27.5203 144.159 28.2139 144.401 28.988C144.642 29.746 144.763 30.5605 144.763 31.4314C144.763 32.5926 144.553 33.649 144.135 34.6005C143.717 35.5359 143.129 36.3423 142.373 37.0197C141.633 37.6809 140.74 38.197 139.694 38.568C138.648 38.9389 137.489 39.1244 136.218 39.1244C134.834 39.1244 133.579 38.9147 132.452 38.4954C131.776 38.8825 131.245 39.3421 130.859 39.8743C130.473 40.4065 130.28 40.9226 130.28 41.4226C130.28 42.1161 130.521 42.6483 131.004 43.0193C131.487 43.3902 132.122 43.6644 132.911 43.8418C133.715 44.0031 134.625 44.1079 135.638 44.1563C136.668 44.2047 137.706 44.2611 138.752 44.3256C139.814 44.374 140.852 44.4708 141.866 44.6159C142.896 44.7611 143.805 45.0191 144.594 45.3901C145.398 45.7449 146.042 46.2529 146.525 46.9142C147.007 47.5593 147.249 48.4221 147.249 49.5027C147.249 50.5026 146.999 51.4622 146.501 52.3815C146.002 53.3008 145.278 54.1153 144.328 54.8249C143.395 55.5345 142.26 56.099 140.925 56.5183C139.589 56.9538 138.092 57.1715 136.435 57.1715C134.745 57.1715 133.265 56.9941 131.993 56.6393C130.722 56.3006 129.652 55.8329 128.783 55.2362C127.93 54.6556 127.287 53.9782 126.852 53.204C126.418 52.4299 126.2 51.6074 126.2 50.7365C126.2 49.4624 126.619 48.3657 127.455 47.4464C128.292 46.5271 129.443 45.8175 130.907 45.3175C130.103 45.0433 129.459 44.6482 128.976 44.1321C128.51 43.616 128.276 42.8983 128.276 41.979C128.276 41.6403 128.341 41.2855 128.469 40.9146C128.598 40.5436 128.791 40.1808 129.049 39.8259C129.306 39.455 129.612 39.1083 129.966 38.7857C130.336 38.4631 130.762 38.1728 131.245 37.9148C130.103 37.2535 129.21 36.3746 128.566 35.2779C127.938 34.1812 127.624 32.899 127.624 31.4314C127.624 30.2702 127.826 29.2218 128.228 28.2864C128.646 27.3349 129.226 26.5204 129.966 25.843C130.722 25.1657 131.631 24.6415 132.693 24.2706C133.756 23.8996 134.93 23.7142 136.218 23.7142ZM145.125 49.8172C145.125 49.0592 144.924 48.4544 144.521 48.0028C144.135 47.5351 143.612 47.1722 142.952 46.9142C142.292 46.6561 141.528 46.4787 140.659 46.3819C139.806 46.269 138.905 46.1884 137.956 46.14C137.022 46.0916 136.081 46.0433 135.131 45.9949C134.182 45.9465 133.297 45.8497 132.476 45.7046C131.865 45.9465 131.293 46.2287 130.762 46.5513C130.247 46.8577 129.805 47.2125 129.435 47.6157C129.065 48.0028 128.775 48.4302 128.566 48.8979C128.357 49.3817 128.252 49.9059 128.252 50.4704C128.252 51.18 128.429 51.8332 128.783 52.4299C129.153 53.0428 129.684 53.5669 130.376 54.0024C131.084 54.454 131.945 54.8088 132.959 55.0668C133.973 55.3249 135.14 55.4539 136.459 55.4539C137.682 55.4539 138.817 55.3168 139.863 55.0426C140.925 54.7684 141.842 54.3814 142.614 53.8814C143.403 53.3815 144.014 52.7847 144.449 52.0912C144.899 51.3977 145.125 50.6397 145.125 49.8172ZM136.218 37.5519C137.248 37.5519 138.165 37.4068 138.969 37.1165C139.774 36.81 140.45 36.3907 140.997 35.8585C141.544 35.3263 141.955 34.6892 142.228 33.9473C142.518 33.2054 142.663 32.3829 142.663 31.4798C142.663 30.5766 142.518 29.7541 142.228 29.0122C141.938 28.2542 141.512 27.6091 140.949 27.0768C140.402 26.5446 139.726 26.1333 138.921 25.843C138.133 25.5527 137.231 25.4076 136.218 25.4076C135.204 25.4076 134.295 25.5527 133.49 25.843C132.685 26.1333 132.002 26.5446 131.438 27.0768C130.891 27.6091 130.473 28.2542 130.183 29.0122C129.893 29.7541 129.749 30.5766 129.749 31.4798C129.749 32.3829 129.893 33.2054 130.183 33.9473C130.473 34.6892 130.891 35.3263 131.438 35.8585C132.002 36.3907 132.685 36.81 133.49 37.1165C134.295 37.4068 135.204 37.5519 136.218 37.5519Z" fill="#3C4A63"/>
<path d="M161.823 23.7384C163.545 23.7384 165.081 24.0367 166.433 24.6335C167.801 25.2141 168.952 26.0446 169.885 27.1252C170.818 28.2058 171.526 29.5121 172.009 31.0443C172.508 32.5603 172.757 34.2618 172.757 36.1488C172.757 38.0357 172.508 39.7372 172.009 41.2533C171.526 42.7693 170.818 44.0676 169.885 45.1482C168.952 46.2287 167.801 47.0593 166.433 47.6399C165.081 48.2205 163.545 48.5108 161.823 48.5108C160.101 48.5108 158.556 48.2205 157.188 47.6399C155.836 47.0593 154.686 46.2287 153.736 45.1482C152.803 44.0676 152.087 42.7693 151.588 41.2533C151.105 39.7372 150.864 38.0357 150.864 36.1488C150.864 34.2618 151.105 32.5603 151.588 31.0443C152.087 29.5121 152.803 28.2058 153.736 27.1252C154.686 26.0446 155.836 25.2141 157.188 24.6335C158.556 24.0367 160.101 23.7384 161.823 23.7384ZM161.823 46.6964C163.255 46.6964 164.502 46.4545 165.564 45.9707C166.642 45.4707 167.535 44.7611 168.244 43.8418C168.968 42.9225 169.507 41.8177 169.861 40.5275C170.215 39.2212 170.392 37.7616 170.392 36.1488C170.392 34.5521 170.215 33.1006 169.861 31.7942C169.507 30.4879 168.968 29.3751 168.244 28.4558C167.535 27.5204 166.642 26.8027 165.564 26.3027C164.502 25.8027 163.255 25.5527 161.823 25.5527C160.391 25.5527 159.135 25.8027 158.057 26.3027C156.995 26.8027 156.102 27.5204 155.378 28.4558C154.67 29.3751 154.131 30.4879 153.761 31.7942C153.407 33.1006 153.23 34.5521 153.23 36.1488C153.23 37.7616 153.407 39.2212 153.761 40.5275C154.131 41.8177 154.67 42.9225 155.378 43.8418C156.102 44.7611 156.995 45.4707 158.057 45.9707C159.135 46.4545 160.391 46.6964 161.823 46.6964Z" fill="#3C4A63"/>
<path d="M178.793 48.1963V24.1254H180C180.273 24.1254 180.466 24.1819 180.579 24.2948C180.708 24.4077 180.78 24.6012 180.796 24.8754L180.989 29.9557C181.762 28.0042 182.792 26.4801 184.079 25.3834C185.366 24.2706 186.951 23.7142 188.834 23.7142C189.558 23.7142 190.226 23.7948 190.838 23.9561C191.449 24.1012 192.029 24.319 192.576 24.6093L192.262 26.2059C192.214 26.464 192.053 26.593 191.779 26.593C191.683 26.593 191.546 26.5607 191.369 26.4962C191.192 26.4317 190.966 26.3591 190.693 26.2785C190.435 26.1979 190.114 26.1253 189.727 26.0608C189.341 25.9963 188.899 25.964 188.4 25.964C186.581 25.964 185.085 26.5285 183.91 27.6574C182.751 28.7864 181.81 30.4153 181.086 32.5442V48.1963H178.793Z" fill="#3C4A63"/>
<path d="M212.083 48.1963C211.6 48.1963 211.302 47.9705 211.19 47.519L210.852 44.4466C210.192 45.0917 209.532 45.6723 208.872 46.1884C208.229 46.7045 207.553 47.14 206.845 47.4948C206.137 47.8496 205.372 48.1157 204.552 48.2931C203.731 48.4866 202.83 48.5834 201.848 48.5834C201.027 48.5834 200.231 48.4624 199.458 48.2205C198.686 47.9786 198.002 47.6077 197.407 47.1077C196.811 46.6077 196.329 45.9707 195.958 45.1965C195.604 44.4063 195.427 43.4628 195.427 42.3661C195.427 41.35 195.717 40.4065 196.296 39.5356C196.876 38.6647 197.777 37.9067 199 37.2616C200.239 36.6165 201.824 36.1004 203.755 35.7133C205.702 35.3263 208.036 35.1005 210.755 35.036V32.52C210.755 30.2944 210.272 28.5848 209.307 27.3913C208.357 26.1817 206.941 25.5769 205.059 25.5769C203.9 25.5769 202.91 25.7382 202.09 26.0608C201.285 26.3833 200.601 26.7381 200.038 27.1252C199.475 27.5123 199.016 27.8671 198.662 28.1897C198.308 28.5122 198.01 28.6735 197.769 28.6735C197.447 28.6735 197.206 28.5283 197.045 28.238L196.634 27.5365C197.89 26.2785 199.209 25.327 200.593 24.6818C201.977 24.0367 203.546 23.7142 205.3 23.7142C206.587 23.7142 207.714 23.9238 208.679 24.3432C209.645 24.7464 210.441 25.335 211.069 26.1092C211.713 26.8672 212.195 27.7945 212.517 28.8912C212.839 29.9718 213 31.1814 213 32.52V48.1963H212.083ZM202.427 46.9142C203.361 46.9142 204.214 46.8174 204.986 46.6239C205.775 46.4142 206.499 46.132 207.159 45.7771C207.834 45.4062 208.462 44.9707 209.041 44.4708C209.621 43.9708 210.192 43.4305 210.755 42.8499V36.5842C208.47 36.6487 206.499 36.8262 204.841 37.1165C203.2 37.3906 201.84 37.7696 200.762 38.2535C199.7 38.7373 198.911 39.3179 198.396 39.9953C197.898 40.6565 197.648 41.4145 197.648 42.2693C197.648 43.0757 197.777 43.7773 198.034 44.374C198.308 44.9546 198.662 45.4385 199.096 45.8255C199.531 46.1965 200.038 46.4706 200.617 46.648C201.196 46.8255 201.8 46.9142 202.427 46.9142Z" fill="#3C4A63"/>
<path d="M17.4171 29.2187L6.49665 48.5334L14.9062 63.5111L6.49634 48.5346L0.717618 38.243C0.704503 38.2195 0.6917 38.1961 0.678898 38.1726C0.662972 38.1435 0.647359 38.1144 0.632058 38.085C0.631746 38.0844 0.631746 38.0837 0.631122 38.0834C0.603955 38.0308 0.577725 37.9776 0.552119 37.9245C0.551807 37.9238 0.551495 37.9232 0.551182 37.9229C0.47218 37.7577 0.401297 37.5893 0.338532 37.4179C0.321045 37.369 0.303871 37.3199 0.287633 37.2705C0.0984024 36.7022 0.000976562 36.1046 0.000976562 35.501C0.000976562 34.5403 0.247664 33.596 0.717618 32.7589L10.0586 16.1237V16.123C10.1523 16.3427 10.2582 16.5571 10.3756 16.7645L17.4171 29.2168L17.4177 29.2177L17.4171 29.2187Z" fill="#42C7BB"/>
<path d="M26.4948 45.2723L26.4942 45.2735L17.7418 60.8771C17.0948 62.0314 16.103 62.9533 14.9067 63.5124L14.9061 63.5112L6.49658 48.5334L17.417 29.2187L17.4176 29.2178L26.4938 45.2707L26.4948 45.2723Z" fill="#B2A4D1"/>
<path d="M48.9867 53.2489V53.2495L40.4114 68.4294C39.9655 69.2189 39.6935 70.0956 39.6145 71H22.3604C21.9907 71 21.6235 70.963 21.2638 70.8904C21.1888 70.8754 21.1142 70.8585 21.0399 70.8404C21.0074 70.8322 20.9749 70.8241 20.9428 70.8156C20.9125 70.8075 20.8822 70.7994 20.8522 70.7909C20.7919 70.7737 20.7317 70.7556 20.672 70.7365C20.6424 70.7271 20.6124 70.7171 20.5827 70.7071C20.5381 70.692 20.494 70.6764 20.4497 70.6601C20.4275 70.652 20.4054 70.6436 20.3835 70.6354C20.312 70.6082 20.2411 70.5791 20.1709 70.5491C19.9601 70.4583 19.7543 70.3541 19.5548 70.2374C18.7032 69.738 17.9994 69.0205 17.5154 68.1581L14.9067 63.5126C16.103 62.9535 17.0948 62.0316 17.7418 60.8773L26.4942 45.2737L26.4948 45.2725L29.1896 50.0381C29.7404 51.0128 30.5389 51.8236 31.5035 52.3877C32.468 52.9516 33.5644 53.2489 34.6804 53.2489H48.9867Z" fill="#B2A4D1"/>
<path d="M35.0969 23.3778H24.3957C23.2793 23.3778 22.183 23.675 21.2184 24.2389C20.2538 24.8031 19.4554 25.6138 18.9048 26.5885L17.4179 29.2182L17.4172 29.2173L10.3757 16.765C10.2583 16.5576 10.1524 16.3432 10.0591 16.1236L17.5162 2.84332C17.9696 2.03601 18.616 1.35449 19.3973 0.860407C20.1786 0.366635 21.0701 0.0756281 21.9912 0.0136719L35.0969 23.3778Z" fill="#1E9C96"/>
<path d="M36.0043 26.6582C36.0046 27.748 35.7248 28.8191 35.1924 29.7688L26.4946 45.2729L26.4937 45.2713L17.4175 29.2184L18.9045 26.5887C19.455 25.614 20.2534 24.8032 21.218 24.2391C22.1826 23.6752 23.279 23.3779 24.3953 23.3779H35.0965L35.0978 23.3804L35.1914 23.5478C35.7242 24.4972 36.0039 25.5686 36.0043 26.6582Z" fill="#5081A7"/>
<path d="M71.0675 39.3044L60.5412 39.3054C59.4245 39.3051 58.3279 39.6023 57.3633 40.1662C56.3984 40.7304 55.5996 41.5411 55.0488 42.5162L48.9866 53.2493H34.6803C33.5642 53.2493 32.4679 52.952 31.5033 52.3882C30.5387 51.824 29.7403 51.0132 29.1895 50.0385L26.4946 45.2729L35.1924 29.7688C35.7248 28.8191 36.0046 27.748 36.0043 26.6582C36.0039 25.5686 35.7242 24.4972 35.1914 23.5478L35.0978 23.3804L35.0965 23.3779H58.3866C59.5029 23.3779 60.5993 23.6752 61.5639 24.2391C62.5287 24.8032 63.3269 25.614 63.8777 26.5887L71.0672 39.3038V39.3044H71.0675Z" fill="#5081A7"/>
<path d="M78.0649 35.5C78.0646 36.4606 77.8179 37.405 77.348 38.242L76.7519 39.3028V39.3034L71.0677 39.3041V39.3034L63.8779 26.5883C63.3271 25.6136 62.5289 24.8028 61.564 24.2387C60.5995 23.6748 59.5031 23.3775 58.3868 23.3775H35.0967L21.9911 0.0134551C21.0699 0.0754114 20.1784 0.366418 19.3971 0.860191C18.6158 1.35428 17.9694 2.0358 17.516 2.8431L10.0589 16.1233C10.0589 16.1233 10.0586 16.1227 10.0586 16.1224L17.516 2.84185C17.9694 2.03454 18.6158 1.35302 19.3971 0.858939C19.4443 0.829213 19.4917 0.800112 19.5395 0.77195C19.5635 0.757556 19.5873 0.743788 19.6116 0.73002C19.6357 0.716252 19.6597 0.702484 19.6841 0.689342C19.7084 0.675887 19.7328 0.662744 19.7575 0.649602C19.7818 0.636773 19.8065 0.623943 19.8312 0.611114C19.9988 0.525064 20.1706 0.447775 20.3458 0.37956C20.3701 0.36986 20.3945 0.360473 20.4191 0.351398C20.4385 0.343889 20.4582 0.336692 20.4775 0.329808C20.5166 0.315727 20.5556 0.301959 20.5949 0.288816C20.6271 0.278177 20.6596 0.267538 20.6921 0.257212C20.757 0.23656 20.822 0.217473 20.8875 0.199324C20.9431 0.183991 20.9987 0.169597 21.0546 0.156142C21.0964 0.145816 21.1383 0.136429 21.1804 0.127042C21.2226 0.117967 21.2644 0.109519 21.3069 0.10107C21.5324 0.0575755 21.7606 0.0275361 21.9911 0.0122035C22.1138 0.00406784 22.2371 0 22.3611 0H55.706C56.0754 0 56.4423 0.0369234 56.8017 0.109519C56.9516 0.139558 57.1003 0.176169 57.247 0.218724H57.2476C57.3301 0.242818 57.4122 0.268477 57.4937 0.296326C57.5434 0.313223 57.5927 0.330746 57.6417 0.349208C57.6679 0.359221 57.6945 0.368921 57.7204 0.379247C57.7226 0.379873 57.7248 0.380812 57.727 0.381751C57.7448 0.388635 57.7619 0.395519 57.7794 0.402716C57.8797 0.443081 57.979 0.486263 58.0767 0.532574C58.1082 0.547593 58.1398 0.562926 58.171 0.578571C58.2025 0.594217 58.2338 0.610175 58.265 0.626447C58.3065 0.648037 58.3477 0.670254 58.3887 0.692784C58.4093 0.704048 58.4299 0.715626 58.4505 0.727204C58.4705 0.739094 58.4908 0.750672 58.5107 0.762563C59.3623 1.26197 60.0661 1.97947 60.5501 2.84185L77.348 32.758C77.8176 33.595 78.0646 34.5394 78.0646 35.5H78.0649Z" fill="#73C8CC"/>
<path d="M68.9212 53.249L60.5504 68.1583C60.066 69.0207 59.3622 69.7382 58.5107 70.2376C58.4669 70.2632 58.4226 70.2883 58.3783 70.313C58.3761 70.3139 58.3739 70.3152 58.3717 70.3164C58.3711 70.317 58.3708 70.317 58.3701 70.3174C58.3695 70.3177 58.3686 70.318 58.368 70.3183C58.3214 70.344 58.2743 70.369 58.2271 70.3928C58.2224 70.3956 58.2178 70.3981 58.2131 70.4003C58.2071 70.4037 58.2012 70.4065 58.1953 70.4093C58.194 70.41 58.1925 70.4106 58.1912 70.4112C58.1794 70.4175 58.1675 70.4234 58.1553 70.4291C58.1519 70.4313 58.1481 70.4331 58.1447 70.4344C58.1341 70.44 58.1231 70.4453 58.1125 70.45C58.111 70.451 58.1097 70.4519 58.1082 70.4522C58.1038 70.4541 58.0994 70.456 58.095 70.4585C58.091 70.4607 58.0869 70.4625 58.0829 70.4641C58.0416 70.4838 58.0001 70.5026 57.9586 70.5214C57.9292 70.5342 57.8996 70.547 57.8699 70.5599C57.8668 70.5611 57.8633 70.5627 57.8602 70.5639C57.8571 70.5652 57.854 70.5664 57.8512 70.5677C57.8302 70.5764 57.8093 70.5852 57.7884 70.5937C57.7637 70.6037 57.7388 70.6134 57.7138 70.6234C57.7066 70.6265 57.6997 70.629 57.6928 70.6315C57.6747 70.6381 57.6569 70.645 57.6388 70.6519C57.6157 70.6603 57.5929 70.6688 57.5698 70.6769C57.5523 70.6835 57.5345 70.6897 57.5167 70.6957C57.5064 70.6994 57.4961 70.7029 57.4858 70.7063C57.4849 70.7069 57.4839 70.7072 57.4827 70.7076C57.4627 70.7144 57.4427 70.721 57.4224 70.7276C57.3934 70.737 57.3643 70.7464 57.335 70.7551C57.2841 70.7711 57.2329 70.7858 57.1817 70.7996C57.1611 70.8055 57.1405 70.8111 57.1198 70.8164C57.0958 70.823 57.0718 70.8293 57.0477 70.8352C57.0255 70.8405 57.0034 70.8462 56.9812 70.8512C56.9544 70.8578 56.9278 70.8637 56.901 70.8696C56.8978 70.8703 56.8947 70.8709 56.8919 70.8715C56.8738 70.8756 56.8554 70.8797 56.8373 70.8831C56.8341 70.884 56.831 70.8847 56.8279 70.8853C56.8266 70.8856 56.8254 70.8859 56.8241 70.8859C56.8216 70.8865 56.8191 70.8872 56.8163 70.8875C56.8079 70.8894 56.7998 70.8912 56.7913 70.8928C56.7651 70.8981 56.7386 70.9031 56.712 70.9078C56.712 70.9081 56.7114 70.9081 56.7111 70.9081C56.6927 70.9116 56.6746 70.9147 56.6561 70.9178C56.6408 70.9206 56.6255 70.9231 56.6102 70.9256C56.5612 70.9338 56.5122 70.9413 56.4629 70.9482C56.4554 70.9491 56.4475 70.9501 56.4401 70.9513C56.4313 70.9526 56.4223 70.9535 56.4135 70.9544C56.4054 70.9557 56.3973 70.9566 56.3888 70.9579C56.3757 70.9594 56.3623 70.961 56.3489 70.9626C56.3195 70.966 56.2902 70.9691 56.2605 70.9723C56.204 70.9779 56.1468 70.9829 56.09 70.9867C56.0769 70.9876 56.0638 70.9885 56.051 70.9892C56.0129 70.9917 55.9748 70.9936 55.9367 70.9951C55.9364 70.9954 55.9361 70.9954 55.9354 70.9951C55.9205 70.9961 55.9051 70.9967 55.8898 70.997C55.8674 70.9979 55.8446 70.9986 55.8218 70.9989H55.8205C55.8077 70.9992 55.7946 70.9995 55.7821 70.9995C55.7565 70.9998 55.7309 71.0001 55.7053 71.0001H39.6147C39.6937 70.0958 39.9657 69.219 40.4116 68.4296L48.9867 53.2496V53.249H68.9212Z" fill="#8C8AD1"/>
<path d="M73.9188 44.3485V44.3491L68.921 53.2486H48.9868L55.0491 42.5154C55.5999 41.5404 56.3987 40.7296 57.3636 40.1655C58.3281 39.6016 59.4248 39.3043 60.5415 39.3047L71.0678 39.3037L73.9188 44.3485Z" fill="#3F6CA7"/>
<path d="M76.7517 39.3037L73.9188 44.3491L71.0679 39.3043L76.7517 39.3037Z" fill="#5AA8CC"/>
</svg>
