<svg width="184" height="64" viewBox="0 0 184 64" fill="none" xmlns="http://www.w3.org/2000/svg">
<g clip-path="url(#clip0_1_65)">
<path opacity="0.3" d="M17.6987 64H54.9715L72.627 32.5658L54.9715 1.13162H17.6987L0.0431671 32.5658L17.6987 64Z" fill="#FF0000"/>
<path opacity="0.3" d="M17.6987 64H54.9715L72.627 32.5658L54.9715 1.13162H17.6987L0.0431671 32.5658L17.6987 64Z" fill="#FF0000"/>
<path opacity="0.3" d="M27.0169 48.2829H45.6533L54.481 32.5658L45.6533 16.8487H27.0169L18.1891 32.5658L27.0169 48.2829Z" fill="#FF0000"/>
<path d="M27.0169 48.2829L35.8976 32.5658H54.481L45.6533 48.2829H27.0169Z" fill="#6F51C7"/>
<path d="M54.481 32.5658L45.6533 16.8487H27.0169L35.8976 32.5658H54.481Z" fill="#00737C"/>
<path d="M27.0169 16.8487L35.8976 32.5658L27.0169 48.2829L18.1891 32.5658L27.0169 16.8487Z" fill="#55A5C9"/>
<path d="M27.0169 16.8487H8.87093L0.0431671 32.5658L8.89839 48.33L27.0169 48.2829L18.1891 32.5658L27.0169 16.8487Z" fill="#3F6AA2"/>
<path d="M27.0169 48.2829L35.8976 64H54.9715L63.5756 48.6837L54.481 32.5658L45.6533 48.2829H27.0169Z" fill="#4F33A3"/>
<path d="M54.481 32.5658L63.5756 48.6837L72.627 32.5658L63.5756 16.4479L54.481 32.5658Z" fill="#00677D"/>
<path d="M54.481 32.5658L63.5756 16.4479L54.9715 1.13162H35.8858L27.0169 16.8487H45.6533L54.481 32.5658Z" fill="#00C9BA"/>
<path d="M27.0169 48.2829L35.8976 64H17.6987L8.89838 48.3301L27.0169 48.2829Z" fill="#6F51C7"/>
<path d="M8.87093 16.8487H27.0169L35.8858 1.13162H17.6987L8.87093 16.8487Z" fill="#1B00B3"/>
<path d="M92.0865 28.3719V14.186H93.139L98.6442 25.2105L104.15 14.186H105.222V28.3719H104.311V15.8883L99.0288 26.3859H98.2597L92.9973 15.9288V28.3719H92.0865Z" fill="#22252A"/>
<path d="M112.625 28.6151C111.694 28.6151 110.857 28.3989 110.115 27.9666C109.386 27.5342 108.806 26.9195 108.374 26.1224C107.956 25.3118 107.747 24.3661 107.747 23.2852C107.747 22.1639 107.963 21.2046 108.395 20.4075C108.826 19.6104 109.413 18.9957 110.155 18.5633C110.898 18.131 111.734 17.9148 112.665 17.9148C113.61 17.9148 114.446 18.131 115.175 18.5633C115.917 18.9957 116.497 19.6104 116.916 20.4075C117.347 21.2046 117.563 22.1639 117.563 23.2852C117.563 24.3661 117.347 25.3118 116.916 26.1224C116.484 26.9195 115.897 27.5342 115.155 27.9666C114.413 28.3989 113.569 28.6151 112.625 28.6151ZM112.625 27.8045C113.326 27.8045 113.974 27.6356 114.568 27.2978C115.175 26.9601 115.667 26.4534 116.045 25.7779C116.423 25.1024 116.612 24.2647 116.612 23.265C116.612 22.2652 116.423 21.4275 116.045 20.752C115.681 20.0765 115.195 19.5766 114.588 19.2524C113.994 18.9146 113.353 18.7457 112.665 18.7457C111.977 18.7457 111.329 18.9146 110.722 19.2524C110.115 19.5901 109.622 20.0968 109.245 20.7723C108.88 21.4343 108.698 22.2652 108.698 23.265C108.698 24.2647 108.88 25.1024 109.245 25.7779C109.622 26.4534 110.108 26.9601 110.702 27.2978C111.296 27.6356 111.937 27.8045 112.625 27.8045Z" fill="#22252A"/>
<path d="M124.325 28.6151C123.34 28.6151 122.483 28.3854 121.754 27.9261C121.039 27.4532 120.486 26.8182 120.094 26.0211C119.703 25.2105 119.507 24.2917 119.507 23.265C119.507 22.2382 119.703 21.3262 120.094 20.5291C120.486 19.7185 121.046 19.0835 121.774 18.6241C122.503 18.1513 123.36 17.9148 124.345 17.9148C125.33 17.9148 126.173 18.1715 126.875 18.6849C127.59 19.1848 128.109 19.8738 128.433 20.752V13.7806H129.344V28.3719H128.534L128.413 25.859C128.211 26.3724 127.914 26.8385 127.522 27.2573C127.145 27.6626 126.686 27.9936 126.146 28.2503C125.606 28.4935 124.999 28.6151 124.325 28.6151ZM124.385 27.7842C125.154 27.7842 125.836 27.595 126.43 27.2168C127.023 26.825 127.482 26.2913 127.806 25.6158C128.143 24.9267 128.312 24.1431 128.312 23.265C128.312 22.3733 128.143 21.5897 127.806 20.9141C127.482 20.2251 127.023 19.6914 126.43 19.3132C125.849 18.9349 125.168 18.7457 124.385 18.7457C123.63 18.7457 122.948 18.9281 122.341 19.2929C121.747 19.6577 121.282 20.1846 120.944 20.8736C120.607 21.5491 120.438 22.3462 120.438 23.265C120.438 24.1837 120.607 24.9808 120.944 25.6563C121.295 26.3318 121.768 26.8587 122.361 27.237C122.955 27.6018 123.63 27.7842 124.385 27.7842Z" fill="#22252A"/>
<path d="M136.417 28.6151C135.459 28.6151 134.629 28.3922 133.928 27.9463C133.24 27.5005 132.707 26.8722 132.329 26.0616C131.951 25.251 131.762 24.2985 131.762 23.2042C131.762 22.0963 131.958 21.1506 132.349 20.367C132.754 19.5834 133.307 18.9822 134.009 18.5633C134.724 18.131 135.54 17.9148 136.458 17.9148C137.443 17.9148 138.266 18.1378 138.927 18.5836C139.588 19.0159 140.087 19.5901 140.425 20.3062C140.762 21.0222 140.931 21.8058 140.931 22.657C140.931 22.7921 140.931 22.9204 140.931 23.042C140.931 23.1636 140.924 23.3055 140.911 23.4676H132.41V22.6773H140.04C140.027 21.3667 139.683 20.3805 139.008 19.7185C138.333 19.0565 137.47 18.7255 136.417 18.7255C135.77 18.7255 135.162 18.8741 134.596 19.1713C134.029 19.4685 133.563 19.9279 133.199 20.5494C132.848 21.1708 132.673 21.9612 132.673 22.9204V23.2852C132.673 24.312 132.848 25.1632 133.199 25.8387C133.55 26.5007 134.009 26.9938 134.575 27.3181C135.142 27.6423 135.756 27.8045 136.417 27.8045C137.267 27.8045 137.969 27.6086 138.522 27.2168C139.075 26.8114 139.48 26.244 139.737 25.5144H140.647C140.472 26.1089 140.195 26.6426 139.818 27.1154C139.453 27.5883 138.988 27.9598 138.421 28.23C137.854 28.4867 137.186 28.6151 136.417 28.6151Z" fill="#22252A"/>
<path d="M143.217 28.3719V13.7806H144.128V28.3719H143.217Z" fill="#22252A"/>
<path d="M151.283 28.3719L156.485 14.186H157.457L162.598 28.3719H161.626L156.951 15.3614L152.235 28.3719H151.283ZM153.49 23.8729L153.793 23.1028H160.108L160.412 23.8729H153.49Z" fill="#22252A"/>
<path d="M165.022 28.3719V14.186H168.746C170.419 14.186 171.789 14.4697 172.855 15.0371C173.934 15.591 174.73 16.4017 175.243 17.469C175.769 18.5363 176.032 19.8266 176.032 21.3397C176.032 22.7448 175.783 23.9743 175.283 25.0281C174.798 26.0819 174.028 26.906 172.976 27.5005C171.923 28.0814 170.54 28.3719 168.827 28.3719H165.022ZM165.932 27.6018H168.807C170.291 27.6018 171.492 27.3519 172.409 26.852C173.327 26.3386 174.001 25.6158 174.433 24.6835C174.865 23.7513 175.081 22.6367 175.081 21.3397C175.081 20.0292 174.865 18.9011 174.433 17.9554C174.015 16.9961 173.347 16.2598 172.429 15.7464C171.525 15.2195 170.318 14.956 168.807 14.956H165.932V27.6018Z" fill="#22252A"/>
<path d="M92.0865 48.6375V34.4516H100.405V35.2217H92.9973V41.1392H99.7979V41.9296H92.9973V47.8674H100.405V48.6375H92.0865Z" fill="#22252A"/>
<path d="M102.002 48.6375L105.382 43.5711L102.002 38.4236H102.993L106.009 43.0442L109.025 38.4236H109.996L106.637 43.5509L109.996 48.6375H109.025L106.009 44.0778L102.993 48.6375H102.002Z" fill="#22252A"/>
<path d="M111.83 53.096V38.4236H112.639L112.74 40.9771C112.943 40.4637 113.233 39.9976 113.611 39.5788C113.988 39.16 114.447 38.8222 114.987 38.5655C115.54 38.3088 116.161 38.1805 116.849 38.1805C117.834 38.1805 118.684 38.4169 119.399 38.8898C120.128 39.3491 120.688 39.9841 121.079 40.7947C121.47 41.5918 121.666 42.5105 121.666 43.5509C121.666 44.5776 121.47 45.4964 121.079 46.307C120.688 47.1041 120.128 47.7323 119.399 48.1917C118.684 48.651 117.827 48.8807 116.829 48.8807C115.857 48.8807 115.014 48.6308 114.299 48.1309C113.584 47.631 113.064 46.9352 112.74 46.0435V53.096H111.83ZM116.788 48.0498C117.557 48.0498 118.232 47.8674 118.812 47.5027C119.406 47.1379 119.872 46.6177 120.209 45.9422C120.546 45.2667 120.715 44.4628 120.715 43.5306C120.715 42.6119 120.546 41.8148 120.209 41.1392C119.872 40.4637 119.406 39.9436 118.812 39.5788C118.232 39.2005 117.557 39.0114 116.788 39.0114C116.019 39.0114 115.338 39.2073 114.744 39.5991C114.15 39.9773 113.685 40.511 113.347 41.2C113.024 41.8756 112.862 42.6524 112.862 43.5306C112.862 44.4223 113.024 45.2126 113.347 45.9017C113.685 46.5772 114.15 47.1041 114.744 47.4824C115.338 47.8607 116.019 48.0498 116.788 48.0498Z" fill="#22252A"/>
<path d="M124.084 48.6375V34.0463H124.995V48.6375H124.084Z" fill="#22252A"/>
<path d="M132.252 48.8807C131.321 48.8807 130.484 48.6645 129.742 48.2322C129.014 47.7999 128.433 47.1852 128.002 46.388C127.583 45.5774 127.374 44.6317 127.374 43.5509C127.374 42.4295 127.59 41.4702 128.022 40.6731C128.454 39.876 129.041 39.2613 129.783 38.829C130.525 38.3966 131.361 38.1805 132.292 38.1805C133.237 38.1805 134.074 38.3966 134.802 38.829C135.544 39.2613 136.125 39.876 136.543 40.6731C136.975 41.4702 137.191 42.4295 137.191 43.5509C137.191 44.6317 136.975 45.5774 136.543 46.388C136.111 47.1852 135.524 47.7999 134.782 48.2322C134.04 48.6645 133.197 48.8807 132.252 48.8807ZM132.252 48.0701C132.954 48.0701 133.601 47.9012 134.195 47.5634C134.802 47.2257 135.295 46.719 135.673 46.0435C136.05 45.368 136.239 44.5304 136.239 43.5306C136.239 42.5308 136.05 41.6932 135.673 41.0176C135.308 40.3421 134.822 39.8422 134.215 39.518C133.622 39.1802 132.981 39.0114 132.292 39.0114C131.604 39.0114 130.957 39.1802 130.349 39.518C129.742 39.8558 129.25 40.3624 128.872 41.0379C128.508 41.6999 128.325 42.5308 128.325 43.5306C128.325 44.5304 128.508 45.368 128.872 46.0435C129.25 46.719 129.735 47.2257 130.329 47.5634C130.923 47.9012 131.564 48.0701 132.252 48.0701Z" fill="#22252A"/>
<path d="M139.6 48.6375V38.4236H140.41L140.511 40.4907C140.74 39.9503 141.037 39.5112 141.402 39.1735C141.779 38.8357 142.225 38.5858 142.737 38.4236C143.25 38.2615 143.83 38.1805 144.478 38.1805V39.1127H144.114C143.709 39.1127 143.291 39.1667 142.859 39.2748C142.441 39.3829 142.049 39.5788 141.685 39.8625C141.334 40.1327 141.051 40.5245 140.835 41.0379C140.619 41.5513 140.511 42.2066 140.511 43.0037V48.6375H139.6Z" fill="#22252A"/>
<path d="M150.075 48.8807C149.117 48.8807 148.287 48.6578 147.586 48.2119C146.898 47.7661 146.365 47.1379 145.987 46.3272C145.609 45.5166 145.42 44.5641 145.42 43.4698C145.42 42.3619 145.616 41.4162 146.007 40.6326C146.412 39.849 146.965 39.2478 147.667 38.829C148.382 38.3966 149.198 38.1805 150.116 38.1805C151.101 38.1805 151.924 38.4034 152.585 38.8492C153.246 39.2816 153.746 39.8558 154.083 40.5718C154.42 41.2879 154.589 42.0715 154.589 42.9226C154.589 43.0577 154.589 43.1861 154.589 43.3077C154.589 43.4293 154.582 43.5711 154.569 43.7332H146.068V42.9429H153.698C153.685 41.6324 153.341 40.6461 152.666 39.9841C151.991 39.3221 151.128 38.9911 150.075 38.9911C149.428 38.9911 148.82 39.1397 148.254 39.4369C147.687 39.7342 147.222 40.1935 146.857 40.815C146.506 41.4365 146.331 42.2268 146.331 43.1861V43.5509C146.331 44.5776 146.506 45.4288 146.857 46.1043C147.208 46.7663 147.667 47.2595 148.234 47.5837C148.8 47.908 149.414 48.0701 150.075 48.0701C150.925 48.0701 151.627 47.8742 152.18 47.4824C152.734 47.0771 153.138 46.5096 153.395 45.7801H154.306C154.13 46.3745 153.853 46.9082 153.476 47.3811C153.111 47.8539 152.646 48.2255 152.079 48.4957C151.512 48.7524 150.844 48.8807 150.075 48.8807Z" fill="#22252A"/>
<path d="M156.875 48.6375V38.4236H157.685L157.786 40.4907C158.016 39.9503 158.312 39.5112 158.677 39.1735C159.055 38.8357 159.5 38.5858 160.013 38.4236C160.525 38.2615 161.106 38.1805 161.753 38.1805V39.1127H161.389C160.984 39.1127 160.566 39.1667 160.134 39.2748C159.716 39.3829 159.324 39.5788 158.96 39.8625C158.609 40.1327 158.326 40.5245 158.11 41.0379C157.894 41.5513 157.786 42.2066 157.786 43.0037V48.6375H156.875Z" fill="#22252A"/>
</g>
<defs>
<clipPath id="clip0_1_65">
<rect width="184" height="64" fill="white"/>
</clipPath>
</defs>
</svg>
