<svg width="1280" height="2378" viewBox="0 0 1280 2378" fill="none" xmlns="http://www.w3.org/2000/svg">
<g clip-path="url(#clip0_1651_12883)">
<path fill-rule="evenodd" clip-rule="evenodd" d="M345.357 -715.761C526.695 -802.785 812.971 -835.744 1139.89 -626.199L1125.71 -604.64C1140.67 -594.368 1155.7 -583.554 1170.8 -572.178L1170.79 -572.164C1332.96 -450.105 1525.51 -149.64 1380.93 304.576L1381 304.599C1315.09 492.911 1086.55 763 601.48 763V762.983C398.76 763.102 64.7484 639.328 -93.3869 190.95L-93.4611 190.977C-157.463 2.00793 -143.65 -351.531 238.589 -650.169L238.599 -650.155C249.194 -658.443 260.581 -666.658 272.724 -674.696L272.374 -675.209C293.812 -689.512 318.238 -703.272 345.357 -715.761ZM1083.51 -456.369C749.359 -708.164 472.964 -631.688 355.703 -553.453L354.648 -554.993C344.923 -548.639 335.986 -542.223 327.87 -535.87L327.86 -535.883C-1.84024 -278.286 0.492863 8.48434 45.7128 141.999L44.034 142.589L45.7801 142C182.001 530.079 458.088 618.092 601.495 617.965V617.98C1019.15 617.975 1193.99 391.368 1240.92 258.22L1240.87 258.203C1365.63 -133.711 1198.11 -370.153 1083.5 -456.357L1083.51 -456.369Z" fill="url(#paint0_linear_1651_12883)"/>
<path d="M-279.679 252.145C-331.384 219.118 -378.446 183.134 -421.004 145.751C-374.791 76.0379 -316.043 6.02136 -242.442 -62.8931L-242.395 -62.845L-242.439 -62.8917C-71.1111 -217.356 316.02 -363.712 827.818 -91.5839L827.809 -91.5667C1042.04 22.1871 1328.02 336.062 1251.47 881.898L1078.47 851.477C1144.51 380.535 900.784 136.174 749.406 55.8506L749.415 55.8342C308.913 -178.378 2.02302 -46.2887 -119.571 62.7123C-187.098 126.09 -239.55 189.696 -279.679 252.145Z" fill="url(#paint1_linear_1651_12883)"/>
<path fill-rule="evenodd" clip-rule="evenodd" d="M62.4284 1748.39L206.189 1718.67L206.187 1718.66L62.3906 1748.19L62.4284 1748.39ZM1770.89 1409.43C1889.47 1606.64 1864.82 1786.05 1823.06 1881.07L1958.79 1937C2032.96 1768.2 2050.31 1455.03 1757.86 1158.59C1777.39 1228.66 1785.25 1312.56 1770.89 1409.43Z" fill="url(#paint2_linear_1651_12883)"/>
<path d="M1078.02 841.567C1135.97 846.454 1191.34 856.131 1243.58 869.159C1235.92 952.408 1217.92 1041.81 1187 1137.21L1186.94 1137.19L1187 1137.21C1112.38 1354.03 853.621 1665 304.426 1665V1664.98C74.6087 1665.12 -304.243 1522.24 -483 1004.36L-324.74 950C-170.51 1396.82 142.077 1498.16 304.442 1498.01V1498.03C777.128 1498.02 975.107 1237.32 1028.34 1083.99C1056.64 996.331 1072.23 915.545 1078.02 841.567Z" fill="url(#paint3_linear_1651_12883)"/>
<path d="M173.099 1907.49C492.895 1720.05 797.399 1717.63 1041.64 1782.15C1285.42 1846.55 1469.6 1977.47 1554.74 2056.89L1554.78 2056.85C1967.43 2434.95 1950.95 2851.44 1859.98 3069L1704.26 3001.57C1768.29 2848.46 1797.26 2513.61 1445.73 2188.68L1445.62 2188.79C1436.55 2180.07 1425.53 2170.2 1412.68 2159.52C1379.85 2132.22 1335.07 2099.62 1280.34 2067.3C1204.11 2022.26 1108.57 1977.76 999.118 1948.84C821.579 1901.94 607.756 1895.95 377.467 1995.7C337.617 2012.96 297.275 2033.39 256.542 2057.32C250.426 2061.08 244.395 2064.87 238.446 2068.67C-151.553 2318.12 -184.462 2645.34 -150.802 2805.77L-316.303 2841.73C-364.815 2610.51 -302.892 2198.46 173.069 1907.44L173.099 1907.49Z" fill="url(#paint4_linear_1651_12883)"/>
<path fill-rule="evenodd" clip-rule="evenodd" d="M1245.52 869.646C1244.87 869.483 1244.23 869.32 1243.58 869.158C1191.34 856.131 1135.97 846.454 1078.02 841.567C900.164 826.567 698.101 856.699 488.502 973.603L488.476 973.56C73.6282 1214.95 19.6617 1556.71 61.9444 1748.5C61.9493 1748.52 61.9537 1748.53 61.9581 1748.54C61.9637 1748.55 61.9693 1748.56 61.9757 1748.6C79.3768 1844.31 132.35 1964.45 238.447 2068.67C244.395 2064.87 250.427 2061.08 256.543 2057.32C297.275 2033.39 337.618 2012.96 377.467 1995.7C267.739 1904.48 219.982 1794.74 206.18 1718.63C176.411 1583.51 206.463 1305.86 561.231 1097.87C801.904 963.333 1026.94 962.271 1208.46 1007.9C1399.14 1055.84 1541.38 1155.45 1597.63 1206.92L1597.72 1206.83C1674.65 1274.49 1730.67 1342.68 1770.55 1408.86C1770.53 1408.98 1770.51 1409.1 1770.49 1409.21C1770.48 1409.35 1770.46 1409.49 1770.43 1409.63C1759.11 1486.02 1733.95 1570.47 1689.8 1662.55C1583.49 1873.06 1432.06 1996.22 1280.34 2067.3C1335.07 2099.62 1379.85 2132.22 1412.68 2159.52C1565.67 2072.26 1713.05 1935.37 1819.58 1724.91L1819.63 1724.93C2028.57 1292.83 1882.21 979.317 1739.91 843.963L1636.99 949.353C1680.64 990.871 1730.01 1061.14 1757.15 1157.88C1737.16 1137.65 1715.73 1117.5 1692.78 1097.49L1692.74 1097.52C1618.53 1031.65 1458 923.059 1245.52 869.646Z" fill="url(#paint5_linear_1651_12883)"/>
</g>
<defs>
<linearGradient id="paint0_linear_1651_12883" x1="229.143" y1="-629.649" x2="1713.86" y2="-545.44" gradientUnits="userSpaceOnUse">
<stop stop-color="#43C8BC"/>
<stop offset="0.776042" stop-color="#7157CD"/>
</linearGradient>
<linearGradient id="paint1_linear_1651_12883" x1="1416.59" y1="1267.87" x2="-8.67614" y2="-65.3917" gradientUnits="userSpaceOnUse">
<stop stop-color="#7157CD"/>
<stop offset="1" stop-color="#43C8BC"/>
</linearGradient>
<linearGradient id="paint2_linear_1651_12883" x1="1821.25" y1="1140.61" x2="706.221" y2="987.732" gradientUnits="userSpaceOnUse">
<stop stop-color="#43C8BC"/>
<stop offset="0.838542" stop-color="#7157CD"/>
</linearGradient>
<linearGradient id="paint3_linear_1651_12883" x1="-117.361" y1="921.189" x2="1542.98" y2="1148.92" gradientUnits="userSpaceOnUse">
<stop stop-color="#43C8BC"/>
<stop offset="0.716346" stop-color="#7157CD"/>
</linearGradient>
<linearGradient id="paint4_linear_1651_12883" x1="1702.18" y1="2108.84" x2="420.659" y2="1941.63" gradientUnits="userSpaceOnUse">
<stop stop-color="#43C8BC"/>
<stop offset="0.838542" stop-color="#7157CD"/>
</linearGradient>
<linearGradient id="paint5_linear_1651_12883" x1="1820.82" y1="1140.65" x2="706.046" y2="987.867" gradientUnits="userSpaceOnUse">
<stop stop-color="#43C8BC"/>
<stop offset="0.838542" stop-color="#7157CD"/>
</linearGradient>
<clipPath id="clip0_1651_12883">
<rect width="1280" height="2378" fill="white"/>
</clipPath>
</defs>
</svg>
