<svg width="36" height="34" viewBox="0 0 36 34" fill="none" xmlns="http://www.w3.org/2000/svg">
<g clip-path="url(#clip0_3146_5126)">
<path d="M23.808 32.792L23.7977 32.8591C23.7534 33.147 23.6729 33.4282 23.5582 33.6959L23.5443 33.4872C23.5152 33.0514 23.4427 32.6196 23.3278 32.1983L23.1156 31.7031C23.0268 31.4959 22.9229 31.2955 22.8048 31.1036C22.6165 30.7976 22.3931 30.5148 22.1391 30.2608L21.7726 29.8943L20.9662 29.2607L20.1022 28.7423L19.1806 28.2815L18.0286 27.7055L18.0074 27.6954C17.2945 27.3578 16.6248 26.9357 16.0126 26.4383L15.091 25.6319L14.2846 24.7103L13.651 23.7887L13.5882 23.6789C13.3233 23.2152 13.0939 22.732 12.9022 22.2335L12.8426 22.0746C12.6525 21.5676 12.518 21.0415 12.4414 20.5055L12.7294 21.0815L13.1902 21.7727L13.7086 22.6367L14.3422 23.4431L15.091 24.1919L15.8974 24.8831L16.1233 25.0638C16.7396 25.5568 17.3962 25.9974 18.0862 26.3807L19.0078 26.7839L19.9294 27.2447C20.6192 27.6279 21.2727 28.0731 21.8818 28.5747L21.9454 28.6271L22.2176 28.8993C22.5344 29.216 22.8149 29.567 23.0541 29.9458L23.0914 30.0048C23.2869 30.3143 23.4502 30.643 23.5787 30.9858L23.6383 31.1446C23.7 31.3092 23.7483 31.4785 23.7828 31.6508C23.825 31.8617 23.8462 32.0771 23.8462 32.2922C23.8462 32.4593 23.8334 32.6268 23.808 32.792Z" fill="white"/>
<path d="M29.201 33.2599L29.3757 33.6384C29.1848 33.5239 29.0125 33.381 28.8646 33.2146L28.6269 32.9472L28.5481 32.8389C28.2948 32.4906 28.0933 32.1073 27.95 31.7012L27.9402 31.6736C27.8606 31.4479 27.8007 31.2157 27.7614 30.9796C27.7241 30.7558 27.7053 30.5292 27.7053 30.3022V30.0672L27.7741 29.4827C27.805 29.2199 27.8547 28.9597 27.9229 28.7041C28.0081 28.3847 28.1217 28.0736 28.2625 27.7745L28.3743 27.5369C28.4657 27.3427 28.5766 27.1583 28.7054 26.9866L28.7809 26.8859C28.9458 26.666 29.147 26.4757 29.3757 26.3232C29.3757 26.5528 29.3476 26.7814 29.2919 27.0041L29.2605 27.1296L29.2029 27.36C29.0879 27.7435 29.0017 28.135 28.9451 28.5314L28.8573 29.1456L28.7421 30.0672L28.6845 31.0464L28.7014 31.2989C28.7285 31.7054 28.8001 32.1076 28.9151 32.4984C28.9917 32.7589 29.0872 33.0134 29.201 33.2599Z" fill="white"/>
<path d="M19.4112 24.768L18.72 24.4224L18.9473 24.6498C19.2556 24.958 19.5978 25.2303 19.9675 25.4613L20.3328 25.6896L21.3696 26.1504L22.535 26.4834C22.8328 26.5685 23.1369 26.6294 23.4444 26.6656L24.9408 26.8416H26.0716C26.3541 26.8416 26.6363 26.8208 26.9157 26.7794L27.5523 26.6851C27.8842 26.636 28.2113 26.5579 28.5296 26.4517L29.3908 26.1647C29.6494 26.0785 29.9015 25.974 30.1453 25.8522L30.7352 25.5572C31.019 25.4153 31.2905 25.2502 31.5471 25.0636L32.0633 24.6882C32.3066 24.5113 32.5356 24.3156 32.7483 24.1029L33.0308 23.8204C33.2435 23.6077 33.4392 23.3786 33.6162 23.1353L34.272 22.2336L35.0784 20.736L35.343 20.1074C35.4735 19.7975 35.5767 19.4767 35.6512 19.1488L35.8272 18.3744L35.9123 17.8919C35.9706 17.5614 36 17.2265 36 16.8909V16.3584V15.6925C36 15.3309 35.9659 14.97 35.8982 14.6147L35.7696 13.9392L35.5392 13.0176L35.3088 12.2112L34.9632 11.4048L34.6176 10.7136C34.6176 10.8666 34.6363 11.0191 34.6734 11.1675L34.848 11.8656L35.0784 13.0176L35.1936 13.9392L35.261 14.6137C35.2928 14.9315 35.2981 15.2514 35.2768 15.57L35.2512 15.9552L35.0784 17.0496L34.9632 17.7408L34.6176 18.8928L34.3149 19.6495C34.2096 19.9127 34.0851 20.1677 33.9422 20.4126L33.5636 21.0617C33.4216 21.3051 33.262 21.5377 33.086 21.7577L32.7231 22.2113C32.5272 22.4562 32.3116 22.6846 32.0785 22.8944L31.2768 23.616L30.4724 24.1791C30.241 24.3411 29.9979 24.4859 29.7452 24.6122L28.9728 24.9984L27.9936 25.344L27.1296 25.5744L26.3232 25.6896L25.2288 25.8048H23.7888L22.6944 25.6896L21.4848 25.5168L20.6784 25.2864L19.9872 24.9984L19.4112 24.768Z" fill="white"/>
<path d="M33.984 9.5616L34.3296 10.3104L33.2352 8.8704L32.4864 7.9488L31.6224 7.0848L30.24 5.8752L28.6272 4.7232L27.36 4.032L25.7472 3.2256L24.1344 2.6496L22.2336 2.0736L20.3904 1.728L19.008 1.6128L17.1648 1.5552L15.6672 1.6128L13.8816 1.8432L12.6144 2.0736L11.0016 2.5344L9.504 3.1104L7.9488 3.9168L6.336 4.896L5.46834 5.59839C5.24071 5.78266 5.02747 5.98403 4.83047 6.20073L3.9744 7.1424L3.0528 8.4096L2.3616 9.6768L1.96155 10.7169C1.84446 11.0214 1.75344 11.3352 1.68948 11.655L1.5552 12.3264L1.48163 12.7924C1.41573 13.2097 1.40175 13.6336 1.44 14.0544L1.5552 15.0912L1.71018 15.7111C1.76038 15.9119 1.82656 16.1084 1.90809 16.2986C2.05605 16.6438 2.25334 16.9658 2.49379 17.2543L2.78138 17.5994C3.11439 17.999 3.5 18.3517 3.92769 18.6478L4.19348 18.8318C4.58353 19.1018 5.00545 19.3226 5.44966 19.4892L6.15517 19.7538C6.46713 19.8708 6.78866 19.9605 7.11614 20.0219L8.4672 20.2752L9.9648 20.3904L11.1168 20.448L12.3264 20.3904L12.2757 20.408C11.7601 20.5874 11.2217 20.6925 10.6765 20.7203L10.368 20.736L8.8128 20.7936L7.7184 20.736L7.09653 20.7049C6.74386 20.6873 6.39355 20.6372 6.05004 20.5555L5.3568 20.3904L4.56565 20.089C4.2871 19.9829 4.01722 19.8553 3.75842 19.7074L3.29302 19.4415C3.05637 19.3063 2.82962 19.1544 2.61448 18.9871L2.46913 18.874C2.09171 18.5805 1.75231 18.2411 1.45876 17.8637L1.44456 17.8454C1.21169 17.546 1.00896 17.2243 0.839331 16.8851L0.757809 16.722C0.598546 16.4035 0.469167 16.0709 0.371332 15.7285L0.24427 15.2837C0.120253 14.8497 0.0476936 14.4026 0.0280848 13.9516L0 13.3056L0.034106 12.5894C0.04974 12.2611 0.0934472 11.9347 0.164749 11.6138L0.288 11.0592L0.502296 10.202C0.589639 9.85264 0.709556 9.51223 0.86047 9.18525L1.3248 8.1792L1.90194 7.18981C2.05454 6.92821 2.22754 6.67905 2.41932 6.44466L3.168 5.5296L4.3776 4.32L5.9328 3.1104L7.3152 2.304L8.6976 1.6128L10.5408 0.9216L12.2688 0.4608L14.4576 0.1152L16.8192 0L19.1808 0.1152L21.3696 0.4608L22.752 0.8064L24.1344 1.2672L25.7472 1.9584L26.9939 2.58173C27.2376 2.70362 27.4725 2.84266 27.6966 2.99781L28.8576 3.8016L29.952 4.608L31.1616 5.76L31.8869 6.48533C32.0943 6.69267 32.2855 6.91555 32.4589 7.15201L32.832 7.6608L33.5808 8.7552L33.984 9.5616Z" fill="white"/>
<path d="M8.29419 11.808L7.25739 13.6038H5.18379L4.14699 11.808L5.18379 10.0122H7.25739L8.29419 11.808Z" fill="white"/>
<path d="M7.8335 8.29432L7.2287 9.34186H6.0191L5.4143 8.29432L6.0191 7.24677H7.2287L7.8335 8.29432Z" fill="white"/>
<path d="M7.8335 15.3215L7.2287 16.3691H6.0191L5.4143 15.3215L6.0191 14.274H7.2287L7.8335 15.3215Z" fill="white"/>
<path d="M11.6348 17.5104L11.03 18.5579H9.82037L9.21557 17.5104L9.82037 16.4628H11.03L11.6348 17.5104Z" fill="white"/>
<path d="M15.3213 19.584L14.7165 20.6315H13.5069L12.9021 19.584L13.5069 18.5364H14.7165L15.3213 19.584Z" fill="white"/>
<path d="M19.0078 21.6576L18.403 22.7051H17.1934L16.5886 21.6576L17.1934 20.6101H18.403L19.0078 21.6576Z" fill="white"/>
<path d="M32.4861 18.2015L31.8813 19.2491H30.6717L30.0669 18.2015L30.6717 17.154H31.8813L32.4861 18.2015Z" fill="white"/>
<path d="M32.4861 13.9392L31.8813 14.9868H30.6717L30.0669 13.9392L30.6717 12.8917H31.8813L32.4861 13.9392Z" fill="white"/>
<path d="M29.2605 8.29432L28.6557 9.34186H27.4461L26.8413 8.29432L27.4461 7.24677H28.6557L29.2605 8.29432Z" fill="white"/>
<path d="M25.5745 6.1056L24.9697 7.15314H23.7601L23.1553 6.1056L23.7601 5.05805H24.9697L25.5745 6.1056Z" fill="white"/>
<path d="M21.7727 4.03199L21.1679 5.07953H19.9583L19.3535 4.03199L19.9583 2.98444L21.1679 2.98444L21.7727 4.03199Z" fill="white"/>
<path d="M15.3213 4.03199L14.7165 5.07953H13.5069L12.9021 4.03199L13.5069 2.98444L14.7165 2.98444L15.3213 4.03199Z" fill="white"/>
<path d="M11.6348 6.1056L11.03 7.15314H9.82037L9.21557 6.1056L9.82037 5.05805H11.03L11.6348 6.1056Z" fill="white"/>
<path d="M11.9807 9.73437L10.9439 11.5302H8.87031L7.83351 9.73437L8.87031 7.93858H10.9439L11.9807 9.73437Z" fill="white"/>
<path d="M15.6672 11.808L14.6304 13.6038H12.5568L11.52 11.808L12.5568 10.0122H14.6304L15.6672 11.808Z" fill="white"/>
<path d="M19.3535 9.73437L18.3167 11.5302H16.2431L15.2063 9.73437L16.2431 7.93858H18.3167L19.3535 9.73437Z" fill="white"/>
<path d="M23.155 11.808L22.1182 13.6038H20.0446L19.0078 11.808L20.0446 10.0122H22.1182L23.155 11.808Z" fill="white"/>
<path d="M26.8413 13.9967L25.8045 15.7925H23.7309L22.6941 13.9967L23.7309 12.2009H25.8045L26.8413 13.9967Z" fill="white"/>
<path d="M30.5278 16.0703L29.491 17.8661H27.4174L26.3806 16.0703L27.4174 14.2745H29.491L30.5278 16.0703Z" fill="white"/>
<path d="M15.6672 16.0703L14.6304 17.8661H12.5568L11.52 16.0703L12.5568 14.2745H14.6304L15.6672 16.0703Z" fill="white"/>
<path d="M19.3535 13.9967L18.3167 15.7925H16.2431L15.2063 13.9967L16.2431 12.2009H18.3167L19.3535 13.9967Z" fill="white"/>
<path d="M23.155 16.0703L22.1182 17.8661H20.0446L19.0078 16.0703L20.0446 14.2745H22.1182L23.155 16.0703Z" fill="white"/>
<path d="M26.8413 18.2591L25.8045 20.0549H23.7309L22.6941 18.2591L23.7309 16.4634H25.8045L26.8413 18.2591Z" fill="white"/>
<path d="M30.5278 20.3328L29.491 22.1285H27.4174L26.3806 20.3328L27.4174 18.537H29.491L30.5278 20.3328Z" fill="white"/>
<path d="M19.3535 18.1439L18.3167 19.9397H16.2431L15.2063 18.1439L16.2431 16.3481H18.3167L19.3535 18.1439Z" fill="white"/>
<path d="M23.155 20.3328L22.1182 22.1285H20.0446L19.0078 20.3328L20.0446 18.537H22.1182L23.155 20.3328Z" fill="white"/>
<path d="M26.8413 22.5216L25.8045 24.3174H23.7309L22.6941 22.5216L23.7309 20.7258H25.8045L26.8413 22.5216Z" fill="white"/>
<path d="M15.6672 7.66076L14.6304 9.45655H12.5568L11.52 7.66076L12.5568 5.86497H14.6304L15.6672 7.66076Z" fill="white"/>
<path d="M19.3535 5.47192L18.3167 7.26771H16.2431L15.2063 5.47192L16.2431 3.67613L18.3167 3.67613L19.3535 5.47192Z" fill="white"/>
<path d="M23.155 7.54552L22.1182 9.34131H20.0446L19.0078 7.54552L20.0446 5.74973H22.1182L23.155 7.54552Z" fill="white"/>
<path d="M26.8413 9.73437L25.8045 11.5302H23.7309L22.6941 9.73437L23.7309 7.93858H25.8045L26.8413 9.73437Z" fill="white"/>
<path d="M30.5278 11.808L29.491 13.6038H27.4174L26.3806 11.808L27.4174 10.0122H29.491L30.5278 11.808Z" fill="white"/>
<path d="M11.9807 13.9967L10.9439 15.7925H8.87031L7.83351 13.9967L8.87031 12.2009H10.9439L11.9807 13.9967Z" fill="white"/>
</g>
<defs>
<clipPath id="clip0_3146_5126">
<rect width="36" height="33.696" fill="white"/>
</clipPath>
</defs>
</svg>
