<svg width="358" height="68" viewBox="0 0 358 68" fill="none" xmlns="http://www.w3.org/2000/svg">
<g clip-path="url(#clip0_3207_6654)">
<mask id="mask0_3207_6654" style="mask-type:alpha" maskUnits="userSpaceOnUse" x="0" y="1" width="73" height="65">
<path d="M71.9432 29.4513C73.2457 31.6702 73.2457 34.4201 71.9432 36.639L57.3422 61.5126C56.0675 63.6841 53.7379 65.0179 51.2199 65.0179L21.8124 65.0179C19.2944 65.0179 16.9648 63.6841 15.6901 61.5126L1.08907 36.639C-0.213432 34.4201 -0.213432 31.6702 1.08907 29.4513L15.6901 4.5777C16.9648 2.4062 19.2944 1.0724 21.8124 1.0724L51.2199 1.0724C53.7379 1.0724 56.0675 2.4062 57.3422 4.5777L71.9432 29.4513Z" fill="#FF0CE7"/>
</mask>
<g mask="url(#mask0_3207_6654)">
<path d="M66.5839 46.8627L61.8733 54.694L61.62 54.0007L61.3593 53.4165L61.1061 52.9432L60.9489 52.6252L60.3943 51.8506L59.64 51.0705L59.0299 50.5066L58.5234 50.135L57.9041 49.6802L56.8817 49.0664L55.3399 48.5969L54.8037 48.4416L54.3859 48.4083L54.0014 48.3861L53.5355 48.3454H53.0696L52.7627 48.338H52.503L52.4558 48.3454L51.6498 48.4342L50.596 48.5821L50.1819 48.6486L49.8242 48.6893L50.0858 48.3861L50.5295 47.3656L50.8253 46.1824L50.914 45.1471V43.9048L50.8622 42.8399L50.7735 42.4406L51.6202 41.9858L52.918 41.1834L53.7315 40.6066L54.0273 40.3885L54.2787 40.174L55.6394 38.9058L56.5009 38.0406L57.3624 36.9646L58.1389 35.9552L58.7452 34.9125L59.2444 33.9438L59.6881 32.8752L59.9358 32.0544L60.1577 31.0265L60.2279 30.5236L60.2538 30.165L60.2871 29.6769L60.2538 29.1519L60.2094 28.9078L60.1808 28.6518L60.6716 28.9078L61.2447 29.3109L62.036 29.9505L62.3983 30.2463L62.7274 30.5828L63.4965 31.3445L64.4356 32.413L65.1862 33.4261L65.5782 34.014L65.8333 34.4651L66.1605 35.0456L66.2844 35.286L66.5654 35.8905L66.839 36.4802L67.3419 37.7078L67.5341 38.3734L67.6081 38.7098L67.8299 39.7007L67.9261 40.4107L68.0592 41.287L68.0813 42.3149L68.0592 43.0396V43.5498L68.0111 43.9787L66.5839 46.8627Z" fill="#FDB635"/>
<path d="M29.3061 33.3113L28.8342 32.7789L28.4908 33.2633L27.7846 34.0564L27.0895 34.8606L26.679 35.2617L26.1447 35.7775L25.3128 36.4819L24.5696 37.0439L23.5769 37.6078L23.1997 37.7816L22.634 38.0404L22.1755 38.216L21.4564 38.4804L21.2345 38.5414L20.5967 38.6912L20.1123 38.778L19.5355 38.8834L19.0197 38.937L18.6481 38.9888L18.3801 39.0128L17.6997 39.0609L17.0712 39.1127L16.3575 39.1644L16.7162 39.6932L17.1488 40.318L17.5518 40.8985L17.9807 41.59L18.4984 42.4182L18.9791 43.2945L19.4486 44.2004L19.7481 44.8363L20.3508 46.0528L20.8869 47.1251L21.2974 47.9274L21.8816 48.8592L22.2032 49.2622L22.3992 49.521L22.5656 49.7762L22.8059 50.1163L22.9908 50.3862L23.3716 50.7699L23.4049 50.072L23.5085 49.2105L23.6305 48.0494L23.8043 47.0696L24.0409 46.2488L24.4291 45.1876L25.0096 44.1338L25.7121 43.0542L26.411 42.2185L27.3723 41.3127L28.4409 40.5695L29.4762 39.9927L29.9735 39.7431L30.4615 39.5115L30.9126 39.329L31.3674 39.157L32.2086 38.9389L32.9425 38.8039L33.4999 38.7217L33.4218 38.6357L33.2753 38.4776L33.1307 38.3223L32.925 38.0834L32.7235 37.85L32.4845 37.5745L32.2109 37.2172L31.9724 36.9034L31.7247 36.5896L31.4636 36.2615L31.3642 36.138L31.2334 35.9564L30.6668 35.1675L30.2305 34.5241L29.7794 33.8955L29.3061 33.3113Z" fill="#55AD7C"/>
<path d="M0.517525 35.502L0.96122 36.5077L1.00559 36.1675L1.16088 35.5685L1.51584 34.6885L1.94475 33.8899L2.49197 33.1208L3.05399 32.5625L3.616 32.1299L4.11886 31.7527L4.59953 31.4939L5.58306 31.102L6.62574 30.7766L7.45398 30.6287L8.21565 30.4364L9.33229 30.3107L10.5155 30.1702L11.7504 30.0741L13.2146 29.9557L14.6936 29.8596L15.7733 29.66L16.8677 29.4603L17.6886 29.2236L19.0418 28.8391L20.3064 28.4176L21.6449 27.9887L22.9316 27.4563L23.5823 27.1235L22.8207 26.3914L22.0516 25.7258L21.0755 24.7645L20.1955 23.8032L18.9975 22.4943L18.295 21.6512L17.7329 20.8674L17.2966 20.187L16.7198 19.7138L15.862 19.1887L15.019 18.7302L14.0503 18.4566H12.9558L12.1941 18.5232L11.1514 18.7302L9.77599 19.1296L8.74069 19.5585L7.40961 20.4015L6.32994 21.1114L5.8123 21.4072L1.37534 27.826L0.0886173 31.1833L-0.0444908 33.5053L0.517525 35.502Z" fill="#076995"/>
<path d="M36.1021 63.0983L33.8244 65.4869L34.0906 66.2781L44.5767 66.4704L53.5689 66.6922L57.8136 63.9709L61.9991 55.0378L61.6294 54.0025L61.3632 53.4109L60.949 52.6123L60.4018 51.8432L59.7511 51.1629L59.0264 50.4973L57.9467 49.6987L56.8911 49.0645L56.3161 48.8834L55.9445 48.765L55.5692 48.6597L55.2827 48.5746L55.0239 48.4988L54.7817 48.4267L53.5245 48.338H52.504L51.661 48.4267L50.6405 48.5746L49.7827 48.6856L49.4203 49.2698L48.8361 50.305L48.1262 51.4291L46.7951 53.0412L45.3457 54.461L44.2513 55.4815L42.2399 57.2267L39.9474 59.2529L38.0247 61.0721L36.1021 63.0983Z" fill="#FB9E2F"/>
<path d="M18.6352 63.8616L18.2802 64.0834V64.3127L18.5908 64.6824L19.1676 65.2518L20.3804 65.6216L23.6637 65.7251H33.5878L34.453 64.8451L35.2516 64.0317L35.9689 63.2626L36.9451 62.2495L37.7955 61.3621L38.9269 60.2455L40.9975 58.3745L43.7854 55.949L45.6711 54.1816L46.8173 53.0576L47.6012 52.1036L48.2075 51.3715L48.6512 50.6468L49.0654 49.9221L49.4721 49.1974L49.864 48.665L49.4721 48.8277L48.9766 49.0273L48.2815 49.3084L47.4163 49.6189L46.6842 49.9221L45.7746 50.3067L44.8798 50.7208L43.7854 51.1867L42.7131 51.6673L41.6852 52.1036L40.4207 52.6435L38.5202 53.2868L37.1299 53.8193L35.8654 54.2038L34.5417 54.4774L33.6025 54.5588L32.6782 54.6031H31.6799L30.7481 54.5218L29.8903 54.4257L29.0473 54.2556L28.1821 54.0411L27.2355 53.664L26.6365 53.3608L25.9488 52.9615L24.98 52.2515L24.0557 51.4455L23.3162 50.7134V50.9426L23.3532 52.1554L23.3162 53.5087L23.2644 55.4757L23.1683 56.6072L23.0352 57.6868L22.7911 58.7591L22.4362 59.7204L21.9481 60.6892L21.4157 61.473L20.972 62.0203L20.4543 62.5749L19.9885 62.9594L19.2712 63.4697L18.6352 63.8616Z" fill="#60A161"/>
<path d="M7.2544 47.9404L8.16398 48.7094L8.26751 48.4062L8.00868 46.0251L8.16398 43.5699L9.50985 41.418L12.3051 39.9316L14.5088 39.4362L16.4093 39.1847L15.6772 38.2604L14.7529 37.2103L13.7398 36.2564L12.5122 35.1619L11.5804 34.4372L10.3603 33.5646L9.18448 32.8917C8.75557 32.7043 7.89036 32.3311 7.86078 32.337C7.8312 32.3429 6.92656 32.1029 6.47793 31.9821L5.0655 31.9007L4.11895 31.9821L3.72701 32.0782L3.1576 32.4701L2.52903 33.0396L1.95223 33.8456L1.44198 34.7774L1.13878 35.5612L0.998281 36.1011L0.931726 36.4782L2.09273 39.2365L4.51088 43.4886L7.2544 47.9404Z" fill="#0A857F"/>
<path d="M15.4258 3.2748L13.8432 6.78L11.3585 11.742L5.69032 21.4959L6.38914 21.0818L7.0325 20.6677L7.77938 20.1648L8.60022 19.6546L9.14006 19.4032L9.67249 19.1813L10.3085 18.9743L11.0553 18.7672L11.891 18.5897L12.5565 18.5084L13.1629 18.4714H13.6879L14.0651 18.5084L14.4644 18.6267L14.9081 18.708L15.3518 18.9447L16.0173 19.3292L16.5128 19.6176L16.9861 19.9282L17.2893 20.2092L17.2449 20.0243L17.0231 19.4475L16.6755 18.6267L16.3649 17.5618L16.18 16.497L16.0913 15.3729L16.1283 14.3746L16.2244 13.6055L16.4019 12.6812L16.7716 11.6015L17.3484 10.5144L18.0214 9.46437L18.7461 8.59916L19.6557 7.74134L20.9054 6.9279L21.9629 6.45463L22.902 6.10706L23.7303 5.94437L24.418 5.86303H25.6456L26.6143 5.94437L27.5387 6.14404L28.3965 6.37328L28.9215 6.62471L29.7202 7.04622L30.578 7.54168L31.4506 8.14807L32.4933 9.03546L33.3733 9.87848L34.4086 10.8916L35.54 12.0674L36.42 13.1692L36.945 13.9087L37.3739 12.4741L37.8176 11.3501L38.4314 10.0486L39.2375 8.51781L40.1692 7.06101L41.0788 5.84824L42.5652 4.47278L43.9924 3.51883L45.8189 2.47615L47.0761 1.9585L48.1779 1.62573L49.0949 1.41128L49.3537 1.26338L49.3094 0.671783L44.2216 0.671783L32.3897 0.671783L27.7161 0.671783L22.2735 0.671783L18.8274 0.864052L15.4258 3.2748Z" fill="#045876"/>
<path d="M36.7749 14.3749L36.9487 13.9072L36.2887 13.0031L35.5011 12.027L34.2643 10.7532L32.4562 9.00617L31.4376 8.14096L30.504 7.49021L29.831 7.09458L29.1951 6.73593L28.4094 6.37727L28.0267 6.24416L27.4868 6.11475L26.629 5.94837L25.6621 5.86517L25.0687 5.81156L24.4327 5.83374L23.7376 5.92248L22.902 6.09996L21.7632 6.52887L21.0643 6.83576L20.4654 7.16853L19.8553 7.59374L19.5632 7.8008L19.2489 8.10399L18.9864 8.34433L18.7608 8.57357L18.5464 8.83609L18.2395 9.18735L17.9807 9.50163L17.7699 9.8492L17.1931 10.7662L16.7679 11.55L16.5497 12.1268L16.387 12.7258L16.2022 13.6058L16.1282 14.2714L16.0765 14.9073V15.3954L16.1282 15.9057L16.2022 16.6525L16.3057 17.3477L16.498 18.065L16.7272 18.8045L17.0452 19.5957L17.2449 20.1282L17.7329 20.8824L18.2949 21.6589L18.9309 22.4206L19.9958 23.589L21.0089 24.6982L21.8149 25.5191L22.4953 26.155L23.5601 27.1534L24.2996 26.791L25.2018 26.2438L26.104 25.6448L26.8509 25.0532L27.5238 24.5281L28.4704 23.7517L29.4687 22.8347L30.186 22.11L30.7184 21.5924L31.5689 20.7641L32.2566 19.9359L32.9961 19.0855L33.8613 18.1315L34.6747 17.1554L35.6065 15.9278L36.3386 14.9591L36.7749 14.3749Z" fill="#0A837F"/>
<path d="M24.5585 28.0831L23.4715 27.1588L24.5585 26.6337L25.6899 25.9164L26.8953 25.029L28.8919 23.3578L30.7629 21.5534L32.863 19.2018L34.6896 17.1238L35.6879 15.8223L36.1538 15.1938L36.5827 14.5578L36.945 13.8997L36.7232 14.5578L36.5161 15.4156L36.2351 16.7541L36.0946 18.1L35.9689 19.4237L35.9245 20.7769V22.0193L36.0576 23.2764L36.346 24.3413L36.664 25.0734L36.0576 25.2361L35.2442 25.5984L34.2163 26.1531L33.2254 26.8556L32.0126 27.9944L30.9256 29.222L29.9716 30.59L29.2099 32.0025L28.8624 32.8159L27.9898 31.7141L26.9471 30.5309L25.8009 29.3033L24.5585 28.0831Z" fill="#309F9C"/>
<path d="M52.467 0.982965L49.3389 1.00885L49.1984 1.29355L49.0801 1.41187L48.7991 1.47103L47.7564 1.72985L46.9577 1.98868L46.4364 2.16616L45.8818 2.42498L45.1534 2.84649L44.2142 3.34935L43.3046 3.96313L42.8535 4.25523L42.4246 4.5843L41.5372 5.39774L41.2562 5.66396L41.0307 5.87841L40.6129 6.36648L40.184 7.00244L39.5628 7.97858L38.9786 9.01387L38.4609 9.95302L37.7288 11.5503L37.3073 12.6596L36.9468 13.8945L36.7601 14.4381L36.6714 14.7597L36.4957 15.5048L36.2369 16.7268L36.1796 17.2629L36.0576 18.4775L35.9615 19.4463L35.9245 20.439V21.5779V22.1103L35.9615 22.7685L36.0502 23.36L36.2369 24.1661L36.4495 24.7059L36.664 25.0831L37.3517 24.8686L38.1578 24.6468L38.9046 24.5137L39.8068 24.4101L40.8939 24.3658H42.114H43.2159L44.4804 24.5137L45.0646 24.595L45.8929 24.7059L46.795 24.8686L47.3053 24.9943L48.3332 25.231L48.9174 25.3641L49.8048 25.5563L50.6404 25.719L50.7772 25.0572L50.8992 24.24L51.0989 23.1974L51.2468 21.748L51.587 20.55L52.075 19.4038L52.8811 18.2575L53.9164 17.3628L55.0922 16.7268L56.3049 16.3644L57.2145 16.1722L57.7026 16.1278L58.7822 16.1722L59.751 16.2757L60.3721 16.431L61.1116 16.5937L62.1395 16.9708L63.2044 17.4515L64.2989 18.0579L65.0236 18.4905C65.1998 18.61 65.5545 18.8521 65.5634 18.8639C65.5723 18.8758 65.7914 19.0192 65.8999 19.0895L66.3547 19.2374L66.3731 19.1154L64.9274 16.516L63.0972 13.4434L60.4424 8.79572L57.8431 4.33287L55.9869 2.43237L54.0347 1.28616L52.467 0.982965Z" fill="#136E97"/>
<path d="M17.585 64.1118L18.3393 64.0452L19.2822 63.4647L19.8553 63.0432L20.384 62.6365L20.7094 62.3592L21.4082 61.5642L21.9813 60.7027L22.4842 59.7118L22.8354 58.7246L23.0647 57.693L23.1682 56.9572L23.2643 55.9441L23.3272 54.6833L23.3864 52.1875L23.3864 51.5071L23.3642 50.7639L22.9537 50.3202L22.3769 49.4772L21.8741 48.8413L21.3121 47.9391L20.7648 46.889L20.3212 45.9868L19.8627 45.055L19.4042 44.0937L18.8274 42.9845L18.2654 42.0379L17.744 41.1838L17.1968 40.3851L16.6422 39.5421L16.3944 39.1687L15.1299 39.2352L14.1464 39.3535L13.1481 39.531L12.6748 39.642L11.8613 39.8564L11.0183 40.167L10.2788 40.5441L9.56152 41.0988L8.90337 41.8382L8.48925 42.5112L8.09732 43.3838L7.84589 44.4043L7.80152 44.9515L7.84589 45.7871L7.91984 47.0073L8.03076 47.6433L8.14908 48.4641L7.74976 48.6934L14.4348 61.3091L17.585 64.1118Z" fill="#2D8864"/>
<path d="M46.0925 34.6806L45.353 34.2L45.83 33.7933L46.6878 33.0279L47.786 31.8151L48.7843 30.5173L49.6014 28.9939L50.0525 27.9956L50.4629 26.6054L50.5517 26.1571L50.6339 25.7087L51.1377 25.7938L51.8495 25.9398L52.2285 26.0138L52.4466 26.0563L53.1676 26.2948L53.957 26.4889L54.728 26.6516L55.6579 26.8254L55.9241 26.9067L56.8891 27.1674L57.209 27.2487L57.5122 27.3597L57.893 27.5242L58.2498 27.7072L58.9708 28.0104L59.6179 28.3654L60.1854 28.6501L60.2612 29.1566L60.3056 29.6854L60.2612 30.1771L60.1799 31.0128L59.9506 32.0702L59.677 32.9428L59.2259 34.0077L58.6713 35.0652L58.0649 36.0709L57.4881 36.8252L56.4528 38.0971L55.2992 39.2581L54.0791 40.36L52.8589 41.24L51.794 41.9055L50.7883 42.4453L50.7513 42.0534L50.5443 41.1808L50.2041 40.0937L49.7604 39.0511L49.154 37.9714L48.4441 37.0174L47.6159 36.1005L46.8912 35.3684L46.0925 34.6806Z" fill="#EE822D"/>
<path d="M50.7551 25.0289L50.6368 25.7129L51.1415 25.7943L51.6462 25.9015L52.4486 26.0586L53.1548 26.2971L53.9923 26.5042L54.717 26.6539L55.6598 26.8277L56.5269 27.081L57.1924 27.2474L57.7249 27.447L58.3275 27.7428L58.9765 28.0165L59.4479 28.279L59.9175 28.5175L60.6015 28.8724L61.2116 29.2902L62.4022 30.2627L63.5743 31.4366L64.3359 32.2963L64.983 33.1393L65.5857 34.0378L66.205 35.1341L66.5267 35.8329L66.9112 36.6611L67.3346 37.7057L67.5453 38.4137L67.7154 39.1865L67.8411 39.8188L67.9521 40.6211L68.0537 41.3347V42.1334V42.8248V43.5125L68.002 44.0062L68.8321 42.9542L69.4384 42.0225L70.4737 40.5583L71.583 38.6504L72.6331 36.5058L73.4169 34.5388L73.5204 32.7196L73.2542 31.6548L72.7662 30.3533L71.3759 27.7946L69.5568 24.7072L67.2643 20.7916L66.3584 19.235L66.0405 19.124L65.7964 19.0168L65.4895 18.795L64.8092 18.3439L64.14 17.963L63.2637 17.4787L62.2321 17.0054L61.2153 16.6024L60.5497 16.4286L59.947 16.2918L59.5847 16.2511L58.8045 16.1587L58.2721 16.1254H57.7175L57.2257 16.1587L56.3235 16.3398L55.7652 16.5099L55.3363 16.6393L55.0516 16.7355L54.8334 16.8464L54.1642 17.2051L53.6983 17.4972L53.3212 17.8003L53.0069 18.1109L52.7481 18.4067L52.5262 18.7358L52.2822 19.0686L52.0862 19.357L51.9383 19.7008L51.5945 20.4662L51.38 21.2168L51.2728 21.5718L51.2173 21.9267L51.1212 22.8548L51.0398 23.365L50.7551 25.0289Z" fill="#2E9B9C"/>
<path d="M36.9081 25.7181L36.6493 25.0674L38.1911 24.6311L38.9084 24.5091L39.818 24.4018L40.905 24.3612H41.297H42.8684H43.1901L44.3548 24.4832L44.939 24.5793L45.8966 24.705L46.784 24.8677L47.4311 25.0193L48.618 25.2929L49.5091 25.4889L50.0045 25.585L50.6331 25.707L50.5591 26.1286L50.4408 26.7165L50.2633 27.297L50.0267 28.0734L49.6274 28.9386L49.0912 29.9628L48.8028 30.499L48.5144 30.865L47.7269 31.8929L46.8802 32.8099L46.4697 33.224L46.0297 33.6307L45.3568 34.1964L44.7541 33.6122L44.0627 33.0539L42.7168 31.9669L41.6298 31.0055L40.2321 29.7188L39.1414 28.6096L38.1467 27.4522L37.4442 26.5131L36.9081 25.7181Z" fill="#5C75A9"/>
<path d="M30.4745 34.9098L29.9134 34.0866L29.7757 33.8948L29.6139 33.6905L29.4559 33.502L29.2969 33.3079L29.0658 33.0537L28.8301 32.7981L29.136 32.1589L29.21 31.9916L29.4688 31.5081L29.8237 30.85L29.9661 30.5967L30.2009 30.2325L30.8147 29.3636L30.9247 29.2166L31.4026 28.6685L32.0311 27.9733L32.8372 27.2117L33.3179 26.7791L33.9908 26.3021L34.2016 26.1588L34.5158 25.9804L35.1777 25.6291L35.6768 25.3925L36.0577 25.2317L36.1686 25.2002L36.6539 25.0653L36.7676 25.3481L36.9155 25.6883L37.1669 26.1024L37.5293 26.6127L38.0247 27.2856L38.6755 28.0621L39.2301 28.7054L40.1767 29.652L40.9309 30.3397L41.7666 31.1088L42.6688 31.9074L43.9037 32.9206L44.5988 33.4826L44.976 33.8227L45.3753 34.1999L44.6506 34.8358L43.7336 35.494L42.6688 36.1078L41.6852 36.6328L40.613 37.0913L39.8439 37.3575L39.134 37.5868L38.5054 37.8308L37.6994 38.0452L36.7232 38.2893L35.6214 38.4963L34.6009 38.6812C34.379 38.6985 33.9279 38.7359 33.8984 38.7478C33.8688 38.7596 33.5952 38.7083 33.4621 38.6812L33.1441 38.341L32.4859 37.5794L31.9313 36.8547L31.3619 36.1374L30.4745 34.9098Z" fill="#665790"/>
<path d="M3.75281 32.0113L3.38676 32.3071L3.82676 32.0631L4.0597 31.9928L4.62542 31.9337L5.08021 31.9115L6.06373 31.9595L6.48155 31.9928L6.8402 32.0816L7.4318 32.2405L7.8681 32.3478L8.18608 32.4735L9.07717 32.8469L9.4765 33.0725L10.2825 33.531L11.0146 34.0375L11.9575 34.7326L12.6267 35.2688L13.4919 36.0378L14.1168 36.622L14.6123 37.0916L15.1151 37.6241L15.6476 38.2452L16.0543 38.7407L16.3797 39.1696L17.6405 39.0661C17.9696 39.0439 18.6307 38.9973 18.6425 38.9884C18.6544 38.9796 19.2341 38.9132 19.5225 38.8812L20.4987 38.7074L21.4526 38.4856L22.499 38.1047L23.5639 37.6204L24.5733 37.0436L25.3941 36.4298L26.2001 35.7347L27.0801 34.8768L28.047 33.7639L28.5314 33.2278L28.8378 32.7836L28.5314 32.3921L28.047 31.7821L27.1467 30.7542L26.4091 29.9518L25.823 29.3158L25.261 28.7686L24.5733 28.0957L24.3644 27.9201L23.8338 27.4727L23.4936 27.1565L22.9593 27.4431L22.5341 27.6187L21.6726 27.9774L20.8129 28.2528L19.5558 28.6669L18.8218 28.8943L18.0417 29.1199L17.5333 29.2622L16.8955 29.4527L16.5978 29.5063L15.9526 29.6246L15.2852 29.7466L14.6751 29.8594L14.1316 29.889L13.3293 29.9444L12.843 29.9795L12.2441 30.0295L11.3252 30.1053L10.6264 30.1626L10.0792 30.218L9.58372 30.2827L9.07717 30.3382L8.57246 30.3881L8.18608 30.4399L7.92356 30.5064L7.55196 30.5933L7.09533 30.6802L6.51113 30.7948L6.03045 30.9464L5.46844 31.1313L4.86945 31.3679L4.39248 31.5898L4.08559 31.7821L3.75281 32.0113Z" fill="#53A8A0"/>
<path d="M33.8207 39.0849L33.4283 38.6463C33.5725 38.6771 33.8596 38.7374 33.867 38.7374H33.9317L34.5972 38.6782L35.0779 38.5913L35.9135 38.436L36.7177 38.2881L37.0227 38.2105L37.7715 38.0201L38.5461 37.8112L39.0527 37.6133L39.3947 37.495L39.7922 37.3693L40.6389 37.0772L41.6779 36.628L42.3878 36.2527L43.0182 35.9033L43.7392 35.4818L44.1089 35.2211L44.6321 34.8439L45.0056 34.5186L45.3605 34.195L46.0926 34.6776L46.3829 34.9253L46.8599 35.3357L47.322 35.7979L47.9284 36.4376L48.4941 37.0754L48.6291 37.2602L49.1615 37.9702L49.7624 39.0406L50.2024 40.0685L50.2948 40.3717L50.5351 41.1093L50.6683 41.6713L50.7588 42.0688L50.7847 42.4422L50.3188 42.5901L49.6718 42.812L48.7104 43.0523L47.2832 43.3038L45.8782 43.3851L44.1921 43.4036L42.8832 43.3185L41.8664 43.1743L41.2379 43.0449L40.1471 42.849L39.452 42.6271L38.6755 42.3609L37.8103 42.0022L36.9636 41.5364L35.8543 40.8375L34.9411 40.1313L34.4271 39.6359L33.8207 39.0849Z" fill="#895687"/>
<path d="M23.8006 51.2094L23.368 50.7841L23.3902 50.102L23.4031 50.0114L23.4179 49.8949L23.4807 49.4142L23.5602 48.7025L23.6175 48.085L23.6601 47.8539L23.7396 47.3954L23.795 47.0941L23.8764 46.8186L24.0076 46.3398L24.1666 45.9016L24.4236 45.1769L24.455 45.1307L24.7619 44.5742L24.9986 44.1509L25.176 43.8699L25.6918 43.0879L25.738 43.0139L26.1152 42.5665L26.3648 42.267L26.4942 42.1376L26.8288 41.8196L27.3501 41.3223L27.7883 41.021L28.3854 40.5976L28.8643 40.3332L29.4614 39.9986L29.8348 39.8119L30.3285 39.5679L30.8775 39.3405L31.4081 39.139L31.8943 39.0188L32.1532 38.9522L32.7706 38.8247L33.1219 38.7748L33.4963 38.723L33.8447 39.102L34.0851 39.3183L34.4179 39.6178L34.9743 40.1521L35.2424 40.3536L35.6103 40.6438L35.9264 40.8786L36.5568 41.2706L36.9728 41.5368L37.4054 41.7734L37.8103 41.9971L38.2078 42.1635L38.7587 42.3853L39.5148 42.6423L40.1748 42.8457L40.2266 42.8568L41.016 42.9991L41.872 43.1692L42.323 43.2339L42.8925 43.319L44.2143 43.4003H44.2531L45.4308 43.3874L46.5807 43.3411L47.2943 43.3023L48.0264 43.1711L48.7474 43.0398L49.6847 42.805L50.2486 42.6127L50.7792 42.4371L50.866 42.8457L50.8864 43.2395L50.9215 43.8902V45.1547L50.8328 46.1919L50.7736 46.4285L50.5351 47.3806L50.0951 48.3808L49.9824 48.5102L49.8455 48.6747L49.2928 48.9058L48.2723 49.3181L47.9155 49.4475L47.4256 49.6194L47.115 49.747L46.4476 50.028L45.8985 50.2609L45.6471 50.37L44.9298 50.7028L44.4768 50.8951L43.802 51.189L43.3787 51.3757L42.5856 51.7251L41.4283 52.2206L40.4503 52.6366L40.2525 52.7105L39.9678 52.803L39.2431 53.0488L38.498 53.3003L38.241 53.4001L37.2538 53.7791L36.9303 53.8826L36.5679 53.9917L35.8562 54.2117L35.3773 54.3115L34.5232 54.4816L33.6192 54.5574L33.4362 54.5703L33.1921 54.5833L32.5895 54.6147L31.6337 54.6036L30.7222 54.5241L29.894 54.4335L29.0288 54.2561L28.1839 54.0509L28.1007 54.0194L27.1912 53.6478L26.6772 53.3946L25.9266 52.9583L25.2481 52.4628L25.0152 52.2946L24.8913 52.1929L24.5974 51.9396L24.0261 51.4349L23.8006 51.2094Z" fill="#91B56A"/>
</g>
</g>
<path d="M92.9452 19.772C91.8572 19.772 90.9025 19.5427 90.0812 19.084C89.2598 18.6253 88.6145 17.98 88.1452 17.148C87.6865 16.3053 87.4572 15.3187 87.4572 14.188C87.4572 13.0787 87.6812 12.108 88.1292 11.276C88.5878 10.444 89.2492 9.79867 90.1132 9.34C90.9772 8.87067 92.0118 8.636 93.2172 8.636C93.7932 8.636 94.3265 8.7 94.8172 8.828C95.3185 8.956 95.7878 9.14267 96.2252 9.388L96.2892 11.676H95.8572L95.0572 10.06C94.9292 9.804 94.8065 9.61733 94.6892 9.5C94.5718 9.38267 94.4172 9.29733 94.2252 9.244C94.0865 9.19067 93.9532 9.15867 93.8252 9.148C93.6972 9.12667 93.5318 9.116 93.3292 9.116C92.6572 9.116 92.0652 9.292 91.5532 9.644C91.0412 9.98533 90.6412 10.5293 90.3532 11.276C90.0758 12.0227 89.9372 12.9933 89.9372 14.188C89.9372 15.9907 90.2305 17.2973 90.8172 18.108C91.4145 18.908 92.2092 19.308 93.2012 19.308C93.4358 19.308 93.6385 19.276 93.8092 19.212C94.0118 19.18 94.1505 19.1 94.2252 18.972C94.2998 18.8333 94.3372 18.6627 94.3372 18.46C94.3372 18.0227 94.3318 17.548 94.3212 17.036C94.3212 16.5133 94.3212 16.0387 94.3212 15.612C94.3212 15.196 94.1025 14.94 93.6652 14.844L92.9452 14.684V14.348H97.3612V14.684L97.1692 14.732C96.9665 14.796 96.8118 14.892 96.7052 15.02C96.5985 15.1373 96.5452 15.3027 96.5452 15.516C96.5452 15.9427 96.5398 16.38 96.5292 16.828C96.5292 17.2653 96.5292 17.708 96.5292 18.156V18.844C95.9745 19.1427 95.4092 19.372 94.8332 19.532C94.2678 19.692 93.6385 19.772 92.9452 19.772ZM97.8173 19.5V19.164L98.1373 19.052C98.3293 18.9987 98.4626 18.908 98.5373 18.78C98.6119 18.6413 98.6546 18.4547 98.6653 18.22V10.172C98.6546 9.948 98.6173 9.77733 98.5533 9.66C98.4893 9.532 98.3559 9.436 98.1533 9.372L97.8173 9.26V8.924H105.433L105.545 11.484H105.097L104.457 10.044C104.372 9.84133 104.276 9.68667 104.169 9.58C104.063 9.46267 103.903 9.404 103.689 9.404H100.969C100.959 10.0653 100.953 10.748 100.953 11.452C100.953 12.1453 100.953 12.9293 100.953 13.804H102.537C102.751 13.804 102.911 13.7507 103.017 13.644C103.135 13.5267 103.241 13.372 103.337 13.18L103.609 12.572H103.961V15.532H103.609L103.321 14.924C103.236 14.732 103.14 14.5773 103.033 14.46C102.927 14.3427 102.767 14.284 102.553 14.284H100.953C100.953 15.052 100.953 15.7133 100.953 16.268C100.953 16.8227 100.953 17.3187 100.953 17.756C100.964 18.1827 100.969 18.604 100.969 19.02H104.041C104.255 19.02 104.42 18.9667 104.537 18.86C104.655 18.7427 104.751 18.5827 104.825 18.38L105.417 16.94H105.865L105.753 19.5H97.8173ZM106.869 19.5V19.164L107.333 19.036C107.535 18.9827 107.674 18.8813 107.749 18.732C107.834 18.5827 107.877 18.4013 107.877 18.188V10.444C107.781 10.2413 107.695 10.092 107.621 9.996C107.557 9.88933 107.487 9.79867 107.413 9.724C107.338 9.64933 107.237 9.564 107.109 9.468L106.821 9.26V8.924H109.557L114.869 16.188V10.252C114.869 10.0387 114.831 9.852 114.757 9.692C114.693 9.532 114.554 9.42533 114.341 9.372L113.861 9.26V8.924H116.245V9.26L115.845 9.372C115.642 9.436 115.514 9.548 115.461 9.708C115.418 9.85733 115.397 10.0387 115.397 10.252V19.564H114.501L108.405 11.18V18.172C108.405 18.396 108.437 18.5827 108.501 18.732C108.565 18.8813 108.698 18.9827 108.901 19.036L109.333 19.164V19.5H106.869ZM117.02 19.5V19.164L117.34 19.052C117.532 18.9987 117.666 18.908 117.74 18.78C117.815 18.6413 117.858 18.4547 117.868 18.22V10.172C117.858 9.948 117.82 9.77733 117.756 9.66C117.692 9.532 117.559 9.436 117.356 9.372L117.02 9.26V8.924H124.636L124.748 11.484H124.3L123.66 10.044C123.575 9.84133 123.479 9.68667 123.372 9.58C123.266 9.46267 123.106 9.404 122.892 9.404H120.172C120.162 10.0653 120.156 10.748 120.156 11.452C120.156 12.1453 120.156 12.9293 120.156 13.804H121.74C121.954 13.804 122.114 13.7507 122.22 13.644C122.338 13.5267 122.444 13.372 122.54 13.18L122.812 12.572H123.164V15.532H122.812L122.524 14.924C122.439 14.732 122.343 14.5773 122.236 14.46C122.13 14.3427 121.97 14.284 121.756 14.284H120.156C120.156 15.052 120.156 15.7133 120.156 16.268C120.156 16.8227 120.156 17.3187 120.156 17.756C120.167 18.1827 120.172 18.604 120.172 19.02H123.244C123.458 19.02 123.623 18.9667 123.74 18.86C123.858 18.7427 123.954 18.5827 124.028 18.38L124.62 16.94H125.068L124.956 19.5H117.02ZM129.288 19.772C128.701 19.772 128.104 19.6973 127.496 19.548C126.898 19.4093 126.397 19.2227 125.992 18.988L126.088 16.764H126.552L127.048 17.868C127.197 18.1773 127.352 18.4333 127.512 18.636C127.672 18.8387 127.885 18.9933 128.152 19.1C128.333 19.1747 128.504 19.228 128.664 19.26C128.834 19.2813 129.021 19.292 129.224 19.292C129.874 19.292 130.386 19.1267 130.76 18.796C131.144 18.4547 131.336 18.0067 131.336 17.452C131.336 16.9507 131.202 16.556 130.936 16.268C130.68 15.98 130.264 15.7027 129.688 15.436L129.032 15.148C128.136 14.7533 127.426 14.2947 126.904 13.772C126.392 13.2493 126.136 12.556 126.136 11.692C126.136 11.052 126.296 10.508 126.616 10.06C126.946 9.60133 127.4 9.24933 127.976 9.004C128.552 8.75867 129.224 8.636 129.992 8.636C130.557 8.636 131.085 8.71067 131.576 8.86C132.077 9.00933 132.514 9.212 132.888 9.468L132.776 11.452H132.312L131.72 10.252C131.549 9.9 131.384 9.64933 131.224 9.5C131.074 9.34 130.888 9.23867 130.664 9.196C130.536 9.17467 130.424 9.15867 130.328 9.148C130.242 9.13733 130.125 9.132 129.976 9.132C129.453 9.132 129 9.28667 128.616 9.596C128.242 9.89467 128.056 10.3107 128.056 10.844C128.056 11.356 128.2 11.772 128.488 12.092C128.776 12.412 129.192 12.6947 129.736 12.94L130.456 13.244C131.49 13.692 132.232 14.172 132.68 14.684C133.128 15.1853 133.352 15.8307 133.352 16.62C133.352 17.5587 132.994 18.3213 132.28 18.908C131.576 19.484 130.578 19.772 129.288 19.772ZM134.099 19.5V19.164L134.419 19.068C134.632 18.9933 134.771 18.8973 134.835 18.78C134.909 18.652 134.947 18.476 134.947 18.252V10.172C134.947 9.948 134.909 9.77733 134.835 9.66C134.771 9.532 134.632 9.43067 134.419 9.356L134.099 9.26V8.924H138.099V9.26L137.779 9.356C137.576 9.43067 137.437 9.532 137.363 9.66C137.288 9.77733 137.251 9.948 137.251 10.172V18.252C137.251 18.476 137.288 18.652 137.363 18.78C137.437 18.8973 137.576 18.9933 137.779 19.068L138.099 19.164V19.5H134.099ZM142.241 19.772C141.654 19.772 141.057 19.6973 140.449 19.548C139.852 19.4093 139.35 19.2227 138.945 18.988L139.041 16.764H139.505L140.001 17.868C140.15 18.1773 140.305 18.4333 140.465 18.636C140.625 18.8387 140.838 18.9933 141.105 19.1C141.286 19.1747 141.457 19.228 141.617 19.26C141.788 19.2813 141.974 19.292 142.177 19.292C142.828 19.292 143.34 19.1267 143.713 18.796C144.097 18.4547 144.289 18.0067 144.289 17.452C144.289 16.9507 144.156 16.556 143.889 16.268C143.633 15.98 143.217 15.7027 142.641 15.436L141.985 15.148C141.089 14.7533 140.38 14.2947 139.857 13.772C139.345 13.2493 139.089 12.556 139.089 11.692C139.089 11.052 139.249 10.508 139.569 10.06C139.9 9.60133 140.353 9.24933 140.929 9.004C141.505 8.75867 142.177 8.636 142.945 8.636C143.51 8.636 144.038 8.71067 144.529 8.86C145.03 9.00933 145.468 9.212 145.841 9.468L145.729 11.452H145.265L144.673 10.252C144.502 9.9 144.337 9.64933 144.177 9.5C144.028 9.34 143.841 9.23867 143.617 9.196C143.489 9.17467 143.377 9.15867 143.281 9.148C143.196 9.13733 143.078 9.132 142.929 9.132C142.406 9.132 141.953 9.28667 141.569 9.596C141.196 9.89467 141.009 10.3107 141.009 10.844C141.009 11.356 141.153 11.772 141.441 12.092C141.729 12.412 142.145 12.6947 142.689 12.94L143.409 13.244C144.444 13.692 145.185 14.172 145.633 14.684C146.081 15.1853 146.305 15.8307 146.305 16.62C146.305 17.5587 145.948 18.3213 145.233 18.908C144.529 19.484 143.532 19.772 142.241 19.772ZM156.117 19.772C155.083 19.772 154.149 19.5587 153.317 19.132C152.485 18.7053 151.824 18.076 151.333 17.244C150.853 16.412 150.613 15.3987 150.613 14.204C150.613 13.308 150.757 12.5133 151.045 11.82C151.344 11.1267 151.749 10.5453 152.261 10.076C152.784 9.596 153.381 9.23867 154.053 9.004C154.725 8.75867 155.44 8.636 156.197 8.636C156.784 8.636 157.333 8.70533 157.845 8.844C158.357 8.972 158.848 9.164 159.317 9.42L159.381 11.516H158.949L158.277 10.252C158.171 10.0387 158.053 9.84667 157.925 9.676C157.808 9.50533 157.653 9.38267 157.461 9.308C157.195 9.18 156.88 9.116 156.517 9.116C155.888 9.116 155.312 9.276 154.789 9.596C154.277 9.916 153.867 10.4493 153.557 11.196C153.248 11.932 153.093 12.94 153.093 14.22C153.093 15.4893 153.237 16.4973 153.525 17.244C153.824 17.9907 154.224 18.524 154.725 18.844C155.227 19.1533 155.792 19.308 156.421 19.308C156.709 19.308 156.944 19.2867 157.125 19.244C157.307 19.2013 157.488 19.1427 157.669 19.068C157.883 18.9827 158.048 18.86 158.165 18.7C158.283 18.5293 158.384 18.3373 158.469 18.124L159.077 16.668H159.509L159.445 18.972C158.987 19.228 158.48 19.4253 157.925 19.564C157.371 19.7027 156.768 19.772 156.117 19.772ZM164.254 19.724C163.465 19.724 162.771 19.5587 162.174 19.228C161.587 18.8973 161.129 18.428 160.798 17.82C160.478 17.212 160.318 16.4867 160.318 15.644C160.318 14.8013 160.489 14.076 160.83 13.468C161.182 12.86 161.651 12.396 162.238 12.076C162.835 11.7453 163.507 11.58 164.254 11.58C165.001 11.58 165.667 11.7453 166.254 12.076C166.851 12.396 167.321 12.86 167.662 13.468C168.014 14.0653 168.19 14.7907 168.19 15.644C168.19 16.4867 168.025 17.2173 167.694 17.836C167.374 18.444 166.921 18.9133 166.334 19.244C165.747 19.564 165.054 19.724 164.254 19.724ZM164.254 19.276C164.638 19.276 164.947 19.1747 165.182 18.972C165.427 18.7587 165.603 18.3907 165.71 17.868C165.817 17.3453 165.87 16.6147 165.87 15.676C165.87 14.7267 165.817 13.9907 165.71 13.468C165.603 12.9347 165.427 12.5667 165.182 12.364C164.947 12.1507 164.638 12.044 164.254 12.044C163.87 12.044 163.561 12.1507 163.326 12.364C163.091 12.5667 162.915 12.9347 162.798 13.468C162.691 13.9907 162.638 14.7267 162.638 15.676C162.638 16.6147 162.691 17.3453 162.798 17.868C162.915 18.3907 163.091 18.7587 163.326 18.972C163.561 19.1747 163.87 19.276 164.254 19.276ZM168.926 19.5V19.196L169.182 19.132C169.534 19.0253 169.71 18.764 169.71 18.348V13.628C169.699 13.404 169.662 13.2333 169.598 13.116C169.534 12.988 169.395 12.9027 169.182 12.86L168.926 12.796V12.508L171.518 11.58L171.71 11.756L171.822 12.748C172.206 12.4067 172.633 12.1293 173.102 11.916C173.582 11.692 174.051 11.58 174.51 11.58C175.214 11.58 175.753 11.772 176.126 12.156C176.51 12.54 176.702 13.1267 176.702 13.916V18.364C176.702 18.78 176.894 19.0413 177.278 19.148L177.454 19.196V19.5H173.774V19.196L174.014 19.132C174.366 19.0147 174.542 18.7533 174.542 18.348V13.596C174.542 13.2227 174.462 12.9507 174.302 12.78C174.142 12.6093 173.875 12.524 173.502 12.524C172.979 12.524 172.435 12.7533 171.87 13.212V18.364C171.87 18.78 172.057 19.0413 172.43 19.148L172.59 19.196V19.5H168.926ZM180.881 19.724C180.369 19.724 179.905 19.6653 179.489 19.548C179.084 19.4413 178.695 19.2867 178.321 19.084V17.196H178.753L179.233 18.108C179.436 18.5027 179.665 18.796 179.921 18.988C180.188 19.18 180.524 19.276 180.929 19.276C181.431 19.276 181.831 19.1693 182.129 18.956C182.428 18.732 182.577 18.4333 182.577 18.06C182.577 17.7187 182.465 17.4413 182.241 17.228C182.017 17.0147 181.617 16.8173 181.041 16.636L180.337 16.412C179.708 16.22 179.207 15.932 178.833 15.548C178.471 15.1533 178.289 14.6627 178.289 14.076C178.289 13.6173 178.412 13.2013 178.657 12.828C178.903 12.444 179.26 12.14 179.729 11.916C180.199 11.692 180.769 11.58 181.441 11.58C181.879 11.58 182.279 11.6333 182.641 11.74C183.015 11.836 183.377 11.9747 183.729 12.156L183.633 13.868H183.217L182.721 12.956C182.551 12.6147 182.375 12.38 182.193 12.252C182.023 12.1133 181.756 12.044 181.393 12.044C181.009 12.044 180.668 12.1453 180.369 12.348C180.081 12.54 179.937 12.812 179.937 13.164C179.937 13.4947 180.06 13.7667 180.305 13.98C180.551 14.1827 180.945 14.3747 181.489 14.556L182.177 14.764C182.956 15.0093 183.511 15.3347 183.841 15.74C184.172 16.1453 184.337 16.6307 184.337 17.196C184.337 17.9533 184.033 18.5667 183.425 19.036C182.828 19.4947 181.98 19.724 180.881 19.724ZM189.067 19.724C188.277 19.724 187.584 19.5587 186.987 19.228C186.4 18.8973 185.941 18.428 185.611 17.82C185.291 17.212 185.131 16.4867 185.131 15.644C185.131 14.8013 185.301 14.076 185.643 13.468C185.995 12.86 186.464 12.396 187.051 12.076C187.648 11.7453 188.32 11.58 189.067 11.58C189.813 11.58 190.48 11.7453 191.067 12.076C191.664 12.396 192.133 12.86 192.475 13.468C192.827 14.0653 193.003 14.7907 193.003 15.644C193.003 16.4867 192.837 17.2173 192.507 17.836C192.187 18.444 191.733 18.9133 191.147 19.244C190.56 19.564 189.867 19.724 189.067 19.724ZM189.067 19.276C189.451 19.276 189.76 19.1747 189.995 18.972C190.24 18.7587 190.416 18.3907 190.523 17.868C190.629 17.3453 190.683 16.6147 190.683 15.676C190.683 14.7267 190.629 13.9907 190.523 13.468C190.416 12.9347 190.24 12.5667 189.995 12.364C189.76 12.1507 189.451 12.044 189.067 12.044C188.683 12.044 188.373 12.1507 188.139 12.364C187.904 12.5667 187.728 12.9347 187.611 13.468C187.504 13.9907 187.451 14.7267 187.451 15.676C187.451 16.6147 187.504 17.3453 187.611 17.868C187.728 18.3907 187.904 18.7587 188.139 18.972C188.373 19.1747 188.683 19.276 189.067 19.276ZM193.738 19.5V19.196L193.978 19.116C194.192 19.0627 194.336 18.972 194.41 18.844C194.496 18.716 194.538 18.5453 194.538 18.332V13.644C194.528 13.4093 194.485 13.2333 194.41 13.116C194.336 12.988 194.192 12.9027 193.978 12.86L193.738 12.796V12.508L196.346 11.58L196.538 11.756L196.682 13.164V13.276C196.842 12.9773 197.045 12.7 197.29 12.444C197.536 12.188 197.802 11.98 198.09 11.82C198.378 11.66 198.666 11.58 198.954 11.58C199.36 11.58 199.664 11.6867 199.866 11.9C200.069 12.1133 200.17 12.3853 200.17 12.716C200.17 13.0787 200.069 13.356 199.866 13.548C199.664 13.7293 199.418 13.82 199.13 13.82C198.704 13.82 198.336 13.628 198.026 13.244L197.994 13.212C197.888 13.084 197.765 13.0147 197.626 13.004C197.498 12.9827 197.37 13.0467 197.242 13.196C197.136 13.3027 197.034 13.4307 196.938 13.58C196.853 13.7187 196.773 13.884 196.698 14.076V18.268C196.698 18.4707 196.741 18.6413 196.826 18.78C196.912 18.908 197.056 18.9987 197.258 19.052L197.738 19.196V19.5H193.738ZM203.856 19.724C203.194 19.724 202.672 19.564 202.288 19.244C201.914 18.9133 201.728 18.38 201.728 17.644C201.728 17.388 201.728 17.148 201.728 16.924C201.738 16.6893 201.744 16.4173 201.744 16.108V12.316H200.608V11.964L201.04 11.9C201.349 11.8467 201.61 11.7507 201.824 11.612C202.048 11.4733 202.25 11.2813 202.432 11.036L203.472 9.596H203.952L203.904 11.82H205.728V12.316H203.888V17.772C203.888 18.156 203.968 18.444 204.128 18.636C204.298 18.828 204.506 18.924 204.752 18.924C204.965 18.924 205.157 18.876 205.328 18.78C205.498 18.6733 205.669 18.5347 205.84 18.364L206.048 18.604C205.845 18.956 205.562 19.2333 205.2 19.436C204.837 19.628 204.389 19.724 203.856 19.724ZM208.438 10.7C208.086 10.7 207.787 10.588 207.542 10.364C207.297 10.14 207.174 9.85733 207.174 9.516C207.174 9.164 207.297 8.88133 207.542 8.668C207.787 8.444 208.086 8.332 208.438 8.332C208.79 8.332 209.089 8.444 209.334 8.668C209.579 8.88133 209.702 9.164 209.702 9.516C209.702 9.85733 209.579 10.14 209.334 10.364C209.089 10.588 208.79 10.7 208.438 10.7ZM206.598 19.5V19.196L206.838 19.132C207.051 19.068 207.195 18.972 207.27 18.844C207.345 18.716 207.387 18.5453 207.398 18.332V15.388C207.398 15.0573 207.398 14.7533 207.398 14.476C207.398 14.188 207.393 13.8947 207.382 13.596C207.382 13.3827 207.339 13.2173 207.254 13.1C207.179 12.972 207.035 12.8867 206.822 12.844L206.598 12.796V12.508L209.398 11.58L209.59 11.756L209.542 14.028V18.348C209.542 18.5613 209.579 18.732 209.654 18.86C209.739 18.988 209.883 19.084 210.086 19.148L210.262 19.196V19.5H206.598ZM213.837 19.724C213.421 19.724 213.042 19.6493 212.701 19.5C212.359 19.34 212.087 19.084 211.885 18.732C211.693 18.3693 211.602 17.8947 211.613 17.308L211.661 13.292C211.661 13.0573 211.623 12.8867 211.549 12.78C211.474 12.6733 211.341 12.5987 211.149 12.556L210.957 12.492V12.204L213.693 11.676L213.869 11.852L213.789 14.108V17.74C213.789 18.1027 213.885 18.3693 214.077 18.54C214.279 18.7 214.53 18.78 214.829 18.78C215.138 18.78 215.415 18.7373 215.661 18.652C215.917 18.556 216.178 18.4173 216.445 18.236L216.493 13.308C216.493 13.0627 216.455 12.892 216.381 12.796C216.317 12.7 216.189 12.6253 215.997 12.572L215.821 12.524V12.236L218.493 11.676L218.669 11.852L218.621 14.108V18.3C218.621 18.524 218.647 18.7053 218.701 18.844C218.765 18.972 218.898 19.068 219.101 19.132L219.309 19.196V19.5L216.605 19.66L216.461 18.652C216.098 18.9613 215.703 19.2173 215.277 19.42C214.85 19.6227 214.37 19.724 213.837 19.724ZM219.957 19.5V19.18L220.309 19.084C220.48 19.0307 220.592 18.956 220.645 18.86C220.698 18.7533 220.73 18.6147 220.741 18.444V15.276C220.741 14.924 220.741 14.6253 220.741 14.38C220.741 14.1347 220.736 13.8467 220.725 13.516C220.725 13.3347 220.698 13.196 220.645 13.1C220.592 12.9933 220.474 12.9187 220.293 12.876L219.957 12.796V12.508L222.549 11.58L222.741 11.756L222.853 12.828C223.226 12.4867 223.642 12.1933 224.101 11.948C224.56 11.7027 225.029 11.58 225.509 11.58C226.042 11.58 226.458 11.6867 226.757 11.9C227.056 12.1133 227.285 12.4387 227.445 12.876C227.85 12.4707 228.298 12.156 228.789 11.932C229.28 11.6973 229.765 11.58 230.245 11.58C230.97 11.58 231.514 11.7613 231.877 12.124C232.24 12.4867 232.421 13.0573 232.421 13.836V18.46C232.421 18.8013 232.57 19.0147 232.869 19.1L233.173 19.18V19.5H229.573V19.18L229.861 19.1C230.149 19.004 230.293 18.7853 230.293 18.444V13.756C230.293 13.2973 230.208 12.988 230.037 12.828C229.877 12.6573 229.61 12.572 229.237 12.572C228.949 12.572 228.677 12.6307 228.421 12.748C228.165 12.8653 227.882 13.0467 227.573 13.292C227.637 13.612 227.669 13.98 227.669 14.396V18.46C227.68 18.6413 227.712 18.7853 227.765 18.892C227.829 18.988 227.946 19.0573 228.117 19.1L228.389 19.18V19.5H224.773V19.18L225.109 19.084C225.28 19.0307 225.392 18.956 225.445 18.86C225.509 18.7533 225.541 18.6147 225.541 18.444V13.772C225.541 13.3347 225.461 13.0253 225.301 12.844C225.141 12.6627 224.869 12.572 224.485 12.572C223.994 12.572 223.466 12.8067 222.901 13.276V18.46C222.901 18.812 223.05 19.0253 223.349 19.1L223.621 19.18V19.5H219.957Z" fill="#6E76AE"/>
<path d="M87.6672 57.5V56.702L88.8012 56.45C89.4172 56.31 89.9072 56.114 90.2712 55.862C90.6632 55.61 91.0412 55.232 91.4052 54.728L95.9832 48.344L90.5652 39.776C90.2852 39.356 90.0052 39.034 89.7252 38.81C89.4732 38.586 89.1092 38.418 88.6332 38.306L87.9192 38.138V37.34H98.4192V38.138L97.7892 38.306C97.2852 38.418 96.9772 38.642 96.8652 38.978C96.7812 39.286 96.8792 39.664 97.1592 40.112L100.393 45.026L103.837 40.238C104.145 39.79 104.285 39.398 104.257 39.062C104.257 38.726 103.991 38.502 103.459 38.39L102.535 38.138V37.34H109.003V38.138L107.995 38.348C107.407 38.488 106.945 38.698 106.609 38.978C106.273 39.23 105.923 39.608 105.559 40.112L101.065 46.034L106.567 54.602C107.211 55.554 108.107 56.184 109.255 56.492L110.095 56.702V57.5H98.7972V56.702L99.4272 56.576C99.9312 56.436 100.239 56.198 100.351 55.862C100.491 55.526 100.407 55.148 100.099 54.728L96.6972 49.436L93.0012 54.686C92.6932 55.134 92.5952 55.526 92.7072 55.862C92.8192 56.198 93.1132 56.422 93.5892 56.534L94.3452 56.702V57.5H87.6672ZM124.037 58.214C122.329 58.214 120.705 57.92 119.165 57.332L117.191 59.978C119.039 60.426 121.069 60.888 123.281 61.364C125.521 61.868 127.733 62.344 129.917 62.792C130.897 62.988 131.667 63.072 132.227 63.044C132.787 63.044 133.319 62.904 133.823 62.624L135.209 61.826L135.755 62.624L133.571 64.85C132.955 65.494 132.353 65.998 131.765 66.362C131.177 66.726 130.477 66.908 129.665 66.908C129.105 66.908 128.293 66.824 127.229 66.656C126.193 66.488 125.031 66.278 123.743 66.026C122.483 65.774 121.209 65.508 119.921 65.228C118.633 64.948 117.471 64.696 116.435 64.472C115.959 64.36 115.511 64.332 115.091 64.388C114.699 64.472 114.321 64.668 113.957 64.976L113.285 65.522L112.445 64.976L117.779 56.702C115.763 55.638 114.097 54.014 112.781 51.83C111.493 49.646 110.849 46.902 110.849 43.598C110.849 41.218 111.213 39.118 111.941 37.298C112.669 35.478 113.649 33.952 114.881 32.72C116.141 31.488 117.555 30.564 119.123 29.948C120.719 29.304 122.357 28.982 124.037 28.982C125.717 28.982 127.341 29.29 128.909 29.906C130.505 30.522 131.919 31.446 133.151 32.678C134.383 33.882 135.363 35.394 136.091 37.214C136.819 39.034 137.183 41.162 137.183 43.598C137.183 45.978 136.819 48.078 136.091 49.898C135.363 51.718 134.383 53.244 133.151 54.476C131.919 55.708 130.519 56.646 128.951 57.29C127.383 57.906 125.745 58.214 124.037 58.214ZM124.037 56.954C125.633 56.954 126.921 56.548 127.901 55.736C128.881 54.896 129.595 53.496 130.043 51.536C130.491 49.576 130.715 46.93 130.715 43.598C130.715 40.266 130.491 37.634 130.043 35.702C129.595 33.742 128.881 32.356 127.901 31.544C126.921 30.704 125.633 30.284 124.037 30.284C122.469 30.284 121.181 30.704 120.173 31.544C119.193 32.356 118.479 33.742 118.031 35.702C117.583 37.634 117.359 40.266 117.359 43.598C117.359 46.93 117.583 49.576 118.031 51.536C118.479 53.496 119.193 54.896 120.173 55.736C121.181 56.548 122.469 56.954 124.037 56.954ZM144.083 57.5V56.618L145.763 56.282C146.939 56.03 147.527 55.344 147.527 54.224V42.758C147.527 40.798 147.527 38.838 147.527 36.878C147.527 34.918 147.513 32.958 147.485 30.998H144.167C143.271 30.998 142.613 31.236 142.193 31.712C141.773 32.188 141.353 32.86 140.933 33.728L139.463 36.836H138.287L138.497 29.738H162.605L162.815 36.836H161.639L160.169 33.728C159.749 32.86 159.329 32.188 158.909 31.712C158.489 31.236 157.831 30.998 156.935 30.998H153.575V54.224C153.575 55.372 154.163 56.058 155.339 56.282L157.061 56.618V57.5H144.083ZM164.622 57.5V56.618L165.462 56.366C166.05 56.17 166.428 55.918 166.596 55.61C166.764 55.274 166.848 54.812 166.848 54.224V32.972C166.848 32.412 166.764 31.978 166.596 31.67C166.428 31.334 166.064 31.068 165.504 30.872L164.622 30.62V29.738H175.038V30.62L174.24 30.872C173.708 31.068 173.344 31.334 173.148 31.67C172.98 32.006 172.896 32.468 172.896 33.056V56.24H179.07C180.022 56.24 180.736 56.002 181.212 55.526C181.688 55.05 182.136 54.364 182.556 53.468L184.11 49.982H185.286L184.866 57.5H164.622ZM196.532 57.5V56.618L197.372 56.324C197.876 56.184 198.226 55.946 198.422 55.61C198.618 55.246 198.73 54.756 198.758 54.14V33.014C198.73 32.426 198.632 31.978 198.464 31.67C198.296 31.334 197.946 31.082 197.414 30.914L196.532 30.62V29.738H216.524L216.818 36.458H215.642L213.962 32.678C213.738 32.146 213.486 31.74 213.206 31.46C212.926 31.152 212.506 30.998 211.946 30.998H204.806C204.778 32.734 204.764 34.526 204.764 36.374C204.764 38.194 204.764 40.252 204.764 42.548H208.922C209.482 42.548 209.902 42.408 210.182 42.128C210.49 41.82 210.77 41.414 211.022 40.91L211.736 39.314H212.66V47.084H211.736L210.98 45.488C210.756 44.984 210.504 44.578 210.224 44.27C209.944 43.962 209.524 43.808 208.964 43.808H204.764C204.764 45.824 204.764 47.56 204.764 49.016C204.764 50.472 204.764 51.774 204.764 52.922C204.792 54.042 204.806 55.148 204.806 56.24H212.87C213.43 56.24 213.864 56.1 214.172 55.82C214.48 55.512 214.732 55.092 214.928 54.56L216.482 50.78H217.658L217.364 57.5H196.532ZM219.368 57.5V56.702L220.502 56.45C221.118 56.31 221.608 56.114 221.972 55.862C222.364 55.61 222.742 55.232 223.106 54.728L227.684 48.344L222.266 39.776C221.986 39.356 221.706 39.034 221.426 38.81C221.174 38.586 220.81 38.418 220.334 38.306L219.62 38.138V37.34H230.12V38.138L229.49 38.306C228.986 38.418 228.678 38.642 228.566 38.978C228.482 39.286 228.58 39.664 228.86 40.112L232.094 45.026L235.538 40.238C235.846 39.79 235.986 39.398 235.958 39.062C235.958 38.726 235.692 38.502 235.16 38.39L234.236 38.138V37.34H240.704V38.138L239.696 38.348C239.108 38.488 238.646 38.698 238.31 38.978C237.974 39.23 237.624 39.608 237.26 40.112L232.766 46.034L238.268 54.602C238.912 55.554 239.808 56.184 240.956 56.492L241.796 56.702V57.5H230.498V56.702L231.128 56.576C231.632 56.436 231.94 56.198 232.052 55.862C232.192 55.526 232.108 55.148 231.8 54.728L228.398 49.436L224.702 54.686C224.394 55.134 224.296 55.526 224.408 55.862C224.52 56.198 224.814 56.422 225.29 56.534L226.046 56.702V57.5H219.368ZM242.345 67.202V66.404L242.891 66.236C243.451 66.096 243.843 65.858 244.067 65.522C244.291 65.214 244.403 64.766 244.403 64.178C244.403 63.03 244.403 61.938 244.403 60.902C244.431 59.894 244.445 58.914 244.445 57.962V46.412C244.445 45.544 244.445 44.802 244.445 44.186C244.445 43.542 244.431 42.828 244.403 42.044C244.403 41.456 244.305 41.008 244.109 40.7C243.913 40.364 243.535 40.14 242.975 40.028L242.345 39.902V39.146L249.107 36.71L249.611 37.13L249.989 38.684C251.921 37.368 254.105 36.71 256.541 36.71C258.921 36.71 260.825 37.606 262.253 39.398C263.709 41.19 264.437 43.836 264.437 47.336C264.437 50.724 263.639 53.37 262.043 55.274C260.475 57.15 258.333 58.088 255.617 58.088C254.525 58.088 253.489 57.99 252.509 57.794C251.557 57.598 250.703 57.304 249.947 56.912V58.172C249.947 59.012 249.947 59.922 249.947 60.902C249.975 61.882 249.989 62.946 249.989 64.094C249.989 65.214 250.479 65.914 251.459 66.194L252.257 66.404V67.202H242.345ZM253.643 56.408C255.127 56.408 256.289 55.75 257.129 54.434C257.997 53.09 258.431 50.78 258.431 47.504C258.431 44.256 258.025 41.988 257.213 40.7C256.401 39.384 255.253 38.726 253.769 38.726C253.237 38.726 252.663 38.81 252.047 38.978C251.431 39.146 250.773 39.426 250.073 39.818V55.694C251.193 56.17 252.383 56.408 253.643 56.408ZM266.259 57.5V56.702L266.889 56.534C267.813 56.226 268.275 55.526 268.275 54.434C268.275 53.482 268.275 52.53 268.275 51.578C268.303 50.598 268.317 49.632 268.317 48.68V32.72C268.317 32.132 268.219 31.698 268.023 31.418C267.827 31.11 267.449 30.886 266.889 30.746L266.259 30.578V29.78L273.609 28.016L274.155 28.394L273.987 34.316V54.434C274.015 54.994 274.127 55.456 274.323 55.82C274.547 56.156 274.925 56.394 275.457 56.534L276.045 56.702V57.5H266.259ZM288.447 58.088C286.375 58.088 284.555 57.654 282.987 56.786C281.447 55.918 280.243 54.686 279.375 53.09C278.535 51.494 278.115 49.59 278.115 47.378C278.115 45.166 278.563 43.262 279.459 41.666C280.383 40.07 281.615 38.852 283.155 38.012C284.723 37.144 286.487 36.71 288.447 36.71C290.407 36.71 292.157 37.144 293.697 38.012C295.265 38.852 296.497 40.07 297.393 41.666C298.317 43.234 298.779 45.138 298.779 47.378C298.779 49.59 298.345 51.508 297.477 53.132C296.637 54.728 295.447 55.96 293.907 56.828C292.367 57.668 290.547 58.088 288.447 58.088ZM288.447 56.912C289.455 56.912 290.267 56.646 290.883 56.114C291.527 55.554 291.989 54.588 292.269 53.216C292.549 51.844 292.689 49.926 292.689 47.462C292.689 44.97 292.549 43.038 292.269 41.666C291.989 40.266 291.527 39.3 290.883 38.768C290.267 38.208 289.455 37.928 288.447 37.928C287.439 37.928 286.627 38.208 286.011 38.768C285.395 39.3 284.933 40.266 284.625 41.666C284.345 43.038 284.205 44.97 284.205 47.462C284.205 49.926 284.345 51.844 284.625 53.216C284.933 54.588 285.395 55.554 286.011 56.114C286.627 56.646 287.439 56.912 288.447 56.912ZM300.71 57.5V56.702L301.34 56.492C301.9 56.352 302.278 56.114 302.474 55.778C302.698 55.442 302.81 54.994 302.81 54.434V42.128C302.782 41.512 302.67 41.05 302.474 40.742C302.278 40.406 301.9 40.182 301.34 40.07L300.71 39.902V39.146L307.556 36.71L308.06 37.172L308.438 40.868V41.162C308.858 40.378 309.39 39.65 310.034 38.978C310.678 38.306 311.378 37.76 312.134 37.34C312.89 36.92 313.646 36.71 314.402 36.71C315.466 36.71 316.264 36.99 316.796 37.55C317.328 38.11 317.594 38.824 317.594 39.692C317.594 40.644 317.328 41.372 316.796 41.876C316.264 42.352 315.62 42.59 314.864 42.59C313.744 42.59 312.778 42.086 311.966 41.078L311.882 40.994C311.602 40.658 311.28 40.476 310.916 40.448C310.58 40.392 310.244 40.56 309.908 40.952C309.628 41.232 309.362 41.568 309.11 41.96C308.886 42.324 308.676 42.758 308.48 43.262V54.266C308.48 54.798 308.592 55.246 308.816 55.61C309.04 55.946 309.418 56.184 309.95 56.324L311.21 56.702V57.5H300.71ZM328.847 36.71C330.611 36.71 332.123 37.074 333.383 37.802C334.643 38.53 335.609 39.538 336.281 40.826C336.981 42.086 337.331 43.542 337.331 45.194C337.331 45.558 337.317 45.908 337.289 46.244C337.261 46.552 337.205 46.846 337.121 47.126H324.479C324.507 50.01 325.039 52.082 326.075 53.342C327.139 54.602 328.679 55.232 330.695 55.232C332.095 55.232 333.229 55.008 334.097 54.56C334.965 54.084 335.763 53.426 336.491 52.586L337.163 53.216C336.323 54.756 335.175 55.96 333.719 56.828C332.291 57.668 330.583 58.088 328.595 58.088C326.607 58.088 324.857 57.668 323.345 56.828C321.833 55.988 320.643 54.784 319.775 53.216C318.935 51.62 318.515 49.716 318.515 47.504C318.515 45.208 319.005 43.262 319.985 41.666C320.993 40.07 322.281 38.852 323.849 38.012C325.445 37.144 327.111 36.71 328.847 36.71ZM328.637 37.928C327.825 37.928 327.111 38.166 326.495 38.642C325.907 39.09 325.431 39.902 325.067 41.078C324.731 42.226 324.535 43.85 324.479 45.95H331.997C332.305 43.122 332.193 41.078 331.661 39.818C331.129 38.558 330.121 37.928 328.637 37.928ZM339.47 57.5V56.702L340.1 56.492C340.66 56.352 341.038 56.114 341.234 55.778C341.458 55.442 341.57 54.994 341.57 54.434V42.128C341.542 41.512 341.43 41.05 341.234 40.742C341.038 40.406 340.66 40.182 340.1 40.07L339.47 39.902V39.146L346.316 36.71L346.82 37.172L347.198 40.868V41.162C347.618 40.378 348.15 39.65 348.794 38.978C349.438 38.306 350.138 37.76 350.894 37.34C351.65 36.92 352.406 36.71 353.162 36.71C354.226 36.71 355.024 36.99 355.556 37.55C356.088 38.11 356.354 38.824 356.354 39.692C356.354 40.644 356.088 41.372 355.556 41.876C355.024 42.352 354.38 42.59 353.624 42.59C352.504 42.59 351.538 42.086 350.726 41.078L350.642 40.994C350.362 40.658 350.04 40.476 349.676 40.448C349.34 40.392 349.004 40.56 348.668 40.952C348.388 41.232 348.122 41.568 347.87 41.96C347.646 42.324 347.436 42.758 347.24 43.262V54.266C347.24 54.798 347.352 55.246 347.576 55.61C347.8 55.946 348.178 56.184 348.71 56.324L349.97 56.702V57.5H339.47Z" fill="#3C4A63"/>
<defs>
<clipPath id="clip0_3207_6654">
<rect width="64" height="73.1211" fill="white" transform="matrix(0 1 -1 0 73.1212 1)"/>
</clipPath>
</defs>
</svg>
