<svg width="1453" height="1012" viewBox="0 0 1453 1012" fill="none" xmlns="http://www.w3.org/2000/svg">
<g clip-path="url(#clip0_2996_75363)" opacity="0.3">
<rect width="1452.6" height="1012" fill="white"/>
<path d="M1306.02 103.327V173.672L1245.1 208.845L1184.18 173.672V103.327L1245.1 68.1543L1306.02 103.327Z" stroke="#B3E4E3" stroke-width="2"/>
<path d="M1186.1 67L1217.71 85.25V121.75L1186.1 140L1154.49 121.75V85.25L1186.1 67Z" fill="white"/>
<path d="M1339.04 21.3271V61.6719L1304.1 81.8447L1269.16 61.6719V21.3271L1304.1 1.1543L1339.04 21.3271Z" stroke="#EEDECC" stroke-width="2"/>
<path d="M1166.49 247.077V265.422L1150.6 274.595L1134.72 265.422V247.077L1150.6 237.904L1166.49 247.077Z" stroke="#C1BBEB" stroke-width="2"/>
<path d="M1212.38 88.3271V118.672L1186.1 133.845L1159.82 118.672V88.3271L1186.1 73.1543L1212.38 88.3271Z" fill="white" stroke="#DFD1F6" stroke-width="2"/>
<path d="M1389.98 178.827V222.672L1352.01 244.595L1314.04 222.672V178.827L1352.01 156.904L1389.98 178.827Z" stroke="#B3BAEA" stroke-width="2"/>
<path d="M1287.58 238.327V274.672L1256.1 292.845L1224.63 274.672V238.327L1256.1 220.154L1287.58 238.327Z" stroke="#BBD0EB" stroke-width="2"/>
<path d="M1160.78 498.827V526.172L1137.1 539.845L1113.42 526.172V498.827L1137.1 485.154L1160.78 498.827Z" stroke="#B3BAEA" stroke-width="2"/>
<path d="M1185.38 751.327V781.672L1159.1 796.845L1132.82 781.672V751.327L1159.1 736.154L1185.38 751.327Z" stroke="#B3E4E3" stroke-width="2"/>
<path d="M1179.44 644.327V696.672L1134.1 722.845L1088.77 696.672V644.327L1134.1 618.154L1179.44 644.327Z" stroke="#BBD0EB" stroke-width="2"/>
<path d="M1434.79 639.327V763.672L1327.1 825.845L1219.42 763.672V639.327L1327.1 577.154L1434.79 639.327Z" stroke="#CCD1F6" stroke-width="2"/>
<path d="M1253.77 551.077V600.922L1210.6 625.845L1167.44 600.922V551.077L1210.6 526.154L1253.77 551.077Z" stroke="#B3E4E3" stroke-width="2"/>
<path d="M1288.6 772.477L1354.01 810.238V885.762L1288.6 923.523L1223.2 885.762V810.238L1288.6 772.477Z" fill="white"/>
<path d="M1347.36 814.077V881.922L1288.6 915.845L1229.85 881.922V814.077L1288.6 780.154L1347.36 814.077Z" fill="white" stroke="#EEDECC" stroke-width="2"/>
<path d="M800.465 850.827V858.172L794.104 861.845L787.742 858.172V850.827L794.104 847.154L800.465 850.827Z" stroke="#EEDECC" stroke-width="2"/>
<path d="M768.445 796.827V834.172L736.104 852.845L703.762 834.172V796.827L736.104 778.154L768.445 796.827Z" fill="white" stroke="#B3E4E3" stroke-width="2"/>
<path d="M785.295 769.036V781.381L774.604 787.553L763.912 781.381V769.036L774.604 762.863L785.295 769.036Z" stroke="#BBD0EB" stroke-width="2"/>
<path d="M327.847 802.577V941.422L207.604 1010.84L87.3604 941.422V802.577L207.604 733.154L327.847 802.577Z" fill="white" stroke="#BBD0EB" stroke-width="2"/>
<path d="M88.1035 715.396L164.403 759.448V847.552L88.1035 891.604L11.8036 847.552V759.448L88.1035 715.396Z" fill="white"/>
<path d="M157.685 763.327V843.672L88.1035 883.845L18.5225 843.672V763.327L88.1035 723.154L157.685 763.327Z" fill="white" stroke="#EEDECC" stroke-width="2"/>
<path d="M214.766 644.827V702.172L165.104 730.845L115.441 702.172V644.827L165.104 616.154L214.766 644.827Z" stroke="#B3BAEA" stroke-width="2"/>
<path d="M211.104 669.025L238.361 684.763V716.237L211.104 731.975L183.846 716.237V684.763L211.104 669.025Z" fill="white"/>
<path d="M233.053 687.827V713.172L211.104 725.845L189.154 713.172V687.827L211.104 675.154L233.053 687.827Z" fill="white" stroke="#A5CDF1" stroke-width="2"/>
<path d="M193.605 153.827V201.172L152.604 224.845L111.602 201.172V153.827L152.604 130.154L193.605 153.827Z" stroke="#BBD0EB" stroke-width="2"/>
<path d="M214.258 232.827V258.172L192.309 270.845L170.359 258.172V232.827L192.309 220.154L214.258 232.827Z" fill="white" stroke="#B3BAEA" stroke-width="2"/>
<path d="M130.862 237.577V249.422L120.604 255.345L110.345 249.422V237.577L120.604 231.654L130.862 237.577Z" stroke="#B3E4E3" stroke-width="2"/>
</g>
<defs>
<clipPath id="clip0_2996_75363">
<rect width="1452.6" height="1012" fill="white"/>
</clipPath>
</defs>
</svg>
