<svg width="246" height="68" viewBox="0 0 246 68" fill="none" xmlns="http://www.w3.org/2000/svg">
<mask id="mask0_578_5548" style="mask-type:luminance" maskUnits="userSpaceOnUse" x="0" y="1" width="79" height="67">
<path d="M74.4015 40.2309L71.033 41.6588L66.8652 32.7115C67.29 32.3063 67.6278 31.8196 67.8584 31.2807C68.089 30.7418 68.2076 30.162 68.2069 29.5762C68.2069 29.3329 68.1866 29.09 68.1463 28.8501L74.5648 26.6459L77.0077 33.1352L74.4015 40.2309ZM68.5576 48.0521L60.3981 53.0539L54.4809 53.9383L57.1106 47.8185C57.2048 47.8262 57.3 47.8301 57.3961 47.8301C58.2029 47.83 58.9855 47.5554 59.6143 47.0517C60.243 46.548 60.6802 45.8455 60.8534 45.0606L69.5347 43.7413L68.5576 48.0521ZM52.6976 53.8692C52.2011 53.643 51.5355 53.3419 50.8595 53.0428C49.8768 52.5603 48.8592 52.1516 47.8153 51.8202C47.3287 51.4134 45.716 49.7486 43.7806 47.6554L54.3225 46.0534C54.6136 46.5596 55.0257 46.9864 55.5223 47.2959L52.6976 53.8692ZM37.1856 50.8764L41.9503 48.1228C42.4334 48.6485 43.2537 49.5363 44.0848 50.4167C44.8527 51.2299 45.4813 51.8792 45.9532 52.3469C46.3141 52.7047 46.5682 52.9425 46.7591 53.1014L47.8288 63.8191L37.1856 50.8764ZM25.8015 49.9992L21.3798 44.9113L25.3706 43.5408C25.6943 43.886 26.1114 44.1304 26.5716 44.2444C27.0318 44.3584 27.5153 44.3371 27.9636 44.1831C28.412 44.0291 28.8059 43.7491 29.0978 43.3768C29.3896 43.0045 29.567 42.5559 29.6083 42.0853L35.2684 40.1414L40.8431 46.8436L35.6895 49.8217L25.8015 49.9992ZM13.6935 35.0826L21.1408 29.7908C21.9198 30.6129 22.9607 31.1407 24.0863 31.2844C25.212 31.4281 26.3529 31.1788 27.3148 30.579L34.1326 38.7756L29.1788 40.4771C28.8805 40.0496 28.453 39.7282 27.9586 39.5596C27.4642 39.3909 26.9286 39.384 26.4299 39.5396C25.9312 39.6953 25.4954 40.0055 25.1861 40.4251C24.8767 40.8446 24.7098 41.3516 24.7098 41.8722C24.7098 41.9186 24.7112 41.9647 24.7137 42.0106L20.2381 43.5474L13.6935 35.0826ZM13.1663 45.2464L7.19102 41.933C7.48067 41.2135 7.48905 40.4119 7.21449 39.6865L12.3358 36.0476L18.4929 44.0115L13.1663 45.247V45.2464ZM1.69282 30.0067L2.47705 23.2957L11.3182 34.7313L6.22772 38.3485C5.68173 37.9203 5.00676 37.688 4.31186 37.6891C4.14773 37.6891 3.98386 37.7019 3.82175 37.7275L1.69282 30.0067ZM6.64757 18.5842L16.5345 17.6178L21.1071 23.1153C20.4574 23.8151 20.0271 24.6889 19.8691 25.629C19.7112 26.5692 19.8324 27.5348 20.218 28.4073L12.6759 33.7664L3.05625 21.3244L6.64757 18.5842ZM10.7573 13.9924C11.1955 14.2341 11.6831 14.3733 12.1833 14.3993C12.6834 14.4254 13.183 14.3377 13.644 14.1428L15.2515 16.0752L8.33923 16.7508L10.7573 13.9924ZM22.3292 8.97884L35.3596 5.99491C35.52 6.33165 35.7376 6.63829 36.0027 6.90135L31.1752 14.5188L17.253 15.8796L14.9626 13.126C15.4073 12.5529 15.6481 11.8488 15.6469 11.1244C15.6469 11.0645 15.6453 11.0049 15.642 10.9455L22.3292 8.97884ZM48.4295 23.4295L32.8419 14.999L37.4461 7.73332C38.2195 7.94135 39.0427 7.85771 39.7579 7.49844C40.4732 7.13917 41.0302 6.52955 41.322 5.78646L53.1016 8.06219L48.4295 23.4295ZM57.6917 16.9616L50.4741 22.432L54.3311 9.74643L57.6917 16.9616ZM61.8509 11.9663C61.8222 12.1365 61.8078 12.3086 61.8078 12.4811C61.8073 12.8868 61.8873 13.2887 62.0431 13.6635L59.0495 15.9325L55.8928 9.15508L61.8509 11.9663ZM63.8438 25.23C63.6926 25.23 63.5415 25.2377 63.3911 25.2531L59.7678 17.4742L63.0711 14.9703C63.4993 15.284 64.0012 15.483 64.5287 15.5482C65.0561 15.6134 65.5916 15.5427 66.0838 15.3429L73.693 25.1894L67.5588 27.2962C67.1683 26.6644 66.6218 26.1429 65.9715 25.7812C65.3213 25.4196 64.5886 25.2296 63.8438 25.23ZM43.0891 37.4556C43.3411 37.7232 43.6374 37.9456 43.9652 38.1131L41.7649 45.35L36.9519 39.5632L43.0891 37.4556ZM59.4807 29.5762C59.4808 29.7381 59.4899 29.8999 59.5079 30.0608L48.3122 33.9057C48.0894 33.4408 47.7573 33.0362 47.3441 32.7264L49.65 25.1428L58.4099 18.5033L61.7829 25.7448C61.087 26.1161 60.5054 26.6686 60.1 27.3434C59.6946 28.0181 59.4804 28.7898 59.4807 29.5762ZM27.9315 22.7468L31.9501 16.4055L47.9364 25.0518L45.7908 32.1084C45.2834 32.0501 44.7694 32.1135 44.2917 32.2933C43.814 32.4732 43.3864 32.7643 43.0447 33.1423C42.7029 33.5203 42.4569 33.9743 42.3272 34.4664C42.1975 34.9584 42.1879 35.4742 42.2991 35.9707L35.8158 38.1974L28.5573 29.4705C29.341 28.4847 29.7133 27.2359 29.5968 25.9838C29.4802 24.7317 28.8838 23.5723 27.9315 22.7468ZM24.7098 21.5461C23.9158 21.545 23.1335 21.7366 22.4306 22.1043L18.536 17.4223L30.0483 16.2971L26.5074 21.8845C25.9349 21.6602 25.325 21.5453 24.7098 21.5461ZM57.3961 40.7797C56.4575 40.7797 55.5574 41.1511 54.8937 41.8122C54.23 42.4734 53.8572 43.37 53.8571 44.305C53.8571 44.3516 53.8584 44.3979 53.8601 44.4443L43.2934 46.0502L45.602 38.4566C46.3687 38.4135 47.0942 38.0971 47.6462 37.5653C48.1982 37.0335 48.5398 36.3218 48.6087 35.5599L60.0063 31.6457C60.3698 32.3123 60.9014 32.8731 61.5486 33.2729L58.2757 40.8896C57.9884 40.8164 57.6927 40.7794 57.3961 40.7797ZM60.8137 43.3874C60.6343 42.7255 60.2651 42.13 59.7512 41.6738L63.1089 33.8605C63.897 33.9942 64.7069 33.9104 65.4506 33.6182L69.3936 42.0836L60.8137 43.3874ZM75.8091 25.2237L75.7965 25.1899L67.4005 14.3253C67.8798 13.6829 68.0902 12.8803 67.9874 12.0864C67.8846 11.2926 67.4767 10.5694 66.8495 10.0691C66.2222 9.56881 65.4246 9.33042 64.6245 9.40412C63.8243 9.47781 63.0841 9.85784 62.5596 10.4642L54.5233 6.67199L54.4285 6.62731L41.5082 4.13115C41.3901 3.34474 40.9855 2.62917 40.3715 2.12101C39.7575 1.61284 38.9772 1.34767 38.1795 1.37609C37.3817 1.40452 36.6224 1.72455 36.0465 2.27511C35.4705 2.82567 35.1182 3.56821 35.0569 4.36101L21.924 7.36832L15.133 9.36464C14.6663 8.63486 13.929 8.11837 13.0817 7.9277C12.2344 7.73703 11.3458 7.88762 10.6095 8.34668C9.87319 8.80573 9.34882 9.53604 9.15064 10.3785C8.95246 11.221 9.09653 12.1073 9.55147 12.8444L5.75678 17.1728L1.09945 20.7264L0 30.1351L2.28899 38.4364C1.67988 38.9583 1.29779 39.6953 1.22315 40.4922C1.14851 41.2892 1.38713 42.0838 1.88879 42.709C2.39046 43.3342 3.11605 43.7412 3.91284 43.8443C4.70964 43.9473 5.5155 43.7385 6.16082 43.2616L12.9178 47.0085L19.6425 45.4485L25.0518 51.6732L35.5317 51.4851L48.3997 67.1336L49.7772 66.5652L48.5075 53.8395C49.8492 54.4086 52.9045 55.7924 52.9387 55.8079L53.0039 55.8376L60.9819 54.6455L70.0285 49.0998L71.3355 43.3345L75.7184 41.4768L78.7847 33.128L75.8091 25.2237Z" fill="white"/>
</mask>
<g mask="url(#mask0_578_5548)">
<path d="M78.7847 1.37451H0V67.1339H78.7847V1.37451Z" fill="#BBD3E2"/>
</g>
<path d="M42.1656 6.9321V2.3107L38.1477 0L34.1299 2.3107V6.9321L38.1477 9.24335L42.1656 6.9321Z" fill="#3E7393"/>
<path d="M69.7324 32.9632V26.1781L63.8335 22.7856L57.9346 26.1781V32.9632L63.8335 36.3557L69.7324 32.9632Z" fill="#3E7393"/>
<path d="M30.792 43.8176V39.705L27.2166 37.6484L23.6406 39.705V43.8176L27.2166 45.8742L30.792 43.8176Z" fill="#3E7393"/>
<path d="M61.3804 46.4126V41.7912L57.3626 39.4805L53.3447 41.7912V46.4126L57.3626 48.7238L61.3804 46.4126Z" fill="#2B4E63"/>
<path d="M68.3301 14.7181V10.6049L64.7547 8.54834L61.1787 10.6049V14.7181L64.7547 16.7741L68.3301 14.7181Z" fill="#2B4E63"/>
<path d="M30.5161 29.6175V22.8324L24.6171 19.4399L18.7188 22.8324V29.6175L24.6171 33.01L30.5161 29.6175Z" fill="#2B4E63"/>
<path d="M15.997 13.1511V9.03796L12.4217 6.98193L8.8457 9.03796V13.1511L12.4217 15.2072L15.997 13.1511Z" fill="#5B95BA"/>
<path d="M48.7705 37.26V33.1474L45.1945 31.0908L41.6191 33.1474V37.26L45.1945 39.3166L48.7705 37.26Z" fill="#5B95BA"/>
<path d="M8.49816 43.0396V38.4182L4.48031 36.1069L0.461914 38.4182V43.0396L4.48031 45.3503L8.49816 43.0396Z" fill="#5B95BA"/>
<path d="M237.114 26.7267V13.3044H240.417L240.763 15.7812C241.1 15.1953 241.508 14.6982 241.988 14.2898C242.467 13.8815 243.026 13.5619 243.666 13.3311C244.305 13.1003 244.997 12.9849 245.743 12.9849V16.9263H244.491C243.959 16.9263 243.461 16.9885 243 17.1127C242.556 17.237 242.165 17.4412 241.828 17.7253C241.508 17.9916 241.26 18.3644 241.082 18.8438C240.923 19.3054 240.843 19.8913 240.843 20.6015V26.7267H237.114Z" fill="#2B4E63"/>
<path d="M227.462 27.0463C226.113 27.0463 224.914 26.7622 223.867 26.1941C222.837 25.6082 222.029 24.8004 221.443 23.7706C220.857 22.7231 220.564 21.5158 220.564 20.1487C220.564 18.7639 220.849 17.5388 221.417 16.4736C222.003 15.3906 222.81 14.5384 223.84 13.917C224.888 13.2956 226.104 12.9849 227.489 12.9849C228.82 12.9849 229.983 13.2778 230.977 13.8637C231.989 14.4496 232.771 15.2397 233.321 16.2339C233.889 17.2281 234.173 18.3733 234.173 19.6694C234.173 19.8469 234.164 20.0422 234.147 20.2553C234.147 20.4683 234.129 20.6991 234.093 20.9477H223.228V18.684H230.391C230.338 17.8673 230.036 17.2193 229.486 16.7399C228.953 16.2428 228.288 15.9942 227.489 15.9942C226.885 15.9942 226.335 16.1363 225.837 16.4203C225.34 16.7044 224.95 17.1216 224.666 17.672C224.382 18.2224 224.24 18.9237 224.24 19.7759V20.5482C224.24 21.2406 224.373 21.8531 224.639 22.3858C224.905 22.9006 225.278 23.3001 225.758 23.5842C226.237 23.8683 226.796 24.0103 227.435 24.0103C228.075 24.0103 228.598 23.8771 229.007 23.6108C229.433 23.3445 229.752 22.9983 229.965 22.5722H233.774C233.525 23.4066 233.099 24.1612 232.495 24.8359C231.909 25.5105 231.19 26.052 230.338 26.4604C229.486 26.851 228.527 27.0463 227.462 27.0463Z" fill="#2B4E63"/>
<path d="M195.789 26.7267V13.3044H199.065L199.358 15.0887C199.784 14.4496 200.343 13.9436 201.035 13.5708C201.746 13.1802 202.562 12.9849 203.486 12.9849C204.142 12.9849 204.737 13.0736 205.27 13.2512C205.802 13.4287 206.273 13.6862 206.681 14.0235C207.107 14.3608 207.454 14.778 207.72 15.2752C208.235 14.565 208.892 14.0057 209.691 13.5974C210.49 13.189 211.36 12.9849 212.301 12.9849C213.472 12.9849 214.449 13.2245 215.23 13.7039C216.011 14.1655 216.597 14.8491 216.988 15.7545C217.396 16.6423 217.6 17.7341 217.6 19.0302V26.7267H213.898V19.3498C213.898 18.32 213.694 17.53 213.286 16.9796C212.878 16.4114 212.247 16.1274 211.395 16.1274C210.827 16.1274 210.33 16.2694 209.904 16.5535C209.478 16.8198 209.14 17.2104 208.892 17.7253C208.661 18.2401 208.546 18.8615 208.546 19.5895V26.7267H204.844V19.3498C204.844 18.32 204.64 17.53 204.231 16.9796C203.823 16.4114 203.175 16.1274 202.287 16.1274C201.755 16.1274 201.275 16.2694 200.849 16.5535C200.423 16.8198 200.094 17.2104 199.864 17.7253C199.633 18.2401 199.517 18.8615 199.517 19.5895V26.7267H195.789Z" fill="#2B4E63"/>
<path d="M184.789 26.7267V13.3044H188.091L188.438 15.7812C188.775 15.1953 189.183 14.6982 189.663 14.2898C190.142 13.8815 190.701 13.5619 191.34 13.3311C191.98 13.1003 192.672 12.9849 193.418 12.9849V16.9263H192.166C191.633 16.9263 191.136 16.9885 190.675 17.1127C190.231 17.237 189.84 17.4412 189.503 17.7253C189.183 17.9916 188.935 18.3644 188.757 18.8438C188.597 19.3054 188.517 19.8913 188.517 20.6015V26.7267H184.789Z" fill="#2B4E63"/>
<path d="M174.847 27.0463C173.568 27.0463 172.414 26.7533 171.385 26.1674C170.355 25.5638 169.538 24.7293 168.935 23.6641C168.349 22.5988 168.056 21.3915 168.056 20.0422C168.056 18.6574 168.349 17.4323 168.935 16.3671C169.538 15.3018 170.355 14.4762 171.385 13.8903C172.414 13.2867 173.577 12.9849 174.873 12.9849C176.169 12.9849 177.332 13.2867 178.362 13.8903C179.392 14.4762 180.2 15.3018 180.786 16.3671C181.389 17.4146 181.691 18.6307 181.691 20.0156C181.691 21.4004 181.389 22.6255 180.786 23.6907C180.182 24.7382 179.365 25.5638 178.335 26.1674C177.323 26.7533 176.161 27.0463 174.847 27.0463ZM174.847 23.8239C175.433 23.8239 175.947 23.6818 176.391 23.3978C176.835 23.1137 177.19 22.6876 177.457 22.1195C177.741 21.5513 177.883 20.85 177.883 20.0156C177.883 19.1811 177.75 18.4798 177.483 17.9117C177.217 17.3435 176.853 16.9174 176.391 16.6334C175.947 16.3493 175.441 16.2073 174.873 16.2073C174.323 16.2073 173.817 16.3493 173.355 16.6334C172.894 16.9174 172.53 17.3435 172.263 17.9117C171.997 18.4798 171.864 19.1811 171.864 20.0156C171.864 20.85 171.997 21.5513 172.263 22.1195C172.53 22.6876 172.885 23.1137 173.329 23.3978C173.79 23.6818 174.296 23.8239 174.847 23.8239Z" fill="#2B4E63"/>
<path d="M159.627 26.7269V12.1861C159.627 11.0498 159.823 10.1444 160.213 9.46971C160.604 8.79505 161.145 8.3068 161.838 8.00498C162.548 7.70316 163.382 7.55225 164.341 7.55225H166.019V10.7214H164.927C164.359 10.7214 163.951 10.8368 163.702 11.0676C163.471 11.2807 163.356 11.6535 163.356 12.1861V26.7269H159.627ZM157.816 16.4205V13.3046H166.205V16.4205H157.816Z" fill="#2B4E63"/>
<path d="M142.5 26.7267V13.3044H145.776L146.042 15.4882C146.45 14.7425 147.027 14.1389 147.773 13.6773C148.536 13.2157 149.451 12.9849 150.516 12.9849C151.617 12.9849 152.549 13.2245 153.312 13.7039C154.076 14.1655 154.653 14.8402 155.043 15.7279C155.452 16.6156 155.656 17.7075 155.656 19.0036V26.7267H151.954V19.3498C151.954 18.32 151.732 17.53 151.288 16.9796C150.862 16.4114 150.179 16.1274 149.238 16.1274C148.67 16.1274 148.155 16.2694 147.693 16.5535C147.232 16.8198 146.868 17.2104 146.601 17.7253C146.353 18.2224 146.228 18.8349 146.228 19.5628V26.7267H142.5Z" fill="#2B4E63"/>
<path d="M135.193 26.7265V8.08447H138.922V26.7265H135.193Z" fill="#2B4E63"/>
<path d="M110.123 26.7265V8.08447H116.461C118.61 8.08447 120.394 8.47507 121.814 9.25626C123.235 10.0197 124.282 11.1027 124.957 12.5053C125.649 13.8901 125.995 15.5235 125.995 17.4055C125.995 19.2697 125.649 20.9031 124.957 22.3057C124.282 23.7083 123.235 24.8002 121.814 25.5813C120.412 26.3448 118.618 26.7265 116.435 26.7265H110.123ZM113.851 23.5307H116.248C117.74 23.5307 118.911 23.291 119.764 22.8117C120.634 22.3146 121.255 21.6133 121.628 20.7078C122.001 19.7846 122.187 18.6838 122.187 17.4055C122.187 16.1272 122.001 15.0353 121.628 14.1298C121.255 13.2066 120.634 12.4964 119.764 11.9993C118.911 11.5022 117.74 11.2536 116.248 11.2536H113.851V23.5307Z" fill="#2B4E63"/>
<path d="M89.9121 26.7265L96.7031 8.08447H100.938L107.729 26.7265H103.787L98.807 12.3189L93.8003 26.7265H89.9121ZM92.8948 22.5454L93.8802 19.6425H103.468L104.426 22.5454H92.8948Z" fill="#2B4E63"/>
<path d="M211.1 47.81C210.567 47.81 210.106 47.7271 209.715 47.5614C209.324 47.3957 209.023 47.1176 208.81 46.727C208.608 46.3246 208.508 45.786 208.508 45.1113V40.1224H206.945V38.8618H208.508L208.703 36.6958H209.999V38.8618H212.591V40.1224H209.999V45.1113C209.999 45.6676 210.111 46.0464 210.336 46.2476C210.561 46.437 210.958 46.5317 211.526 46.5317H212.485V47.81H211.1Z" fill="#2B4E63"/>
<path d="M201.713 48.0232C200.872 48.0232 200.127 47.8279 199.476 47.4373C198.836 47.0467 198.333 46.5022 197.966 45.8039C197.599 45.0937 197.416 44.2711 197.416 43.3361C197.416 42.3892 197.594 41.5666 197.949 40.8682C198.316 40.1699 198.825 39.6254 199.476 39.2348C200.138 38.8442 200.896 38.6489 201.748 38.6489C202.624 38.6489 203.364 38.8442 203.967 39.2348C204.583 39.6254 205.05 40.1403 205.37 40.7794C205.701 41.4068 205.867 42.0992 205.867 42.8567C205.867 42.9751 205.867 43.0993 205.867 43.2295C205.867 43.3597 205.861 43.5077 205.849 43.6734H198.535V42.5194H204.411C204.376 41.7027 204.103 41.0635 203.595 40.6019C203.097 40.1403 202.47 39.9095 201.713 39.9095C201.204 39.9095 200.73 40.0278 200.292 40.2646C199.866 40.4895 199.523 40.8268 199.262 41.2766C199.002 41.7145 198.872 42.2649 198.872 42.9277V43.4248C198.872 44.1587 199.002 44.7742 199.262 45.2713C199.535 45.7684 199.884 46.1412 200.31 46.3898C200.748 46.6384 201.215 46.7626 201.713 46.7626C202.34 46.7626 202.855 46.6265 203.257 46.3543C203.671 46.0702 203.967 45.6915 204.145 45.218H205.619C205.476 45.7506 205.228 46.23 204.873 46.6561C204.518 47.0822 204.074 47.4196 203.541 47.6681C203.02 47.9048 202.411 48.0232 201.713 48.0232Z" fill="#2B4E63"/>
<path d="M191.538 48.0231C190.626 48.0231 189.833 47.8574 189.159 47.5259C188.484 47.1945 187.963 46.7329 187.596 46.1411C187.229 45.5493 187.046 44.8628 187.046 44.0816H188.608C188.608 44.5669 188.721 45.0167 188.946 45.4309C189.17 45.8334 189.496 46.1589 189.922 46.4074C190.36 46.6441 190.899 46.7625 191.538 46.7625C192.094 46.7625 192.567 46.6737 192.958 46.4962C193.361 46.3068 193.662 46.0523 193.864 45.7328C194.077 45.4132 194.183 45.0522 194.183 44.6497C194.183 44.1645 194.077 43.7739 193.864 43.478C193.662 43.1702 193.384 42.9217 193.029 42.7323C192.674 42.5429 192.26 42.3772 191.786 42.2352C191.325 42.0813 190.839 41.9215 190.33 41.7558C189.348 41.4244 188.626 41.0101 188.164 40.513C187.703 40.0159 187.472 39.3708 187.472 38.5778C187.472 37.9031 187.626 37.3113 187.934 36.8023C188.253 36.2934 188.703 35.8969 189.283 35.6128C189.875 35.3169 190.573 35.1689 191.378 35.1689C192.171 35.1689 192.857 35.3169 193.437 35.6128C194.029 35.9087 194.491 36.3171 194.822 36.8378C195.154 37.3468 195.319 37.9386 195.319 38.6133H193.757C193.757 38.27 193.668 37.9327 193.491 37.6013C193.313 37.2699 193.041 36.9976 192.674 36.7846C192.319 36.5597 191.869 36.4473 191.325 36.4473C190.875 36.4354 190.472 36.5124 190.117 36.6781C189.774 36.8319 189.502 37.0568 189.301 37.3527C189.111 37.6486 189.017 38.0096 189.017 38.4357C189.017 38.8382 189.099 39.1637 189.265 39.4122C189.443 39.6608 189.691 39.8738 190.011 40.0514C190.342 40.2171 190.727 40.371 191.165 40.513C191.603 40.655 192.088 40.8148 192.621 40.9924C193.224 41.1936 193.757 41.4421 194.219 41.738C194.692 42.0221 195.059 42.389 195.319 42.8388C195.592 43.2886 195.728 43.8626 195.728 44.561C195.728 45.1528 195.568 45.715 195.248 46.2476C194.941 46.7684 194.479 47.1945 193.864 47.5259C193.248 47.8574 192.473 48.0231 191.538 48.0231Z" fill="#2B4E63"/>
<path d="M175.584 48.023C174.72 48.023 173.962 47.8218 173.311 47.4194C172.66 47.0051 172.157 46.4429 171.802 45.7327C171.447 45.0225 171.27 44.2177 171.27 43.3181C171.27 42.4186 171.447 41.6196 171.802 40.9213C172.157 40.2111 172.66 39.6548 173.311 39.2524C173.974 38.85 174.738 38.6487 175.602 38.6487C176.335 38.6487 176.975 38.7967 177.519 39.0926C178.075 39.3885 178.501 39.8028 178.797 40.3354V35.0269H180.289V47.81H178.939L178.815 46.3364C178.626 46.6323 178.383 46.9104 178.087 47.1708C177.791 47.4194 177.436 47.6265 177.022 47.7922C176.608 47.9461 176.128 48.023 175.584 48.023ZM175.761 46.7269C176.353 46.7269 176.874 46.5849 177.324 46.3008C177.774 46.0168 178.123 45.6262 178.371 45.1291C178.62 44.6201 178.744 44.0224 178.744 43.3359C178.744 42.6612 178.62 42.0694 178.371 41.5604C178.123 41.0515 177.774 40.655 177.324 40.3709C176.874 40.0868 176.353 39.9448 175.761 39.9448C175.181 39.9448 174.667 40.0868 174.217 40.3709C173.767 40.655 173.418 41.0515 173.169 41.5604C172.921 42.0694 172.796 42.6612 172.796 43.3359C172.796 44.0224 172.921 44.6201 173.169 45.1291C173.418 45.6262 173.767 46.0168 174.217 46.3008C174.667 46.5849 175.181 46.7269 175.761 46.7269Z" fill="#2B4E63"/>
<path d="M161.447 47.8102V38.862H162.797L162.868 40.4244C163.152 39.8681 163.554 39.436 164.075 39.1283C164.608 38.8087 165.211 38.6489 165.886 38.6489C166.584 38.6489 167.188 38.791 167.697 39.075C168.206 39.3473 168.602 39.7674 168.886 40.3356C169.17 40.8919 169.312 41.6021 169.312 42.4661V47.8102H167.821V42.6259C167.821 41.7263 167.62 41.0517 167.217 40.6019C166.827 40.1521 166.271 39.9272 165.549 39.9272C165.051 39.9272 164.608 40.0515 164.217 40.3001C163.826 40.5368 163.513 40.886 163.276 41.3476C163.051 41.7974 162.939 42.3596 162.939 43.0342V47.8102H161.447Z" fill="#2B4E63"/>
<path d="M154.519 48.023C153.833 48.023 153.229 47.8869 152.708 47.6147C152.199 47.3425 151.803 46.9223 151.519 46.3541C151.246 45.786 151.11 45.0758 151.11 44.2236V38.8618H152.602V44.0638C152.602 44.9515 152.797 45.6203 153.188 46.0701C153.578 46.5198 154.129 46.7447 154.839 46.7447C155.336 46.7447 155.786 46.6264 156.188 46.3896C156.591 46.1411 156.904 45.7919 157.129 45.3421C157.366 44.8805 157.484 44.3183 157.484 43.6555V38.8618H158.976V47.81H157.626L157.537 46.2476C157.265 46.8039 156.863 47.2419 156.33 47.5614C155.797 47.8692 155.194 48.023 154.519 48.023Z" fill="#2B4E63"/>
<path d="M144.742 48.0232C143.913 48.0232 143.167 47.8338 142.505 47.4551C141.842 47.0645 141.321 46.52 140.942 45.8217C140.563 45.1115 140.374 44.2889 140.374 43.3538C140.374 42.3951 140.563 41.5666 140.942 40.8682C141.333 40.158 141.859 39.6136 142.522 39.2348C143.197 38.8442 143.949 38.6489 144.777 38.6489C145.629 38.6489 146.381 38.8442 147.032 39.2348C147.695 39.6136 148.216 40.158 148.594 40.8682C148.985 41.5666 149.18 42.3892 149.18 43.3361C149.18 44.283 148.985 45.1115 148.594 45.8217C148.204 46.52 147.677 47.0645 147.014 47.4551C146.351 47.8338 145.594 48.0232 144.742 48.0232ZM144.759 46.7449C145.268 46.7449 145.742 46.6206 146.18 46.3721C146.618 46.1117 146.973 45.727 147.245 45.218C147.517 44.7091 147.653 44.0817 147.653 43.3361C147.653 42.5785 147.517 41.9512 147.245 41.4541C146.985 40.9451 146.635 40.5664 146.197 40.3178C145.771 40.0574 145.298 39.9272 144.777 39.9272C144.28 39.9272 143.807 40.0574 143.357 40.3178C142.919 40.5664 142.564 40.9451 142.291 41.4541C142.031 41.9512 141.901 42.5785 141.901 43.3361C141.901 44.0817 142.031 44.7091 142.291 45.218C142.564 45.727 142.913 46.1117 143.339 46.3721C143.777 46.6206 144.25 46.7449 144.759 46.7449Z" fill="#2B4E63"/>
<path d="M129.633 51.7161V38.862H130.982L131.106 40.3178C131.296 40.0338 131.538 39.7674 131.834 39.5189C132.13 39.2585 132.485 39.0514 132.9 38.8975C133.314 38.7318 133.787 38.6489 134.32 38.6489C135.196 38.6489 135.953 38.8561 136.593 39.2703C137.243 39.6846 137.747 40.2468 138.102 40.957C138.469 41.6553 138.652 42.4543 138.652 43.3538C138.652 44.2534 138.469 45.0582 138.102 45.7684C137.747 46.4667 137.243 47.0171 136.593 47.4196C135.942 47.822 135.178 48.0232 134.302 48.0232C133.58 48.0232 132.941 47.8752 132.385 47.5793C131.84 47.2834 131.42 46.8692 131.124 46.3365V51.7161H129.633ZM134.142 46.7271C134.722 46.7271 135.237 46.5851 135.687 46.301C136.137 46.017 136.486 45.6264 136.735 45.1292C136.995 44.6203 137.125 44.0226 137.125 43.3361C137.125 42.6614 136.995 42.0696 136.735 41.5606C136.486 41.0517 136.137 40.6552 135.687 40.3711C135.237 40.087 134.722 39.945 134.142 39.945C133.551 39.945 133.03 40.087 132.58 40.3711C132.13 40.6552 131.781 41.0517 131.533 41.5606C131.284 42.0696 131.16 42.6614 131.16 43.3361C131.16 44.0226 131.284 44.6203 131.533 45.1292C131.781 45.6264 132.13 46.017 132.58 46.301C133.03 46.5851 133.551 46.7271 134.142 46.7271Z" fill="#2B4E63"/>
<path d="M113.82 47.8102V38.862H115.17L115.258 40.1403C115.542 39.6787 115.921 39.3177 116.395 39.0573C116.88 38.785 117.407 38.6489 117.975 38.6489C118.436 38.6489 118.851 38.714 119.218 38.8442C119.596 38.9626 119.928 39.152 120.212 39.4124C120.496 39.6609 120.727 39.9805 120.904 40.3711C121.212 39.8266 121.632 39.4064 122.165 39.1105C122.709 38.8028 123.289 38.6489 123.905 38.6489C124.591 38.6489 125.189 38.791 125.698 39.075C126.219 39.3473 126.615 39.7674 126.887 40.3356C127.172 40.8919 127.314 41.6021 127.314 42.4661V47.8102H125.84V42.6259C125.84 41.7263 125.657 41.0517 125.29 40.6019C124.923 40.1521 124.408 39.9272 123.745 39.9272C123.283 39.9272 122.869 40.0515 122.502 40.3001C122.135 40.5368 121.845 40.886 121.632 41.3476C121.419 41.8092 121.313 42.3773 121.313 43.052V47.8102H119.821V42.6259C119.821 41.7263 119.638 41.0517 119.271 40.6019C118.904 40.1521 118.383 39.9272 117.709 39.9272C117.259 39.9272 116.85 40.0515 116.483 40.3001C116.128 40.5368 115.844 40.886 115.631 41.3476C115.418 41.8092 115.312 42.3773 115.312 43.052V47.8102H113.82Z" fill="#2B4E63"/>
<path d="M107.29 48.0232C106.462 48.0232 105.716 47.8338 105.053 47.4551C104.391 47.0645 103.87 46.52 103.491 45.8217C103.112 45.1115 102.923 44.2889 102.923 43.3538C102.923 42.3951 103.112 41.5666 103.491 40.8682C103.882 40.158 104.408 39.6136 105.071 39.2348C105.746 38.8442 106.497 38.6489 107.326 38.6489C108.178 38.6489 108.93 38.8442 109.581 39.2348C110.244 39.6136 110.764 40.158 111.143 40.8682C111.534 41.5666 111.729 42.3892 111.729 43.3361C111.729 44.283 111.534 45.1115 111.143 45.8217C110.753 46.52 110.226 47.0645 109.563 47.4551C108.9 47.8338 108.143 48.0232 107.29 48.0232ZM107.308 46.7449C107.817 46.7449 108.291 46.6206 108.729 46.3721C109.166 46.1117 109.522 45.727 109.794 45.218C110.066 44.7091 110.202 44.0817 110.202 43.3361C110.202 42.5785 110.066 41.9512 109.794 41.4541C109.533 40.9451 109.184 40.5664 108.746 40.3178C108.32 40.0574 107.847 39.9272 107.326 39.9272C106.829 39.9272 106.355 40.0574 105.906 40.3178C105.468 40.5664 105.113 40.9451 104.84 41.4541C104.58 41.9512 104.45 42.5785 104.45 43.3361C104.45 44.0817 104.58 44.7091 104.84 45.218C105.113 45.727 105.462 46.1117 105.888 46.3721C106.326 46.6206 106.799 46.7449 107.308 46.7449Z" fill="#2B4E63"/>
<path d="M96.0554 48.0231C94.8481 48.0231 93.8006 47.7568 92.9129 47.2241C92.037 46.6797 91.3623 45.9281 90.8889 44.9693C90.4154 43.9988 90.1787 42.8743 90.1787 41.596C90.1787 40.3177 90.4154 39.1992 90.8889 38.2404C91.3623 37.2699 92.037 36.5183 92.9129 35.9856C93.8006 35.4412 94.8481 35.1689 96.0554 35.1689C97.4757 35.1689 98.6298 35.5063 99.5175 36.1809C100.405 36.8556 100.973 37.8084 101.222 39.0394H99.5707C99.3814 38.27 98.9967 37.6545 98.4167 37.1929C97.8367 36.7195 97.0496 36.4828 96.0554 36.4828C95.1677 36.4828 94.3983 36.6899 93.7473 37.1042C93.0963 37.5066 92.5933 38.0925 92.2382 38.8618C91.8831 39.6194 91.7056 40.5307 91.7056 41.596C91.7056 42.6613 91.8831 43.5786 92.2382 44.3479C92.5933 45.1054 93.0963 45.6913 93.7473 46.1056C94.3983 46.508 95.1677 46.7092 96.0554 46.7092C97.0496 46.7092 97.8367 46.4844 98.4167 46.0346C98.9967 45.573 99.3814 44.9634 99.5707 44.2059H101.222C100.973 45.4013 100.405 46.3364 99.5175 47.0111C98.6298 47.6857 97.4757 48.0231 96.0554 48.0231Z" fill="#2B4E63"/>
</svg>