<svg width="120" height="41" viewBox="0 0 120 41" fill="none" xmlns="http://www.w3.org/2000/svg">
  <path
    d="M9.66086 17.1818L3.60355 27.8786L8.26813 36.1736L3.60338 27.8793L0.398054 22.1796C0.390779 22.1666 0.383678 22.1536 0.376577 22.1406C0.367743 22.1245 0.359083 22.1084 0.350596 22.0921C0.350423 22.0918 0.350423 22.0914 0.350076 22.0913C0.335007 22.0621 0.320458 22.0327 0.306255 22.0032C0.306082 22.0029 0.305909 22.0025 0.305736 22.0023C0.261915 21.9108 0.222598 21.8176 0.187784 21.7227C0.178084 21.6956 0.168558 21.6684 0.159551 21.641C0.0545892 21.3263 0.000549316 20.9953 0.000549316 20.661C0.000549316 20.129 0.137381 19.606 0.398054 19.1425L5.5793 9.92955V9.9292C5.63126 10.0509 5.68997 10.1696 5.7551 10.2845L9.66086 17.1807L9.66121 17.1813L9.66086 17.1818Z"
    fill="#42C7BB"
  />
  <path
    d="M14.6961 26.0729L14.6957 26.0736L9.84096 34.7152C9.48208 35.3544 8.93198 35.865 8.26844 36.1747L8.26809 36.174L3.60352 27.879L9.66083 17.1822L9.66117 17.1816L14.6955 26.072L14.6961 26.0729Z"
    fill="#2E8199"
  />
  <path
    d="M27.1718 30.4902V30.4906L22.4153 38.8975C22.1679 39.3347 22.0171 39.8203 21.9732 40.3211H12.4028C12.1978 40.3211 11.9941 40.3007 11.7945 40.2605C11.753 40.2521 11.7116 40.2428 11.6703 40.2327C11.6523 40.2282 11.6343 40.2237 11.6165 40.219C11.5997 40.2145 11.5829 40.21 11.5662 40.2054C11.5328 40.1958 11.4994 40.1858 11.4663 40.1752C11.4499 40.17 11.4332 40.1645 11.4168 40.1589C11.392 40.1506 11.3676 40.1419 11.343 40.1329C11.3307 40.1284 11.3184 40.1237 11.3063 40.1192C11.2666 40.1041 11.2273 40.088 11.1883 40.0714C11.0714 40.0211 10.9573 39.9634 10.8466 39.8988C10.3743 39.6222 9.98385 39.2248 9.71538 38.7472L8.26843 36.1745C8.93198 35.8648 9.48208 35.3543 9.84096 34.715L14.6957 26.0734L14.6961 26.0728L16.1908 28.712C16.4963 29.2519 16.9392 29.7009 17.4743 30.0133C18.0093 30.3256 18.6174 30.4902 19.2364 30.4902H27.1718Z"
    fill="#B2A5D1"
  />
  <path
    d="M19.4674 13.9468H13.5316C12.9124 13.9468 12.3043 14.1114 11.7693 14.4237C11.2343 14.7361 10.7914 15.1852 10.486 15.725L9.66121 17.1813L9.66086 17.1808L5.7551 10.2845C5.68997 10.1696 5.63126 10.0509 5.57947 9.92927L9.71577 2.57444C9.96726 2.12733 10.3258 1.7499 10.7592 1.47626C11.1925 1.2028 11.687 1.04164 12.198 1.00732L19.4674 13.9468V13.9468Z"
    fill="#1E9C96"
  />
  <path
    d="M19.9709 15.7634C19.971 16.367 19.8158 16.9602 19.5205 17.4862L14.6961 26.0726L14.6956 26.0717L9.66119 17.1813L10.486 15.725C10.7914 15.1851 11.2342 14.7361 11.7693 14.4237C12.3043 14.1114 12.9124 13.9468 13.5316 13.9468H19.4673L19.468 13.9482L19.52 14.0409C19.8155 14.5667 19.9707 15.16 19.9709 15.7634V15.7634Z"
    fill="#15657A"
  />
  <path
    d="M39.4196 22.7672L33.5809 22.7677C32.9615 22.7675 32.3532 22.9322 31.8182 23.2444C31.283 23.5569 30.8399 24.0059 30.5344 24.5459L27.1718 30.4901H19.2364C18.6174 30.4901 18.0093 30.3255 17.4742 30.0132C16.9392 29.7007 16.4963 29.2517 16.1908 28.7119L14.696 26.0726L19.5205 17.4862C19.8158 16.9602 19.971 16.367 19.9708 15.7634C19.9706 15.16 19.8155 14.5667 19.52 14.0409L19.468 13.9482L19.4673 13.9468H32.3858C33.005 13.9468 33.6131 14.1114 34.1481 14.4237C34.6833 14.7361 35.126 15.1851 35.4316 15.725L39.4194 22.7668V22.7672H39.4196Z"
    fill="#5081A7"
  />
  <path
    d="M43.3008 20.6605C43.3006 21.1926 43.1638 21.7156 42.9031 22.1791L42.5725 22.7666V22.767L39.4197 22.7673V22.767L35.4316 15.7251C35.1261 15.1853 34.6834 14.7363 34.1482 14.4238C33.6131 14.1115 33.005 13.9469 32.3858 13.9469H19.4673L12.198 1.00745C11.687 1.04176 11.1925 1.20293 10.7591 1.47639C10.3258 1.75002 9.96725 2.12746 9.71576 2.57456L5.57946 9.9294C5.57946 9.9294 5.57928 9.92905 5.57928 9.92888L9.71576 2.57387C9.96725 2.12677 10.3258 1.74933 10.7591 1.4757C10.7853 1.45923 10.8116 1.44312 10.8381 1.42752C10.8515 1.41955 10.8646 1.41192 10.8781 1.4043C10.8915 1.39667 10.9048 1.38905 10.9183 1.38177C10.9318 1.37432 10.9453 1.36704 10.959 1.35976C10.9725 1.35266 10.9862 1.34555 10.9999 1.33845C11.0929 1.29079 11.1882 1.24799 11.2853 1.21021C11.2988 1.20484 11.3124 1.19964 11.326 1.19461C11.3368 1.19045 11.3477 1.18647 11.3584 1.18265C11.3801 1.17486 11.4017 1.16723 11.4236 1.15995C11.4414 1.15406 11.4594 1.14817 11.4774 1.14245C11.5134 1.13101 11.5495 1.12044 11.5858 1.11039C11.6167 1.1019 11.6475 1.09393 11.6785 1.08647C11.7017 1.08076 11.7249 1.07556 11.7483 1.07036C11.7717 1.06533 11.7949 1.06065 11.8185 1.05597C11.9435 1.03189 12.0701 1.01525 12.198 1.00676C12.266 1.00225 12.3344 1 12.4032 1H30.8989C31.1038 1 31.3073 1.02045 31.5066 1.06065C31.5898 1.07729 31.6722 1.09757 31.7536 1.12113H31.754C31.7997 1.13448 31.8452 1.14869 31.8905 1.16411C31.918 1.17347 31.9454 1.18317 31.9725 1.1934C31.9871 1.19894 32.0018 1.20432 32.0162 1.21003C32.0174 1.21038 32.0186 1.2109 32.0198 1.21142C32.0297 1.21523 32.0392 1.21905 32.0489 1.22303C32.1045 1.24539 32.1596 1.2693 32.2138 1.29495C32.2313 1.30327 32.2488 1.31176 32.2661 1.32042C32.2836 1.32909 32.3009 1.33793 32.3183 1.34694C32.3413 1.3589 32.3642 1.3712 32.3869 1.38368C32.3983 1.38991 32.4097 1.39633 32.4211 1.40274C32.4322 1.40932 32.4435 1.41574 32.4546 1.42232C32.9269 1.6989 33.3173 2.09627 33.5858 2.57387L42.9031 19.142C43.1636 19.6055 43.3007 20.1285 43.3007 20.6605H43.3008Z"
    fill="#73C8CC"
  />
  <path
    d="M38.2289 30.4902L33.5858 38.7472C33.3171 39.2248 32.9267 39.6222 32.4544 39.8988C32.4302 39.913 32.4056 39.9269 32.381 39.9406C32.3797 39.9411 32.3785 39.9418 32.3773 39.9425C32.377 39.9428 32.3768 39.9428 32.3765 39.943C32.3761 39.9432 32.3756 39.9433 32.3752 39.9435C32.3494 39.9577 32.3233 39.9716 32.2971 39.9848C32.2945 39.9863 32.2919 39.9877 32.2893 39.9889C32.286 39.9908 32.2828 39.9924 32.2795 39.9939C32.2788 39.9943 32.2779 39.9946 32.2772 39.995C32.2706 39.9984 32.264 40.0017 32.2573 40.0049C32.2554 40.0061 32.2533 40.0071 32.2514 40.0078C32.2455 40.0109 32.2395 40.0139 32.2336 40.0165C32.2327 40.017 32.232 40.0175 32.2311 40.0177C32.2287 40.0187 32.2263 40.0198 32.2239 40.0211C32.2216 40.0224 32.2194 40.0234 32.2171 40.0243C32.1942 40.0352 32.1712 40.0456 32.1482 40.056C32.1319 40.0631 32.1154 40.0702 32.099 40.0773C32.0973 40.078 32.0953 40.0789 32.0936 40.0795C32.0919 40.0802 32.0901 40.0809 32.0886 40.0816C32.077 40.0865 32.0654 40.0913 32.0538 40.096C32.0401 40.1016 32.0262 40.1069 32.0124 40.1125C32.0084 40.1142 32.0046 40.1156 32.0008 40.117C31.9907 40.1206 31.9809 40.1244 31.9708 40.1282C31.958 40.1329 31.9454 40.1376 31.9325 40.1421C31.9228 40.1457 31.913 40.1492 31.9031 40.1525C31.8974 40.1546 31.8917 40.1565 31.8859 40.1584C31.8854 40.1587 31.8849 40.1589 31.8842 40.1591C31.8731 40.1629 31.862 40.1665 31.8508 40.1702C31.8347 40.1754 31.8186 40.1806 31.8023 40.1854C31.7741 40.1943 31.7456 40.2024 31.7172 40.21C31.7058 40.2133 31.6944 40.2164 31.6829 40.2194C31.6696 40.223 31.6563 40.2265 31.6429 40.2298C31.6306 40.2327 31.6183 40.2359 31.606 40.2386C31.5911 40.2423 31.5764 40.2456 31.5615 40.2489C31.5598 40.2492 31.5581 40.2495 31.5565 40.2499C31.5465 40.2521 31.5362 40.2544 31.5262 40.2563C31.5245 40.2568 31.5227 40.2572 31.521 40.2575C31.5203 40.2577 31.5196 40.2579 31.5189 40.2579C31.5175 40.2582 31.5161 40.2586 31.5146 40.2587C31.5099 40.2598 31.5054 40.2608 31.5007 40.2617C31.4862 40.2646 31.4715 40.2674 31.4567 40.27C31.4567 40.2702 31.4564 40.2702 31.4562 40.2702C31.446 40.2721 31.436 40.2738 31.4257 40.2755C31.4172 40.2771 31.4088 40.2785 31.4003 40.2799C31.3731 40.2844 31.3459 40.2885 31.3185 40.2924C31.3144 40.2929 31.31 40.2934 31.3059 40.2941C31.301 40.2948 31.296 40.2953 31.2912 40.2958C31.2867 40.2965 31.2822 40.297 31.2775 40.2977C31.2702 40.2986 31.2628 40.2995 31.2553 40.3003C31.239 40.3022 31.2227 40.304 31.2063 40.3057C31.1749 40.3088 31.1432 40.3116 31.1117 40.3137C31.1044 40.3142 31.0972 40.3147 31.0901 40.3151C31.0689 40.3164 31.0478 40.3175 31.0267 40.3183C31.0265 40.3185 31.0263 40.3185 31.026 40.3183C31.0177 40.3189 31.0092 40.3192 31.0007 40.3194C30.9882 40.3199 30.9756 40.3203 30.9629 40.3204H30.9622C30.9551 40.3206 30.9479 40.3208 30.9409 40.3208C30.9267 40.3209 30.9125 40.3211 30.8983 40.3211H21.9733C22.0171 39.8203 22.1679 39.3347 22.4153 38.8975L27.1717 30.4906V30.4902H38.2289V30.4902Z"
    fill="#8B8AD1"
  />
  <path
    d="M41.001 25.561V25.5613L38.2289 30.49H27.1718L30.5344 24.5458C30.8399 24.0058 31.283 23.5568 31.8182 23.2443C32.3532 22.9321 32.9615 22.7674 33.5809 22.7676L39.4196 22.7671L41.001 25.561V25.561Z"
    fill="#3E6CA7"
  />
  <path d="M42.5723 22.7671L41.001 25.5613L39.4196 22.7674L42.5723 22.7671Z" fill="#5AA8CC" />
  <path
    d="M113.761 29.9753C112.695 29.9753 111.804 29.7831 111.087 29.3986C110.388 29.0141 109.864 28.5161 109.514 27.9044C109.182 27.2927 109.016 26.6199 109.016 25.8859C109.016 24.9772 109.244 24.2082 109.698 23.5791C110.17 22.9499 110.825 22.4781 111.664 22.1635C112.503 21.8489 113.481 21.6917 114.6 21.6917H118.165C118.165 20.8353 118.034 20.1101 117.772 19.5159C117.51 18.9217 117.125 18.4761 116.618 18.179C116.112 17.8644 115.474 17.7071 114.705 17.7071C113.814 17.7071 113.045 17.9343 112.398 18.3887C111.751 18.8431 111.349 19.5072 111.192 20.381H109.278C109.383 19.4547 109.698 18.677 110.222 18.0479C110.764 17.4188 111.428 16.9469 112.214 16.6323C113.001 16.3003 113.831 16.1343 114.705 16.1343C115.928 16.1343 116.924 16.3702 117.693 16.8421C118.462 17.2964 119.039 17.9256 119.423 18.7295C119.808 19.5334 120 20.4596 120 21.5082V29.6607H118.322L118.217 27.249C118.06 27.616 117.842 27.9656 117.562 28.2976C117.3 28.6297 116.985 28.918 116.618 29.1627C116.269 29.4073 115.858 29.5996 115.386 29.7394C114.915 29.8967 114.373 29.9753 113.761 29.9753ZM113.971 28.3762C114.617 28.3762 115.194 28.2452 115.701 27.983C116.225 27.7034 116.671 27.3452 117.038 26.9083C117.405 26.4714 117.684 25.982 117.877 25.4403C118.069 24.881 118.165 24.3043 118.165 23.7101V23.2383H114.731C113.805 23.2383 113.062 23.3519 112.503 23.5791C111.944 23.8063 111.542 24.1121 111.297 24.4966C111.052 24.881 110.93 25.3267 110.93 25.8335C110.93 26.3403 111.044 26.7859 111.271 27.1704C111.498 27.5374 111.839 27.8345 112.293 28.0617C112.765 28.2714 113.324 28.3762 113.971 28.3762Z"
    fill="white"
  />
  <path
    d="M100.069 29.6607V16.4488H101.746L101.877 18.9916C102.157 18.3799 102.533 17.8644 103.005 17.445C103.477 17.0256 104.045 16.7022 104.709 16.4751C105.373 16.2479 106.124 16.1343 106.963 16.1343V18.0479H106.255C105.696 18.0479 105.154 18.1265 104.63 18.2838C104.106 18.4236 103.643 18.6683 103.241 19.0178C102.839 19.3673 102.515 19.8392 102.271 20.4334C102.026 21.0276 101.904 21.7703 101.904 22.6616V29.6607H100.069Z"
    fill="white"
  />
  <path
    d="M90.426 29.9753C89.2202 29.9753 88.1279 29.6957 87.1493 29.1365C86.1881 28.5597 85.4279 27.7558 84.8686 26.7248C84.3094 25.6762 84.0298 24.4616 84.0298 23.081C84.0298 21.648 84.3094 20.4159 84.8686 19.3848C85.4453 18.3537 86.223 17.5586 87.2017 16.9993C88.1803 16.4226 89.2726 16.1343 90.4784 16.1343C91.7367 16.1343 92.8464 16.4226 93.8076 16.9993C94.7688 17.5586 95.529 18.3537 96.0883 19.3848C96.6475 20.4159 96.9271 21.648 96.9271 23.081C96.9271 24.4616 96.6387 25.6762 96.062 26.7248C95.5028 27.7558 94.7339 28.5597 93.7552 29.1365C92.794 29.6957 91.6843 29.9753 90.426 29.9753ZM90.4522 28.4025C91.2736 28.4025 92.0251 28.2015 92.7066 27.7995C93.4057 27.3976 93.9649 26.8034 94.3843 26.017C94.8212 25.2131 95.0397 24.2257 95.0397 23.0548C95.0397 21.8664 94.83 20.879 94.4106 20.0926C93.9911 19.3062 93.4319 18.7207 92.7329 18.3363C92.0513 17.9343 91.2998 17.7333 90.4784 17.7333C89.692 17.7333 88.9493 17.9343 88.2502 18.3363C87.5512 18.7382 86.9832 19.3324 86.5463 20.1188C86.1269 20.8878 85.9172 21.8664 85.9172 23.0548C85.9172 24.2257 86.1269 25.2131 86.5463 26.017C86.9658 26.8034 87.5163 27.3976 88.1978 27.7995C88.8969 28.2015 89.6483 28.4025 90.4522 28.4025Z"
    fill="white"
  />
  <path
    d="M75.7664 35.7424C74.5956 35.7424 73.5557 35.5851 72.647 35.2705C71.7557 34.956 71.0479 34.4841 70.5236 33.855C70.0168 33.2259 69.7634 32.4482 69.7634 31.5219C69.7634 31.1549 69.8246 30.753 69.9469 30.3161C70.0867 29.8967 70.3489 29.4685 70.7333 29.0316C71.1178 28.5947 71.6596 28.2015 72.3586 27.852L73.8528 28.5073C72.9266 28.9442 72.3237 29.4161 72.0441 29.9229C71.7644 30.4472 71.6246 30.919 71.6246 31.3384C71.6246 31.9676 71.7994 32.4919 72.1489 32.9113C72.5159 33.3307 73.0052 33.6453 73.6169 33.855C74.246 34.0822 74.9625 34.1958 75.7664 34.1958C76.5703 34.1958 77.2606 34.0734 77.8374 33.8288C78.4315 33.6016 78.8859 33.2695 79.2005 32.8326C79.5151 32.4132 79.6723 31.9239 79.6723 31.3647C79.6723 30.718 79.4189 30.1675 78.9121 29.7132C78.4228 29.2763 77.5053 29.0229 76.1597 28.953C75.0936 28.8831 74.2111 28.7957 73.512 28.6908C72.8305 28.5685 72.2625 28.4287 71.8081 28.2714C71.3712 28.0966 71.0042 27.9131 70.7071 27.7209C70.4275 27.5287 70.1566 27.3189 69.8945 27.0918V26.4888L72.411 24.1034L74.0887 24.7063L71.6246 26.9083L71.7819 26.2005C71.9741 26.3403 72.1576 26.4714 72.3324 26.5937C72.5246 26.716 72.7693 26.8209 73.0664 26.9083C73.381 26.9782 73.8091 27.0568 74.3509 27.1442C74.9101 27.2141 75.6616 27.284 76.6053 27.3539C77.8111 27.4413 78.7723 27.651 79.4888 27.983C80.2054 28.3151 80.7296 28.7607 81.0617 29.32C81.3937 29.8792 81.5598 30.5345 81.5598 31.286C81.5598 32.0375 81.35 32.754 80.9306 33.4356C80.5287 34.1171 79.8995 34.6676 79.0432 35.087C78.2044 35.524 77.1121 35.7424 75.7664 35.7424ZM75.7402 25.4665C74.6218 25.4665 73.6781 25.2568 72.9091 24.8373C72.1576 24.4179 71.5809 23.8587 71.179 23.1596C70.777 22.4431 70.5761 21.6567 70.5761 20.8004C70.5761 19.9266 70.777 19.1402 71.179 18.4411C71.5809 17.7421 72.1664 17.1828 72.9353 16.7634C73.7043 16.344 74.6392 16.1343 75.7402 16.1343C76.8587 16.1343 77.7937 16.344 78.5451 16.7634C79.3141 17.1828 79.8908 17.7421 80.2753 18.4411C80.6772 19.1402 80.8782 19.9266 80.8782 20.8004C80.8782 21.6567 80.6772 22.4431 80.2753 23.1596C79.8908 23.8587 79.3141 24.4179 78.5451 24.8373C77.7937 25.2568 76.8587 25.4665 75.7402 25.4665ZM75.7402 23.8936C76.7538 23.8936 77.549 23.6315 78.1257 23.1072C78.7199 22.5655 79.017 21.7965 79.017 20.8004C79.017 19.7868 78.7199 19.0178 78.1257 18.4935C77.549 17.9693 76.7538 17.7071 75.7402 17.7071C74.7266 17.7071 73.914 17.9693 73.3023 18.4935C72.7081 19.0178 72.411 19.7868 72.411 20.8004C72.411 21.7965 72.7081 22.5655 73.3023 23.1072C73.8965 23.6315 74.7091 23.8936 75.7402 23.8936ZM77.8898 18.1003L77.2344 16.4488H82.5821V17.943L77.8898 18.1003Z"
    fill="white"
  />
  <path
    d="M52.5068 29.6609L59.27 11.311H61.1574L67.9206 29.6609H65.9808L60.2137 13.7227L54.4204 29.6609H52.5068ZM55.6 24.7064L56.1505 23.186H64.2507L64.8012 24.7064H55.6Z"
    fill="white"
  />
</svg>
