<svg width="169" height="56" viewBox="0 0 169 56" fill="none" xmlns="http://www.w3.org/2000/svg">
  <path
    d="M13.6057 22.7693L5.07496 37.8205L11.6442 49.492L5.07472 37.8215L0.560551 29.8016C0.550306 29.7833 0.540305 29.765 0.530304 29.7468C0.517864 29.7241 0.505667 29.7014 0.493715 29.6785C0.493471 29.678 0.493471 29.6775 0.492983 29.6773C0.471761 29.6363 0.451271 29.5948 0.431269 29.5534C0.431025 29.5529 0.430781 29.5524 0.430537 29.5522C0.368823 29.4234 0.31345 29.2922 0.264421 29.1586C0.250761 29.1206 0.237344 29.0823 0.22466 29.0438C0.0768385 28.601 0.000732422 28.1352 0.000732422 27.6649C0.000732422 26.9163 0.193437 26.1804 0.560551 25.5281L7.85747 12.5649V12.5645C7.93065 12.7356 8.01334 12.9027 8.10506 13.0643L13.6057 22.7679L13.6062 22.7686L13.6057 22.7693Z"
    fill="#42C7BB"
  />
  <path
    d="M20.6969 35.2792L20.6965 35.2801L13.8594 47.4394C13.3539 48.3389 12.5792 49.0572 11.6447 49.493L11.6442 49.492L5.07495 37.8204L13.6057 22.7693L13.6062 22.7686L20.6962 35.2779L20.6969 35.2792Z"
    fill="#2E8199"
  />
  <path
    d="M38.267 41.4945V41.495L31.5682 53.3241C31.2198 53.9393 31.0074 54.6225 30.9457 55.3272H17.4673C17.1785 55.3272 16.8916 55.2984 16.6106 55.2418C16.5521 55.2301 16.4938 55.217 16.4357 55.2028C16.4104 55.1965 16.385 55.1901 16.3599 55.1836C16.3362 55.1772 16.3126 55.1709 16.2891 55.1643C16.2421 55.1509 16.195 55.1368 16.1484 55.1219C16.1252 55.1146 16.1018 55.1068 16.0786 55.099C16.0437 55.0872 16.0094 55.0751 15.9747 55.0624C15.9574 55.056 15.9401 55.0495 15.923 55.0431C15.8671 55.0219 15.8118 54.9992 15.7569 54.9758C15.5922 54.9051 15.4315 54.8239 15.2756 54.7329C14.6104 54.3438 14.0606 53.7847 13.6825 53.1126L11.6447 49.4926C12.5792 49.0569 13.3539 48.3385 13.8594 47.439L20.6965 35.2798L20.6969 35.2788L22.8021 38.9925C23.2324 39.752 23.8561 40.3838 24.6096 40.8234C25.3631 41.2628 26.2195 41.4945 27.0913 41.4945H38.267Z"
    fill="#B2A5D1"
  />
  <path
    d="M27.4165 18.2169H19.057C18.185 18.2169 17.3285 18.4486 16.575 18.888C15.8215 19.3276 15.1978 19.9594 14.7678 20.7189L13.6062 22.7682L13.6057 22.7674L8.10507 13.0639C8.01335 12.9022 7.93066 12.7352 7.85773 12.564L13.683 2.21528C14.0372 1.58618 14.5421 1.0551 15.1524 0.67008C15.7628 0.285303 16.4592 0.0585339 17.1788 0.0102539L27.4165 18.2169V18.2169Z"
    fill="#1E9C96"
  />
  <path
    d="M28.1256 20.7734C28.1258 21.6227 27.9073 22.4574 27.4914 23.1974L20.6969 35.2791L20.6962 35.2779L13.6061 22.7685L14.7677 20.7193C15.1978 19.9598 15.8215 19.328 16.575 18.8883C17.3285 18.4489 18.1849 18.2173 19.057 18.2173H27.4165L27.4174 18.2192L27.4906 18.3497C27.9068 19.0895 28.1253 19.9244 28.1256 20.7734V20.7734Z"
    fill="#15657A"
  />
  <path
    d="M55.516 30.6282L47.2931 30.6289C46.4208 30.6287 45.5641 30.8603 44.8106 31.2997C44.0569 31.7393 43.4329 32.3711 43.0026 33.1309L38.267 41.4948H27.0913C26.2195 41.4948 25.3631 41.2632 24.6096 40.8238C23.8561 40.3841 23.2324 39.7523 22.8021 38.9928L20.697 35.2791L27.4914 23.1974C27.9073 22.4574 28.1258 21.6227 28.1256 20.7734C28.1254 19.9244 27.9068 19.0895 27.4906 18.3497L27.4175 18.2192L27.4165 18.2173H45.61C46.482 18.2173 47.3385 18.4489 48.092 18.8883C48.8457 19.328 49.4692 19.9598 49.8995 20.7193L55.5157 30.6277V30.6282H55.516Z"
    fill="#5081A7"
  />
  <path
    d="M60.982 27.6637C60.9817 28.4123 60.789 29.1482 60.4219 29.8004L59.9563 30.6271V30.6275L55.516 30.628V30.6275L49.8995 20.7192C49.4692 19.9596 48.8457 19.3278 48.092 18.8882C47.3385 18.4488 46.4821 18.2172 45.61 18.2172H27.4165L17.1788 0.010485C16.4592 0.058765 15.7628 0.285535 15.1524 0.670311C14.5421 1.05533 14.0372 1.58641 13.683 2.21551L7.85773 12.5643C7.85773 12.5643 7.85748 12.5638 7.85748 12.5635L13.683 2.21454C14.0372 1.58544 14.5421 1.05436 15.1524 0.669336C15.1893 0.646171 15.2264 0.623494 15.2637 0.601549C15.2825 0.590332 15.301 0.579603 15.32 0.568875C15.3388 0.558146 15.3576 0.547417 15.3766 0.537176C15.3956 0.526691 15.4147 0.516449 15.4339 0.506208C15.453 0.496211 15.4722 0.486213 15.4915 0.476216C15.6225 0.409161 15.7567 0.348932 15.8935 0.295776C15.9125 0.288217 15.9316 0.280902 15.9508 0.27383C15.966 0.267978 15.9813 0.26237 15.9964 0.257005C16.0269 0.246033 16.0574 0.235304 16.0882 0.225063C16.1133 0.216772 16.1387 0.208482 16.164 0.200435C16.2148 0.184342 16.2655 0.169468 16.3167 0.155325C16.3601 0.143377 16.4036 0.13216 16.4472 0.121675C16.4799 0.113629 16.5126 0.106313 16.5455 0.0989983C16.5785 0.091927 16.6111 0.0853434 16.6443 0.0787597C16.8204 0.0448662 16.9988 0.0214578 17.1788 0.00950969C17.2746 0.0031699 17.371 0 17.4678 0H43.5159C43.8044 0 44.0911 0.0287729 44.3718 0.0853434C44.4889 0.108752 44.605 0.137281 44.7197 0.170443H44.7202C44.7846 0.189218 44.8487 0.209213 44.9124 0.230915C44.9512 0.244082 44.9897 0.257737 45.028 0.272123C45.0485 0.279926 45.0692 0.287485 45.0895 0.295532C45.0912 0.29602 45.0929 0.296751 45.0946 0.297483C45.1085 0.302847 45.1219 0.308211 45.1356 0.31382C45.2139 0.345275 45.2914 0.378925 45.3678 0.415013C45.3924 0.426717 45.4171 0.438665 45.4415 0.450857C45.4661 0.463049 45.4905 0.475485 45.5149 0.488164C45.5473 0.504989 45.5795 0.522301 45.6115 0.539858C45.6276 0.548636 45.6437 0.557658 45.6598 0.56668C45.6754 0.575946 45.6912 0.584968 45.7069 0.594234C46.372 0.9834 46.9219 1.54252 47.3 2.21454L60.4219 25.5269C60.7888 26.1792 60.9817 26.9151 60.9817 27.6637H60.982Z"
    fill="#73C8CC"
  />
  <path
    d="M53.839 41.4946L47.3 53.1128C46.9216 53.7848 46.3718 54.3439 45.7066 54.7331C45.6725 54.7531 45.6378 54.7726 45.6032 54.7919C45.6015 54.7926 45.5998 54.7936 45.5981 54.7945C45.5976 54.795 45.5973 54.795 45.5968 54.7953C45.5963 54.7955 45.5956 54.7958 45.5951 54.796C45.5588 54.816 45.522 54.8355 45.4851 54.854C45.4815 54.8562 45.4778 54.8582 45.4741 54.8599C45.4695 54.8626 45.4649 54.8648 45.4602 54.867C45.4593 54.8674 45.458 54.8679 45.4571 54.8684C45.4478 54.8733 45.4385 54.8779 45.429 54.8823C45.4263 54.884 45.4234 54.8855 45.4207 54.8865C45.4124 54.8909 45.4039 54.895 45.3956 54.8987C45.3944 54.8994 45.3934 54.9001 45.3922 54.9004C45.3888 54.9018 45.3853 54.9033 45.3819 54.9052C45.3788 54.907 45.3756 54.9084 45.3724 54.9096C45.3402 54.925 45.3078 54.9396 45.2753 54.9543C45.2524 54.9643 45.2292 54.9743 45.2061 54.9842C45.2036 54.9852 45.2009 54.9864 45.1985 54.9874C45.1961 54.9884 45.1936 54.9894 45.1914 54.9903C45.1751 54.9972 45.1587 55.004 45.1424 55.0106C45.1231 55.0184 45.1036 55.0259 45.0841 55.0337C45.0785 55.0362 45.0731 55.0381 45.0678 55.0401C45.0536 55.0452 45.0397 55.0506 45.0256 55.0559C45.0075 55.0625 44.9897 55.0691 44.9716 55.0754C44.958 55.0806 44.9441 55.0854 44.9302 55.0901C44.9221 55.093 44.9141 55.0957 44.906 55.0984C44.9053 55.0989 44.9046 55.0991 44.9036 55.0993C44.888 55.1047 44.8724 55.1098 44.8565 55.1149C44.8338 55.1223 44.8111 55.1296 44.7882 55.1364C44.7484 55.1488 44.7084 55.1603 44.6684 55.171C44.6523 55.1757 44.6362 55.1801 44.6201 55.1842C44.6014 55.1893 44.5826 55.1942 44.5638 55.1988C44.5465 55.203 44.5292 55.2074 44.5118 55.2113C44.4909 55.2164 44.4701 55.221 44.4491 55.2257C44.4467 55.2261 44.4443 55.2266 44.4421 55.2271C44.4279 55.2303 44.4135 55.2335 44.3994 55.2361C44.3969 55.2369 44.3945 55.2374 44.3921 55.2378C44.3911 55.2381 44.3901 55.2383 44.3891 55.2383C44.3872 55.2388 44.3852 55.2393 44.383 55.2395C44.3765 55.241 44.3701 55.2425 44.3635 55.2437C44.343 55.2478 44.3223 55.2517 44.3016 55.2554C44.3016 55.2556 44.3011 55.2556 44.3008 55.2556C44.2864 55.2583 44.2723 55.2608 44.2579 55.2632C44.246 55.2654 44.234 55.2673 44.222 55.2693C44.1838 55.2756 44.1455 55.2815 44.1069 55.2869C44.1011 55.2876 44.095 55.2883 44.0891 55.2893C44.0823 55.2903 44.0752 55.291 44.0684 55.2917C44.062 55.2927 44.0557 55.2934 44.0491 55.2944C44.0389 55.2956 44.0284 55.2969 44.0179 55.2981C43.9949 55.3008 43.972 55.3032 43.9488 55.3056C43.9047 55.31 43.8601 55.3139 43.8157 55.3168C43.8054 55.3176 43.7952 55.3183 43.7852 55.3188C43.7554 55.3207 43.7256 55.3222 43.6959 55.3234C43.6956 55.3237 43.6954 55.3237 43.6949 55.3234C43.6832 55.3242 43.6713 55.3246 43.6593 55.3249C43.6417 55.3256 43.6239 55.3261 43.6061 55.3264H43.6051C43.5951 55.3266 43.5849 55.3268 43.5751 55.3268C43.5551 55.3271 43.5351 55.3273 43.5151 55.3273H30.9457C31.0074 54.6226 31.2199 53.9394 31.5682 53.3242L38.2667 41.4951V41.4946H53.839V41.4946Z"
    fill="#8B8AD1"
  />
  <path
    d="M57.7431 34.5591V34.5596L53.839 41.4946H38.267L43.0026 33.1307C43.4329 32.3709 44.0569 31.7391 44.8106 31.2995C45.5641 30.8601 46.4208 30.6284 47.2931 30.6287L55.516 30.6279L57.7431 34.5591V34.5591Z"
    fill="#3E6CA7"
  />
  <path d="M59.956 30.6274L57.7431 34.5591L55.516 30.6279L59.956 30.6274Z" fill="#5AA8CC" />
  <path
    d="M160.213 40.7702C158.712 40.7702 157.457 40.4997 156.448 39.9587C155.463 39.4177 154.725 38.7169 154.233 37.8563C153.765 36.9956 153.531 36.0489 153.531 35.0161C153.531 33.7374 153.851 32.6555 154.491 31.7702C155.156 30.885 156.079 30.2211 157.26 29.7785C158.441 29.3358 159.82 29.1145 161.395 29.1145H166.416C166.416 27.9096 166.231 26.8891 165.862 26.0531C165.493 25.217 164.951 24.59 164.238 24.1719C163.524 23.7293 162.625 23.508 161.542 23.508C160.287 23.508 159.204 23.8277 158.294 24.467C157.383 25.1064 156.817 26.0408 156.595 27.2703H153.9C154.048 25.967 154.491 24.8728 155.229 23.9875C155.992 23.1023 156.928 22.4384 158.035 21.9957C159.143 21.5285 160.312 21.2949 161.542 21.2949C163.265 21.2949 164.668 21.6269 165.751 22.2908C166.834 22.9302 167.646 23.8154 168.188 24.9465C168.729 26.0777 169 27.3809 169 28.8563V40.3275H166.637L166.49 36.9341C166.268 37.4505 165.96 37.9423 165.567 38.4095C165.197 38.8767 164.754 39.2825 164.238 39.6267C163.745 39.971 163.167 40.2415 162.502 40.4382C161.838 40.6595 161.075 40.7702 160.213 40.7702ZM160.509 38.5202C161.419 38.5202 162.232 38.3358 162.945 37.9669C163.684 37.5735 164.311 37.0694 164.828 36.4546C165.345 35.8399 165.739 35.1514 166.01 34.3891C166.28 33.6022 166.416 32.7907 166.416 31.9547V31.2907H161.579C160.275 31.2907 159.229 31.4506 158.441 31.7702C157.654 32.0899 157.088 32.5202 156.743 33.0612C156.399 33.6022 156.226 34.2292 156.226 34.9423C156.226 35.6555 156.386 36.2825 156.706 36.8235C157.026 37.3399 157.506 37.7579 158.146 38.0776C158.811 38.3726 159.598 38.5202 160.509 38.5202Z"
    fill="#3C4A63"
  />
  <path
    d="M140.93 40.3275V21.7375H143.293L143.477 25.3154C143.871 24.4547 144.4 23.7293 145.065 23.1392C145.729 22.549 146.529 22.0941 147.465 21.7744C148.4 21.4548 149.458 21.2949 150.64 21.2949V23.9875H149.643C148.855 23.9875 148.092 24.0982 147.354 24.3195C146.615 24.5162 145.963 24.8605 145.397 25.3523C144.831 25.8441 144.376 26.508 144.031 27.3441C143.687 28.1801 143.514 29.2252 143.514 30.4793V40.3275H140.93Z"
    fill="#3C4A63"
  />
  <path
    d="M127.35 40.7702C125.652 40.7702 124.113 40.3767 122.735 39.5898C121.382 38.7784 120.311 37.6472 119.523 36.1964C118.736 34.721 118.342 33.012 118.342 31.0694C118.342 29.0531 118.736 27.3195 119.523 25.8687C120.335 24.4178 121.431 23.299 122.809 22.5121C124.187 21.7007 125.726 21.2949 127.424 21.2949C129.196 21.2949 130.759 21.7007 132.112 22.5121C133.466 23.299 134.537 24.4178 135.324 25.8687C136.112 27.3195 136.506 29.0531 136.506 31.0694C136.506 33.012 136.1 34.721 135.287 36.1964C134.5 37.6472 133.417 38.7784 132.039 39.5898C130.685 40.3767 129.122 40.7702 127.35 40.7702ZM127.387 38.5571C128.544 38.5571 129.602 38.2743 130.562 37.7087C131.546 37.1431 132.334 36.3071 132.925 35.2005C133.54 34.0694 133.848 32.6801 133.848 31.0325C133.848 29.3604 133.552 27.9711 132.962 26.8645C132.371 25.758 131.583 24.9342 130.599 24.3933C129.639 23.8277 128.581 23.5449 127.424 23.5449C126.316 23.5449 125.27 23.8277 124.286 24.3933C123.301 24.9588 122.501 25.7949 121.886 26.9014C121.295 27.9834 121 29.3604 121 31.0325C121 32.6801 121.295 34.0694 121.886 35.2005C122.477 36.3071 123.252 37.1431 124.212 37.7087C125.196 38.2743 126.255 38.5571 127.387 38.5571Z"
    fill="#3C4A63"
  />
  <path
    d="M106.704 48.8848C105.055 48.8848 103.591 48.6635 102.311 48.2209C101.056 47.7783 100.059 47.1144 99.3207 46.2291C98.607 45.3439 98.2501 44.2496 98.2501 42.9464C98.2501 42.43 98.3363 41.8644 98.5085 41.2497C98.7054 40.6595 99.0746 40.0571 99.6161 39.4423C100.158 38.8276 100.921 38.2743 101.905 37.7825L104.009 38.7046C102.705 39.3194 101.856 39.9833 101.462 40.6964C101.068 41.4341 100.871 42.098 100.871 42.6882C100.871 43.5734 101.117 44.3111 101.61 44.9013C102.127 45.4914 102.816 45.9341 103.677 46.2291C104.563 46.5488 105.572 46.7086 106.704 46.7086C107.837 46.7086 108.809 46.5365 109.621 46.1922C110.458 45.8726 111.098 45.4054 111.541 44.7906C111.984 44.2005 112.205 43.5119 112.205 42.7251C112.205 41.8152 111.848 41.0407 111.135 40.4013C110.445 39.7866 109.153 39.43 107.258 39.3316C105.757 39.2333 104.514 39.1103 103.529 38.9628C102.57 38.7907 101.77 38.594 101.13 38.3726C100.514 38.1267 99.9976 37.8685 99.5792 37.5981C99.1854 37.3276 98.8039 37.0325 98.4347 36.7128V35.8645L101.979 32.5079L104.342 33.3563L100.871 36.4546L101.093 35.4587C101.364 35.6555 101.622 35.8399 101.868 36.012C102.139 36.1841 102.483 36.3317 102.902 36.4546C103.345 36.553 103.948 36.6636 104.711 36.7866C105.498 36.8849 106.557 36.9833 107.886 37.0817C109.584 37.2046 110.938 37.4997 111.947 37.9669C112.956 38.4341 113.694 39.0612 114.162 39.848C114.629 40.6349 114.863 41.557 114.863 42.6144C114.863 43.6718 114.568 44.68 113.977 45.639C113.411 46.598 112.525 47.3726 111.319 47.9627C110.138 48.5775 108.6 48.8848 106.704 48.8848ZM106.667 34.426C105.092 34.426 103.763 34.1309 102.68 33.5407C101.622 32.9506 100.81 32.1637 100.244 31.1801C99.6776 30.1719 99.3946 29.0653 99.3946 27.8604C99.3946 26.6309 99.6776 25.5244 100.244 24.5408C100.81 23.5572 101.634 22.7703 102.717 22.1802C103.8 21.59 105.117 21.2949 106.667 21.2949C108.243 21.2949 109.559 21.59 110.618 22.1802C111.701 22.7703 112.513 23.5572 113.054 24.5408C113.62 25.5244 113.903 26.6309 113.903 27.8604C113.903 29.0653 113.62 30.1719 113.054 31.1801C112.513 32.1637 111.701 32.9506 110.618 33.5407C109.559 34.1309 108.243 34.426 106.667 34.426ZM106.667 32.2129C108.095 32.2129 109.215 31.844 110.027 31.1063C110.864 30.344 111.282 29.2621 111.282 27.8604C111.282 26.4342 110.864 25.3523 110.027 24.6146C109.215 23.8769 108.095 23.508 106.667 23.508C105.24 23.508 104.095 23.8769 103.234 24.6146C102.397 25.3523 101.979 26.4342 101.979 27.8604C101.979 29.2621 102.397 30.344 103.234 31.1063C104.071 31.844 105.215 32.2129 106.667 32.2129ZM109.695 24.0613L108.772 21.7375H116.303V23.84L109.695 24.0613Z"
    fill="#3C4A63"
  />
  <path
    d="M73.947 40.3277L83.4719 14.5083H86.13L95.6549 40.3277H92.9229L84.801 17.9017L76.642 40.3277H73.947ZM78.3034 33.3565L79.0786 31.2172H90.4864L91.2616 33.3565H78.3034Z"
    fill="#3C4A63"
  />
</svg>
