<svg width="5000" height="1000" viewBox="0 0 5000 1000" fill="none" xmlns="http://www.w3.org/2000/svg">
<g clip-path="url(#clip0_955_74071)">
<rect width="5000" height="1000" fill="#42C7BB"/>
<g clip-path="url(#clip1_955_74071)">
<path d="M1052.93 472.981L863.56 -210.965L334.52 -359.144L863.539 -211.001L1227.06 -109.19C1227.89 -108.956 1228.71 -108.716 1229.53 -108.475C1230.55 -108.178 1231.56 -107.874 1232.57 -107.555C1232.6 -107.548 1232.61 -107.534 1232.63 -107.541C1234.43 -106.968 1236.23 -106.359 1238.01 -105.736C1238.03 -105.729 1238.06 -105.722 1238.07 -105.722C1243.59 -103.776 1249.01 -101.575 1254.3 -99.1198C1255.8 -98.4123 1257.3 -97.6905 1258.79 -96.9405C1275.92 -88.3789 1291.64 -77.0736 1305.28 -63.4276C1327 -41.71 1342.76 -14.7742 1351.05 14.7911L1515.6 602.397L1515.62 602.411C1508.53 599.566 1501.29 597.117 1493.94 595.086L1052.97 473.024L1052.94 473.017L1052.93 472.981Z" fill="#42C7BB"/>
<path d="M484.434 315.614L484.42 315.571L329.857 -235.382C318.411 -276.129 320.029 -319.427 334.477 -359.158L334.519 -359.144L863.56 -210.965L1052.93 472.982L1052.93 473.017L484.49 315.628L484.434 315.614Z" fill="#2E8199"/>
<path d="M-205.214 644.609L-205.228 644.595L-354.222 107.23C-361.973 79.2842 -375.635 53.3037 -394.291 31.0705L-3.57886 -359.641C4.79328 -368.013 13.9436 -375.494 23.7307 -381.999C25.7673 -383.356 27.8394 -384.664 29.9326 -385.937C30.8519 -386.488 31.7712 -387.04 32.6906 -387.577C33.5604 -388.079 34.43 -388.581 35.2999 -389.069C37.0536 -390.045 38.8287 -390.999 40.6108 -391.918C41.4947 -392.378 42.4001 -392.83 43.2982 -393.275C44.6489 -393.947 45.9996 -394.59 47.3716 -395.227C48.0575 -395.545 48.7504 -395.856 49.4293 -396.167C51.6641 -397.171 53.9271 -398.118 56.1972 -399.03C63.0217 -401.751 70.0374 -404.055 77.1944 -405.935C107.768 -413.928 139.927 -413.645 170.383 -405.109L334.477 -359.158C320.029 -319.427 318.412 -276.129 329.857 -235.382L484.42 315.571L484.434 315.614L315.672 268.898C281.163 259.336 244.753 259.087 210.156 268.175C175.566 277.27 144.019 295.376 118.747 320.648L-205.214 644.609Z" fill="#B2A5D1"/>
<path d="M784.639 1005.39L1026.96 763.065C1052.24 737.786 1070.35 706.239 1079.44 671.649C1088.53 637.052 1088.28 600.642 1078.71 566.14L1052.94 473.017L1052.97 473.024L1493.94 595.086C1501.29 597.117 1508.53 599.566 1515.61 602.418L1646.98 1071.51C1654.96 1100.03 1655.73 1130.08 1649.21 1158.94C1642.68 1187.79 1629.07 1214.56 1609.61 1236.82L784.639 1005.39V1005.39Z" fill="#1E9C96"/>
<path d="M689.925 951.789C665.279 927.157 647.4 896.606 637.986 863.08L484.435 315.614L484.492 315.628L1052.94 473.017L1078.71 566.14C1088.28 600.643 1088.53 637.052 1079.44 671.65C1070.35 706.24 1052.24 737.787 1026.96 763.066L784.639 1005.39L784.554 1005.36L778.648 1003.7C745.122 994.3 714.565 976.414 689.925 951.789V951.789Z" fill="#15657A"/>
<path d="M-389.971 1459.88L-151.627 1221.5C-126.334 1196.22 -108.22 1164.66 -99.1254 1130.07C-90.0305 1095.47 -90.2717 1059.05 -99.8413 1024.54L-205.213 644.61L118.748 320.649C144.02 295.377 175.567 277.271 210.157 268.176C244.754 259.088 281.164 259.336 315.673 268.899L484.435 315.614L637.986 863.08C647.4 896.606 665.279 927.157 689.925 951.789C714.565 976.414 745.122 994.3 778.648 1003.7L784.554 1005.36L784.639 1005.39L257.243 1532.79C231.964 1558.07 200.417 1576.17 165.827 1585.27C131.223 1594.36 94.8204 1594.11 60.3111 1584.54L-389.95 1459.89L-389.964 1459.88L-389.971 1459.88Z" fill="#5081A7"/>
<path d="M-462.421 1704.33C-484.131 1682.61 -499.895 1655.67 -508.176 1626.11L-518.659 1588.63L-518.673 1588.61L-389.972 1459.88L-389.958 1459.9L60.31 1584.54C94.8193 1594.11 131.222 1594.36 165.826 1585.27C200.416 1576.17 231.963 1558.07 257.242 1532.79L784.638 1005.39L1609.61 1236.82C1629.07 1214.56 1642.68 1187.79 1649.21 1158.94C1655.73 1130.08 1654.96 1100.03 1646.98 1071.52L1515.61 602.418C1515.61 602.418 1515.63 602.425 1515.64 602.432L1647.01 1071.54C1654.99 1100.06 1655.76 1130.11 1649.24 1158.97C1648.84 1160.71 1648.43 1162.44 1647.98 1164.16C1647.76 1165.03 1647.54 1165.88 1647.3 1166.74C1647.06 1167.6 1646.83 1168.45 1646.58 1169.3C1646.33 1170.16 1646.07 1171.01 1645.81 1171.86C1645.55 1172.7 1645.28 1173.55 1645.01 1174.4C1643.16 1180.14 1641.02 1185.78 1638.59 1191.29C1638.26 1192.06 1637.92 1192.82 1637.57 1193.59C1637.3 1194.19 1637.02 1194.8 1636.74 1195.4C1636.17 1196.6 1635.6 1197.79 1635 1198.98C1634.52 1199.95 1634.02 1200.93 1633.52 1201.9C1632.52 1203.83 1631.48 1205.74 1630.4 1207.63C1629.49 1209.24 1628.56 1210.82 1627.59 1212.39C1626.88 1213.57 1626.15 1214.73 1625.4 1215.9C1624.65 1217.06 1623.9 1218.2 1623.13 1219.35C1619 1225.44 1614.51 1231.29 1609.64 1236.85C1607.05 1239.81 1604.35 1242.7 1601.54 1245.51L846.455 2000.59C838.09 2008.95 828.947 2016.43 819.167 2022.93C815.094 2025.64 810.9 2028.18 806.615 2030.54L806.6 2030.55C804.189 2031.88 801.749 2033.16 799.274 2034.37C797.768 2035.11 796.254 2035.84 794.727 2036.53C793.907 2036.9 793.086 2037.28 792.266 2037.63C792.202 2037.67 792.131 2037.69 792.061 2037.72C791.502 2037.97 790.958 2038.2 790.399 2038.44C787.216 2039.79 783.992 2041.07 780.731 2042.23C779.678 2042.61 778.617 2042.97 777.556 2043.33C776.488 2043.69 775.42 2044.04 774.345 2044.37C772.917 2044.83 771.481 2045.26 770.045 2045.67C769.324 2045.89 768.596 2046.09 767.867 2046.3C767.146 2046.48 766.424 2046.68 765.703 2046.86C735.13 2054.85 702.971 2054.57 672.514 2046.04L-384.195 1750.09C-413.753 1741.8 -440.696 1726.04 -462.414 1704.33L-462.421 1704.33Z" fill="#73C8CC"/>
<path d="M-656.616 1096.01L-804.123 569.398C-812.652 538.934 -812.935 506.775 -804.942 476.202C-804.532 474.632 -804.094 473.062 -803.649 471.499C-803.621 471.428 -803.599 471.35 -803.578 471.273C-803.578 471.244 -803.571 471.237 -803.564 471.216C-803.557 471.195 -803.543 471.166 -803.536 471.145C-803.062 469.512 -802.561 467.878 -802.03 466.272C-801.988 466.103 -801.938 465.94 -801.882 465.784C-801.825 465.572 -801.755 465.374 -801.684 465.176C-801.67 465.134 -801.649 465.084 -801.634 465.042C-801.507 464.632 -801.373 464.229 -801.225 463.826C-801.196 463.698 -801.154 463.571 -801.104 463.465C-800.991 463.097 -800.864 462.729 -800.73 462.383C-800.716 462.326 -800.709 462.277 -800.68 462.234C-800.624 462.093 -800.567 461.951 -800.525 461.796C-800.482 461.654 -800.433 461.52 -800.376 461.393C-799.889 460.014 -799.373 458.649 -798.857 457.284C-798.482 456.329 -798.1 455.367 -797.719 454.406C-797.676 454.307 -797.634 454.193 -797.591 454.094C-797.549 453.995 -797.506 453.896 -797.471 453.805C-797.195 453.133 -796.92 452.461 -796.637 451.796C-796.305 451.011 -795.958 450.226 -795.619 449.434C-795.527 449.201 -795.428 448.988 -795.329 448.776C-795.068 448.218 -794.82 447.659 -794.566 447.093C-794.233 446.379 -793.908 445.672 -793.569 444.965C-793.322 444.42 -793.06 443.876 -792.791 443.338C-792.643 443.02 -792.487 442.709 -792.332 442.398C-792.325 442.362 -792.311 442.334 -792.289 442.299C-791.992 441.69 -791.689 441.089 -791.378 440.481C-790.932 439.611 -790.487 438.741 -790.02 437.879C-789.228 436.365 -788.401 434.873 -787.553 433.402C-787.22 432.801 -786.881 432.207 -786.535 431.62C-786.139 430.927 -785.736 430.241 -785.326 429.562C-784.944 428.94 -784.569 428.311 -784.18 427.695C-783.721 426.939 -783.254 426.203 -782.78 425.461C-782.724 425.376 -782.667 425.291 -782.618 425.213C-782.3 424.711 -781.974 424.202 -781.642 423.714C-781.593 423.622 -781.536 423.537 -781.48 423.452C-781.458 423.417 -781.437 423.382 -781.409 423.353C-781.366 423.283 -781.324 423.212 -781.267 423.141C-781.119 422.908 -780.978 422.681 -780.822 422.455C-780.348 421.741 -779.86 421.027 -779.366 420.32C-779.373 420.313 -779.358 420.298 -779.351 420.291C-779.012 419.796 -778.673 419.316 -778.326 418.828C-778.043 418.418 -777.753 418.014 -777.463 417.611C-776.537 416.317 -775.597 415.037 -774.635 413.764C-774.487 413.573 -774.331 413.375 -774.19 413.177C-774.02 412.951 -773.836 412.725 -773.66 412.506C-773.504 412.293 -773.341 412.089 -773.179 411.869C-772.917 411.537 -772.649 411.197 -772.38 410.858C-771.793 410.116 -771.199 409.38 -770.598 408.638C-769.445 407.231 -768.265 405.823 -767.063 404.451C-766.787 404.133 -766.511 403.815 -766.235 403.511C-765.429 402.592 -764.609 401.686 -763.782 400.788C-763.782 400.774 -763.775 400.767 -763.754 400.76C-763.435 400.4 -763.103 400.039 -762.763 399.685C-762.276 399.155 -761.774 398.625 -761.264 398.102L-761.236 398.073C-760.953 397.776 -760.663 397.472 -760.381 397.189C-759.808 396.602 -759.235 396.016 -758.655 395.436L-394.29 31.0706C-375.635 53.3038 -361.972 79.2844 -354.222 107.23L-205.221 644.588L-205.206 644.602L-656.616 1096.01V1096.01Z" fill="#8B8AD1"/>
<path d="M-568.579 1410.39L-568.593 1410.38L-656.616 1096.01L-205.213 644.61L-99.8416 1024.54C-90.272 1059.05 -90.0307 1095.47 -99.1257 1130.07C-108.221 1164.66 -126.334 1196.22 -151.627 1221.5L-389.971 1459.88L-568.579 1410.39V1410.39Z" fill="#3E6CA7"/>
</g>
<g clip-path="url(#clip2_955_74071)">
<path d="M3387.33 565.53L3579.22 1248.77L3203.21 1649.34L3579.22 1248.81L3837.6 973.577C3838.19 972.949 3838.77 972.318 3839.34 971.688C3840.06 970.906 3840.77 970.122 3841.47 969.327C3841.49 969.31 3841.49 969.29 3841.51 969.285C3842.76 967.861 3843.98 966.411 3845.18 964.955C3845.2 964.938 3845.21 964.921 3845.23 964.914C3848.95 960.39 3852.44 955.707 3855.7 950.864C3856.62 949.483 3857.53 948.089 3858.41 946.679C3868.64 930.487 3876.24 912.68 3880.85 893.941C3888.2 864.119 3887.75 832.913 3879.53 803.329L3716.27 215.363L3716.27 215.344C3711.68 221.446 3706.75 227.289 3701.51 232.83L3387.34 565.472L3387.32 565.496L3387.33 565.53Z" fill="#42C7BB"/>
<path d="M2982.31 994.376L2982.32 994.42L3135.17 1545.85C3146.47 1586.64 3170.26 1622.85 3203.18 1649.37L3203.21 1649.34L3579.22 1248.77L3387.33 565.531L3387.32 565.497L2982.35 994.335L2982.31 994.376Z" fill="#2E8199"/>
<path d="M2221.93 1069.74L2221.93 1069.76L2372.51 1606.68C2380.34 1634.61 2382.1 1663.91 2377.64 1692.59L2914.16 1824.73C2925.65 1827.56 2937.35 1829.22 2949.09 1829.73C2951.54 1829.83 2953.99 1829.88 2956.44 1829.89C2957.51 1829.88 2958.58 1829.88 2959.65 1829.86C2960.65 1829.84 2961.66 1829.82 2962.65 1829.79C2964.66 1829.72 2966.67 1829.61 2968.67 1829.48C2969.67 1829.41 2970.68 1829.33 2971.67 1829.25C2973.18 1829.12 2974.67 1828.98 2976.17 1828.81C2976.92 1828.73 2977.67 1828.64 2978.42 1828.55C2980.85 1828.25 2983.28 1827.89 2985.69 1827.5C2992.94 1826.29 3000.13 1824.64 3007.23 1822.54C3037.53 1813.56 3064.9 1796.67 3086.54 1773.61L3203.18 1649.37C3170.26 1622.85 3146.47 1586.64 3135.17 1545.85L2982.32 994.42L2982.31 994.376L2862.08 1121.68C2837.5 1147.72 2806.47 1166.78 2772.16 1176.9C2737.86 1187.02 2701.49 1187.85 2666.79 1179.31L2221.93 1069.74Z" fill="#B2A5D1"/>
<path d="M2882.24 248.788L3215 330.744C3249.71 339.294 3281.53 356.918 3307.21 381.81C3332.89 406.712 3351.52 437.996 3361.19 472.472L3387.32 565.496L3387.35 565.472L3701.51 232.83C3706.75 227.289 3711.68 221.446 3716.26 215.342L3585.92 -254.042C3578 -282.577 3563.11 -308.685 3542.59 -330.006C3522.07 -351.319 3496.58 -367.18 3468.41 -376.159L2882.24 248.788V248.788Z" fill="#1E9C96"/>
<path d="M2828.94 343.668C2820.59 377.5 2821.1 412.894 2830.4 446.453L2982.31 994.376L2982.35 994.335L3387.32 565.496L3361.19 472.472C3351.52 437.996 3332.89 406.712 3307.21 381.81C3281.53 356.918 3249.71 339.294 3215 330.744L2882.24 248.788L2882.18 248.856L2877.99 253.336C2854.17 278.728 2837.28 309.846 2828.94 343.668V343.668Z" fill="#15657A"/>
<path d="M1641.95 467.726L1969.26 548.372C2003.98 556.914 2035.81 574.541 2061.49 599.433C2087.18 624.337 2105.82 655.624 2115.49 690.111L2221.93 1069.74L2666.79 1179.31C2701.49 1187.85 2737.86 1187.02 2772.16 1176.9C2806.47 1166.78 2837.5 1147.72 2862.08 1121.68L2982.31 994.376L2830.4 446.453C2821.1 412.893 2820.59 377.5 2828.94 343.668C2837.28 309.846 2854.17 278.728 2877.99 253.336L2882.19 248.856L2882.24 248.788L2158.04 70.4194C2123.32 61.8699 2086.96 62.7017 2052.65 72.8191C2018.34 82.9438 1987.32 102 1962.74 128.041L1641.96 467.709L1641.96 467.728L1641.95 467.726Z" fill="#5081A7"/>
<path d="M1453.45 296.045C1446.12 325.869 1446.57 357.075 1454.78 386.66L1465.21 424.155L1465.2 424.175L1641.94 467.726L1641.95 467.707L1962.74 128.041C1987.32 102.001 2018.34 82.9443 2052.65 72.8195C2086.96 62.7022 2123.32 61.8703 2158.03 70.4198L2882.24 248.788L3468.41 -376.158C3496.58 -367.18 3522.07 -351.318 3542.59 -330.006C3563.11 -308.684 3578 -282.577 3585.92 -254.042L3716.26 215.342C3716.26 215.342 3716.28 215.325 3716.28 215.315L3585.93 -254.081C3578.01 -282.616 3563.12 -308.723 3542.6 -330.045C3541.36 -331.329 3540.11 -332.596 3538.84 -333.836C3538.2 -334.467 3537.57 -335.076 3536.92 -335.69C3536.27 -336.302 3535.63 -336.913 3534.97 -337.508C3534.32 -338.112 3533.66 -338.707 3533 -339.303C3532.34 -339.888 3531.67 -340.475 3531 -341.063C3526.44 -345.018 3521.69 -348.733 3516.77 -352.192C3516.08 -352.68 3515.4 -353.158 3514.7 -353.628C3514.16 -354.01 3513.6 -354.384 3513.05 -354.746C3511.94 -355.482 3510.84 -356.208 3509.71 -356.918C3508.79 -357.494 3507.87 -358.073 3506.94 -358.643C3505.07 -359.781 3503.2 -360.871 3501.3 -361.937C3499.69 -362.838 3498.07 -363.711 3496.43 -364.557C3495.21 -365.198 3493.98 -365.81 3492.74 -366.424C3491.5 -367.028 3490.27 -367.611 3489.01 -368.199C3482.33 -371.276 3475.46 -373.956 3468.42 -376.197C3464.66 -377.39 3460.86 -378.461 3457 -379.41L2420.14 -634.784C2408.65 -637.613 2396.96 -639.277 2385.23 -639.776C2380.34 -639.991 2375.44 -639.993 2370.55 -639.796L2370.53 -639.801C2367.78 -639.684 2365.03 -639.516 2362.28 -639.276C2360.61 -639.132 2358.94 -638.966 2357.28 -638.768C2356.39 -638.658 2355.49 -638.56 2354.6 -638.438C2354.53 -638.435 2354.45 -638.423 2354.38 -638.411C2353.77 -638.333 2353.18 -638.251 2352.59 -638.162C2349.16 -637.676 2345.74 -637.096 2342.35 -636.407C2341.25 -636.182 2340.16 -635.948 2339.07 -635.701C2337.96 -635.457 2336.87 -635.201 2335.78 -634.935C2334.32 -634.583 2332.87 -634.209 2331.42 -633.822C2330.7 -633.631 2329.97 -633.429 2329.24 -633.227C2328.53 -633.011 2327.81 -632.807 2327.09 -632.591C2296.8 -623.609 2269.43 -606.725 2247.78 -583.66L1496.71 216.412C1475.71 238.8 1460.81 266.225 1453.46 296.047L1453.45 296.045Z" fill="#73C8CC"/>
<path d="M1602.08 917.073L1748.37 1444.03C1756.84 1474.51 1773.24 1502.17 1795.9 1524.2C1797.06 1525.33 1798.25 1526.44 1799.44 1527.55C1799.5 1527.6 1799.56 1527.65 1799.62 1527.71C1799.63 1527.73 1799.64 1527.74 1799.66 1527.75C1799.68 1527.76 1799.7 1527.78 1799.72 1527.8C1800.97 1528.95 1802.25 1530.09 1803.53 1531.19C1803.65 1531.31 1803.78 1531.42 1803.91 1531.53C1804.07 1531.68 1804.23 1531.81 1804.39 1531.94C1804.43 1531.97 1804.47 1532.01 1804.51 1532.03C1804.83 1532.32 1805.15 1532.6 1805.49 1532.86C1805.58 1532.96 1805.68 1533.04 1805.77 1533.11C1806.06 1533.37 1806.36 1533.61 1806.66 1533.84C1806.7 1533.88 1806.73 1533.92 1806.77 1533.94C1806.9 1534.03 1807.02 1534.13 1807.13 1534.24C1807.24 1534.34 1807.36 1534.43 1807.47 1534.51C1808.6 1535.43 1809.75 1536.33 1810.9 1537.24C1811.71 1537.86 1812.54 1538.48 1813.36 1539.11C1813.45 1539.17 1813.54 1539.25 1813.63 1539.31C1813.72 1539.37 1813.81 1539.44 1813.88 1539.5C1814.47 1539.93 1815.05 1540.36 1815.64 1540.78C1816.33 1541.28 1817.03 1541.77 1817.73 1542.28C1817.93 1542.43 1818.12 1542.56 1818.32 1542.69C1818.83 1543.03 1819.33 1543.38 1819.84 1543.73C1820.5 1544.17 1821.14 1544.61 1821.8 1545.04C1822.29 1545.38 1822.8 1545.71 1823.3 1546.03C1823.6 1546.23 1823.89 1546.41 1824.18 1546.6C1824.21 1546.62 1824.23 1546.64 1824.27 1546.66C1824.84 1547.03 1825.41 1547.38 1825.99 1547.74C1826.82 1548.26 1827.65 1548.77 1828.5 1549.27C1829.96 1550.15 1831.44 1551 1832.93 1551.82C1833.52 1552.16 1834.12 1552.5 1834.72 1552.82C1835.42 1553.21 1836.12 1553.59 1836.82 1553.95C1837.47 1554.29 1838.12 1554.63 1838.77 1554.96C1839.55 1555.37 1840.33 1555.76 1841.12 1556.15C1841.21 1556.19 1841.31 1556.23 1841.39 1556.27C1841.92 1556.54 1842.46 1556.81 1843 1557.05C1843.09 1557.11 1843.18 1557.15 1843.27 1557.19C1843.31 1557.21 1843.35 1557.23 1843.39 1557.24C1843.46 1557.28 1843.53 1557.32 1843.62 1557.35C1843.86 1557.47 1844.1 1557.59 1844.35 1557.71C1845.13 1558.07 1845.91 1558.43 1846.7 1558.78C1846.7 1558.79 1846.72 1558.79 1846.73 1558.8C1847.28 1559.04 1847.82 1559.28 1848.37 1559.52C1848.82 1559.72 1849.28 1559.92 1849.73 1560.11C1851.2 1560.74 1852.66 1561.35 1854.14 1561.94C1854.37 1562.03 1854.61 1562.12 1854.83 1562.21C1855.09 1562.32 1855.37 1562.42 1855.63 1562.51C1855.87 1562.61 1856.12 1562.7 1856.37 1562.81C1856.77 1562.96 1857.17 1563.11 1857.58 1563.26C1858.46 1563.59 1859.35 1563.91 1860.25 1564.24C1861.97 1564.85 1863.7 1565.44 1865.44 1565.99C1865.84 1566.12 1866.24 1566.25 1866.64 1566.37C1867.8 1566.74 1868.97 1567.09 1870.15 1567.43C1870.15 1567.44 1870.16 1567.44 1870.18 1567.44C1870.64 1567.58 1871.11 1567.72 1871.59 1567.84C1872.28 1568.05 1872.98 1568.24 1873.69 1568.42L1873.73 1568.43C1874.12 1568.54 1874.53 1568.65 1874.92 1568.75C1875.71 1568.95 1876.51 1569.16 1877.3 1569.35L2377.64 1692.59C2382.1 1663.91 2380.34 1634.61 2372.52 1606.68L2221.94 1069.76L2221.94 1069.74L1602.08 917.073V917.073Z" fill="#8B8AD1"/>
<path d="M1514.72 602.502L1514.72 602.521L1602.08 917.073L2221.93 1069.74L2115.49 690.112C2105.82 655.624 2087.18 624.338 2061.49 599.434C2035.81 574.542 2003.98 556.914 1969.26 548.372L1641.95 467.726L1514.72 602.502V602.502Z" fill="#3E6CA7"/>
<path d="M1465.21 424.177L1514.72 602.502L1641.94 467.726L1465.21 424.177Z" fill="#5AA8CC"/>
</g>
<g clip-path="url(#clip3_955_74071)">
<path d="M5096.24 293.116L5096.25 293.159L5249.23 844.555C5260.53 885.342 5284.33 921.55 5317.26 948.063L5317.29 948.029L5693.21 547.377L5501.17 -135.822L5501.15 -135.856L5096.29 293.074L5096.24 293.116Z" fill="#2E8199"/>
<path d="M4335.89 368.653L4335.88 368.672L4486.59 905.56C4494.42 933.482 4496.18 962.783 4491.73 991.462L5028.28 1123.48C5039.78 1126.31 5051.48 1127.97 5063.22 1128.47C5065.67 1128.58 5068.12 1128.63 5070.56 1128.63C5071.64 1128.63 5072.71 1128.62 5073.77 1128.61C5074.78 1128.59 5075.78 1128.57 5076.78 1128.53C5078.78 1128.46 5080.8 1128.36 5082.8 1128.22C5083.79 1128.16 5084.8 1128.07 5085.8 1127.99C5087.3 1127.87 5088.79 1127.72 5090.29 1127.55C5091.05 1127.47 5091.8 1127.38 5092.54 1127.29C5094.97 1126.99 5097.4 1126.63 5099.81 1126.24C5107.06 1125.03 5114.26 1123.37 5121.35 1121.27C5151.65 1112.29 5179.02 1095.4 5200.66 1072.33L5317.26 948.063C5284.33 921.55 5260.53 885.342 5249.23 844.555L5096.26 293.159L5096.25 293.116L4976.04 420.449C4951.47 446.495 4920.44 465.556 4886.14 475.691C4851.84 485.816 4815.47 486.657 4780.77 478.117L4335.89 368.653Z" fill="#B2A5D1"/>
<path d="M4942.72 -357.557C4934.39 -323.724 4934.9 -288.33 4944.21 -254.773L5096.24 293.115L5096.29 293.074L5501.15 -135.856L5475 -228.875C5465.33 -263.348 5446.69 -294.628 5421.01 -319.524C5395.32 -344.41 5363.5 -362.028 5328.78 -370.569L4996.01 -452.45L4995.95 -452.381L4991.76 -447.901C4967.94 -422.503 4951.05 -391.381 4942.72 -357.557V-357.557Z" fill="#15657A"/>
<path d="M3755.76 -233.229L4083.09 -152.658C4117.82 -144.123 4149.65 -126.503 4175.34 -101.617C4201.03 -76.7191 4219.68 -45.437 4229.36 -10.9517L4335.89 368.653L4780.77 478.117C4815.47 486.657 4851.84 485.816 4886.14 475.691C4920.44 465.556 4951.47 446.495 4976.04 420.449L5096.25 293.116L4944.21 -254.773C4934.91 -288.33 4934.39 -323.724 4942.72 -357.557C4951.06 -391.381 4967.94 -422.503 4991.76 -447.901L4995.95 -452.381L4996.01 -452.449L4271.76 -630.653C4237.05 -639.195 4200.68 -638.355 4166.38 -628.229C4132.06 -618.097 4101.05 -599.033 4076.48 -572.987L3755.77 -233.246L3755.77 -233.227L3755.76 -233.229Z" fill="#5081A7"/>
<path d="M3567.23 -404.867C3559.9 -375.041 3560.36 -343.835 3568.58 -314.253L3579.01 -276.759L3579.01 -276.74L3755.76 -233.229L3755.76 -233.248L4076.47 -572.987C4101.05 -599.033 4132.06 -618.097 4166.38 -628.229C4200.68 -638.354 4237.04 -639.194 4271.76 -630.653L4996.01 -452.449L5582.03 -1077.53C5610.2 -1068.56 5635.7 -1052.7 5656.22 -1031.39C5676.75 -1010.08 5691.64 -983.973 5699.57 -955.44L5830.02 -486.086C5830.02 -486.086 5830.03 -486.103 5830.04 -486.113L5699.58 -955.479C5691.65 -984.012 5676.75 -1010.12 5656.23 -1031.43C5654.99 -1032.72 5653.74 -1033.98 5652.47 -1035.22C5651.83 -1035.85 5651.2 -1036.46 5650.55 -1037.08C5649.9 -1037.69 5649.26 -1038.3 5648.61 -1038.89C5647.95 -1039.5 5647.29 -1040.09 5646.63 -1040.69C5645.97 -1041.27 5645.3 -1041.86 5644.63 -1042.45C5640.07 -1046.4 5635.32 -1050.12 5630.4 -1053.57C5629.71 -1054.06 5629.03 -1054.54 5628.33 -1055.01C5627.78 -1055.39 5627.23 -1055.77 5626.68 -1056.13C5625.57 -1056.86 5624.46 -1057.59 5623.34 -1058.3C5622.42 -1058.87 5621.49 -1059.45 5620.56 -1060.02C5618.7 -1061.16 5616.83 -1062.25 5614.92 -1063.32C5613.31 -1064.22 5611.69 -1065.09 5610.06 -1065.93C5608.84 -1066.57 5607.61 -1067.19 5606.37 -1067.8C5605.13 -1068.4 5603.89 -1068.99 5602.63 -1069.57C5595.96 -1072.65 5589.09 -1075.33 5582.04 -1077.57C5578.28 -1078.76 5574.48 -1079.83 5570.62 -1080.78L4533.7 -1335.92C4522.21 -1338.74 4510.52 -1340.4 4498.79 -1340.9C4493.9 -1341.11 4489 -1341.12 4484.11 -1340.92L4484.09 -1340.92C4481.34 -1340.8 4478.59 -1340.64 4475.85 -1340.4C4474.17 -1340.25 4472.5 -1340.08 4470.84 -1339.89C4469.95 -1339.78 4469.05 -1339.68 4468.16 -1339.56C4468.09 -1339.55 4468.01 -1339.54 4467.94 -1339.53C4467.33 -1339.45 4466.75 -1339.37 4466.15 -1339.28C4462.72 -1338.79 4459.31 -1338.21 4455.91 -1337.52C4454.82 -1337.3 4453.72 -1337.06 4452.63 -1336.82C4451.53 -1336.57 4450.43 -1336.31 4449.34 -1336.05C4447.88 -1335.7 4446.43 -1335.32 4444.99 -1334.93C4444.26 -1334.74 4443.53 -1334.54 4442.8 -1334.34C4442.09 -1334.12 4441.37 -1333.92 4440.66 -1333.7C4410.36 -1324.71 4382.99 -1307.82 4361.36 -1284.75L3610.47 -484.511C3589.47 -462.117 3574.58 -434.689 3567.24 -404.865L3567.23 -404.867Z" fill="#73C8CC"/>
<path d="M3715.99 216.127L3862.41 743.046C3870.88 773.525 3887.29 801.186 3909.95 823.206C3911.12 824.337 3912.3 825.454 3913.5 826.561C3913.56 826.606 3913.61 826.662 3913.67 826.717C3913.69 826.742 3913.7 826.744 3913.71 826.759C3913.73 826.773 3913.76 826.79 3913.77 826.805C3915.03 827.957 3916.3 829.095 3917.59 830.194C3917.71 830.318 3917.84 830.431 3917.96 830.535C3918.12 830.687 3918.29 830.82 3918.45 830.953C3918.48 830.982 3918.53 831.013 3918.56 831.042C3918.88 831.327 3919.21 831.603 3919.54 831.871C3919.63 831.965 3919.73 832.052 3919.83 832.117C3920.12 832.373 3920.42 832.622 3920.71 832.849C3920.75 832.89 3920.78 832.929 3920.83 832.95C3920.95 833.042 3921.07 833.134 3921.19 833.245C3921.3 833.344 3921.41 833.433 3921.53 833.513C3922.66 834.44 3923.81 835.341 3924.95 836.242C3925.77 836.864 3926.59 837.49 3927.42 838.115C3927.51 838.178 3927.6 838.253 3927.69 838.315C3927.78 838.378 3927.86 838.441 3927.94 838.501C3928.52 838.933 3929.11 839.365 3929.69 839.788C3930.38 840.287 3931.09 840.78 3931.79 841.282C3931.99 841.434 3932.18 841.564 3932.38 841.694C3932.89 842.037 3933.39 842.387 3933.9 842.739C3934.55 843.178 3935.2 843.615 3935.86 844.044C3936.35 844.382 3936.85 844.713 3937.36 845.033C3937.65 845.229 3937.95 845.414 3938.24 845.6C3938.27 845.627 3938.29 845.644 3938.33 845.663C3938.9 846.03 3939.47 846.387 3940.05 846.746C3940.88 847.26 3941.71 847.773 3942.56 848.27C3944.02 849.155 3945.5 850.003 3946.99 850.822C3947.58 851.165 3948.18 851.497 3948.78 851.82C3949.48 852.208 3950.18 852.586 3950.88 852.955C3951.53 853.29 3952.18 853.634 3952.83 853.959C3953.61 854.369 3954.39 854.756 3955.18 855.146C3955.27 855.19 3955.37 855.233 3955.45 855.274C3955.98 855.539 3956.52 855.806 3957.06 856.052C3957.15 856.105 3957.24 856.148 3957.34 856.191C3957.37 856.211 3957.41 856.23 3957.45 856.239C3957.52 856.278 3957.59 856.316 3957.68 856.348C3957.93 856.47 3958.16 856.591 3958.41 856.704C3959.19 857.07 3959.98 857.428 3960.77 857.777C3960.76 857.787 3960.78 857.792 3960.79 857.794C3961.34 858.042 3961.88 858.277 3962.43 858.515C3962.88 858.72 3963.34 858.915 3963.8 859.11C3965.26 859.737 3966.72 860.346 3968.21 860.937C3968.43 861.023 3968.67 861.112 3968.89 861.208C3969.15 861.314 3969.43 861.413 3969.69 861.509C3969.94 861.61 3970.18 861.701 3970.43 861.804C3970.83 861.953 3971.23 862.105 3971.64 862.256C3972.53 862.587 3973.42 862.909 3974.31 863.233C3976.03 863.84 3977.77 864.433 3979.51 864.985C3979.91 865.114 3980.31 865.243 3980.7 865.361C3981.87 865.73 3983.04 866.08 3984.21 866.42C3984.22 866.432 3984.23 866.435 3984.25 866.43C3984.71 866.573 3985.18 866.71 3985.65 866.837C3986.34 867.038 3987.05 867.232 3987.75 867.416L3987.79 867.425C3988.19 867.533 3988.59 867.643 3988.98 867.739C3989.78 867.944 3990.57 868.15 3991.37 868.346L4491.73 991.462C4496.18 962.783 4494.42 933.482 4486.59 905.56L4335.89 368.675L4335.89 368.656L3715.99 216.127V216.127Z" fill="#8B8AD1"/>
<path d="M3628.57 -98.4248L3628.56 -98.4055L3715.99 216.127L4335.88 368.653L4229.36 -10.9518C4219.68 -45.437 4201.03 -76.7192 4175.33 -101.617C4149.65 -126.504 4117.81 -144.123 4083.09 -152.658L3755.76 -233.229L3628.57 -98.4248V-98.4248Z" fill="#3E6CA7"/>
</g>
<rect width="5000" height="1000" fill="#3C4A63" fill-opacity="0.8"/>
</g>
<defs>
<clipPath id="clip0_955_74071">
<rect width="5000" height="1000" fill="white"/>
</clipPath>
<clipPath id="clip1_955_74071">
<rect width="2500" height="2270" fill="white" transform="translate(2107.9 739.146) rotate(135)"/>
</clipPath>
<clipPath id="clip2_955_74071">
<rect width="2500" height="2270" fill="white" transform="matrix(-0.970983 -0.239148 -0.239148 0.970983 4152.32 -208.156)"/>
</clipPath>
<clipPath id="clip3_955_74071">
<rect width="2500" height="2270" fill="white" transform="matrix(-0.971038 -0.238927 -0.238927 0.971038 6265.98 -909.683)"/>
</clipPath>
</defs>
</svg>
