<svg viewBox="0 0 139 139" width="100" height="100" fill="none" xmlns="http://www.w3.org/2000/svg">
  <path
    d="M60.757 26.165c4.794 4.794 12.566 4.794 17.36 0 4.793-4.793 4.793-12.565 0-17.359-4.794-4.793-12.566-4.793-17.36 0-4.794 4.794-4.794 12.566 0 17.36ZM86.795 52.204c4.794 4.794 12.566 4.794 17.359 0 4.794-4.793 4.794-12.565 0-17.359-4.793-4.793-12.565-4.793-17.359 0-4.794 4.794-4.794 12.566 0 17.36ZM112.834 78.243c4.794 4.793 12.566 4.793 17.359 0 4.794-4.794 4.794-12.566 0-17.36-4.793-4.793-12.565-4.793-17.359 0-4.793 4.794-4.793 12.566 0 17.36ZM34.719 52.204c4.794 4.794 12.565 4.794 17.359 0 4.793-4.793 4.793-12.565 0-17.359-4.794-4.793-12.566-4.793-17.36 0-4.793 4.794-4.793 12.566 0 17.36Z"
    fill="#3E6CA7"
  />
  <path
    d="M60.757 78.243c4.794 4.793 12.566 4.793 17.36 0 4.793-4.794 4.793-12.566 0-17.36-4.794-4.793-12.566-4.793-17.36 0-4.794 4.794-4.794 12.566 0 17.36Z"
    fill="#42C7BB"
  />
  <path
    d="M86.795 104.282c4.794 4.793 12.566 4.793 17.359 0 4.794-4.794 4.794-12.566 0-17.36-4.793-4.793-12.565-4.793-17.359 0-4.794 4.794-4.794 12.566 0 17.36ZM8.68 78.243c4.793 4.793 12.565 4.793 17.359 0 4.793-4.794 4.793-12.566 0-17.36-4.794-4.793-12.566-4.793-17.36 0-4.793 4.794-4.793 12.566 0 17.36ZM34.719 104.282c4.794 4.793 12.565 4.793 17.359 0 4.793-4.794 4.793-12.566 0-17.36-4.794-4.793-12.566-4.793-17.36 0-4.793 4.794-4.793 12.566 0 17.36ZM60.757 130.321c4.794 4.793 12.566 4.793 17.36 0 4.793-4.794 4.793-12.566 0-17.359-4.794-4.794-12.566-4.794-17.36 0-4.794 4.793-4.794 12.565 0 17.359Z"
    fill="#3E6CA7"
  />
</svg>
