<svg width="47" height="50" viewBox="0 0 47 50" fill="none" xmlns="http://www.w3.org/2000/svg">
<path fill-rule="evenodd" clip-rule="evenodd" d="M45.7379 49.5068H0.616002C0.275784 49.5068 0 49.231 0 48.8908V40.4064C0 33.2729 5.80353 27.4695 12.9371 27.4695H17.4973C17.8375 27.4695 18.1133 27.7453 18.1133 28.0858C18.1133 28.4264 17.8375 28.7018 17.4973 28.7018H12.9371C6.48291 28.7018 1.23201 33.9526 1.23201 40.4068V48.2752H45.1219V40.4068C45.1219 33.953 39.871 28.7022 33.4168 28.7022H28.8622C28.522 28.7022 28.2462 28.4268 28.2462 28.0862C28.2462 27.7456 28.522 27.4698 28.8622 27.4698H33.4168C40.5504 27.4698 46.3539 33.2733 46.3539 40.4068V48.8912C46.3539 49.2314 46.0781 49.5072 45.7376 49.5072L45.7379 49.5068Z" fill="white"/>
<path fill-rule="evenodd" clip-rule="evenodd" d="M17.4969 28.7019C17.1566 28.7019 16.8809 28.4265 16.8809 28.0859V24.3797C16.8809 24.0395 17.1566 23.7637 17.4969 23.7637C17.8371 23.7637 18.1129 24.0391 18.1129 24.3797V28.0855C18.1129 28.4258 17.8371 28.7019 17.4969 28.7019Z" fill="white"/>
<path fill-rule="evenodd" clip-rule="evenodd" d="M28.8562 28.7019C28.516 28.7019 28.2402 28.4265 28.2402 28.0859V24.3797C28.2402 24.0395 28.5157 23.7637 28.8562 23.7637C29.1968 23.7637 29.4722 24.0391 29.4722 24.3797V28.0855C29.4722 28.4258 29.1968 28.7019 28.8562 28.7019Z" fill="white"/>
<path fill-rule="evenodd" clip-rule="evenodd" d="M22.9559 40.1086H22.9463C22.7127 40.1047 22.501 39.9695 22.4001 39.7585L16.9414 28.3517C16.7944 28.0447 16.9244 27.6769 17.231 27.53C17.5375 27.3831 17.9057 27.513 18.0523 27.8199L22.9764 38.1102L28.3077 27.8029C28.4642 27.5006 28.8355 27.3823 29.1379 27.5385C29.4399 27.6946 29.5585 28.0667 29.4023 28.3686L23.5021 39.7755C23.3966 39.9805 23.1853 40.1086 22.9552 40.1086H22.9559Z" fill="white"/>
<path fill-rule="evenodd" clip-rule="evenodd" d="M23.1768 41.7928C23.101 41.7928 23.0253 41.7786 22.9531 41.751L13.8082 38.1892C13.6305 38.1202 13.4949 37.9722 13.4408 37.7892C13.3869 37.6065 13.4206 37.4086 13.5324 37.2539L15.3249 34.7754L11.5492 33.3296C11.2338 33.2089 11.0745 32.8566 11.192 32.5401L12.9246 27.8713C13.0432 27.5523 13.3979 27.3899 13.7165 27.5081C14.0355 27.6267 14.1984 27.9811 14.0798 28.3L12.5592 32.3967L16.514 33.9112C16.6928 33.9799 16.8298 34.1272 16.8844 34.3106C16.9389 34.4943 16.9052 34.6926 16.793 34.8476L14.9978 37.33L23.1764 40.5155L31.3548 37.33L29.5599 34.8476C29.4476 34.6926 29.414 34.494 29.4689 34.3106C29.5238 34.1272 29.6604 33.9796 29.8388 33.9112L33.7937 32.3967L32.2731 28.3C32.1545 27.9811 32.3174 27.6263 32.6363 27.5077C32.956 27.3891 33.3101 27.552 33.4283 27.871L35.1613 32.5398C35.2788 32.8563 35.1195 33.2089 34.804 33.3296L31.0284 34.7754L32.8204 37.2542C32.9323 37.4086 32.9659 37.6061 32.9121 37.7895C32.8583 37.9725 32.7227 38.1202 32.5447 38.1892L23.4002 41.751C23.328 41.779 23.2526 41.7931 23.1764 41.7931L23.1768 41.7928Z" fill="white"/>
<path fill-rule="evenodd" clip-rule="evenodd" d="M23.1766 49.5069C22.8363 49.5069 22.5605 49.2311 22.5605 48.8909V41.1768C22.5605 40.8366 22.836 40.5608 23.1766 40.5608C23.5171 40.5608 23.7926 40.8366 23.7926 41.1768V48.8909C23.7926 49.2311 23.5168 49.5069 23.1766 49.5069Z" fill="white"/>
<path fill-rule="evenodd" clip-rule="evenodd" d="M10.0857 49.5068C9.74551 49.5068 9.46973 49.231 9.46973 48.8908V44.0747C9.46973 43.7345 9.74551 43.4587 10.0857 43.4587C10.4259 43.4587 10.7021 43.7345 10.7021 44.0747V48.8908C10.7021 49.231 10.4263 49.5068 10.0857 49.5068Z" fill="white"/>
<path fill-rule="evenodd" clip-rule="evenodd" d="M36.2683 49.5068C35.9281 49.5068 35.6523 49.231 35.6523 48.8908V44.0747C35.6523 43.7345 35.9278 43.4587 36.2683 43.4587C36.6089 43.4587 36.8843 43.7345 36.8843 44.0747V48.8908C36.8843 49.231 36.6086 49.5068 36.2683 49.5068Z" fill="white"/>
<path fill-rule="evenodd" clip-rule="evenodd" d="M31.2061 45.2689H27.115C26.7748 45.2689 26.499 44.9931 26.499 44.6529C26.499 44.3126 26.7748 44.0369 27.115 44.0369H31.2061C31.5464 44.0369 31.8225 44.3126 31.8225 44.6529C31.8225 44.9931 31.5467 45.2689 31.2061 45.2689Z" fill="white"/>
<path d="M33.9373 13.1068C33.9373 6.54539 29.0904 1.22636 23.1114 1.22636C17.1324 1.22636 12.2855 6.54539 12.2855 13.1068C12.2855 19.6681 17.1324 24.9871 23.1114 24.9871C29.0904 24.9871 33.9373 19.6681 33.9373 13.1068ZM35.0548 13.1068C35.0548 20.3454 29.7076 26.2135 23.1114 26.2135C16.5152 26.2135 11.168 20.3454 11.168 13.1068C11.168 5.86809 16.5152 0 23.1114 0C29.7076 0 35.0548 5.86809 35.0548 13.1068Z" fill="white"/>
</svg>
