<svg width="49" height="49" viewBox="0 0 49 49" fill="none" xmlns="http://www.w3.org/2000/svg">
<path d="M16.375 30.5938C15.4271 30.5938 14.6263 30.266 13.9727 29.6106C13.3173 28.957 12.9896 28.1562 12.9896 27.2083C12.9896 26.2604 13.3173 25.4597 13.9727 24.806C14.6263 24.1506 15.4271 23.8229 16.375 23.8229C17.3229 23.8229 18.1237 24.1506 18.7773 24.806C19.4327 25.4597 19.7604 26.2604 19.7604 27.2083C19.7604 28.1562 19.4327 28.957 18.7773 29.6106C18.1237 30.266 17.3229 30.5938 16.375 30.5938ZM32.625 30.5938C31.6771 30.5938 30.8763 30.266 30.2227 29.6106C29.5673 28.957 29.2396 28.1562 29.2396 27.2083C29.2396 26.2604 29.5673 25.4597 30.2227 24.806C30.8763 24.1506 31.6771 23.8229 32.625 23.8229C33.5729 23.8229 34.3737 24.1506 35.0273 24.806C35.6827 25.4597 36.0104 26.2604 36.0104 27.2083C36.0104 28.1562 35.6827 28.957 35.0273 29.6106C34.3737 30.266 33.5729 30.5938 32.625 30.5938ZM24.5 46.1667C30.5486 46.1667 35.6719 44.0677 39.8698 39.8698C44.0677 35.6719 46.1667 30.5486 46.1667 24.5C46.1667 23.4167 46.099 22.3667 45.9635 21.3502C45.8281 20.3355 45.5799 19.3542 45.2187 18.4062C44.2708 18.6319 43.3229 18.8017 42.375 18.9154C41.4271 19.0274 40.434 19.0833 39.3958 19.0833C35.2882 19.0833 31.4062 18.2031 27.75 16.4427C24.0937 14.6823 20.9792 12.2222 18.4062 9.0625C16.9618 12.5833 14.8972 15.6419 12.2123 18.2383C9.52562 20.8329 6.39931 22.7847 2.83333 24.0938V24.5C2.83333 30.5486 4.93229 35.6719 9.13021 39.8698C13.3281 44.0677 18.4514 46.1667 24.5 46.1667ZM24.5 48.875C21.1146 48.875 17.944 48.2322 14.9883 46.9467C12.0308 45.6593 9.45792 43.9206 7.26958 41.7304C5.07944 39.5421 3.34069 36.9692 2.05333 34.0117C0.767778 31.056 0.125 27.8854 0.125 24.5C0.125 21.1146 0.767778 17.9431 2.05333 14.9856C3.34069 12.0299 5.07944 9.45701 7.26958 7.26687C9.45792 5.07854 12.0308 3.34069 14.9883 2.05333C17.944 0.767778 21.1146 0.125 24.5 0.125C27.8854 0.125 31.0569 0.767778 34.0144 2.05333C36.9701 3.34069 39.543 5.07854 41.7331 7.26687C43.9215 9.45701 45.6593 12.0299 46.9467 14.9856C48.2322 17.9431 48.875 21.1146 48.875 24.5C48.875 27.8854 48.2322 31.056 46.9467 34.0117C45.6593 36.9692 43.9215 39.5421 41.7331 41.7304C39.543 43.9206 36.9701 45.6593 34.0144 46.9467C31.0569 48.2322 27.8854 48.875 24.5 48.875ZM18.2708 3.71354C20.4826 8.09201 23.609 11.2969 27.6498 13.3281C31.6888 15.3594 35.6042 16.375 39.3958 16.375C40.2535 16.375 41.0885 16.3299 41.901 16.2396C42.7135 16.1493 43.5035 16.0139 44.2708 15.8333C42.5556 11.816 39.8924 8.64451 36.2812 6.31896C32.6701 3.99521 28.7431 2.83333 24.5 2.83333C23.3264 2.83333 22.2431 2.90104 21.25 3.03646C20.2569 3.17187 19.2639 3.39757 18.2708 3.71354ZM3.17188 20.9792C5.97049 19.7604 8.8034 17.74 11.6706 14.9179C14.536 12.0976 16.217 8.5434 16.7135 4.25521C13.0573 5.65451 10.0447 7.83292 7.67583 10.7904C5.30514 13.7461 3.80382 17.1424 3.17188 20.9792Z" fill="#42C7BB"/>
</svg>
