<svg width="350" height="66" viewBox="0 0 255 48" fill="none" xmlns="http://www.w3.org/2000/svg">
<path d="M10.5457 46.5454H0.000266433L16.0684 -4.57764e-05H28.7503L44.7957 46.5454H34.2503L22.5912 10.6363H22.2275L10.5457 46.5454ZM9.88663 28.25H34.7957V35.9318H9.88663V28.25ZM66.898 46.5454H50.398V-4.57764e-05H67.0344C71.7162 -4.57764e-05 75.7465 0.931773 79.1253 2.79541C82.5041 4.64389 85.1025 7.30298 86.9207 10.7727C88.7541 14.2424 89.6707 18.3939 89.6707 23.2272C89.6707 28.0757 88.7541 32.2424 86.9207 35.7272C85.1025 39.2121 82.4889 41.8863 79.0798 43.75C75.6859 45.6136 71.6253 46.5454 66.898 46.5454ZM60.2389 38.1136H66.4889C69.398 38.1136 71.845 37.5984 73.8298 36.5681C75.8298 35.5227 77.3298 33.909 78.3298 31.7272C79.345 29.5303 79.8525 26.6969 79.8525 23.2272C79.8525 19.7878 79.345 16.9772 78.3298 14.7954C77.3298 12.6136 75.8374 11.0075 73.8525 9.97723C71.8677 8.94692 69.4207 8.43177 66.5116 8.43177H60.2389V38.1136ZM115.273 46.5454H109.364L126.455 -4.57764e-05H132.273L149.364 46.5454H143.455L129.546 7.36359H129.182L115.273 46.5454ZM117.455 28.3636H141.273V33.3636H117.455V28.3636ZM168.881 11.6363V16.1818H150.79V11.6363H168.881ZM156.063 3.27268H161.426V36.5454C161.426 38.0606 161.646 39.1969 162.085 39.9545C162.54 40.6969 163.116 41.1969 163.813 41.4545C164.525 41.6969 165.275 41.8181 166.063 41.8181C166.654 41.8181 167.139 41.7878 167.517 41.7272C167.896 41.6515 168.199 41.5909 168.426 41.5454L169.517 46.3636C169.154 46.5 168.646 46.6363 167.995 46.7727C167.343 46.9242 166.517 47 165.517 47C164.002 47 162.517 46.6742 161.063 46.0227C159.623 45.3712 158.426 44.3787 157.472 43.0454C156.532 41.7121 156.063 40.0303 156.063 38V3.27268ZM183.063 -4.57764e-05V46.5454H177.699V-4.57764e-05H183.063ZM203.159 47.3636C200.947 47.3636 198.94 46.9469 197.137 46.1136C195.334 45.2651 193.902 44.0454 192.841 42.4545C191.781 40.8484 191.25 38.909 191.25 36.6363C191.25 34.6363 191.644 33.0151 192.432 31.7727C193.22 30.5151 194.273 29.5303 195.591 28.8181C196.909 28.106 198.364 27.5757 199.955 27.2272C201.561 26.8636 203.175 26.5757 204.796 26.3636C206.917 26.0909 208.637 25.8863 209.955 25.75C211.288 25.5984 212.258 25.3484 212.864 25C213.485 24.6515 213.796 24.0454 213.796 23.1818V23C213.796 20.7575 213.182 19.0151 211.955 17.7727C210.743 16.5303 208.902 15.909 206.432 15.909C203.871 15.909 201.864 16.4697 200.409 17.5909C198.955 18.7121 197.932 19.909 197.341 21.1818L192.25 19.3636C193.159 17.2424 194.371 15.5909 195.887 14.409C197.417 13.2121 199.084 12.3787 200.887 11.909C202.705 11.4242 204.493 11.1818 206.25 11.1818C207.371 11.1818 208.659 11.3181 210.114 11.5909C211.584 11.8484 213 12.3863 214.364 13.2045C215.743 14.0227 216.887 15.2575 217.796 16.909C218.705 18.5606 219.159 20.7727 219.159 23.5454V46.5454H213.796V41.8181H213.523C213.159 42.5757 212.553 43.3863 211.705 44.25C210.856 45.1136 209.728 45.8484 208.318 46.4545C206.909 47.0606 205.19 47.3636 203.159 47.3636ZM203.978 42.5454C206.099 42.5454 207.887 42.1287 209.341 41.2954C210.811 40.4621 211.917 39.3863 212.659 38.0681C213.417 36.75 213.796 35.3636 213.796 33.909V29C213.568 29.2727 213.068 29.5227 212.296 29.75C211.538 29.9621 210.659 30.1515 209.659 30.3181C208.675 30.4697 207.712 30.606 206.773 30.7272C205.849 30.8333 205.099 30.9242 204.523 31C203.129 31.1818 201.826 31.4772 200.614 31.8863C199.417 32.2803 198.447 32.8787 197.705 33.6818C196.978 34.4697 196.614 35.5454 196.614 36.909C196.614 38.7727 197.303 40.1818 198.682 41.1363C200.076 42.0757 201.841 42.5454 203.978 42.5454ZM253.676 19.4545L248.858 20.8181C248.555 20.0151 248.108 19.2348 247.517 18.4772C246.942 17.7045 246.154 17.0681 245.154 16.5681C244.154 16.0681 242.873 15.8181 241.313 15.8181C239.176 15.8181 237.396 16.3106 235.972 17.2954C234.563 18.2651 233.858 19.5 233.858 21C233.858 22.3333 234.343 23.3863 235.313 24.159C236.282 24.9318 237.798 25.5757 239.858 26.0909L245.04 27.3636C248.161 28.1212 250.487 29.2803 252.017 30.8409C253.548 32.3863 254.313 34.3787 254.313 36.8181C254.313 38.8181 253.737 40.606 252.585 42.1818C251.449 43.7575 249.858 45 247.813 45.909C245.767 46.8181 243.389 47.2727 240.676 47.2727C237.116 47.2727 234.169 46.5 231.835 44.9545C229.502 43.409 228.025 41.1515 227.404 38.1818L232.495 36.909C232.979 38.7878 233.896 40.1969 235.245 41.1363C236.608 42.0757 238.389 42.5454 240.585 42.5454C243.085 42.5454 245.07 42.0151 246.54 40.9545C248.025 39.8787 248.767 38.5909 248.767 37.0909C248.767 35.8787 248.343 34.8636 247.495 34.0454C246.646 33.2121 245.343 32.5909 243.585 32.1818L237.767 30.8181C234.57 30.0606 232.222 28.8863 230.722 27.2954C229.237 25.6893 228.495 23.6818 228.495 21.2727C228.495 19.303 229.048 17.5606 230.154 16.0454C231.275 14.5303 232.798 13.3409 234.722 12.4772C236.661 11.6136 238.858 11.1818 241.313 11.1818C244.767 11.1818 247.479 11.9393 249.449 13.4545C251.434 14.9697 252.843 16.9697 253.676 19.4545Z" fill="#1C3D44"/>
</svg>
