<svg xmlns="http://www.w3.org/2000/svg" version="1.1" xmlns:xlink="http://www.w3.org/1999/xlink" width="500" height="454"><svg width="500" height="454" viewBox="0 0 500 454" fill="none" xmlns="http://www.w3.org/2000/svg">
<path d="M111.554 186.837L41.6099 310.342L95.4719 406.115L41.6079 310.35L4.59586 244.542C4.51186 244.392 4.42986 244.241 4.34786 244.091C4.24586 243.905 4.14586 243.719 4.04786 243.531C4.04586 243.527 4.04586 243.523 4.04186 243.521C3.86786 243.185 3.69986 242.845 3.53586 242.505C3.53386 242.501 3.53186 242.497 3.52986 242.495C3.02386 241.438 2.56986 240.362 2.16786 239.265C2.05586 238.953 1.94586 238.639 1.84186 238.323C0.629859 234.689 0.00585938 230.868 0.00585938 227.008C0.00585938 220.865 1.58586 214.827 4.59586 209.474L64.4239 103.103V103.099C65.0239 104.503 65.7019 105.874 66.4539 107.2L111.554 186.825L111.558 186.831L111.554 186.837Z" fill="#42C7BB"></path>
<path d="M169.696 289.489L169.692 289.497L113.634 389.272C109.49 396.653 103.138 402.548 95.4759 406.123L95.4719 406.115L41.6099 310.342L111.554 186.837L111.558 186.831L169.69 289.479L169.696 289.489Z" fill="#2E8199"></path>
<path d="M313.754 340.493V340.497L258.83 437.563C255.974 442.611 254.232 448.218 253.726 454H143.216C140.848 454 138.496 453.764 136.192 453.3C135.712 453.204 135.234 453.096 134.758 452.98C134.55 452.928 134.342 452.876 134.136 452.822C133.942 452.769 133.748 452.717 133.556 452.663C133.17 452.553 132.784 452.437 132.402 452.315C132.212 452.255 132.02 452.191 131.83 452.127C131.544 452.031 131.262 451.931 130.978 451.827C130.836 451.775 130.694 451.721 130.554 451.669C130.096 451.495 129.642 451.309 129.192 451.117C127.842 450.537 126.524 449.87 125.246 449.124C119.792 445.931 115.284 441.343 112.184 435.828L95.4761 406.123C103.138 402.548 109.49 396.653 113.634 389.272L169.692 289.497L169.696 289.489L186.956 319.962C190.484 326.195 195.598 331.379 201.776 334.987C207.954 338.592 214.976 340.493 222.124 340.493H313.754Z" fill="#B2A5D1"></path>
<path d="M224.79 149.485H156.25C149.1 149.485 142.078 151.385 135.9 154.991C129.722 158.598 124.608 163.783 121.082 170.015L111.558 186.831L111.554 186.825L66.4538 107.2C65.7018 105.874 65.0238 104.503 64.4258 103.099L112.188 18.1798C115.092 13.0176 119.232 8.65973 124.236 5.50037C129.24 2.343 134.95 0.4822 140.85 0.0860291L224.79 149.485Z" fill="#1E9C96"></path>
<path d="M230.604 170.46C230.606 177.429 228.814 184.278 225.404 190.35L169.696 289.489L169.69 289.479L111.558 186.831L121.082 170.015C124.608 163.783 129.722 158.598 135.9 154.991C142.078 151.385 149.1 149.484 156.25 149.484H224.79L224.798 149.501L225.398 150.571C228.81 156.642 230.602 163.493 230.604 170.46Z" fill="#15657A"></path>
<path d="M455.18 251.324L387.76 251.33C380.608 251.328 373.584 253.229 367.406 256.835C361.226 260.442 356.11 265.627 352.582 271.861L313.754 340.493H222.124C214.976 340.493 207.954 338.592 201.776 334.987C195.598 331.379 190.484 326.195 186.956 319.962L169.696 289.489L225.404 190.35C228.814 184.278 230.606 177.429 230.604 170.46C230.602 163.493 228.81 156.642 225.398 150.571L224.798 149.501L224.79 149.484H373.96C381.11 149.484 388.132 151.385 394.31 154.991C400.49 158.598 405.602 163.783 409.13 170.015L455.178 251.32V251.324H455.18Z" fill="#5081A7"></path>
<path d="M499.996 227C499.994 233.143 498.414 239.181 495.404 244.534L491.586 251.316V251.32L455.18 251.324V251.32L409.13 170.015C405.602 163.783 400.49 158.598 394.31 154.991C388.132 151.385 381.11 149.485 373.96 149.485H224.79L140.85 0.0860371C134.95 0.482208 129.24 2.34301 124.236 5.50037C119.232 8.65974 115.092 13.0176 112.188 18.1798L64.4258 103.099C64.4258 103.099 64.4238 103.094 64.4238 103.092L112.188 18.1718C115.092 13.0096 119.232 8.65173 124.236 5.49237C124.538 5.30229 124.842 5.11621 125.148 4.93613C125.302 4.84409 125.454 4.75605 125.61 4.66802C125.764 4.57998 125.918 4.49194 126.074 4.4079C126.23 4.32187 126.386 4.23783 126.544 4.15379C126.7 4.07176 126.858 3.98972 127.016 3.90769C128.09 3.35745 129.19 2.86324 130.312 2.42705C130.468 2.36502 130.624 2.30499 130.782 2.24697C130.906 2.19895 131.032 2.15293 131.156 2.10891C131.406 2.01887 131.656 1.93083 131.908 1.8468C132.114 1.77877 132.322 1.71074 132.53 1.64471C132.946 1.51265 133.362 1.3906 133.782 1.27455C134.138 1.17651 134.494 1.08447 134.852 0.998431C135.12 0.932402 135.388 0.872377 135.658 0.812351C135.928 0.754326 136.196 0.700302 136.468 0.646279C137.912 0.368159 139.374 0.176076 140.85 0.0780337C141.636 0.0260112 142.426 0 143.22 0H356.79C359.156 0 361.506 0.236102 363.808 0.700302C364.768 0.892385 365.72 1.12649 366.66 1.3986H366.664C367.192 1.55267 367.718 1.71674 368.24 1.89482C368.558 2.00286 368.874 2.11491 369.188 2.23296C369.356 2.29699 369.526 2.35902 369.692 2.42505C369.706 2.42905 369.72 2.43505 369.734 2.44105C369.848 2.48507 369.958 2.52909 370.07 2.57511C370.712 2.83322 371.348 3.10934 371.974 3.40547C372.176 3.50151 372.378 3.59955 372.578 3.6996C372.78 3.79964 372.98 3.90168 373.18 4.00573C373.446 4.14379 373.71 4.28585 373.972 4.42991C374.104 4.50194 374.236 4.57598 374.368 4.65001C374.496 4.72604 374.626 4.80007 374.754 4.8761C380.208 8.06948 384.716 12.6575 387.816 18.1718L495.404 209.466C498.412 214.819 499.994 220.857 499.994 227H499.996Z" fill="#73C8CC"></path>
<path d="M441.43 340.493L387.816 435.828C384.714 441.343 380.206 445.931 374.752 449.124C374.472 449.288 374.188 449.448 373.904 449.606C373.89 449.612 373.876 449.62 373.862 449.628C373.858 449.632 373.856 449.632 373.852 449.634C373.848 449.636 373.842 449.638 373.838 449.64C373.54 449.804 373.238 449.964 372.936 450.116C372.906 450.134 372.876 450.15 372.846 450.164C372.808 450.186 372.77 450.204 372.732 450.222C372.724 450.226 372.714 450.23 372.706 450.234C372.63 450.274 372.554 450.312 372.476 450.348C372.454 450.362 372.43 450.374 372.408 450.382C372.34 450.418 372.27 450.453 372.202 450.483C372.192 450.489 372.184 450.495 372.174 450.497C372.146 450.509 372.118 450.521 372.09 450.537C372.064 450.551 372.038 450.563 372.012 450.573C371.748 450.699 371.482 450.819 371.216 450.939C371.028 451.021 370.838 451.103 370.648 451.185C370.628 451.193 370.606 451.203 370.586 451.211C370.566 451.219 370.546 451.227 370.528 451.235C370.394 451.291 370.26 451.347 370.126 451.401C369.968 451.465 369.808 451.527 369.648 451.591C369.602 451.611 369.558 451.627 369.514 451.643C369.398 451.685 369.284 451.729 369.168 451.773C369.02 451.827 368.874 451.881 368.726 451.933C368.614 451.975 368.5 452.015 368.386 452.053C368.32 452.077 368.254 452.099 368.188 452.121C368.182 452.125 368.176 452.127 368.168 452.129C368.04 452.173 367.912 452.215 367.782 452.257C367.596 452.317 367.41 452.377 367.222 452.433C366.896 452.535 366.568 452.629 366.24 452.718C366.108 452.756 365.976 452.792 365.844 452.826C365.69 452.868 365.536 452.908 365.382 452.946C365.24 452.98 365.098 453.016 364.956 453.048C364.784 453.09 364.614 453.128 364.442 453.166C364.422 453.17 364.402 453.174 364.384 453.178C364.268 453.204 364.15 453.23 364.034 453.252C364.014 453.258 363.994 453.262 363.974 453.266C363.966 453.268 363.958 453.27 363.95 453.27C363.934 453.274 363.918 453.278 363.9 453.28C363.846 453.292 363.794 453.304 363.74 453.314C363.572 453.348 363.402 453.38 363.232 453.41C363.232 453.412 363.228 453.412 363.226 453.412C363.108 453.434 362.992 453.454 362.874 453.474C362.776 453.492 362.678 453.508 362.58 453.524C362.266 453.576 361.952 453.624 361.636 453.668C361.588 453.674 361.538 453.68 361.49 453.688C361.434 453.696 361.376 453.702 361.32 453.708C361.268 453.716 361.216 453.722 361.162 453.73C361.078 453.74 360.992 453.75 360.906 453.76C360.718 453.782 360.53 453.802 360.34 453.822C359.978 453.858 359.612 453.89 359.248 453.914C359.164 453.92 359.08 453.926 358.998 453.93C358.754 453.946 358.51 453.958 358.266 453.968C358.264 453.97 358.262 453.97 358.258 453.968C358.162 453.974 358.064 453.978 357.966 453.98C357.822 453.986 357.676 453.99 357.53 453.992H357.522C357.44 453.994 357.356 453.996 357.276 453.996C357.112 453.998 356.948 454 356.784 454H253.726C254.232 448.218 255.974 442.611 258.83 437.563L313.752 340.497V340.493H441.43Z" fill="#8B8AD1"></path>
<path d="M473.44 283.582V283.586L441.43 340.493H313.754L352.582 271.861C356.11 265.627 361.226 260.442 367.406 256.835C373.584 253.229 380.608 251.328 387.76 251.33L455.18 251.324L473.44 283.582Z" fill="#3E6CA7"></path>
<path d="M491.584 251.32L473.44 283.582L455.18 251.324L491.584 251.32Z" fill="#5AA8CC"></path>
</svg><style>@media (prefers-color-scheme: light) { :root { filter: none; } }
@media (prefers-color-scheme: dark) { :root { filter: none; } }
</style></svg>