<svg width="500" height="61" viewBox="0 0 500 61" fill="none" xmlns="http://www.w3.org/2000/svg">
<rect width="55.5556" height="38.0952" fill="#EC4769"/>
<rect x="55.5557" width="55.5556" height="38.0952" fill="#F16681"/>
<rect x="111.111" width="55.5556" height="38.0952" fill="#F78BA0"/>
<rect x="166.667" width="55.5556" height="38.0952" fill="#FBB8C5"/>
<rect x="222.222" width="55.5556" height="38.0952" fill="#B5CBEF"/>
<rect x="277.778" width="55.5556" height="38.0952" fill="#84A5DB"/>
<rect x="333.333" width="55.5556" height="38.0952" fill="#5E84C3"/>
<rect x="388.889" width="55.5556" height="38.0952" fill="#3E68AA"/>
<rect x="444.444" width="55.5556" height="38.0952" fill="#245299"/>
<path d="M5.8832 56.96H4.1832L1.9832 54.72L4.1832 52.46H5.8832L3.6732 54.72L5.8832 56.96ZM7.59422 55.12V53.99H11.8142V55.12H7.59422ZM16.1059 57.62C15.4726 57.62 14.9259 57.4667 14.4659 57.16C14.0059 56.8533 13.6526 56.43 13.4059 55.89C13.1659 55.3433 13.0459 54.7133 13.0459 54C13.0459 53.2867 13.1659 52.66 13.4059 52.12C13.6526 51.5733 14.0026 51.1467 14.4559 50.84C14.9159 50.5333 15.4659 50.38 16.1059 50.38C16.7459 50.38 17.2926 50.5333 17.7459 50.84C18.2059 51.1467 18.5559 51.5733 18.7959 52.12C19.0426 52.66 19.1659 53.2867 19.1659 54C19.1659 54.7133 19.0426 55.3433 18.7959 55.89C18.5559 56.43 18.2059 56.8533 17.7459 57.16C17.2926 57.4667 16.7459 57.62 16.1059 57.62ZM16.1059 56.41C16.4393 56.41 16.7326 56.3133 16.9859 56.12C17.2393 55.92 17.4359 55.64 17.5759 55.28C17.7226 54.92 17.7959 54.4933 17.7959 54C17.7959 53.5 17.7226 53.0733 17.5759 52.72C17.4359 52.36 17.2393 52.0833 16.9859 51.89C16.7326 51.6967 16.4393 51.6 16.1059 51.6C15.7726 51.6 15.4793 51.6967 15.2259 51.89C14.9726 52.0833 14.7726 52.36 14.6259 52.72C14.4859 53.0733 14.4159 53.5 14.4159 54C14.4159 54.4933 14.4859 54.92 14.6259 55.28C14.7726 55.64 14.9726 55.92 15.2259 56.12C15.4793 56.3133 15.7726 56.41 16.1059 56.41ZM20.4966 57.55C20.2432 57.55 20.0399 57.4767 19.8866 57.33C19.7332 57.1767 19.6566 56.99 19.6566 56.77C19.6566 56.55 19.7332 56.3667 19.8866 56.22C20.0399 56.0667 20.2432 55.99 20.4966 55.99C20.7366 55.99 20.9332 56.0667 21.0866 56.22C21.2399 56.3667 21.3166 56.55 21.3166 56.77C21.3166 56.99 21.2399 57.1767 21.0866 57.33C20.9332 57.4767 20.7366 57.55 20.4966 57.55ZM24.9361 57.62C24.4294 57.62 23.9894 57.53 23.6161 57.35C23.2494 57.17 22.9628 56.9233 22.7561 56.61C22.5494 56.2967 22.4294 55.94 22.3961 55.54H23.7161C23.7628 55.8 23.8961 56.02 24.1161 56.2C24.3361 56.38 24.6128 56.47 24.9461 56.47C25.1861 56.47 25.3961 56.41 25.5761 56.29C25.7561 56.17 25.8961 56.01 25.9961 55.81C26.0961 55.6033 26.1461 55.37 26.1461 55.11C26.1461 54.8433 26.0928 54.6133 25.9861 54.42C25.8861 54.2267 25.7461 54.0767 25.5661 53.97C25.3928 53.8633 25.1928 53.81 24.9661 53.81C24.6794 53.81 24.4328 53.88 24.2261 54.02C24.0261 54.1533 23.8828 54.3167 23.7961 54.51H22.4861L23.0661 50.5H26.9961V51.68H24.0661L23.7761 53.24C23.9228 53.0867 24.1194 52.9633 24.3661 52.87C24.6128 52.77 24.8894 52.72 25.1961 52.72C25.5761 52.72 25.9061 52.7867 26.1861 52.92C26.4661 53.0467 26.6994 53.2233 26.8861 53.45C27.0728 53.67 27.2128 53.9233 27.3061 54.21C27.3994 54.49 27.4461 54.7867 27.4461 55.1C27.4461 55.4667 27.3828 55.8033 27.2561 56.11C27.1361 56.4167 26.9628 56.6833 26.7361 56.91C26.5161 57.1367 26.2528 57.3133 25.9461 57.44C25.6461 57.56 25.3094 57.62 24.9361 57.62Z" fill="#1A1C29"/>
<path d="M42.0571 55.12V53.99H46.2771V55.12H42.0571ZM50.5688 57.62C49.9355 57.62 49.3888 57.4667 48.9288 57.16C48.4688 56.8533 48.1155 56.43 47.8688 55.89C47.6288 55.3433 47.5088 54.7133 47.5088 54C47.5088 53.2867 47.6288 52.66 47.8688 52.12C48.1155 51.5733 48.4655 51.1467 48.9188 50.84C49.3788 50.5333 49.9288 50.38 50.5688 50.38C51.2088 50.38 51.7555 50.5333 52.2088 50.84C52.6688 51.1467 53.0188 51.5733 53.2588 52.12C53.5055 52.66 53.6288 53.2867 53.6288 54C53.6288 54.7133 53.5055 55.3433 53.2588 55.89C53.0188 56.43 52.6688 56.8533 52.2088 57.16C51.7555 57.4667 51.2088 57.62 50.5688 57.62ZM50.5688 56.41C50.9022 56.41 51.1955 56.3133 51.4488 56.12C51.7022 55.92 51.8988 55.64 52.0388 55.28C52.1855 54.92 52.2588 54.4933 52.2588 54C52.2588 53.5 52.1855 53.0733 52.0388 52.72C51.8988 52.36 51.7022 52.0833 51.4488 51.89C51.1955 51.6967 50.9022 51.6 50.5688 51.6C50.2355 51.6 49.9422 51.6967 49.6888 51.89C49.4355 52.0833 49.2355 52.36 49.0888 52.72C48.9488 53.0733 48.8788 53.5 48.8788 54C48.8788 54.4933 48.9488 54.92 49.0888 55.28C49.2355 55.64 49.4355 55.92 49.6888 56.12C49.9422 56.3133 50.2355 56.41 50.5688 56.41ZM54.9595 57.55C54.7061 57.55 54.5028 57.4767 54.3495 57.33C54.1961 57.1767 54.1195 56.99 54.1195 56.77C54.1195 56.55 54.1961 56.3667 54.3495 56.22C54.5028 56.0667 54.7061 55.99 54.9595 55.99C55.1995 55.99 55.3961 56.0667 55.5495 56.22C55.7028 56.3667 55.7795 56.55 55.7795 56.77C55.7795 56.99 55.7028 57.1767 55.5495 57.33C55.3961 57.4767 55.1995 57.55 54.9595 57.55ZM60.099 57.5V56.23H56.659V55.16L59.919 50.5H61.449V55.06H62.359V56.23H61.449V57.5H60.099ZM58.099 55.06H60.189V51.99L58.099 55.06Z" fill="#1A1C29"/>
<path d="M98.2964 55.12V53.99H102.516V55.12H98.2964ZM106.808 57.62C106.175 57.62 105.628 57.4667 105.168 57.16C104.708 56.8533 104.355 56.43 104.108 55.89C103.868 55.3433 103.748 54.7133 103.748 54C103.748 53.2867 103.868 52.66 104.108 52.12C104.355 51.5733 104.705 51.1467 105.158 50.84C105.618 50.5333 106.168 50.38 106.808 50.38C107.448 50.38 107.995 50.5333 108.448 50.84C108.908 51.1467 109.258 51.5733 109.498 52.12C109.745 52.66 109.868 53.2867 109.868 54C109.868 54.7133 109.745 55.3433 109.498 55.89C109.258 56.43 108.908 56.8533 108.448 57.16C107.995 57.4667 107.448 57.62 106.808 57.62ZM106.808 56.41C107.141 56.41 107.435 56.3133 107.688 56.12C107.941 55.92 108.138 55.64 108.278 55.28C108.425 54.92 108.498 54.4933 108.498 54C108.498 53.5 108.425 53.0733 108.278 52.72C108.138 52.36 107.941 52.0833 107.688 51.89C107.435 51.6967 107.141 51.6 106.808 51.6C106.475 51.6 106.181 51.6967 105.928 51.89C105.675 52.0833 105.475 52.36 105.328 52.72C105.188 53.0733 105.118 53.5 105.118 54C105.118 54.4933 105.188 54.92 105.328 55.28C105.475 55.64 105.675 55.92 105.928 56.12C106.181 56.3133 106.475 56.41 106.808 56.41ZM111.199 57.55C110.945 57.55 110.742 57.4767 110.589 57.33C110.435 57.1767 110.359 56.99 110.359 56.77C110.359 56.55 110.435 56.3667 110.589 56.22C110.742 56.0667 110.945 55.99 111.199 55.99C111.439 55.99 111.635 56.0667 111.789 56.22C111.942 56.3667 112.019 56.55 112.019 56.77C112.019 56.99 111.942 57.1767 111.789 57.33C111.635 57.4767 111.439 57.55 111.199 57.55ZM115.448 57.62C114.995 57.62 114.578 57.5367 114.198 57.37C113.818 57.2033 113.515 56.95 113.288 56.61C113.062 56.27 112.942 55.84 112.928 55.32H114.248C114.255 55.54 114.305 55.74 114.398 55.92C114.492 56.0933 114.628 56.2333 114.808 56.34C114.988 56.44 115.202 56.49 115.448 56.49C115.682 56.49 115.882 56.4433 116.048 56.35C116.215 56.2567 116.342 56.1333 116.428 55.98C116.515 55.8267 116.558 55.65 116.558 55.45C116.558 55.2167 116.498 55.0233 116.378 54.87C116.265 54.71 116.105 54.59 115.898 54.51C115.698 54.43 115.468 54.39 115.208 54.39H114.688V53.28H115.208C115.535 53.28 115.808 53.2033 116.028 53.05C116.255 52.8967 116.368 52.6667 116.368 52.36C116.368 52.1067 116.285 51.9033 116.118 51.75C115.958 51.5967 115.732 51.52 115.438 51.52C115.118 51.52 114.868 51.6133 114.688 51.8C114.508 51.9867 114.408 52.2167 114.388 52.49H113.068C113.088 52.05 113.198 51.6733 113.398 51.36C113.605 51.04 113.882 50.7967 114.228 50.63C114.575 50.4633 114.978 50.38 115.438 50.38C115.925 50.38 116.335 50.4667 116.668 50.64C117.008 50.8067 117.265 51.0333 117.438 51.32C117.612 51.6067 117.698 51.9167 117.698 52.25C117.698 52.5233 117.645 52.7667 117.538 52.98C117.438 53.1933 117.302 53.37 117.128 53.51C116.955 53.65 116.765 53.75 116.558 53.81C116.818 53.8633 117.045 53.9667 117.238 54.12C117.438 54.2667 117.592 54.4567 117.698 54.69C117.812 54.9233 117.868 55.1933 117.868 55.5C117.868 55.88 117.775 56.2333 117.588 56.56C117.408 56.88 117.135 57.1367 116.768 57.33C116.408 57.5233 115.968 57.62 115.448 57.62Z" fill="#1A1C29"/>
<path d="M154.423 55.12V53.99H158.643V55.12H154.423ZM162.935 57.62C162.302 57.62 161.755 57.4667 161.295 57.16C160.835 56.8533 160.482 56.43 160.235 55.89C159.995 55.3433 159.875 54.7133 159.875 54C159.875 53.2867 159.995 52.66 160.235 52.12C160.482 51.5733 160.832 51.1467 161.285 50.84C161.745 50.5333 162.295 50.38 162.935 50.38C163.575 50.38 164.122 50.5333 164.575 50.84C165.035 51.1467 165.385 51.5733 165.625 52.12C165.872 52.66 165.995 53.2867 165.995 54C165.995 54.7133 165.872 55.3433 165.625 55.89C165.385 56.43 165.035 56.8533 164.575 57.16C164.122 57.4667 163.575 57.62 162.935 57.62ZM162.935 56.41C163.268 56.41 163.562 56.3133 163.815 56.12C164.068 55.92 164.265 55.64 164.405 55.28C164.552 54.92 164.625 54.4933 164.625 54C164.625 53.5 164.552 53.0733 164.405 52.72C164.265 52.36 164.068 52.0833 163.815 51.89C163.562 51.6967 163.268 51.6 162.935 51.6C162.602 51.6 162.308 51.6967 162.055 51.89C161.802 52.0833 161.602 52.36 161.455 52.72C161.315 53.0733 161.245 53.5 161.245 54C161.245 54.4933 161.315 54.92 161.455 55.28C161.602 55.64 161.802 55.92 162.055 56.12C162.308 56.3133 162.602 56.41 162.935 56.41ZM167.326 57.55C167.072 57.55 166.869 57.4767 166.716 57.33C166.562 57.1767 166.486 56.99 166.486 56.77C166.486 56.55 166.562 56.3667 166.716 56.22C166.869 56.0667 167.072 55.99 167.326 55.99C167.566 55.99 167.762 56.0667 167.916 56.22C168.069 56.3667 168.146 56.55 168.146 56.77C168.146 56.99 168.069 57.1767 167.916 57.33C167.762 57.4767 167.566 57.55 167.326 57.55ZM169.075 57.5V56.51C169.502 56.17 169.915 55.83 170.315 55.49C170.722 55.15 171.085 54.8133 171.405 54.48C171.725 54.14 171.979 53.81 172.165 53.49C172.352 53.17 172.445 52.86 172.445 52.56C172.445 52.3733 172.412 52.2033 172.345 52.05C172.279 51.89 172.172 51.7633 172.025 51.67C171.885 51.57 171.699 51.52 171.465 51.52C171.232 51.52 171.035 51.5733 170.875 51.68C170.715 51.7867 170.595 51.93 170.515 52.11C170.435 52.2833 170.395 52.48 170.395 52.7H169.085C169.105 52.1867 169.222 51.7567 169.435 51.41C169.649 51.0633 169.935 50.8067 170.295 50.64C170.655 50.4667 171.059 50.38 171.505 50.38C171.999 50.38 172.415 50.4733 172.755 50.66C173.095 50.84 173.352 51.0867 173.525 51.4C173.705 51.7133 173.795 52.0733 173.795 52.48C173.795 52.7867 173.739 53.0867 173.625 53.38C173.519 53.6733 173.365 53.96 173.165 54.24C172.972 54.5133 172.752 54.7767 172.505 55.03C172.259 55.2833 172.002 55.5267 171.735 55.76C171.469 55.9867 171.209 56.2 170.955 56.4H173.965V57.5H169.075Z" fill="#1A1C29"/>
<path d="M209.654 55.12V53.99H213.874V55.12H209.654ZM218.166 57.62C217.532 57.62 216.986 57.4667 216.526 57.16C216.066 56.8533 215.712 56.43 215.466 55.89C215.226 55.3433 215.106 54.7133 215.106 54C215.106 53.2867 215.226 52.66 215.466 52.12C215.712 51.5733 216.062 51.1467 216.516 50.84C216.976 50.5333 217.526 50.38 218.166 50.38C218.806 50.38 219.352 50.5333 219.806 50.84C220.266 51.1467 220.616 51.5733 220.856 52.12C221.102 52.66 221.226 53.2867 221.226 54C221.226 54.7133 221.102 55.3433 220.856 55.89C220.616 56.43 220.266 56.8533 219.806 57.16C219.352 57.4667 218.806 57.62 218.166 57.62ZM218.166 56.41C218.499 56.41 218.792 56.3133 219.046 56.12C219.299 55.92 219.496 55.64 219.636 55.28C219.782 54.92 219.856 54.4933 219.856 54C219.856 53.5 219.782 53.0733 219.636 52.72C219.496 52.36 219.299 52.0833 219.046 51.89C218.792 51.6967 218.499 51.6 218.166 51.6C217.832 51.6 217.539 51.6967 217.286 51.89C217.032 52.0833 216.832 52.36 216.686 52.72C216.546 53.0733 216.476 53.5 216.476 54C216.476 54.4933 216.546 54.92 216.686 55.28C216.832 55.64 217.032 55.92 217.286 56.12C217.539 56.3133 217.832 56.41 218.166 56.41ZM222.556 57.55C222.303 57.55 222.099 57.4767 221.946 57.33C221.793 57.1767 221.716 56.99 221.716 56.77C221.716 56.55 221.793 56.3667 221.946 56.22C222.099 56.0667 222.303 55.99 222.556 55.99C222.796 55.99 222.993 56.0667 223.146 56.22C223.299 56.3667 223.376 56.55 223.376 56.77C223.376 56.99 223.299 57.1767 223.146 57.33C222.993 57.4767 222.796 57.55 222.556 57.55ZM225.024 57.5V52.05L223.784 52.38V51.3L225.604 50.5H226.424V57.5H225.024Z" fill="#1A1C29"/>
<path d="M250.499 57.62C249.866 57.62 249.319 57.4667 248.859 57.16C248.399 56.8533 248.046 56.43 247.799 55.89C247.559 55.3433 247.439 54.7133 247.439 54C247.439 53.2867 247.559 52.66 247.799 52.12C248.046 51.5733 248.396 51.1467 248.849 50.84C249.309 50.5333 249.859 50.38 250.499 50.38C251.139 50.38 251.686 50.5333 252.139 50.84C252.599 51.1467 252.949 51.5733 253.189 52.12C253.436 52.66 253.559 53.2867 253.559 54C253.559 54.7133 253.436 55.3433 253.189 55.89C252.949 56.43 252.599 56.8533 252.139 57.16C251.686 57.4667 251.139 57.62 250.499 57.62ZM250.499 56.41C250.833 56.41 251.126 56.3133 251.379 56.12C251.633 55.92 251.829 55.64 251.969 55.28C252.116 54.92 252.189 54.4933 252.189 54C252.189 53.5 252.116 53.0733 251.969 52.72C251.829 52.36 251.633 52.0833 251.379 51.89C251.126 51.6967 250.833 51.6 250.499 51.6C250.166 51.6 249.873 51.6967 249.619 51.89C249.366 52.0833 249.166 52.36 249.019 52.72C248.879 53.0733 248.809 53.5 248.809 54C248.809 54.4933 248.879 54.92 249.019 55.28C249.166 55.64 249.366 55.92 249.619 56.12C249.873 56.3133 250.166 56.41 250.499 56.41Z" fill="#1A1C29"/>
<path d="M283.049 57.62C282.416 57.62 281.869 57.4667 281.409 57.16C280.949 56.8533 280.596 56.43 280.349 55.89C280.109 55.3433 279.989 54.7133 279.989 54C279.989 53.2867 280.109 52.66 280.349 52.12C280.596 51.5733 280.946 51.1467 281.399 50.84C281.859 50.5333 282.409 50.38 283.049 50.38C283.689 50.38 284.236 50.5333 284.689 50.84C285.149 51.1467 285.499 51.5733 285.739 52.12C285.986 52.66 286.109 53.2867 286.109 54C286.109 54.7133 285.986 55.3433 285.739 55.89C285.499 56.43 285.149 56.8533 284.689 57.16C284.236 57.4667 283.689 57.62 283.049 57.62ZM283.049 56.41C283.383 56.41 283.676 56.3133 283.929 56.12C284.183 55.92 284.379 55.64 284.519 55.28C284.666 54.92 284.739 54.4933 284.739 54C284.739 53.5 284.666 53.0733 284.519 52.72C284.379 52.36 284.183 52.0833 283.929 51.89C283.676 51.6967 283.383 51.6 283.049 51.6C282.716 51.6 282.423 51.6967 282.169 51.89C281.916 52.0833 281.716 52.36 281.569 52.72C281.429 53.0733 281.359 53.5 281.359 54C281.359 54.4933 281.429 54.92 281.569 55.28C281.716 55.64 281.916 55.92 282.169 56.12C282.423 56.3133 282.716 56.41 283.049 56.41ZM287.44 57.55C287.187 57.55 286.983 57.4767 286.83 57.33C286.677 57.1767 286.6 56.99 286.6 56.77C286.6 56.55 286.677 56.3667 286.83 56.22C286.983 56.0667 287.187 55.99 287.44 55.99C287.68 55.99 287.877 56.0667 288.03 56.22C288.183 56.3667 288.26 56.55 288.26 56.77C288.26 56.99 288.183 57.1767 288.03 57.33C287.877 57.4767 287.68 57.55 287.44 57.55ZM289.907 57.5V52.05L288.667 52.38V51.3L290.487 50.5H291.307V57.5H289.907Z" fill="#1A1C29"/>
<path d="M332.588 57.62C331.955 57.62 331.408 57.4667 330.948 57.16C330.488 56.8533 330.135 56.43 329.888 55.89C329.648 55.3433 329.528 54.7133 329.528 54C329.528 53.2867 329.648 52.66 329.888 52.12C330.135 51.5733 330.485 51.1467 330.938 50.84C331.398 50.5333 331.948 50.38 332.588 50.38C333.228 50.38 333.775 50.5333 334.228 50.84C334.688 51.1467 335.038 51.5733 335.278 52.12C335.525 52.66 335.648 53.2867 335.648 54C335.648 54.7133 335.525 55.3433 335.278 55.89C335.038 56.43 334.688 56.8533 334.228 57.16C333.775 57.4667 333.228 57.62 332.588 57.62ZM332.588 56.41C332.922 56.41 333.215 56.3133 333.468 56.12C333.722 55.92 333.918 55.64 334.058 55.28C334.205 54.92 334.278 54.4933 334.278 54C334.278 53.5 334.205 53.0733 334.058 52.72C333.918 52.36 333.722 52.0833 333.468 51.89C333.215 51.6967 332.922 51.6 332.588 51.6C332.255 51.6 331.962 51.6967 331.708 51.89C331.455 52.0833 331.255 52.36 331.108 52.72C330.968 53.0733 330.898 53.5 330.898 54C330.898 54.4933 330.968 54.92 331.108 55.28C331.255 55.64 331.455 55.92 331.708 56.12C331.962 56.3133 332.255 56.41 332.588 56.41ZM336.979 57.55C336.726 57.55 336.522 57.4767 336.369 57.33C336.216 57.1767 336.139 56.99 336.139 56.77C336.139 56.55 336.216 56.3667 336.369 56.22C336.522 56.0667 336.726 55.99 336.979 55.99C337.219 55.99 337.416 56.0667 337.569 56.22C337.722 56.3667 337.799 56.55 337.799 56.77C337.799 56.99 337.722 57.1767 337.569 57.33C337.416 57.4767 337.219 57.55 336.979 57.55ZM338.729 57.5V56.51C339.155 56.17 339.569 55.83 339.969 55.49C340.375 55.15 340.739 54.8133 341.059 54.48C341.379 54.14 341.632 53.81 341.819 53.49C342.005 53.17 342.099 52.86 342.099 52.56C342.099 52.3733 342.065 52.2033 341.999 52.05C341.932 51.89 341.825 51.7633 341.679 51.67C341.539 51.57 341.352 51.52 341.119 51.52C340.885 51.52 340.689 51.5733 340.529 51.68C340.369 51.7867 340.249 51.93 340.169 52.11C340.089 52.2833 340.049 52.48 340.049 52.7H338.739C338.759 52.1867 338.875 51.7567 339.089 51.41C339.302 51.0633 339.589 50.8067 339.949 50.64C340.309 50.4667 340.712 50.38 341.159 50.38C341.652 50.38 342.069 50.4733 342.409 50.66C342.749 50.84 343.005 51.0867 343.179 51.4C343.359 51.7133 343.449 52.0733 343.449 52.48C343.449 52.7867 343.392 53.0867 343.279 53.38C343.172 53.6733 343.019 53.96 342.819 54.24C342.625 54.5133 342.405 54.7767 342.159 55.03C341.912 55.2833 341.655 55.5267 341.389 55.76C341.122 55.9867 340.862 56.2 340.609 56.4H343.619V57.5H338.729Z" fill="#1A1C29"/>
<path d="M389.334 57.62C388.701 57.62 388.154 57.4667 387.694 57.16C387.234 56.8533 386.881 56.43 386.634 55.89C386.394 55.3433 386.274 54.7133 386.274 54C386.274 53.2867 386.394 52.66 386.634 52.12C386.881 51.5733 387.231 51.1467 387.684 50.84C388.144 50.5333 388.694 50.38 389.334 50.38C389.974 50.38 390.521 50.5333 390.974 50.84C391.434 51.1467 391.784 51.5733 392.024 52.12C392.271 52.66 392.394 53.2867 392.394 54C392.394 54.7133 392.271 55.3433 392.024 55.89C391.784 56.43 391.434 56.8533 390.974 57.16C390.521 57.4667 389.974 57.62 389.334 57.62ZM389.334 56.41C389.668 56.41 389.961 56.3133 390.214 56.12C390.468 55.92 390.664 55.64 390.804 55.28C390.951 54.92 391.024 54.4933 391.024 54C391.024 53.5 390.951 53.0733 390.804 52.72C390.664 52.36 390.468 52.0833 390.214 51.89C389.961 51.6967 389.668 51.6 389.334 51.6C389.001 51.6 388.708 51.6967 388.454 51.89C388.201 52.0833 388.001 52.36 387.854 52.72C387.714 53.0733 387.644 53.5 387.644 54C387.644 54.4933 387.714 54.92 387.854 55.28C388.001 55.64 388.201 55.92 388.454 56.12C388.708 56.3133 389.001 56.41 389.334 56.41ZM393.725 57.55C393.472 57.55 393.268 57.4767 393.115 57.33C392.962 57.1767 392.885 56.99 392.885 56.77C392.885 56.55 392.962 56.3667 393.115 56.22C393.268 56.0667 393.472 55.99 393.725 55.99C393.965 55.99 394.162 56.0667 394.315 56.22C394.468 56.3667 394.545 56.55 394.545 56.77C394.545 56.99 394.468 57.1767 394.315 57.33C394.162 57.4767 393.965 57.55 393.725 57.55ZM397.975 57.62C397.521 57.62 397.105 57.5367 396.725 57.37C396.345 57.2033 396.041 56.95 395.815 56.61C395.588 56.27 395.468 55.84 395.455 55.32H396.775C396.781 55.54 396.831 55.74 396.925 55.92C397.018 56.0933 397.155 56.2333 397.335 56.34C397.515 56.44 397.728 56.49 397.975 56.49C398.208 56.49 398.408 56.4433 398.575 56.35C398.741 56.2567 398.868 56.1333 398.955 55.98C399.041 55.8267 399.085 55.65 399.085 55.45C399.085 55.2167 399.025 55.0233 398.905 54.87C398.791 54.71 398.631 54.59 398.425 54.51C398.225 54.43 397.995 54.39 397.735 54.39H397.215V53.28H397.735C398.061 53.28 398.335 53.2033 398.555 53.05C398.781 52.8967 398.895 52.6667 398.895 52.36C398.895 52.1067 398.811 51.9033 398.645 51.75C398.485 51.5967 398.258 51.52 397.965 51.52C397.645 51.52 397.395 51.6133 397.215 51.8C397.035 51.9867 396.935 52.2167 396.915 52.49H395.595C395.615 52.05 395.725 51.6733 395.925 51.36C396.131 51.04 396.408 50.7967 396.755 50.63C397.101 50.4633 397.505 50.38 397.965 50.38C398.451 50.38 398.861 50.4667 399.195 50.64C399.535 50.8067 399.791 51.0333 399.965 51.32C400.138 51.6067 400.225 51.9167 400.225 52.25C400.225 52.5233 400.171 52.7667 400.065 52.98C399.965 53.1933 399.828 53.37 399.655 53.51C399.481 53.65 399.291 53.75 399.085 53.81C399.345 53.8633 399.571 53.9667 399.765 54.12C399.965 54.2667 400.118 54.4567 400.225 54.69C400.338 54.9233 400.395 55.1933 400.395 55.5C400.395 55.88 400.301 56.2333 400.115 56.56C399.935 56.88 399.661 57.1367 399.295 57.33C398.935 57.5233 398.495 57.62 397.975 57.62Z" fill="#1A1C29"/>
<path d="M440.856 57.62C440.223 57.62 439.676 57.4667 439.216 57.16C438.756 56.8533 438.403 56.43 438.156 55.89C437.916 55.3433 437.796 54.7133 437.796 54C437.796 53.2867 437.916 52.66 438.156 52.12C438.403 51.5733 438.753 51.1467 439.206 50.84C439.666 50.5333 440.216 50.38 440.856 50.38C441.496 50.38 442.043 50.5333 442.496 50.84C442.956 51.1467 443.306 51.5733 443.546 52.12C443.793 52.66 443.916 53.2867 443.916 54C443.916 54.7133 443.793 55.3433 443.546 55.89C443.306 56.43 442.956 56.8533 442.496 57.16C442.043 57.4667 441.496 57.62 440.856 57.62ZM440.856 56.41C441.189 56.41 441.483 56.3133 441.736 56.12C441.989 55.92 442.186 55.64 442.326 55.28C442.473 54.92 442.546 54.4933 442.546 54C442.546 53.5 442.473 53.0733 442.326 52.72C442.186 52.36 441.989 52.0833 441.736 51.89C441.483 51.6967 441.189 51.6 440.856 51.6C440.523 51.6 440.229 51.6967 439.976 51.89C439.723 52.0833 439.523 52.36 439.376 52.72C439.236 53.0733 439.166 53.5 439.166 54C439.166 54.4933 439.236 54.92 439.376 55.28C439.523 55.64 439.723 55.92 439.976 56.12C440.229 56.3133 440.523 56.41 440.856 56.41ZM445.247 57.55C444.993 57.55 444.79 57.4767 444.637 57.33C444.483 57.1767 444.407 56.99 444.407 56.77C444.407 56.55 444.483 56.3667 444.637 56.22C444.79 56.0667 444.993 55.99 445.247 55.99C445.487 55.99 445.683 56.0667 445.837 56.22C445.99 56.3667 446.067 56.55 446.067 56.77C446.067 56.99 445.99 57.1767 445.837 57.33C445.683 57.4767 445.487 57.55 445.247 57.55ZM450.386 57.5V56.23H446.946V55.16L450.206 50.5H451.736V55.06H452.646V56.23H451.736V57.5H450.386ZM448.386 55.06H450.476V51.99L448.386 55.06Z" fill="#1A1C29"/>
<path d="M479.768 56.96L481.978 54.72L479.768 52.46H481.478L483.678 54.72L481.478 56.96H479.768ZM488.139 57.62C487.506 57.62 486.959 57.4667 486.499 57.16C486.039 56.8533 485.686 56.43 485.439 55.89C485.199 55.3433 485.079 54.7133 485.079 54C485.079 53.2867 485.199 52.66 485.439 52.12C485.686 51.5733 486.036 51.1467 486.489 50.84C486.949 50.5333 487.499 50.38 488.139 50.38C488.779 50.38 489.326 50.5333 489.779 50.84C490.239 51.1467 490.589 51.5733 490.829 52.12C491.076 52.66 491.199 53.2867 491.199 54C491.199 54.7133 491.076 55.3433 490.829 55.89C490.589 56.43 490.239 56.8533 489.779 57.16C489.326 57.4667 488.779 57.62 488.139 57.62ZM488.139 56.41C488.472 56.41 488.766 56.3133 489.019 56.12C489.272 55.92 489.469 55.64 489.609 55.28C489.756 54.92 489.829 54.4933 489.829 54C489.829 53.5 489.756 53.0733 489.609 52.72C489.469 52.36 489.272 52.0833 489.019 51.89C488.766 51.6967 488.472 51.6 488.139 51.6C487.806 51.6 487.512 51.6967 487.259 51.89C487.006 52.0833 486.806 52.36 486.659 52.72C486.519 53.0733 486.449 53.5 486.449 54C486.449 54.4933 486.519 54.92 486.659 55.28C486.806 55.64 487.006 55.92 487.259 56.12C487.512 56.3133 487.806 56.41 488.139 56.41ZM492.53 57.55C492.276 57.55 492.073 57.4767 491.92 57.33C491.766 57.1767 491.69 56.99 491.69 56.77C491.69 56.55 491.766 56.3667 491.92 56.22C492.073 56.0667 492.276 55.99 492.53 55.99C492.77 55.99 492.966 56.0667 493.12 56.22C493.273 56.3667 493.35 56.55 493.35 56.77C493.35 56.99 493.273 57.1767 493.12 57.33C492.966 57.4767 492.77 57.55 492.53 57.55ZM496.969 57.62C496.463 57.62 496.023 57.53 495.649 57.35C495.283 57.17 494.996 56.9233 494.789 56.61C494.583 56.2967 494.463 55.94 494.429 55.54H495.749C495.796 55.8 495.929 56.02 496.149 56.2C496.369 56.38 496.646 56.47 496.979 56.47C497.219 56.47 497.429 56.41 497.609 56.29C497.789 56.17 497.929 56.01 498.029 55.81C498.129 55.6033 498.179 55.37 498.179 55.11C498.179 54.8433 498.126 54.6133 498.019 54.42C497.919 54.2267 497.779 54.0767 497.599 53.97C497.426 53.8633 497.226 53.81 496.999 53.81C496.713 53.81 496.466 53.88 496.259 54.02C496.059 54.1533 495.916 54.3167 495.829 54.51H494.519L495.099 50.5H499.029V51.68H496.099L495.809 53.24C495.956 53.0867 496.153 52.9633 496.399 52.87C496.646 52.77 496.923 52.72 497.229 52.72C497.609 52.72 497.939 52.7867 498.219 52.92C498.499 53.0467 498.733 53.2233 498.919 53.45C499.106 53.67 499.246 53.9233 499.339 54.21C499.433 54.49 499.479 54.7867 499.479 55.1C499.479 55.4667 499.416 55.8033 499.289 56.11C499.169 56.4167 498.996 56.6833 498.769 56.91C498.549 57.1367 498.286 57.3133 497.979 57.44C497.679 57.56 497.343 57.62 496.969 57.62Z" fill="#1A1C29"/>
</svg>
