<svg width="158" height="26" viewBox="0 0 158 26" fill="none" xmlns="http://www.w3.org/2000/svg">
<g clip-path="url(#clip0_3893_41114)">
<path fill-rule="evenodd" clip-rule="evenodd" d="M11.4869 0L21.0249 5.6532L20.3839 6.77866L18.7732 5.82667L12.125 1.88403V11.9444H10.8477V1.88206L4.16323 5.83247L4.16181 5.83331L2.5657 6.78222L1.92188 5.65842L3.52084 4.70782L11.4869 0Z" fill="#FD9701"/>
<path fill-rule="evenodd" clip-rule="evenodd" d="M0.0372411 10.9461L0 9.06283L1.27705 9.03662L1.3146 10.9354L1.28688 18.7789L9.83924 13.749L10.4779 14.8758L1.92338 19.9071L8.62452 23.8292L8.62594 23.8301L10.2307 24.7637L9.59717 25.8936L7.99102 24.9591L7.9896 24.9583L0.00423973 20.2845L0.0372411 10.9461Z" fill="#219CEA"/>
<path fill-rule="evenodd" clip-rule="evenodd" d="M22.9237 9.01978L22.9323 10.9056L22.9516 20.2873L14.9962 24.9273L13.4138 25.9018L12.7529 24.7883L14.3484 23.8058L21.0308 19.9082L12.4785 14.8783L13.1172 13.7514L21.6711 18.7823L21.655 10.91L21.655 10.9083L21.6464 9.02583L22.9237 9.01978Z" fill="#59C959"/>
<path d="M37.0556 18.8193C36.2626 18.8193 35.5532 18.6811 34.9271 18.4048C34.3115 18.1285 33.8211 17.7246 33.456 17.1931C33.1012 16.6617 32.9186 16.0187 32.9082 15.264H35.1462C35.1566 15.5935 35.2401 15.8911 35.3966 16.1568C35.5532 16.4226 35.767 16.6351 36.0383 16.7946C36.32 16.9433 36.6539 17.0178 37.04 17.0178C37.3738 17.0178 37.6607 16.9646 37.9007 16.8583C38.1512 16.7414 38.3442 16.582 38.4798 16.38C38.6154 16.1781 38.6833 15.9389 38.6833 15.6626C38.6833 15.3438 38.605 15.078 38.4485 14.8655C38.3024 14.6529 38.0938 14.4722 37.8225 14.3234C37.5616 14.1746 37.2538 14.0417 36.8991 13.9248C36.5548 13.7973 36.1896 13.6644 35.8036 13.5262C34.9375 13.2393 34.275 12.8566 33.8159 12.3783C33.3673 11.9001 33.143 11.2676 33.143 10.4811C33.143 9.81151 33.2995 9.23756 33.6125 8.75927C33.9359 8.28098 34.3794 7.91429 34.9428 7.6592C35.5062 7.40411 36.1479 7.27657 36.8678 7.27657C37.6086 7.27657 38.2555 7.40941 38.8085 7.67514C39.3719 7.93023 39.8153 8.30222 40.1388 8.79116C40.4726 9.2801 40.6448 9.85405 40.6553 10.513H38.4016C38.3911 10.2686 38.3181 10.04 38.1825 9.82745C38.0572 9.60425 37.8798 9.42888 37.6503 9.30133C37.4208 9.16314 37.1495 9.09407 36.8365 9.09407C36.5652 9.08343 36.3148 9.12596 36.0853 9.22162C35.8662 9.31728 35.6888 9.46076 35.5532 9.65208C35.4279 9.83275 35.3653 10.0613 35.3653 10.3376C35.3653 10.6034 35.4279 10.8266 35.5532 11.0072C35.6888 11.1879 35.8714 11.3473 36.1009 11.4855C36.3304 11.6131 36.6017 11.7353 36.9148 11.8522C37.2278 11.9585 37.5668 12.0701 37.932 12.187C38.4746 12.3783 38.9754 12.6068 39.4345 12.8726C39.8936 13.1277 40.2587 13.4625 40.53 13.877C40.8013 14.2915 40.937 14.8389 40.937 15.5191C40.937 16.1037 40.7857 16.6458 40.4831 17.1453C40.1805 17.6448 39.7423 18.0488 39.1684 18.357C38.605 18.6652 37.9007 18.8193 37.0556 18.8193ZM45.3428 18.8193C44.6855 18.8193 44.1429 18.713 43.7152 18.5005C43.2874 18.2773 42.9691 17.985 42.7605 17.6236C42.5622 17.2516 42.4631 16.8424 42.4631 16.396C42.4631 15.9071 42.5831 15.4766 42.8231 15.1046C43.0735 14.7326 43.4439 14.4403 43.9343 14.2277C44.4351 14.0152 45.0611 13.9089 45.8123 13.9089H47.7687C47.7687 13.5156 47.7165 13.1914 47.6122 12.9363C47.5078 12.6706 47.3461 12.474 47.127 12.3465C46.9079 12.2189 46.6157 12.1551 46.2506 12.1551C45.8541 12.1551 45.515 12.2455 45.2333 12.4262C44.962 12.5963 44.7951 12.8619 44.7325 13.2233H42.6822C42.7344 12.6494 42.917 12.1551 43.23 11.7406C43.5535 11.3155 43.976 10.986 44.4977 10.7522C45.0298 10.5183 45.6193 10.4014 46.2662 10.4014C47.007 10.4014 47.6487 10.5289 48.1912 10.784C48.7338 11.0391 49.1511 11.4058 49.4433 11.8841C49.7354 12.3624 49.8815 12.9523 49.8815 13.6538V18.628H48.0973L47.8626 17.4004C47.7478 17.613 47.6122 17.8043 47.4557 17.9744C47.2992 18.1444 47.1165 18.2932 46.9079 18.4208C46.6992 18.5483 46.4645 18.644 46.2036 18.7077C45.9428 18.7822 45.6558 18.8193 45.3428 18.8193ZM45.8437 17.1613C46.1149 17.1613 46.3549 17.1134 46.5636 17.0178C46.7827 16.9115 46.9705 16.7733 47.127 16.6033C47.2835 16.4226 47.4035 16.2206 47.487 15.9974C47.5809 15.7636 47.6435 15.5138 47.6748 15.2481V15.2321H46.0628C45.7393 15.2321 45.4732 15.2747 45.2646 15.3597C45.0663 15.4341 44.9203 15.5457 44.8264 15.6945C44.7325 15.8433 44.6855 16.0134 44.6855 16.2047C44.6855 16.4172 44.7325 16.5926 44.8264 16.7308C44.9203 16.869 45.0559 16.9752 45.2333 17.0497C45.4106 17.1241 45.6141 17.1613 45.8437 17.1613ZM55.2487 22.3268C54.4974 22.3268 53.8401 22.2311 53.2767 22.0398C52.7133 21.8592 52.275 21.5775 51.962 21.1948C51.6595 20.8229 51.5082 20.3605 51.5082 19.8078C51.5082 19.4358 51.6021 19.0851 51.7899 18.7556C51.9777 18.4261 52.249 18.1285 52.6037 17.8628C52.9689 17.5864 53.4228 17.3526 53.9653 17.1613L54.7635 18.2135C54.2836 18.3729 53.934 18.5695 53.7149 18.8034C53.5062 19.0478 53.4019 19.3083 53.4019 19.5846C53.4019 19.829 53.4801 20.0363 53.6366 20.2064C53.8036 20.3765 54.0227 20.4987 54.294 20.5731C54.5757 20.6581 54.8887 20.7006 55.233 20.7006C55.5668 20.7006 55.8541 20.6581 56.0939 20.5731C56.3443 20.4881 56.5371 20.3605 56.673 20.1904C56.8189 20.031 56.8921 19.8397 56.8921 19.6165C56.8921 19.3295 56.7931 19.0957 56.5947 18.915C56.3963 18.7343 56 18.6227 55.4053 18.5802C54.873 18.5377 54.3983 18.4792 53.981 18.4048C53.574 18.3198 53.2141 18.2241 52.9011 18.1178C52.5881 18.0009 52.322 17.8734 52.1029 17.7352C51.8942 17.597 51.7221 17.4589 51.5864 17.3207V16.954L53.261 15.1205L54.7791 15.6148L52.8072 17.5917L53.4019 16.5395C53.5167 16.6033 53.6262 16.667 53.7305 16.7308C53.8454 16.7839 53.9862 16.8371 54.1531 16.8902C54.3201 16.9328 54.5392 16.9752 54.8104 17.0178C55.0818 17.0603 55.426 17.0975 55.8435 17.1294C56.5321 17.1931 57.0955 17.326 57.5338 17.5279C57.9826 17.7299 58.3113 18.0009 58.5197 18.341C58.7282 18.6706 58.8328 19.0797 58.8328 19.5687C58.8328 20.047 58.7025 20.4934 58.4415 20.9079C58.1911 21.333 57.7998 21.6731 57.2677 21.9282C56.7356 22.194 56.0626 22.3268 55.2487 22.3268ZM55.2487 16.2525C54.5913 16.2525 54.0227 16.125 53.5427 15.8699C53.0732 15.6041 52.7081 15.2534 52.4472 14.8176C52.1968 14.3712 52.0716 13.877 52.0716 13.3349C52.0716 12.7929 52.1968 12.3039 52.4472 11.8682C52.7081 11.4218 53.0732 11.0657 53.5427 10.8C54.0227 10.5342 54.5913 10.4014 55.2487 10.4014C55.9167 10.4014 56.4852 10.5342 56.9547 10.8C57.4348 11.0657 57.7998 11.4218 58.0502 11.8682C58.3006 12.3039 58.4258 12.7929 58.4258 13.3349C58.4258 13.877 58.3006 14.3712 58.0502 14.8176C57.7998 15.2534 57.4348 15.6041 56.9547 15.8699C56.4852 16.125 55.9167 16.2525 55.2487 16.2525ZM55.2487 14.6104C55.6557 14.6104 55.9843 14.5041 56.2348 14.2915C56.4852 14.079 56.6104 13.7654 56.6104 13.3509C56.6104 12.9363 56.4852 12.6228 56.2348 12.4102C55.9843 12.187 55.6557 12.0754 55.2487 12.0754C54.8522 12.0754 54.5235 12.187 54.2627 12.4102C54.0123 12.6228 53.8871 12.9363 53.8871 13.3509C53.8871 13.7654 54.0123 14.079 54.2627 14.2915C54.5235 14.5041 54.8522 14.6104 55.2487 14.6104ZM56.5634 12.1233L56.2191 10.5927H59.4588V11.8682L56.5634 12.1233ZM64.6576 18.8193C63.8644 18.8193 63.1601 18.6493 62.5447 18.3092C61.9394 17.9584 61.4649 17.4748 61.1205 16.8583C60.7863 16.2313 60.6197 15.5085 60.6197 14.6901C60.6197 13.8504 60.7863 13.1117 61.1205 12.474C61.4542 11.8256 61.9237 11.3208 62.5291 10.9594C63.1445 10.5874 63.8538 10.4014 64.6576 10.4014C65.4401 10.4014 66.1231 10.5768 66.7078 10.9275C67.2919 11.2783 67.7458 11.7513 68.0694 12.3465C68.3925 12.9416 68.5546 13.6166 68.5546 14.3712V14.7379C68.5546 14.8655 68.5439 14.9983 68.5233 15.1365H62.1222V13.8292H66.4261C66.3948 13.3083 66.212 12.8992 65.8783 12.6015C65.5547 12.3039 65.1478 12.1551 64.6576 12.1551C64.3026 12.1551 63.974 12.2402 63.6716 12.4102C63.3686 12.5697 63.1288 12.8195 62.9517 13.1596C62.7845 13.4997 62.7012 13.9301 62.7012 14.4509V14.9133C62.7012 15.349 62.7795 15.7317 62.936 16.0612C63.1026 16.38 63.3323 16.6298 63.6246 16.8105C63.9164 16.9806 64.2557 17.0656 64.6419 17.0656C65.0276 17.0656 65.3462 16.9806 65.5966 16.8105C65.8571 16.6404 66.0505 16.4226 66.1757 16.1568H68.3355C68.189 16.6564 67.9442 17.1081 67.5999 17.512C67.2556 17.9159 66.833 18.2347 66.3322 18.4686C65.8314 18.7024 65.273 18.8193 64.6576 18.8193ZM73.9837 18.628V7.46788H77.8337C78.6062 7.46788 79.2423 7.59543 79.7431 7.85052C80.2545 8.09496 80.6352 8.43511 80.8856 8.87087C81.136 9.29604 81.2612 9.77433 81.2612 10.3057C81.2612 10.8797 81.136 11.358 80.8856 11.7406C80.6458 12.1233 80.3277 12.4155 79.9309 12.6175C79.5452 12.8195 79.1327 12.9416 78.6945 12.9842L78.9136 12.8247C79.3831 12.8354 79.8163 12.9629 80.2126 13.2074C80.6094 13.4518 80.9225 13.7813 81.1516 14.1959C81.392 14.6104 81.5116 15.0727 81.5116 15.5829C81.5116 16.1462 81.3763 16.6617 81.1047 17.1294C80.8336 17.5864 80.4317 17.9531 79.8996 18.2294C79.3781 18.4952 78.7314 18.628 77.9589 18.628H73.9837ZM75.2983 17.512H77.8181C78.5592 17.512 79.1327 17.3366 79.5396 16.9859C79.9572 16.6245 80.1656 16.125 80.1656 15.4872C80.1656 14.8602 79.9521 14.3606 79.524 13.9886C79.107 13.606 78.5279 13.4146 77.7868 13.4146H75.2983V17.512ZM75.2983 12.3465H77.7398C78.4497 12.3465 78.9868 12.1764 79.3518 11.8363C79.7274 11.4962 79.9152 11.0338 79.9152 10.4492C79.9152 9.88593 79.7274 9.43417 79.3518 9.09407C78.9868 8.75397 78.434 8.5839 77.6928 8.5839H75.2983V12.3465ZM83.3243 18.628V10.7203H84.6389V18.628H83.3243ZM83.9816 9.01436C83.7211 9.01436 83.502 8.92935 83.3243 8.75927C83.1577 8.5786 83.0739 8.35005 83.0739 8.07372C83.0739 7.81863 83.1577 7.60608 83.3243 7.436C83.502 7.26592 83.7211 7.18091 83.9816 7.18091C84.232 7.18091 84.4461 7.26592 84.6233 7.436C84.801 7.60608 84.8893 7.82393 84.8893 8.08966C84.8893 8.34475 84.801 8.56266 84.6233 8.74333C84.4461 8.924 84.232 9.01436 83.9816 9.01436ZM90.2815 18.8193C89.551 18.8193 88.8937 18.6493 88.3095 18.3092C87.7249 17.9691 87.261 17.4908 86.9166 16.8743C86.5824 16.2472 86.4158 15.5138 86.4158 14.6741C86.4158 13.8345 86.588 13.1064 86.9323 12.4899C87.2766 11.8629 87.7405 11.3792 88.3252 11.0391C88.9199 10.699 89.5823 10.5289 90.3128 10.5289C91.0428 10.5289 91.7001 10.699 92.2848 11.0391C92.8689 11.3792 93.3278 11.8629 93.662 12.4899C94.0064 13.1064 94.1785 13.8345 94.1785 14.6741C94.1785 15.5138 94.0064 16.2472 93.662 16.8743C93.3177 17.4908 92.8482 17.9691 92.2535 18.3092C91.6688 18.6493 91.0115 18.8193 90.2815 18.8193ZM90.2815 17.7033C90.7298 17.7033 91.1473 17.5917 91.5336 17.3685C91.9192 17.1347 92.2323 16.7946 92.4726 16.3482C92.7124 15.9018 92.8326 15.3438 92.8326 14.6741C92.8326 13.9939 92.7124 13.4306 92.4726 12.9842C92.2429 12.5378 91.9349 12.203 91.5492 11.9798C91.163 11.7566 90.751 11.645 90.3128 11.645C89.8746 11.645 89.4571 11.7566 89.0608 11.9798C88.6745 12.203 88.3615 12.5378 88.1217 12.9842C87.8814 13.4306 87.7618 13.9939 87.7618 14.6741C87.7618 15.3438 87.8814 15.9018 88.1217 16.3482C88.3615 16.7946 88.6695 17.1347 89.0451 17.3685C89.4308 17.5917 89.8433 17.7033 90.2815 17.7033ZM95.8224 18.628V10.7203H96.9962L97.0901 12.0914H97.1057C97.3668 11.6131 97.7267 11.2357 98.1856 10.9594C98.6451 10.6724 99.1772 10.5289 99.782 10.5289C100.387 10.5289 100.914 10.6565 101.363 10.9116C101.812 11.156 102.161 11.5387 102.411 12.0595C102.662 12.5697 102.787 13.218 102.787 14.0045V18.628H101.472V14.148C101.472 13.3296 101.3 12.7131 100.956 12.2986C100.611 11.8841 100.116 11.6768 99.469 11.6768C99.0207 11.6768 98.6188 11.7884 98.2639 12.0117C97.9196 12.2349 97.6435 12.559 97.4344 12.9842C97.2365 13.3987 97.137 13.9142 97.137 14.5307V18.628H95.8224ZM108.071 18.8193C107.329 18.8193 106.672 18.6493 106.099 18.3092C105.525 17.9584 105.071 17.4748 104.737 16.8583C104.413 16.2313 104.252 15.5032 104.252 14.6741C104.252 13.8345 104.413 13.1064 104.737 12.4899C105.06 11.8735 105.509 11.3952 106.083 11.0551C106.667 10.7043 107.34 10.5289 108.102 10.5289C108.863 10.5289 109.516 10.7043 110.058 11.0551C110.6 11.3952 111.018 11.8469 111.31 12.4102C111.602 12.9629 111.749 13.5688 111.749 14.2277V14.5785C111.749 14.6954 111.743 14.8283 111.733 14.9771H105.238V13.9408H110.45C110.418 13.218 110.178 12.6547 109.73 12.2508C109.291 11.8469 108.738 11.645 108.071 11.645C107.622 11.645 107.204 11.7459 106.819 11.9479C106.432 12.1498 106.119 12.4474 105.88 12.8407C105.65 13.2233 105.535 13.7123 105.535 14.3075V14.7539C105.535 15.4022 105.655 15.9443 105.895 16.38C106.135 16.8158 106.448 17.1453 106.834 17.3685C107.231 17.5811 107.643 17.6874 108.071 17.6874C108.613 17.6874 109.067 17.5598 109.432 17.3047C109.797 17.0497 110.063 16.7042 110.23 16.2684H111.529C111.394 16.7574 111.169 17.1931 110.856 17.5758C110.543 17.9584 110.152 18.2613 109.683 18.4845C109.223 18.7077 108.686 18.8193 108.071 18.8193ZM116.099 18.628C115.63 18.628 115.223 18.5536 114.879 18.4048C114.534 18.256 114.268 18.0062 114.08 17.6555C113.903 17.2941 113.814 16.8105 113.814 16.2047V11.8044H112.468V10.7203H113.814L113.987 8.82304H115.129V10.7203H117.414V11.8044H115.129V16.2047C115.129 16.7149 115.229 17.0603 115.426 17.241C115.625 17.4216 115.974 17.512 116.475 17.512H117.289V18.628H116.099ZM120.42 18.628L118.182 10.7203H119.497L121.265 17.4801L121.03 17.4642L122.94 10.7203H124.474L126.399 17.4642L126.164 17.4801L127.901 10.7203H129.231L126.993 18.628H125.585L123.582 11.629H123.832L121.829 18.628H120.42ZM133.779 18.8193C133.048 18.8193 132.391 18.6493 131.807 18.3092C131.223 17.9691 130.758 17.4908 130.414 16.8743C130.08 16.2472 129.913 15.5138 129.913 14.6741C129.913 13.8345 130.085 13.1064 130.43 12.4899C130.774 11.8629 131.239 11.3792 131.823 11.0391C132.417 10.699 133.08 10.5289 133.81 10.5289C134.541 10.5289 135.198 10.699 135.782 11.0391C136.366 11.3792 136.826 11.8629 137.16 12.4899C137.504 13.1064 137.676 13.8345 137.676 14.6741C137.676 15.5138 137.504 16.2472 137.16 16.8743C136.815 17.4908 136.346 17.9691 135.751 18.3092C135.167 18.6493 134.51 18.8193 133.779 18.8193ZM133.779 17.7033C134.228 17.7033 134.645 17.5917 135.031 17.3685C135.417 17.1347 135.73 16.7946 135.97 16.3482C136.21 15.9018 136.33 15.3438 136.33 14.6741C136.33 13.9939 136.21 13.4306 135.97 12.9842C135.74 12.5378 135.433 12.203 135.047 11.9798C134.66 11.7566 134.249 11.645 133.81 11.645C133.372 11.645 132.955 11.7566 132.558 11.9798C132.172 12.203 131.859 12.5378 131.619 12.9842C131.379 13.4306 131.259 13.9939 131.259 14.6741C131.259 15.3438 131.379 15.9018 131.619 16.3482C131.859 16.7946 132.167 17.1347 132.543 17.3685C132.929 17.5917 133.341 17.7033 133.779 17.7033ZM139.32 18.628V10.7203H140.494L140.619 12.2986H140.635C140.823 11.8841 141.047 11.5493 141.308 11.2942C141.579 11.0285 141.897 10.8372 142.262 10.7203C142.628 10.5927 143.05 10.5289 143.53 10.5289V11.9319H143.17C142.805 11.9319 142.466 11.9798 142.153 12.0754C141.85 12.1711 141.584 12.3199 141.355 12.5218C141.125 12.7238 140.948 13.0001 140.823 13.3509C140.698 13.691 140.635 14.1108 140.635 14.6104V18.628H139.32ZM149.69 18.628L145.918 14.2756L149.314 10.7203H150.926L147.029 14.7539L147.045 13.7973L151.365 18.628H149.69ZM144.823 18.628V7.22874H146.137V18.628H144.823ZM155.025 18.8193C154.41 18.8193 153.856 18.713 153.366 18.5005C152.876 18.2773 152.479 17.9691 152.177 17.5758C151.885 17.1719 151.702 16.6989 151.629 16.1568H152.975C153.038 16.4332 153.152 16.6883 153.319 16.9221C153.486 17.156 153.711 17.3473 153.992 17.4961C154.285 17.6343 154.634 17.7033 155.041 17.7033C155.417 17.7033 155.725 17.6502 155.964 17.5439C156.204 17.427 156.382 17.2782 156.496 17.0975C156.611 16.9062 156.669 16.7042 156.669 16.4917C156.669 16.1834 156.59 15.9496 156.434 15.7902C156.288 15.6201 156.063 15.4872 155.761 15.3916C155.469 15.2853 155.119 15.1843 154.712 15.0887C154.399 15.0142 154.081 14.9239 153.758 14.8176C153.434 14.7113 153.137 14.5785 152.865 14.4191C152.604 14.249 152.391 14.0417 152.224 13.7973C152.067 13.5422 151.989 13.234 151.989 12.8726C151.989 12.4155 152.104 12.0117 152.333 11.6609C152.563 11.3102 152.886 11.0338 153.304 10.8319C153.731 10.6299 154.232 10.5289 154.806 10.5289C155.631 10.5289 156.304 10.7362 156.825 11.1507C157.357 11.5652 157.665 12.1658 157.748 12.9523H156.449C156.408 12.5378 156.241 12.2189 155.949 11.9957C155.667 11.7619 155.281 11.645 154.791 11.645C154.31 11.645 153.945 11.7459 153.695 11.9479C153.445 12.1498 153.319 12.4155 153.319 12.745C153.319 12.947 153.387 13.1224 153.523 13.2712C153.669 13.4199 153.878 13.5475 154.149 13.6538C154.431 13.7601 154.764 13.861 155.15 13.9567C155.641 14.0736 156.1 14.2118 156.528 14.3712C156.955 14.5307 157.305 14.7645 157.576 15.0727C157.858 15.3703 157.999 15.7955 157.999 16.3482C158.009 16.8371 157.889 17.2676 157.639 17.6395C157.399 18.0115 157.055 18.3039 156.606 18.5164C156.168 18.7184 155.641 18.8193 155.025 18.8193Z" fill="white"/>
</g>
<defs>
<clipPath id="clip0_3893_41114">
<rect width="158" height="26" fill="white"/>
</clipPath>
</defs>
</svg>
