<svg width="184" height="64" viewBox="0 0 184 64" fill="none" xmlns="http://www.w3.org/2000/svg">
<path opacity="0.3" d="M17.6987 64H54.9715L72.627 32.5658L54.9715 1.13159H17.6987L0.0431595 32.5658L17.6987 64Z" fill="#FF0000"/>
<path opacity="0.3" d="M17.6987 64H54.9715L72.627 32.5658L54.9715 1.13159H17.6987L0.0431595 32.5658L17.6987 64Z" fill="#FF0000"/>
<path opacity="0.3" d="M27.0169 48.2828H45.6533L54.481 32.5657L45.6533 16.8486H27.0169L18.1891 32.5657L27.0169 48.2828Z" fill="#FF0000"/>
<path d="M27.0169 48.2828L35.8976 32.5657H54.481L45.6533 48.2828H27.0169Z" fill="#6F51C7"/>
<path d="M54.481 32.5657L45.6533 16.8486H27.0169L35.8976 32.5657H54.481Z" fill="#00737C"/>
<path d="M27.0169 16.8486L35.8976 32.5657L27.0169 48.2828L18.1891 32.5657L27.0169 16.8486Z" fill="#55A5C9"/>
<path d="M27.0169 16.8486H8.87092L0.0431595 32.5657L8.89839 48.33L27.0169 48.2828L18.1891 32.5657L27.0169 16.8486Z" fill="#3F6AA2"/>
<path d="M27.0169 48.2828L35.8976 63.9999H54.9715L63.5756 48.6836L54.481 32.5657L45.6533 48.2828H27.0169Z" fill="#4F33A3"/>
<path d="M54.481 32.5659L63.5756 48.6838L72.627 32.5659L63.5756 16.448L54.481 32.5659Z" fill="#00677D"/>
<path d="M54.481 32.5658L63.5756 16.4479L54.9715 1.13159H35.8858L27.0169 16.8487H45.6533L54.481 32.5658Z" fill="#00C9BA"/>
<path d="M27.0169 48.283L35.8976 64.0001H17.6987L8.89838 48.3301L27.0169 48.283Z" fill="#6F51C7"/>
<path d="M8.87091 16.8487H27.0169L35.8858 1.13159H17.6987L8.87091 16.8487Z" fill="#1B00B3"/>
<path d="M92.0865 28.3718V14.1858H93.139L98.6442 25.2103L104.15 14.1858H105.222V28.3718H104.311V15.8881L99.0288 26.3857H98.2597L92.9973 15.9287V28.3718H92.0865Z" fill="white"/>
<path d="M112.625 28.615C111.694 28.615 110.857 28.3988 110.115 27.9665C109.386 27.5341 108.806 26.9194 108.374 26.1223C107.956 25.3117 107.747 24.3659 107.747 23.2851C107.747 22.1637 107.963 21.2045 108.395 20.4074C108.826 19.6103 109.413 18.9955 110.155 18.5632C110.898 18.1309 111.734 17.9147 112.665 17.9147C113.61 17.9147 114.446 18.1309 115.175 18.5632C115.917 18.9955 116.497 19.6103 116.916 20.4074C117.347 21.2045 117.563 22.1637 117.563 23.2851C117.563 24.3659 117.347 25.3117 116.916 26.1223C116.484 26.9194 115.897 27.5341 115.155 27.9665C114.413 28.3988 113.569 28.615 112.625 28.615ZM112.625 27.8043C113.326 27.8043 113.974 27.6355 114.568 27.2977C115.175 26.9599 115.667 26.4533 116.045 25.7778C116.423 25.1023 116.612 24.2646 116.612 23.2648C116.612 22.2651 116.423 21.4274 116.045 20.7519C115.681 20.0764 115.195 19.5765 114.588 19.2522C113.994 18.9145 113.353 18.7456 112.665 18.7456C111.977 18.7456 111.329 18.9145 110.722 19.2522C110.115 19.59 109.622 20.0966 109.245 20.7722C108.88 21.4342 108.698 22.2651 108.698 23.2648C108.698 24.2646 108.88 25.1023 109.245 25.7778C109.622 26.4533 110.108 26.9599 110.702 27.2977C111.296 27.6355 111.937 27.8043 112.625 27.8043Z" fill="white"/>
<path d="M124.325 28.615C123.34 28.615 122.483 28.3853 121.754 27.9259C121.039 27.4531 120.486 26.8181 120.094 26.021C119.703 25.2103 119.507 24.2916 119.507 23.2648C119.507 22.238 119.703 21.3261 120.094 20.529C120.486 19.7183 121.046 19.0834 121.774 18.624C122.503 18.1511 123.36 17.9147 124.345 17.9147C125.33 17.9147 126.173 18.1714 126.875 18.6848C127.59 19.1847 128.109 19.8737 128.433 20.7519V13.7805H129.344V28.3718H128.534L128.413 25.8588C128.211 26.3722 127.914 26.8383 127.522 27.2572C127.145 27.6625 126.686 27.9935 126.146 28.2502C125.606 28.4934 124.999 28.615 124.325 28.615ZM124.385 27.7841C125.154 27.7841 125.836 27.5949 126.43 27.2166C127.023 26.8248 127.482 26.2912 127.806 25.6156C128.143 24.9266 128.312 24.143 128.312 23.2648C128.312 22.3731 128.143 21.5895 127.806 20.914C127.482 20.225 127.023 19.6913 126.43 19.313C125.849 18.9347 125.168 18.7456 124.385 18.7456C123.63 18.7456 122.948 18.928 122.341 19.2928C121.747 19.6576 121.282 20.1845 120.944 20.8735C120.607 21.549 120.438 22.3461 120.438 23.2648C120.438 24.1835 120.607 24.9807 120.944 25.6562C121.295 26.3317 121.768 26.8586 122.361 27.2369C122.955 27.6017 123.63 27.7841 124.385 27.7841Z" fill="white"/>
<path d="M136.417 28.615C135.459 28.615 134.629 28.392 133.928 27.9462C133.24 27.5003 132.707 26.8721 132.329 26.0615C131.951 25.2509 131.762 24.2984 131.762 23.204C131.762 22.0962 131.958 21.1505 132.349 20.3668C132.754 19.5832 133.307 18.982 134.009 18.5632C134.724 18.1309 135.54 17.9147 136.458 17.9147C137.443 17.9147 138.266 18.1376 138.927 18.5835C139.588 19.0158 140.087 19.59 140.425 20.3061C140.762 21.0221 140.931 21.8057 140.931 22.6569C140.931 22.792 140.931 22.9203 140.931 23.0419C140.931 23.1635 140.924 23.3054 140.911 23.4675H132.41V22.6771H140.04C140.027 21.3666 139.683 20.3804 139.008 19.7183C138.333 19.0563 137.47 18.7253 136.417 18.7253C135.77 18.7253 135.162 18.8739 134.596 19.1712C134.029 19.4684 133.563 19.9278 133.199 20.5492C132.848 21.1707 132.673 21.9611 132.673 22.9203V23.2851C132.673 24.3119 132.848 25.163 133.199 25.8386C133.55 26.5006 134.009 26.9937 134.575 27.318C135.142 27.6422 135.756 27.8043 136.417 27.8043C137.267 27.8043 137.969 27.6084 138.522 27.2166C139.075 26.8113 139.48 26.2439 139.737 25.5143H140.647C140.472 26.1088 140.195 26.6424 139.818 27.1153C139.453 27.5882 138.988 27.9597 138.421 28.2299C137.854 28.4866 137.186 28.615 136.417 28.615Z" fill="white"/>
<path d="M143.217 28.3718V13.7805H144.128V28.3718H143.217Z" fill="white"/>
<path d="M151.283 28.3718L156.485 14.1858H157.457L162.598 28.3718H161.626L156.951 15.3612L152.235 28.3718H151.283ZM153.49 23.8728L153.793 23.1027H160.108L160.412 23.8728H153.49Z" fill="white"/>
<path d="M165.022 28.3718V14.1858H168.746C170.419 14.1858 171.789 14.4695 172.855 15.037C173.934 15.5909 174.73 16.4015 175.243 17.4689C175.769 18.5362 176.032 19.8264 176.032 21.3396C176.032 22.7447 175.783 23.9741 175.283 25.0279C174.798 26.0818 174.028 26.9059 172.976 27.5003C171.923 28.0813 170.54 28.3718 168.827 28.3718H165.022ZM165.932 27.6017H168.807C170.291 27.6017 171.492 27.3517 172.409 26.8519C173.327 26.3385 174.001 25.6156 174.433 24.6834C174.865 23.7512 175.081 22.6366 175.081 21.3396C175.081 20.0291 174.865 18.901 174.433 17.9552C174.015 16.996 173.347 16.2597 172.429 15.7463C171.525 15.2194 170.318 14.9559 168.807 14.9559H165.932V27.6017Z" fill="white"/>
<path d="M92.0865 48.6374V34.4515H100.405V35.2216H92.9973V41.1391H99.7979V41.9295H92.9973V47.8673H100.405V48.6374H92.0865Z" fill="white"/>
<path d="M102.002 48.6374L105.382 43.571L102.002 38.4235H102.993L106.009 43.0441L109.025 38.4235H109.996L106.637 43.5507L109.996 48.6374H109.025L106.009 44.0776L102.993 48.6374H102.002Z" fill="white"/>
<path d="M111.83 53.0958V38.4235H112.639L112.74 40.977C112.943 40.4636 113.233 39.9975 113.611 39.5787C113.988 39.1598 114.447 38.8221 114.987 38.5654C115.54 38.3087 116.161 38.1803 116.849 38.1803C117.834 38.1803 118.684 38.4168 119.399 38.8896C120.128 39.349 120.688 39.984 121.079 40.7946C121.47 41.5917 121.666 42.5104 121.666 43.5507C121.666 44.5775 121.47 45.4962 121.079 46.3069C120.688 47.104 120.128 47.7322 119.399 48.1916C118.684 48.6509 117.827 48.8806 116.829 48.8806C115.857 48.8806 115.014 48.6306 114.299 48.1308C113.584 47.6309 113.064 46.9351 112.74 46.0434V53.0958H111.83ZM116.788 48.0497C117.557 48.0497 118.232 47.8673 118.812 47.5025C119.406 47.1377 119.872 46.6176 120.209 45.9421C120.546 45.2666 120.715 44.4627 120.715 43.5305C120.715 42.6118 120.546 41.8146 120.209 41.1391C119.872 40.4636 119.406 39.9434 118.812 39.5787C118.232 39.2004 117.557 39.0112 116.788 39.0112C116.019 39.0112 115.338 39.2071 114.744 39.5989C114.15 39.9772 113.685 40.5109 113.347 41.1999C113.024 41.8754 112.862 42.6523 112.862 43.5305C112.862 44.4222 113.024 45.2125 113.347 45.9015C113.685 46.5771 114.15 47.104 114.744 47.4823C115.338 47.8606 116.019 48.0497 116.788 48.0497Z" fill="white"/>
<path d="M124.084 48.6374V34.0461H124.995V48.6374H124.084Z" fill="white"/>
<path d="M132.252 48.8806C131.321 48.8806 130.484 48.6644 129.742 48.2321C129.014 47.7998 128.433 47.185 128.002 46.3879C127.583 45.5773 127.374 44.6316 127.374 43.5507C127.374 42.4294 127.59 41.4701 128.022 40.673C128.454 39.8759 129.041 39.2612 129.783 38.8288C130.525 38.3965 131.361 38.1803 132.292 38.1803C133.237 38.1803 134.074 38.3965 134.802 38.8288C135.544 39.2612 136.125 39.8759 136.543 40.673C136.975 41.4701 137.191 42.4294 137.191 43.5507C137.191 44.6316 136.975 45.5773 136.543 46.3879C136.111 47.185 135.524 47.7998 134.782 48.2321C134.04 48.6644 133.197 48.8806 132.252 48.8806ZM132.252 48.07C132.954 48.07 133.601 47.9011 134.195 47.5633C134.802 47.2256 135.295 46.7189 135.673 46.0434C136.05 45.3679 136.239 44.5302 136.239 43.5305C136.239 42.5307 136.05 41.693 135.673 41.0175C135.308 40.342 134.822 39.8421 134.215 39.5179C133.622 39.1801 132.981 39.0112 132.292 39.0112C131.604 39.0112 130.957 39.1801 130.349 39.5179C129.742 39.8556 129.25 40.3623 128.872 41.0378C128.508 41.6998 128.325 42.5307 128.325 43.5305C128.325 44.5302 128.508 45.3679 128.872 46.0434C129.25 46.7189 129.735 47.2256 130.329 47.5633C130.923 47.9011 131.564 48.07 132.252 48.07Z" fill="white"/>
<path d="M139.6 48.6374V38.4235H140.41L140.511 40.4906C140.74 39.9502 141.037 39.5111 141.402 39.1734C141.779 38.8356 142.225 38.5857 142.737 38.4235C143.25 38.2614 143.83 38.1803 144.478 38.1803V39.1126H144.114C143.709 39.1126 143.291 39.1666 142.859 39.2747C142.441 39.3828 142.049 39.5787 141.685 39.8624C141.334 40.1326 141.051 40.5244 140.835 41.0378C140.619 41.5512 140.511 42.2064 140.511 43.0036V48.6374H139.6Z" fill="white"/>
<path d="M150.075 48.8806C149.117 48.8806 148.287 48.6577 147.586 48.2118C146.898 47.766 146.365 47.1377 145.987 46.3271C145.609 45.5165 145.42 44.564 145.42 43.4697C145.42 42.3618 145.616 41.4161 146.007 40.6325C146.412 39.8489 146.965 39.2477 147.667 38.8288C148.382 38.3965 149.198 38.1803 150.116 38.1803C151.101 38.1803 151.924 38.4033 152.585 38.8491C153.246 39.2814 153.746 39.8556 154.083 40.5717C154.42 41.2877 154.589 42.0713 154.589 42.9225C154.589 43.0576 154.589 43.1859 154.589 43.3075C154.589 43.4291 154.582 43.571 154.569 43.7331H146.068V42.9428H153.698C153.685 41.6323 153.341 40.646 152.666 39.984C151.991 39.322 151.128 38.991 150.075 38.991C149.428 38.991 148.82 39.1396 148.254 39.4368C147.687 39.734 147.222 40.1934 146.857 40.8149C146.506 41.4363 146.331 42.2267 146.331 43.1859V43.5507C146.331 44.5775 146.506 45.4287 146.857 46.1042C147.208 46.7662 147.667 47.2593 148.234 47.5836C148.8 47.9078 149.414 48.07 150.075 48.07C150.925 48.07 151.627 47.8741 152.18 47.4823C152.734 47.077 153.138 46.5095 153.395 45.7799H154.306C154.13 46.3744 153.853 46.9081 153.476 47.3809C153.111 47.8538 152.646 48.2253 152.079 48.4955C151.512 48.7522 150.844 48.8806 150.075 48.8806Z" fill="white"/>
<path d="M156.875 48.6374V38.4235H157.685L157.786 40.4906C158.016 39.9502 158.312 39.5111 158.677 39.1734C159.055 38.8356 159.5 38.5857 160.013 38.4235C160.525 38.2614 161.106 38.1803 161.753 38.1803V39.1126H161.389C160.984 39.1126 160.566 39.1666 160.134 39.2747C159.716 39.3828 159.324 39.5787 158.96 39.8624C158.609 40.1326 158.326 40.5244 158.11 41.0378C157.894 41.5512 157.786 42.2064 157.786 43.0036V48.6374H156.875Z" fill="white"/>
</svg>
