<svg width="109" height="93" viewBox="0 0 109 93" fill="none" xmlns="http://www.w3.org/2000/svg">
<g clip-path="url(#clip0_4449_16684)">
<path d="M98.3703 70.5305L97.8252 70.3441L51.5768 54.5008L50.449 54.0535L49.8288 53.8764H49.575C49.4998 53.8485 49.4058 53.8485 49.3307 53.8764H49.1615L49.0957 53.9417V54.0256C49.0957 54.0256 49.0957 54.1187 49.0957 54.1653V54.2772L49.1991 54.4449L49.2931 54.6127L49.6596 55.2091L65.27 81.453L66.4635 83.4288C66.5105 83.5033 66.5857 83.5686 66.6609 83.6152H67.0556L67.206 83.5593L98.3233 71.4438H98.3891C98.4549 71.4066 98.5113 71.36 98.5489 71.304C98.5959 71.2481 98.6241 71.1829 98.6429 71.1083V70.9872C98.6429 70.894 98.6241 70.8008 98.5677 70.7169C98.5207 70.633 98.4455 70.5678 98.3703 70.5305ZM67.1308 82.5248L50.6182 55.2371L96.6692 71.0804L67.1308 82.5248Z" fill="#30466B"/>
<path d="M96.6974 71.0433L67.1308 82.525L50.6182 55.2373L96.6974 71.0433Z" fill="#30466B"/>
<path d="M104.404 45.7779C104.404 45.7779 104.404 45.7313 104.404 45.7033C104.367 45.6101 104.301 45.5356 104.216 45.4796C104.16 45.4424 104.094 45.4144 104.029 45.4051C103.963 45.3865 103.906 45.3865 103.841 45.4051L101.388 45.7872L51.1356 53.5224L49.8105 53.7275L49.4533 53.7834H49.1996L49.1338 53.8486C49.1338 53.8486 49.1338 53.9418 49.1338 53.9884V54.035C49.1338 54.035 49.1808 54.1003 49.209 54.1189L49.2936 54.1841H49.3687L49.5003 54.2307L49.8293 54.9856L50.6657 55.2745L96.7167 71.1178L98.0513 71.5838H98.2204C98.3144 71.5838 98.399 71.5651 98.4742 71.5185C98.54 71.4812 98.5964 71.4346 98.634 71.3787C98.681 71.3228 98.7091 71.2576 98.7279 71.183L104.423 46.1134V46.0668C104.442 46.0202 104.451 45.9736 104.442 45.9177C104.442 45.8711 104.423 45.8152 104.404 45.7779ZM97.8257 70.3443L51.5773 54.501L103.267 46.5514L97.8257 70.3443Z" fill="#30466B"/>
<path d="M103.229 46.5327L97.8255 70.3442L51.5771 54.4823L103.229 46.5327Z" fill="#30466B"/>
<path d="M104.405 45.7776L94.7434 18.0053C94.7434 18.0053 94.7434 17.9587 94.7434 17.94C94.7434 17.9121 94.7434 17.8841 94.7434 17.8562L94.687 17.7909L94.593 17.7164L94.4802 17.6698C94.405 17.6418 94.3205 17.6418 94.2359 17.6605C94.1513 17.6791 94.0761 17.707 94.0103 17.7536L93.3149 18.2849L81.4356 27.0266L69.6503 35.8895L69.0206 36.3648L68.842 36.4953C68.7856 36.5419 68.748 36.6071 68.7198 36.6724C68.6917 36.7376 68.6729 36.8122 68.6729 36.8774C68.6729 36.9706 68.701 37.0638 68.7574 37.1384C68.8044 37.2129 68.8796 37.2781 68.9642 37.3247H69.1146L69.3307 37.3807L101.388 45.6844L103.794 46.3088H104.132L104.226 46.2529C104.226 46.2529 104.283 46.2156 104.301 46.1877C104.33 46.1597 104.348 46.1317 104.367 46.1038C104.367 46.0758 104.367 46.0479 104.367 46.0199V45.9081C104.367 45.9081 104.405 45.8242 104.405 45.7776ZM70.3269 36.6724L94.0009 18.8906L103.136 45.1625L70.3269 36.6724Z" fill="#30466B"/>
<path d="M103.098 45.1625L70.3262 36.6724L93.9626 18.8906L103.098 45.1625Z" fill="#30466B"/>
<path d="M104.405 45.7778C104.405 45.7778 104.405 45.7312 104.405 45.7032C104.367 45.61 104.301 45.5355 104.217 45.4795C104.17 45.4423 104.113 45.4143 104.057 45.405L103.117 45.1627L70.327 36.6725L69.6691 36.5048L69.3308 36.4209H69.265C69.1898 36.4023 69.124 36.4116 69.0489 36.4209C68.9831 36.4396 68.9173 36.4768 68.8609 36.5234L68.6823 36.6819L68.0338 37.2504L49.651 53.4012L49.2563 53.7553L49.1717 53.8299H49.1153C49.0589 53.8765 49.012 53.9324 48.9744 53.9976C48.9368 54.0629 48.918 54.1281 48.918 54.2027V54.2959C48.9274 54.3984 48.9744 54.4916 49.0495 54.5568C49.0871 54.6127 49.1435 54.65 49.2093 54.6686H49.7826L50.2149 54.6034L51.5119 54.4077L103.202 46.4581L103.954 46.3369H104.085L104.179 46.281C104.179 46.281 104.236 46.2437 104.254 46.2158C104.283 46.1878 104.301 46.1599 104.32 46.1319C104.32 46.104 104.32 46.076 104.32 46.048V45.9362C104.358 45.8896 104.395 45.8337 104.405 45.7684V45.7778ZM51.1077 53.513L69.3026 37.474L101.36 45.7778L51.1077 53.513Z" fill="#30466B"/>
<path d="M101.359 45.7779L51.0977 53.5131L69.3019 37.4741L101.359 45.7779Z" fill="#30466B"/>
<path d="M94.7243 17.9311C94.7243 17.9311 94.7243 17.8845 94.7243 17.8658C94.7243 17.8379 94.7243 17.8099 94.7243 17.7819L94.668 17.7167L94.574 17.6421H94.5176L68.5692 6.20703H68.2027C68.2027 6.20703 68.1463 6.20703 68.1181 6.20703H68.0241C68.0241 6.20703 67.9678 6.23499 67.949 6.26295C67.8644 6.35614 67.8174 6.48662 67.8174 6.61709V7.78204L68.6256 36.3465V36.9616C68.6256 37.0548 68.6538 37.148 68.7102 37.2226C68.7572 37.2971 68.8324 37.3624 68.917 37.409H69.2365C69.2365 37.409 69.3023 37.4183 69.3399 37.409H69.3963L70.2139 36.7939L94.0007 18.891L94.574 18.4623C94.6492 18.4063 94.7055 18.3411 94.7431 18.2572C94.7807 18.1734 94.7901 18.0895 94.7807 17.9963L94.7243 17.9311ZM81.4353 27.027L69.65 35.8899L68.8418 7.45585L93.2112 18.1734L81.4353 27.027Z" fill="#30466B"/>
<path d="M93.2113 18.1731L81.4353 27.0267L69.65 35.8896L68.8418 7.44629L93.2113 18.1731Z" fill="#30466B"/>
<path d="M69.659 36.7564C69.6308 36.6818 69.5932 36.6073 69.5368 36.5514C69.4805 36.4955 69.4053 36.4489 69.3301 36.4209H69.0481L68.6252 36.3463L42.1036 32.3669L41.5021 32.2737L41.1544 32.2178H40.7314V32.2737C40.7314 32.2737 40.7314 32.3203 40.7314 32.3482C40.7314 32.3762 40.7314 32.4042 40.7314 32.4321C40.7314 32.4601 40.7314 32.4974 40.7314 32.5253C40.7314 32.5533 40.7314 32.5812 40.7314 32.6092C40.7314 32.6372 40.7314 32.6744 40.7314 32.7024V32.8795L40.8912 33.2895L48.8327 53.5503L48.9454 53.8392L49.0488 54.1094V54.2213C49.0488 54.2213 49.0958 54.2865 49.124 54.3052L49.2086 54.3704H49.6597L49.7631 54.2772L49.9698 54.1001L50.3176 53.8019L50.9661 53.2241L69.3019 37.474L69.4617 37.3249C69.5181 37.2783 69.565 37.2131 69.5932 37.1478C69.6214 37.0826 69.6308 37.008 69.6308 36.9335C69.6496 36.8776 69.659 36.8123 69.659 36.7564ZM49.6503 53.4105L41.7934 33.3548L67.9861 37.2783L49.6503 53.4105Z" fill="#30466B"/>
<path d="M67.9866 37.2506L49.6508 53.4107L41.7939 33.355L67.9866 37.2506Z" fill="#30466B"/>
<path d="M69.6685 36.5045V35.8894L68.8415 7.45543V6.65395C68.8415 6.59803 68.8415 6.53279 68.8415 6.47688V6.41164C68.8415 6.41164 68.7851 6.33708 68.7569 6.2998H68.3152C68.3152 6.2998 68.2588 6.2998 68.2306 6.2998H68.1366C68.1366 6.2998 68.0802 6.32776 68.0614 6.35572L67.272 7.10129L41.5022 31.4999L40.9007 32.0684L40.6846 32.2828V32.3387C40.6846 32.3387 40.6846 32.3853 40.6846 32.4132C40.6846 32.4412 40.6846 32.4692 40.6846 32.4971C40.6846 32.5251 40.6846 32.5624 40.6846 32.5903C40.6846 32.6183 40.6846 32.6462 40.6846 32.6742V32.786C40.7316 32.8699 40.7973 32.9351 40.8725 32.9911H41.2109L41.9063 33.0936L67.9863 37.2781L69.0295 37.4272H69.255C69.255 37.4272 69.3208 37.4365 69.3584 37.4272H69.4148C69.4712 37.3806 69.5182 37.3153 69.5464 37.2501C69.5746 37.1849 69.5933 37.1103 69.5839 37.0358L69.6685 36.5045ZM42.1037 32.3666L67.8171 7.81889L68.6253 36.3461L42.1037 32.3666Z" fill="#30466B"/>
<path d="M68.6252 36.3093L42.1035 32.3671L67.8169 7.81934L68.6252 36.3093Z" fill="#30466B"/>
<path d="M68.7948 6.46802V6.40279C68.7948 6.40279 68.7385 6.32823 68.7103 6.29095H68.4189L41.1642 3.71875H41.0796C41.0796 3.71875 40.9856 3.71875 40.9387 3.71875L40.8071 3.77467L40.6379 3.72807C40.5815 3.77467 40.5439 3.8399 40.5157 3.90514C40.4875 3.97038 40.4688 4.04493 40.4688 4.11017V32.6187C40.4688 32.6187 40.4688 32.7026 40.4688 32.7492C40.4688 32.861 40.5063 32.9636 40.5721 33.0568C40.5909 33.0847 40.6097 33.1127 40.6379 33.1406C40.7131 33.2059 40.8071 33.2525 40.9105 33.2525H41.2206L41.4744 33.0195L41.9819 32.5349L67.8174 7.82868L68.6257 7.01788C68.6727 6.97128 68.7197 6.91536 68.7478 6.85013C68.776 6.78489 68.7854 6.71965 68.7854 6.6451C68.7948 6.58918 68.8042 6.52394 68.7948 6.46802ZM41.5401 31.5004V4.66003L67.1314 7.04584L41.5401 31.5004Z" fill="#30466B"/>
<path d="M67.1308 7.04556L41.502 31.5001V4.64111L67.1308 7.04556Z" fill="#30466B"/>
<path d="M41.4464 3.8119L41.3712 3.72803H40.6382L39.2566 5.07005L22.4621 21.7241L21.9828 22.1901C21.9264 22.246 21.8794 22.3019 21.8512 22.3765C21.823 22.4697 21.823 22.5536 21.8512 22.6468C21.8512 22.684 21.8512 22.7306 21.8512 22.7679V22.8238C21.8512 22.8238 21.8982 22.8797 21.9358 22.8891L22.0862 22.9636L22.5749 23.2991L39.9615 32.7492L40.563 33.0754H41.1457L41.2115 32.9915C41.2115 32.9915 41.2115 32.9076 41.2115 32.8703C41.2209 32.8237 41.2209 32.7864 41.2115 32.7399V4.07285C41.3148 4.01693 41.3994 3.92374 41.4464 3.8119ZM23.1858 22.451L40.4314 5.31235V31.8452L23.1858 22.451Z" fill="#30466B"/>
<path d="M40.4688 5.31201V31.8448L23.1855 22.46L40.4688 5.31201Z" fill="#30466B"/>
<path d="M22.8279 22.4697V22.3672L22.7715 22.2553L22.5178 21.7707L16.8789 11.1278L16.5781 10.5593C16.5405 10.4847 16.4841 10.4288 16.4184 10.3822C16.3526 10.3356 16.2774 10.3077 16.2022 10.2983H15.9954C15.9954 10.2983 15.9203 10.317 15.8827 10.3449C15.8451 10.3543 15.8169 10.3822 15.7981 10.4102L0.168925 25.685C0.168925 25.685 0.121935 25.7409 0.103138 25.7688C0.103138 25.7968 0.103138 25.8247 0.103138 25.8527C0.103138 25.8807 0.103138 25.8993 0.103138 25.9273C0.0749437 26.0018 0.0749437 26.0764 0.103138 26.1509H0.0185547V26.2628C0.0655455 26.3466 0.131333 26.4212 0.206518 26.4678C0.291102 26.5144 0.385083 26.5424 0.479065 26.5424H0.620038L1.20272 26.4492L21.4652 23.2246L22.2264 23.1034H22.499C22.499 23.1034 22.5742 23.0662 22.6024 23.0475C22.6681 23.0009 22.7245 22.9357 22.7621 22.8611V22.7679C22.7621 22.7679 22.7621 22.7027 22.7621 22.6654C22.7997 22.6095 22.8185 22.5349 22.8279 22.4697ZM2.04856 25.2656L15.9954 11.6124L21.5592 22.1901L2.04856 25.2656Z" fill="#30466B"/>
<path d="M21.5312 22.19L2.04883 25.2934L15.9675 11.6123L21.5312 22.19Z" fill="#30466B"/>
<path d="M41.4456 3.8119L41.3704 3.72803H40.9944C40.9944 3.72803 40.9005 3.72803 40.8535 3.72803H40.7971L15.9953 10.2517C15.9953 10.2517 15.9201 10.2704 15.8825 10.2983C15.8449 10.3076 15.8167 10.3356 15.7979 10.3636C15.7322 10.4102 15.6852 10.4661 15.657 10.5406C15.6194 10.6059 15.6006 10.6897 15.6006 10.7643C15.6006 10.8389 15.6194 10.9227 15.657 10.988L15.9765 11.6031L21.5402 22.1808L21.7564 22.6002L21.8504 22.7679V22.8238C21.8504 22.8238 21.8974 22.8797 21.935 22.8891C22.0007 22.9357 22.0665 22.9636 22.1417 22.9823H22.4237C22.4237 22.9823 22.4988 22.945 22.527 22.9263L22.5928 22.8704L22.6586 22.8052L23.0721 22.3858L40.4306 5.31235L41.3704 4.43632C41.4644 4.3338 41.5207 4.21265 41.5207 4.07285C41.5207 3.97966 41.4925 3.88646 41.4456 3.8119ZM22.4613 21.7241L16.8223 11.0812L39.2464 5.07005L22.4613 21.7241Z" fill="#30466B"/>
<path d="M39.2468 5.06982L22.4617 21.7239L16.8604 11.0809L39.2468 5.06982Z" fill="#30466B"/>
<path d="M22.8279 22.4697V22.3672C22.8279 22.3672 22.8279 22.3299 22.8279 22.3113C22.7903 22.2554 22.7339 22.2088 22.6681 22.1808C22.64 22.1715 22.6212 22.1715 22.593 22.1808C22.546 22.1808 22.5084 22.1808 22.4614 22.1808H22.2076L21.6625 22.2647L2.04856 25.2842L0.450871 25.5452C0.338093 25.5638 0.244111 25.6104 0.168925 25.6943C0.140731 25.7129 0.121935 25.7502 0.103138 25.7782C0.103138 25.8061 0.103138 25.8341 0.103138 25.862C0.103138 25.89 0.103138 25.9086 0.103138 25.9366C0.0749437 26.0112 0.0749437 26.0857 0.103138 26.1603H0.0185547V26.2162L8.29834 53.0379V53.1218C8.31714 53.2057 8.37353 53.2802 8.43932 53.3361H8.49571C8.49571 53.3361 8.5333 53.3361 8.55209 53.3361H8.85284L8.98441 53.2802C9.06899 53.2243 9.14418 53.1498 9.18177 53.0566L9.49191 52.3669L9.86784 51.5188L22.5742 23.2992L22.7621 22.8798V22.7214C22.7621 22.7214 22.7621 22.6561 22.7621 22.6188C22.7903 22.5722 22.8185 22.5256 22.8279 22.4697ZM8.91862 51.5468L1.20272 26.4678L21.4652 23.2433L8.91862 51.5468Z" fill="#30466B"/>
<path d="M21.4656 23.2432L8.91902 51.5467L1.20312 26.4584L21.4656 23.2432Z" fill="#30466B"/>
<path d="M41.4838 32.5626C41.4838 32.5626 41.4838 32.516 41.4838 32.4881C41.465 32.4228 41.4274 32.3762 41.371 32.339L41.2582 32.2644H41.183L40.9293 32.1246L40.4312 31.845L23.1855 22.4602L22.725 22.2086L22.5747 22.134C22.5747 22.134 22.5277 22.1247 22.4995 22.134C22.4525 22.134 22.4149 22.134 22.3679 22.134H22.1987C22.1329 22.1527 22.0765 22.1806 22.0202 22.2272C21.9638 22.2831 21.9168 22.3391 21.8886 22.4136L21.7946 22.6373L21.5127 23.2617L8.41161 52.7022C8.33642 52.7954 8.29883 52.9073 8.29883 53.0191C8.29883 53.0936 8.31762 53.1682 8.35522 53.2428C8.39281 53.308 8.4492 53.3639 8.51499 53.4012C8.54318 53.4198 8.58077 53.4385 8.61837 53.4478H8.92851L9.06008 53.3919L10.4698 52.4599L40.7319 33.4853L41.089 33.2523L41.2206 33.1684L41.2864 33.0845C41.2864 33.0845 41.2864 33.0006 41.2864 32.9634C41.2958 32.9168 41.2958 32.8795 41.2864 32.8329C41.371 32.7583 41.4462 32.6651 41.4838 32.5626ZM9.9999 51.6771L22.5747 23.299L39.9613 32.749L9.9999 51.6771Z" fill="#30466B"/>
<path d="M39.9614 32.7489L10 51.6769L22.5748 23.2988L39.9614 32.7489Z" fill="#30466B"/>
<path d="M67.4135 83.0373C67.4041 82.9907 67.3853 82.9441 67.3571 82.8975L67.1316 82.5247L50.619 55.237L50.2806 54.6778L50.1021 54.3889L49.9141 54.072L49.8295 53.9789L49.7543 53.9043H49.1153L49.0495 53.9695V54.1746L48.9179 54.6499L48.7769 55.1531L45.0177 68.0887L44.9143 68.4615V68.536C44.9049 68.6013 44.9049 68.6665 44.9143 68.7224C44.9237 68.7876 44.9519 68.8436 44.9895 68.8995V68.9554L45.0834 69.0393L45.1962 69.1138L47.292 70.5025L66.2199 83.3169L66.6241 83.5871H67.0188C67.0752 83.5685 67.1222 83.5312 67.1691 83.4939L67.2349 83.4194C67.2819 83.3355 67.3101 83.2423 67.3101 83.1491C67.3571 83.1212 67.3947 83.0839 67.4135 83.0373ZM61.2201 78.7689L45.8165 68.5174L49.5758 55.5259L65.2707 81.4529L61.2201 78.7689Z" fill="#30466B"/>
<path d="M65.2706 81.4625L61.22 78.7692L45.8164 68.5642L49.6039 55.5728L65.2706 81.4625Z" fill="#30466B"/>
<path d="M49.9417 54.1746V54.072L49.8289 53.9789L49.7537 53.9043H49.1711L48.8515 54.0627L47.4512 54.7617L25.0459 65.9452L24.7452 66.1036C24.6418 66.1502 24.5666 66.2341 24.5102 66.3366C24.4633 66.4391 24.4445 66.551 24.4633 66.6535C24.4821 66.7653 24.5384 66.8585 24.623 66.9331C24.67 66.9797 24.7264 67.0076 24.7922 67.0262H24.9614L44.9701 69.2257H45.2614C45.3742 69.2257 45.487 69.1884 45.5716 69.1232C45.6655 69.0579 45.7313 68.9647 45.7595 68.8529L45.8629 68.4894L49.6222 55.4886L49.8289 54.9854L49.8947 54.7803V54.4262C49.9323 54.3516 49.9511 54.2584 49.9417 54.1746ZM44.8385 68.2192L26.7 66.2341L48.6072 55.2836L44.8385 68.2192Z" fill="#30466B"/>
<path d="M48.6073 55.2837L44.8387 68.2193L26.7002 66.2342L48.6073 55.2837Z" fill="#30466B"/>
<path d="M49.9414 54.1745V54.072L49.8287 53.8762L49.7629 53.7178L49.6407 53.4103L41.7932 33.3546L41.5959 32.8513L41.5019 32.6183V32.5624C41.5019 32.5624 41.5019 32.5158 41.5019 32.4878C41.4737 32.4226 41.4267 32.376 41.3703 32.3387L41.2575 32.2642H40.7312L40.5433 32.3853L40.0452 32.7022L9.9992 51.6768L8.57068 52.6088C8.57068 52.6088 8.52369 52.6088 8.50489 52.6088C8.43911 52.6647 8.39211 52.7299 8.36392 52.8045C8.33572 52.8977 8.33572 53.0095 8.36392 53.1027C8.38272 53.1866 8.43911 53.2612 8.50489 53.3171H8.56128C8.56128 53.3171 8.59887 53.3171 8.61767 53.3171H8.77744L10.2436 53.3637L47.3851 54.7336L48.7479 54.7802H49.6689C49.6689 54.7802 49.7535 54.687 49.7817 54.6311V54.5473C49.8381 54.5007 49.8756 54.4447 49.9038 54.3795C49.932 54.3143 49.9414 54.249 49.9414 54.1745ZM14.4069 52.6833L10.5349 52.5622L40.7312 33.485L48.6727 53.7458L14.4069 52.6833Z" fill="#30466B"/>
<path d="M48.6729 53.7461L14.4072 52.6837L10.5352 52.5625L40.7315 33.4854L48.6729 53.7461Z" fill="#30466B"/>
<path d="M49.9423 54.1748V54.0723L49.8295 53.9791L49.7543 53.9045H48.6735L14.4078 52.6837L10.5357 52.5625H8.82528C8.7219 52.5625 8.62792 52.5905 8.54334 52.6371H8.47755C8.41176 52.693 8.36477 52.7582 8.33658 52.8328C8.30838 52.926 8.30838 53.0378 8.33658 53.131C8.35537 53.2149 8.41176 53.2894 8.47755 53.3453L24.4544 66.8121C24.5014 66.8587 24.5578 66.8867 24.6236 66.9053H24.7928C24.868 66.9053 24.9525 66.8867 25.0183 66.8494L26.5784 66.0666L48.6077 55.2838L49.2374 54.9669L49.4818 54.8458L49.6039 54.7806H49.7073C49.7073 54.7806 49.7919 54.6874 49.8201 54.6314V54.4917C49.8953 54.4078 49.9423 54.2959 49.9423 54.1748ZM24.9807 65.9454L10.3008 53.5783L47.386 54.734L24.9807 65.9454Z" fill="#30466B"/>
<path d="M47.386 54.7337L24.9807 65.9452L10.3008 53.5781L47.386 54.7337Z" fill="#30466B"/>
<path d="M67.4134 83.0372C67.404 82.9906 67.3852 82.944 67.357 82.8974C67.3194 82.8321 67.2724 82.7762 67.2066 82.7389L65.2706 81.4528L61.22 78.7688L45.8164 68.5173L45.5062 68.3029C45.4028 68.2377 45.2807 68.2097 45.1679 68.219C45.0457 68.2284 44.9329 68.2843 44.8483 68.3681C44.8014 68.4241 44.7638 68.48 44.7356 68.5452V68.6198C44.7262 68.685 44.7262 68.7503 44.7356 68.8062C44.745 68.8714 44.7732 68.9273 44.8108 68.9832V69.0392L44.9047 69.1883L60.8816 92.6456C60.9286 92.7202 60.9944 92.7761 61.0696 92.8134C61.1448 92.8507 61.2294 92.8693 61.3139 92.8693C61.3985 92.8693 61.4925 92.8413 61.5677 92.8041C61.6429 92.7575 61.7087 92.7015 61.7463 92.6177L67.1878 83.4938L67.2536 83.382C67.3006 83.2981 67.3288 83.2049 67.3288 83.1117C67.3664 83.0931 67.3946 83.0651 67.4134 83.0372ZM61.3515 91.4807L47.1321 70.6701L66.2198 83.3167L61.3515 91.4807Z" fill="#30466B"/>
<path d="M66.2195 83.3264L61.3513 91.481L47.1318 70.6704L66.2195 83.3264Z" fill="#30466B"/>
<path d="M66.473 83.4287L48.9924 54.538C48.9266 54.4542 48.8984 54.3423 48.8984 54.2398C48.8984 54.1373 48.936 54.0255 48.9924 53.9416C49.0582 53.8577 49.1428 53.8018 49.2462 53.7738C49.3496 53.7459 49.4529 53.7459 49.5563 53.7832L98.3234 70.5584C98.408 70.605 98.4832 70.6702 98.5302 70.7541C98.5772 70.838 98.6054 70.9312 98.6054 71.0244C98.6054 71.1176 98.5772 71.2201 98.5302 71.2946C98.4738 71.3785 98.408 71.4437 98.3234 71.4903L67.0369 83.6058C66.9711 83.6151 66.9147 83.6151 66.8489 83.6058C66.7738 83.6058 66.708 83.5871 66.6422 83.5592C66.5764 83.5312 66.52 83.4846 66.473 83.4287ZM50.6183 55.237L67.1309 82.5247L96.6975 71.043L50.6183 55.237Z" fill="#425D94"/>
<path d="M98.0322 71.4995L49.265 54.7709C49.1523 54.7429 49.0489 54.6684 48.9831 54.5752C48.9173 54.482 48.8797 54.3608 48.8891 54.2397C48.8891 54.1279 48.9455 54.016 49.0207 53.9321C49.0959 53.8483 49.2087 53.7923 49.3214 53.783L103.831 45.3954C103.915 45.3768 104 45.3954 104.085 45.4141C104.169 45.442 104.235 45.4886 104.291 45.5539C104.348 45.6098 104.395 45.6843 104.414 45.7682C104.442 45.8521 104.442 45.936 104.414 46.0198L98.69 71.1268C98.6712 71.2013 98.6431 71.2665 98.5961 71.3225C98.5491 71.3784 98.4927 71.425 98.4363 71.4623C98.3611 71.5089 98.2671 71.5275 98.1825 71.5275C98.1261 71.5275 98.0792 71.5182 98.0228 71.4995H98.0322ZM51.577 54.482L97.8254 70.3253L103.229 46.5044L51.577 54.482Z" fill="#425D94"/>
<path d="M103.775 46.4021L69.0015 37.3994C68.9076 37.3808 68.823 37.3249 68.7572 37.2596C68.6914 37.1944 68.6444 37.1012 68.6256 37.008C68.6068 36.9148 68.6162 36.8123 68.6538 36.7284C68.6914 36.6352 68.7478 36.5607 68.823 36.4954L93.9161 17.6419C93.9819 17.5953 94.0571 17.5581 94.1323 17.5487C94.2074 17.5301 94.292 17.5394 94.3766 17.5581C94.4518 17.586 94.527 17.6233 94.5834 17.6792C94.6397 17.7351 94.6867 17.8097 94.7149 17.8842L104.395 45.7311C104.423 45.8243 104.433 45.9175 104.414 46.0107C104.395 46.1039 104.348 46.1878 104.282 46.253C104.235 46.3089 104.179 46.3462 104.113 46.3742C104.047 46.4021 103.982 46.4208 103.906 46.4208L103.775 46.4021ZM70.3267 36.6725L103.098 45.1626L94.0007 18.8908L70.3267 36.6725Z" fill="#425D94"/>
<path d="M49.4251 54.799C49.3593 54.799 49.2841 54.7896 49.2277 54.7617C49.162 54.7337 49.1056 54.6964 49.0586 54.6498C49.0116 54.6032 48.974 54.5473 48.9458 54.4821C48.9176 54.4168 48.9082 54.3516 48.9082 54.2864C48.9082 54.1932 48.9364 54.1093 48.9834 54.0254C49.0304 53.9509 49.0962 53.8856 49.1714 53.839L68.8229 36.5233C68.8887 36.4674 68.9639 36.4301 69.0485 36.4114C69.1331 36.3928 69.2176 36.3928 69.3022 36.4114L104.075 45.4048C104.188 45.4328 104.301 45.498 104.367 45.6005C104.442 45.6937 104.47 45.8149 104.47 45.936C104.47 46.0572 104.414 46.169 104.329 46.2529C104.245 46.3368 104.132 46.3927 104.019 46.4113L49.5567 54.799H49.4345H49.4251ZM69.3022 37.4739L51.098 53.5128L101.359 45.7776L69.3022 37.4739Z" fill="#425D94"/>
<path d="M68.9356 37.3714C68.8511 37.3342 68.7759 37.2689 68.7289 37.1851C68.6819 37.1105 68.6537 37.0173 68.6443 36.9241L67.7891 6.65414C67.7891 6.57026 67.7985 6.47706 67.8455 6.40251C67.883 6.32795 67.9488 6.26271 68.0146 6.21612C68.0898 6.17884 68.1744 6.15088 68.259 6.15088C68.3436 6.15088 68.4281 6.16952 68.5033 6.21612L94.4235 17.6326C94.5081 17.6699 94.5833 17.7258 94.6302 17.8003C94.6866 17.8749 94.7242 17.9588 94.7336 18.0427C94.743 18.1358 94.7336 18.2197 94.696 18.3036C94.6584 18.3875 94.6021 18.4527 94.5269 18.5086L69.4619 37.2782C69.368 37.3435 69.2646 37.3808 69.1518 37.3808C69.0766 37.3901 69.0014 37.3808 68.9262 37.3808L68.9356 37.3714ZM68.8417 7.45562L69.6499 35.899L93.2111 18.1918L68.8417 7.45562Z" fill="#425D94"/>
<path d="M49.312 54.7899C49.2275 54.7712 49.1617 54.7246 49.0959 54.678C49.0301 54.6221 48.9831 54.5569 48.9549 54.473L40.4966 32.8982C40.4684 32.8143 40.459 32.7211 40.4684 32.6372C40.4872 32.5534 40.5248 32.4695 40.5811 32.3949C40.6375 32.3204 40.7127 32.2645 40.7973 32.2365C40.8819 32.1992 40.9759 32.1899 41.0605 32.2085L69.255 36.4023C69.3489 36.421 69.4429 36.4583 69.5181 36.5235C69.5933 36.5887 69.6497 36.6726 69.6779 36.7658C69.7061 36.859 69.7061 36.9615 69.6779 37.0547C69.6497 37.1479 69.6027 37.2318 69.5275 37.297L49.8289 54.678C49.735 54.7619 49.6128 54.8085 49.4812 54.8085H49.312V54.7899ZM41.7935 33.3548L49.6504 53.4106L67.9862 37.2784L41.7935 33.3548Z" fill="#425D94"/>
<path d="M69.0858 37.4179L40.8913 33.2241C40.7973 33.2054 40.7034 33.1681 40.6282 33.1029C40.553 33.0377 40.4966 32.9631 40.4684 32.8699C40.4402 32.7767 40.4402 32.6835 40.4684 32.5903C40.4966 32.4971 40.5436 32.4132 40.6094 32.348L67.9299 6.25321C68.0051 6.18797 68.0896 6.14138 68.193 6.12274C68.2964 6.1041 68.3904 6.12274 68.4844 6.1507C68.5783 6.18797 68.6535 6.25321 68.7099 6.32777C68.7663 6.41164 68.7945 6.50484 68.8039 6.60735L69.6591 36.8773C69.6591 36.9519 69.6591 37.0264 69.6215 37.0917C69.5933 37.1569 69.5464 37.2221 69.49 37.2687C69.396 37.3526 69.2738 37.3992 69.1422 37.3992L69.0858 37.4179ZM42.1037 32.3573L68.6253 36.3461L67.8171 7.8189L42.1037 32.3573Z" fill="#425D94"/>
<path d="M40.9758 33.2334C40.9006 33.2334 40.8348 33.2334 40.769 33.2054C40.7032 33.1775 40.6374 33.1402 40.5904 33.0936C40.5434 33.047 40.4965 32.9818 40.4683 32.9165C40.4401 32.8513 40.4307 32.7767 40.4307 32.7115C40.4307 32.6835 40.4307 32.6463 40.4307 32.6183V4.07247C40.4401 4.00723 40.4683 3.93267 40.5058 3.87676C40.5434 3.82084 40.5904 3.76492 40.6468 3.72764C40.7032 3.68104 40.7596 3.64377 40.8348 3.62513C40.9006 3.60649 40.9758 3.59717 41.0415 3.59717L68.3526 6.13209C68.456 6.13209 68.55 6.17869 68.6252 6.23461C68.7004 6.29984 68.7662 6.3744 68.7943 6.47692C68.8225 6.57011 68.8319 6.67263 68.8131 6.76582C68.7943 6.85902 68.738 6.95221 68.6628 7.01745L41.3705 33.0843C41.2765 33.1775 41.1449 33.2334 41.0133 33.2334H40.9758ZM41.5115 4.6596V31.5093L67.1309 7.04541L41.5115 4.6596Z" fill="#425D94"/>
<path d="M40.7318 33.1684L22.0764 23.038C22.0106 23.0007 21.9448 22.9448 21.8978 22.8796C21.8509 22.8143 21.8227 22.7398 21.8133 22.6559C21.8039 22.5814 21.8133 22.4975 21.8321 22.4229C21.8602 22.3484 21.8978 22.2738 21.9542 22.2179L40.6284 3.72786C40.7036 3.65331 40.7882 3.60671 40.8915 3.58807C40.9949 3.56943 41.0983 3.58807 41.1923 3.61603C41.2863 3.65331 41.3709 3.71854 41.4272 3.80242C41.4836 3.8863 41.5118 3.98881 41.5118 4.09133V32.7117C41.5118 32.8049 41.493 32.8888 41.446 32.9727C41.399 33.0472 41.3333 33.1125 41.2581 33.1591C41.1829 33.2057 41.0889 33.2336 40.9949 33.2336C40.9009 33.2336 40.8164 33.2057 40.7318 33.1684ZM23.1854 22.4602L40.431 31.845V5.31219L23.1854 22.4602Z" fill="#425D94"/>
<path d="M0.0747015 26.2813C0.0277106 26.1881 0.00891429 26.0763 0.0277106 25.9645C0.046507 25.8619 0.0934979 25.7594 0.168683 25.6849L15.7415 10.3915C15.7978 10.3355 15.873 10.2889 15.9482 10.2703C16.0234 10.2423 16.108 10.2423 16.1832 10.2517C16.2678 10.261 16.3429 10.2889 16.4087 10.3355C16.4745 10.3821 16.5309 10.4474 16.5591 10.5219L22.7807 22.3671C22.8183 22.4417 22.8371 22.5162 22.8371 22.6001C22.8371 22.684 22.8183 22.7585 22.7807 22.8331C22.7431 22.9076 22.6867 22.9729 22.6209 23.0195C22.5551 23.0661 22.4799 23.1034 22.3954 23.1127L0.619796 26.5609H0.535212C0.44123 26.5609 0.347248 26.533 0.262665 26.4864C0.178081 26.4398 0.112294 26.3652 0.0747015 26.2813ZM15.9952 11.6123L2.04832 25.2935L21.5307 22.19L15.9952 11.6123Z" fill="#425D94"/>
<path d="M22.2457 23.0938C22.1705 23.0752 22.0953 23.0472 22.0295 23.0006C21.9638 22.954 21.9074 22.8888 21.8698 22.8236L15.6388 10.997C15.6106 10.9225 15.5918 10.8479 15.5918 10.7734C15.5918 10.6988 15.6106 10.6242 15.6388 10.5497C15.667 10.4751 15.7234 10.4099 15.7798 10.3633C15.8455 10.3074 15.9113 10.2701 15.9959 10.2515L40.8541 3.57865C40.9669 3.55069 41.0796 3.55069 41.1924 3.59729C41.3052 3.64389 41.3898 3.71844 41.4462 3.81164C41.5026 3.91416 41.5214 4.02599 41.5026 4.13783C41.4838 4.24966 41.4368 4.35218 41.3616 4.43605L22.6968 22.9447C22.6498 22.9913 22.5934 23.0286 22.5276 23.0566C22.4619 23.0845 22.3961 23.0938 22.3209 23.0938H22.2457ZM16.8606 11.0809L22.4995 21.7239L39.247 5.06978L16.8606 11.0809Z" fill="#425D94"/>
<path d="M8.80587 53.5318C8.70249 53.5318 8.59911 53.4852 8.51452 53.4199C8.42994 53.3547 8.36415 53.2708 8.33596 53.1683L0.018577 26.1975C-0.000219301 26.1229 -0.00961747 26.0577 -0.000219302 25.9831C0.00917887 25.9085 0.0373734 25.8433 0.0749661 25.7781C0.112559 25.7128 0.168948 25.6662 0.225337 25.629C0.291124 25.5917 0.356911 25.5637 0.432097 25.5451L22.2265 22.0782C22.3204 22.0689 22.4144 22.0782 22.499 22.1062C22.5836 22.1341 22.6588 22.19 22.7152 22.2646C22.7716 22.3391 22.8091 22.423 22.8185 22.5162C22.8279 22.6094 22.8185 22.7026 22.7809 22.7865L9.31337 53.2242C9.27578 53.3174 9.20059 53.392 9.11601 53.4479C9.03142 53.5038 8.92804 53.5318 8.83406 53.5318H8.80587ZM1.20275 26.505L8.91865 51.5467L21.4652 23.2431L1.20275 26.505Z" fill="#425D94"/>
<path d="M8.81573 53.5318C8.67476 53.5318 8.54318 53.4759 8.4492 53.3827C8.35522 53.2895 8.29883 53.1591 8.29883 53.0193C8.29883 52.9074 8.33642 52.7956 8.41161 52.7024L21.851 22.3672C21.8792 22.302 21.9262 22.246 21.9732 22.1994C22.0296 22.1529 22.0859 22.1156 22.1611 22.0876C22.2269 22.0597 22.2927 22.041 22.3679 22.041C22.4431 22.041 22.5089 22.0597 22.5746 22.0876L41.23 32.2646C41.3146 32.3112 41.3804 32.3671 41.4274 32.451C41.4744 32.5255 41.5026 32.6187 41.5026 32.7026C41.5026 32.7865 41.4838 32.8797 41.4462 32.9542C41.4086 33.0288 41.3428 33.1033 41.2676 33.1499L9.11647 53.4573C9.03189 53.5132 8.9379 53.5318 8.83452 53.5318H8.81573ZM22.5746 23.2992L9.9999 51.6773L39.9707 32.7492L22.5746 23.2992Z" fill="#425D94"/>
<path d="M66.6232 83.5964L44.9228 69.207C44.8288 69.151 44.7631 69.0578 44.7255 68.9553C44.6879 68.8528 44.6879 68.741 44.7255 68.6385L48.9452 54.1465C48.9734 54.0533 49.0298 53.9695 49.105 53.9042C49.1802 53.839 49.2742 53.7924 49.3776 53.7738C49.4809 53.7644 49.5843 53.7738 49.6689 53.8204C49.7629 53.867 49.8381 53.9322 49.8945 54.0254L67.3657 82.944C67.4314 83.0465 67.4502 83.1677 67.4408 83.2795C67.422 83.4007 67.3657 83.5032 67.2811 83.5871C67.1871 83.6803 67.0555 83.7269 66.9239 83.7269C66.8206 83.7082 66.7172 83.6709 66.6326 83.5964H66.6232ZM45.8156 68.5639L65.2793 81.4622L49.6031 55.5631L45.8156 68.5639Z" fill="#425D94"/>
<path d="M45.1302 69.2911L24.8583 67.101C24.7456 67.0917 24.6422 67.0451 24.5576 66.9706C24.473 66.896 24.4166 66.7935 24.3978 66.6817C24.379 66.5698 24.3978 66.458 24.4448 66.3648C24.4918 66.2623 24.5764 66.1877 24.6798 66.1318L49.209 53.8579C49.303 53.8113 49.397 53.7927 49.5003 53.8113C49.6037 53.8207 49.6977 53.8673 49.7729 53.9232C49.8481 53.9884 49.9045 54.0723 49.9327 54.1655C49.9609 54.2587 49.9609 54.3612 49.9327 54.4544L45.7129 68.965C45.6847 69.0675 45.6189 69.1607 45.5249 69.2352C45.4309 69.3005 45.3276 69.3377 45.2148 69.3377L45.1302 69.2911ZM26.7004 66.2436L44.8389 68.2194L48.5981 55.2745L26.7004 66.2436Z" fill="#425D94"/>
<path d="M49.4253 54.7989L8.81581 53.5314C8.70303 53.5314 8.59965 53.4941 8.51507 53.4289C8.43049 53.3637 8.3647 53.2705 8.3365 53.1586C8.30831 53.0561 8.30831 52.9443 8.3459 52.8418C8.38349 52.7393 8.45868 52.6554 8.55266 52.5901L40.7038 32.2828C40.7696 32.2455 40.8448 32.2176 40.92 32.2082C40.9952 32.1989 41.0703 32.2082 41.1455 32.2269C41.2207 32.2455 41.2865 32.2921 41.3429 32.3387C41.3993 32.3946 41.4369 32.4506 41.4651 32.5251L49.9234 54.0999C49.9516 54.1745 49.961 54.2583 49.9516 54.3422C49.9422 54.4261 49.914 54.51 49.867 54.5752C49.82 54.6405 49.7542 54.6964 49.6791 54.743C49.6039 54.7802 49.5193 54.7989 49.4347 54.7989H49.4253ZM10.5263 52.5622L48.6735 53.7458L40.732 33.485L10.5263 52.5622Z" fill="#425D94"/>
<path d="M24.5761 66.9517L8.47702 53.4103C8.39244 53.3451 8.33605 53.2519 8.30785 53.1401C8.27966 53.0376 8.28906 52.9257 8.33605 52.8325C8.37364 52.73 8.43943 52.6461 8.53341 52.5902C8.62739 52.5343 8.73077 52.5063 8.83415 52.5063L49.453 53.7738C49.5658 53.7738 49.6786 53.8204 49.7632 53.895C49.8478 53.9695 49.9136 54.0627 49.9417 54.1746C49.9699 54.2864 49.9605 54.4075 49.9042 54.5101C49.8572 54.6126 49.7726 54.6964 49.6692 54.743L25.14 67.0169C25.0742 67.0542 24.9896 67.0728 24.9144 67.0728C24.7922 67.0728 24.6701 67.0356 24.5761 66.9517ZM10.3003 53.5781L24.9802 65.9452L47.3854 54.7617L10.3003 53.5781Z" fill="#425D94"/>
<path d="M60.9569 92.7298L44.7826 69.0674C44.7168 68.9649 44.6887 68.853 44.6981 68.7319C44.7074 68.6107 44.7638 68.4989 44.8484 68.415C44.933 68.3311 45.0458 68.2845 45.168 68.2659C45.2901 68.2566 45.4029 68.2845 45.5063 68.3498L67.2067 82.7392C67.3195 82.8138 67.3946 82.9256 67.4228 83.0561C67.451 83.1865 67.4228 83.317 67.357 83.4288L61.8309 92.7484C61.7839 92.823 61.7275 92.8882 61.6524 92.9348C61.5772 92.9814 61.4926 93 61.3986 93C61.3046 93 61.22 92.9721 61.1448 92.9255C61.0697 92.8789 61.0039 92.8137 60.9569 92.7298ZM47.1322 70.6704L61.3516 91.481L66.2199 83.3263L47.1322 70.6704Z" fill="#425D94"/>
<path d="M11.2969 54.6591C14.4641 48.7226 19.6331 43.3172 32.2924 36.896C32.4428 36.8122 32.5743 36.7003 32.6777 36.5698C32.7811 36.4301 32.8563 36.2716 32.8939 36.1039C32.9315 35.9361 32.9315 35.759 32.8939 35.5913C32.8563 35.4235 32.7811 35.2651 32.6777 35.1346C30.0086 31.4068 30.5255 19.8692 34.0592 21.817C34.0592 21.817 35.9389 22.7489 36.531 23.1497L42.2545 26.6631C42.4612 26.8029 42.7056 26.8682 42.9593 26.8682C43.2131 26.8682 43.448 26.7936 43.6548 26.6631C43.7394 26.5979 43.7958 26.5047 43.8897 26.4395C45.8821 25.0602 51.5962 21.0155 64.6503 23.0378C66.1728 23.2708 66.9998 25.0229 66.7085 26.5233C65.9848 30.0741 64.1616 36.253 59.4907 39.142C59.3685 39.2166 59.2651 39.3005 59.1712 39.4123C57.8178 41.1085 47.3201 52.6181 48.8332 74.2675C48.2599 72.5247 47.2919 70.9311 46.0137 69.6077C45.0739 68.6758 43.1943 67.7438 40.3748 68.6758H39.4914C39.2188 68.4614 36.0517 67.865 35.7321 67.7438C33.6645 66.9423 26.334 66.8119 25.3941 66.8119" fill="white"/>
<path d="M24.5761 66.9517L8.47702 53.4103C8.39244 53.3451 8.33605 53.2519 8.30785 53.1401C8.27966 53.0376 8.28906 52.9257 8.33605 52.8325C8.37364 52.73 8.43943 52.6461 8.53341 52.5902C8.62739 52.5343 8.73077 52.5063 8.83415 52.5063L49.453 53.7738C49.5658 53.7738 49.6786 53.8204 49.7632 53.895C49.8478 53.9695 49.9136 54.0627 49.9417 54.1746C49.9699 54.2864 49.9605 54.4075 49.9042 54.5101C49.8572 54.6126 49.7726 54.6964 49.6692 54.743L25.14 67.0169C25.0742 67.0542 24.9896 67.0728 24.9144 67.0728C24.7922 67.0728 24.6701 67.0356 24.5761 66.9517ZM10.3003 53.5781L24.9802 65.9452L47.3854 54.7617L10.3003 53.5781Z" fill="#425D94"/>
<path d="M45.1302 69.2911L24.8583 67.101C24.7456 67.0917 24.6422 67.0451 24.5576 66.9706C24.473 66.896 24.4166 66.7935 24.3978 66.6817C24.379 66.5698 24.3978 66.458 24.4448 66.3648C24.4918 66.2623 24.5764 66.1877 24.6798 66.1318L49.209 53.8579C49.303 53.8113 49.397 53.7927 49.5003 53.8113C49.6037 53.8207 49.6977 53.8673 49.7729 53.9232C49.8481 53.9884 49.9045 54.0723 49.9327 54.1655C49.9609 54.2587 49.9609 54.3612 49.9327 54.4544L45.7129 68.965C45.6847 69.0675 45.6189 69.1607 45.5249 69.2352C45.4309 69.3005 45.3276 69.3377 45.2148 69.3377L45.1302 69.2911ZM26.7004 66.2436L44.8389 68.2194L48.5981 55.2745L26.7004 66.2436Z" fill="#425D94"/>
<path d="M60.9569 92.7298L44.7826 69.0674C44.7168 68.9649 44.6887 68.853 44.6981 68.7319C44.7074 68.6107 44.7638 68.4989 44.8484 68.415C44.933 68.3311 45.0458 68.2845 45.168 68.2659C45.2901 68.2566 45.4029 68.2845 45.5063 68.3498L67.2067 82.7392C67.3195 82.8138 67.3946 82.9256 67.4228 83.0561C67.451 83.1865 67.4228 83.317 67.357 83.4288L61.8309 92.7484C61.7839 92.823 61.7275 92.8882 61.6524 92.9348C61.5772 92.9814 61.4926 93 61.3986 93C61.3046 93 61.22 92.9721 61.1448 92.9255C61.0697 92.8789 61.0039 92.8137 60.9569 92.7298ZM47.1322 70.6704L61.3516 91.481L66.2199 83.3263L47.1322 70.6704Z" fill="#425D94"/>
<path d="M8.80587 53.5318C8.70249 53.5318 8.59911 53.4852 8.51452 53.4199C8.42994 53.3547 8.36415 53.2708 8.33596 53.1683L0.018577 26.1975C-0.000219301 26.1229 -0.00961747 26.0577 -0.000219302 25.9831C0.00917887 25.9085 0.0373734 25.8433 0.0749661 25.7781C0.112559 25.7128 0.168948 25.6662 0.225337 25.629C0.291124 25.5917 0.356911 25.5637 0.432097 25.5451L22.2265 22.0782C22.3204 22.0689 22.4144 22.0782 22.499 22.1062C22.5836 22.1341 22.6588 22.19 22.7152 22.2646C22.7716 22.3391 22.8091 22.423 22.8185 22.5162C22.8279 22.6094 22.8185 22.7026 22.7809 22.7865L9.31337 53.2242C9.27578 53.3174 9.20059 53.392 9.11601 53.4479C9.03142 53.5038 8.92804 53.5318 8.83406 53.5318H8.80587ZM1.20275 26.505L8.91865 51.5467L21.4652 23.2431L1.20275 26.505Z" fill="#425D94"/>
<path d="M98.0322 71.4995L49.265 54.7709C49.1523 54.7429 49.0489 54.6684 48.9831 54.5752C48.9173 54.482 48.8797 54.3608 48.8891 54.2397C48.8891 54.1279 48.9455 54.016 49.0207 53.9321C49.0959 53.8483 49.2087 53.7923 49.3214 53.783L103.831 45.3954C103.915 45.3768 104 45.3954 104.085 45.4141C104.169 45.442 104.235 45.4886 104.291 45.5539C104.348 45.6098 104.395 45.6843 104.414 45.7682C104.442 45.8521 104.442 45.936 104.414 46.0198L98.69 71.1268C98.6712 71.2013 98.6431 71.2665 98.5961 71.3225C98.5491 71.3784 98.4927 71.425 98.4363 71.4623C98.3611 71.5089 98.2671 71.5275 98.1825 71.5275C98.1261 71.5275 98.0792 71.5182 98.0228 71.4995H98.0322ZM51.577 54.482L97.8254 70.3253L103.229 46.5044L51.577 54.482Z" fill="#425D94"/>
<path d="M49.4251 54.799C49.3593 54.799 49.2841 54.7896 49.2277 54.7617C49.162 54.7337 49.1056 54.6964 49.0586 54.6498C49.0116 54.6032 48.974 54.5473 48.9458 54.4821C48.9176 54.4168 48.9082 54.3516 48.9082 54.2864C48.9082 54.1932 48.9364 54.1093 48.9834 54.0254C49.0304 53.9509 49.0962 53.8856 49.1714 53.839L68.8229 36.5233C68.8887 36.4674 68.9639 36.4301 69.0485 36.4114C69.1331 36.3928 69.2176 36.3928 69.3022 36.4114L104.075 45.4048C104.188 45.4328 104.301 45.498 104.367 45.6005C104.442 45.6937 104.47 45.8149 104.47 45.936C104.47 46.0572 104.414 46.169 104.329 46.2529C104.245 46.3368 104.132 46.3927 104.019 46.4113L49.5567 54.799H49.4345H49.4251ZM69.3022 37.4739L51.098 53.5128L101.359 45.7776L69.3022 37.4739Z" fill="#425D94"/>
<path d="M40.7317 17.9681C45.7315 17.9681 49.7915 13.9421 49.7915 8.98407C49.7915 4.02605 45.7315 0 40.7317 0C35.7319 0 31.6719 4.02605 31.6719 8.98407C31.6719 13.9421 35.7319 17.9681 40.7317 17.9681Z" fill="#5E7EB9"/>
<path d="M66.2192 88.7409C69.7436 88.7409 72.6006 85.9078 72.6006 82.413C72.6006 78.9181 69.7436 76.085 66.2192 76.085C62.6949 76.085 59.8379 78.9181 59.8379 82.413C59.8379 85.9078 62.6949 88.7409 66.2192 88.7409Z" fill="#654DC0"/>
<path d="M26.822 73.606C30.9666 73.606 34.3217 70.2789 34.3217 66.169C34.3217 62.059 30.9666 58.7319 26.822 58.7319C22.6774 58.7319 19.3223 62.059 19.3223 66.169C19.3223 70.2789 22.6774 73.606 26.822 73.606Z" fill="#285A70"/>
<path d="M93.1268 26.7005C97.0176 26.7005 100.175 23.5692 100.175 19.7109C100.175 15.8526 97.0176 12.7212 93.1268 12.7212C89.2359 12.7212 86.0781 15.8526 86.0781 19.7109C86.0781 23.5692 89.2359 26.7005 93.1268 26.7005Z" fill="#285A70"/>
<path d="M10.5164 57.9209C13.7588 57.9209 16.3903 55.3115 16.3903 52.0962C16.3903 48.881 13.7588 46.2715 10.5164 46.2715C7.27407 46.2715 4.64258 48.881 4.64258 52.0962C4.64258 55.3115 7.27407 57.9209 10.5164 57.9209Z" fill="#6098BF"/>
<path d="M22.5928 26.4957C24.604 26.4957 26.2393 24.8741 26.2393 22.8797C26.2393 20.8853 24.604 19.2637 22.5928 19.2637C20.5816 19.2637 18.9463 20.8853 18.9463 22.8797C18.9463 24.8741 20.5816 26.4957 22.5928 26.4957Z" fill="#654DC0"/>
<path d="M70.0069 41.3695C72.3376 41.3695 74.2267 39.4962 74.2267 37.185C74.2267 34.8737 72.3376 33.0005 70.0069 33.0005C67.6761 33.0005 65.7871 34.8737 65.7871 37.185C65.7871 39.4962 67.6761 41.3695 70.0069 41.3695Z" fill="#6098BF"/>
<path d="M102.008 53.7274C105.871 53.7274 109 50.624 109 46.7936C109 42.9633 105.871 39.8599 102.008 39.8599C98.1452 39.8599 95.0156 42.9633 95.0156 46.7936C95.0156 50.624 98.1452 53.7274 102.008 53.7274Z" fill="#5E78BA"/>
<path d="M54.096 64.5755C60.0262 64.5755 64.8287 59.8131 64.8287 53.9325C64.8287 48.0518 60.0262 43.2896 54.096 43.2896C48.1657 43.2896 43.3633 48.0518 43.3633 53.9325C43.3633 59.8131 48.1657 64.5755 54.096 64.5755Z" fill="#425D94"/>
<path d="M83.2399 70.0926C86.1439 70.0926 88.4935 67.7627 88.4935 64.883C88.4935 62.0032 86.1439 59.6733 83.2399 59.6733C80.3359 59.6733 77.9863 62.0032 77.9863 64.883C77.9863 67.7627 80.3359 70.0926 83.2399 70.0926Z" fill="#6098BF"/>
</g>
<defs>
<clipPath id="clip0_4449_16684">
<rect width="109" height="93" fill="white"/>
</clipPath>
</defs>
</svg>
