<?xml version="1.0" encoding="utf-8"?>
<!-- Generator: Adobe Illustrator 26.3.1, SVG Export Plug-In . SVG Version: 6.00 Build 0)  -->
<svg version="1.1" id="Layer_1" xmlns="http://www.w3.org/2000/svg" xmlns:xlink="http://www.w3.org/1999/xlink" x="0px" y="0px"
	 viewBox="0 0 71.9 80" style="enable-background:new 0 0 71.9 80;" xml:space="preserve">
<style type="text/css">
	.st0{fill:#29B6F6;}
	.st1{fill:#4DB6AC;}
	.st2{fill:#FFCA28;}
	.st3{fill:#F9A825;}
	.st4{fill:#009688;}
	.st5{fill:#212121;}
</style>
<path class="st0" d="M64,40c0-6.6-5.4-12-12-12H1.8C0.6,31.8,0,35.8,0,40s0.6,8.2,1.8,12H52C58.6,52,64,46.6,64,40z"/>
<path class="st1" d="M40,80c13,0,24.6-6.3,31.9-15.9C67.7,60.3,62.1,58,56,58H4.3C10.9,71,24.4,80,40,80z"/>
<path class="st2" d="M40,0C24.4,0,10.9,9,4.3,22H56c6.1,0,11.7-2.3,15.9-6C64.6,6.3,53,0,40,0z"/>
<path class="st3" d="M34.1,22c-3-6.7-7.7-12.6-13.5-17c-7,3.9-12.7,9.8-16.4,17H34.1z"/>
<path class="st4" d="M20.7,75c5.8-4.4,10.5-10.3,13.5-17H4.3C7.9,65.2,13.6,71.1,20.7,75z"/>
<path class="st5" d="M1.9,28C0.7,31.8,0,35.8,0,40s0.7,8.2,1.9,12h34.5c1.1-3.8,1.7-7.8,1.7-12s-0.6-8.2-1.7-12H1.9z"/>
</svg>
