<svg width="41" height="41" viewBox="0 0 41 41" fill="none" xmlns="http://www.w3.org/2000/svg">
<path fill-rule="evenodd" clip-rule="evenodd" d="M21.5366 9.88008L21.457 9.87008C21.032 9.8169 20.6797 9.53713 20.5002 9.14872C20.0888 8.25554 19.2115 7.60304 18.1388 7.53986C16.7502 7.45781 15.4888 8.45895 15.2502 9.83054C14.9752 11.403 16.0729 12.8671 17.6388 13.0626C18.6297 13.1862 19.5616 12.7708 20.1434 12.0455C20.4093 11.7153 20.8206 11.5378 21.2411 11.5903L21.3184 11.5999C21.7706 11.6565 22.1388 11.9694 22.3002 12.396C22.7616 13.6192 23.9343 14.5214 25.3775 14.5289C26.8843 14.5364 28.2275 13.4819 28.5797 12.0169C29.0479 10.0701 27.7184 8.20576 25.7888 7.96486C24.532 7.80781 23.3547 8.38122 22.6797 9.35236C22.4206 9.72463 21.9866 9.93622 21.5366 9.88008Z" stroke="currentColor" stroke-miterlimit="2" stroke-linecap="round" stroke-linejoin="round"/>
<path fill-rule="evenodd" clip-rule="evenodd" d="M12.9226 18.5798L12.8794 18.5121C12.6498 18.1521 12.6385 17.7019 12.8226 17.3155C13.243 16.4271 13.1839 15.336 12.5453 14.4726C11.718 13.3526 10.1408 13.0242 8.93621 13.7192C7.55212 14.516 7.1294 16.296 7.98168 17.6235C8.52259 18.4637 9.4385 18.9142 10.368 18.8973C10.793 18.8896 11.1908 19.0917 11.4203 19.4482L11.4612 19.5133C11.7089 19.8969 11.7044 20.381 11.4794 20.7778C10.8362 21.9157 10.893 23.3942 11.8135 24.5076C12.7726 25.6696 14.443 26.0264 15.793 25.3589C17.5885 24.4717 18.168 22.256 17.118 20.6192C16.4339 19.5542 15.2385 19.0176 14.0612 19.1196C13.6089 19.1589 13.168 18.9617 12.9226 18.5798Z" stroke="currentColor" stroke-miterlimit="2" stroke-linecap="round" stroke-linejoin="round"/>
<path d="M31.5795 26.7439H31.6227" stroke="currentColor" stroke-miterlimit="2" stroke-linecap="round" stroke-linejoin="round"/>
<path d="M32.4886 14.9257H32.5318" stroke="currentColor" stroke-miterlimit="2" stroke-linecap="round" stroke-linejoin="round"/>
<path d="M7.94318 24.0167H7.98638" stroke="currentColor" stroke-miterlimit="2" stroke-linecap="round" stroke-linejoin="round"/>
<path d="M20.152 17.5305H20.1952" stroke="currentColor" stroke-miterlimit="2" stroke-linecap="round" stroke-linejoin="round"/>
<path fill-rule="evenodd" clip-rule="evenodd" d="M40.5 20.4995C40.5 9.45409 31.5455 0.5 20.5 0.5C9.45455 0.5 0.5 9.45409 0.5 20.4995C0.5 31.545 9.45455 40.4993 20.5 40.4993C31.5455 40.4993 40.5 31.545 40.5 20.4995Z" stroke="currentColor" stroke-miterlimit="2" stroke-linecap="round" stroke-linejoin="round"/>
<path fill-rule="evenodd" clip-rule="evenodd" d="M18.7407 30.6469C18.7407 29.4403 17.7635 28.4623 16.5567 28.4623C15.3498 28.4623 14.3703 29.4403 14.3703 30.6469C14.3703 31.8535 15.3498 32.8317 16.5567 32.8317C17.7635 32.8317 18.7407 31.8535 18.7407 30.6469Z" stroke="currentColor" stroke-miterlimit="2" stroke-linecap="round" stroke-linejoin="round"/>
<path fill-rule="evenodd" clip-rule="evenodd" d="M27.5137 25.3396C27.7432 24.8046 28.2273 24.4223 28.8 24.3169C29.8887 24.1167 30.8523 23.3603 31.2569 22.2194C31.7978 20.6958 31.0864 18.9648 29.6341 18.2562C27.9682 17.4439 25.9819 18.1955 25.2591 19.8787C24.8137 20.9139 24.9546 22.0526 25.5318 22.9269C25.85 23.4062 25.8909 24.0173 25.6637 24.5453C25.4341 25.0803 24.9523 25.4626 24.3796 25.568C23.2887 25.7685 22.325 26.5246 21.9205 27.6655C21.3818 29.1894 22.0909 30.9203 23.5455 31.6287C25.2114 32.4412 27.1978 31.6894 27.9205 30.0064C28.3659 28.971 28.2228 27.8326 27.6455 26.9583C27.3296 26.4787 27.2887 25.8678 27.5137 25.3396Z" stroke="currentColor" stroke-miterlimit="2" stroke-linecap="round" stroke-linejoin="round"/>
</svg>
