<svg viewBox="0 0 144 144" width="100" height="100" fill="none" xmlns="http://www.w3.org/2000/svg">
  <path
    d="M36 6H18a3 3 0 1 0 0 6h18a3 3 0 1 0 0-6ZM36 48H18a3 3 0 1 0 0 6h18a3 3 0 1 0 0-6ZM36 78H18a3 3 0 1 0 0 6h18a3 3 0 1 0 0-6Z"
    fill="#42C7BB"
  />
  <path
    d="M36 90H18a3 3 0 1 0 0 6h18a3 3 0 1 0 0-6ZM36 120H18a3 3 0 1 0 0 6h18a3 3 0 1 0 0-6Z"
    fill="#3E6CA7"
  />
  <path d="M36 132H18a3 3 0 1 0 0 6h18a3 3 0 1 0 0-6Z" fill="#42C7BB" />
  <path
    d="M36 18H18a3 3 0 0 0-3 3v18a3 3 0 0 0 3 3h18a3 3 0 0 0 3-3V21a3 3 0 0 0-3-3Z"
    fill="#8B8AD1"
  />
  <path
    d="M36 60H18a3 3 0 0 0-3 3v6a3 3 0 0 0 3 3h18a3 3 0 0 0 3-3v-6a3 3 0 0 0-3-3Z"
    fill="#423978"
  />
  <path
    d="M36 102H18a3 3 0 0 0-3 3v6a3 3 0 0 0 3 3h18a3 3 0 0 0 3-3v-6a3 3 0 0 0-3-3Z"
    fill="#8B8AD1"
  />
  <path
    d="M126 6h-18a3 3 0 1 0 0 6h18a3 3 0 1 0 0-6ZM126 66h-18a3 3 0 1 0 0 6h18a3 3 0 1 0 0-6Z"
    fill="#42C7BB"
  />
  <path d="M126 78h-18a3 3 0 1 0 0 6h18a3 3 0 1 0 0-6Z" fill="#3E6CA7" />
  <path d="M126 90h-18a3 3 0 1 0 0 6h18a3 3 0 1 0 0-6Z" fill="#42C7BB" />
  <path d="M126 120h-18a3 3 0 1 0 0 6h18a3 3 0 1 0 0-6Z" fill="#3E6CA7" />
  <path d="M126 132h-18a3 3 0 1 0 0 6h18a3 3 0 1 0 0-6Z" fill="#42C7BB" />
  <path
    d="M126 18h-18a3 3 0 0 0-3 3v18a3 3 0 0 0 3 3h18a3 3 0 0 0 3-3V21a3 3 0 0 0-3-3Z"
    fill="#423978"
  />
  <path
    d="M126 48h-18a3 3 0 0 0-3 3v6a3 3 0 0 0 3 3h18a3 3 0 0 0 3-3v-6a3 3 0 0 0-3-3Z"
    fill="#8B8AD1"
  />
  <path
    d="M126 102h-18a3 3 0 0 0-3 3v6a3 3 0 0 0 3 3h18a3 3 0 0 0 3-3v-6a3 3 0 0 0-3-3Z"
    fill="#423978"
  />
  <path d="M48 138h18a3 3 0 1 0 0-6H48a3 3 0 1 0 0 6Z" fill="#42C7BB" />
  <path d="M48 54h18a3 3 0 1 0 0-6H48a3 3 0 1 0 0 6Z" fill="#3E6CA7" />
  <path d="M78 54h18a3 3 0 1 0 0-6H78a3 3 0 1 0 0 6Z" fill="#42C7BB" />
  <path d="M78 66h18a3 3 0 1 0 0-6H78a3 3 0 1 0 0 6Z" fill="#5FDECC" />
  <path d="M48 24h18a3 3 0 1 0 0-6H48a3 3 0 1 0 0 6Z" fill="#3E6CA7" />
  <path d="M48 12h18a3 3 0 1 0 0-6H48a3 3 0 1 0 0 6Z" fill="#42C7BB" />
  <path
    d="M48 126h18a3 3 0 0 0 3-3v-18a3 3 0 0 0-3-3H48a3 3 0 0 0-3 3v18a3 3 0 0 0 3 3Z"
    fill="#B09CF8"
  />
  <path
    d="M48 42h18a3 3 0 0 0 3-3v-6a3 3 0 0 0-3-3H48a3 3 0 0 0-3 3v6a3 3 0 0 0 3 3Z"
    fill="#423978"
  />
  <path
    d="M96 6H78a3 3 0 1 0 0 6h18a3 3 0 1 0 0-6ZM96 114H78a3 3 0 1 0 0 6h18a3 3 0 1 0 0-6Z"
    fill="#42C7BB"
  />
  <path
    d="M96 18H78a3 3 0 0 0-3 3v18a3 3 0 0 0 3 3h18a3 3 0 0 0 3-3V21a3 3 0 0 0-3-3Z"
    fill="#8B8AD1"
  />
  <path
    d="M96 126H78a3 3 0 0 0-3 3v6a3 3 0 0 0 3 3h18a3 3 0 0 0 3-3v-6a3 3 0 0 0-3-3Z"
    fill="#423978"
  />
  <path d="M87.024 103.8V77.01" stroke="#5FDECC" stroke-width="10" stroke-miterlimit="10" />
  <path
    d="M78.516 83.4 87 74.916l8.484 8.484"
    stroke="#5FDECC"
    stroke-width="10"
    stroke-linecap="round"
    stroke-linejoin="round"
  />
  <path d="M56.976 62.316v26.79" stroke="#B09CF8" stroke-width="10" stroke-miterlimit="10" />
  <path
    d="M65.484 82.716 57 91.2l-8.484-8.484"
    stroke="#B09CF8"
    stroke-width="10"
    stroke-linecap="round"
    stroke-linejoin="round"
  />
</svg>
