<svg
  width="45"
  height="45"
  viewBox="0 0 192 192"
  fill="none"
  xmlns="http://www.w3.org/2000/svg"
>
  <path d="M75.928 64.432V8v56.432Z" fill="#fff" />
  <path d="M75.928 64.432V8" stroke="#42C7BB" stroke-width="10" stroke-miterlimit="10" />
  <path
    d="M43.968 100.4c6.112 0 13.196-.083 19.376-2.517 6.547-2.577 11.8-7.65 14.513-16.739l-7.666-2.288c-2.032 6.809-5.59 9.935-9.777 11.583C55.86 92.232 50.288 92.4 43.968 92.4c-8.16 0-15.898 3.418-22.056 8.52l2.566 3.097-2.573-3.091C13.81 107.664 8 117.829 8 128.368V184h8v-55.632c0-7.665 4.332-15.722 11.016-21.288 5.043-4.178 11.032-6.68 16.952-6.68Z"
    fill="#8B8AD1"
  />
  <path
    d="M22.896 92.608C16.44 88.672 12 80.68 12 64.432V8"
    stroke="#42C7BB"
    stroke-width="10"
    stroke-miterlimit="10"
  />
  <path d="M75.928 184v-55.632c0-7.296-3.256-14.592-8.344-20.376" fill="#fff" />
  <path
    d="M75.928 184v-55.632c0-7.296-3.256-14.592-8.344-20.376"
    stroke="#42C7BB"
    stroke-width="10"
    stroke-miterlimit="10"
  />
  <path d="M179.928 64.432V8v56.432Z" fill="#fff" />
  <path d="M179.928 64.432V8" stroke="#8B8AD1" stroke-width="10" stroke-miterlimit="10" />
  <path
    d="M147.968 100.4c6.112 0 13.196-.083 19.376-2.517 6.547-2.577 11.801-7.65 14.513-16.739l-7.666-2.288c-2.032 6.809-5.59 9.935-9.777 11.583-4.554 1.793-10.126 1.961-16.446 1.961-8.16 0-15.898 3.418-22.056 8.52l2.566 3.097-2.573-3.091C117.809 107.664 112 117.829 112 128.368V184h8v-55.632c0-7.665 4.332-15.722 11.016-21.288 5.043-4.178 11.033-6.68 16.952-6.68Z"
    fill="#42C7BB"
  />
  <path
    d="M126.896 92.608C120.44 88.672 116 80.68 116 64.432V8M179.928 184v-55.632c0-7.296-3.256-14.592-8.344-20.376"
    stroke="#8B8AD1"
    stroke-width="10"
    stroke-miterlimit="10"
  />
  <path d="M56 168H24a4 4 0 0 0 0 8h32a4 4 0 0 0 0-8Z" fill="#AFA2FF" />
  <path d="M64 152H32a4 4 0 0 0 0 8h32a4 4 0 0 0 0-8Z" fill="#423978" />
  <path d="M64 120H32a4 4 0 0 0 0 8h32a4 4 0 0 0 0-8Z" fill="#42C7BB" />
  <path d="M56 104H40a4 4 0 0 0 0 8h16a4 4 0 0 0 0-8Z" fill="#AAA3D2" />
  <path d="M56 80H40a4 4 0 0 0 0 8h16a4 4 0 0 0 0-8Z" fill="#fff" />
  <path d="M56 136H24a4 4 0 0 0 0 8h32a4 4 0 0 0 0-8Z" fill="#AFA2FF" />
  <path d="M56 64H24a4 4 0 0 0 0 8h32a4 4 0 0 0 0-8Z" fill="#AAA3D2" />
  <path
    d="M64 48H32a4 4 0 0 0 0 8h32a4 4 0 0 0 0-8ZM68 16H36a4 4 0 0 0 0 8h32a4 4 0 0 0 0-8Z"
    fill="#423978"
  />
  <path d="M60 32H28a4 4 0 0 0 0 8h32a4 4 0 0 0 0-8Z" fill="#AAA3D2" />
  <path d="M160 168h-32a4 4 0 0 0 0 8h32a4 4 0 0 0 0-8Z" fill="#5FDECC" />
  <path
    d="M168 152h-32a4 4 0 0 0 0 8h32a4 4 0 0 0 0-8ZM168 120h-32a4 4 0 0 0 0 8h32a4 4 0 0 0 0-8Z"
    fill="#3E6CA7"
  />
  <path d="M160 104h-16a4 4 0 0 0 0 8h16a4 4 0 0 0 0-8Z" fill="#5FDECC" />
  <path d="M160 80h-16a4 4 0 0 0 0 8h16a4 4 0 0 0 0-8Z" fill="#fff" />
  <path d="M160 136h-32a4 4 0 0 0 0 8h32a4 4 0 0 0 0-8Z" fill="#5FDECC" />
  <path d="M160 64h-32a4 4 0 0 0 0 8h32a4 4 0 0 0 0-8Z" fill="#3E6CA7" />
  <path
    d="M168 48h-32a4 4 0 0 0 0 8h32a4 4 0 0 0 0-8ZM168 16h-32a4 4 0 0 0 0 8h32a4 4 0 0 0 0-8Z"
    fill="#5FDECC"
  />
  <path d="M160 32h-32a4 4 0 0 0 0 8h32a4 4 0 0 0 0-8Z" fill="#3E6CA7" />
</svg>