<svg width="44" height="38" viewBox="0 0 44 38" fill="none" xmlns="http://www.w3.org/2000/svg">
<path d="M24.1543 0.500488C24.1543 9.75043 7.06445 9.75043 7.06445 19.0004C7.06445 28.2501 24.1543 28.2501 24.1543 37.5" stroke="currentColor" stroke-miterlimit="2" stroke-linecap="round" stroke-linejoin="round"/>
<path d="M7.06445 37.4998C7.06445 31.9543 13.2078 29.7323 18.1283 26.8511" stroke="currentColor" stroke-miterlimit="2" stroke-linecap="round" stroke-linejoin="round"/>
<path d="M7.06445 0.5C7.06445 6.60496 14.5095 8.68056 19.5722 12.0466" stroke="currentColor" stroke-miterlimit="2" stroke-linecap="round" stroke-linejoin="round"/>
<path d="M16.814 16.2812H10.7812" stroke="currentColor" stroke-miterlimit="2" stroke-linecap="round" stroke-linejoin="round"/>
<path d="M16.179 21.7184H10.8005" stroke="currentColor" stroke-miterlimit="2" stroke-linecap="round" stroke-linejoin="round"/>
<path d="M10.8005 3.21985H20.4385" stroke="currentColor" stroke-miterlimit="2" stroke-linecap="round" stroke-linejoin="round"/>
<path d="M10.7812 34.7803H20.4215" stroke="currentColor" stroke-miterlimit="2" stroke-linecap="round" stroke-linejoin="round"/>
<path fill-rule="evenodd" clip-rule="evenodd" d="M21.0598 13.3195C24.6785 9.6933 30.5466 9.6933 34.1654 13.3195C37.7864 16.9457 37.7864 22.8251 34.1654 26.4515C30.5466 30.0777 24.6785 30.0777 21.0598 26.4515C17.441 22.8251 17.441 16.9457 21.0598 13.3195Z" stroke="currentColor" stroke-miterlimit="2" stroke-linecap="round" stroke-linejoin="round"/>
<path d="M32.6074 28.0067L37.819 33.2345L40.9347 30.1211L35.7253 24.8936" stroke="currentColor" stroke-miterlimit="2" stroke-linecap="round" stroke-linejoin="round"/>
</svg>
