<svg width="22" height="22" fill="none" xmlns="http://www.w3.org/2000/svg">
  <path
    opacity=".3"
    d="M11 3.667A7.331 7.331 0 0 0 3.667 11 7.331 7.331 0 0 0 11 18.333 7.331 7.331 0 0 0 18.334 11 7.331 7.331 0 0 0 11 3.667Zm.917 11.916h-1.833V13.75h1.833v1.833Zm0-3.666h-1.833v-5.5h1.833v5.5Z"
    fill="#CC9F00"
  />
  <path
    d="M10.99 1.833C5.93 1.833 1.834 5.94 1.834 11s4.098 9.167 9.158 9.167c5.069 0 9.175-4.107 9.175-9.167s-4.106-9.167-9.175-9.167Zm.01 16.5A7.331 7.331 0 0 1 3.666 11 7.331 7.331 0 0 1 11 3.667 7.331 7.331 0 0 1 18.333 11 7.331 7.331 0 0 1 11 18.333Zm-.917-4.583h1.833v1.833h-1.833V13.75Zm0-7.333h1.833v5.5h-1.833v-5.5Z"
    fill="#CC9F00"
  />
</svg>