<svg width="74" height="64" viewBox="0 0 74 64" fill="none" xmlns="http://www.w3.org/2000/svg">
<g clip-path="url(#clip0_2315_45235)">
<mask id="mask0_2315_45235" style="mask-type:alpha" maskUnits="userSpaceOnUse" x="0" y="0" width="73" height="65">
<path d="M71.9432 28.4513C73.2457 30.6702 73.2457 33.4201 71.9432 35.639L57.3421 60.5126C56.0674 62.6841 53.7378 64.0179 51.2198 64.0179L21.8123 64.0179C19.2944 64.0179 16.9648 62.6841 15.6901 60.5126L1.089 35.639C-0.213501 33.4201 -0.213501 30.6702 1.089 28.4513L15.6901 3.57772C16.9648 1.40622 19.2944 0.0724201 21.8123 0.0724201L51.2198 0.0724201C53.7378 0.0724201 56.0674 1.40622 57.3421 3.57772L71.9432 28.4513Z" fill="#FF0CE7"/>
</mask>
<g mask="url(#mask0_2315_45235)">
<path d="M66.5841 45.8627L61.8735 53.6939L61.6203 53.0007L61.3596 52.4165L61.1063 51.9432L60.9492 51.6252L60.3946 50.8506L59.6403 50.0704L59.0302 49.5065L58.5236 49.135L57.9043 48.6802L56.882 48.0664L55.3401 47.5968L54.804 47.4415L54.3862 47.4082L54.0016 47.386L53.5358 47.3454H53.0699L52.763 47.338H52.5032L52.4561 47.3454L51.65 47.4341L50.5963 47.582L50.1821 47.6486L49.8244 47.6892L50.086 47.386L50.5297 46.3655L50.8255 45.1824L50.9142 44.1471V42.9047L50.8625 41.8398L50.7737 41.4405L51.6205 40.9857L52.9183 40.1834L53.7317 39.6066L54.0275 39.3884L54.2789 39.174L55.6396 37.9057L56.5011 37.0405L57.3626 35.9646L58.1391 34.9552L58.7455 33.9125L59.2446 32.9437L59.6883 31.8752L59.9361 31.0543L60.1579 30.0264L60.2282 29.5236L60.2541 29.1649L60.2873 28.6769L60.2541 28.1518L60.2097 27.9078L60.181 27.6517L60.6719 27.9078L61.245 28.3108L62.0362 28.9505L62.3986 29.2463L62.7277 29.5827L63.4967 30.3444L64.4359 31.413L65.1865 32.4261L65.5784 33.014L65.8335 33.4651L66.1608 34.0456L66.2846 34.2859L66.5656 34.8905L66.8392 35.4802L67.3421 36.7078L67.5344 37.3733L67.6083 37.7098L67.8302 38.7007L67.9263 39.4106L68.0594 40.2869L68.0816 41.3148L68.0594 42.0395V42.5498L68.0113 42.9787L66.5841 45.8627Z" fill="#FDB635"/>
<path d="M29.3062 32.3114L28.8343 31.7789L28.4909 32.2633L27.7847 33.0564L27.0896 33.8606L26.6791 34.2618L26.1449 34.7776L25.3129 35.4819L24.5697 36.044L23.577 36.6078L23.1998 36.7816L22.6341 37.0404L22.1756 37.2161L21.4565 37.4804L21.2346 37.5414L20.5968 37.6912L20.1124 37.7781L19.5356 37.8835L19.0198 37.9371L18.6482 37.9888L18.3802 38.0129L17.6998 38.0609L17.0713 38.1127L16.3577 38.1645L16.7163 38.6932L17.1489 39.3181L17.5519 39.8986L17.9809 40.59L18.4985 41.4182L18.9792 42.2945L19.4487 43.2004L19.7482 43.8364L20.3509 45.0528L20.8871 46.1251L21.2975 46.9275L21.8817 47.8592L22.2034 48.2622L22.3993 48.5211L22.5657 48.7762L22.806 49.1164L22.9909 49.3863L23.3718 49.7699L23.405 49.072L23.5086 48.2105L23.6306 47.0495L23.8044 46.0696L24.041 45.2488L24.4292 44.1876L25.0097 43.1339L25.7123 42.0542L26.4111 41.2186L27.3724 40.3127L28.441 39.5695L29.4763 38.9927L29.9736 38.7431L30.4617 38.5116L30.9127 38.329L31.3675 38.1571L32.2087 37.9389L32.9427 37.804L33.5001 37.7217L33.4219 37.6357L33.2754 37.4777L33.1308 37.3224L32.9251 37.0834L32.7236 36.85L32.4846 36.5745L32.211 36.2173L31.9725 35.9035L31.7248 35.5896L31.4637 35.2615L31.3643 35.1381L31.2335 34.9564L30.6669 34.1675L30.2306 33.5241L29.7795 32.8956L29.3062 32.3114Z" fill="#55AD7C"/>
<path d="M0.517761 34.502L0.961456 35.5077L1.00583 35.1675L1.16112 34.5686L1.51608 33.6886L1.94498 32.8899L2.49221 32.1208L3.05422 31.5625L3.61624 31.1299L4.11909 30.7528L4.59977 30.4939L5.58329 30.102L6.62598 29.7766L7.45421 29.6287L8.21589 29.4365L9.33253 29.3108L10.5157 29.1702L11.7507 29.0741L13.2149 28.9558L14.6939 28.8597L15.7735 28.66L16.868 28.4603L17.6888 28.2237L19.0421 27.8392L20.3066 27.4176L21.6451 26.9887L22.9318 26.4563L23.5826 26.1235L22.8209 25.3914L22.0518 24.7259L21.0757 23.7645L20.1957 22.8032L18.9977 21.4943L18.2952 20.6513L17.7332 19.8674L17.2969 19.1871L16.7201 18.7138L15.8623 18.1888L15.0192 17.7303L14.0505 17.4567H12.956L12.1944 17.5232L11.1517 17.7303L9.77622 18.1296L8.74093 18.5585L7.40984 19.4015L6.33018 20.1114L5.81254 20.4072L1.37557 26.8261L0.0888538 30.1834L-0.0442543 32.5054L0.517761 34.502Z" fill="#076995"/>
<path d="M36.102 62.0983L33.8244 64.4869L34.0906 65.2781L44.5766 65.4704L53.5688 65.6922L57.8135 62.9709L61.9991 54.0378L61.6293 53.0025L61.3631 52.4109L60.949 51.6123L60.4018 50.8432L59.751 50.1629L59.0263 49.4973L57.9467 48.6987L56.891 48.0646L56.3161 47.8834L55.9445 47.7651L55.5692 47.6597L55.2826 47.5747L55.0238 47.4989L54.7816 47.4268L53.5245 47.338H52.504L51.661 47.4268L50.6405 47.5747L49.7826 47.6856L49.4203 48.2698L48.8361 49.3051L48.1262 50.4291L46.7951 52.0412L45.3457 53.461L44.2512 54.4815L42.2398 56.2267L39.9474 58.2529L38.0247 60.0721L36.102 62.0983Z" fill="#FB9E2F"/>
<path d="M18.6355 62.8616L18.2805 63.0835V63.3127L18.5911 63.6825L19.1679 64.2519L20.3807 64.6216L23.664 64.7252H33.5881L34.4533 63.8452L35.2519 63.0317L35.9692 62.2626L36.9454 61.2495L37.7958 60.3621L38.9272 59.2455L40.9978 57.3746L43.7857 54.9491L45.6714 53.1817L46.8176 52.0576L47.6015 51.1037L48.2078 50.3716L48.6515 49.6469L49.0657 48.9222L49.4724 48.1975L49.8643 47.665L49.4724 47.8277L48.9769 48.0274L48.2818 48.3084L47.4166 48.619L46.6845 48.9222L45.7749 49.3067L44.8801 49.7208L43.7857 50.1867L42.7134 50.6674L41.6855 51.1037L40.421 51.6435L38.5205 52.2869L37.1302 52.8193L35.8657 53.2038L34.542 53.4775L33.6028 53.5588L32.6785 53.6032H31.6802L30.7484 53.5218L29.8906 53.4257L29.0476 53.2556L28.1824 53.0412L27.2358 52.664L26.6368 52.3608L25.9491 51.9615L24.9803 51.2516L24.056 50.4455L23.3165 49.7134V49.9427L23.3535 51.1554L23.3165 52.5087L23.2647 54.4758L23.1686 55.6072L23.0355 56.6869L22.7914 57.7591L22.4365 58.7205L21.9484 59.6892L21.416 60.4731L20.9723 61.0203L20.4546 61.5749L19.9888 61.9595L19.2715 62.4697L18.6355 62.8616Z" fill="#60A161"/>
<path d="M7.2543 46.9404L8.16388 47.7095L8.26741 47.4063L8.00858 45.0251L8.16388 42.57L9.50976 40.418L12.305 38.9317L14.5087 38.4362L16.4092 38.1848L15.6771 37.2604L14.7528 36.2103L13.7397 35.2564L12.5121 34.1619L11.5803 33.4372L10.3602 32.5646L9.18438 31.8917C8.75547 31.7043 7.89026 31.3311 7.86068 31.3371C7.8311 31.343 6.92646 31.1029 6.47783 30.9821L5.0654 30.9008L4.11885 30.9821L3.72691 31.0782L3.1575 31.4702L2.52893 32.0396L1.95213 32.8456L1.44188 33.7774L1.13869 34.5613L0.998181 35.1011L0.931627 35.4782L2.09263 38.2365L4.51078 42.4886L7.2543 46.9404Z" fill="#0A857F"/>
<path d="M15.4256 2.27477L13.8431 5.77997L11.3584 10.742L5.69016 20.4959L6.38898 20.0818L7.03234 19.6677L7.77922 19.1648L8.60006 18.6546L9.1399 18.4031L9.67233 18.1813L10.3083 17.9742L11.0552 17.7672L11.8908 17.5897L12.5564 17.5083L13.1627 17.4714H13.6878L14.0649 17.5083L14.4642 17.6267L14.9079 17.708L15.3516 17.9446L16.0172 18.3292L16.5126 18.6176L16.9859 18.9282L17.2891 19.2092L17.2447 19.0243L17.0229 18.4475L16.6753 17.6267L16.3647 16.5618L16.1799 15.4969L16.0911 14.3729L16.1281 13.3746L16.2242 12.6055L16.4017 11.6811L16.7715 10.6015L17.3483 9.51442L18.0212 8.46433L18.7459 7.59913L19.6555 6.74131L20.9052 5.92787L21.9627 5.45459L22.9019 5.10703L23.7301 4.94434L24.4178 4.863H25.6454L26.6141 4.94434L27.5385 5.14401L28.3963 5.37325L28.9214 5.62468L29.72 6.04619L30.5778 6.54165L31.4504 7.14804L32.4931 8.03543L33.3731 8.87845L34.4084 9.89156L35.5398 11.0674L36.4198 12.1692L36.9449 12.9087L37.3738 11.4741L37.8175 10.35L38.4312 9.04853L39.2373 7.51778L40.1691 6.06098L41.0786 4.84821L42.565 3.47275L43.9922 2.5188L45.8188 1.47612L47.0759 0.958472L48.1778 0.6257L49.0947 0.411247L49.3536 0.263348L49.3092 -0.328247L44.2215 -0.328247L32.3896 -0.328247L27.716 -0.328247L22.2733 -0.328247L18.8273 -0.135979L15.4256 2.27477Z" fill="#045876"/>
<path d="M36.775 13.3749L36.9488 12.9071L36.2888 12.0031L35.5012 11.027L34.2644 9.75319L32.4564 8.00614L31.4377 7.14093L30.5041 6.49017L29.8312 6.09455L29.1952 5.73589L28.4095 5.37724L28.0268 5.24413L27.487 5.11472L26.6291 4.94833L25.6623 4.86514L25.0688 4.81152L24.4329 4.83371L23.7377 4.92245L22.9021 5.09993L21.7633 5.52883L21.0645 5.83572L20.4655 6.16849L19.8554 6.5937L19.5633 6.80076L19.249 7.10395L18.9865 7.34429L18.7609 7.57353L18.5465 7.83605L18.2396 8.18731L17.9808 8.5016L17.77 8.84916L17.1932 9.76613L16.768 10.55L16.5498 11.1268L16.3872 11.7258L16.2023 12.6058L16.1283 13.2713L16.0766 13.9073V14.3954L16.1283 14.9056L16.2023 15.6525L16.3058 16.3476L16.4981 17.0649L16.7273 17.8044L17.0453 18.5957L17.245 19.1281L17.733 19.8824L18.2951 20.6589L18.931 21.4206L19.9959 22.589L21.009 23.6982L21.815 24.519L22.4954 25.155L23.5602 26.1533L24.2997 25.791L25.2019 25.2437L26.1041 24.6447L26.851 24.0532L27.5239 23.5281L28.4705 22.7516L29.4688 21.8347L30.1861 21.11L30.7185 20.5923L31.569 19.7641L32.2567 18.9359L32.9962 18.0854L33.8614 17.1315L34.6748 16.1554L35.6066 14.9278L36.3387 13.9591L36.775 13.3749Z" fill="#0A837F"/>
<path d="M24.5584 27.0831L23.4713 26.1588L24.5584 25.6337L25.6898 24.9164L26.8952 24.029L28.8918 22.3578L30.7627 20.5534L32.8629 18.2018L34.6894 16.1239L35.6877 14.8223L36.1536 14.1938L36.5825 13.5578L36.9449 12.8997L36.723 13.5578L36.516 14.4156L36.235 15.7541L36.0945 17.1L35.9687 18.4237L35.9244 19.777V21.0193L36.0575 22.2764L36.3459 23.3413L36.6639 24.0734L36.0575 24.2361L35.244 24.5985L34.2161 25.1531L33.2252 25.8556L32.0125 26.9944L30.9254 28.222L29.9715 29.59L29.2098 31.0025L28.8622 31.8159L27.9896 30.7141L26.9469 29.5309L25.8007 28.3033L24.5584 27.0831Z" fill="#309F9C"/>
<path d="M52.4669 -0.0170898L49.3389 0.00879244L49.1984 0.293498L49.08 0.411817L48.799 0.470976L47.7563 0.729799L46.9577 0.988622L46.4363 1.1661L45.8817 1.42492L45.1533 1.84643L44.2142 2.34929L43.3046 2.96307L42.8535 3.25517L42.4246 3.58424L41.5372 4.39769L41.2562 4.66391L41.0306 4.87836L40.6128 5.36643L40.1839 6.00239L39.5628 6.97852L38.9786 8.01381L38.4609 8.95297L37.7288 10.5503L37.3073 11.6595L36.9468 12.8945L36.7601 13.438L36.6713 13.7597L36.4957 14.5047L36.2369 15.7267L36.1796 16.2629L36.0576 17.4775L35.9614 18.4462L35.9244 19.439V20.5778V21.1102L35.9614 21.7684L36.0502 22.36L36.2369 23.166L36.4495 23.7059L36.6639 24.083L37.3517 23.8686L38.1577 23.6467L38.9046 23.5136L39.8068 23.4101L40.8938 23.3657H42.114H43.2159L44.4804 23.5136L45.0646 23.5949L45.8928 23.7059L46.795 23.8686L47.3053 23.9943L48.3331 24.2309L48.9173 24.364L49.8047 24.5563L50.6404 24.719L50.7772 24.0571L50.8992 23.24L51.0989 22.1973L51.2468 20.7479L51.5869 19.5499L52.075 18.4037L52.881 17.2575L53.9163 16.3627L55.0921 15.7267L56.3049 15.3644L57.2145 15.1721L57.7025 15.1277L58.7822 15.1721L59.7509 15.2756L60.3721 15.4309L61.1116 15.5936L62.1395 15.9708L63.2044 16.4514L64.2988 17.0578L65.0235 17.4904C65.1998 17.61 65.5545 17.852 65.5634 17.8639C65.5722 17.8757 65.7914 18.0192 65.8998 18.0894L66.3546 18.2373L66.3731 18.1153L64.9274 15.516L63.0971 12.4434L60.4424 7.79566L57.843 3.33282L55.9869 1.43232L54.0346 0.286103L52.4669 -0.0170898Z" fill="#136E97"/>
<path d="M17.585 63.1118L18.3392 63.0453L19.2821 62.4648L19.8552 62.0433L20.3839 61.6365L20.7093 61.3592L21.4081 60.5643L21.9812 59.7028L22.4841 58.7118L22.8354 57.7246L23.0646 56.693L23.1681 55.9572L23.2643 54.9441L23.3271 53.6833L23.3863 51.1875L23.3863 50.5072L23.3641 49.764L22.9537 49.3203L22.3769 48.4772L21.874 47.8413L21.312 46.9391L20.7648 45.889L20.3211 44.9868L19.8626 44.0551L19.4041 43.0937L18.8273 41.9845L18.2653 41.0379L17.7439 40.1838L17.1967 39.3852L16.6421 38.5421L16.3944 38.1687L15.1298 38.2353L14.1463 38.3536L13.148 38.5311L12.6747 38.642L11.8613 38.8564L11.0182 39.167L10.2788 39.5442L9.56145 40.0988L8.9033 40.8383L8.48918 41.5112L8.09725 42.3838L7.84582 43.4043L7.80145 43.9515L7.84582 44.7872L7.91977 46.0073L8.03069 46.6433L8.14901 47.4641L7.74969 47.6934L14.4347 60.3091L17.585 63.1118Z" fill="#2D8864"/>
<path d="M46.0926 33.6806L45.3532 33.2L45.8301 32.7933L46.6879 32.0279L47.7861 30.8151L48.7844 29.5173L49.6015 27.9939L50.0526 26.9956L50.4631 25.6054L50.5518 25.1571L50.6341 24.7087L51.1378 24.7938L51.8496 24.9398L52.2286 25.0138L52.4467 25.0563L53.1678 25.2948L53.9572 25.4889L54.7281 25.6516L55.658 25.8254L55.9242 25.9067L56.8893 26.1674L57.2091 26.2487L57.5123 26.3597L57.8931 26.5242L58.2499 26.7072L58.9709 27.0104L59.618 27.3654L60.1855 27.6501L60.2613 28.1566L60.3057 28.6854L60.2613 29.1771L60.18 30.0128L59.9508 31.0702L59.6771 31.9428L59.2261 33.0077L58.6714 34.0652L58.0651 35.0709L57.4882 35.8252L56.453 37.0971L55.2993 38.2581L54.0792 39.36L52.859 40.24L51.7941 40.9055L50.7884 41.4453L50.7515 41.0534L50.5444 40.1808L50.2042 39.0937L49.7605 38.0511L49.1542 36.9714L48.4442 36.0174L47.616 35.1005L46.8913 34.3684L46.0926 33.6806Z" fill="#EE822D"/>
<path d="M50.7552 24.0289L50.6369 24.7129L51.1416 24.7942L51.6463 24.9015L52.4487 25.0586L53.1549 25.2971L53.9924 25.5042L54.7171 25.6539L55.6599 25.8277L56.527 26.081L57.1925 26.2474L57.725 26.447L58.3277 26.7428L58.9766 27.0164L59.448 27.2789L59.9176 27.5174L60.6016 27.8724L61.2117 28.2902L62.4023 29.2626L63.5744 30.4366L64.336 31.2962L64.9831 32.1393L65.5858 33.0378L66.2051 34.1341L66.5268 34.8329L66.9113 35.6611L67.3347 36.7056L67.5455 37.4137L67.7155 38.1865L67.8412 38.8187L67.9522 39.6211L68.0539 40.3347V41.1334V41.8248V42.5125L68.0021 43.0061L68.8322 41.9542L69.4386 41.0224L70.4738 39.5582L71.5831 37.6503L72.6332 35.5058L73.417 33.5388L73.5206 31.7196L73.2543 30.6547L72.7663 29.3532L71.376 26.7946L69.5569 23.7072L67.2644 19.7916L66.3586 18.2349L66.0406 18.124L65.7965 18.0168L65.4897 17.7949L64.8093 17.3438L64.1401 16.963L63.2638 16.4786L62.2322 16.0054L61.2154 15.6023L60.5498 15.4286L59.9472 15.2918L59.5848 15.2511L58.8046 15.1586L58.2722 15.1254H57.7176L57.2258 15.1586L56.3236 15.3398L55.7653 15.5099L55.3364 15.6393L55.0517 15.7354L54.8336 15.8464L54.1643 16.205L53.6984 16.4971L53.3213 16.8003L53.007 17.1109L52.7482 17.4067L52.5263 17.7358L52.2823 18.0686L52.0863 18.357L51.9384 18.7008L51.5946 19.4662L51.3801 20.2168L51.2729 20.5717L51.2174 20.9267L51.1213 21.8548L51.0399 22.365L50.7552 24.0289Z" fill="#2E9B9C"/>
<path d="M36.9083 24.7182L36.6495 24.0674L38.1914 23.6311L38.9087 23.5091L39.8183 23.4019L40.9053 23.3612H41.2972H42.8687H43.1903L44.3551 23.4832L44.9393 23.5794L45.8969 23.7051L46.7843 23.8678L47.4313 24.0194L48.6182 24.293L49.5093 24.4889L50.0048 24.5851L50.6334 24.7071L50.5594 25.1286L50.4411 25.7165L50.2636 26.297L50.027 27.0735L49.6276 27.9387L49.0915 28.9629L48.8031 29.499L48.5147 29.8651L47.7271 30.893L46.8804 31.8099L46.47 32.224L46.03 32.6308L45.3571 33.1965L44.7544 32.6123L44.063 32.054L42.7171 30.9669L41.63 30.0056L40.2324 28.7188L39.1416 27.6096L38.147 26.4523L37.4445 25.5131L36.9083 24.7182Z" fill="#5C75A9"/>
<path d="M30.4747 33.9098L29.9137 33.0867L29.7759 32.8949L29.6142 32.6906L29.4561 32.502L29.2971 32.3079L29.066 32.0537L28.8303 31.7981L29.1363 31.1589L29.2102 30.9916L29.469 30.5081L29.824 29.85L29.9663 29.5967L30.2011 29.2325L30.8149 28.3636L30.9249 28.2166L31.4028 27.6685L32.0314 26.9734L32.8374 26.2117L33.3181 25.7791L33.991 25.3021L34.2018 25.1588L34.5161 24.9804L35.1779 24.6292L35.6771 24.3925L36.0579 24.2317L36.1688 24.2003L36.6541 24.0653L36.7678 24.3482L36.9157 24.6883L37.1672 25.1024L37.5295 25.6127L38.025 26.2856L38.6757 27.0621L39.2303 27.7055L40.1769 28.652L40.9312 29.3397L41.7668 30.1088L42.669 30.9075L43.9039 31.9206L44.5991 32.4826L44.9762 32.8228L45.3755 33.1999L44.6508 33.8359L43.7339 34.494L42.669 35.1078L41.6855 35.6328L40.6132 36.0913L39.8441 36.3575L39.1342 36.5868L38.5056 36.8308L37.6996 37.0453L36.7235 37.2893L35.6216 37.4964L34.6011 37.6812C34.3793 37.6985 33.9282 37.736 33.8986 37.7478C33.869 37.7596 33.5954 37.7084 33.4623 37.6812L33.1443 37.3411L32.4862 36.5794L31.9315 35.8547L31.3621 35.1374L30.4747 33.9098Z" fill="#665790"/>
<path d="M3.75293 31.0113L3.38688 31.3071L3.82688 31.063L4.05982 30.9928L4.62553 30.9336L5.08032 30.9114L6.06385 30.9595L6.48166 30.9928L6.84031 31.0815L7.43191 31.2405L7.86821 31.3477L8.18619 31.4735L9.07728 31.8469L9.47661 32.0724L10.2827 32.5309L11.0148 33.0375L11.9576 33.7326L12.6269 34.2687L13.4921 35.0378L14.1169 35.622L14.6124 36.0916L15.1153 36.624L15.6477 37.2452L16.0544 37.7407L16.3798 38.1696L17.6406 38.066C17.9697 38.0439 18.6308 37.9973 18.6426 37.9884C18.6545 37.9795 19.2342 37.9132 19.5226 37.8812L20.4988 37.7074L21.4527 37.4855L22.4991 37.1047L23.564 36.6203L24.5734 36.0435L25.3942 35.4297L26.2003 34.7346L27.0803 33.8768L28.0471 32.7639L28.5315 32.2277L28.8379 31.7836L28.5315 31.3921L28.0471 30.782L27.1468 29.7541L26.4092 28.9518L25.8231 28.3158L25.2611 27.7686L24.5734 27.0957L24.3645 26.92L23.8339 26.4726L23.4937 26.1565L22.9594 26.443L22.5342 26.6187L21.6727 26.9773L20.8131 27.2528L19.5559 27.6669L18.822 27.8943L18.0418 28.1199L17.5334 28.2622L16.8956 28.4526L16.5979 28.5062L15.9527 28.6246L15.2853 28.7466L14.6753 28.8593L14.1317 28.8889L13.3294 28.9444L12.8432 28.9795L12.2442 29.0294L11.3253 29.1052L10.6265 29.1625L10.0793 29.218L9.58384 29.2827L9.07728 29.3382L8.57258 29.3881L8.18619 29.4398L7.92367 29.5064L7.55208 29.5933L7.09544 29.6802L6.51124 29.7948L6.03057 29.9464L5.46855 30.1313L4.86956 30.3679L4.39259 30.5898L4.0857 30.782L3.75293 31.0113Z" fill="#53A8A0"/>
<path d="M33.8207 38.085L33.4283 37.6464C33.5725 37.6772 33.8596 37.7374 33.867 37.7374H33.9317L34.5972 37.6782L35.0779 37.5914L35.9135 37.4361L36.7177 37.2882L37.0227 37.2105L37.7715 37.0201L38.5461 36.8112L39.0527 36.6134L39.3947 36.4951L39.7921 36.3693L40.6389 36.0772L41.6779 35.628L42.3878 35.2527L43.0182 34.9033L43.7392 34.4818L44.1089 34.2211L44.6321 33.844L45.0056 33.5186L45.3605 33.1951L46.0926 33.6776L46.3829 33.9253L46.8599 34.3357L47.322 34.7979L47.9284 35.4376L48.4941 36.0754L48.6291 36.2603L49.1615 36.9702L49.7624 38.0406L50.2024 39.0685L50.2948 39.3717L50.5351 40.1093L50.6683 40.6714L50.7588 41.0688L50.7847 41.4423L50.3188 41.5902L49.6718 41.812L48.7104 42.0524L47.2832 42.3038L45.8782 42.3851L44.1921 42.4036L42.8832 42.3186L41.8664 42.1744L41.2379 42.045L40.1471 41.849L39.452 41.6271L38.6755 41.3609L37.8103 41.0023L36.9636 40.5364L35.8543 39.8376L34.9411 39.1314L34.4271 38.6359L33.8207 38.085Z" fill="#895687"/>
<path d="M23.8005 50.2094L23.3679 49.7842L23.3901 49.102L23.403 49.0114L23.4178 48.8949L23.4807 48.4143L23.5602 47.7025L23.6175 47.085L23.66 46.8539L23.7395 46.3954L23.795 46.0941L23.8763 45.8186L24.0076 45.3398L24.1666 44.9017L24.4235 44.177L24.455 44.1307L24.7618 43.5743L24.9985 43.1509L25.176 42.8699L25.6918 42.0879L25.738 42.0139L26.1151 41.5665L26.3647 41.267L26.4941 41.1376L26.8287 40.8197L27.3501 40.3223L27.7882 40.021L28.3854 39.5976L28.8642 39.3333L29.4613 38.9986L29.8348 38.8119L30.3284 38.5679L30.8775 38.3405L31.408 38.139L31.8943 38.0188L32.1531 37.9523L32.7706 37.8247L33.1218 37.7748L33.4962 37.723L33.8447 38.102L34.085 38.3183L34.4178 38.6178L34.9743 39.1521L35.2423 39.3536L35.6102 39.6439L35.9264 39.8786L36.5568 40.2706L36.9727 40.5368L37.4053 40.7734L37.8102 40.9971L38.2077 41.1635L38.7586 41.3854L39.5147 41.6423L40.1747 41.8457L40.2265 41.8568L41.0159 41.9991L41.8719 42.1692L42.323 42.2339L42.8924 42.319L44.2142 42.4003H44.2531L45.4307 42.3874L46.5806 42.3412L47.2942 42.3023L48.0263 42.1711L48.7473 42.0398L49.6846 41.805L50.2485 41.6128L50.7791 41.4371L50.866 41.8457L50.8863 42.2395L50.9214 42.8902V44.1548L50.8327 45.1919L50.7735 45.4285L50.5351 46.3806L50.0951 47.3808L49.9823 47.5102L49.8455 47.6748L49.2927 47.9059L48.2722 48.3181L47.9154 48.4475L47.4255 48.6195L47.1149 48.747L46.4475 49.028L45.8984 49.261L45.647 49.37L44.9297 49.7028L44.4768 49.8951L43.802 50.189L43.3786 50.3758L42.5855 50.7252L41.4282 51.2206L40.4502 51.6366L40.2524 51.7105L39.9677 51.803L39.243 52.0489L38.4979 52.3003L38.241 52.4001L37.2537 52.7791L36.9302 52.8826L36.5679 52.9917L35.8561 53.2117L35.3773 53.3116L34.5232 53.4816L33.6191 53.5574L33.4361 53.5704L33.1921 53.5833L32.5894 53.6147L31.6336 53.6037L30.7222 53.5242L29.8939 53.4336L29.0287 53.2561L28.1839 53.0509L28.1007 53.0195L27.1911 52.6479L26.6771 52.3946L25.9265 51.9583L25.2481 51.4628L25.0151 51.2946L24.8913 51.1929L24.5973 50.9396L24.0261 50.4349L23.8005 50.2094Z" fill="#91B56A"/>
</g>
</g>
<defs>
<clipPath id="clip0_2315_45235">
<rect width="64" height="73.1211" fill="white" transform="matrix(0 1 -1 0 73.1211 0)"/>
</clipPath>
</defs>
</svg>
