<svg viewBox="0 0 60 54" fill="none" xmlns="http://www.w3.org/2000/svg">
  <path
    d="m58.939 29.085-.454.807-2.16 3.839-3.807 6.768-6.38 11.34A4.243 4.243 0 0 1 42.447 54H17.037a4.232 4.232 0 0 1-3.692-2.161l-1.988-3.535-6.408-11.391-4.404-7.827a4.254 4.254 0 0 1 0-4.171l7.118-12.653 5.683-10.1A4.244 4.244 0 0 1 17.038 0h25.409a4.232 4.232 0 0 1 3.692 2.161l12.8 22.753a4.253 4.253 0 0 1 0 4.171Z"
    fill="#fff"
  />
  <path
    d="m26.816 22.64-6.629 11.794-6.67 11.867a4.81 4.81 0 0 1-2.16 2.004L4.95 36.914.545 29.086a4.254 4.254 0 0 1 0-4.17l7.118-12.653 5.683-10.1A4.244 4.244 0 0 1 16.756.01l9.987 17.772.072.127a4.83 4.83 0 0 1 0 4.732Z"
    fill="#42C7BB"
    style="mix-blend-mode: multiply"
  />
  <path
    d="m56.326 33.731-3.808 6.768-6.379 11.34A4.243 4.243 0 0 1 42.447 54h-25.41a4.233 4.233 0 0 1-3.691-2.161l-1.989-3.535L4.95 36.913l8.322-14.69 1.133-2.001a4.816 4.816 0 0 1 4.184-2.442H44.49a4.803 4.803 0 0 1 4.185 2.442l5.478 9.67 2.173 3.839Z"
    fill="#B2A5D1"
    style="mix-blend-mode: multiply"
  />
  <path
    d="m58.94 29.085-.454.807-2.16 3.839-3.807 6.768H26.426a4.803 4.803 0 0 1-4.184-2.442l-2.054-3.626-6.917-12.21-5.365-9.47a4.773 4.773 0 0 1-.242-.489l5.683-10.1A4.244 4.244 0 0 1 17.039 0h25.409a4.232 4.232 0 0 1 3.692 2.161l12.8 22.753a4.254 4.254 0 0 1 0 4.171Z"
    fill="#73C8CC"
    style="mix-blend-mode: multiply"
  />
  <path
    d="m58.485 29.893-2.159 3.838-3.808 6.769-6.379 11.339A4.243 4.243 0 0 1 42.447 54H30.185c.06-.688.268-1.355.608-1.955L37.327 40.5l4.62-8.164a4.815 4.815 0 0 1 4.185-2.442l12.353-.001Z"
    fill="#C7D6FF"
    style="mix-blend-mode: multiply"
  />
</svg>
