<svg width="529" height="78" viewBox="0 0 529 78" fill="none" xmlns="http://www.w3.org/2000/svg">
<path d="M14.5098 58.3798C16.7534 58.3798 18.5723 56.5609 18.5723 54.3173C18.5723 52.0736 16.7534 50.2548 14.5098 50.2548C12.2661 50.2548 10.4473 52.0736 10.4473 54.3173C10.4473 56.5609 12.2661 58.3798 14.5098 58.3798Z" fill="#A888F6"/>
<path d="M23.7383 55.9065C25.9819 55.9065 27.8008 54.0877 27.8008 51.844C27.8008 49.6003 25.9819 47.7815 23.7383 47.7815C21.4946 47.7815 19.6758 49.6003 19.6758 51.844C19.6758 54.0877 21.4946 55.9065 23.7383 55.9065Z" fill="#A888F6"/>
<path d="M32.9619 53.4349C35.2056 53.4349 37.0244 51.616 37.0244 49.3724C37.0244 47.1287 35.2056 45.3099 32.9619 45.3099C30.7183 45.3099 28.8994 47.1287 28.8994 49.3724C28.8994 51.616 30.7183 53.4349 32.9619 53.4349Z" fill="#A888F6"/>
<path d="M23.7373 74.8118C25.981 74.8118 27.7998 72.9929 27.7998 70.7493C27.7998 68.5056 25.981 66.6868 23.7373 66.6868C21.4936 66.6868 19.6748 68.5056 19.6748 70.7493C19.6748 72.9929 21.4936 74.8118 23.7373 74.8118Z" fill="#A888F6"/>
<path d="M23.7373 65.3299C25.981 65.3299 27.7998 63.5111 27.7998 61.2674C27.7998 59.0237 25.981 57.2049 23.7373 57.2049C21.4936 57.2049 19.6748 59.0237 19.6748 61.2674C19.6748 63.5111 21.4936 65.3299 23.7373 65.3299Z" fill="#A888F6"/>
<path d="M22.5889 31.356C24.8325 31.356 26.6514 29.5372 26.6514 27.2935C26.6514 25.0499 24.8325 23.231 22.5889 23.231C20.3452 23.231 18.5264 25.0499 18.5264 27.2935C18.5264 29.5372 20.3452 31.356 22.5889 31.356Z" fill="#FFD24D"/>
<path d="M14.5088 35.8069C16.7524 35.8069 18.5713 33.988 18.5713 31.7444C18.5713 29.5007 16.7524 27.6819 14.5088 27.6819C12.2651 27.6819 10.4463 29.5007 10.4463 31.7444C10.4463 33.988 12.2651 35.8069 14.5088 35.8069Z" fill="#FFD24D"/>
<path d="M14.5088 26.2568C16.7524 26.2568 18.5713 24.4379 18.5713 22.1943C18.5713 19.9506 16.7524 18.1318 14.5088 18.1318C12.2651 18.1318 10.4463 19.9506 10.4463 22.1943C10.4463 24.4379 12.2651 26.2568 14.5088 26.2568Z" fill="#FFD24D"/>
<path d="M6.36133 31.356C8.60498 31.356 10.4238 29.5372 10.4238 27.2935C10.4238 25.0499 8.60498 23.231 6.36133 23.231C4.11767 23.231 2.29883 25.0499 2.29883 27.2935C2.29883 29.5372 4.11767 31.356 6.36133 31.356Z" fill="#FFD24D"/>
<path d="M6.36133 40.2578C8.60498 40.2578 10.4238 38.4389 10.4238 36.1953C10.4238 33.9516 8.60498 32.1328 6.36133 32.1328C4.11767 32.1328 2.29883 33.9516 2.29883 36.1953C2.29883 38.4389 4.11767 40.2578 6.36133 40.2578Z" fill="#FFD24D"/>
<path d="M22.5889 40.2578C24.8325 40.2578 26.6514 38.4389 26.6514 36.1953C26.6514 33.9516 24.8325 32.1328 22.5889 32.1328C20.3452 32.1328 18.5264 33.9516 18.5264 36.1953C18.5264 38.4389 20.3452 40.2578 22.5889 40.2578Z" fill="#FFD24D"/>
<path d="M14.5088 45.3603C16.7524 45.3603 18.5713 43.5414 18.5713 41.2978C18.5713 39.0541 16.7524 37.2353 14.5088 37.2353C12.2651 37.2353 10.4463 39.0541 10.4463 41.2978C10.4463 43.5414 12.2651 45.3603 14.5088 45.3603Z" fill="#FFD24D"/>
<path d="M33.0303 11.3127C35.2739 11.3127 37.0928 9.4939 37.0928 7.25024C37.0928 5.00659 35.2739 3.18774 33.0303 3.18774C30.7866 3.18774 28.9678 5.00659 28.9678 7.25024C28.9678 9.4939 30.7866 11.3127 33.0303 11.3127Z" fill="#FF794D"/>
<path d="M42.2715 11.4492C44.5151 11.4492 46.334 9.63038 46.334 7.38672C46.334 5.14306 44.5151 3.32422 42.2715 3.32422C40.0278 3.32422 38.209 5.14306 38.209 7.38672C38.209 9.63038 40.0278 11.4492 42.2715 11.4492Z" fill="#FF794D"/>
<path d="M28.7158 19.2769C30.9595 19.2769 32.7783 17.458 32.7783 15.2144C32.7783 12.9707 30.9595 11.1519 28.7158 11.1519C26.4722 11.1519 24.6533 12.9707 24.6533 15.2144C24.6533 17.458 26.4722 19.2769 28.7158 19.2769Z" fill="#FF794D"/>
<path d="M37.7686 19.519C40.0122 19.519 41.8311 17.7001 41.8311 15.4565C41.8311 13.2128 40.0122 11.394 37.7686 11.394C35.5249 11.394 33.7061 13.2128 33.7061 15.4565C33.7061 17.7001 35.5249 19.519 37.7686 19.519Z" fill="#FF794D"/>
<path d="M34.5332 35.7532C36.7769 35.7532 38.5957 33.9344 38.5957 31.6907C38.5957 29.4471 36.7769 27.6282 34.5332 27.6282C32.2895 27.6282 30.4707 29.4471 30.4707 31.6907C30.4707 33.9344 32.2895 35.7532 34.5332 35.7532Z" fill="#4DD2FF"/>
<path d="M47.3643 48.5891C49.6079 48.5891 51.4268 46.7703 51.4268 44.5266C51.4268 42.283 49.6079 40.4641 47.3643 40.4641C45.1206 40.4641 43.3018 42.283 43.3018 44.5266C43.3018 46.7703 45.1206 48.5891 47.3643 48.5891Z" fill="#4DD2FF"/>
<path d="M40.9482 42.1704C43.1919 42.1704 45.0107 40.3516 45.0107 38.1079C45.0107 35.8643 43.1919 34.0454 40.9482 34.0454C38.7046 34.0454 36.8857 35.8643 36.8857 38.1079C36.8857 40.3516 38.7046 42.1704 40.9482 42.1704Z" fill="#4DD2FF"/>
<path d="M50.0273 39.5054C52.271 39.5054 54.0898 37.6865 54.0898 35.4429C54.0898 33.1992 52.271 31.3804 50.0273 31.3804C47.7837 31.3804 45.9648 33.1992 45.9648 35.4429C45.9648 37.6865 47.7837 39.5054 50.0273 39.5054Z" fill="#4DD2FF"/>
<path d="M43.6104 33.0883C45.854 33.0883 47.6729 31.2694 47.6729 29.0258C47.6729 26.7821 45.854 24.9633 43.6104 24.9633C41.3667 24.9633 39.5479 26.7821 39.5479 29.0258C39.5479 31.2694 41.3667 33.0883 43.6104 33.0883Z" fill="#4DD2FF"/>
<path d="M53.3584 20.5742C55.6021 20.5742 57.4209 18.7553 57.4209 16.5117C57.4209 14.268 55.6021 12.4492 53.3584 12.4492C51.1147 12.4492 49.2959 14.268 49.2959 16.5117C49.2959 18.7553 51.1147 20.5742 53.3584 20.5742Z" fill="#A4F257"/>
<path d="M62.5674 20.4945C64.811 20.4945 66.6299 18.6757 66.6299 16.432C66.6299 14.1884 64.811 12.3695 62.5674 12.3695C60.3237 12.3695 58.5049 14.1884 58.5049 16.432C58.5049 18.6757 60.3237 20.4945 62.5674 20.4945Z" fill="#A4F257"/>
<path d="M57.8955 28.431C60.1392 28.431 61.958 26.6122 61.958 24.3685C61.958 22.1249 60.1392 20.306 57.8955 20.306C55.6519 20.306 53.833 22.1249 53.833 24.3685C53.833 26.6122 55.6519 28.431 57.8955 28.431Z" fill="#A4F257"/>
<path d="M71.6377 36.2115C73.8814 36.2115 75.7002 34.3926 75.7002 32.149C75.7002 29.9053 73.8814 28.0865 71.6377 28.0865C69.394 28.0865 67.5752 29.9053 67.5752 32.149C67.5752 34.3926 69.394 36.2115 71.6377 36.2115Z" fill="#A4F257"/>
<path d="M67.1025 28.353C69.3462 28.353 71.165 26.5342 71.165 24.2905C71.165 22.0469 69.3462 20.228 67.1025 20.228C64.8589 20.228 63.04 22.0469 63.04 24.2905C63.04 26.5342 64.8589 28.353 67.1025 28.353Z" fill="#A4F257"/>
<path d="M62.4336 36.2879C64.6773 36.2879 66.4961 34.4691 66.4961 32.2254C66.4961 29.9817 64.6773 28.1629 62.4336 28.1629C60.1899 28.1629 58.3711 29.9817 58.3711 32.2254C58.3711 34.4691 60.1899 36.2879 62.4336 36.2879Z" fill="#A4F257"/>
<path d="M66.9482 44.1578C69.1919 44.1578 71.0107 42.3389 71.0107 40.0953C71.0107 37.8516 69.1919 36.0328 66.9482 36.0328C64.7046 36.0328 62.8857 37.8516 62.8857 40.0953C62.8857 42.3389 64.7046 44.1578 66.9482 44.1578Z" fill="#A4F257"/>
<path d="M100.328 45V26.472H93.832V22.6H111.624V26.472H105.128V45H100.328ZM110.796 45L118.956 22.6H124.46L132.62 45H127.532L121.676 28.008L115.82 45H110.796ZM114.348 40.104L115.628 36.392H127.372L128.62 40.104H114.348ZM144.257 45.384C142.017 45.384 140.086 44.904 138.465 43.944C136.843 42.9627 135.595 41.608 134.721 39.88C133.846 38.1307 133.409 36.1253 133.409 33.864C133.409 31.56 133.846 29.544 134.721 27.816C135.595 26.0667 136.843 24.7013 138.465 23.72C140.086 22.7173 142.017 22.216 144.257 22.216C147.03 22.216 149.291 22.9093 151.041 24.296C152.811 25.6827 153.91 27.6347 154.337 30.152H149.089C148.833 29.0213 148.289 28.1467 147.457 27.528C146.625 26.888 145.547 26.568 144.225 26.568C142.966 26.568 141.889 26.8667 140.993 27.464C140.118 28.0613 139.446 28.904 138.977 29.992C138.529 31.0587 138.305 32.3493 138.305 33.864C138.305 35.336 138.529 36.616 138.977 37.704C139.446 38.7707 140.118 39.6027 140.993 40.2C141.889 40.776 142.966 41.064 144.225 41.064C145.547 41.064 146.614 40.7867 147.425 40.232C148.257 39.656 148.811 38.8347 149.089 37.768H154.337C153.91 40.136 152.811 42.0027 151.041 43.368C149.291 44.712 147.03 45.384 144.257 45.384ZM156.296 45L164.456 22.6H169.96L178.12 45H173.032L167.176 28.008L161.32 45H156.296ZM159.848 40.104L161.128 36.392H172.872L174.12 40.104H159.848ZM191.684 45.24C190.351 45.24 189.184 44.9467 188.184 44.36C187.197 43.76 186.431 42.9267 185.884 41.86C185.337 40.7933 185.064 39.5467 185.064 38.12C185.064 36.68 185.344 35.4067 185.904 34.3C186.477 33.1933 187.297 32.3267 188.364 31.7C189.431 31.0733 190.704 30.76 192.184 30.76C193.851 30.76 195.231 31.16 196.324 31.96C197.431 32.76 198.144 33.8667 198.464 35.28H195.124C194.924 34.72 194.571 34.2867 194.064 33.98C193.571 33.6733 192.937 33.52 192.164 33.52C191.284 33.52 190.544 33.7133 189.944 34.1C189.344 34.4733 188.891 35.0067 188.584 35.7C188.277 36.38 188.124 37.1867 188.124 38.12C188.124 39.08 188.277 39.8933 188.584 40.56C188.891 41.2267 189.337 41.7333 189.924 42.08C190.511 42.4133 191.204 42.58 192.004 42.58C193.151 42.58 194.017 42.28 194.604 41.68C195.204 41.08 195.571 40.3267 195.704 39.42H192.444V37.18H198.704V45H195.944L195.704 43.38C195.424 43.78 195.091 44.12 194.704 44.4C194.331 44.68 193.891 44.8867 193.384 45.02C192.891 45.1667 192.324 45.24 191.684 45.24ZM201.168 45V31H210.548V33.42H204.168V36.72H209.948V39.04H204.168V42.58H210.548V45H201.168ZM212.926 45V31H215.926L222.066 40.2V31H225.066V45H222.066L215.926 35.84V45H212.926ZM227.75 45V31H237.13V33.42H230.75V36.72H236.53V39.04H230.75V42.58H237.13V45H227.75ZM243.1 47.38L248.1 29.32H251L246 47.38H243.1ZM257.262 45V31H262.122C263.749 31 265.089 31.2933 266.142 31.88C267.209 32.4533 267.995 33.2667 268.502 34.32C269.022 35.36 269.282 36.5867 269.282 38C269.282 39.4 269.022 40.6267 268.502 41.68C267.995 42.72 267.209 43.5333 266.142 44.12C265.089 44.7067 263.749 45 262.122 45H257.262ZM260.262 42.42H261.942C263.022 42.42 263.875 42.2467 264.502 41.9C265.129 41.54 265.569 41.0333 265.822 40.38C266.089 39.7133 266.222 38.92 266.222 38C266.222 37.0667 266.089 36.2733 265.822 35.62C265.569 34.9533 265.129 34.4467 264.502 34.1C263.875 33.74 263.022 33.56 261.942 33.56H260.262V42.42ZM271.52 45V31H276.96C278.093 31 279.033 31.2 279.78 31.6C280.54 31.9867 281.1 32.5067 281.46 33.16C281.833 33.8133 282.02 34.54 282.02 35.34C282.02 36.0867 281.84 36.7867 281.48 37.44C281.133 38.0933 280.586 38.62 279.84 39.02C279.093 39.42 278.126 39.62 276.94 39.62H274.52V45H271.52ZM278.74 45L275.92 38.88H279.14L282.14 45H278.74ZM274.52 37.46H276.78C277.526 37.46 278.073 37.28 278.42 36.92C278.78 36.56 278.96 36.0733 278.96 35.46C278.96 34.86 278.78 34.3867 278.42 34.04C278.073 33.68 277.526 33.5 276.78 33.5H274.52V37.46ZM289.872 45.24C288.819 45.24 287.859 45.0333 286.992 44.62C286.139 44.1933 285.459 43.56 284.952 42.72C284.459 41.88 284.212 40.82 284.212 39.54V31H287.212V39.56C287.212 40.1867 287.312 40.72 287.512 41.16C287.726 41.6 288.032 41.9333 288.432 42.16C288.846 42.3733 289.339 42.48 289.912 42.48C290.499 42.48 290.992 42.3733 291.392 42.16C291.806 41.9333 292.119 41.6 292.332 41.16C292.546 40.72 292.652 40.1867 292.652 39.56V31H295.652V39.54C295.652 40.82 295.386 41.88 294.852 42.72C294.332 43.56 293.632 44.1933 292.752 44.62C291.886 45.0333 290.926 45.24 289.872 45.24ZM304.379 45.24C303.046 45.24 301.879 44.9467 300.879 44.36C299.893 43.76 299.126 42.9267 298.579 41.86C298.033 40.7933 297.759 39.5467 297.759 38.12C297.759 36.68 298.039 35.4067 298.599 34.3C299.173 33.1933 299.993 32.3267 301.059 31.7C302.126 31.0733 303.399 30.76 304.879 30.76C306.546 30.76 307.926 31.16 309.019 31.96C310.126 32.76 310.839 33.8667 311.159 35.28H307.819C307.619 34.72 307.266 34.2867 306.759 33.98C306.266 33.6733 305.633 33.52 304.859 33.52C303.979 33.52 303.239 33.7133 302.639 34.1C302.039 34.4733 301.586 35.0067 301.279 35.7C300.973 36.38 300.819 37.1867 300.819 38.12C300.819 39.08 300.973 39.8933 301.279 40.56C301.586 41.2267 302.033 41.7333 302.619 42.08C303.206 42.4133 303.899 42.58 304.699 42.58C305.846 42.58 306.713 42.28 307.299 41.68C307.899 41.08 308.266 40.3267 308.399 39.42H305.139V37.18H311.399V45H308.639L308.399 43.38C308.119 43.78 307.786 44.12 307.399 44.4C307.026 44.68 306.586 44.8867 306.079 45.02C305.586 45.1667 305.019 45.24 304.379 45.24ZM318.375 45V31H327.755V33.42H321.375V36.72H327.155V39.04H321.375V42.58H327.755V45H318.375ZM329.433 45L333.873 37.9L329.353 31H332.833L335.813 35.54L338.473 31H341.873L337.453 38.04L342.013 45H338.533L335.533 40.38L332.833 45H329.433ZM343.922 45V31H349.362C350.509 31 351.455 31.1933 352.202 31.58C352.962 31.9667 353.529 32.5 353.902 33.18C354.275 33.8467 354.462 34.6 354.462 35.44C354.462 36.2267 354.282 36.9533 353.922 37.62C353.562 38.2867 353.009 38.8267 352.262 39.24C351.515 39.6533 350.549 39.86 349.362 39.86H346.922V45H343.922ZM346.922 37.46H349.162C349.949 37.46 350.515 37.28 350.862 36.92C351.222 36.5467 351.402 36.0533 351.402 35.44C351.402 34.8133 351.222 34.3267 350.862 33.98C350.515 33.62 349.949 33.44 349.162 33.44H346.922V37.46ZM356.403 45V31H359.403V42.68H365.443V45H356.403ZM373.059 45.24C371.686 45.24 370.479 44.9333 369.439 44.32C368.399 43.7067 367.579 42.86 366.979 41.78C366.393 40.6867 366.099 39.4267 366.099 38C366.099 36.5733 366.393 35.32 366.979 34.24C367.579 33.1467 368.399 32.2933 369.439 31.68C370.479 31.0667 371.686 30.76 373.059 30.76C374.433 30.76 375.646 31.0667 376.699 31.68C377.753 32.2933 378.566 33.1467 379.139 34.24C379.726 35.32 380.019 36.5733 380.019 38C380.019 39.4267 379.726 40.6867 379.139 41.78C378.566 42.86 377.753 43.7067 376.699 44.32C375.646 44.9333 374.433 45.24 373.059 45.24ZM373.059 42.54C373.873 42.54 374.566 42.3533 375.139 41.98C375.726 41.6067 376.179 41.0867 376.499 40.42C376.819 39.74 376.979 38.9333 376.979 38C376.979 37.0667 376.819 36.2667 376.499 35.6C376.179 34.92 375.726 34.4 375.139 34.04C374.566 33.6667 373.873 33.48 373.059 33.48C372.273 33.48 371.586 33.6667 370.999 34.04C370.413 34.4 369.959 34.92 369.639 35.6C369.319 36.2667 369.159 37.0667 369.159 38C369.159 38.9333 369.319 39.74 369.639 40.42C369.959 41.0867 370.413 41.6067 370.999 41.98C371.586 42.3533 372.273 42.54 373.059 42.54ZM382.262 45V31H387.702C388.835 31 389.775 31.2 390.522 31.6C391.282 31.9867 391.842 32.5067 392.202 33.16C392.575 33.8133 392.762 34.54 392.762 35.34C392.762 36.0867 392.582 36.7867 392.222 37.44C391.875 38.0933 391.329 38.62 390.582 39.02C389.835 39.42 388.869 39.62 387.682 39.62H385.262V45H382.262ZM389.482 45L386.662 38.88H389.882L392.882 45H389.482ZM385.262 37.46H387.522C388.269 37.46 388.815 37.28 389.162 36.92C389.522 36.56 389.702 36.0733 389.702 35.46C389.702 34.86 389.522 34.3867 389.162 34.04C388.815 33.68 388.269 33.5 387.522 33.5H385.262V37.46ZM395.074 45V31H404.454V33.42H398.074V36.72H403.854V39.04H398.074V42.58H404.454V45H395.074ZM406.832 45V31H412.272C413.406 31 414.346 31.2 415.092 31.6C415.852 31.9867 416.412 32.5067 416.772 33.16C417.146 33.8133 417.332 34.54 417.332 35.34C417.332 36.0867 417.152 36.7867 416.792 37.44C416.446 38.0933 415.899 38.62 415.152 39.02C414.406 39.42 413.439 39.62 412.252 39.62H409.832V45H406.832ZM414.052 45L411.232 38.88H414.452L417.452 45H414.052ZM409.832 37.46H412.092C412.839 37.46 413.386 37.28 413.732 36.92C414.092 36.56 414.272 36.0733 414.272 35.46C414.272 34.86 414.092 34.3867 413.732 34.04C413.386 33.68 412.839 33.5 412.092 33.5H409.832V37.46Z" fill="black"/>
</svg>
