<svg width="580" height="470" fill="none" xmlns="http://www.w3.org/2000/svg"><g clip-path="url(#a)"><path d="M296.5 252.5L328 247l39 5.5 27 13 22.5 14.5 23 16 22.5 17 12 8 9.5 5.5 7.5 4.5 1 5v6.5l-3 5.5-4.5 5-6.5 2.5h-9l-7-1.5-8-3.5-11-5-8.5-4.5-10-5-6-3.5-4.5-2.5-3.5-3-1 .5v4l2 11.5 1 10v9.5L408 394l-3.5 23-1 4-1 4-1.5 4-2 4.5-2 4-1 3-2.5 4-2 3 1 1 1.5 1 2.5 2 3 3 3.5 4.5 2 3.5.5 3.5-.5 3-1.5 2.5-2 1.5-3 1h-43l-3-.5-2.5-2-2-3-.5-3.5v-15l-1-14v-8l-1-2-2.5 1-7 .5h-8.5l-8.5-.5-5.5-1-.5 1-.5 4.5-.5 9-.5 12v15l-1 2-1.5 1.5-2.5 2-2.5.5h-44l-3-1-2-1.5-1-3v-3l1-4 2-4 3-3 4-3.5 4.5-2.5-1.5-1.5-2-3-2.5-6-3-6.5-3.5-7.5-2.5-8-2-6-1.5-5.5-1.5-9-1-6.5-1-8-.5-8.5v-9l.5-12 1-8 1-9-2.5 1-3 2-3.5 2-6 3.5-4 2-2.5 1-6 2.5-5.5 2.5-5.5 2-5.5 1.5-4.5 1.5-4.5 1-4.5 1h-5.5l-2-.5-2-1.5-2-1.5-2-2-2-3-1.5-2.812-1-2.688v-4l1-5 4-4.5 8-5.5 5.5-3.5 7-4.5 6.5-4 7.5-5 6-4.5 6-4.5 7.5-6 6-5 6.5-6 6.5-5.5 6.5-6 6-4.5 7.5-4.5 25.5-8.5z" fill="#952F92"/><path d="M385.816 361.153l-1.294-1.322-1.492.947-1.07 2.26-1.439 4.179-3.417 9.924-1.619 4.701.854 1.755 1.877 3.86 2.058 3.338 2.66 4.129 4.043 5.19 4.044 5.19 4.313 4.406 3.891 3.093 4.242 2.921 4.241 2.921 4.682 2.489 4.251 2.048 6.165 2.415 4.782 1.354 4.61 1.003 4.961.832 5.572.75 6.274.408 5.932-.295 7.334-.98 6.292-1.339 4.548-1.356 5.249-1.698 4.027-1.535 4.206-2.057 6.751-3.518 4.737-2.751 3.955-3.02 4.135-3.542 3.344-2.939 3.263-3.55 3.093-3.902 2.922-4.252 2.661-4.342 1.87-3.738 1.78-3.477 1.079-3.134 2.698-7.835 1.367-5.664.738-3.836.648-3.574.207-3.142-.044-4.106-.053-3.231-.143-2.971-.144-2.971-.484-3.672-.342-.702-.35.172-.881.865-2.032 2.514-1.591 2.081-1.942 2.253-1.582 1.208-2.984 1.893-3.245 1.804-3.766 1.625-3.326 1.192-3.847 1.012-2.274.678-4.71.131-4.359-.04-5.141-.31-5.482-1.011-4.611-1.003-3.738-.996-2.436-.546-3.568-.644-4.62-.13-4.88-.22-5.15.564-4.368.833-4.719 1.004-5.51 1.608-4.898 1.527-3.326 1.192-3.326 1.192-3.065 1.282-3.065 1.281-2.624.849-3.937 1.274-3.587 1.102-3.757.751-5.15.564-3.837.139-4.18-.562-3.046-.465-3.389-1.167-2.516-1.158z" fill="#952F92"/><path d="M484.125 414.5l8.125 3.242 1.09-.562.723-.43 2.019-1.16 2.059-1.215 2.812-2.133 1.375-1.078 1.391-1.191 2.797-2.403 2.984-2.601 3.047-3.328 3.234-4.032 3.063-4.484 2.609-4.234 2.469-4.875 1.215-2.364.523-1.597 1.684-4.891 1.547-4.496.742-3.074.625-2.575.086-.503.672-3.403.625-3.484.211-3.172-.024-1.457-.109-6.328-.25-5.453-.489-3.692-.351-.718-.395.207-.859.859-2.078 2.547-3.734 4.5-3.376 2.328-5.25 2.812-6.234 2.391-5.516 1.547-2.624.156-3.954.078-7.968-.328-5.188-.953-10.469-2.516-4.187-.781-4.734-.359h-4.75l-2.063.203-3.875.562 3.062 1.063 3.438.875-2.063 2.75-2.437 2.625-3.5 3.875 5.375.875 7.125 1.25 3.625.75v3.75l-1 6.562-2.937 6.375-4.188 5.813 6.75 3.125 11.25 3-2 3.375-2.75 5.125-1.875 3.812-1.812 3.875 3.375 1.875 5.062 1.625 6.25 2.063z" fill="#D3BDE7"/><path d="M350.5 472.5L349 471l-1-1.5-.5-1v-18l.5-.5 1-.5 1.5-.5 2.5-.5 5-1s3.337-.706 5.5-1c2.137-.29 5.5-.5 5.5-.5h11.5s3.987.095 6.5.5c1.777.287 2.91.155 4.5 1 1.104.587 2.5 2 2.5 2l2.5 2 3 3 2.5 3s1.393 1.73 2 3c.533 1.114 1 3 1 3s.577 2.121.5 3.5c-.055.994-.5 3.5-.5 3.5l-1 2-2 1.5-1.5.5H355l-2.5-.5-2-1.5zM310 470l1.5-2.5v-17l-.5-.5-1-.5-1.5-.5-2.5-.5-5-1-5.5-1-5.5-.5h-7l-6 .5-4 .5-4 1-3.5 1.5-3 2-3 3-2.5 3s-1.392 1.73-2 3c-.533 1.114-1 3-1 3s-.577 2.121-.5 3.5c.055.994.5 2.5.5 2.5l1 2 2 1.5 1.5.5H304l2.5-.5 2-1.5 1.5-1.5z" fill="#3C1048"/><path d="M183.5 204.5l-18.5-10 3-3 3-3 4-5 4-5 4-6 4-8 3-7 3-6.5 3-5.5 2-5 2-5 4-6.5 2.5-4-2-5-2-7.5-2.5-10-1.5-10.5-1-9.5-.5-7.5v-9.5l.5-11 1-11.5 1-7 1-6 1.5-7 2.5-7 2.5-7 2-4.5 3-3 3-1h4l3.5 1 7.5 3 9 5 9 6 9.5 7 7.5 6 7 6 6 6 6 6 6 7 3.5 3.5 4.5-1.5 5.5-1L311 53l6-.5h23.5l9.5 1 7 1.5 8.5 2.5L369 54l3.5-4 5.5-6 6-6.5 7-7 8.5-7 7.5-6 8.5-6 10-6 9-3.5 5.5-2h4l3.5 1.5 3 4 3 7 3 9 2 11.5 2 13 1 10.5v15l-1 12.5-.5 6-.5 3.5-1.5 8.5-2 10-2 7.5-3 6.5 3 3.5 3 5 4 8.5 4.5 10 6.5 14 6.5 11 8 10 6.5 6.5-8 4-9 5.5-7.5 5.5-26 16-31 14.5-33.5 11-30.5 8h-36l-24-8-14.5-5.5-37-14.5-40-19.5-12.5-7z" fill="#943092"/><path d="M179 220l-10-8.5 6-4s5.962-2.821 10-4c4.007-1.17 6.366-1.424 10.5-2 4.85-.675 12.5-1 12.5-1s12.515-.583 20.5 0c6.087.444 15.5 2 15.5 2l17.5 3.5 17.5 5 18 5.5 12.5 5 8.5 4.5 9.5 4h2.5l7.5-3.5 10-4.5 12-4.5 15-5 17.5-5 17.5-4 14-1.5 16.5-1s9.463-.44 15.5 0c7.3.532 18.5 3 18.5 3s5.702 1.312 9 3c2.507 1.283 6 4 6 4l-11 9-14.5 11s-10.415 7.417-17.5 11.5c-9.914 5.713-26.5 12.5-26.5 12.5l-14 6s-7.199 3.35-12 5c-5.912 2.032-15.5 4-15.5 4l-13 3 4 9.5 4 11s3.226 9.518 4.5 15.5c1.271 5.969 2 15.5 2 15.5s.46 7.005.5 11.5c.051 5.666-.5 14.5-.5 14.5l-1 6-2 6.5-3.5 8s-3.803 6.613-7 10c-2.868 3.039-8.5 6.5-8.5 6.5s-6.778 3.702-11.5 5c-3.436.944-9 1.5-9 1.5h-12.5l-8-1-6-1.5-5.5-2.5-5.5-3-5-3.5-3.5-4-3.5-4.5-2.5-3.5-2-4.5s-2.131-5.708-3-9.5c-.969-4.226-1.147-6.873-1.5-11-.682-7.979.5-20.5.5-20.5s.187-3.67.5-6c.397-2.96.951-4.597 1.5-7.5.713-3.77 2.5-9.5 2.5-9.5l4-14 4-10.5 2-5-8-1.5-10-2.5L254 262s-13.893-5.391-22.5-9.5c-11.279-5.385-17.397-8.884-28-15.5-9.88-6.165-24.5-17-24.5-17z" fill="#D3BDE7"/><path d="M333 229v9.652c.298 1.38 1.061 3.392 2.378 5.031 1.338 1.665 3.115 2.817 5.622 2.817 2.824 0 4.433-1.009 5.402-2.061 1.071-1.161 1.531-2.569 1.623-3.348a3.5 3.5 0 016.951.818c-.242 2.055-1.232 4.896-3.428 7.277-2.297 2.49-5.772 4.314-10.548 4.314-5.093 0-8.733-2.514-11.078-5.433-.145-.18-.286-.363-.423-.547-.136.184-.276.367-.421.547-2.345 2.919-5.985 5.433-11.078 5.433-4.776 0-8.251-1.824-10.548-4.314-2.195-2.381-3.186-5.222-3.427-7.277a3.5 3.5 0 116.951-.818c.091.779.551 2.187 1.622 3.348.97 1.052 2.578 2.061 5.402 2.061 2.507 0 4.284-1.152 5.622-2.817 1.317-1.639 2.08-3.651 2.378-5.031V229h7z" fill="#41104B"/><path d="M349 216c0 9-15 15-19.5 16-4-.5-20-8.5-20-16 0-9 13.167-9.667 20-9.5 6.5 0 19.5 0 19.5 9.5z" fill="#DD72B8"/><path d="M266.5 200c12.703 0 23-10.297 23-23s-10.297-23-23-23-23 10.297-23 23 10.297 23 23 23z" fill="#400E49"/><path d="M273 180a8.5 8.5 0 10-.001-17.001A8.5 8.5 0 00273 180zM256 192a4.5 4.5 0 100-9 4.5 4.5 0 000 9z" fill="#FBFEF9"/><path d="M392.5 200c-12.703 0-23-10.297-23-23s10.297-23 23-23 23 10.297 23 23-10.297 23-23 23z" fill="#3D0F48"/><path d="M386 180a8.5 8.5 0 11.001-17.001A8.5 8.5 0 01386 180zM403 192a4.5 4.5 0 110-9 4.5 4.5 0 010 9z" fill="#FBFEF9"/><path d="M258.5 71.5L267 67v-1.5l-5.5-8.5-6.5-8.5-13-14-9-7-7.5-4.5-2.5 1-2 3.5-2 5-1 6-1.5 7.5-.5 7v16l.5 11.5 1.5 13 3 9.5 1 .5 3-4 5-5.5 7-7 6-5.5 7-5 8.5-5z" fill="#F5A6D5"/><path d="M287 50l6.5 7-5 1.5-5 1.5-6 2-6 2.5L267 67l-.5-1-4-6-5-7.5L252 46l-8-8.5-6.5-6-4-3-5-3-5-3s-3.215-1.48-5.5-1.5c-1.188-.01-3 .5-3 .5l-2.5 1-4 3L203 31l-3.5 5 1-6 1-5 1-3.5 2.5-7 2-5.5 2-4.5 3-3 3-1h4l3.5 1 4 1.5 4.5 2 4.5 2.5 4 2.5 6.5 4 9 6.5 7.5 6 8 6.5 3.5 3.5 8.5 8.5 4.5 5z" fill="#3C114C"/><path d="M399.5 71.5L391 67v-1.5l5.5-8.5 6.5-8.5 13-14 9-7 7.5-4.5 2.5 1 2 3.5 2 5 1 6 1.5 7.5.5 7v16l-.5 11.5-1.5 13-3 9.5-1 .5-3-4-5-5.5-7-7-6-5.5-7-5-8.5-5z" fill="#F5A6D5"/><path d="M371 50l-6.5 7 5 1.5 5 1.5 6 2 6 2.5L391 67l.5-1 4-6 5-7.5L406 46l8-8.5 6.5-6 4-3 5-3 5-3s3.215-1.48 5.5-1.5c1.188-.01 3 .5 3 .5l2.5 1 4 3L455 31l3.5 5-1-6-1-5-1-3.5-2.5-7-2-5.5-2-4.5-3-3-3-1h-4l-3.5 1-4 1.5-4.5 2-4.5 2.5-4 2.5-6.5 4-9 6.5-7.5 6-8 6.5-3.5 3.5-8.5 8.5-4.5 5z" fill="#3C114C"/><path d="M228 341.5l2.5 2.5-3.5 1.5-4.5 2-7 3-7.5 2.5-7.5 2-8 2-3.5.5-4.5-.5-4.5-2-3-3-3-4.5-1.5-5V339l1-3 1-2.5 2-2.5 1.5-1.5 1.5-1 3-2 3.5-2 4-2.5 5-3.5 4.5-2.5 4-2.5 4-2.5 4.5-3 6-4v.5s-.408 2.734-.5 4.5c-.081 1.56-.188 2.449 0 4 .194 1.598.5 3.5.5 3.5l1 5 1 4.5 1.5 4 1.5 3.5 2 4 3 4z" fill="#401146"/><path d="M105.444 232.525l5.557 8.395 28.989-19.187-5.557-8.396-28.989 19.188z" fill="#93318F"/><path d="M126.181 230.873l-5.557-8.395 9.892-6.666s2.222.96 4.703 2.985c1.683 1.373 3.687 3.681 3.687 3.681l-12.725 8.395zM122.5 264s-2.134-2.686-3-4.5c-.906-1.898-2-5-2-5l34.658-22.958 5.557 8.395L122.5 264z" fill="#29BBB8"/><path d="M139.187 252.531l-5.78-8.578 18.751-12.412 5.557 8.396-18.528 12.594zM126.571 279.857l5.557 8.395 37.768-24.998-5.556-8.396-37.769 24.999z" fill="#93318F"/><path d="M151.254 275.593l-5.556-8.395 18.989-12.635s1.809 2.892 2.625 4.906c.718 1.771 1.407 4.687 1.407 4.687l-17.465 11.437z" fill="#29BBB8"/><path d="M190.5 312.5l27.5 46.125-18.75 10.25-28.75-44.25-14.188 9.469-7.687-14.313 2.844-1.937 16.875-11.094 26.906-16L206 302.531l-15.5 9.969z" fill="#16898C"/><path d="M221.402 387.368c8.522-4.156 12.345-13.85 8.54-21.652-3.805-7.802-13.798-10.757-22.32-6.6-8.522 4.156-12.345 13.85-8.54 21.652 3.805 7.802 13.798 10.757 22.32 6.6z" fill="#29BBB8"/><path fill-rule="evenodd" clip-rule="evenodd" d="M130.5 309.75l-8.125-9.562L113.812 288l-7.874-13.125-7.876-16.125L94 248.188l-2.188-6.626S89.76 234.546 89 229.938c-1.062-6.442-1.047-10.16-1-16.688.042-5.822 1-14.875 1-14.875L90.5 186l1-9.5-.438-10.25-1.374-8.938-3-11.812-3.75-9.188-4.188-9.437-5.063-8.625-6.062-9.781-8.469-10.313-8.187-7.844-6.063-4.843-6.156-5.031L34 75.311l-4.219-6.906-4.718-7.875-5.282-9.187L2.844 24.312l4.469 1.313 6.343 2.781 6.969 3.532 10.188 5.53L40.28 44l10.125 7.563 7.75 7.062 8.625 9 8.188 9.844 7.875 10.437 7.281 11.938 8.281 13.875 6.938 15.062 3.968 9.125 1.969 8.969 1.907 10.75.562 9v10l.158 2.529v1.137L111 205.101c-.144.028-.184.602-.227.843-.094.515-.273 1.056-.273 1.056v4.5s-.258 3.386 0 6.5c.13 1.569.5 5.5.5 5.5l.5 5 1 6s.456 3.99 1 6.5c.472 2.176 1.5 5.5 1.5 5.5l2 7s1.025 3.183 2 5.25c1.386 2.939 4.5 7.25 4.5 7.25l3.5 5.5 3.5 5.5 3.5 5 5 5.5 5 5 3.5 3 2 2-19 12.25z" fill="#943092"/><path d="M91 187c-.394 3.541-1.5 9-1.5 9l-6-2.5-6-3.5-8-5-7.5-5.5-7.5-6.5-9.5-10.5-8-10.5-9-14-6-11.5-5.5-11-5-11.5L8 94.5S5.908 88.783 5 85c-.787-3.278-2.188-10-2.188-10L1.5 66.5.5 58c-.342-2.915-.5-7.5-.5-7.5v-9c0-2.74.5-7 .5-7L2 27l1-2.5 11.5 18L22 55l7 12 5 8 2 2.5v3l.5 6 1 7L40 102l3.5 10.5 5.5 12 6 10 7 9 5.5 7L75 158l7.5 5.5 8.5 5s.5 4.565.5 7.5c0 2.935-.024 6.726-.5 11z" fill="#2FBBBD"/><path d="M156.438 333.875l-.844 3.25-22.656 13.625-5.063-13.625V332l1.25-2.125v-2.75l-3.875-9.063v-2.687l.625-3.437L164 287.5l32.812-19.688 4.563.563 11.187 10.063 3.376.312 13.562 13.062-21 13.25-2.375-1-11-13.187-46.406 28.781 7.719 14.219z" fill="#29BBB8"/><path d="M194.248 356.725c7.135-3.636 9.678-12.945 5.679-20.794-4-7.848-13.026-11.264-20.161-7.628-7.135 3.636-9.678 12.945-5.679 20.794 3.999 7.848 13.025 11.264 20.161 7.628zM439.347 341.5l-2.5 2.5 3.5 1.5 4.5 2 7 3 7.5 2.5 7.5 2 8 2 3.5.5 4.5-.5 4.5-2 3-3 3-4.5 1.5-5V339l-1-3-1-2.5-2-2.5-1.5-1.5-1.5-1-3-2-3.5-2-4-2.5-5-3.5-4.5-2.5-4-2.5-4-2.5-4.5-3-6-4v.5s.408 2.734.5 4.5c.081 1.56.188 2.449 0 4-.194 1.598-.5 3.5-.5 3.5l-1 5-1 4.5-1.5 4-1.5 3.5-2 4-3 4z" fill="#401146"/><path d="M473.099 356.725c-7.136-3.635-9.678-12.945-5.679-20.794 3.999-7.848 13.025-11.264 20.16-7.628 7.136 3.636 9.678 12.945 5.679 20.794-3.999 7.849-13.025 11.264-20.16 7.628z" fill="#401146"/><path d="M481.312 406.25l17 8.75 9.969-5.312 5.969-3.157 7.719-4.812 6.875-4.094 7.031-4.969 8.031-6.594 5.813-5.906 6.406-7.218 5.875-8.344 4.844-8.313 5.094-11.375 2.406-6.844 2.344-7.812 1.874-8.406 1.032-8.563.281-9.219v-53.343l-1.406-2.031-1.219-1.157-1.719-.656-2.469-.219-6.374-.218-8.688-.876-7.688-.937-8.374-1.813-9.063-2.25-6.813-2.343-7.187-3.157-7.313-3.374-9.25-4.813-4.187-2.063-1.25.5-5.437 3.126-6.688 4.062-8.688 3.688-9.374 3.312-12.188 3.312-10.75 2.563-5.75.906-3.438.375-4.75.344-5.406.25-2.156.219-1.469.281-2.062 1.094-1.219 2.281v29.125l.375 23.375.563 10.5 1.624 12.187 1.876 9.25 3.624 10.063L430 355.688l4.062 7.75 5.188 7.687 4.562 6.125 5.563 5.625 5.063 4.5 8.5 7.125 9.874 6.375 8.5 5.375z" fill="#3B1347"/><path d="M484.697 390.433l13.689 7.046 8.027-4.278 4.806-2.541 6.215-3.875 5.536-3.297 5.662-4.001 6.467-5.309 4.681-4.756 5.158-5.813 4.731-6.719 3.9-7.693 4.102-9.16 1.938-5.511 1.887-6.291 1.51-6.769.83-6.894.226-7.424v-43.954l-1.132-1.636-.981-.931-1.384-.528-1.988-.176-5.134-.176-6.995-.705-6.19-.755-6.744-1.459-7.298-1.812-5.485-1.887-5.788-2.542-5.888-2.718-7.449-3.875-3.371-1.661-1.007.403-4.378 2.516-5.385 3.272-6.996 2.969-7.549 2.667-9.814 2.668-8.656 2.063-4.63.73-2.768.302-3.825.277-4.353.201-1.737.176-1.182.227-1.661.88-.982 1.837V287.974l.302 18.822.453 8.455 1.309 9.814 1.51 7.448 2.919 8.103 3.573 8.103 3.271 7.24 4.177 6.19 3.674 4.932 4.479 4.53 4.077 3.623 6.844 5.738 7.952 5.133 6.845 4.328z" fill="#D5BEEA"/><path d="M498.125 271.5c8.837 0 16 7.163 16 16a15.94 15.94 0 01-1.482 6.731l10.624 10.624a15.92 15.92 0 018.045-2.167c8.837 0 16 7.163 16 16 0 8.836-7.163 16-16 16-3.096 0-5.987-.881-8.436-2.404l-10.437 10.437a15.92 15.92 0 011.686 7.154c0 8.837-7.163 16-16 16s-16-7.163-16-16c0-2.605.622-5.064 1.727-7.237l-10.028-10.028a15.92 15.92 0 01-7.886 2.078c-8.837 0-16-7.164-16-16 0-8.837 7.163-16 16-16 2.965 0 5.742.807 8.124 2.213l9.917-9.918a15.936 15.936 0 01-1.854-7.483c0-8.837 7.163-16 16-16zm8.892 29.303a15.926 15.926 0 01-8.892 2.697c-2.999 0-5.804-.826-8.203-2.262l-9.883 9.883a15.937 15.937 0 011.899 7.567 15.928 15.928 0 01-2.033 7.806l9.783 9.783a15.928 15.928 0 018.437-2.402c3.129 0 6.047.898 8.513 2.45l10.401-10.401a15.944 15.944 0 01-1.727-7.236c0-2.77.703-5.376 1.942-7.648l-10.237-10.237z" fill="#3E114A"/><path d="M113.909 180.291l-2.887 24.778c.837-.162 2.478.931 2.478.931l5.5 3 6 3.5 5 3 4.5 3 4.5 4 5 5 4 4 5 5 4 6 4 6.5 4 6 2.5 5.5 2.5 8.5 2.5 8 1.5 4.5 20-11.5-1.5-3.5-2.5-5.5-3-6.5-3-6-4-8-5.5-8.5-5.5-8.5-7-9-9.5-9.5-10.5-9-9-6.5-9-4.5-8-3.5-2.091-1.209z" fill="#2FBBBD"/></g><defs><clipPath id="a"><path fill="#fff" d="M0 0h580v470H0z"/></clipPath></defs></svg>