<svg width="387" height="415" viewBox="0 0 387 415" fill="none" xmlns="http://www.w3.org/2000/svg">
<path d="M236.557 152.46V133.565C236.557 126.85 239.224 120.41 243.972 115.662C248.721 110.914 255.161 108.246 261.876 108.246C268.591 108.246 275.031 110.914 279.779 115.662C284.527 120.41 287.195 126.85 287.195 133.565V152.46C287.194 153.362 286.835 154.226 286.197 154.864C285.56 155.501 284.695 155.86 283.794 155.861H239.958C239.056 155.86 238.192 155.501 237.554 154.864C236.916 154.226 236.558 153.362 236.557 152.46Z" fill="#1D3580"/>
<path d="M299.314 398.353L290.384 400.825L276.601 367.556L289.781 363.909L299.314 398.353Z" fill="#FFB8B8"/>
<path d="M283.299 400.039L300.521 395.272L303.523 406.116L275.456 413.883C275.062 412.459 274.952 410.972 275.133 409.505C275.314 408.039 275.782 406.622 276.51 405.337C277.239 404.051 278.213 402.921 279.378 402.012C280.543 401.103 281.875 400.433 283.299 400.039Z" fill="#1D3580"/>
<path d="M206.211 405.223H196.945L192.537 369.483H206.213L206.211 405.223Z" fill="#FFB8B8"/>
<path d="M190.327 402.575H208.196V413.826H179.075C179.075 412.349 179.366 410.885 179.932 409.52C180.497 408.155 181.326 406.915 182.371 405.87C183.416 404.825 184.656 403.997 186.021 403.431C187.386 402.866 188.849 402.575 190.327 402.575Z" fill="#1D3580"/>
<path d="M195.038 205.485C195.7 206.377 196.549 207.114 197.526 207.643C198.503 208.173 199.584 208.481 200.693 208.547C201.802 208.613 202.912 208.435 203.945 208.026C204.978 207.617 205.908 206.986 206.671 206.178L231.303 217.256L229.062 203.402L206.015 195.005C204.573 193.814 202.744 193.193 200.875 193.26C199.005 193.327 197.225 194.078 195.872 195.369C194.519 196.661 193.687 198.404 193.533 200.268C193.379 202.133 193.915 203.989 195.038 205.485Z" fill="#F9CACA"/>
<path d="M246.216 288.801C238.477 288.801 230.466 287.648 223.732 284.22C220.157 282.436 216.99 279.933 214.426 276.869C211.863 273.804 209.96 270.243 208.836 266.41C205.328 255.3 209.752 244.386 214.03 233.831C216.681 227.291 219.185 221.113 219.834 215.024L220.061 212.862C221.073 203.152 221.947 194.766 226.786 191.621C229.294 189.99 232.665 189.898 237.095 191.336L278.697 204.851L277.168 283.823L276.915 283.908C276.697 283.981 262.031 288.801 246.216 288.801Z" fill="#1D3580"/>
<path d="M236.368 166.751C236.368 166.751 256.774 160.704 272.646 162.972C272.646 162.972 263.576 212.854 266.599 229.481C269.623 246.109 214.072 235.905 225.409 220.034L229.188 201.139C229.188 201.139 221.63 193.581 228.432 184.512L236.368 166.751Z" fill="#39BDE7"/>
<path d="M226.331 287.304L201.181 282.589L209.961 215.016C210.552 213.129 224.153 170.316 230.331 168C234.816 166.42 239.403 165.146 244.061 164.185L244.956 164.006L239.913 171.571L219.836 219.68L226.331 287.304Z" fill="#1D3580"/>
<path d="M213.226 396.942L180.731 391.526L198.967 317.063L226.102 215.229L226.37 217.038C226.391 217.172 228.926 230.476 266.541 224.573L266.872 224.521L266.963 224.843L312.425 385.477L275.399 391.648L241.628 274.45L213.226 396.942Z" fill="#314EA7"/>
<path d="M258.266 299.95L258.286 299.378C258.309 298.743 260.544 235.61 259.797 210.219C259.048 184.742 267.296 162.679 267.38 162.46L267.447 162.282L267.629 162.23C278.301 159.181 287.559 168.28 287.651 168.373L287.781 168.503L284.742 193.577L297.753 284.757L258.266 299.95Z" fill="#1D3580"/>
<path d="M256.673 155.421C266.925 155.421 275.236 147.11 275.236 136.858C275.236 126.606 266.925 118.295 256.673 118.295C246.421 118.295 238.11 126.606 238.11 136.858C238.11 147.11 246.421 155.421 256.673 155.421Z" fill="#F9CACA"/>
<path d="M230.567 135.077C230.573 129.767 232.685 124.676 236.44 120.921C240.194 117.166 245.285 115.054 250.595 115.048H254.374C259.684 115.054 264.775 117.166 268.53 120.921C272.285 124.676 274.397 129.767 274.403 135.077V135.454H266.417L263.693 127.827L263.148 135.454H259.021L257.646 131.606L257.371 135.454H230.567V135.077Z" fill="#1D3580"/>
<path d="M254.846 157.986C254.471 157.478 254.247 156.875 254.2 156.245C254.153 155.616 254.285 154.986 254.58 154.428C258.585 146.811 264.192 132.737 256.749 124.057L256.214 123.433H277.82V155.872L258.193 159.335C257.994 159.37 257.793 159.388 257.591 159.388C257.055 159.388 256.527 159.261 256.05 159.017C255.573 158.773 255.16 158.42 254.846 157.986Z" fill="#1D3580"/>
<path d="M167.856 24.0558C152.738 11.2983 134.237 3.21024 114.605 0.775758C94.9732 -1.65872 75.0571 1.66538 57.28 10.3435C39.503 19.0217 24.6316 32.6798 14.4755 49.6558C4.3193 66.6318 -0.683742 86.1938 0.0751363 105.961C0.834015 125.729 7.3221 144.85 18.7499 160.997C30.1777 177.145 46.0524 189.622 64.4424 196.912C82.8325 204.202 102.945 205.989 122.332 202.057C141.719 198.124 159.546 188.642 173.642 174.763L298.815 280.383C300.719 281.993 303.186 282.78 305.671 282.572C308.156 282.364 310.457 281.177 312.067 279.273C313.677 277.368 314.465 274.902 314.257 272.417C314.049 269.931 312.862 267.631 310.957 266.02L310.943 266.009L185.771 160.389C200.312 139.519 206.535 113.971 203.222 88.7522C199.908 63.5331 187.296 40.4604 167.856 24.0558ZM159.787 150.218C150.036 161.775 137.076 170.18 122.547 174.372C108.019 178.563 92.5735 178.352 78.1648 173.766C63.756 169.179 51.0309 160.423 41.5987 148.604C32.1664 136.785 26.4506 122.435 25.1742 107.368C23.8977 92.3005 27.1178 77.1932 34.4273 63.9561C41.7369 50.719 52.8075 39.9467 66.2392 33.0014C79.671 26.0561 94.8607 23.2498 109.887 24.9373C124.914 26.6248 139.103 32.7303 150.66 42.4818C158.333 48.9566 164.656 56.8793 169.268 65.7977C173.879 74.7161 176.689 84.4554 177.536 94.4597C178.384 104.464 177.253 114.537 174.207 124.104C171.162 133.671 166.262 142.545 159.787 150.218Z" fill="#8B78FF"/>
<path opacity="0.15" d="M52.0506 159.346C37.3837 146.969 27.9078 129.528 25.5044 110.488C23.1009 91.4478 27.9458 72.1999 39.0771 56.5664C37.6153 58.0386 36.2021 59.5803 34.8375 61.1918C28.3628 68.8651 23.4628 77.7387 20.4174 87.3057C17.3719 96.8728 16.2407 106.946 17.0883 116.95C17.9358 126.955 20.7456 136.694 25.3571 145.612C29.9686 154.531 36.2915 162.453 43.9649 168.928C51.6383 175.403 60.5118 180.303 70.0789 183.348C79.6459 186.394 89.7191 187.525 99.7234 186.677C109.728 185.83 119.467 183.02 128.385 178.409C137.304 173.797 145.226 167.474 151.701 159.801C153.063 158.187 154.345 156.535 155.547 154.844C142.009 168.446 123.851 176.46 104.678 177.294C85.5045 178.128 66.7187 171.721 52.0506 159.346Z" fill="#353A3F"/>
<path d="M262.633 237.937C263.712 238.201 264.836 238.225 265.926 238.007C267.015 237.79 268.044 237.336 268.939 236.678C269.835 236.02 270.575 235.173 271.107 234.198C271.64 233.223 271.953 232.143 272.023 231.034L298.047 223.811L287.468 214.588L264.377 222.861C262.506 222.867 260.703 223.558 259.308 224.805C257.913 226.051 257.024 227.766 256.809 229.624C256.594 231.482 257.068 233.355 258.141 234.887C259.215 236.419 260.813 237.504 262.633 237.937Z" fill="#F9CACA"/>
<path d="M273.449 234.113L271.866 219.068L293.604 207.075L279.431 189.918L281.744 170.646L287.503 168.178L287.682 168.408C290.397 171.9 314.214 202.631 314.214 206.43C314.214 210.332 309.658 221.79 303.424 224.907C297.411 227.913 274.832 233.757 273.874 234.004L273.449 234.113Z" fill="#1D3580"/>
<path d="M386.244 414.836H98.288C98.0876 414.836 97.8953 414.756 97.7536 414.614C97.6118 414.472 97.5322 414.28 97.5322 414.08C97.5322 413.879 97.6118 413.687 97.7536 413.545C97.8953 413.404 98.0876 413.324 98.288 413.324H386.244C386.445 413.324 386.637 413.404 386.779 413.545C386.92 413.687 387 413.879 387 414.08C387 414.28 386.92 414.472 386.779 414.614C386.637 414.756 386.445 414.836 386.244 414.836Z" fill="#C4C4C4"/>
</svg>
