<svg width="222" height="222" viewBox="0 0 222 222" fill="none" xmlns="http://www.w3.org/2000/svg">
<path d="M80.6912 29.3743C80.1419 28.4481 77.7654 29.4398 77.3285 28.5992C76.8931 27.7616 79.1011 26.4854 80.3626 23.5699C80.5901 23.0441 82.0237 19.7309 80.9624 18.7086C78.9508 16.7708 69.7457 24.7677 66.5243 22.1507C65.8173 21.5764 65.3234 20.4299 63.1838 18.5684C62.3326 17.8279 61.8179 17.4936 61.3197 17.618C60.6129 17.7945 60.5569 18.7404 59.7989 20.6005C58.6623 23.3899 57.99 23.2215 57.3277 25.447C56.8361 27.0992 56.9484 28.0597 56.3699 28.2468C55.5512 28.5116 54.7977 26.7593 53.7602 26.9162C52.7015 27.0763 52.0614 29.1166 51.8592 30.6443C51.4798 33.511 52.5326 35.4027 53.1161 37.3918C53.7503 39.5534 54.1266 42.8408 52.6622 47.4946L38.1678 88.3326C41.3678 79.9527 50.633 56.9814 54.5263 48.4451C55.6502 45.9808 56.8911 43.4813 59.4392 42.4949C61.8924 41.5451 65.2615 42.1121 69.5568 41.0774C70.0584 40.9565 71.4505 40.6024 71.6257 39.7836C71.7705 39.1067 70.9517 38.7288 71.0775 38.0949C71.2463 37.2445 72.8565 37.234 74.8352 36.2529C76.2305 35.5611 77.0997 34.7383 77.8472 34.0308C78.0726 33.8175 81.4225 30.6074 80.6912 29.3743Z" fill="#E5E5E5"/>
<path d="M23.6661 50.8732C23.053 50.8755 22.8541 52.3281 22.3154 52.3C21.7787 52.272 21.7894 50.82 20.7225 49.3597C20.5301 49.0963 19.3176 47.4368 18.5096 47.6627C16.9781 48.0908 18.247 54.9162 16.0331 55.7422C15.5473 55.9234 14.842 55.835 13.3111 56.3481C12.702 56.5522 12.3894 56.7084 12.3067 56.9888C12.1894 57.3866 12.6375 57.6871 13.3317 58.5957C14.3729 59.9584 14.0962 60.2398 14.9974 61.207C15.6665 61.925 16.1703 62.147 16.0952 62.4849C15.989 62.9631 14.9115 62.8274 14.6891 63.3818C14.4623 63.9477 15.279 64.8505 15.9704 65.3905C17.268 66.4039 18.5002 66.433 19.6448 66.7205C20.8887 67.033 22.6108 67.7968 24.4724 69.8583L40.3338 88.7553C37.1442 84.7669 28.5431 73.5915 25.4767 69.2176C24.5915 67.955 23.7228 66.6247 23.9738 65.0895C24.2155 63.6114 25.4659 62.1214 26.1974 59.7147C26.2828 59.4336 26.5106 58.6482 26.1593 58.326C25.8689 58.0596 25.4472 58.3524 25.1723 58.1078C24.8037 57.7796 25.2631 56.9863 25.3525 55.732C25.4155 54.8476 25.2625 54.1836 25.1309 53.6126C25.0913 53.4404 24.4823 50.8701 23.6661 50.8732Z" fill="#E5E5E5"/>
<path d="M35.8978 53.6189L35.5284 50.3214L35.6972 50.0714C36.4782 48.9154 36.8763 47.7865 36.881 46.7149C36.8818 46.5446 36.8739 46.3742 36.8659 46.2007C36.8341 45.5128 36.7943 44.6578 37.2401 43.661C37.4901 43.1054 38.1923 41.8188 39.2479 41.978C39.5321 42.0178 39.7471 42.1484 39.9103 42.3012C39.9342 42.263 39.9589 42.2248 39.9851 42.1834C40.3139 41.6819 40.5742 41.4669 40.825 41.2599C41.0177 41.1007 41.2167 40.9367 41.5288 40.5482C41.6657 40.3778 41.7724 40.2282 41.8624 40.1024C42.1355 39.7218 42.4921 39.268 43.121 39.276C43.793 39.3078 44.1448 39.8635 44.3781 40.2313C44.7945 40.8873 44.9832 41.3602 45.1081 41.6739C45.1535 41.7885 45.2053 41.9175 45.2316 41.9573C45.4481 42.2758 47.2083 41.978 47.8715 41.8697C49.361 41.6213 50.65 41.4064 51.181 42.3458C51.5615 43.0177 51.2789 43.9062 50.3156 45.0574C50.0154 45.4157 49.6962 45.6879 49.4128 45.9013C49.6476 46.0414 49.8578 46.2564 49.943 46.5939C50.1436 47.3932 49.4566 48.1941 47.9017 48.9775C47.5156 49.1734 46.9958 49.4345 46.2673 49.5603C45.9242 49.6192 45.6153 49.6335 45.351 49.6415C45.3454 49.7944 45.3096 49.96 45.2164 50.1303C44.9434 50.6319 44.3749 50.8707 43.5183 50.8134C42.5757 50.764 41.7995 50.5841 41.1148 50.4265C40.5169 50.2895 40.0018 50.1733 39.5974 50.2004C38.8475 50.2609 38.2695 50.8611 37.5912 51.6398L35.8978 53.6189Z" fill="#E5E5E5"/>
<path d="M37.6114 33.9854L34.5154 35.1791L34.2308 35.0793C32.9145 34.617 31.7216 34.5183 30.6839 34.7855C30.5189 34.828 30.3561 34.8789 30.1902 34.9306C29.5329 35.1359 28.716 35.3913 27.6387 35.2128C27.0378 35.112 25.6152 34.7591 25.5015 33.6976C25.4679 33.4126 25.5397 33.1715 25.6461 32.9749C25.6031 32.9615 25.5599 32.9473 25.5132 32.9324C24.9446 32.7416 24.6707 32.5443 24.4068 32.3542C24.204 32.2082 23.9948 32.0573 23.5399 31.854C23.3403 31.7647 23.1685 31.6995 23.024 31.6444C22.5867 31.4768 22.0572 31.2469 21.9054 30.6365C21.7658 29.9785 22.2141 29.4971 22.5107 29.1782C23.0396 28.6091 23.4492 28.3066 23.7209 28.1061C23.8203 28.0332 23.9319 27.9504 23.9637 27.9149C24.2168 27.6246 23.4824 25.9975 23.2094 25.3835C22.5913 24.0057 22.0565 22.8134 22.8305 22.0615C23.3839 21.523 24.315 21.571 25.6729 22.2108C26.0956 22.4102 26.4399 22.65 26.7182 22.87C26.7942 22.6073 26.9488 22.3495 27.2537 22.1815C27.976 21.7847 28.9249 22.2461 30.0771 23.5514C30.3645 23.8752 30.7489 24.3118 31.0554 24.9845C31.1994 25.3015 31.2916 25.5966 31.3664 25.8503C31.5156 25.8169 31.6849 25.8096 31.8733 25.8564C32.4277 25.9934 32.8029 26.4826 32.9648 27.3258C33.1561 28.2501 33.179 29.0465 33.2002 29.7488C33.2194 30.3619 33.2376 30.8896 33.3663 31.2739C33.6151 31.984 34.3423 32.3908 35.2675 32.8494L37.6114 33.9854Z" fill="#E5E5E5"/>
<path d="M35.8978 24.2708L35.5284 20.9732L35.6972 20.7232C36.4782 19.5673 36.8763 18.4384 36.881 17.3668C36.8818 17.1964 36.8739 17.026 36.8659 16.8525C36.8341 16.1647 36.7943 15.3096 37.2401 14.3129C37.4901 13.7572 38.1923 12.4707 39.2479 12.6299C39.5321 12.6697 39.7471 12.8002 39.9103 12.9531C39.9342 12.9149 39.9589 12.8767 39.9851 12.8353C40.3139 12.3337 40.5742 12.1188 40.825 11.9118C41.0177 11.7526 41.2167 11.5886 41.5288 11.2C41.6657 11.0297 41.7724 10.88 41.8624 10.7542C42.1355 10.3737 42.4921 9.91988 43.121 9.92784C43.793 9.95969 44.1448 10.5154 44.3781 10.8832C44.7945 11.5392 44.9832 12.0121 45.1081 12.3258C45.1535 12.4404 45.2053 12.5694 45.2316 12.6092C45.4481 12.9276 47.2083 12.6299 47.8715 12.5216C49.361 12.2732 50.65 12.0583 51.181 12.9977C51.5615 13.6696 51.2789 14.5581 50.3156 15.7093C50.0154 16.0675 49.6962 16.3398 49.4128 16.5532C49.6476 16.6933 49.8578 16.9082 49.943 17.2458C50.1436 18.0451 49.4566 18.846 47.9017 19.6294C47.5156 19.8252 46.9958 20.0864 46.2673 20.2122C45.9242 20.2711 45.6153 20.2854 45.351 20.2934C45.3454 20.4462 45.3096 20.6118 45.2164 20.7822C44.9434 21.2837 44.3749 21.5226 43.5183 21.4652C42.5757 21.4159 41.7995 21.236 41.1148 21.0783C40.5169 20.9414 40.0018 20.8252 39.5974 20.8522C38.8475 20.9127 38.2695 21.513 37.5912 22.2916L35.8978 24.2708Z" fill="#E5E5E5"/>
<path d="M39.2718 88.2789L38.5808 87.8458L37.7751 87.9382C37.7624 87.8633 37.7186 87.6913 37.6525 87.4223C37.2919 85.9479 36.1924 81.4609 35.2753 74.3945C34.6352 69.4618 34.273 64.3905 34.1981 59.3192C34.1233 54.2399 34.3637 50.3947 34.5564 47.3041C34.7021 44.9731 34.8788 42.7535 35.0524 40.5912C35.5141 34.8146 35.9496 29.358 35.6256 23.317C35.5539 21.9684 35.4035 19.1613 33.7635 16.1742C32.8121 14.4418 31.5017 12.9037 29.868 11.6045L30.8839 10.3275C32.6871 11.7637 34.1368 13.4674 35.1933 15.3909C37.0116 18.7027 37.1756 21.7614 37.2545 23.2311C37.584 29.3787 37.1438 34.8879 36.6773 40.7202C36.5053 42.8745 36.3286 45.0846 36.1837 47.4061C35.9926 50.4679 35.7546 54.2798 35.8286 59.2937C35.9019 64.3045 36.2601 69.3137 36.8914 74.1844C37.7974 81.1616 38.8809 85.5817 39.2368 87.0338C39.4263 87.8092 39.4661 87.9716 39.2718 88.2789Z" fill="#E5E5E5"/>
<path d="M26.8778 14.195C26.8109 14.195 26.7432 14.1934 26.6748 14.1887C25.2863 14.1138 24.0006 13.2827 22.8526 11.7191C22.3144 10.9835 22.039 10.1444 21.4896 8.47091C21.4045 8.21297 20.9905 6.90415 20.7389 5.10332C20.5741 3.92665 20.5948 3.43466 20.8281 2.99997C21.0868 2.51593 21.5056 2.17838 21.9769 1.95069C21.9562 1.79465 21.9729 1.63383 22.0406 1.46982C22.3184 0.789941 23.0572 0.879114 23.4569 0.922102C23.6591 0.947577 23.9114 0.981013 24.1837 0.966678C24.612 0.945989 24.8421 0.818594 25.1908 0.627519C25.5244 0.444408 25.9392 0.216723 26.5546 0.0909341C27.7679 -0.16223 28.7845 0.181696 29.1197 0.294735C30.8831 0.882268 31.7524 2.2532 32.7587 3.84065C32.9593 4.1591 33.648 5.31824 34.1026 6.90731C34.4306 8.05372 34.3844 8.56324 34.2857 8.94219C34.0851 9.7208 33.6114 10.1666 32.4084 11.1506C31.1522 12.1808 30.5216 12.6967 29.9803 13.0104C28.72 13.738 27.9286 14.195 26.8778 14.195Z" fill="#E5E5E5"/>
<path d="M94.6971 219.143C94.6971 219.361 94.8722 219.536 95.0902 219.536H176.769C176.987 219.536 177.162 219.361 177.162 219.143C177.162 219.037 177.122 218.945 177.056 218.876H147.422C146.791 218.876 146.173 218.833 145.566 218.75H95.0902C94.8722 218.75 94.6971 218.925 94.6971 219.143Z" fill="#E5E5E5"/>
<path d="M55.2349 149.605H100.706C108.41 149.605 114.654 155.849 114.654 163.553V200.028C114.654 207.732 108.41 213.976 100.706 213.976H55.2349C47.5315 213.976 41.2866 207.732 41.2866 200.028V163.553C41.2866 155.849 47.5315 149.605 55.2349 149.605Z" fill="white"/>
<path d="M40.9564 200.028V163.553C40.9564 155.68 47.3618 149.274 55.235 149.274H100.706C108.579 149.274 114.985 155.68 114.985 163.553V200.028C114.985 207.901 108.579 214.307 100.706 214.307H55.235C47.3618 214.307 40.9564 207.901 40.9564 200.028ZM55.235 149.935C47.726 149.935 41.617 156.044 41.617 163.553V200.028C41.617 207.537 47.726 213.646 55.235 213.646H100.706C108.215 213.646 114.324 207.537 114.324 200.028V163.553C114.324 156.044 108.215 149.935 100.706 149.935H55.235Z" fill="#E0E1FE"/>
<path d="M14.2786 68.3524H59.7498C67.4532 68.3524 73.6981 74.5973 73.6981 82.3007V118.776C73.6981 126.479 67.4532 132.724 59.7498 132.724H14.2786C6.57518 132.724 0.330322 126.479 0.330322 118.776V82.3007C0.330322 74.5973 6.57518 68.3524 14.2786 68.3524Z" fill="white"/>
<path d="M0 118.776V82.3008C0 74.4276 6.40541 68.0222 14.2786 68.0222H59.7498C67.623 68.0222 74.0284 74.4276 74.0284 82.3008V118.776C74.0284 126.649 67.623 133.054 59.7498 133.054H14.2786C6.40541 133.054 0 126.649 0 118.776ZM14.2786 68.6828C6.76957 68.6828 0.660588 74.7918 0.660588 82.3008V118.776C0.660588 126.285 6.76957 132.394 14.2786 132.394H59.7498C67.2588 132.394 73.3678 126.285 73.3678 118.776V82.3008C73.3678 74.7918 67.2588 68.6828 59.7498 68.6828L14.2786 68.6828Z" fill="#E0E1FE"/>
<path d="M141.508 92.6444C141.178 92.3141 138.535 85.3779 138.535 85.3779L132.26 85.0476L129.388 91.8173L141.508 92.6444Z" fill="#FFB6B6"/>
<path d="M132.604 88.2431C137.27 88.2431 141.052 84.4611 141.052 79.7957C141.052 75.1304 137.27 71.3484 132.604 71.3484C127.939 71.3484 124.157 75.1304 124.157 79.7957C124.157 84.4611 127.939 88.2431 132.604 88.2431Z" fill="#FFB6B6"/>
<path d="M148.609 138.39L151.582 148.299L143.655 205.77H138.288L135.398 162.502L132.095 177.365L148.94 198.834L144.646 203.788L120.369 180.172L120.865 143.675L122.846 138.06L148.609 138.39Z" fill="#1D3580"/>
<path d="M139.687 86.7351L139.027 86.7676C139.027 86.7676 138.437 81.5056 138.091 81.1919C137.744 80.8783 137.117 81.5706 137.117 81.5706C137.117 81.5706 134.397 80.0511 134.316 78.4017C134.234 76.7522 134.169 75.4326 133.18 75.4814C132.19 75.5301 126.647 77.126 125.327 77.191C124.008 77.256 121.914 75.0443 124.126 72.9511C126.338 70.858 128.285 70.1007 128.598 69.7546C128.912 69.4084 130.977 67.9839 132.781 69.2178C134.585 70.4517 136.895 70.3379 136.895 70.3379C136.895 70.3379 141.232 71.1163 140.67 73.1282C140.107 75.1401 142.282 79.0013 141.39 81.0294C140.497 83.0575 139.687 86.7351 139.687 86.7351Z" fill="#1D3580"/>
<path d="M138.04 204.779L143.985 205.44L144.646 216.339C144.646 216.339 144.315 221.624 138.7 220.964C133.085 220.303 134.737 215.018 134.737 215.018L138.04 204.779Z" fill="#314EA7"/>
<path d="M145.802 197.017C145.802 197.017 150.096 195.036 150.756 197.348L152.077 201.972C152.077 201.972 152.077 206.596 152.408 206.926C152.738 207.256 159.013 215.844 153.398 220.468C153.398 220.468 150.426 220.798 148.774 216.174C147.123 211.55 142.168 206.926 142.168 206.926C142.168 206.926 141.209 204.614 142.845 204.779C144.481 204.944 146.793 200.981 146.132 199.66C145.471 198.338 145.802 197.017 145.802 197.017Z" fill="#314EA7"/>
<path d="M91.2697 153.866C89.733 153.218 89.3119 150.737 90.3293 148.321C90.7224 147.351 91.3423 146.488 92.137 145.807L93.324 143.084L93.2816 143.055L96.6946 129.453C97.4881 126.29 99.6731 123.622 102.674 122.346C104.459 121.587 106.153 121.449 106.645 123.268C107.462 126.286 102.139 136.008 98.9295 141.478L96.4289 147.614C96.4966 148.66 96.3128 149.706 95.8931 150.665C94.8765 153.08 92.8064 154.513 91.2697 153.866Z" fill="#FFB6B6"/>
<path d="M129.617 90.6626L140.517 90.9929L151.086 95.617L149.435 123.031C149.435 123.031 151.417 129.307 150.426 130.298C149.435 131.289 150.426 135.731 149.765 135.822C149.105 135.913 149.765 140.69 149.765 140.69C149.765 140.69 140.517 137.564 132.59 139.546C124.663 141.528 122.021 138.225 122.021 138.225C122.021 138.225 120.039 130.298 120.039 128.646V94.8758L129.617 90.6626Z" fill="#39BDE7"/>
<path d="M121.855 94.7912C121.855 94.7912 117.231 93.4701 114.919 96.773C112.607 100.076 111.286 100.076 111.286 104.37C111.286 104.37 97.7439 123.527 98.4045 125.509L95.2667 130.628L103.194 134.922C103.194 134.922 106.001 132.114 106.001 129.472C106.001 126.83 113.928 119.563 113.928 119.563C113.928 119.563 120.864 110.645 121.195 107.342C121.525 104.039 121.855 94.7912 121.855 94.7912Z" fill="#39BDE7"/>
<path d="M162.58 155.55H208.052C215.755 155.55 222 161.795 222 169.498V205.974C222 213.677 215.755 219.922 208.052 219.922H162.58C154.877 219.922 148.632 213.677 148.632 205.973V169.498C148.632 161.795 154.877 155.55 162.58 155.55Z" fill="white"/>
<path d="M147.972 205.643V169.168C147.972 161.295 154.377 154.89 162.25 154.89H207.721C215.595 154.89 222 161.295 222 169.168V205.643C222 213.517 215.595 219.922 207.721 219.922H162.25C154.377 219.922 147.972 213.517 147.972 205.643ZM162.25 155.55C154.741 155.55 148.632 161.659 148.632 169.168V205.643C148.632 213.152 154.741 219.261 162.25 219.261H207.721C215.23 219.261 221.339 213.152 221.339 205.643V169.168C221.339 161.659 215.23 155.55 207.721 155.55H162.25Z" fill="#E0E1FE"/>
<path d="M157.72 161.34C159.385 161.253 160.623 159.061 160.486 156.443C160.446 155.397 160.155 154.376 159.639 153.465L159.447 150.501L159.496 150.488L160.902 136.535C161.229 133.291 160.079 130.039 157.69 127.82C156.269 126.5 154.722 125.796 153.641 127.34C151.848 129.902 153.556 140.853 154.719 147.088L154.988 153.708C154.57 154.669 154.388 155.715 154.457 156.76C154.594 159.377 156.055 161.427 157.72 161.34Z" fill="#FFB6B6"/>
<path d="M148.999 95.3911C148.999 95.3911 153.797 95.7177 154.851 99.6093C155.904 103.501 157.147 103.949 155.69 107.988C155.69 107.988 161.926 130.604 160.632 132.244L161.846 138.125L152.933 139.473C152.933 139.473 151.245 135.88 152.141 133.394C153.038 130.909 148.048 121.383 148.048 121.383C148.048 121.383 144.55 110.641 145.36 107.422C146.171 104.203 148.999 95.3911 148.999 95.3911Z" fill="#39BDE7"/>
</svg>
