<svg width="176" height="176" viewBox="0 0 176 176" fill="none" xmlns="http://www.w3.org/2000/svg">
<path d="M87.925 175.85C136.485 175.85 175.85 136.485 175.85 87.9251C175.85 39.3654 136.485 0 87.925 0C39.3654 0 0 39.3654 0 87.9251C0 136.485 39.3654 175.85 87.925 175.85Z" fill="#E0E1FE"/>
<path d="M85.9895 97.0453C100.721 97.0453 112.664 85.1028 112.664 70.371C112.664 55.6391 100.721 43.6967 85.9895 43.6967C71.2577 43.6967 59.3152 55.6391 59.3152 70.371C59.3152 85.1028 71.2577 97.0453 85.9895 97.0453Z" fill="#9E616A"/>
<path d="M152.757 145.978C137.524 163.311 116.086 173.958 93.0712 175.621C70.0563 177.284 47.3104 169.83 29.7437 154.868L37.2852 133.825C38.9895 130.087 41.679 126.884 45.0653 124.559C48.4515 122.233 52.4069 120.874 56.5072 120.625L61.3049 120.331L72.7451 110.464C72.7451 110.464 103.57 109.363 103.113 108.836L121.784 120.067L121.769 119.99L129.109 120.439C133.21 120.686 137.165 122.046 140.552 124.371C143.938 126.697 146.628 129.9 148.331 133.639L152.757 145.978Z" fill="#39BDE7"/>
<path d="M61.753 82.7031C61.7004 82.5572 61.6527 82.4096 61.6009 82.2634C61.4982 82.3539 61.3998 82.4473 61.2885 82.5318L61.753 82.7031Z" fill="#1D3580"/>
<path d="M117.943 60.8815C117.806 58.1749 117.097 55.5281 115.863 53.1155C114.628 50.7028 112.897 48.5791 110.782 46.8845C109.227 45.6551 107.429 44.6169 106.4 42.9232C105.813 41.7241 105.315 40.4833 104.911 39.2109C102.863 34.3369 97.0274 31.7465 91.7926 32.4846C86.5577 33.2226 82.0273 36.7438 78.9758 41.061C77.4723 40.3405 75.7939 40.0661 74.1392 40.27C72.4845 40.4739 70.9229 41.1477 69.6393 42.2117C68.3557 43.2756 67.4039 44.685 66.8965 46.2731C66.3891 47.8612 66.3474 49.5615 66.7764 51.1725C64.0655 48.9887 59.6805 50.7355 57.9883 53.7777C56.2961 56.8198 56.5646 60.5422 57.0678 63.9868C57.9792 70.2123 59.4974 76.3337 61.6009 82.2635C64.2405 79.9391 64.0783 75.7061 63.7557 72.1278C63.4205 68.4104 63.6213 63.8717 66.872 62.0373C70.0127 60.265 73.8246 62.2107 77.2875 63.2171C80.0255 63.9926 82.8989 64.1651 85.71 63.723C88.521 63.2808 91.2028 62.2344 93.5705 60.6559C95.3744 59.4353 96.9804 57.9066 98.925 56.9256C100.87 55.9447 103.344 55.604 105.155 56.8148C106.808 57.9205 107.48 59.9829 108.043 61.8907C109.376 66.4122 110.71 70.9337 112.043 75.4552C114 73.5808 115.538 71.3128 116.555 68.8008C117.572 66.2888 118.045 63.5897 117.943 60.8815Z" fill="#1D3580"/>
</svg>
