<svg width="323" height="241" viewBox="0 0 323 241" fill="none" xmlns="http://www.w3.org/2000/svg">
<g clip-path="url(#clip0_1801_4360)">
<path d="M125.853 66.9022H0V0H125.853V66.9022Z" fill="white"/>
<path d="M125.703 0.450073H0.450562V16.3506H125.703V0.450073Z" fill="#E4E4E4"/>
<path d="M125.853 64.9022C125.853 66.0068 124.958 66.9022 123.853 66.9022H2C0.89543 66.9022 0 66.0068 0 64.9022V2C0 0.895433 0.895431 0 2 0H123.853C124.958 0 125.853 0.895431 125.853 2V64.9022ZM0.901093 64.0022C0.901093 65.1067 1.79652 66.0022 2.90109 66.0022H122.952C124.056 66.0022 124.952 65.1067 124.952 64.0022V2.90003C124.952 1.79546 124.056 0.900027 122.952 0.900027H2.90109C1.79652 0.900027 0.901093 1.79546 0.901093 2.90003V64.0022Z" fill="#CACACA"/>
<path d="M56.7785 29.6136C56.1834 29.6155 55.702 30.3873 55.7032 31.3375C55.7044 32.2851 56.1851 33.0527 56.7785 33.0546H107.574C108.169 33.0527 108.651 32.2809 108.65 31.3307C108.649 30.3832 108.168 29.6155 107.574 29.6136H56.7785Z" fill="#E4E4E4"/>
<path d="M56.7785 39.5834C56.1834 39.5853 55.702 40.3571 55.7032 41.3072C55.7044 42.2548 56.1851 43.0224 56.7785 43.0243H107.574C108.169 43.0224 108.651 42.2506 108.65 41.3004C108.649 40.3529 108.168 39.5852 107.574 39.5834H56.7785Z" fill="#E4E4E4"/>
<path d="M56.7785 49.4324C56.1834 49.4343 55.702 50.2061 55.7032 51.1562C55.7044 52.1038 56.1851 52.8715 56.7785 52.8733H78.6361C79.2311 52.8714 79.7125 52.0996 79.7114 51.1494C79.7102 50.2019 79.2294 49.4342 78.6361 49.4324H56.7785Z" fill="#E4E4E4"/>
<path d="M30.9872 54.8806C38.5999 54.8806 44.7711 48.7166 44.7711 41.113C44.7711 33.5093 38.5999 27.3453 30.9872 27.3453C23.3745 27.3453 17.2032 33.5093 17.2032 41.113C17.2032 48.7166 23.3745 54.8806 30.9872 54.8806Z" fill="#E4E4E4"/>
<path d="M275.735 66.9022H149.882V0H275.735V66.9022Z" fill="white"/>
<path d="M275.585 0.450073H150.333V16.3506H275.585V0.450073Z" fill="#E4E4E4"/>
<path d="M275.735 64.9022C275.735 66.0068 274.84 66.9022 273.735 66.9022H151.882C150.778 66.9022 149.882 66.0068 149.882 64.9022V2C149.882 0.895433 150.778 0 151.882 0H273.735C274.84 0 275.735 0.895431 275.735 2V64.9022ZM150.783 64.0022C150.783 65.1067 151.679 66.0022 152.783 66.0022H272.834C273.939 66.0022 274.834 65.1067 274.834 64.0022V2.90003C274.834 1.79546 273.939 0.900027 272.834 0.900027H152.783C151.679 0.900027 150.783 1.79546 150.783 2.90003V64.0022Z" fill="#CACACA"/>
<path d="M206.661 29.6136C206.066 29.6155 205.584 30.3873 205.585 31.3375C205.587 32.2851 206.067 33.0527 206.661 33.0546H257.457C258.052 33.0527 258.533 32.2809 258.532 31.3307C258.531 30.3832 258.05 29.6155 257.457 29.6136H206.661Z" fill="#E4E4E4"/>
<path d="M206.661 39.5834C206.066 39.5853 205.584 40.3571 205.585 41.3072C205.587 42.2548 206.067 43.0224 206.661 43.0243H257.457C258.052 43.0224 258.533 42.2506 258.532 41.3004C258.531 40.3529 258.05 39.5852 257.457 39.5834H206.661Z" fill="#E4E4E4"/>
<path d="M206.661 49.4324C206.066 49.4343 205.584 50.2061 205.585 51.1562C205.587 52.1038 206.067 52.8715 206.661 52.8733H228.518C229.113 52.8714 229.595 52.0996 229.594 51.1494C229.592 50.2019 229.112 49.4342 228.518 49.4324H206.661Z" fill="#E4E4E4"/>
<path d="M180.869 54.8806C188.482 54.8806 194.653 48.7166 194.653 41.113C194.653 33.5093 188.482 27.3453 180.869 27.3453C173.257 27.3453 167.085 33.5093 167.085 41.113C167.085 48.7166 173.257 54.8806 180.869 54.8806Z" fill="#E4E4E4"/>
<path d="M217.598 132.474H58.1368V47.7058H217.598V132.474Z" fill="white"/>
<path d="M217.229 130.005C217.229 131.662 215.886 133.005 214.229 133.005H61.0035C59.3467 133.005 58.0035 131.662 58.0035 130.005V50.7452C58.0035 49.0884 59.3467 47.7452 61.0035 47.7452H214.229C215.886 47.7452 217.229 49.0884 217.229 50.7452V130.005ZM59.1436 128.858C59.1436 130.515 60.4867 131.858 62.1436 131.858H213.089C214.746 131.858 216.089 130.515 216.089 128.858V51.8922C216.089 50.2354 214.746 48.8922 213.089 48.8922H62.1436C60.4867 48.8922 59.1436 50.2354 59.1436 51.8922V128.858Z" fill="#E0E1FE"/>
<path d="M215.229 47.7452H60.0035C58.899 47.7452 58.0035 48.6407 58.0035 49.7452V66.2075C58.0035 67.3121 58.899 68.2075 60.0035 68.2075H215.229C216.333 68.2075 217.229 67.3121 217.229 66.2075V49.7452C217.229 48.6407 216.333 47.7452 215.229 47.7452Z" fill="#9DA1FF"/>
<path d="M130.078 85.2277C129.324 85.23 128.714 86.208 128.715 87.4119C128.717 88.6125 129.326 89.5851 130.078 89.5875H194.439C195.193 89.5851 195.803 88.6072 195.801 87.4033C195.8 86.2027 195.19 85.23 194.439 85.2277H130.078Z" fill="#E4E4E4"/>
<path d="M130.078 97.8597C129.324 97.8621 128.714 98.8401 128.715 100.044C128.717 101.245 129.326 102.217 130.078 102.22H194.439C195.193 102.217 195.803 101.239 195.801 100.035C195.8 98.8348 195.19 97.8621 194.439 97.8597H130.078Z" fill="#E4E4E4"/>
<path d="M130.078 110.339C129.324 110.341 128.714 111.319 128.715 112.523C128.717 113.724 129.326 114.696 130.078 114.699H157.772C158.526 114.696 159.136 113.719 159.135 112.515C159.133 111.314 158.524 110.341 157.772 110.339H130.078Z" fill="#E4E4E4"/>
<path d="M97.399 117.242C107.045 117.242 114.864 109.432 114.864 99.7979C114.864 90.1637 107.045 82.3536 97.399 82.3536C87.7534 82.3536 79.9341 90.1637 79.9341 99.7979C79.9341 109.432 87.7534 117.242 97.399 117.242Z" fill="#39BDE7"/>
<path d="M285.947 230.765L281.685 232.661L272.333 217.144L278.623 214.345L285.947 230.765Z" fill="#FFB6B6"/>
<path d="M288.874 234.407L275.132 240.522L275.054 240.349C274.422 238.932 274.38 237.322 274.936 235.874C275.492 234.426 276.602 233.257 278.02 232.626L278.02 232.626L286.414 228.891L288.874 234.407Z" fill="#1D3580"/>
<path d="M264.468 143.939C264.899 143.525 265.233 143.022 265.448 142.465C265.663 141.908 265.752 141.31 265.711 140.715C265.67 140.119 265.498 139.54 265.208 139.018C264.918 138.496 264.517 138.043 264.034 137.693L259.518 100.774L252.477 102.506L258.119 138.814C257.583 139.664 257.378 140.682 257.543 141.673C257.708 142.665 258.231 143.562 259.014 144.193C259.797 144.825 260.784 145.148 261.789 145.101C262.795 145.055 263.748 144.641 264.468 143.939Z" fill="#FFB6B6"/>
<path d="M262.059 106.721C261.739 107.009 261.336 107.187 260.908 107.23L251.696 108.157C251.406 108.187 251.114 108.153 250.839 108.059C250.564 107.966 250.312 107.814 250.101 107.614C249.89 107.414 249.725 107.171 249.616 106.902C249.507 106.632 249.458 106.343 249.472 106.053L249.902 96.8431C249.834 96.1621 249.902 95.4745 250.103 94.8201C250.303 94.1657 250.632 93.5576 251.07 93.0313C251.731 92.2237 252.617 91.63 253.616 91.3253C254.615 91.0207 255.682 91.0186 256.682 91.3195C257.683 91.6204 258.571 92.2107 259.235 93.0157C259.9 93.8208 260.31 94.8045 260.415 95.8425L262.666 104.724C262.757 105.081 262.748 105.455 262.641 105.807C262.534 106.159 262.333 106.475 262.059 106.721Z" fill="#39BDE7"/>
<path d="M256.321 130.226L230.708 125.141L230.537 121.569L230.541 121.546L233.302 103.225C232.931 102.452 229.646 95.2268 234.418 91.1762C235.543 90.2183 236.581 89.1629 237.521 88.0225C239.009 86.162 240.928 84.6899 243.111 83.7326C245.294 82.7754 247.678 82.3615 250.056 82.5265C251.53 82.6461 252.961 83.0829 254.25 83.8069C255.539 84.531 256.656 85.5251 257.524 86.721C259.42 89.2626 260.278 92.4294 259.923 95.5793L256.321 130.226Z" fill="#39BDE7"/>
<path d="M230.472 236.005L225.807 236.005L223.587 218.029L230.473 218.03L230.472 236.005Z" fill="#FFB6B6"/>
<path d="M231.662 240.522L216.618 240.522V240.332C216.618 238.781 217.235 237.293 218.333 236.196C219.431 235.099 220.92 234.483 222.473 234.483L231.662 234.484L231.662 240.522Z" fill="#1D3580"/>
<path d="M223.307 229.026L222.293 154.174C221.961 142.99 224.892 131.951 230.728 122.401C230.728 122.401 253.373 122.211 256.988 130.003L284.009 223.894L276.397 227.315L244.048 156.992L232.441 229.406L223.307 229.026Z" fill="#1D3580"/>
<path d="M219.608 103.599C219.768 103.772 219.915 103.958 220.046 104.155L241.243 104.178L243.83 99.7302L251.06 102.752L247.247 111.07C246.939 111.742 246.421 112.296 245.771 112.649C245.121 113.002 244.373 113.135 243.641 113.027L219.781 109.528C219.198 110.228 218.416 110.734 217.539 110.978C216.661 111.223 215.73 111.195 214.868 110.898C214.007 110.601 213.257 110.049 212.717 109.316C212.178 108.582 211.874 107.702 211.848 106.793C211.821 105.883 212.072 104.987 212.568 104.223C213.064 103.46 213.781 102.865 214.623 102.518C215.465 102.172 216.394 102.089 217.284 102.282C218.174 102.475 218.985 102.934 219.608 103.599Z" fill="#FFB6B6"/>
<path d="M239.291 104.641L242.379 88.8071C242.701 87.1551 243.626 85.6812 244.973 84.6704C246.32 83.6596 247.995 83.1838 249.673 83.335C250.701 83.4276 251.694 83.7525 252.578 84.2851C253.462 84.8177 254.213 85.5441 254.774 86.4092C255.336 87.2744 255.693 88.2557 255.818 89.279C255.944 90.3023 255.835 91.3407 255.5 92.3158L250.674 106.351L239.291 104.641Z" fill="#39BDE7"/>
<path d="M250.054 78.8515C255.216 78.8515 259.401 74.6715 259.401 69.5152C259.401 64.359 255.216 60.179 250.054 60.179C244.891 60.179 240.706 64.359 240.706 69.5152C240.706 74.6715 244.891 78.8515 250.054 78.8515Z" fill="#FFB6B6"/>
<path d="M238.72 64.2414H253.563V57.7792C250.305 56.4865 247.117 55.3871 245.19 57.7792C243.474 57.7792 241.829 58.4601 240.615 59.672C239.402 60.8838 238.72 62.5275 238.72 64.2414Z" fill="#1D3580"/>
<path d="M254.385 56.6388C263.258 56.6388 265.741 67.7477 265.741 74.0149C265.741 77.51 264.159 78.76 261.672 79.183L260.794 74.5047L258.737 79.3843C258.038 79.3878 257.305 79.3743 256.544 79.3602L255.846 77.9259L254.291 79.3345C248.062 79.3437 243.028 80.2506 243.028 74.0149C243.028 67.7477 245.206 56.6388 254.385 56.6388Z" fill="#1D3580"/>
<path d="M322.619 241H177.62C177.519 241 177.422 240.96 177.351 240.889C177.279 240.817 177.239 240.721 177.239 240.62C177.239 240.519 177.279 240.422 177.351 240.351C177.422 240.28 177.519 240.24 177.62 240.24H322.619C322.72 240.24 322.817 240.28 322.888 240.351C322.96 240.422 323 240.519 323 240.62C323 240.721 322.96 240.817 322.888 240.889C322.817 240.96 322.72 241 322.619 241Z" fill="#CACACA"/>
</g>
<defs>
<clipPath id="clip0_1801_4360">
<rect width="323" height="241" fill="white"/>
</clipPath>
</defs>
</svg>
