<svg width="205" height="182" viewBox="0 0 205 182" fill="none" xmlns="http://www.w3.org/2000/svg">
<g clip-path="url(#clip0_1485_3946)">
<path d="M178.131 109.029H5.61574C4.22422 109.028 2.89015 108.471 1.90619 107.482C0.922235 106.493 0.368759 105.151 0.367188 103.752V5.94922H183.38V103.752C183.378 105.151 182.825 106.493 181.841 107.482C180.857 108.471 179.523 109.028 178.131 109.029Z" fill="#E0E1FE"/>
<path d="M171.266 98.9281H12.4811C11.7643 98.9273 11.077 98.6406 10.5702 98.131C10.0633 97.6213 9.77815 96.9303 9.77734 96.2096V18.7687C9.77815 18.0479 10.0633 17.357 10.5702 16.8473C11.077 16.3377 11.7643 16.051 12.4811 16.0502H171.266C171.983 16.051 172.67 16.3376 173.177 16.8473C173.684 17.3569 173.969 18.0479 173.97 18.7687V96.2096C173.969 96.9303 173.684 97.6213 173.177 98.131C172.67 98.6406 171.983 98.9273 171.266 98.9281Z" fill="white"/>
<path d="M183.747 9.51406H0V5.27714C0.00157186 3.87804 0.555048 2.5367 1.539 1.54738C2.52296 0.558071 3.85704 0.00158042 5.24856 0H178.498C179.89 0.00158042 181.224 0.558071 182.208 1.54738C183.192 2.5367 183.745 3.87804 183.747 5.27714V9.51406Z" fill="#9DA1FF"/>
<path d="M50.0399 69.2774H21.7786C21.0618 69.2766 20.3745 68.9899 19.8676 68.4802C19.3608 67.9706 19.0756 67.2796 19.0748 66.5588V47.8788C19.0756 47.1581 19.3608 46.4671 19.8676 45.9574C20.3745 45.4478 21.0618 45.1611 21.7786 45.1603H50.0399C50.7567 45.1611 51.444 45.4478 51.9509 45.9574C52.4577 46.4671 52.7429 47.1581 52.7437 47.8788V66.5588C52.7429 67.2796 52.4577 67.9706 51.9509 68.4802C51.444 68.9899 50.7567 69.2766 50.0399 69.2774Z" fill="#39BDE7"/>
<path d="M163.168 48.1844H73.8744C73.4755 48.1844 73.093 48.0251 72.811 47.7415C72.5289 47.458 72.3705 47.0734 72.3705 46.6723C72.3705 46.2713 72.5289 45.8867 72.811 45.6032C73.093 45.3196 73.4755 45.1603 73.8744 45.1603H163.168C163.567 45.1603 163.95 45.3196 164.232 45.6032C164.514 45.8867 164.672 46.2713 164.672 46.6723C164.672 47.0734 164.514 47.458 164.232 47.7415C163.95 48.0251 163.567 48.1844 163.168 48.1844Z" fill="#E5E5E5"/>
<path d="M163.168 59.0012H73.8744C73.4756 59.0012 73.0931 58.8419 72.8111 58.5583C72.529 58.2748 72.3706 57.8902 72.3706 57.4892C72.3706 57.0882 72.529 56.7036 72.8111 56.42C73.0931 56.1365 73.4756 55.9772 73.8744 55.9772H163.168C163.567 55.9772 163.95 56.1365 164.232 56.42C164.514 56.7036 164.672 57.0882 164.672 57.4892C164.672 57.8902 164.514 58.2748 164.232 58.5583C163.95 58.8419 163.567 59.0012 163.168 59.0012Z" fill="#E5E5E5"/>
<path d="M163.168 69.8181H73.8744C73.4755 69.8181 73.093 69.6588 72.811 69.3752C72.5289 69.0916 72.3705 68.707 72.3705 68.306C72.3705 67.905 72.5289 67.5204 72.811 67.2368C73.093 66.9533 73.4755 66.7939 73.8744 66.7939H163.168C163.567 66.7939 163.95 66.9533 164.232 67.2368C164.514 67.5204 164.672 67.905 164.672 68.306C164.672 68.707 164.514 69.0916 164.232 69.3752C163.95 69.6588 163.567 69.8181 163.168 69.8181Z" fill="#E5E5E5"/>
<path d="M133.456 177.923H129.556L127.701 162.799H133.457L133.456 177.923Z" fill="#A0616A"/>
<path d="M126.77 176.803H134.291V181.564H122.035C122.035 180.939 122.158 180.319 122.396 179.742C122.633 179.164 122.982 178.639 123.422 178.197C123.862 177.755 124.384 177.404 124.958 177.165C125.533 176.926 126.149 176.803 126.77 176.803Z" fill="#1D3580"/>
<path d="M149.679 177.923H145.779L143.924 162.799H149.679L149.679 177.923Z" fill="#A0616A"/>
<path d="M142.993 176.803H150.514V181.564H138.258C138.258 180.939 138.38 180.319 138.618 179.742C138.856 179.164 139.205 178.639 139.645 178.197C140.085 177.755 140.607 177.404 141.181 177.165C141.756 176.926 142.371 176.803 142.993 176.803Z" fill="#1D3580"/>
<path d="M149.182 174.447H145.212C144.854 174.445 144.509 174.309 144.245 174.065C143.981 173.82 143.817 173.486 143.786 173.127L140.422 132.382C140.412 132.263 140.359 132.153 140.272 132.071C140.186 131.99 140.073 131.944 139.955 131.942C139.836 131.94 139.722 131.982 139.633 132.06C139.543 132.138 139.486 132.247 139.472 132.365L134.641 173.178C134.599 173.528 134.432 173.85 134.17 174.084C133.908 174.318 133.57 174.447 133.219 174.447H128.345C127.967 174.447 127.604 174.296 127.336 174.028C127.068 173.76 126.917 173.396 126.914 173.016C126.904 170.452 126.886 167.87 126.869 165.287C126.714 142.285 126.554 118.499 131.331 109.181L131.375 109.096L148.613 108.799L148.656 108.895C153.872 120.354 152.289 145.955 150.758 170.712L150.611 173.097C150.587 173.463 150.427 173.805 150.162 174.056C149.896 174.307 149.546 174.447 149.182 174.447Z" fill="#1D3580"/>
<path d="M141.016 78.1736C145.33 78.1736 148.828 74.6566 148.828 70.3183C148.828 65.9799 145.33 62.463 141.016 62.463C136.701 62.463 133.203 65.9799 133.203 70.3183C133.203 74.6566 136.701 78.1736 141.016 78.1736Z" fill="#A0616A"/>
<path d="M130.364 110.54L130.579 101.533L129.03 94.506C128.638 92.766 128.661 90.9576 129.096 89.2281C129.532 87.4986 130.367 85.897 131.535 84.5536C132.671 83.217 134.105 82.1693 135.72 81.4959C137.335 80.8225 139.086 80.5425 140.829 80.6788C140.942 80.6876 141.055 80.6971 141.168 80.7073C142.657 80.8421 144.105 81.2771 145.423 81.9863C146.742 82.6955 147.905 83.6644 148.844 84.8353C149.802 86.0128 150.514 87.3721 150.938 88.8323C151.363 90.2925 151.49 91.8237 151.313 93.3345L149.439 109.811L130.364 110.54Z" fill="#39BDE7"/>
<path d="M123.727 126.681C124.096 126.392 124.397 126.025 124.609 125.606C124.821 125.187 124.94 124.726 124.956 124.256C124.972 123.786 124.885 123.319 124.702 122.886C124.519 122.453 124.243 122.067 123.895 121.753L128.294 111.214L122.488 112.31L119.201 122.15C118.716 122.773 118.474 123.553 118.522 124.343C118.57 125.133 118.905 125.878 119.463 126.437C120.021 126.995 120.763 127.329 121.549 127.374C122.335 127.419 123.11 127.172 123.727 126.681Z" fill="#A0616A"/>
<path d="M156.919 127.944C156.567 127.634 156.287 127.251 156.099 126.82C155.911 126.39 155.819 125.923 155.829 125.453C155.84 124.983 155.953 124.521 156.161 124.1C156.368 123.678 156.665 123.308 157.03 123.014L153.235 112.241L158.969 113.668L161.694 123.679C162.144 124.329 162.341 125.122 162.248 125.908C162.155 126.694 161.779 127.419 161.19 127.944C160.602 128.47 159.842 128.76 159.054 128.76C158.267 128.76 157.507 128.47 156.919 127.944Z" fill="#A0616A"/>
<path d="M124.426 121.517C124.224 121.517 124.025 121.474 123.841 121.392L120.494 119.884C120.172 119.74 119.915 119.481 119.771 119.157C119.628 118.833 119.608 118.467 119.717 118.13L125.33 100.597L127.5 87.3884C127.577 86.9191 127.747 86.4701 128 86.0683C128.253 85.6664 128.584 85.3199 128.974 85.0493C129.363 84.7787 129.802 84.5895 130.265 84.4931C130.728 84.3967 131.206 84.3949 131.67 84.4879C132.134 84.5809 132.575 84.7668 132.966 85.0346C133.357 85.3023 133.691 85.6463 133.947 86.0463C134.203 86.4463 134.376 86.8939 134.457 87.3627C134.537 87.8314 134.523 88.3117 134.416 88.7748L131.118 102.941L125.795 120.498C125.706 120.793 125.524 121.051 125.278 121.235C125.031 121.418 124.733 121.517 124.426 121.517Z" fill="#39BDE7"/>
<path d="M156.35 121.517C156.044 121.517 155.745 121.418 155.498 121.235C155.252 121.051 155.07 120.793 154.981 120.498L149.661 102.951L146.361 88.7748C146.253 88.3116 146.239 87.8314 146.319 87.3626C146.4 86.8939 146.573 86.4462 146.829 86.0462C147.086 85.6463 147.419 85.3022 147.81 85.0344C148.201 84.7667 148.642 84.5808 149.106 84.4878C149.57 84.3948 150.048 84.3965 150.511 84.493C150.974 84.5894 151.414 84.7786 151.803 85.0492C152.192 85.3198 152.523 85.6664 152.776 86.0682C153.029 86.4701 153.199 86.919 153.276 87.3884L155.451 100.62L161.06 118.13C161.168 118.467 161.149 118.833 161.005 119.157C160.861 119.481 160.604 119.74 160.282 119.884L156.935 121.392C156.751 121.474 156.552 121.517 156.35 121.517Z" fill="#39BDE7"/>
<path d="M141.176 61.6353C139.005 60.6896 136.168 61.8663 135.292 64.0763C134.747 65.4517 134.913 67.003 135.214 68.4526C135.515 69.9021 135.943 71.3486 135.897 72.8285C135.851 74.3085 135.217 75.8793 133.911 76.5639C133.131 76.973 132.218 77.0185 131.373 77.2625C130.527 77.5065 129.654 78.077 129.532 78.9532C129.348 80.2787 130.947 81.2883 130.936 82.6267C130.925 84.0447 129.162 84.8869 128.934 86.2862C128.895 86.696 128.959 87.109 129.122 87.4867C129.285 87.8643 129.541 88.1941 129.866 88.4451C130.52 88.9394 131.264 89.3013 132.055 89.511C138.146 91.4684 144.632 91.8399 150.904 90.5908C152.151 90.3408 153.433 90.0028 154.402 89.1753C155.37 88.3478 155.924 86.8993 155.368 85.7505C154.533 84.0283 151.883 83.9302 150.96 82.2545C150.406 81.2493 150.661 80.0153 150.778 78.8722C151.079 75.92 151.774 72.4712 151.044 69.5956C150.385 66.9975 148.954 63.6403 146.909 61.9197C145.442 60.6851 142.64 61.2476 140.764 61.6285L141.176 61.6353Z" fill="#1D3580"/>
<path d="M204.682 182H93.3489C93.2645 182 93.1836 181.966 93.1239 181.906C93.0643 181.846 93.0308 181.765 93.0308 181.68C93.0308 181.595 93.0643 181.514 93.1239 181.454C93.1836 181.394 93.2645 181.36 93.3489 181.36H204.682C204.766 181.36 204.847 181.394 204.907 181.454C204.966 181.514 205 181.595 205 181.68C205 181.765 204.966 181.846 204.907 181.906C204.847 181.966 204.766 182 204.682 182Z" fill="#E5E5E5"/>
<path d="M192.959 174.717C188.372 180.893 178.851 181.543 178.851 181.543C178.851 181.543 176.766 172.18 181.353 166.004C185.94 159.827 195.461 159.177 195.461 159.177C195.461 159.177 197.546 168.541 192.959 174.717Z" fill="#E5E5E5"/>
<path d="M169.593 177.039C172.619 181.114 178.902 181.543 178.902 181.543C178.902 181.543 180.278 175.365 177.251 171.289C174.224 167.214 167.942 166.785 167.942 166.785C167.942 166.785 166.566 172.963 169.593 177.039Z" fill="#E5E5E5"/>
</g>
<defs>
<clipPath id="clip0_1485_3946">
<rect width="205" height="182" fill="white"/>
</clipPath>
</defs>
</svg>
