<svg width="70" height="74" viewBox="0 0 70 74" fill="none" xmlns="http://www.w3.org/2000/svg">
<path d="M8.97412 41.6282L61 3" stroke="#1D3580"/>
<path d="M8.69399 44.5917C10.3403 44.5917 11.6749 43.2572 11.6749 41.6109C11.6749 39.9646 10.3403 38.63 8.69399 38.63C7.04771 38.63 5.71313 39.9646 5.71313 41.6109C5.71313 43.2572 7.04771 44.5917 8.69399 44.5917Z" fill="#314EA7"/>
<path d="M34.9809 24.9617C36.6271 24.9617 37.9617 23.6271 37.9617 21.9809C37.9617 20.3346 36.6271 19 34.9809 19C33.3346 19 32 20.3346 32 21.9809C32 23.6271 33.3346 24.9617 34.9809 24.9617Z" fill="#314EA7"/>
<path d="M60.9806 5.96172C62.6269 5.96172 63.9615 4.62715 63.9615 2.98086C63.9615 1.33458 62.6269 0 60.9806 0C59.3343 0 57.9998 1.33458 57.9998 2.98086C57.9998 4.62715 59.3343 5.96172 60.9806 5.96172Z" fill="#314EA7"/>
<rect y="50.1538" width="17.9487" height="23.3333" rx="2" fill="#64D3BF"/>
<rect x="52.0513" y="11.5641" width="17.9487" height="61.9231" rx="2" fill="#64D3BF"/>
<rect x="26.0256" y="32.2051" width="17.9487" height="41.2821" rx="2" fill="#39BDE7"/>
</svg>
