<svg width="41" height="41" viewBox="0 0 41 41" fill="none" xmlns="http://www.w3.org/2000/svg">
<path fill-rule="evenodd" clip-rule="evenodd" d="M3.48989 24.7809C5.65051 23.1824 8.57131 23.1899 10.7858 24.4195C11.5274 24.8314 12.1778 25.3632 12.7877 25.8746C13.4086 26.3952 13.9848 26.892 14.6217 27.2955C15.3155 27.7349 16.079 28.0622 16.8864 28.3717C17.679 28.6755 18.5416 28.9721 19.3541 29.3326C20.9876 30.0576 22.7258 31.2592 23.3034 33.1393C23.9383 35.2082 22.8977 37.466 21.2643 38.7203C19.6287 39.976 17.5126 40.3685 15.5446 40.3219C12.7747 40.2562 10.0304 39.3717 7.74379 37.8072C5.45733 36.2426 3.63926 34.0049 2.57485 31.4469C2.13855 30.3985 1.80368 29.2273 1.87172 28.0211C1.93979 26.8143 2.45623 25.5456 3.48989 24.7809ZM10.3004 25.2945C8.38602 24.2315 5.89264 24.248 4.08461 25.5856C3.34866 26.1302 2.92566 27.0867 2.86977 28.0778C2.81391 29.0692 3.08826 30.0793 3.4977 31.0631C4.48781 33.4425 6.18232 35.5267 8.30922 36.9821C10.436 38.4371 12.9917 39.2607 15.568 39.3219C17.41 39.3655 19.2675 38.9915 20.6549 37.9264C22.044 36.8597 22.8312 35.0075 22.3483 33.4332C21.9015 31.9783 20.5042 30.937 18.9489 30.2467C18.1671 29.8998 17.3675 29.6267 16.5289 29.3053C15.7052 28.9895 14.8663 28.6341 14.0866 28.1403C13.3804 27.6929 12.7459 27.1449 12.1452 26.6412C11.5335 26.1284 10.9487 25.6547 10.3004 25.2945ZM7.09145 27.0553C7.3674 27.0613 7.58651 27.2901 7.58071 27.566C7.57462 27.8419 7.3459 28.0612 7.06996 28.0553C6.90963 28.0519 6.73676 28.129 6.58364 28.2994C6.42915 28.4715 6.32625 28.7076 6.30727 28.9342C6.26491 29.4427 6.49274 29.9768 6.82973 30.5494C8.77642 33.8574 12.478 36.0735 16.3131 36.2262C17.1491 36.2595 17.902 36.1662 18.4059 35.7487C18.7157 35.4917 18.9028 35.0795 18.9254 34.6334C18.9479 34.1874 18.8033 33.7592 18.5211 33.4723C18.3275 33.2755 18.3304 32.959 18.527 32.7653C18.7238 32.5717 19.0404 32.5743 19.234 32.7711C19.7438 33.2894 19.9578 34.0064 19.9235 34.6842C19.8913 35.3196 19.6387 35.9674 19.1461 36.4283L19.0446 36.5182C18.2339 37.1903 17.1434 37.2599 16.2731 37.2252C12.0981 37.0589 8.08663 34.6583 5.96743 31.0572C5.61729 30.4623 5.24081 29.692 5.31118 28.8502C5.34879 28.4019 5.54326 27.9623 5.84047 27.6315C6.13945 27.2988 6.57423 27.0443 7.09145 27.0553ZM25.9528 10.7828C26.7765 10.8314 27.5949 11.0823 28.278 11.3805C29.6703 11.9883 30.7936 13.0341 31.7838 14.0563C32.7934 15.0985 33.688 16.1242 34.7897 16.9147C35.1893 17.2014 35.6238 17.4636 36.0778 17.7291C36.5257 17.991 37.0003 18.26 37.4498 18.5475C38.3506 19.1235 39.2264 19.8178 39.778 20.8395C40.8306 22.7895 40.2042 25.3076 38.6813 26.8014C37.1555 28.2977 34.9168 28.8398 32.8649 28.6315C30.8132 28.4232 28.9106 27.5355 27.2282 26.4694C25.5747 25.4216 24.0148 24.1333 22.8454 22.5094C21.6755 20.885 20.9092 18.8967 20.944 16.8502C20.9789 14.8046 21.8731 12.7154 23.5348 11.443C24.2599 10.8878 25.1268 10.7342 25.9528 10.7828ZM25.8942 11.7809C25.226 11.7415 24.6214 11.871 24.1432 12.2369C22.7601 13.2961 21.9746 15.078 21.944 16.8668C21.9135 18.6549 22.5855 20.4367 23.6569 21.9244C24.7282 23.4123 26.1776 24.6197 27.7633 25.6246C29.3805 26.6494 31.1307 27.45 32.9655 27.6363C34.8001 27.8227 36.7177 27.3265 37.9811 26.0875C39.2469 24.8459 39.7009 22.8026 38.8981 21.3151C38.468 20.5182 37.7643 19.9361 36.9108 19.3903C36.4833 19.1169 36.0363 18.8634 35.5729 18.5924C35.1155 18.3249 34.6467 18.0429 34.2067 17.7272C33.0099 16.8684 32.0249 15.7414 31.0661 14.7516C30.0876 13.7415 29.0791 12.8206 27.8786 12.2965C27.2651 12.0287 26.5648 11.8204 25.8942 11.7809ZM26.1754 19.8942C26.4127 19.7529 26.7197 19.8307 26.861 20.068C28.0804 22.1161 30.0713 23.697 32.3424 24.4205C33.3133 24.7297 34.2955 24.8474 35.112 24.5133C35.4985 24.355 35.8462 24.0515 36.0622 23.6881C36.277 23.3263 36.3433 22.9406 36.2389 22.5973C36.1585 22.3333 36.3071 22.0539 36.5709 21.9733C36.8351 21.8928 37.1145 22.0421 37.195 22.3063C37.3987 22.9758 37.2473 23.652 36.9225 24.1988C36.5987 24.744 36.0841 25.1962 35.4909 25.4391C34.3478 25.9069 33.0867 25.7071 32.0397 25.3737C29.5354 24.576 27.3462 22.838 26.0016 20.5797C25.8604 20.3425 25.9384 20.0355 26.1754 19.8942ZM10.5582 1.28381C12.4292 -0.0485239 14.9662 -0.372644 17.112 0.446894C18.5366 0.991253 19.9872 2.55481 20.402 4.48498C20.8133 6.39973 20.3448 8.39655 19.4547 10.068C18.5651 11.7382 17.2689 13.1343 15.9293 14.3815C13.4503 16.6896 10.3704 18.8139 6.84047 19.0055C5.3523 19.0861 3.78573 18.8006 2.48305 17.9772C1.18126 17.1542 0.174151 15.7556 0.0211363 14.1695C-0.178733 12.0954 1.06971 10.2124 2.46254 8.90295C3.16006 8.24726 3.92558 7.67211 4.65493 7.11291C5.39242 6.54747 6.09748 5.99531 6.72231 5.36389C7.35079 4.72872 7.89159 4.02206 8.50258 3.29162C9.10121 2.57597 9.75355 1.85687 10.5582 1.28381ZM16.7545 1.38049C14.9215 0.680531 12.7366 0.96015 11.1383 2.09826C10.442 2.59415 9.85619 3.23146 9.26918 3.93322C8.69448 4.62029 8.10087 5.39227 7.43325 6.06701C6.7546 6.75282 5.99855 7.34217 5.26332 7.90588C4.61272 8.4047 3.98041 8.88222 3.39516 9.4049L3.14711 9.63146C1.83981 10.8605 0.860884 12.4579 1.01625 14.0729C1.13458 15.3002 1.93002 16.4441 3.01723 17.1315V17.1324C4.10378 17.8193 5.45139 18.0796 6.78578 18.0074C9.95544 17.8355 12.8163 15.9138 15.2477 13.65C16.5579 12.4302 17.7595 11.1234 18.5719 9.59826C19.3835 8.07442 19.7725 6.31968 19.4235 4.69494C19.0776 3.08598 17.8541 1.80047 16.7545 1.38049ZM26.8766 14.2213C27.1523 14.2243 27.3732 14.4505 27.3707 14.7262C27.3679 15.0023 27.142 15.2242 26.8659 15.2213C26.4887 15.2174 26.1079 15.379 25.8424 15.6481L25.736 15.7701C25.473 16.1116 25.3795 16.5871 25.4938 17.0026C25.5669 17.2686 25.4111 17.5433 25.1452 17.6168C24.8791 17.6901 24.6034 17.5342 24.5299 17.2682C24.3323 16.5499 24.4894 15.75 24.944 15.1598C25.3987 14.5698 26.1317 14.2136 26.8766 14.2213ZM14.3483 3.8424C15.5946 3.98347 16.3742 5.20052 16.4528 6.28869C16.5315 7.37957 16.0699 8.39593 15.5914 9.22521C14.1222 11.772 11.8623 13.8532 9.20375 15.109C8.42652 15.476 7.52284 15.8129 6.56411 15.7838C5.60451 15.7545 4.53991 15.2944 4.04262 14.3473C3.6443 13.5886 3.70328 12.6844 4.02309 11.9615C4.34331 11.2384 4.90413 10.6737 5.49672 10.2506C5.72133 10.0904 6.03348 10.1425 6.19399 10.3668C6.35443 10.5916 6.30253 10.9046 6.07778 11.0651C5.5756 11.4236 5.16252 11.8601 4.93813 12.3668C4.71371 12.8741 4.70134 13.4501 4.92836 13.8824C5.21006 14.4188 5.87905 14.7618 6.59438 14.7838C7.3107 14.8056 8.03788 14.5533 8.77602 14.2047C11.2507 13.0359 13.3577 11.0958 14.7252 8.72521L14.8903 8.42736C15.2589 7.73378 15.5047 7.04086 15.4557 6.36096C15.3994 5.58083 14.8509 4.90614 14.236 4.83654C13.962 4.80525 13.7647 4.55693 13.7956 4.28283C13.8268 4.00889 14.0743 3.81179 14.3483 3.8424Z" fill="currentColor"/>
</svg>
