<svg width="37" height="36" viewBox="0 0 37 36" fill="none" xmlns="http://www.w3.org/2000/svg">
<path fill-rule="evenodd" clip-rule="evenodd" d="M15.2413 4.01951C15.2413 5.96336 16.7004 7.53901 18.5002 7.53901C20.3001 7.53901 21.759 5.96336 21.759 4.01951C21.759 2.07566 20.3001 0.5 18.5002 0.5C16.7004 0.5 15.2413 2.07566 15.2413 4.01951Z" stroke="currentColor" stroke-miterlimit="2" stroke-linecap="round" stroke-linejoin="round"/>
<path d="M14.0993 23.8228H13.3514C11.9415 23.8228 10.7982 22.6804 10.7982 21.2708V13.4938C10.7982 11.3536 12.534 9.61877 14.6751 9.61877H22.3255C24.4665 9.61877 26.2023 11.3536 26.2023 13.4938V21.2708C26.2023 22.6804 25.0593 23.8228 23.6491 23.8228H22.9385" stroke="currentColor" stroke-miterlimit="2" stroke-linecap="round" stroke-linejoin="round"/>
<path d="M14.0994 14.3315V25.1784L14.6645 34.8165" stroke="currentColor" stroke-miterlimit="2" stroke-linecap="round" stroke-linejoin="round"/>
<path d="M22.9023 14.3315V25.1784L22.3372 34.8165" stroke="currentColor" stroke-miterlimit="2" stroke-linecap="round" stroke-linejoin="round"/>
<path d="M18.4995 25.1783V34.8164" stroke="currentColor" stroke-miterlimit="2" stroke-linecap="round" stroke-linejoin="round"/>
<path fill-rule="evenodd" clip-rule="evenodd" d="M4.69531 5.75868C4.69531 7.59391 6.07276 9.08161 7.77217 9.08161C9.47158 9.08161 10.8492 7.59391 10.8492 5.75868C10.8492 3.92304 9.47158 2.43555 7.77217 2.43555C6.07276 2.43555 4.69531 3.92304 4.69531 5.75868Z" stroke="currentColor" stroke-miterlimit="2" stroke-linecap="round" stroke-linejoin="round"/>
<path d="M3.42671 24.4571H2.91083C1.5792 24.4571 0.5 23.3783 0.5 22.0473V14.7043C0.5 12.6834 2.13886 11.0451 4.16084 11.0451H9.10382" stroke="currentColor" stroke-miterlimit="2" stroke-linecap="round" stroke-linejoin="round"/>
<path d="M3.6167 15.4951V25.7368L4.15037 34.8369" stroke="currentColor" stroke-miterlimit="2" stroke-linecap="round" stroke-linejoin="round"/>
<path d="M11.8837 26.4727L11.3944 34.8374" stroke="currentColor" stroke-miterlimit="2" stroke-linecap="round" stroke-linejoin="round"/>
<path d="M7.77283 26.4575V34.837" stroke="currentColor" stroke-miterlimit="2" stroke-linecap="round" stroke-linejoin="round"/>
<path fill-rule="evenodd" clip-rule="evenodd" d="M26.1525 5.75868C26.1525 7.59391 27.5301 9.08161 29.2295 9.08161C30.9289 9.08161 32.3064 7.59391 32.3064 5.75868C32.3064 3.92304 30.9289 2.43555 29.2295 2.43555C27.5301 2.43555 26.1525 3.92304 26.1525 5.75868Z" stroke="currentColor" stroke-miterlimit="2" stroke-linecap="round" stroke-linejoin="round"/>
<path d="M27.8979 11.0451H32.8391C34.8611 11.0451 36.4999 12.6834 36.4999 14.7043V22.0473C36.4999 23.3783 35.4205 24.4571 34.0891 24.4571H33.4196" stroke="currentColor" stroke-miterlimit="2" stroke-linecap="round" stroke-linejoin="round"/>
<path d="M25.6059 34.8374L25.1147 26.4575" stroke="currentColor" stroke-miterlimit="2" stroke-linecap="round" stroke-linejoin="round"/>
<path d="M33.3852 15.4951V25.7368L32.8516 34.8369" stroke="currentColor" stroke-miterlimit="2" stroke-linecap="round" stroke-linejoin="round"/>
<path d="M29.2281 26.4575V34.837" stroke="currentColor" stroke-miterlimit="2" stroke-linecap="round" stroke-linejoin="round"/>
</svg>
