<svg width="500" height="75" viewBox="0 0 500 75" fill="none" xmlns="http://www.w3.org/2000/svg">
<circle cx="25" cy="25" r="24" fill="#3C4A63" stroke="#3C4A63" stroke-width="2"/>
<circle cx="97.5" cy="25" r="21.5" fill="#3C4A63" stroke="#3C4A63" stroke-width="2"/>
<circle cx="165" cy="25" r="19" fill="#3C4A63" stroke="#3C4A63" stroke-width="2"/>
<circle cx="227.5" cy="25" r="16.5" fill="#3C4A63" stroke="#3C4A63" stroke-width="2"/>
<circle cx="285" cy="25" r="14" fill="#3C4A63" stroke="#3C4A63" stroke-width="2"/>
<circle cx="337.5" cy="25" r="11.5" fill="#3C4A63" stroke="#3C4A63" stroke-width="2"/>
<circle cx="385" cy="25" r="9" fill="#3C4A63" stroke="#3C4A63" stroke-width="2"/>
<circle cx="427.5" cy="25" r="6.5" fill="#3C4A63" stroke="#3C4A63" stroke-width="2"/>
<circle cx="465" cy="25" r="4" fill="#3C4A63" stroke="#3C4A63" stroke-width="2"/>
<circle cx="497.5" cy="25" r="1.5" fill="#3C4A63" stroke="#3C4A63" stroke-width="2"/>
<path d="M21.164 71.144C20.42 71.144 19.776 70.96 19.232 70.592C18.696 70.224 18.284 69.716 17.996 69.068C17.708 68.412 17.564 67.656 17.564 66.8C17.564 65.944 17.708 65.192 17.996 64.544C18.284 63.888 18.696 63.376 19.232 63.008C19.768 62.64 20.412 62.456 21.164 62.456C21.916 62.456 22.56 62.64 23.096 63.008C23.632 63.376 24.044 63.888 24.332 64.544C24.62 65.192 24.764 65.944 24.764 66.8C24.764 67.656 24.62 68.412 24.332 69.068C24.044 69.716 23.632 70.224 23.096 70.592C22.56 70.96 21.916 71.144 21.164 71.144ZM21.164 69.692C21.548 69.692 21.888 69.576 22.184 69.344C22.48 69.104 22.708 68.768 22.868 68.336C23.036 67.904 23.12 67.392 23.12 66.8C23.12 66.2 23.036 65.688 22.868 65.264C22.708 64.832 22.48 64.5 22.184 64.268C21.888 64.036 21.548 63.92 21.164 63.92C20.78 63.92 20.44 64.036 20.144 64.268C19.848 64.5 19.616 64.832 19.448 65.264C19.288 65.688 19.208 66.2 19.208 66.8C19.208 67.392 19.288 67.904 19.448 68.336C19.616 68.768 19.848 69.104 20.144 69.344C20.44 69.576 20.78 69.692 21.164 69.692Z" fill="#4A5056"/>
<path d="M495.016 71V64.46L493.408 64.952V63.608L495.7 62.6H496.696V71H495.016Z" fill="#4A5056"/>
<line x1="33" y1="68.5" x2="224" y2="68.5" stroke="#EEEEEE" stroke-dasharray="2 2"/>
<line x1="245" y1="68.5" x2="482" y2="68.5" stroke="#EEEEEE" stroke-dasharray="2 2"/>
<path d="M227.164 71.144C226.42 71.144 225.776 70.96 225.232 70.592C224.696 70.224 224.284 69.716 223.996 69.068C223.708 68.412 223.564 67.656 223.564 66.8C223.564 65.944 223.708 65.192 223.996 64.544C224.284 63.888 224.696 63.376 225.232 63.008C225.768 62.64 226.412 62.456 227.164 62.456C227.916 62.456 228.56 62.64 229.096 63.008C229.632 63.376 230.044 63.888 230.332 64.544C230.62 65.192 230.764 65.944 230.764 66.8C230.764 67.656 230.62 68.412 230.332 69.068C230.044 69.716 229.632 70.224 229.096 70.592C228.56 70.96 227.916 71.144 227.164 71.144ZM227.164 69.692C227.548 69.692 227.888 69.576 228.184 69.344C228.48 69.104 228.708 68.768 228.868 68.336C229.036 67.904 229.12 67.392 229.12 66.8C229.12 66.2 229.036 65.688 228.868 65.264C228.708 64.832 228.48 64.5 228.184 64.268C227.888 64.036 227.548 63.92 227.164 63.92C226.78 63.92 226.44 64.036 226.144 64.268C225.848 64.5 225.616 64.832 225.448 65.264C225.288 65.688 225.208 66.2 225.208 66.8C225.208 67.392 225.288 67.904 225.448 68.336C225.616 68.768 225.848 69.104 226.144 69.344C226.44 69.576 226.78 69.692 227.164 69.692ZM232.529 71.06C232.233 71.06 231.989 70.972 231.797 70.796C231.613 70.612 231.521 70.388 231.521 70.124C231.521 69.86 231.613 69.64 231.797 69.464C231.989 69.28 232.233 69.188 232.529 69.188C232.825 69.188 233.065 69.28 233.249 69.464C233.433 69.64 233.525 69.86 233.525 70.124C233.525 70.388 233.433 70.612 233.249 70.796C233.065 70.972 232.825 71.06 232.529 71.06ZM237.676 71.144C236.932 71.144 236.288 70.96 235.744 70.592C235.208 70.224 234.796 69.716 234.508 69.068C234.22 68.412 234.076 67.656 234.076 66.8C234.076 65.944 234.22 65.192 234.508 64.544C234.796 63.888 235.208 63.376 235.744 63.008C236.28 62.64 236.924 62.456 237.676 62.456C238.428 62.456 239.072 62.64 239.608 63.008C240.144 63.376 240.556 63.888 240.844 64.544C241.132 65.192 241.276 65.944 241.276 66.8C241.276 67.656 241.132 68.412 240.844 69.068C240.556 69.716 240.144 70.224 239.608 70.592C239.072 70.96 238.428 71.144 237.676 71.144ZM237.676 69.692C238.06 69.692 238.4 69.576 238.696 69.344C238.992 69.104 239.22 68.768 239.38 68.336C239.548 67.904 239.632 67.392 239.632 66.8C239.632 66.2 239.548 65.688 239.38 65.264C239.22 64.832 238.992 64.5 238.696 64.268C238.4 64.036 238.06 63.92 237.676 63.92C237.292 63.92 236.952 64.036 236.656 64.268C236.36 64.5 236.128 64.832 235.96 65.264C235.8 65.688 235.72 66.2 235.72 66.8C235.72 67.392 235.8 67.904 235.96 68.336C236.128 68.768 236.36 69.104 236.656 69.344C236.952 69.576 237.292 69.692 237.676 69.692ZM245.789 71.144C245.181 71.144 244.657 71.04 244.217 70.832C243.777 70.616 243.433 70.324 243.185 69.956C242.945 69.588 242.805 69.168 242.765 68.696H244.349C244.405 68.992 244.561 69.244 244.817 69.452C245.073 69.66 245.397 69.764 245.789 69.764C246.077 69.764 246.329 69.696 246.545 69.56C246.761 69.416 246.925 69.224 247.037 68.984C247.157 68.736 247.217 68.46 247.217 68.156C247.217 67.836 247.157 67.56 247.037 67.328C246.917 67.096 246.753 66.92 246.545 66.8C246.337 66.672 246.097 66.608 245.825 66.608C245.497 66.608 245.213 66.684 244.973 66.836C244.733 66.988 244.557 67.168 244.445 67.376H242.873L243.545 62.6H248.285V64.016H244.745L244.409 65.912C244.585 65.728 244.821 65.58 245.117 65.468C245.413 65.356 245.741 65.3 246.101 65.3C246.557 65.3 246.949 65.376 247.277 65.528C247.613 65.68 247.893 65.892 248.117 66.164C248.341 66.428 248.505 66.732 248.609 67.076C248.721 67.412 248.777 67.764 248.777 68.132C248.777 68.572 248.701 68.976 248.549 69.344C248.405 69.712 248.201 70.032 247.937 70.304C247.673 70.568 247.357 70.776 246.989 70.928C246.629 71.072 246.229 71.144 245.789 71.144Z" fill="black"/>
</svg>
