<svg width="859" height="443" viewBox="0 0 859 443" fill="none" xmlns="http://www.w3.org/2000/svg">
<path d="M208.058 389.711L209.013 368.235C218.97 362.913 230.075 360.101 241.365 360.045C225.827 372.749 227.769 397.237 217.234 414.321C213.908 419.624 209.431 424.11 204.134 427.448C198.838 430.785 192.859 432.888 186.64 433.601L173.637 441.562C171.853 431.615 172.246 421.4 174.79 411.62C177.334 401.84 181.968 392.727 188.372 384.91C192.009 380.561 196.178 376.686 200.783 373.379C203.897 381.59 208.058 389.711 208.058 389.711Z" fill="#314EA7" fill-opacity="0.5"/>
<path d="M628.669 20.2853H213.193C211.146 20.2854 209.182 21.098 207.734 22.5447C206.285 23.9914 205.47 25.9539 205.468 28.0011V224.122C205.47 226.171 206.285 228.134 207.733 229.583C209.181 231.031 211.145 231.846 213.193 231.848H628.669C630.716 231.844 632.678 231.028 634.124 229.58C635.57 228.132 636.384 226.169 636.385 224.122V28.0011C636.383 25.9554 635.57 23.9941 634.123 22.5475C632.677 21.101 630.715 20.2874 628.669 20.2853Z" fill="#314EA7"/>
<path d="M518.925 114.77C516.879 114.773 514.918 115.586 513.471 117.033C512.025 118.479 511.211 120.441 511.209 122.486V177.885C511.211 179.932 512.024 181.894 513.47 183.342C514.917 184.791 516.878 185.606 518.925 185.61H636.385V114.77H518.925Z" fill="#6C63FF"/>
<path opacity="0.5" d="M833.889 185.606H518.929C516.882 185.604 514.919 184.79 513.472 183.342C512.024 181.895 511.21 179.932 511.207 177.885V122.488C511.21 120.441 512.024 118.478 513.472 117.031C514.919 115.583 516.882 114.769 518.929 114.766H833.889C835.937 114.769 837.9 115.583 839.347 117.031C840.795 118.478 841.609 120.441 841.611 122.488V177.885C841.609 179.932 840.795 181.895 839.347 183.342C837.9 184.79 835.937 185.604 833.889 185.606Z" fill="#64D3BF"/>
<path d="M561.523 166.258C568.443 166.258 574.053 160.648 574.053 153.728C574.053 146.807 568.443 141.197 561.523 141.197C554.602 141.197 548.992 146.807 548.992 153.728C548.992 160.648 554.602 166.258 561.523 166.258Z" fill="white"/>
<path d="M824.131 150.087H597.717C596.727 150.087 595.778 149.694 595.078 148.994C594.379 148.294 593.985 147.345 593.985 146.356C593.985 145.366 594.379 144.417 595.078 143.717C595.778 143.017 596.727 142.624 597.717 142.624H824.131C825.12 142.624 826.07 143.017 826.769 143.717C827.469 144.417 827.862 145.366 827.862 146.356C827.862 147.345 827.469 148.294 826.769 148.994C826.07 149.694 825.12 150.087 824.131 150.087Z" fill="white"/>
<path d="M738.136 164.831H597.717C596.727 164.831 595.778 164.438 595.078 163.738C594.378 163.039 593.985 162.089 593.985 161.1C593.985 160.11 594.378 159.161 595.078 158.461C595.778 157.761 596.727 157.368 597.717 157.368H738.136C739.126 157.368 740.075 157.761 740.775 158.461C741.475 159.161 741.868 160.11 741.868 161.1C741.868 162.089 741.475 163.039 740.775 163.738C740.075 164.438 739.126 164.831 738.136 164.831Z" fill="white"/>
<path d="M144.941 431.344L155.785 431.343L160.944 389.516H144.939L144.941 431.344Z" fill="#C1A4A4"/>
<path d="M142.175 427.803L145.227 427.803L157.144 422.957L163.531 427.802C167.14 427.803 170.603 429.237 173.155 431.789C175.707 434.341 177.141 437.803 177.141 441.412V441.854L142.175 441.856L142.175 427.803Z" fill="#F9F9F9"/>
<path d="M46.9564 417.245L56.6625 422.082L79.9382 386.949L65.6141 379.809L46.9564 417.245Z" fill="#8E7965"/>
<path d="M46.0604 412.842L48.7923 414.204L61.6195 415.182L65.1742 422.368C68.4045 423.979 70.8637 426.806 72.0094 430.229C73.1551 433.652 72.8943 437.39 71.2843 440.62L71.087 441.016L39.7924 425.419L46.0604 412.842Z" fill="#F9F9F9"/>
<path d="M149.745 241.378L80.7949 243.176L81.9941 276.752C81.9941 276.752 80.7949 285.746 83.1932 288.144C85.5915 290.542 86.7906 290.542 85.5915 294.739C84.3923 298.936 81.2923 339.037 81.2923 339.037C81.2923 339.037 52.9931 389.075 54.1923 390.274C55.3914 391.473 56.5905 390.274 55.3914 393.272C54.1923 396.269 52.9931 395.07 54.1923 396.269C55.2545 397.415 56.2551 398.615 57.1901 399.867H76.7338C76.7338 399.867 77.8267 393.871 77.8267 393.272C77.8267 392.672 79.0259 389.075 79.0259 388.475C79.0259 387.875 113.172 351.698 113.172 351.698L120.366 291.741L137.754 350.499C137.754 350.499 137.754 402.062 138.953 403.261C140.152 404.46 140.152 403.86 139.553 406.259C138.953 408.657 136.555 408.057 138.353 409.856C140.152 411.655 140.752 408.657 140.152 411.655L139.553 414.653L162.587 414.91C162.587 414.91 164.986 409.856 163.787 408.057C162.587 406.259 162.659 406.75 164.122 403.806C165.585 400.863 166.185 400.263 165.585 399.663C164.986 399.064 164.986 395.875 164.986 395.875C164.986 395.875 156.34 277.951 156.34 276.153C156.295 275.227 156.466 274.304 156.838 273.455V271.014L154.542 262.363L149.745 241.378Z" fill="#39BDE7"/>
<path d="M832.542 137.273C827.309 137.273 822.194 135.721 817.843 132.814C813.492 129.907 810.101 125.775 808.098 120.94C806.096 116.106 805.572 110.786 806.593 105.653C807.614 100.521 810.134 95.8068 813.834 92.1066C817.534 88.4064 822.248 85.8866 827.381 84.8657C832.513 83.8448 837.833 84.3688 842.667 86.3713C847.502 88.3738 851.634 91.765 854.541 96.1159C857.448 100.467 859 105.582 859 110.815C859 117.832 856.212 124.562 851.251 129.524C846.289 134.485 839.559 137.273 832.542 137.273Z" fill="#64D3BF"/>
<path d="M842.982 108.205H835.152V100.375C835.152 99.6833 834.877 99.0194 834.388 98.53C833.898 98.0405 833.234 97.7656 832.542 97.7656C831.85 97.7656 831.186 98.0405 830.697 98.53C830.207 99.0194 829.932 99.6833 829.932 100.375V108.205H822.102C821.759 108.205 821.419 108.272 821.102 108.402C820.785 108.533 820.497 108.725 820.254 108.968C820.011 109.21 819.818 109.498 819.687 109.815C819.555 110.132 819.488 110.472 819.488 110.815C819.488 111.158 819.555 111.498 819.687 111.815C819.818 112.132 820.011 112.42 820.254 112.662C820.497 112.905 820.785 113.097 821.102 113.228C821.419 113.359 821.759 113.426 822.102 113.425H829.932V121.255C829.932 121.947 830.207 122.611 830.697 123.1C831.186 123.59 831.85 123.865 832.542 123.865C833.234 123.865 833.898 123.59 834.388 123.1C834.877 122.611 835.152 121.947 835.152 121.255V113.425H842.982C843.674 113.425 844.338 113.15 844.827 112.661C845.317 112.171 845.591 111.507 845.591 110.815C845.591 110.123 845.317 109.459 844.827 108.97C844.338 108.48 843.674 108.205 842.982 108.205Z" fill="white"/>
<path d="M428.757 185.964H328.231C326.183 185.967 324.22 186.781 322.771 188.23C321.323 189.678 320.508 191.642 320.506 193.69V231.848H436.473V193.69C436.471 191.643 435.658 189.681 434.212 188.232C432.765 186.784 430.804 185.969 428.757 185.964Z" fill="#6C63FF"/>
<path opacity="0.5" d="M428.754 293.182H328.228C326.181 293.179 324.218 292.365 322.77 290.917C321.323 289.47 320.508 287.507 320.506 285.46V193.686C320.508 191.639 321.323 189.676 322.77 188.229C324.218 186.781 326.181 185.967 328.228 185.964H428.754C430.801 185.967 432.764 186.781 434.211 188.229C435.659 189.676 436.473 191.639 436.476 193.686V285.46C436.473 287.507 435.659 289.47 434.212 290.917C432.764 292.365 430.801 293.179 428.754 293.182Z" fill="#FDA288"/>
<path d="M357.846 229.465C364.766 229.465 370.376 223.855 370.376 216.934C370.376 210.014 364.766 204.404 357.846 204.404C350.925 204.404 345.315 210.014 345.315 216.934C345.315 223.855 350.925 229.465 357.846 229.465Z" fill="white"/>
<path d="M407.934 248.51H349.047C348.057 248.51 347.108 248.117 346.408 247.417C345.708 246.718 345.315 245.768 345.315 244.779C345.315 243.789 345.708 242.84 346.408 242.14C347.108 241.441 348.057 241.048 349.047 241.048H407.934C408.923 241.048 409.873 241.441 410.572 242.14C411.272 242.84 411.665 243.789 411.665 244.779C411.665 245.768 411.272 246.718 410.572 247.417C409.873 248.117 408.923 248.51 407.934 248.51Z" fill="white"/>
<path d="M377.463 263.254H349.047C348.057 263.254 347.108 262.861 346.408 262.162C345.708 261.462 345.315 260.513 345.315 259.523C345.315 258.533 345.708 257.584 346.408 256.884C347.108 256.185 348.057 255.792 349.047 255.792H377.463C378.452 255.792 379.402 256.185 380.101 256.884C380.801 257.584 381.194 258.533 381.194 259.523C381.194 260.513 380.801 261.462 380.101 262.162C379.402 262.861 378.452 263.254 377.463 263.254Z" fill="white"/>
<path d="M326.132 320.117C320.899 320.117 315.784 318.565 311.433 315.658C307.082 312.75 303.691 308.618 301.689 303.784C299.686 298.949 299.162 293.629 300.183 288.497C301.204 283.365 303.724 278.651 307.424 274.95C311.124 271.25 315.838 268.73 320.971 267.709C326.103 266.689 331.423 267.212 336.257 269.215C341.092 271.218 345.224 274.609 348.131 278.96C351.038 283.311 352.59 288.426 352.59 293.659C352.59 300.676 349.803 307.405 344.841 312.367C339.879 317.329 333.149 320.117 326.132 320.117Z" fill="#FDA288"/>
<path d="M336.572 291.049H328.742V283.219C328.742 282.527 328.467 281.863 327.978 281.374C327.488 280.884 326.824 280.609 326.132 280.609C325.44 280.609 324.776 280.884 324.287 281.374C323.797 281.863 323.522 282.527 323.522 283.219V291.049H315.693C315.349 291.048 315.009 291.115 314.692 291.246C314.375 291.377 314.087 291.569 313.844 291.812C313.601 292.054 313.408 292.342 313.277 292.659C313.145 292.976 313.078 293.316 313.078 293.659C313.078 294.002 313.145 294.342 313.277 294.659C313.408 294.976 313.601 295.264 313.844 295.506C314.087 295.748 314.375 295.941 314.692 296.071C315.009 296.202 315.349 296.269 315.693 296.269H323.522V304.098C323.522 304.791 323.797 305.454 324.287 305.944C324.776 306.433 325.44 306.708 326.132 306.708C326.824 306.708 327.488 306.433 327.978 305.944C328.467 305.454 328.742 304.791 328.742 304.098V296.269H336.572C337.264 296.269 337.928 295.994 338.417 295.504C338.907 295.015 339.182 294.351 339.182 293.659C339.182 292.967 338.907 292.303 338.417 291.813C337.928 291.324 337.264 291.049 336.572 291.049Z" fill="white"/>
<path d="M313.885 127.622H213.359C211.312 127.62 209.349 126.805 207.902 125.358C206.454 123.91 205.64 121.947 205.637 119.9V28.1263C205.64 26.0791 206.454 24.1164 207.902 22.6688C209.349 21.2212 211.312 20.407 213.359 20.4047H313.885C315.932 20.407 317.895 21.2212 319.343 22.6688C320.79 24.1164 321.605 26.0791 321.607 28.1263V119.9C321.605 121.947 320.79 123.91 319.343 125.358C317.895 126.805 315.932 127.62 313.885 127.622Z" fill="#6C63FF"/>
<path d="M242.977 71.5636C249.898 71.5636 255.508 65.9535 255.508 59.0332C255.508 52.1128 249.898 46.5027 242.977 46.5027C236.057 46.5027 230.447 52.1128 230.447 59.0332C230.447 65.9535 236.057 71.5636 242.977 71.5636Z" fill="#6C63FF"/>
<path d="M293.066 86.7799H234.179C233.189 86.7799 232.24 86.3867 231.54 85.687C230.84 84.9872 230.447 84.0382 230.447 83.0486C230.447 82.059 230.84 81.1099 231.54 80.4101C232.24 79.7104 233.189 79.3173 234.179 79.3173H293.066C294.055 79.3173 295.005 79.7104 295.704 80.4101C296.404 81.1099 296.797 82.059 296.797 83.0486C296.797 84.0382 296.404 84.9872 295.704 85.687C295.005 86.3867 294.055 86.7799 293.066 86.7799Z" fill="#6C63FF"/>
<path d="M262.595 101.524H234.179C233.189 101.524 232.24 101.131 231.54 100.431C230.84 99.7314 230.447 98.7823 230.447 97.7927C230.447 96.803 230.84 95.8539 231.54 95.1541C232.24 94.4543 233.189 94.0612 234.179 94.0612H262.595C263.584 94.0612 264.534 94.4543 265.233 95.1541C265.933 95.8539 266.326 96.803 266.326 97.7927C266.326 98.7823 265.933 99.7314 265.233 100.431C264.534 101.131 263.584 101.524 262.595 101.524Z" fill="#6C63FF"/>
<path opacity="0.4" d="M313.885 127.622H213.359C211.312 127.62 209.349 126.805 207.902 125.358C206.454 123.91 205.64 121.947 205.637 119.9V28.1263C205.64 26.0791 206.454 24.1164 207.902 22.6688C209.349 21.2212 211.312 20.407 213.359 20.4047H313.885C315.932 20.407 317.895 21.2212 319.343 22.6688C320.79 24.1164 321.605 26.0791 321.607 28.1263V119.9C321.605 121.947 320.79 123.91 319.343 125.358C317.895 126.805 315.932 127.62 313.885 127.622Z" fill="#9DA1FF"/>
<path d="M242.977 71.5636C249.898 71.5636 255.508 65.9535 255.508 59.0332C255.508 52.1128 249.898 46.5027 242.977 46.5027C236.057 46.5027 230.447 52.1128 230.447 59.0332C230.447 65.9535 236.057 71.5636 242.977 71.5636Z" fill="white"/>
<path d="M293.066 86.7799H234.179C233.189 86.7799 232.24 86.3867 231.54 85.687C230.84 84.9872 230.447 84.0382 230.447 83.0486C230.447 82.059 230.84 81.1099 231.54 80.4101C232.24 79.7104 233.189 79.3173 234.179 79.3173H293.066C294.055 79.3173 295.005 79.7104 295.704 80.4101C296.404 81.1099 296.797 82.059 296.797 83.0486C296.797 84.0382 296.404 84.9872 295.704 85.687C295.005 86.3867 294.055 86.7799 293.066 86.7799Z" fill="white"/>
<path d="M262.595 101.524H234.179C233.189 101.524 232.24 101.131 231.54 100.431C230.84 99.7314 230.447 98.7823 230.447 97.7927C230.447 96.803 230.84 95.8539 231.54 95.1541C232.24 94.4543 233.189 94.0612 234.179 94.0612H262.595C263.584 94.0612 264.534 94.4543 265.233 95.1541C265.933 95.8539 266.326 96.803 266.326 97.7927C266.326 98.7823 265.933 99.7314 265.233 100.431C264.534 101.131 263.584 101.524 262.595 101.524Z" fill="white"/>
<path d="M215.433 40.2065C226.536 40.2065 235.536 31.2059 235.536 20.1032C235.536 9.00052 226.536 0 215.433 0C204.33 0 195.33 9.00052 195.33 20.1032C195.33 31.2059 204.33 40.2065 215.433 40.2065Z" fill="#9DA1FF"/>
<path d="M270.599 441.155C270.6 441.304 270.57 441.453 270.513 441.591C270.456 441.73 270.372 441.855 270.266 441.961C270.161 442.067 270.035 442.151 269.896 442.208C269.758 442.265 269.61 442.294 269.46 442.294H1.13919C0.837055 442.294 0.547296 442.174 0.333657 441.96C0.120019 441.747 0 441.457 0 441.155C0 440.853 0.120019 440.563 0.333657 440.349C0.547296 440.136 0.837055 440.016 1.13919 440.016H269.46C269.61 440.015 269.758 440.044 269.896 440.101C270.035 440.158 270.161 440.242 270.266 440.348C270.372 440.454 270.456 440.58 270.513 440.718C270.57 440.857 270.6 441.005 270.599 441.155Z" fill="#314EA7"/>
<path d="M211.136 73.3524C211.963 75.6631 211.848 78.2061 210.817 80.4329C209.786 82.6598 207.921 84.3922 205.624 85.2565C205.116 85.4463 204.592 85.5907 204.058 85.6881L198.749 118.197L186.294 106.698L193.245 77.5894C192.988 75.1366 193.706 72.681 195.245 70.7536C196.784 68.8262 199.019 67.5818 201.468 67.2895C203.529 67.0533 205.608 67.5248 207.365 68.6266C209.122 69.7283 210.452 71.3949 211.136 73.3524Z" fill="#8E7965"/>
<path d="M119.222 147.015C119.222 147.015 128.888 134.243 163.965 134.593L183.875 127.359L188.425 85.6495L204.35 89.4413L202.075 141.009L167.949 160.727L123.206 169.827L119.222 147.015Z" fill="#E5E5E5"/>
<path d="M114.086 120.408C125.584 120.408 134.905 111.087 134.905 99.5887C134.905 88.0908 125.584 78.7699 114.086 78.7699C102.588 78.7699 93.2672 88.0908 93.2672 99.5887C93.2672 111.087 102.588 120.408 114.086 120.408Z" fill="#8E7965"/>
<path d="M78.7945 261C78.7554 261 78.7165 260.995 78.6789 260.984C78.2722 260.872 77.9509 260.783 79.4187 248.191L81.0029 238.237L79.4563 229.449L76.8549 226.868L81.0358 222.72L84.5444 212.832L78.4736 203.907L71.5086 167.408C70.3112 161.109 71.2417 154.595 74.1558 148.875C77.0699 143.155 81.8047 138.549 87.6262 135.77L95.6874 133.434L98.6205 128.097C99.4442 126.598 100.657 125.346 102.133 124.469C103.609 123.592 105.295 123.123 107.015 123.11L121.777 123C123.267 122.989 124.738 123.321 126.077 123.968C127.416 124.616 128.585 125.563 129.493 126.734L134.643 133.376L156 140.574L152.459 216.275C153.021 216.743 153.48 217.32 153.806 217.972C154.132 218.624 154.318 219.336 154.352 220.063C154.386 220.79 154.268 221.516 154.005 222.196C153.741 222.875 153.339 223.493 152.823 224.01C152.601 224.232 152.424 224.413 152.316 224.532C151.955 225.04 152.631 228.829 153.465 232.045L154.535 236.972C154.192 237.215 153.903 237.526 153.687 237.886C153.471 238.246 153.333 238.646 153.281 239.061C153.229 239.477 153.264 239.898 153.384 240.299C153.505 240.701 153.707 241.073 153.98 241.392L155.344 242.991C155.614 244.995 155.071 247.024 153.835 248.632C152.6 250.24 150.772 251.296 148.752 251.569C129.234 254.204 78.8965 261 78.7945 261Z" fill="#E5E5E5"/>
<path d="M108.76 119.388C108.671 119.192 108.583 118.996 108.494 118.799C108.528 118.8 108.562 118.805 108.596 118.806L108.76 119.388Z" fill="#314EA7"/>
<path d="M92.6883 79.7167C93.6768 78.7841 94.9616 78.2286 96.3182 78.1473C97.6644 78.1907 99.0296 79.4066 98.7507 80.7244C101.223 76.3462 105.159 72.9788 109.867 71.2133C114.576 69.4479 119.755 69.3972 124.497 71.0702C127.843 72.2507 131.124 74.6123 131.893 78.0762C131.968 78.9855 132.239 79.8679 132.688 80.6623C133.077 81.087 133.581 81.3887 134.14 81.5301C134.698 81.6716 135.285 81.6466 135.83 81.4584L135.863 81.4486C136.049 81.385 136.25 81.3788 136.44 81.4307C136.63 81.4826 136.8 81.5903 136.928 81.7399C137.056 81.8894 137.136 82.074 137.158 82.2696C137.18 82.4652 137.143 82.6629 137.051 82.8372L136.105 84.6029C137.298 84.8689 138.538 84.8425 139.719 84.526C139.915 84.4745 140.123 84.4851 140.313 84.5561C140.503 84.6271 140.666 84.7552 140.78 84.9227C140.895 85.0902 140.954 85.289 140.951 85.4918C140.948 85.6946 140.882 85.8915 140.763 86.0554C139.189 88.208 137.135 89.9635 134.764 91.1824C132.393 92.4013 129.77 93.0499 127.103 93.0765C123.321 93.0534 119.499 91.7498 115.818 92.6196C114.394 92.9561 113.063 93.6073 111.923 94.5252C110.783 95.4431 109.864 96.6045 109.231 97.9243C108.599 99.244 108.27 100.689 108.269 102.152C108.268 103.615 108.594 105.06 109.224 106.381C108.093 105.144 105.907 105.437 104.75 106.65C104.217 107.299 103.824 108.051 103.593 108.859C103.363 109.666 103.301 110.513 103.41 111.345C103.719 113.895 104.476 116.371 105.647 118.658C101.174 118.52 96.8506 117.013 93.2614 114.34C89.6722 111.666 86.9899 107.956 85.5768 103.71C84.1638 99.4635 84.088 94.8858 85.3598 90.595C86.6315 86.3043 89.1896 82.5072 92.6883 79.7167Z" fill="#314EA7"/>
<path d="M86.9604 287.301C84.97 285.865 83.6235 283.705 83.2112 281.286C82.7989 278.867 83.3539 276.382 84.7564 274.369C85.0676 273.924 85.4174 273.508 85.8018 273.126L71.7533 243.332L88.5317 245.749L99.3001 273.671C100.902 275.546 101.702 277.976 101.526 280.436C101.351 282.896 100.214 285.189 98.3621 286.817C96.7984 288.179 94.818 288.969 92.7461 289.057C90.6741 289.145 88.6338 288.526 86.9604 287.301Z" fill="#8E7965"/>
<path d="M82.706 271.033L60.3511 220.791L60.1272 181.109L67.1739 159.674C68.13 156.766 69.6592 154.08 71.6714 151.773C73.6835 149.466 76.1377 147.586 78.8889 146.243C81.6401 144.901 84.6324 144.124 87.689 143.958C90.7456 143.792 93.8045 144.24 96.6849 145.277L96.8401 145.333L96.9052 145.484C97.1656 146.092 103.076 160.711 85.5448 190.786L82.0167 211.364L94.3966 258.534L82.706 271.033Z" fill="#E5E5E5"/>
</svg>
