<svg width="387" height="415" viewBox="0 0 387 415" fill="none" xmlns="http://www.w3.org/2000/svg">
<path d="M102.501 114H102.345C96.1423 114 90.6566 117.361 87.501 122.32C84.3455 117.361 78.8597 114 72.6568 114H72.5009C67.8457 114.045 63.3962 115.97 60.1192 119.356C56.8422 122.741 55.0025 127.314 55 132.081C55 138 57.5319 146.399 62.4689 153.31C71.8752 166.479 87.501 178 87.501 178C87.501 178 103.127 166.481 112.531 153.31C117.47 146.399 120 138 120 132.081C119.997 127.315 118.158 122.742 114.882 119.356C111.605 115.971 107.156 114.046 102.501 114ZM100.271 154.323C99.5643 154.321 98.8752 154.099 98.2938 153.688C97.7125 153.277 97.2661 152.696 97.0133 152.02H93.3049C93.0607 152.019 92.823 151.939 92.6251 151.793C92.4272 151.646 92.279 151.44 92.2011 151.203L91.0619 147.689L87.4574 160.585C87.3872 160.833 87.2402 161.052 87.0386 161.207C86.8369 161.362 86.5914 161.447 86.339 161.447H86.2663C86.0029 161.434 85.7519 161.329 85.5551 161.149C85.3584 160.969 85.2278 160.726 85.1853 160.46L81.4706 137.583L78.7558 151.12C78.6935 151.377 78.549 151.606 78.3451 151.769C78.1413 151.932 77.8899 152.02 77.6312 152.02H72.4073C72.2507 152.027 72.0944 152.001 71.9478 151.945C71.8012 151.888 71.6672 151.802 71.5541 151.69C71.4409 151.579 71.3509 151.446 71.2894 151.298C71.2279 151.151 71.1962 150.992 71.1962 150.832C71.1962 150.671 71.2279 150.512 71.2894 150.365C71.3509 150.217 71.4409 150.084 71.5541 149.973C71.6672 149.862 71.8012 149.775 71.9478 149.718C72.0944 149.662 72.2507 149.636 72.4073 149.643H76.7166L80.5622 131.443C80.6253 131.173 80.7778 130.935 80.9935 130.768C81.2092 130.602 81.4748 130.517 81.7448 130.528C82.0149 130.54 82.2726 130.647 82.474 130.832C82.6754 131.016 82.8079 131.267 82.8488 131.54L86.6425 154.877L89.8729 143.338C89.9401 143.095 90.0823 142.881 90.2783 142.728C90.4742 142.574 90.7134 142.49 90.9601 142.487H90.9829C91.2272 142.487 91.4653 142.566 91.6631 142.713C91.8609 142.86 92.0085 143.067 92.0846 143.304L94.1447 149.649H96.9676C97.1683 149.025 97.5336 148.469 98.0231 148.044C98.5126 147.619 99.1074 147.341 99.7417 147.24C100.376 147.139 101.025 147.219 101.618 147.472C102.21 147.725 102.723 148.141 103.099 148.673C103.476 149.206 103.701 149.834 103.751 150.49C103.8 151.145 103.672 151.802 103.38 152.387C103.088 152.972 102.643 153.464 102.096 153.807C101.548 154.15 100.919 154.332 100.277 154.332L100.271 154.323Z" fill="#39BDE7"/>
<g opacity="0.95">
<ellipse cx="78.0778" cy="42.0992" rx="16.3071" ry="16.3367" transform="rotate(88.3347 78.0778 42.0992)" fill="#C6FDF3"/>
<ellipse cx="77.5774" cy="46.5058" rx="9.40794" ry="9.42505" transform="rotate(88.3347 77.5774 46.5058)" fill="#64D3BF"/>
<ellipse cx="78.9815" cy="29.9424" rx="2.09065" ry="2.09445" transform="rotate(88.3347 78.9815 29.9424)" fill="#64D3BF"/>
<ellipse cx="82.034" cy="34.0364" rx="2.09065" ry="2.09445" transform="rotate(88.3347 82.034 34.0364)" fill="#64D3BF"/>
<ellipse cx="87.0221" cy="32.6365" rx="2.09065" ry="2.09445" transform="rotate(88.3347 87.0221 32.6365)" fill="#64D3BF"/>
<ellipse cx="74.4973" cy="34.2554" rx="2.09065" ry="2.09445" transform="rotate(88.3347 74.4973 34.2554)" fill="#64D3BF"/>
<ellipse cx="69.4119" cy="32.312" rx="2.09065" ry="2.09445" transform="rotate(88.3347 69.4119 32.312)" fill="#64D3BF"/>
<ellipse cx="67.8828" cy="37.376" rx="2.09065" ry="2.09445" transform="rotate(88.3347 67.8828 37.376)" fill="#64D3BF"/>
<ellipse cx="88.0174" cy="38.0457" rx="2.09065" ry="2.09445" transform="rotate(88.3347 88.0174 38.0457)" fill="#64D3BF"/>
</g>
<g opacity="0.95">
<path d="M28.1163 73.8104L40.5753 76.7353C42.0211 77.4566 42.1702 79.3884 41.1499 80.5776C40.051 81.8584 35.2827 85.0096 32.6891 86.2277C29.2453 88.4369 31.2865 89.6674 33.6887 88.3715L42.4897 83.5279C43.5612 83.001 43.6166 83.7186 43.1064 84.3132L37.5159 91.1298C35.2628 94.3575 37.5591 95.2907 38.8558 94.0802L44.9351 86.3929C46.2105 84.9064 47.6522 86.2943 47.5503 87.8568C47.4485 89.4193 44.7308 94.5521 43.2359 96.7959C42.0244 99.1103 44.597 100.022 46.1701 98.7903C47.7432 97.5584 49.9105 89.6179 50.3994 88.7473C50.7905 88.0509 51.3872 87.5606 51.5049 88.662C52.5056 98.0237 52.8022 91.0604 52.8002 90.2277C52.7989 89.6726 52.8091 89.9494 52.9294 89.1073C53.1419 88.258 53.8775 88.4233 54.609 89.2552C55.3405 90.0871 55.9778 96.1825 56.205 99.1262C56.4606 102.438 59.9897 101.333 59.5003 98.5942L57.7978 87.3434C57.6487 85.4116 59.8516 88.0177 60.6681 88.5099C62.301 89.4943 62.3264 88.3819 62.0074 87.8513L60.7741 86.2808C60.4551 85.7502 60.4338 85.4742 60.7102 85.4529C61.6218 85.3825 64.6722 88.7561 66.0898 90.3124C67.0041 91.3522 68.8536 90.099 68.492 89.0165C67.1948 86.6181 62.3446 82.4693 62.1341 82.2892C60.348 80.7614 62.2827 80.6121 62.5804 80.8667C62.8781 81.1213 64.7279 82.2741 65.791 82.8398C67.5345 83.8157 68.7247 81.2253 66.4497 80.568L64.1961 80.1868C62.4952 79.7628 62.7962 78.3515 64.047 78.255C64.8761 78.191 67.8056 79.7761 68.3418 79.8668C71.7223 80.4387 70.853 78.4063 70.1273 77.7856C68.0436 76.0032 67.3209 77.447 65.3437 77.0444C63.7618 76.7223 64.4151 75.8206 64.9395 75.4099C71.8485 71.2676 72.1322 74.0772 73.5707 71.9675C74.5697 70.5024 73.634 69.1865 72.8262 69.5265L65.0241 72.9049C62.8557 73.6275 60.1765 71.3357 62.1533 68.1294C64.6059 64.1511 66.0709 58.8508 65.6594 55.9213C65.2978 54.8387 64.0817 54.9326 63.8099 57.1745C63.4702 59.9769 59.5375 63.0566 59.1125 64.7551C58.6876 66.4536 57.008 66.3056 55.9025 66.3909C54.7969 66.4763 55.7959 65.0111 56.2848 64.1405C56.6759 63.444 57.2412 62.1234 56.1783 62.7607C55.3847 63.2846 53.6996 64.5066 53.3085 65.2031C52.8197 66.0737 51.3738 65.3524 51.5224 63.6753C51.6413 62.3335 56.3695 61.6354 56.5819 60.7862C57.313 58.7309 56.1404 57.7665 55.2421 57.8358C51.7044 58.1089 48.6097 63.1598 47.5045 65.6511C46.4842 66.8403 46.6114 64.8872 45.4 67.2016C44.1885 69.5161 42.0184 59.4118 39.212 59.0732C36.9668 58.8023 37.0577 59.9798 37.3838 60.6024L43.3593 69.58C43.9973 70.6413 40.6208 68.681 40.0427 69.8361C39.4646 70.9911 42.4625 72.3699 42.2117 72.7224C41.2084 74.1324 33.346 71.9261 29.5402 70.6467C26.4362 70.0535 25.8413 73.1532 28.1163 73.8104Z" fill="#314EA7"/>
<path d="M48.0168 79.4925C51.1203 76.4768 49.9291 71.8493 51.2684 71.1906C54.3127 70.2894 55.6069 71.5871 56.0734 72.2078C59.5437 76.826 56.8045 80.4799 55.1393 81.7189C50.1224 85.1599 46.4863 81.2763 48.0168 79.4925Z" fill="#1D3580"/>
</g>
<g opacity="0.95">
<ellipse cx="95.8285" cy="76.0144" rx="16.3071" ry="16.3367" transform="rotate(-37.7084 95.8285 76.0144)" fill="#39BDE7"/>
<ellipse cx="97.664" cy="75.6541" rx="12.1258" ry="12.1478" transform="rotate(-37.7084 97.664 75.6541)" fill="#64DAFF"/>
</g>
<path d="M126.108 125.306H166.357V76.4874C166.357 73.9023 163.81 71.7993 160.681 71.7993H131.784C128.654 71.7993 126.108 73.9023 126.108 76.4874V125.306Z" fill="#314EA7"/>
<path d="M129.175 123.287H163.29V81.9075C163.29 79.7164 161.132 77.9338 158.479 77.9338H133.986C131.333 77.9338 129.175 79.7164 129.175 81.9075V123.287Z" fill="white"/>
<path d="M125.804 68C124.809 68 124 68.6685 124 69.4902V73.7918C124 74.6134 124.809 75.282 125.804 75.282H166.661C167.656 75.282 168.465 74.6134 168.465 73.7918V69.4902C168.465 68.6685 167.656 68 166.661 68H125.804Z" fill="#1D3580"/>
<path d="M134.193 117.981C133.726 117.983 133.278 118.169 132.948 118.499C132.618 118.829 132.431 119.277 132.43 119.744C132.431 120.211 132.617 120.659 132.948 120.989C133.278 121.319 133.726 121.505 134.193 121.507H137.492V117.981H134.193Z" fill="#39BDE7"/>
<path d="M140.52 117.981H137.311V121.507H140.52C140.987 121.505 141.435 121.319 141.765 120.989C142.095 120.659 142.281 120.211 142.283 119.744C142.281 119.277 142.095 118.829 141.765 118.499C141.435 118.169 140.987 117.983 140.52 117.981Z" fill="#64D3BF"/>
<path opacity="0.2" d="M141.67 118.413C141.948 118.732 142.101 119.14 142.102 119.563C142.1 120.03 141.914 120.478 141.584 120.808C141.254 121.138 140.806 121.325 140.339 121.326H137.311V121.507H140.52C140.987 121.505 141.435 121.319 141.765 120.989C142.095 120.659 142.281 120.211 142.283 119.744C142.282 119.491 142.227 119.241 142.121 119.012C142.016 118.782 141.862 118.578 141.67 118.413Z" fill="black"/>
<path d="M149.081 91.4316C148.759 91.0927 148.317 90.8947 147.85 90.8809C147.383 90.8671 146.93 91.0386 146.589 91.358C146.25 91.6794 146.052 92.1218 146.038 92.5887C146.025 93.0555 146.196 93.5089 146.516 93.8497L148.779 96.2504L151.344 93.8323L149.081 91.4316Z" fill="#39BDE7"/>
<path d="M153.421 96.0359L151.22 93.7009L148.655 96.119L150.856 98.454C151.177 98.7929 151.619 98.9909 152.086 99.0047C152.553 99.0185 153.007 98.8469 153.347 98.5276C153.686 98.2062 153.884 97.7638 153.898 97.2969C153.912 96.8301 153.74 96.3767 153.421 96.0359Z" fill="#64D3BF"/>
<path opacity="0.2" d="M153.896 97.1688C153.854 97.5897 153.662 97.9815 153.355 98.2719C153.014 98.5912 152.561 98.7628 152.094 98.749C151.627 98.7352 151.185 98.5372 150.863 98.1983L148.786 95.9949L148.655 96.1189L150.856 98.4539C151.177 98.7928 151.619 98.9908 152.086 99.0045C152.553 99.0183 153.007 98.8468 153.347 98.5274C153.531 98.3537 153.675 98.1424 153.77 97.9079C153.864 97.6735 153.907 97.4214 153.896 97.1688Z" fill="black"/>
<path d="M139.69 96.9897C139.368 96.6508 138.926 96.4528 138.459 96.439C137.992 96.4252 137.539 96.5968 137.198 96.9161C136.859 97.2375 136.661 97.6799 136.647 98.1468C136.633 98.6136 136.805 99.067 137.124 99.4078L139.387 101.809L141.953 99.3905L139.69 96.9897Z" fill="#39BDE7"/>
<path d="M144.03 101.594L141.829 99.2588L139.263 101.677L141.464 104.012C141.786 104.351 142.228 104.549 142.695 104.563C143.162 104.576 143.615 104.405 143.956 104.085C144.295 103.764 144.493 103.322 144.507 102.855C144.521 102.388 144.349 101.935 144.03 101.594Z" fill="#64D3BF"/>
<path opacity="0.2" d="M144.505 102.727C144.463 103.148 144.271 103.54 143.964 103.83C143.623 104.149 143.17 104.321 142.703 104.307C142.236 104.293 141.793 104.095 141.472 103.756L139.395 101.553L139.263 101.677L141.464 104.012C141.786 104.351 142.228 104.549 142.695 104.563C143.162 104.576 143.615 104.405 143.956 104.086C144.14 103.912 144.284 103.701 144.379 103.466C144.473 103.232 144.516 102.979 144.505 102.727Z" fill="black"/>
<path d="M149.081 102.164C148.759 101.826 148.317 101.628 147.85 101.614C147.383 101.6 146.93 101.772 146.589 102.091C146.25 102.412 146.052 102.855 146.038 103.322C146.025 103.788 146.196 104.242 146.516 104.583L148.779 106.983L151.344 104.565L149.081 102.164Z" fill="#39BDE7"/>
<path d="M153.421 106.769L151.22 104.434L148.655 106.852L150.856 109.187C151.177 109.526 151.619 109.724 152.086 109.738C152.553 109.751 153.007 109.58 153.347 109.26C153.686 108.939 153.884 108.497 153.898 108.03C153.912 107.563 153.74 107.11 153.421 106.769Z" fill="#64D3BF"/>
<path opacity="0.2" d="M153.896 107.902C153.854 108.323 153.662 108.715 153.355 109.005C153.014 109.324 152.561 109.496 152.094 109.482C151.627 109.468 151.185 109.27 150.863 108.931L148.786 106.728L148.655 106.852L150.856 109.187C151.177 109.526 151.619 109.724 152.086 109.738C152.553 109.751 153.007 109.58 153.347 109.261C153.531 109.087 153.675 108.876 153.77 108.641C153.864 108.407 153.907 108.155 153.896 107.902Z" fill="black"/>
<path d="M154.81 113.179C155.145 112.853 155.337 112.408 155.346 111.941C155.354 111.474 155.177 111.023 154.853 110.686C154.528 110.351 154.083 110.159 153.616 110.151C153.149 110.143 152.698 110.32 152.361 110.643L149.988 112.935L152.437 115.471L154.81 113.179Z" fill="#39BDE7"/>
<path d="M150.259 117.574L152.567 115.345L150.118 112.81L147.81 115.039C147.475 115.364 147.282 115.809 147.274 116.276C147.266 116.743 147.443 117.194 147.767 117.531C148.092 117.866 148.537 118.059 149.004 118.067C149.471 118.075 149.922 117.898 150.259 117.574Z" fill="#64D3BF"/>
<path opacity="0.2" d="M149.132 118.063C148.71 118.027 148.316 117.84 148.022 117.536C147.699 117.199 147.522 116.748 147.53 116.281C147.538 115.814 147.73 115.369 148.065 115.043L150.243 112.94L150.118 112.81L147.81 115.039C147.475 115.364 147.282 115.809 147.274 116.276C147.266 116.743 147.443 117.194 147.767 117.531C147.942 117.713 148.156 117.854 148.391 117.946C148.627 118.038 148.879 118.078 149.132 118.063Z" fill="black"/>
<path d="M142.16 107.62C142.495 107.295 142.688 106.85 142.696 106.383C142.704 105.916 142.527 105.465 142.204 105.128C141.878 104.793 141.433 104.6 140.966 104.592C140.499 104.584 140.048 104.761 139.711 105.085L137.338 107.377L139.787 109.912L142.16 107.62Z" fill="#39BDE7"/>
<path d="M137.609 112.016L139.917 109.787L137.468 107.251L135.16 109.48C134.825 109.806 134.633 110.251 134.625 110.718C134.616 111.185 134.793 111.636 135.117 111.973C135.442 112.308 135.887 112.5 136.354 112.509C136.821 112.517 137.272 112.34 137.609 112.016Z" fill="#64D3BF"/>
<path opacity="0.2" d="M136.482 112.505C136.061 112.469 135.667 112.281 135.373 111.977C135.049 111.64 134.872 111.189 134.88 110.722C134.888 110.255 135.081 109.81 135.416 109.485L137.594 107.381L137.468 107.251L135.16 109.48C134.825 109.806 134.633 110.251 134.625 110.718C134.616 111.185 134.793 111.636 135.117 111.973C135.293 112.154 135.506 112.296 135.742 112.388C135.977 112.479 136.23 112.519 136.482 112.505Z" fill="black"/>
<path d="M160.176 100.912C160.511 100.587 160.704 100.142 160.712 99.6748C160.72 99.2079 160.543 98.7566 160.22 98.4197C159.894 98.0847 159.449 97.8922 158.982 97.8841C158.515 97.8759 158.064 98.053 157.727 98.3765L155.354 100.669L157.803 103.204L160.176 100.912Z" fill="#39BDE7"/>
<path d="M155.625 105.308L157.933 103.079L155.484 100.543L153.176 102.772C152.841 103.098 152.649 103.543 152.641 104.01C152.632 104.476 152.809 104.928 153.133 105.265C153.458 105.6 153.903 105.792 154.37 105.8C154.837 105.808 155.288 105.631 155.625 105.308Z" fill="#64D3BF"/>
<path opacity="0.2" d="M154.498 105.796C154.077 105.76 153.683 105.573 153.389 105.269C153.065 104.932 152.888 104.481 152.896 104.014C152.904 103.547 153.097 103.102 153.432 102.777L155.61 100.673L155.484 100.543L153.176 102.772C152.841 103.098 152.649 103.543 152.641 104.01C152.632 104.476 152.809 104.928 153.133 105.265C153.309 105.446 153.522 105.588 153.758 105.679C153.993 105.771 154.246 105.811 154.498 105.796Z" fill="black"/>
<path d="M156.172 114.814C155.851 114.475 155.408 114.277 154.942 114.263C154.475 114.249 154.021 114.421 153.681 114.74C153.342 115.062 153.144 115.504 153.13 115.971C153.116 116.438 153.288 116.891 153.607 117.232L155.87 119.633L158.435 117.215L156.172 114.814Z" fill="#39BDE7"/>
<path d="M160.512 119.418L158.311 117.083L155.746 119.501L157.947 121.836C158.269 122.175 158.711 122.373 159.178 122.387C159.645 122.401 160.098 122.229 160.439 121.91C160.778 121.588 160.976 121.146 160.989 120.679C161.003 120.212 160.832 119.759 160.512 119.418Z" fill="#64D3BF"/>
<path opacity="0.2" d="M160.987 120.551C160.946 120.972 160.754 121.364 160.446 121.654C160.106 121.974 159.652 122.145 159.185 122.131C158.719 122.118 158.276 121.92 157.955 121.581L155.878 119.377L155.746 119.501L157.947 121.836C158.269 122.175 158.711 122.373 159.178 122.387C159.645 122.401 160.098 122.229 160.439 121.91C160.622 121.736 160.767 121.525 160.861 121.29C160.956 121.056 160.999 120.804 160.987 120.551Z" fill="black"/>
<path d="M143.714 114.622C143.393 114.283 142.95 114.085 142.484 114.072C142.017 114.058 141.563 114.229 141.223 114.549C140.884 114.87 140.686 115.312 140.672 115.779C140.658 116.246 140.83 116.7 141.149 117.04L143.412 119.441L145.977 117.023L143.714 114.622Z" fill="#39BDE7"/>
<path d="M148.054 119.226L145.853 116.891L143.288 119.309L145.489 121.644C145.811 121.983 146.253 122.181 146.72 122.195C147.187 122.209 147.64 122.037 147.981 121.718C148.32 121.397 148.518 120.954 148.532 120.487C148.545 120.02 148.374 119.567 148.054 119.226Z" fill="#64D3BF"/>
<path opacity="0.2" d="M148.529 120.359C148.488 120.78 148.296 121.172 147.988 121.463C147.648 121.782 147.194 121.953 146.727 121.94C146.261 121.926 145.818 121.728 145.497 121.389L143.42 119.186L143.288 119.31L145.489 121.645C145.811 121.983 146.253 122.181 146.72 122.195C147.187 122.209 147.64 122.037 147.981 121.718C148.165 121.544 148.309 121.333 148.403 121.099C148.498 120.864 148.541 120.612 148.529 120.359Z" fill="black"/>
<path d="M147.221 108.299C147.221 108.885 147.019 109.453 146.648 109.907C146.278 110.361 145.762 110.673 145.187 110.79C144.852 110.858 144.506 110.858 144.171 110.79C143.596 110.673 143.08 110.361 142.71 109.907C142.339 109.453 142.137 108.885 142.137 108.299C142.137 107.713 142.339 107.145 142.71 106.691C143.08 106.237 143.596 105.925 144.171 105.808C144.506 105.74 144.852 105.74 145.187 105.808C145.762 105.925 146.278 106.237 146.648 106.691C147.019 107.145 147.221 107.713 147.221 108.299Z" fill="#64D3BF"/>
<path opacity="0.2" d="M145.187 105.808V110.79C144.852 110.858 144.506 110.858 144.171 110.79V105.808C144.506 105.74 144.852 105.74 145.187 105.808Z" fill="black"/>
<path d="M148.371 98.1409C148.371 98.7269 148.169 99.2949 147.798 99.7489C147.428 100.203 146.912 100.515 146.337 100.632C146.002 100.7 145.656 100.7 145.321 100.632C144.747 100.515 144.231 100.203 143.86 99.7488C143.489 99.2948 143.287 98.7268 143.287 98.1409C143.287 97.5549 143.489 96.9869 143.86 96.533C144.231 96.079 144.747 95.767 145.321 95.6497C145.656 95.5819 146.002 95.5819 146.337 95.6497C146.912 95.7669 147.428 96.0789 147.798 96.5329C148.169 96.9868 148.371 97.5549 148.371 98.1409Z" fill="#64D3BF"/>
<path opacity="0.2" d="M146.337 95.6497V100.632C146.002 100.7 145.656 100.7 145.32 100.632V95.6497C145.656 95.5819 146.002 95.5819 146.337 95.6497Z" fill="black"/>
<path d="M148.371 112.707C148.371 113.293 148.169 113.861 147.798 114.315C147.428 114.769 146.912 115.081 146.337 115.198C146.002 115.266 145.656 115.266 145.321 115.198C144.747 115.081 144.231 114.769 143.86 114.315C143.489 113.861 143.287 113.293 143.287 112.707C143.287 112.121 143.489 111.553 143.86 111.099C144.231 110.645 144.747 110.333 145.321 110.216C145.656 110.148 146.002 110.148 146.337 110.216C146.912 110.333 147.428 110.645 147.798 111.099C148.169 111.553 148.371 112.121 148.371 112.707Z" fill="#64D3BF"/>
<path opacity="0.2" d="M146.337 110.216V115.198C146.002 115.266 145.656 115.266 145.32 115.198V110.216C145.656 110.148 146.002 110.148 146.337 110.216Z" fill="black"/>
<path d="M154.696 119.798C154.696 120.384 154.493 120.952 154.123 121.406C153.752 121.86 153.236 122.172 152.662 122.29C152.326 122.357 151.981 122.357 151.645 122.29C151.071 122.172 150.555 121.86 150.185 121.406C149.814 120.952 149.612 120.384 149.612 119.798C149.612 119.212 149.814 118.644 150.185 118.19C150.555 117.737 151.071 117.424 151.645 117.307C151.981 117.239 152.326 117.239 152.662 117.307C153.236 117.424 153.752 117.736 154.123 118.19C154.493 118.644 154.696 119.212 154.696 119.798Z" fill="#64D3BF"/>
<path opacity="0.2" d="M152.662 117.307V122.29C152.326 122.357 151.981 122.357 151.645 122.29V117.307C151.981 117.239 152.326 117.239 152.662 117.307Z" fill="black"/>
<path d="M160.283 106.751C160.705 107.158 160.973 107.697 161.043 108.279C161.113 108.861 160.979 109.449 160.665 109.944C160.481 110.233 160.241 110.482 159.96 110.676C159.477 111.008 158.894 111.163 158.31 111.115C157.726 111.067 157.177 110.818 156.755 110.411C156.333 110.005 156.064 109.465 155.995 108.883C155.925 108.301 156.058 107.713 156.372 107.218C156.556 106.93 156.796 106.681 157.078 106.486C157.561 106.154 158.144 105.999 158.728 106.047C159.312 106.096 159.861 106.344 160.283 106.751Z" fill="#64D3BF"/>
<path opacity="0.2" d="M157.078 106.486L160.665 109.944C160.481 110.233 160.241 110.481 159.96 110.676L156.372 107.218C156.556 106.93 156.796 106.681 157.078 106.486Z" fill="black"/>
<path d="M161.049 112.309C161.471 112.716 161.74 113.256 161.81 113.838C161.879 114.42 161.746 115.008 161.432 115.502C161.248 115.791 161.008 116.04 160.726 116.234C160.243 116.566 159.661 116.721 159.077 116.673C158.493 116.625 157.943 116.376 157.521 115.97C157.099 115.563 156.831 115.023 156.761 114.441C156.692 113.86 156.825 113.272 157.139 112.777C157.323 112.488 157.563 112.239 157.845 112.045C158.327 111.713 158.91 111.558 159.494 111.606C160.078 111.654 160.628 111.903 161.049 112.309Z" fill="#64D3BF"/>
<path opacity="0.2" d="M157.845 112.045L161.432 115.502C161.248 115.791 161.008 116.04 160.726 116.234L157.139 112.777C157.323 112.488 157.563 112.239 157.845 112.045Z" fill="black"/>
<path d="M138.242 113.651C138.664 114.058 138.933 114.598 139.002 115.179C139.072 115.761 138.939 116.349 138.624 116.844C138.44 117.133 138.2 117.382 137.919 117.576C137.436 117.908 136.853 118.063 136.269 118.015C135.685 117.967 135.136 117.718 134.714 117.312C134.292 116.905 134.024 116.365 133.954 115.783C133.884 115.201 134.018 114.613 134.332 114.119C134.516 113.83 134.756 113.581 135.037 113.386C135.52 113.054 136.103 112.899 136.687 112.948C137.271 112.996 137.82 113.244 138.242 113.651Z" fill="#64D3BF"/>
<path opacity="0.2" d="M135.037 113.386L138.624 116.844C138.44 117.132 138.2 117.381 137.919 117.576L134.331 114.118C134.515 113.83 134.755 113.581 135.037 113.386Z" fill="black"/>
<path opacity="0.2" d="M130.037 68H129.079V75.0914H130.037V68Z" fill="black"/>
<path opacity="0.2" d="M135.595 68H134.637V75.0914H135.595V68Z" fill="black"/>
<path opacity="0.2" d="M141.153 68H140.195V75.0914H141.153V68Z" fill="black"/>
<path opacity="0.2" d="M146.712 68H145.753V75.0914H146.712V68Z" fill="black"/>
<path opacity="0.2" d="M152.27 68H151.311V75.0914H152.27V68Z" fill="black"/>
<path opacity="0.2" d="M157.828 68H156.87V75.0914H157.828V68Z" fill="black"/>
<path opacity="0.2" d="M163.386 68H162.428V75.0914H163.386V68Z" fill="black"/>
<path d="M236.557 152.46V133.565C236.557 126.85 239.224 120.41 243.972 115.662C248.721 110.914 255.161 108.246 261.876 108.246C268.591 108.246 275.031 110.914 279.779 115.662C284.527 120.41 287.195 126.85 287.195 133.565V152.46C287.194 153.362 286.835 154.226 286.197 154.864C285.56 155.501 284.695 155.86 283.794 155.861H239.958C239.056 155.86 238.192 155.501 237.554 154.864C236.916 154.226 236.558 153.362 236.557 152.46Z" fill="#1D3580"/>
<path d="M299.314 398.353L290.384 400.825L276.601 367.556L289.781 363.909L299.314 398.353Z" fill="#FFB8B8"/>
<path d="M283.299 400.039L300.521 395.272L303.523 406.116L275.456 413.883C275.062 412.459 274.952 410.972 275.133 409.505C275.314 408.039 275.782 406.622 276.51 405.337C277.239 404.051 278.213 402.921 279.378 402.012C280.543 401.103 281.875 400.433 283.299 400.039Z" fill="#1D3580"/>
<path d="M206.211 405.223H196.945L192.537 369.483H206.213L206.211 405.223Z" fill="#FFB8B8"/>
<path d="M190.327 402.575H208.196V413.826H179.075C179.075 412.349 179.366 410.885 179.932 409.52C180.497 408.155 181.326 406.915 182.371 405.87C183.416 404.825 184.656 403.997 186.021 403.431C187.386 402.866 188.849 402.575 190.327 402.575Z" fill="#1D3580"/>
<path d="M195.038 205.485C195.7 206.377 196.549 207.114 197.526 207.643C198.503 208.173 199.584 208.481 200.693 208.547C201.802 208.613 202.912 208.435 203.945 208.026C204.978 207.617 205.908 206.986 206.671 206.178L231.303 217.256L229.062 203.402L206.015 195.005C204.573 193.814 202.744 193.193 200.875 193.26C199.005 193.327 197.225 194.078 195.872 195.369C194.519 196.661 193.687 198.404 193.533 200.268C193.379 202.133 193.915 203.989 195.038 205.485Z" fill="#F9CACA"/>
<path d="M246.216 288.801C238.477 288.801 230.466 287.648 223.732 284.22C220.157 282.436 216.99 279.933 214.426 276.869C211.863 273.804 209.96 270.243 208.836 266.41C205.328 255.3 209.752 244.386 214.03 233.831C216.681 227.291 219.185 221.113 219.834 215.024L220.061 212.862C221.073 203.152 221.947 194.766 226.786 191.621C229.294 189.99 232.665 189.898 237.095 191.336L278.697 204.851L277.168 283.823L276.915 283.908C276.697 283.981 262.031 288.801 246.216 288.801Z" fill="#1D3580"/>
<path d="M236.368 166.751C236.368 166.751 256.774 160.704 272.646 162.972C272.646 162.972 263.576 212.854 266.599 229.481C269.623 246.109 214.072 235.905 225.409 220.034L229.188 201.139C229.188 201.139 221.63 193.581 228.432 184.512L236.368 166.751Z" fill="#39BDE7"/>
<path d="M226.331 287.304L201.181 282.589L209.961 215.016C210.552 213.129 224.153 170.316 230.331 168C234.816 166.42 239.403 165.146 244.061 164.185L244.956 164.006L239.913 171.571L219.836 219.68L226.331 287.304Z" fill="#1D3580"/>
<path d="M213.226 396.942L180.731 391.526L198.967 317.063L226.102 215.229L226.37 217.038C226.391 217.172 228.926 230.476 266.541 224.573L266.872 224.521L266.963 224.843L312.425 385.477L275.399 391.648L241.628 274.45L213.226 396.942Z" fill="#314EA7"/>
<path d="M258.266 299.95L258.286 299.378C258.309 298.743 260.544 235.61 259.797 210.219C259.048 184.742 267.296 162.679 267.38 162.46L267.447 162.282L267.629 162.23C278.301 159.181 287.559 168.28 287.651 168.373L287.781 168.503L284.742 193.577L297.753 284.757L258.266 299.95Z" fill="#1D3580"/>
<path d="M256.673 155.421C266.925 155.421 275.236 147.11 275.236 136.858C275.236 126.606 266.925 118.295 256.673 118.295C246.421 118.295 238.11 126.606 238.11 136.858C238.11 147.11 246.421 155.421 256.673 155.421Z" fill="#F9CACA"/>
<path d="M230.567 135.077C230.573 129.767 232.685 124.676 236.44 120.921C240.194 117.166 245.285 115.054 250.595 115.048H254.374C259.684 115.054 264.775 117.166 268.53 120.921C272.285 124.676 274.397 129.767 274.403 135.077V135.454H266.417L263.693 127.827L263.148 135.454H259.021L257.646 131.606L257.371 135.454H230.567V135.077Z" fill="#1D3580"/>
<path d="M254.846 157.986C254.471 157.478 254.247 156.875 254.2 156.245C254.153 155.616 254.285 154.986 254.58 154.428C258.585 146.811 264.192 132.737 256.749 124.057L256.214 123.433H277.82V155.872L258.193 159.335C257.994 159.37 257.793 159.388 257.591 159.388C257.055 159.388 256.527 159.261 256.05 159.017C255.573 158.773 255.16 158.42 254.846 157.986Z" fill="#1D3580"/>
<path d="M167.856 24.0558C152.738 11.2983 134.237 3.21024 114.605 0.775758C94.9732 -1.65872 75.0571 1.66538 57.28 10.3435C39.503 19.0217 24.6316 32.6798 14.4755 49.6558C4.3193 66.6318 -0.683742 86.1938 0.0751363 105.961C0.834015 125.729 7.3221 144.85 18.7499 160.997C30.1777 177.145 46.0524 189.622 64.4424 196.912C82.8325 204.202 102.945 205.989 122.332 202.057C141.719 198.124 159.546 188.642 173.642 174.763L298.815 280.383C300.719 281.993 303.186 282.78 305.671 282.572C308.156 282.364 310.457 281.177 312.067 279.273C313.677 277.368 314.465 274.902 314.257 272.417C314.049 269.931 312.862 267.631 310.957 266.02L310.943 266.009L185.771 160.389C200.312 139.519 206.535 113.971 203.222 88.7522C199.908 63.5331 187.296 40.4604 167.856 24.0558ZM159.787 150.218C150.036 161.775 137.076 170.18 122.547 174.372C108.019 178.563 92.5735 178.352 78.1648 173.766C63.756 169.179 51.0309 160.423 41.5987 148.604C32.1664 136.785 26.4506 122.435 25.1742 107.368C23.8977 92.3005 27.1178 77.1932 34.4273 63.9561C41.7369 50.719 52.8075 39.9467 66.2392 33.0014C79.671 26.0561 94.8607 23.2498 109.887 24.9373C124.914 26.6248 139.103 32.7303 150.66 42.4818C158.333 48.9566 164.656 56.8793 169.268 65.7977C173.879 74.7161 176.689 84.4554 177.536 94.4597C178.384 104.464 177.253 114.537 174.207 124.104C171.162 133.671 166.262 142.545 159.787 150.218Z" fill="#8B78FF"/>
<path opacity="0.15" d="M52.0506 159.346C37.3837 146.969 27.9078 129.528 25.5044 110.488C23.1009 91.4478 27.9458 72.1999 39.0771 56.5664C37.6153 58.0386 36.2021 59.5803 34.8375 61.1918C28.3628 68.8651 23.4628 77.7387 20.4174 87.3057C17.3719 96.8728 16.2407 106.946 17.0883 116.95C17.9358 126.955 20.7456 136.694 25.3571 145.612C29.9686 154.531 36.2915 162.453 43.9649 168.928C51.6383 175.403 60.5118 180.303 70.0789 183.348C79.6459 186.394 89.7191 187.525 99.7234 186.677C109.728 185.83 119.467 183.02 128.385 178.409C137.304 173.797 145.226 167.474 151.701 159.801C153.063 158.187 154.345 156.535 155.547 154.844C142.009 168.446 123.851 176.46 104.678 177.294C85.5045 178.128 66.7187 171.721 52.0506 159.346Z" fill="#353A3F"/>
<path d="M262.633 237.937C263.712 238.201 264.836 238.225 265.926 238.007C267.015 237.79 268.044 237.336 268.939 236.678C269.835 236.02 270.575 235.173 271.107 234.198C271.64 233.223 271.953 232.143 272.023 231.034L298.047 223.811L287.468 214.588L264.377 222.861C262.506 222.867 260.703 223.558 259.308 224.805C257.913 226.051 257.024 227.766 256.809 229.624C256.594 231.482 257.068 233.355 258.141 234.887C259.215 236.419 260.813 237.504 262.633 237.937Z" fill="#F9CACA"/>
<path d="M273.449 234.113L271.866 219.068L293.604 207.075L279.431 189.918L281.744 170.646L287.503 168.178L287.682 168.408C290.397 171.9 314.214 202.631 314.214 206.43C314.214 210.332 309.658 221.79 303.424 224.907C297.411 227.913 274.832 233.757 273.874 234.004L273.449 234.113Z" fill="#1D3580"/>
<path d="M386.244 414.836H98.288C98.0876 414.836 97.8953 414.756 97.7536 414.614C97.6118 414.472 97.5322 414.28 97.5322 414.08C97.5322 413.879 97.6118 413.687 97.7536 413.545C97.8953 413.404 98.0876 413.324 98.288 413.324H386.244C386.445 413.324 386.637 413.404 386.779 413.545C386.92 413.687 387 413.879 387 414.08C387 414.28 386.92 414.472 386.779 414.614C386.637 414.756 386.445 414.836 386.244 414.836Z" fill="#C4C4C4"/>
</svg>
