<svg width="465" height="501" viewBox="0 0 465 501" fill="none" xmlns="http://www.w3.org/2000/svg">
<path d="M163.898 0.000350399L0 43.6653L23.1167 130.435L187.015 86.7701L163.898 0.000350399Z" fill="#E6E6E6"/>
<path d="M26.653 124.33L180.91 83.2337L160.362 6.10501L6.1048 47.2014L26.653 124.33Z" fill="white"/>
<path d="M75.8393 40.4235L20.7474 55.1008L35.4247 110.193L90.5166 95.5154L75.8393 40.4235Z" fill="#C4C4C4"/>
<path d="M69.1988 69.4812C70.1497 69.2278 70.7151 68.2517 70.4618 67.3009C70.2085 66.35 69.2323 65.7846 68.2815 66.0379C67.3307 66.2912 66.7652 67.2674 67.0185 68.2182C67.2719 69.169 68.248 69.7345 69.1988 69.4812Z" fill="#4A5056"/>
<path d="M61.8777 65.5319C62.6384 65.3292 63.0496 64.3941 62.7963 63.4433C62.543 62.4925 61.721 61.886 60.9604 62.0886C60.1997 62.2913 59.7884 63.2264 60.0417 64.1772C60.295 65.128 61.117 65.7345 61.8777 65.5319Z" fill="#4A5056"/>
<path d="M61.796 69.4828C61.2211 69.6361 60.7005 69.9477 60.2921 70.3829C59.6863 69.8423 59.0193 69.376 58.3052 68.9939C58.2894 68.9079 58.273 68.8218 58.2501 68.7358C58.0854 68.1158 57.7438 67.5575 57.2679 67.1305C56.792 66.7035 56.2029 66.4267 55.574 66.3346C54.9451 66.2425 54.3042 66.3392 53.7314 66.6126C53.1585 66.8861 52.6789 67.3241 52.3525 67.8722C51.4837 67.9751 50.6328 68.1938 49.8221 68.5225C49.816 68.4976 49.8127 68.4727 49.8061 68.4478C49.6659 67.9188 49.3966 67.4331 49.0228 67.0352C48.6491 66.6373 48.1829 66.34 47.667 66.1704C47.1511 66.0008 46.6019 65.9644 46.0699 66.0646C45.5379 66.1648 45.04 66.3983 44.6219 66.7437C44.2039 67.0892 43.8789 67.5355 43.6769 68.0418C43.4749 68.5481 43.4023 69.0982 43.4658 69.6416C43.5293 70.185 43.7268 70.7044 44.0402 71.1521C44.3536 71.5999 44.7729 71.9617 45.2597 72.2043C44.8572 72.7967 44.5178 73.4306 44.2472 74.0954C43.775 73.8737 43.2574 73.7697 42.7383 73.7923C42.2193 73.8149 41.7139 73.9634 41.2649 74.2252C40.816 74.4871 40.4367 74.8546 40.1592 75.2966C39.8816 75.7386 39.714 76.2422 39.6704 76.7647C39.6269 77.2873 39.7087 77.8134 39.909 78.2986C40.1092 78.7838 40.422 79.2138 40.8209 79.5522C41.2198 79.8907 41.6931 80.1276 42.2007 80.243C42.7083 80.3583 43.2353 80.3487 43.7371 80.215L43.7468 80.2119C43.7767 80.3446 43.807 80.4773 43.8423 80.6099C44.0542 81.4048 44.3601 82.1714 44.7534 82.8933C43.9187 83.4941 43.2501 84.2999 42.8103 85.2351C42.3704 86.1703 42.1738 87.2042 42.2388 88.2399C42.3039 89.2756 42.6284 90.2791 43.182 91.1561C43.7356 92.0332 44.5001 92.7551 45.4038 93.254C46.3075 93.753 47.3207 94.0127 48.3484 94.0088C49.3761 94.0048 50.3845 93.7373 51.279 93.2314C52.1735 92.7256 52.9248 91.9979 53.4624 91.1166C53.9999 90.2354 54.3061 89.2295 54.3522 88.1933C56.6386 88.0366 58.7999 87.0992 60.4811 85.5352C60.808 85.958 61.2322 86.2939 61.7165 86.5133C62.2009 86.7328 62.7306 86.8292 63.2591 86.794C63.7876 86.7589 64.2988 86.5932 64.7477 86.3116C65.1967 86.03 65.5697 85.6411 65.8341 85.179C66.0984 84.7169 66.2459 84.1958 66.2638 83.6613C66.2816 83.1269 66.1692 82.5955 65.9364 82.1137C65.7035 81.632 65.3574 81.2147 64.9284 80.8985C64.4994 80.5822 64.0006 80.3767 63.4759 80.3C63.8067 78.8213 63.8045 77.2847 63.4693 75.8034L63.4793 75.8013C64.3082 75.5804 65.0144 75.0358 65.4426 74.2872C65.8708 73.5386 65.986 72.6473 65.7628 71.8095C65.5395 70.9716 64.9962 70.2558 64.2523 69.8194C63.5084 69.3831 62.6248 69.262 61.796 69.4828Z" fill="#4A5056"/>
<path d="M54.8128 44.5507L38.2853 48.9539L39.0191 51.7085L55.5467 47.3053L54.8128 44.5507Z" fill="#E6E6E6"/>
<path d="M146.081 21.7104L90.9895 36.3877L105.667 91.4796L160.759 76.8023L146.081 21.7104Z" fill="#C4C4C4"/>
<path d="M138.772 63.4839C139.153 63.3825 139.379 62.9921 139.278 62.6118C139.176 62.2314 138.786 62.0052 138.406 62.1066C138.025 62.2079 137.799 62.5984 137.9 62.9787C138.002 63.359 138.392 63.5852 138.772 63.4839Z" fill="#4A5056"/>
<path d="M135.467 62.1518C135.848 62.0505 136.074 61.6601 135.973 61.2797C135.871 60.8994 135.481 60.6732 135.1 60.7745C134.72 60.8759 134.494 61.2663 134.595 61.6467C134.697 62.027 135.087 62.2532 135.467 62.1518Z" fill="#4A5056"/>
<path d="M135.217 64.0637C134.96 64.1323 134.726 64.2698 134.543 64.461C134.274 64.2267 133.977 64.025 133.659 63.8602C133.653 63.8227 133.645 63.7851 133.635 63.7476C133.564 63.4774 133.413 63.2345 133.201 63.0494C132.99 62.8643 132.728 62.7452 132.447 62.7067C132.167 62.6683 131.88 62.7124 131.623 62.8334C131.367 62.9544 131.151 63.1471 131.004 63.3873C130.616 63.4347 130.235 63.5327 129.872 63.6785C129.869 63.6677 129.868 63.6568 129.865 63.6459C129.804 63.4154 129.685 63.2041 129.519 63.0314C129.354 62.8587 129.146 62.7302 128.916 62.6576C128.686 62.585 128.441 62.5707 128.203 62.616C127.965 62.6612 127.742 62.7646 127.555 62.9167C127.367 63.0687 127.221 63.2645 127.129 63.4862C127.037 63.7078 127.003 63.9482 127.03 64.1853C127.057 64.4224 127.144 64.6487 127.282 64.8433C127.421 65.0379 127.607 65.1947 127.824 65.2992C127.643 65.5591 127.489 65.8368 127.366 66.1279C127.156 66.0324 126.925 65.9885 126.693 65.9998C126.461 66.0112 126.235 66.0775 126.034 66.1931C125.833 66.3087 125.662 66.4703 125.537 66.6641C125.412 66.8579 125.336 67.0782 125.315 67.3065C125.294 67.5348 125.329 67.7643 125.417 67.9756C125.505 68.1869 125.643 68.3738 125.821 68.5204C125.998 68.6671 126.208 68.7692 126.435 68.8181C126.661 68.867 126.897 68.8613 127.121 68.8015L127.125 68.8001C127.138 68.858 127.152 68.9158 127.167 68.9737C127.259 69.3201 127.394 69.654 127.567 69.9681C127.193 70.2328 126.892 70.5866 126.693 70.9962C126.494 71.4058 126.403 71.8579 126.429 72.3099C126.455 72.762 126.597 73.1992 126.842 73.5806C127.087 73.962 127.426 74.2751 127.828 74.4904C128.23 74.7057 128.682 74.8162 129.141 74.8115C129.6 74.8068 130.051 74.6872 130.452 74.4637C130.853 74.2403 131.191 73.9204 131.433 73.534C131.676 73.1477 131.816 72.7076 131.839 72.255C132.861 72.1801 133.829 71.7646 134.584 71.0769C134.729 71.2605 134.917 71.406 135.133 71.5004C135.349 71.5949 135.585 71.6355 135.821 71.6186C136.057 71.6017 136.286 71.5279 136.487 71.4037C136.689 71.2795 136.856 71.1086 136.976 70.906C137.095 70.7035 137.162 70.4755 137.172 70.2421C137.181 70.0087 137.133 69.7769 137.03 69.5673C136.927 69.3576 136.774 69.1764 136.583 69.0395C136.393 68.9026 136.17 68.8143 135.936 68.7823C136.088 68.1357 136.092 67.4647 135.946 66.8188L135.951 66.8179C136.322 66.7191 136.638 66.4793 136.832 66.1512C137.025 65.8231 137.079 65.4335 136.982 65.0683C136.885 64.7031 136.644 64.3921 136.313 64.2037C135.982 64.0153 135.588 63.9649 135.217 64.0637Z" fill="#4A5056"/>
<path d="M140.796 48.932C141.176 48.8307 141.361 48.2861 141.209 47.7156C141.057 47.1451 140.626 46.7648 140.245 46.8661C139.865 46.9674 139.68 47.512 139.832 48.0825C139.984 48.653 140.415 49.0334 140.796 48.932Z" fill="#4A5056"/>
<path d="M141.256 45.1218C141.636 45.0205 141.862 44.63 141.761 44.2497C141.66 43.8694 141.269 43.6432 140.889 43.7445C140.508 43.8458 140.282 44.2363 140.384 44.6166C140.485 44.997 140.875 45.2231 141.256 45.1218Z" fill="#4A5056"/>
<path d="M138.967 45.0316C138.828 44.7993 138.626 44.6103 138.383 44.4855C138.546 44.1544 138.669 43.8057 138.749 43.4467C138.785 43.4293 138.821 43.4115 138.856 43.3909C139.11 43.2427 139.314 43.0248 139.443 42.7644C139.573 42.504 139.622 42.2127 139.584 41.9266C139.547 41.6406 139.424 41.3726 139.232 41.156C139.04 40.9394 138.787 40.7839 138.504 40.7087C138.35 40.3419 138.148 39.9972 137.902 39.6835C137.912 39.6778 137.923 39.6733 137.933 39.6673C138.149 39.541 138.33 39.3636 138.46 39.1514C138.589 38.9392 138.662 38.699 138.673 38.4528C138.684 38.2066 138.631 37.9623 138.521 37.7423C138.41 37.5222 138.245 37.3335 138.041 37.1934C137.836 37.0533 137.598 36.9662 137.35 36.9403C137.101 36.9144 136.849 36.9503 136.617 37.0449C136.384 37.1395 136.179 37.2896 136.021 37.4816C135.862 37.6736 135.754 37.9012 135.708 38.1437C135.396 38.0408 135.073 37.9705 134.746 37.9341C134.785 37.7006 134.767 37.4618 134.692 37.2378C134.618 37.0139 134.489 36.8114 134.318 36.6475C134.146 36.4836 133.936 36.3632 133.707 36.2964C133.477 36.2295 133.233 36.2182 132.997 36.2635C132.761 36.3088 132.539 36.4092 132.349 36.5564C132.16 36.7035 132.009 36.8931 131.909 37.1089C131.809 37.3248 131.763 37.5607 131.775 37.7966C131.787 38.0325 131.857 38.2615 131.979 38.4642L131.981 38.4681C131.927 38.4974 131.872 38.527 131.817 38.5587C131.493 38.7491 131.192 38.977 130.922 39.2376C130.553 38.9469 130.113 38.754 129.646 38.677C129.178 38.5999 128.696 38.6412 128.247 38.7971C127.797 38.9529 127.394 39.2181 127.076 39.5678C126.757 39.9175 126.533 40.3402 126.425 40.7963C126.317 41.2524 126.329 41.7269 126.458 42.1753C126.588 42.6237 126.832 43.0312 127.166 43.3597C127.501 43.6881 127.916 43.9268 128.372 44.0531C128.829 44.1795 129.311 44.1895 129.775 44.0822C130.128 45.0615 130.812 45.8902 131.712 46.4321C131.566 46.6269 131.47 46.8535 131.433 47.092C131.397 47.3306 131.42 47.5738 131.501 47.8003C131.582 48.0268 131.719 48.2297 131.9 48.3912C132.08 48.5526 132.298 48.6677 132.535 48.7263C132.772 48.7849 133.021 48.7853 133.259 48.7273C133.497 48.6693 133.718 48.5549 133.902 48.3939C134.086 48.2329 134.227 48.0304 134.314 47.8041C134.4 47.5779 134.429 47.3347 134.397 47.0961C135.092 47.0587 135.77 46.8687 136.383 46.54L136.385 46.5441C136.485 46.7101 136.616 46.8549 136.773 46.9702C136.93 47.0855 137.108 47.1691 137.299 47.2162C137.489 47.2633 137.687 47.273 137.882 47.2447C138.076 47.2164 138.264 47.1507 138.434 47.0513C138.603 46.952 138.752 46.8209 138.87 46.6656C138.989 46.5103 139.076 46.3338 139.125 46.1462C139.175 45.9587 139.186 45.7637 139.159 45.5724C139.132 45.3812 139.067 45.1974 138.967 45.0316Z" fill="#4A5056"/>
<path d="M110.498 45.9409C110.878 45.8396 111.104 45.4491 111.003 45.0688C110.902 44.6885 110.511 44.4623 110.131 44.5636C109.751 44.6649 109.524 45.0554 109.626 45.4357C109.727 45.816 110.118 46.0422 110.498 45.9409Z" fill="#4A5056"/>
<path d="M106.549 47.7302C106.93 47.6289 107.156 47.2384 107.054 46.8581C106.953 46.4778 106.563 46.2516 106.182 46.3529C105.802 46.4542 105.576 46.8447 105.677 47.225C105.779 47.6054 106.169 47.8315 106.549 47.7302Z" fill="#4A5056"/>
<path d="M108.501 48.445C108.374 48.6857 108.316 48.956 108.335 49.2259C107.965 49.2666 107.601 49.3505 107.251 49.4758C107.217 49.4551 107.183 49.4345 107.147 49.4162C106.888 49.2838 106.595 49.2299 106.304 49.2612C106.013 49.2924 105.737 49.4075 105.51 49.592C105.283 49.7765 105.116 50.0223 105.03 50.2987C104.943 50.5751 104.941 50.8699 105.023 51.1464C104.787 51.4711 104.596 51.8248 104.454 52.1983C104.443 52.1928 104.434 52.1863 104.423 52.181C104.203 52.068 103.956 52.0117 103.706 52.0173C103.457 52.0229 103.212 52.0902 102.995 52.213C102.777 52.3359 102.594 52.5103 102.462 52.7204C102.33 52.9305 102.254 53.1694 102.239 53.4154C102.225 53.6614 102.273 53.9065 102.38 54.1282C102.487 54.35 102.649 54.5413 102.851 54.6847C103.053 54.828 103.288 54.9188 103.536 54.9487C103.783 54.9786 104.035 54.9466 104.268 54.8558C104.341 55.1714 104.448 55.4782 104.587 55.7712C104.365 55.8635 104.169 56.0068 104.015 56.189C103.862 56.3712 103.754 56.5869 103.702 56.818C103.65 57.049 103.655 57.2885 103.717 57.5163C103.779 57.7441 103.895 57.9534 104.057 58.1266C104.219 58.2997 104.42 58.4316 104.645 58.5111C104.87 58.5906 105.112 58.6153 105.349 58.5832C105.587 58.5511 105.813 58.4631 106.01 58.3266C106.207 58.1902 106.367 58.0092 106.479 57.7992L106.481 57.7949C106.535 57.8251 106.588 57.8551 106.644 57.8834C106.976 58.0529 107.328 58.182 107.693 58.2681C107.634 58.7322 107.696 59.2023 107.873 59.6345C108.049 60.0666 108.335 60.4466 108.702 60.7387C109.069 61.0308 109.507 61.2254 109.973 61.3044C110.439 61.3833 110.919 61.344 111.367 61.19C111.816 61.0361 112.218 60.7726 112.536 60.4243C112.855 60.076 113.079 59.6542 113.188 59.1987C113.297 58.7431 113.287 58.2687 113.158 57.8199C113.03 57.3711 112.789 56.9627 112.456 56.6329C113.115 55.8131 113.473 54.7988 113.472 53.7567C113.715 53.7745 113.96 53.733 114.184 53.636C114.408 53.5389 114.606 53.3893 114.758 53.2001C114.911 53.0109 115.014 52.788 115.06 52.551C115.105 52.3139 115.091 52.07 115.018 51.8406C114.946 51.6112 114.817 51.4033 114.643 51.2352C114.47 51.0671 114.257 50.944 114.023 50.8766C113.789 50.8091 113.541 50.7995 113.302 50.8485C113.062 50.8975 112.838 51.0037 112.649 51.1577C112.257 50.5975 111.741 50.1323 111.14 49.7964L111.143 49.7923C111.234 49.6205 111.29 49.4329 111.308 49.2402C111.326 49.0475 111.305 48.8535 111.247 48.6692C111.189 48.485 111.095 48.3142 110.969 48.1665C110.844 48.0189 110.69 47.8973 110.516 47.8088C110.343 47.7202 110.153 47.6664 109.958 47.6505C109.762 47.6345 109.565 47.6568 109.378 47.7158C109.191 47.7749 109.017 47.8697 108.867 47.9949C108.716 48.12 108.592 48.2729 108.501 48.445Z" fill="#4A5056"/>
<path d="M124.366 26.0205L108.527 30.2402L109.261 32.9948L125.1 28.7751L124.366 26.0205Z" fill="#E6E6E6"/>
<path d="M65.4629 203H65.271C57.6366 203 50.8849 207.148 47.0012 213.27C43.1174 207.148 36.3657 203 28.7313 203H28.5394C22.81 203.056 17.3336 205.432 13.3004 209.611C9.26717 213.79 7.00299 219.435 6.99988 225.319C6.99988 232.625 10.1161 242.993 16.1924 251.523C27.7693 267.778 47.0012 282 47.0012 282C47.0012 282 66.233 267.781 77.8074 251.523C83.8862 242.993 86.9999 232.625 86.9999 225.319C86.9968 219.435 84.7329 213.791 80.7002 209.612C76.6675 205.433 71.1918 203.057 65.4629 203ZM62.7177 252.774C61.8482 252.771 61.0001 252.497 60.2846 251.99C59.5691 251.483 59.0197 250.765 58.7086 249.931H54.1443C53.8438 249.929 53.5513 249.831 53.3077 249.65C53.0642 249.469 52.8817 249.215 52.7858 248.922L51.3838 244.585L46.9474 260.504C46.861 260.81 46.6802 261.079 46.432 261.271C46.1838 261.463 45.8816 261.567 45.571 261.568H45.4814C45.1573 261.551 44.8483 261.422 44.6062 261.2C44.364 260.978 44.2034 260.677 44.151 260.348L39.5791 232.11L36.2378 248.82C36.1612 249.137 35.9832 249.419 35.7323 249.621C35.4815 249.822 35.1721 249.931 34.8537 249.931H28.4243C28.2316 249.94 28.0392 249.908 27.8587 249.838C27.6782 249.768 27.5134 249.661 27.3741 249.524C27.2349 249.387 27.1241 249.222 27.0484 249.04C26.9727 248.858 26.9336 248.662 26.9336 248.464C26.9336 248.266 26.9727 248.07 27.0484 247.888C27.1241 247.705 27.2349 247.541 27.3741 247.404C27.5134 247.267 27.6782 247.16 27.8587 247.09C28.0392 247.02 28.2316 246.988 28.4243 246.997H33.7279L38.4611 224.531C38.5388 224.198 38.7264 223.904 38.9919 223.699C39.2574 223.493 39.5843 223.388 39.9166 223.402C40.249 223.417 40.5662 223.549 40.814 223.777C41.0619 224.005 41.2249 224.314 41.2754 224.652L45.9445 253.457L49.9203 239.215C50.0031 238.915 50.1781 238.65 50.4193 238.461C50.6605 238.271 50.9548 238.167 51.2584 238.164H51.2865C51.5872 238.164 51.8802 238.261 52.1237 238.443C52.3672 238.624 52.5488 238.879 52.6425 239.173L55.1779 247.004H58.6523C58.8993 246.234 59.3489 245.548 59.9514 245.023C60.5539 244.498 61.2859 244.155 62.0666 244.03C62.8474 243.905 63.6464 244.005 64.3757 244.317C65.1049 244.629 65.7359 245.142 66.1991 245.8C66.6623 246.457 66.9396 247.233 67.0005 248.042C67.0614 248.851 66.9034 249.661 66.5441 250.384C66.1847 251.107 65.6379 251.713 64.964 252.137C64.2902 252.56 63.5155 252.785 62.7254 252.785L62.7177 252.774Z" fill="#C4C4C4"/>
<g opacity="0.95">
<path d="M156.168 314.872L178.688 320.159C181.301 321.463 181.571 324.954 179.726 327.104C177.74 329.419 169.121 335.115 164.434 337.317C158.209 341.31 161.898 343.534 166.24 341.191L182.148 332.437C184.085 331.484 184.185 332.781 183.263 333.856L173.158 346.177C169.086 352.011 173.236 353.698 175.58 351.51L186.568 337.615C188.873 334.928 191.479 337.437 191.295 340.261C191.111 343.085 186.199 352.363 183.497 356.419C181.307 360.602 185.957 362.25 188.8 360.023C191.644 357.797 195.561 343.444 196.445 341.871C197.152 340.612 198.23 339.726 198.443 341.717C200.252 358.638 200.788 346.052 200.784 344.547C200.782 343.543 200.8 344.044 201.018 342.521C201.402 340.986 202.732 341.285 204.054 342.789C205.376 344.292 206.528 355.31 206.938 360.631C207.401 366.616 213.779 364.619 212.895 359.669L209.817 339.333C209.548 335.841 213.53 340.552 215.006 341.442C217.957 343.221 218.003 341.21 217.426 340.251L215.197 337.413C214.621 336.453 214.582 335.955 215.082 335.916C216.729 335.789 222.243 341.887 224.805 344.7C226.458 346.579 229.801 344.314 229.147 342.357C226.803 338.022 218.037 330.524 217.655 330.198L217.655 330.198C214.427 327.436 217.924 327.166 218.462 327.627C219 328.087 222.344 330.17 224.265 331.193C227.417 332.957 229.568 328.275 225.456 327.087L221.382 326.398C218.308 325.631 218.852 323.08 221.113 322.906C222.612 322.79 227.907 325.655 228.876 325.819C234.986 326.853 233.415 323.179 232.103 322.058C228.337 318.836 227.031 321.445 223.457 320.718C220.597 320.136 221.778 318.506 222.726 317.763C235.214 310.276 235.727 315.355 238.327 311.541C240.133 308.893 238.441 306.515 236.981 307.129L222.879 313.235C218.96 314.542 214.117 310.399 217.69 304.604C222.123 297.413 224.771 287.833 224.027 282.538C223.374 280.581 221.176 280.751 220.684 284.803C220.07 289.868 212.962 295.435 212.194 298.505C211.426 301.575 208.39 301.307 206.392 301.462C204.393 301.616 206.199 298.968 207.083 297.394C207.79 296.135 208.811 293.748 206.89 294.9C205.456 295.847 202.41 298.056 201.703 299.315C200.819 300.888 198.206 299.584 198.475 296.553C198.69 294.128 207.236 292.866 207.62 291.331C208.941 287.616 206.822 285.873 205.198 285.998C198.804 286.492 193.21 295.621 191.212 300.124C189.368 302.274 189.598 298.744 187.408 302.927C185.219 307.11 181.296 288.847 176.224 288.235C172.166 287.745 172.33 289.873 172.919 290.999L183.72 307.226C184.873 309.144 178.77 305.601 177.725 307.689C176.68 309.776 182.099 312.269 181.646 312.906C179.832 315.454 165.621 311.466 158.742 309.154C153.131 308.082 152.056 313.684 156.168 314.872Z" fill="#878E95"/>
<path d="M192.138 325.143C197.748 319.692 195.595 311.328 198.016 310.137C203.518 308.508 205.857 310.854 206.701 311.976C212.973 320.323 208.022 326.928 205.012 329.167C195.944 335.387 189.372 328.367 192.138 325.143Z" fill="#4A5056"/>
</g>
<path d="M274.285 168.926L337.006 180.813L351.425 104.736C352.189 100.708 348.842 96.6786 343.965 95.7542L298.933 87.2196C294.056 86.2952 289.467 88.8205 288.704 92.8489L274.285 168.926Z" fill="#C4C4C4"/>
<path d="M279.66 166.685L332.824 176.761L345.045 112.277C345.692 108.863 342.856 105.447 338.722 104.664L300.552 97.4297C296.418 96.6462 292.529 98.7866 291.882 102.201L279.66 166.685Z" fill="white"/>
<path d="M290.737 79.5329C289.187 79.2391 287.728 80.0418 287.485 81.3223L286.215 88.0256C285.972 89.3061 287.036 90.587 288.586 90.8808L352.255 102.948C353.805 103.242 355.264 102.439 355.507 101.158L356.777 94.455C357.02 93.1745 355.956 91.8937 354.406 91.5999L290.737 79.5329Z" fill="#4A5056"/>
<path d="M289.047 159.899C288.319 159.763 287.566 159.921 286.954 160.338C286.342 160.756 285.92 161.398 285.779 162.125C285.644 162.854 285.802 163.606 286.219 164.218C286.636 164.83 287.278 165.253 288.006 165.393L293.147 166.367L294.188 160.874L289.047 159.899Z" fill="#878E95"/>
<path d="M298.907 161.767L293.906 160.82L292.865 166.313L297.866 167.261C298.594 167.397 299.346 167.239 299.959 166.822C300.571 166.405 300.993 165.762 301.133 165.035C301.269 164.306 301.111 163.554 300.694 162.942C300.277 162.33 299.634 161.907 298.907 161.767Z" fill="#C4C4C4"/>
<path opacity="0.2" d="M300.572 162.78C300.911 163.359 301.029 164.041 300.905 164.7C300.765 165.428 300.342 166.07 299.73 166.487C299.118 166.904 298.366 167.062 297.637 166.926L292.919 166.032L292.865 166.314L297.866 167.262C298.594 167.397 299.346 167.239 299.959 166.822C300.571 166.405 300.993 165.763 301.133 165.035C301.207 164.641 301.195 164.236 301.098 163.847C301.002 163.457 300.822 163.094 300.572 162.78Z" fill="black"/>
<path d="M320.089 122.922C319.689 122.299 319.058 121.86 318.334 121.7C317.611 121.541 316.854 121.674 316.228 122.071C315.605 122.472 315.166 123.103 315.007 123.827C314.847 124.55 314.981 125.307 315.378 125.933L318.195 130.342L322.907 127.332L320.089 122.922Z" fill="#878E95"/>
<path d="M325.493 131.379L322.752 127.09L318.041 130.101L320.781 134.39C321.182 135.013 321.813 135.452 322.536 135.611C323.26 135.771 324.017 135.637 324.642 135.24C325.265 134.84 325.705 134.209 325.864 133.485C326.023 132.762 325.89 132.005 325.493 131.379Z" fill="#C4C4C4"/>
<path opacity="0.2" d="M325.898 133.285C325.71 133.929 325.294 134.482 324.73 134.844C324.104 135.241 323.347 135.375 322.624 135.215C321.9 135.056 321.269 134.617 320.868 133.994L318.282 129.946L318.041 130.101L320.781 134.39C321.182 135.013 321.813 135.452 322.536 135.611C323.26 135.771 324.017 135.637 324.642 135.24C324.98 135.024 325.267 134.737 325.484 134.399C325.7 134.062 325.842 133.682 325.898 133.285Z" fill="black"/>
<path d="M303.813 128.81C303.412 128.187 302.781 127.747 302.058 127.588C301.334 127.429 300.577 127.562 299.952 127.959C299.329 128.36 298.89 128.991 298.73 129.714C298.571 130.438 298.704 131.195 299.101 131.82L301.919 136.23L306.631 133.219L303.813 128.81Z" fill="#878E95"/>
<path d="M309.217 137.267L306.476 132.978L301.764 135.988L304.505 140.277C304.906 140.9 305.537 141.34 306.26 141.499C306.983 141.658 307.741 141.525 308.366 141.128C308.989 140.727 309.428 140.096 309.588 139.373C309.747 138.649 309.614 137.892 309.217 137.267Z" fill="#C4C4C4"/>
<path opacity="0.2" d="M309.622 139.173C309.433 139.816 309.018 140.37 308.453 140.732C307.828 141.129 307.071 141.262 306.347 141.103C305.624 140.943 304.993 140.504 304.592 139.881L302.006 135.834L301.764 135.988L304.505 140.277C304.906 140.9 305.537 141.339 306.26 141.499C306.983 141.658 307.741 141.525 308.366 141.128C308.704 140.911 308.99 140.625 309.207 140.287C309.424 139.95 309.565 139.57 309.622 139.173Z" fill="black"/>
<path d="M316.919 139.648C316.519 139.025 315.888 138.586 315.164 138.426C314.441 138.267 313.684 138.4 313.058 138.797C312.435 139.198 311.996 139.829 311.836 140.553C311.677 141.276 311.811 142.033 312.208 142.659L315.025 147.068L319.737 144.058L316.919 139.648Z" fill="#878E95"/>
<path d="M322.323 148.105L319.582 143.816L314.871 146.827L317.611 151.115C318.012 151.738 318.643 152.178 319.366 152.337C320.09 152.496 320.847 152.363 321.472 151.966C322.095 151.565 322.535 150.934 322.694 150.211C322.853 149.487 322.72 148.73 322.323 148.105Z" fill="#C4C4C4"/>
<path opacity="0.2" d="M322.728 150.011C322.539 150.654 322.124 151.208 321.56 151.57C320.934 151.967 320.177 152.1 319.454 151.941C318.73 151.782 318.099 151.342 317.698 150.719L315.112 146.672L314.871 146.827L317.611 151.115C318.012 151.738 318.643 152.178 319.366 152.337C320.09 152.496 320.847 152.363 321.472 151.966C321.81 151.749 322.097 151.463 322.313 151.125C322.53 150.788 322.672 150.408 322.728 150.011Z" fill="black"/>
<path d="M322.594 158.504C323.212 158.096 323.644 157.459 323.795 156.734C323.945 156.009 323.802 155.253 323.398 154.633C322.99 154.014 322.353 153.583 321.628 153.432C320.903 153.282 320.147 153.424 319.527 153.829L315.152 156.7L318.219 161.375L322.594 158.504Z" fill="#878E95"/>
<path d="M314.204 164.01L318.459 161.218L315.392 156.543L311.136 159.335C310.518 159.743 310.087 160.38 309.936 161.105C309.786 161.83 309.928 162.586 310.333 163.206C310.741 163.825 311.377 164.256 312.103 164.407C312.828 164.557 313.583 164.415 314.204 164.01Z" fill="#C4C4C4"/>
<path opacity="0.2" d="M312.303 164.438C311.657 164.258 311.098 163.849 310.73 163.289C310.325 162.668 310.183 161.913 310.333 161.187C310.484 160.462 310.915 159.826 311.533 159.418L315.549 156.783L315.392 156.543L311.136 159.335C310.518 159.743 310.087 160.38 309.936 161.105C309.786 161.83 309.928 162.586 310.333 163.206C310.553 163.541 310.844 163.825 311.184 164.037C311.524 164.25 311.905 164.387 312.303 164.438Z" fill="black"/>
<path d="M304.523 146.106C305.142 145.698 305.573 145.062 305.724 144.336C305.874 143.611 305.732 142.855 305.327 142.235C304.919 141.617 304.283 141.185 303.557 141.035C302.832 140.884 302.076 141.027 301.456 141.431L297.081 144.302L300.148 148.977L304.523 146.106Z" fill="#878E95"/>
<path d="M296.133 151.612L300.388 148.82L297.321 144.145L293.065 146.937C292.447 147.345 292.016 147.982 291.865 148.707C291.715 149.432 291.857 150.188 292.262 150.808C292.67 151.427 293.306 151.858 294.032 152.009C294.757 152.159 295.512 152.017 296.133 151.612Z" fill="#C4C4C4"/>
<path opacity="0.2" d="M294.232 152.04C293.586 151.86 293.027 151.451 292.659 150.891C292.254 150.27 292.112 149.515 292.262 148.79C292.413 148.064 292.844 147.428 293.462 147.02L297.478 144.385L297.321 144.145L293.065 146.937C292.447 147.345 292.016 147.982 291.865 148.707C291.715 149.432 291.857 150.188 292.262 150.808C292.482 151.143 292.773 151.427 293.113 151.639C293.453 151.852 293.834 151.989 294.232 152.04Z" fill="black"/>
<path d="M334.58 140.973C335.198 140.565 335.63 139.929 335.78 139.203C335.931 138.478 335.788 137.723 335.384 137.102C334.975 136.484 334.339 136.052 333.614 135.902C332.888 135.751 332.133 135.894 331.512 136.298L327.137 139.169L330.205 143.844L334.58 140.973Z" fill="#878E95"/>
<path d="M326.19 146.479L330.445 143.687L327.377 139.012L323.122 141.804C322.504 142.213 322.072 142.849 321.922 143.574C321.771 144.3 321.914 145.055 322.318 145.676C322.727 146.294 323.363 146.725 324.088 146.876C324.814 147.026 325.569 146.884 326.19 146.479Z" fill="#C4C4C4"/>
<path opacity="0.2" d="M324.289 146.908C323.643 146.727 323.084 146.318 322.715 145.758C322.311 145.137 322.168 144.382 322.319 143.657C322.469 142.931 322.901 142.295 323.519 141.887L327.534 139.252L327.377 139.012L323.122 141.804C322.504 142.213 322.072 142.849 321.922 143.574C321.771 144.3 321.914 145.055 322.318 145.676C322.539 146.011 322.829 146.294 323.169 146.507C323.509 146.719 323.891 146.856 324.289 146.908Z" fill="black"/>
<path d="M324.234 161.454C323.833 160.831 323.202 160.392 322.479 160.233C321.756 160.073 320.998 160.207 320.373 160.604C319.75 161.005 319.311 161.636 319.151 162.359C318.992 163.082 319.125 163.84 319.523 164.465L322.34 168.875L327.052 165.864L324.234 161.454Z" fill="#878E95"/>
<path d="M329.638 169.911L326.898 165.622L322.186 168.633L324.926 172.922C325.327 173.545 325.958 173.984 326.681 174.143C327.405 174.303 328.162 174.169 328.787 173.772C329.41 173.372 329.85 172.741 330.009 172.017C330.168 171.294 330.035 170.537 329.638 169.911Z" fill="#C4C4C4"/>
<path opacity="0.2" d="M330.043 171.817C329.855 172.461 329.44 173.015 328.875 173.376C328.249 173.773 327.492 173.907 326.769 173.747C326.045 173.588 325.414 173.149 325.014 172.526L322.428 168.479L322.186 168.633L324.926 172.922C325.327 173.545 325.958 173.984 326.681 174.143C327.405 174.303 328.162 174.169 328.787 173.772C329.125 173.556 329.412 173.269 329.629 172.932C329.845 172.594 329.987 172.214 330.043 171.817Z" fill="black"/>
<path d="M304.877 157.476C304.476 156.853 303.845 156.414 303.122 156.255C302.399 156.095 301.641 156.229 301.016 156.626C300.393 157.027 299.954 157.658 299.794 158.381C299.635 159.104 299.768 159.862 300.165 160.487L302.983 164.897L307.695 161.886L304.877 157.476Z" fill="#878E95"/>
<path d="M310.281 165.933L307.54 161.644L302.829 164.655L305.569 168.944C305.97 169.567 306.601 170.006 307.324 170.165C308.048 170.325 308.805 170.191 309.43 169.794C310.053 169.394 310.492 168.763 310.652 168.039C310.811 167.316 310.678 166.559 310.281 165.933Z" fill="#C4C4C4"/>
<path opacity="0.2" d="M310.686 167.839C310.497 168.483 310.082 169.037 309.517 169.398C308.892 169.796 308.135 169.929 307.411 169.77C306.688 169.61 306.057 169.171 305.656 168.548L303.07 164.501L302.829 164.655L305.569 168.944C305.97 169.567 306.601 170.006 307.324 170.166C308.048 170.325 308.805 170.192 309.43 169.795C309.768 169.578 310.055 169.291 310.271 168.954C310.488 168.616 310.629 168.236 310.686 167.839Z" fill="black"/>
<path d="M312.209 148.658C312.036 149.571 311.553 150.397 310.842 150.995C310.13 151.593 309.234 151.926 308.305 151.939C307.762 151.946 307.223 151.844 306.72 151.639C305.86 151.287 305.148 150.648 304.705 149.831C304.261 149.014 304.114 148.07 304.287 147.156C304.46 146.243 304.943 145.418 305.654 144.82C306.366 144.222 307.262 143.888 308.192 143.875C308.734 143.868 309.273 143.97 309.776 144.175C310.636 144.527 311.348 145.166 311.792 145.983C312.235 146.8 312.383 147.745 312.209 148.658Z" fill="#C4C4C4"/>
<path opacity="0.2" d="M309.776 144.175L308.305 151.939C307.762 151.946 307.223 151.844 306.72 151.639L308.192 143.875C308.735 143.868 309.273 143.97 309.776 144.175Z" fill="black"/>
<path d="M317.002 133.168C316.829 134.081 316.346 134.907 315.634 135.505C314.923 136.103 314.026 136.437 313.097 136.45C312.554 136.456 312.015 136.354 311.512 136.149C310.652 135.797 309.94 135.158 309.497 134.342C309.054 133.525 308.906 132.58 309.079 131.667C309.252 130.753 309.735 129.928 310.447 129.33C311.158 128.732 312.055 128.398 312.984 128.385C313.527 128.379 314.066 128.481 314.568 128.685C315.429 129.038 316.141 129.676 316.584 130.493C317.027 131.31 317.175 132.255 317.002 133.168Z" fill="#C4C4C4"/>
<path opacity="0.2" d="M314.568 128.685L313.097 136.449C312.554 136.456 312.015 136.354 311.512 136.149L312.984 128.385C313.527 128.378 314.065 128.48 314.568 128.685Z" fill="black"/>
<path d="M312.7 155.867C312.527 156.78 312.044 157.606 311.332 158.204C310.621 158.802 309.724 159.136 308.795 159.149C308.252 159.155 307.713 159.053 307.21 158.848C306.35 158.496 305.638 157.857 305.195 157.041C304.752 156.224 304.604 155.279 304.777 154.366C304.95 153.452 305.433 152.627 306.145 152.029C306.856 151.431 307.753 151.097 308.682 151.084C309.225 151.078 309.764 151.18 310.266 151.384C311.127 151.737 311.839 152.375 312.282 153.192C312.725 154.009 312.873 154.954 312.7 155.867Z" fill="#C4C4C4"/>
<path opacity="0.2" d="M310.266 151.384L308.795 159.148C308.252 159.155 307.713 159.053 307.21 158.848L308.682 151.084C309.224 151.077 309.763 151.179 310.266 151.384Z" fill="black"/>
<path d="M320.461 168.786C320.288 169.699 319.805 170.525 319.094 171.123C318.382 171.721 317.486 172.055 316.556 172.068C316.013 172.074 315.475 171.972 314.972 171.767C314.112 171.415 313.4 170.776 312.956 169.959C312.513 169.143 312.365 168.198 312.539 167.285C312.712 166.371 313.195 165.546 313.906 164.948C314.618 164.35 315.514 164.016 316.443 164.003C316.986 163.997 317.525 164.099 318.028 164.303C318.888 164.656 319.6 165.294 320.043 166.111C320.487 166.928 320.634 167.873 320.461 168.786Z" fill="#C4C4C4"/>
<path opacity="0.2" d="M318.028 164.303L316.556 172.068C316.013 172.074 315.475 171.972 314.972 171.767L316.443 164.003C316.986 163.997 317.525 164.099 318.028 164.303Z" fill="black"/>
<path d="M333.022 150.104C333.559 150.862 333.818 151.783 333.755 152.71C333.692 153.637 333.31 154.514 332.674 155.193C332.302 155.588 331.855 155.905 331.359 156.125C330.508 156.5 329.554 156.569 328.658 156.321C327.762 156.074 326.98 155.524 326.442 154.766C325.905 154.008 325.646 153.087 325.709 152.16C325.773 151.233 326.154 150.356 326.789 149.677C327.162 149.282 327.609 148.965 328.105 148.745C328.956 148.37 329.91 148.3 330.806 148.548C331.702 148.796 332.484 149.345 333.022 150.104Z" fill="#C4C4C4"/>
<path opacity="0.2" d="M328.105 148.745L332.674 155.192C332.302 155.588 331.855 155.905 331.358 156.125L326.789 149.677C327.161 149.282 327.609 148.965 328.105 148.745Z" fill="black"/>
<path d="M332.575 158.992C333.112 159.75 333.371 160.671 333.308 161.598C333.245 162.526 332.863 163.403 332.227 164.081C331.855 164.476 331.408 164.793 330.911 165.013C330.061 165.388 329.107 165.457 328.211 165.21C327.315 164.962 326.533 164.413 325.995 163.655C325.458 162.896 325.199 161.976 325.262 161.048C325.325 160.121 325.707 159.244 326.342 158.566C326.714 158.17 327.162 157.853 327.658 157.633C328.509 157.258 329.463 157.189 330.359 157.437C331.254 157.684 332.037 158.234 332.575 158.992Z" fill="#C4C4C4"/>
<path opacity="0.2" d="M327.658 157.633L332.228 164.081C331.855 164.476 331.408 164.793 330.912 165.013L326.343 158.566C326.715 158.17 327.162 157.853 327.658 157.633Z" fill="black"/>
<path d="M296.636 154.347C297.174 155.105 297.433 156.026 297.37 156.953C297.306 157.881 296.925 158.757 296.289 159.436C295.917 159.831 295.47 160.148 294.973 160.368C294.123 160.743 293.169 160.812 292.273 160.565C291.377 160.317 290.594 159.768 290.057 159.009C289.52 158.251 289.261 157.33 289.324 156.403C289.387 155.476 289.769 154.599 290.404 153.92C290.776 153.525 291.224 153.208 291.72 152.988C292.571 152.613 293.524 152.544 294.42 152.791C295.316 153.039 296.099 153.588 296.636 154.347Z" fill="#C4C4C4"/>
<path opacity="0.2" d="M291.72 152.988L296.289 159.435C295.917 159.831 295.47 160.148 294.973 160.368L290.404 153.92C290.776 153.525 291.224 153.208 291.72 152.988Z" fill="black"/>
<path opacity="0.2" d="M297.333 80.783L295.84 80.5L293.746 91.5509L295.239 91.8339L297.333 80.783Z" fill="black"/>
<path opacity="0.2" d="M305.995 82.4246L304.501 82.1416L302.407 93.1925L303.9 93.4755L305.995 82.4246Z" fill="black"/>
<path opacity="0.2" d="M314.656 84.0662L313.163 83.7832L311.068 94.8341L312.562 95.1171L314.656 84.0662Z" fill="black"/>
<path opacity="0.2" d="M323.318 85.7078L321.824 85.4248L319.73 96.4757L321.223 96.7587L323.318 85.7078Z" fill="black"/>
<path opacity="0.2" d="M331.979 87.3494L330.486 87.0664L328.392 98.1173L329.885 98.4003L331.979 87.3494Z" fill="black"/>
<path opacity="0.2" d="M340.641 88.9908L339.147 88.7078L337.053 99.7586L338.546 100.042L340.641 88.9908Z" fill="black"/>
<path opacity="0.2" d="M349.302 90.6324L347.809 90.3494L345.715 101.4L347.208 101.683L349.302 90.6324Z" fill="black"/>
<path d="M314.557 238.46V219.565C314.557 212.85 317.225 206.41 321.973 201.662C326.721 196.914 333.161 194.246 339.876 194.246C346.591 194.246 353.031 196.914 357.78 201.662C362.528 206.41 365.195 212.85 365.195 219.565V238.46C365.194 239.362 364.836 240.226 364.198 240.864C363.56 241.501 362.696 241.86 361.794 241.861H317.958C317.057 241.86 316.192 241.501 315.555 240.864C314.917 240.226 314.558 239.362 314.557 238.46Z" fill="#1D3580"/>
<path d="M377.315 484.354L368.384 486.825L354.602 453.557L367.782 449.909L377.315 484.354Z" fill="#FFB8B8"/>
<path d="M361.3 486.039L378.522 481.273L381.523 492.116L353.457 499.884C353.063 498.46 352.953 496.972 353.134 495.506C353.315 494.039 353.783 492.623 354.511 491.337C355.239 490.052 356.214 488.922 357.378 488.013C358.543 487.104 359.876 486.433 361.3 486.039Z" fill="#1D3580"/>
<path d="M284.212 491.223H274.946L270.537 455.483H284.213L284.212 491.223Z" fill="#FFB8B8"/>
<path d="M268.327 488.575H286.197V499.826H257.076C257.076 498.349 257.367 496.886 257.932 495.521C258.498 494.156 259.327 492.915 260.371 491.87C261.416 490.826 262.656 489.997 264.022 489.431C265.387 488.866 266.85 488.575 268.327 488.575Z" fill="#1D3580"/>
<path d="M273.039 291.485C273.7 292.378 274.549 293.115 275.526 293.644C276.503 294.173 277.584 294.481 278.693 294.547C279.803 294.613 280.913 294.436 281.946 294.026C282.978 293.617 283.909 292.986 284.672 292.178L309.303 303.257L307.063 289.402L284.016 281.006C282.574 279.814 280.745 279.193 278.875 279.26C277.006 279.327 275.226 280.078 273.873 281.37C272.52 282.661 271.688 284.404 271.534 286.269C271.38 288.133 271.916 289.989 273.039 291.485Z" fill="#F9CACA"/>
<path d="M324.217 374.802C316.478 374.802 308.467 373.649 301.733 370.22C298.158 368.436 294.99 365.933 292.427 362.869C289.864 359.804 287.961 356.244 286.837 352.41C283.328 341.3 287.752 330.386 292.03 319.831C294.681 313.291 297.185 307.114 297.835 301.024L298.062 298.863C299.074 289.153 299.948 280.766 304.786 277.621C307.294 275.991 310.666 275.898 315.096 277.336L356.698 290.851L355.168 369.823L354.916 369.908C354.698 369.981 340.032 374.802 324.217 374.802Z" fill="#1D3580"/>
<path d="M314.368 252.751C314.368 252.751 334.775 246.705 350.646 248.972C350.646 248.972 341.577 298.854 344.6 315.481C347.623 332.109 292.073 321.906 303.409 306.034L307.188 287.139C307.188 287.139 299.63 279.581 306.433 270.512L314.368 252.751Z" fill="#39BDE7"/>
<path d="M304.331 373.305L279.181 368.589L287.962 301.016C288.552 299.13 302.154 256.316 308.332 254C312.817 252.42 317.404 251.146 322.062 250.186L322.956 250.007L317.913 257.571L297.836 305.68L304.331 373.305Z" fill="#1D3580"/>
<path d="M291.227 482.942L258.732 477.526L276.968 403.063L304.103 301.23L304.371 303.038C304.392 303.173 306.927 316.476 344.542 310.573L344.872 310.521L344.964 310.844L390.426 471.477L353.4 477.648L319.629 360.45L291.227 482.942Z" fill="#314EA7"/>
<path d="M336.266 385.95L336.286 385.378C336.309 384.743 338.545 321.61 337.798 296.22C337.049 270.743 345.297 248.68 345.38 248.46L345.448 248.283L345.63 248.23C356.301 245.182 365.559 254.281 365.651 254.373L365.782 254.503L362.742 279.577L375.754 370.757L336.266 385.95Z" fill="#1D3580"/>
<path d="M334.674 241.421C344.926 241.421 353.237 233.11 353.237 222.858C353.237 212.606 344.926 204.295 334.674 204.295C324.422 204.295 316.111 212.606 316.111 222.858C316.111 233.11 324.422 241.421 334.674 241.421Z" fill="#F9CACA"/>
<path d="M308.568 221.077C308.574 215.767 310.686 210.676 314.44 206.921C318.195 203.166 323.286 201.054 328.596 201.048H332.375C337.685 201.054 342.776 203.166 346.531 206.921C350.285 210.676 352.397 215.767 352.403 221.077V221.455H344.417L341.693 213.827L341.149 221.455H337.021L335.647 217.606L335.372 221.455H308.568V221.077Z" fill="#1D3580"/>
<path d="M332.847 243.986C332.472 243.478 332.248 242.875 332.201 242.246C332.154 241.616 332.285 240.986 332.581 240.428C336.585 232.811 342.192 218.737 334.75 210.057L334.215 209.434H355.821V241.872L336.193 245.335C335.995 245.37 335.793 245.388 335.591 245.388C335.056 245.388 334.528 245.261 334.05 245.017C333.573 244.774 333.161 244.42 332.847 243.986Z" fill="#1D3580"/>
<path d="M245.857 110.056C230.738 97.2986 212.237 89.2105 192.606 86.776C172.974 84.3415 153.058 87.6656 135.281 96.3438C117.504 105.022 102.632 118.68 92.4761 135.656C82.3199 152.632 77.3169 172.194 78.0757 191.962C78.8346 211.729 85.3227 230.85 96.7505 246.997C108.178 263.145 124.053 275.623 142.443 282.912C160.833 290.202 180.945 291.989 200.333 288.057C219.72 284.125 237.546 274.642 251.643 260.763L376.815 366.383C378.72 367.993 381.186 368.781 383.671 368.573C386.157 368.364 388.458 367.178 390.068 365.273C391.678 363.368 392.466 360.902 392.257 358.417C392.049 355.932 390.862 353.631 388.958 352.021L388.944 352.009L263.771 246.389C278.312 225.519 284.536 199.972 281.222 174.752C277.908 149.533 265.296 126.461 245.857 110.056ZM237.788 236.218C228.036 247.775 215.077 256.181 200.548 260.372C186.019 264.564 170.574 264.353 156.165 259.766C141.757 255.179 129.032 246.423 119.599 234.604C110.167 222.785 104.451 208.435 103.175 193.368C101.898 178.301 105.118 163.193 112.428 149.956C119.737 136.719 130.808 125.947 144.24 119.002C157.672 112.056 172.861 109.25 187.888 110.938C202.915 112.625 217.104 118.731 228.66 128.482C236.334 134.957 242.657 142.88 247.268 151.798C251.88 160.716 254.689 170.456 255.537 180.46C256.385 190.464 255.253 200.537 252.208 210.104C249.162 219.671 244.262 228.545 237.788 236.218Z" fill="#8B78FF"/>
<path opacity="0.15" d="M130.051 245.346C115.384 232.969 105.908 215.529 103.505 196.489C101.102 177.448 105.947 158.2 117.078 142.567C115.616 144.039 114.203 145.581 112.838 147.192C106.363 154.866 101.463 163.739 98.418 173.306C95.3726 182.873 94.2414 192.947 95.0889 202.951C95.9365 212.955 98.7462 222.694 103.358 231.613C107.969 240.531 114.292 248.454 121.966 254.929C129.639 261.403 138.512 266.303 148.08 269.349C157.647 272.394 167.72 273.525 177.724 272.678C187.728 271.83 197.468 269.021 206.386 264.409C215.304 259.798 223.227 253.475 229.702 245.801C231.063 244.188 232.345 242.535 233.548 240.844C220.01 254.447 201.852 262.461 182.678 263.295C163.505 264.129 144.719 257.722 130.051 245.346Z" fill="#353A3F"/>
<path d="M340.634 323.937C341.713 324.201 342.837 324.225 343.926 324.007C345.016 323.79 346.045 323.336 346.94 322.678C347.835 322.02 348.575 321.173 349.108 320.198C349.641 319.223 349.953 318.143 350.023 317.035L376.048 309.811L365.469 300.588L342.378 308.861C340.507 308.867 338.703 309.558 337.309 310.805C335.914 312.051 335.024 313.766 334.809 315.624C334.595 317.483 335.069 319.355 336.142 320.887C337.215 322.419 338.814 323.504 340.634 323.937Z" fill="#F9CACA"/>
<path d="M351.45 320.113L349.866 305.068L371.605 293.075L357.432 275.918L359.744 256.646L365.503 254.178L365.683 254.408C368.398 257.9 392.215 288.631 392.215 292.43C392.215 296.332 387.658 307.79 381.425 310.907C375.412 313.913 352.833 319.757 351.874 320.004L351.45 320.113Z" fill="#1D3580"/>
<path d="M464.245 500.836H176.289C176.088 500.836 175.896 500.756 175.754 500.614C175.612 500.473 175.533 500.28 175.533 500.08C175.533 499.88 175.612 499.687 175.754 499.546C175.896 499.404 176.088 499.324 176.289 499.324H464.245C464.445 499.324 464.637 499.404 464.779 499.546C464.921 499.687 465.001 499.88 465.001 500.08C465.001 500.28 464.921 500.473 464.779 500.614C464.637 500.756 464.445 500.836 464.245 500.836Z" fill="#C4C4C4"/>
<path d="M208.974 180.902C210.902 181.205 212.851 181.357 214.803 181.356C218.322 181.451 221.825 180.842 225.107 179.567C228.388 178.291 231.382 176.373 233.914 173.926L236.757 171.083C237.208 170.632 237.567 170.095 237.811 169.505C238.056 168.915 238.181 168.282 238.181 167.643C238.181 167.005 238.056 166.372 237.811 165.782C237.567 165.192 237.208 164.655 236.757 164.203C236.305 163.752 235.768 163.393 235.178 163.149C234.588 162.904 233.955 162.779 233.317 162.779C232.678 162.779 232.045 162.904 231.455 163.149C230.865 163.393 230.328 163.752 229.877 164.203L229.184 164.896L205.104 140.792L205.797 140.123C206.709 139.211 207.221 137.974 207.221 136.683C207.221 135.393 206.709 134.156 205.797 133.243C204.884 132.331 203.647 131.819 202.357 131.819C201.066 131.819 199.829 132.331 198.917 133.243L196.074 136.086C193.618 138.611 191.694 141.604 190.418 144.887C189.142 148.17 188.539 151.677 188.644 155.197C188.705 161.897 190.464 168.473 193.757 174.308C196.203 178.697 197.532 183.619 197.627 188.642C197.685 192.125 196.758 195.554 194.951 198.532L171.444 175.049C172.981 174.06 174.679 173.349 176.461 172.947L195.094 191.58C195.243 190.656 195.315 189.721 195.309 188.785C195.301 186.599 195.012 184.424 194.449 182.311L184.727 172.588C186.852 172.872 188.941 173.376 190.962 174.093C189.201 170.618 187.916 166.922 187.139 163.105C185.17 162.819 183.181 162.691 181.191 162.722C177.676 162.577 174.17 163.163 170.893 164.442C167.616 165.721 164.64 167.665 162.152 170.152C159.665 172.64 157.72 175.616 156.441 178.893C155.162 182.17 154.577 185.677 154.722 189.191C154.783 195.891 156.542 202.467 159.834 208.302C162.28 212.69 163.609 217.613 163.704 222.636C163.763 226.119 162.836 229.547 161.029 232.526L137.403 208.9C138.948 207.911 140.653 207.199 142.443 206.797L161.053 225.407C161.202 224.491 161.274 223.564 161.268 222.636C161.259 220.45 160.97 218.274 160.408 216.162L150.709 206.463C152.825 206.741 154.906 207.237 156.92 207.944C155.152 204.47 153.858 200.774 153.074 196.955C151.154 196.651 149.213 196.499 147.269 196.501C143.748 196.396 140.242 196.999 136.959 198.275C133.676 199.551 130.683 201.475 128.158 203.931L125.243 206.917C124.331 207.829 123.818 209.067 123.818 210.357C123.818 211.647 124.331 212.884 125.243 213.797C126.156 214.709 127.393 215.222 128.683 215.222C129.973 215.222 131.211 214.709 132.123 213.797L132.816 213.104L156.896 237.184L156.203 237.877C155.751 238.329 155.393 238.865 155.149 239.455C154.904 240.045 154.778 240.678 154.778 241.317C154.778 241.956 154.904 242.588 155.149 243.179C155.393 243.769 155.751 244.305 156.203 244.757C156.655 245.209 157.191 245.567 157.781 245.811C158.372 246.056 159.004 246.182 159.643 246.182C160.282 246.182 160.915 246.056 161.505 245.811C162.095 245.567 162.631 245.209 163.083 244.757L165.926 241.914C168.382 239.389 170.305 236.396 171.582 233.113C172.858 229.83 173.461 226.324 173.355 222.803C173.294 216.103 171.535 209.528 168.243 203.692C165.797 199.304 164.468 194.381 164.373 189.358C164.31 185.867 165.238 182.43 167.049 179.445L190.675 203.071C189.138 204.059 187.44 204.771 185.658 205.173L167.025 186.54C166.876 187.464 166.804 188.399 166.81 189.335C166.817 191.513 167.106 193.681 167.67 195.785L177.393 205.531C175.27 205.237 173.181 204.733 171.158 204.026C172.918 207.502 174.204 211.198 174.98 215.015C176.908 215.319 178.857 215.471 180.809 215.469C184.34 215.616 187.864 215.025 191.154 213.735C194.445 212.445 197.43 210.483 199.921 207.975C202.411 205.466 204.351 202.467 205.618 199.167C206.885 195.867 207.45 192.339 207.278 188.809C207.216 182.109 205.458 175.534 202.165 169.698C199.719 165.31 198.39 160.387 198.295 155.365C198.237 151.882 199.164 148.453 200.971 145.475L224.597 169.101C223.047 170.08 221.343 170.791 219.557 171.203L200.923 152.57C200.794 153.496 200.73 154.43 200.732 155.365C200.74 157.55 201.03 159.726 201.592 161.838L211.291 171.537C209.172 171.266 207.089 170.761 205.08 170.032C206.853 173.467 208.163 177.122 208.974 180.902Z" fill="#39BDE7"/>
</svg>
