<svg width="74" height="74" viewBox="0 0 74 74" fill="none" xmlns="http://www.w3.org/2000/svg">
<rect x="1.5" y="1.5" width="71" height="71" rx="4.5" fill="white" stroke="#1D3580" stroke-width="3"/>
<path d="M65.0268 25.2832H9.80798C9.22798 25.2832 8.67174 25.0528 8.26162 24.6427C7.8515 24.2325 7.62109 23.6763 7.62109 23.0963C7.62109 22.5163 7.8515 21.9601 8.26162 21.5499C8.67174 21.1398 9.22798 20.9094 9.80798 20.9094H65.0268C65.6068 20.9094 66.163 21.1398 66.5731 21.5499C66.9832 21.9601 67.2136 22.5163 67.2136 23.0963C67.2136 23.6763 66.9832 24.2325 66.5731 24.6427C66.163 25.0528 65.6068 25.2832 65.0268 25.2832Z" fill="#E5E5E5"/>
<path d="M49.3086 15.9889H25.5262C24.9462 15.9889 24.39 15.7585 23.9799 15.3484C23.5698 14.9382 23.3394 14.382 23.3394 13.802C23.3394 13.222 23.5698 12.6658 23.9799 12.2556C24.39 11.8455 24.9462 11.6151 25.5262 11.6151H49.3086C49.8886 11.6151 50.4448 11.8455 50.8549 12.2556C51.2651 12.6658 51.4955 13.222 51.4955 13.802C51.4955 14.382 51.2651 14.9382 50.8549 15.3484C50.4448 15.7585 49.8886 15.9889 49.3086 15.9889Z" fill="#39BDE7"/>
<path d="M33.4536 38.4044H9.67126C9.09126 38.4044 8.53502 38.174 8.1249 37.7639C7.71478 37.3538 7.48438 36.7975 7.48438 36.2175C7.48438 35.6375 7.71478 35.0813 8.1249 34.6712C8.53502 34.261 9.09126 34.0306 9.67126 34.0306H33.4536C34.0336 34.0306 34.5898 34.261 35 34.6712C35.4101 35.0813 35.6405 35.6375 35.6405 36.2175C35.6405 36.7975 35.4101 37.3538 35 37.7639C34.5898 38.174 34.0336 38.4044 33.4536 38.4044Z" fill="#E5E5E5"/>
<path d="M33.4536 47.972H9.67126C9.09126 47.972 8.53502 47.7416 8.1249 47.3315C7.71478 46.9214 7.48438 46.3651 7.48438 45.7851C7.48438 45.2052 7.71478 44.6489 8.1249 44.2388C8.53502 43.8287 9.09126 43.5983 9.67126 43.5983H33.4536C34.0336 43.5983 34.5898 43.8287 35 44.2388C35.4101 44.6489 35.6405 45.2052 35.6405 45.7851C35.6405 46.3651 35.4101 46.9214 35 47.3315C34.5898 47.7416 34.0336 47.972 33.4536 47.972Z" fill="#E5E5E5"/>
<path d="M33.4536 57.5397H9.67126C9.09126 57.5397 8.53502 57.3093 8.1249 56.8991C7.71478 56.489 7.48438 55.9328 7.48438 55.3528C7.48438 54.7728 7.71478 54.2165 8.1249 53.8064C8.53502 53.3963 9.09126 53.1659 9.67126 53.1659H33.4536C34.0336 53.1659 34.5898 53.3963 35 53.8064C35.4101 54.2165 35.6405 54.7728 35.6405 55.3528C35.6405 55.9328 35.4101 56.489 35 56.8991C34.5898 57.3093 34.0336 57.5397 33.4536 57.5397Z" fill="#E5E5E5"/>
<path d="M63.115 40.2792C65.3689 40.2792 67.196 38.4521 67.196 36.1982C67.196 33.9443 65.3689 32.1172 63.115 32.1172C60.8611 32.1172 59.0339 33.9443 59.0339 36.1982C59.0339 38.4521 60.8611 40.2792 63.115 40.2792Z" fill="#64D3BF"/>
<path d="M62.7104 37.7549C62.6186 37.7551 62.5292 37.7254 62.4557 37.6703L62.4512 37.6669L61.4921 36.9332C61.4024 36.8645 61.3437 36.7629 61.3289 36.6508C61.3141 36.5387 61.3444 36.4254 61.4132 36.3357C61.4819 36.2459 61.5835 36.1872 61.6956 36.1724C61.8077 36.1576 61.921 36.188 62.0107 36.2567L62.632 36.7331L64.0999 34.818C64.134 34.7736 64.1764 34.7363 64.2249 34.7083C64.2733 34.6803 64.3268 34.6621 64.3823 34.6548C64.4377 34.6475 64.4941 34.6511 64.5481 34.6656C64.6022 34.68 64.6529 34.705 64.6973 34.7391L64.6883 34.7518L64.6976 34.7391C64.7872 34.808 64.8458 34.9096 64.8606 35.0216C64.8754 35.1336 64.8451 35.2469 64.7764 35.3366L63.0498 37.5882C63.0098 37.6401 62.9584 37.6821 62.8997 37.7109C62.8409 37.7397 62.7762 37.7546 62.7108 37.7544L62.7104 37.7549Z" fill="white"/>
<path d="M63.115 49.8469C65.3689 49.8469 67.196 48.0197 67.196 45.7658C67.196 43.512 65.3689 41.6848 63.115 41.6848C60.8611 41.6848 59.0339 43.512 59.0339 45.7658C59.0339 48.0197 60.8611 49.8469 63.115 49.8469Z" fill="#64D3BF"/>
<path d="M62.7104 47.3226C62.6186 47.3227 62.5292 47.293 62.4557 47.238L62.4512 47.2345L61.4921 46.5009C61.4477 46.4668 61.4104 46.4243 61.3824 46.3759C61.3544 46.3274 61.3362 46.2739 61.3289 46.2184C61.3215 46.1629 61.3252 46.1065 61.3397 46.0525C61.3541 45.9984 61.3791 45.9477 61.4132 45.9033C61.4472 45.8589 61.4897 45.8216 61.5381 45.7936C61.5866 45.7656 61.6401 45.7474 61.6956 45.7401C61.7511 45.7327 61.8075 45.7364 61.8615 45.7509C61.9156 45.7653 61.9663 45.7903 62.0107 45.8244L62.632 46.3007L64.0999 44.3856C64.134 44.3412 64.1764 44.3039 64.2249 44.2759C64.2733 44.2479 64.3268 44.2297 64.3823 44.2224C64.4377 44.2151 64.4941 44.2188 64.5481 44.2332C64.6022 44.2477 64.6529 44.2726 64.6973 44.3067L64.6883 44.3194L64.6976 44.3068C64.7872 44.3756 64.8458 44.4772 64.8606 44.5892C64.8754 44.7012 64.8451 44.8145 64.7764 44.9042L63.0498 47.1559C63.0098 47.2077 62.9584 47.2497 62.8997 47.2785C62.8409 47.3074 62.7762 47.3222 62.7108 47.3221L62.7104 47.3226Z" fill="white"/>
<path d="M63.115 59.4338C65.3689 59.4338 67.196 57.6067 67.196 55.3528C67.196 53.0989 65.3689 51.2717 63.115 51.2717C60.8611 51.2717 59.0339 53.0989 59.0339 55.3528C59.0339 57.6067 60.8611 59.4338 63.115 59.4338Z" fill="#64D3BF"/>
<path d="M62.7105 56.9096C62.6187 56.9098 62.5293 56.8801 62.4559 56.825L62.4513 56.8216L61.4922 56.0879C61.4026 56.0191 61.3441 55.9175 61.3293 55.8055C61.3146 55.6935 61.3449 55.5802 61.4136 55.4906C61.4824 55.401 61.5839 55.3423 61.6959 55.3274C61.8078 55.3126 61.9211 55.3428 62.0108 55.4114L62.6321 55.8878L64.1001 53.9726C64.1341 53.9282 64.1766 53.8909 64.225 53.863C64.2734 53.835 64.3269 53.8168 64.3824 53.8095C64.4379 53.8021 64.4942 53.8058 64.5483 53.8203C64.6023 53.8347 64.653 53.8597 64.6974 53.8937L64.6884 53.9065L64.6978 53.8938C64.7873 53.9626 64.8459 54.0642 64.8607 54.1762C64.8755 54.2882 64.8452 54.4015 64.7766 54.4912L63.0499 56.7429C63.0099 56.7948 62.9586 56.8368 62.8998 56.8656C62.841 56.8944 62.7764 56.9093 62.7109 56.9091L62.7105 56.9096Z" fill="white"/>
</svg>
