<svg width="100" height="100" viewBox="0 0 100 100" fill="none" xmlns="http://www.w3.org/2000/svg">
<g clip-path="url(#clip0_1426_4180)">
<path d="M74.2083 18.625C73.875 18.625 73.5416 18.5417 73.25 18.375C65.25 14.25 58.3333 12.5 50.0416 12.5C41.7916 12.5 33.9583 14.4584 26.8333 18.375C25.8333 18.9167 24.5833 18.5417 24 17.5417C23.4583 16.5417 23.8333 15.25 24.8333 14.7084C32.5833 10.5 41.0833 8.33337 50.0416 8.33337C58.9166 8.33337 66.6666 10.2917 75.1666 14.6667C76.2083 15.2084 76.5833 16.4584 76.0416 17.4584C75.6666 18.2084 74.9583 18.625 74.2083 18.625ZM14.5833 40.5C14.1666 40.5 13.75 40.375 13.375 40.125C12.4166 39.4584 12.2083 38.1667 12.875 37.2084C17 31.375 22.25 26.7917 28.5 23.5834C41.5833 16.8334 58.3333 16.7917 71.4583 23.5417C77.7083 26.75 82.9583 31.2917 87.0833 37.0834C87.75 38 87.5416 39.3334 86.5833 40C85.625 40.6667 84.3333 40.4584 83.6666 39.5C79.9166 34.25 75.1666 30.125 69.5416 27.25C57.5833 21.125 42.2916 21.125 30.375 27.2917C24.7083 30.2084 19.9583 34.375 16.2083 39.625C15.875 40.2084 15.25 40.5 14.5833 40.5ZM40.625 90.7917C40.0833 90.7917 39.5416 90.5834 39.1666 90.1667C35.5416 86.5417 33.5833 84.2084 30.7916 79.1667C27.9166 74.0417 26.4166 67.7917 26.4166 61.0834C26.4166 48.7084 37 38.625 50 38.625C63 38.625 73.5833 48.7084 73.5833 61.0834C73.5833 62.25 72.6666 63.1667 71.5 63.1667C70.3333 63.1667 69.4166 62.25 69.4166 61.0834C69.4166 51 60.7083 42.7917 50 42.7917C39.2916 42.7917 30.5833 51 30.5833 61.0834C30.5833 67.0834 31.9166 72.625 34.4583 77.125C37.125 81.9167 38.9583 83.9584 42.1666 87.2084C42.9583 88.0417 42.9583 89.3334 42.1666 90.1667C41.7083 90.5834 41.1666 90.7917 40.625 90.7917ZM70.5 83.0834C65.5416 83.0834 61.1666 81.8334 57.5833 79.375C51.375 75.1667 47.6666 68.3334 47.6666 61.0834C47.6666 59.9167 48.5833 59 49.75 59C50.9166 59 51.8333 59.9167 51.8333 61.0834C51.8333 66.9584 54.8333 72.5 59.9166 75.9167C62.875 77.9167 66.3333 78.875 70.5 78.875C71.5 78.875 73.1666 78.75 74.8333 78.4584C75.9583 78.25 77.0416 79 77.25 80.1667C77.4583 81.2917 76.7083 82.375 75.5416 82.5834C73.1666 83.0417 71.0833 83.0834 70.5 83.0834ZM62.125 91.6667C61.9583 91.6667 61.75 91.625 61.5833 91.5834C54.9583 89.75 50.625 87.2917 46.0833 82.8334C40.25 77.0417 37.0416 69.3334 37.0416 61.0834C37.0416 54.3334 42.7916 48.8334 49.875 48.8334C56.9583 48.8334 62.7083 54.3334 62.7083 61.0834C62.7083 65.5417 66.5833 69.1667 71.375 69.1667C76.1666 69.1667 80.0416 65.5417 80.0416 61.0834C80.0416 45.375 66.5 32.625 49.8333 32.625C38 32.625 27.1666 39.2084 22.2916 49.4167C20.6666 52.7917 19.8333 56.75 19.8333 61.0834C19.8333 64.3334 20.125 69.4584 22.625 76.125C23.0416 77.2084 22.5 78.4167 21.4166 78.7917C20.3333 79.2084 19.125 78.625 18.75 77.5834C16.7083 72.125 15.7083 66.7084 15.7083 61.0834C15.7083 56.0834 16.6666 51.5417 18.5416 47.5834C24.0833 35.9584 36.375 28.4167 49.8333 28.4167C68.7916 28.4167 84.2083 43.0417 84.2083 61.0417C84.2083 67.7917 78.4583 73.2917 71.375 73.2917C64.2916 73.2917 58.5416 67.7917 58.5416 61.0417C58.5416 56.5834 54.6666 52.9584 49.875 52.9584C45.0833 52.9584 41.2083 56.5834 41.2083 61.0417C41.2083 68.1667 43.9583 74.8334 49 79.8334C52.9583 83.75 56.75 85.9167 62.625 87.5417C63.75 87.8334 64.375 89.0001 64.0833 90.0834C63.875 91.0417 63 91.6667 62.125 91.6667Z" fill="#314EA7"/>
</g>
<defs>
<clipPath id="clip0_1426_4180">
<rect width="100" height="100" fill="white"/>
</clipPath>
</defs>
</svg>
