<?xml version="1.0" encoding="UTF-8"?><svg id="Layer_2" xmlns="http://www.w3.org/2000/svg" viewBox="0 0 340.6804 68.3434"><g id="Layer_1-2"><path d="m109.7527,31.2144c0,1.8545-.3086,3.5732-.9268,5.1533-.6191,1.5811-1.4883,2.9492-2.6074,4.1045-1.1201,1.1543-2.4678,2.0557-4.043,2.7031s-3.3193.9717-5.2324.9717c-1.9141,0-3.6602-.3242-5.2412-.9717s-2.9346-1.5488-4.0605-2.7031c-1.126-1.1553-1.998-2.5234-2.6162-4.1045-.6182-1.5801-.9268-3.2988-.9268-5.1533,0-1.8555.3086-3.5732.9268-5.1543.6182-1.5801,1.4902-2.9482,2.6162-4.1035s2.4795-2.0557,4.0605-2.7031c1.5811-.6484,3.3271-.9717,5.2412-.9717,1.9131,0,3.6572.3271,5.2324.9795,1.5752.6543,2.9229,1.5557,4.043,2.7041,1.1191,1.1494,1.9883,2.5146,2.6074,4.0947.6182,1.5811.9268,3.2988.9268,5.1543Zm-4.8301,0c0-1.3887-.1836-2.6338-.5508-3.7363s-.8955-2.0391-1.584-2.8086c-.6885-.7705-1.5254-1.3594-2.5107-1.7676-.9863-.4082-2.0977-.6123-3.334-.6123-1.2373,0-2.3516.2041-3.3428.6123s-1.835.9971-2.5283,1.7676c-.6943.7695-1.2285,1.7061-1.6016,2.8086s-.5596,2.3477-.5596,3.7363.1865,2.6338.5596,3.7363.9072,2.0361,1.6016,2.7998c.6934.7646,1.5371,1.3506,2.5283,1.7588s2.1055.6123,3.3428.6123c1.2363,0,2.3477-.2041,3.334-.6123.9854-.4082,1.8223-.9941,2.5107-1.7588.6885-.7637,1.2168-1.6973,1.584-2.7998s.5508-2.3477.5508-3.7363Z" fill="#fff"/><path d="m113.5671,49.7286v-23.8169h2.6426c.2803,0,.5195.0645.7178.1924.1982.1289.3262.3271.3848.5947l.3506,1.6631c.7227-.8281,1.5547-1.499,2.4932-2.0127.9395-.5127,2.0391-.7695,3.2988-.7695.9805,0,1.875.2041,2.6865.6123.8105.4082,1.5107,1,2.0996,1.7764.5889.7754,1.0439,1.7324,1.3652,2.8701.3213,1.1367.4814,2.4404.4814,3.9111,0,1.3418-.1807,2.584-.543,3.7275-.3613,1.1436-.8779,2.1348-1.5488,2.9746s-1.4814,1.4961-2.4316,1.9688c-.9512.4727-2.0156.709-3.1943.709-1.0146,0-1.875-.1553-2.5811-.4639s-1.3389-.7383-1.8984-1.2861v7.3491h-4.3232Zm8.4004-20.7368c-.8984,0-1.665.1895-2.3008.5684-.6367.3799-1.2285.9131-1.7764,1.6016v8.0498c.4893.6074,1.0234,1.0303,1.6006,1.2686.5781.2393,1.1992.3594,1.8643.3594.6533,0,1.2451-.123,1.7764-.3672.5303-.2451.9795-.6191,1.3477-1.1201.3672-.502.6494-1.1348.8486-1.8994.1982-.7637.2969-1.665.2969-2.7031,0-1.0508-.084-1.9395-.2539-2.6689-.1689-.7295-.4111-1.3213-.7256-1.7764-.3154-.4551-.6973-.7871-1.1465-.9971s-.96-.3154-1.5312-.3154Z" fill="#fff"/><path d="m141.1306,25.6314c1.1309,0,2.1719.1816,3.123.543s1.7705.8896,2.459,1.584,1.2246,1.5459,1.6104,2.5547c.3848,1.0088.5771,2.1611.5771,3.4561,0,.3271-.0146.5986-.0439.8135-.0293.2168-.082.3857-.1572.5078-.0762.123-.1777.21-.3066.2627-.1279.0527-.291.0791-.4893.0791h-11.0957c.1289,1.8428.624,3.1963,1.4873,4.0596s2.0068,1.2949,3.4307,1.2949c.7002,0,1.3037-.0811,1.8115-.2451.5068-.1631.9502-.3438,1.3291-.542.3799-.1982.7119-.3789.998-.543.2852-.1631.5625-.2451.8311-.2451.1748,0,.3262.0352.4551.1055.1279.0693.2393.1689.332.2969l1.2607,1.5752c-.4785.5605-1.0156,1.0303-1.6104,1.4092s-1.2158.6826-1.8633.9102-1.3076.3877-1.9775.4805c-.6709.0938-1.3213.1406-1.9512.1406-1.249,0-2.4102-.207-3.4834-.6211s-2.0059-1.0264-2.7998-1.8379c-.793-.8105-1.417-1.8135-1.8721-3.0098s-.6826-2.5811-.6826-4.1562c0-1.2256.1982-2.377.5947-3.4561s.9658-2.0186,1.7061-2.8184c.7412-.7988,1.6455-1.4316,2.7129-1.8984s2.2725-.7002,3.6143-.7002Zm.0869,3.0977c-1.2598,0-2.2461.3564-2.957,1.0674-.7119.7119-1.167,1.7217-1.3652,3.0273h8.1201c0-.5596-.0762-1.0869-.2275-1.583-.1523-.4961-.3848-.9307-.7002-1.3037-.3154-.374-.7119-.668-1.1904-.8838s-1.0381-.3242-1.6797-.3242Z" fill="#fff"/><path d="m152.7664,43.8668v-17.9551h2.6426c.5605,0,.9277.2627,1.1025.7871l.2979,1.418c.3613-.373.7441-.7119,1.1465-1.0146.4023-.3037.8281-.5664,1.2773-.7881s.9297-.3906,1.4434-.5068c.5137-.1172,1.0732-.1758,1.6807-.1758.9795,0,1.8486.167,2.6074.499.7578.333,1.3906.7998,1.8984,1.4004s.8926,1.3184,1.1553,2.1523.3936,1.7529.3936,2.7559v11.4277h-4.3223v-11.4277c0-1.0967-.2539-1.9453-.7617-2.5459s-1.2686-.9014-2.2832-.9014c-.7471,0-1.4473.1689-2.1006.5078-.6533.3379-1.2715.7988-1.8545,1.3818v12.9854h-4.3232Z" fill="#fff"/><path d="m191.4246,38.6871c.1865,0,.3564.0762.5078.2275l1.3301,1.4521c-1.0273,1.1904-2.2725,2.1172-3.7363,2.7822s-3.2285.998-5.2939.998c-1.8086,0-3.4473-.3125-4.917-.9365-1.4707-.624-2.7246-1.499-3.7627-2.625-1.0391-1.126-1.8438-2.4766-2.415-4.0508-.5723-1.5752-.8574-3.3076-.8574-5.1982,0-1.8896.3057-3.6221.9189-5.1973.6123-1.5752,1.4727-2.9277,2.5811-4.0596s2.4346-2.0098,3.9814-2.6338c1.5449-.624,3.252-.9365,5.1182-.9365,1.8438,0,3.4326.2861,4.7686.8574s2.5234,1.3477,3.5615,2.3271l-1.1025,1.5576c-.082.1172-.1748.2129-.2803.2891-.1045.0762-.2559.1133-.4541.1133-.1523,0-.3125-.0547-.4814-.166-.1699-.1104-.3711-.248-.6045-.4111s-.5068-.3379-.8223-.5254c-.3145-.1865-.6885-.3613-1.1201-.5244s-.9336-.3008-1.5049-.4111c-.5713-.1113-1.2305-.167-1.9775-.167-1.3418,0-2.5693.2314-3.6836.6914-1.1143.4609-2.0732,1.1172-2.8789,1.9688-.8047.8525-1.4316,1.8906-1.8809,3.1152s-.6738,2.5957-.6738,4.1123c0,1.5635.2246,2.958.6738,4.1826.4492,1.2256,1.0615,2.2607,1.8369,3.1064.7764.8457,1.6953,1.4902,2.7568,1.9336s2.2051.665,3.4297.665c.7471,0,1.418-.0439,2.0127-.1309.5947-.0879,1.1465-.2246,1.6533-.4111.5078-.1865.9805-.4229,1.418-.709s.8779-.627,1.3213-1.0244c.1982-.1748.3906-.2617.5771-.2617Z" fill="#fff"/><path d="m197.5837,43.8668v-25.7773h3.1152v10.4297c.7588-.8047,1.5986-1.4492,2.5205-1.9336.9209-.4844,1.9824-.7266,3.1846-.7266.9678,0,1.8223.1611,2.5635.4814.7412.3213,1.3594.7764,1.8555,1.3652.4951.5889.8721,1.2979,1.1289,2.126.2559.8291.3848,1.7441.3848,2.748v11.2871h-3.1152v-11.2871c0-1.3418-.3057-2.3828-.9189-3.124-.6123-.7412-1.5488-1.1113-2.8086-1.1113-.9219,0-1.7822.2217-2.5811.665s-1.5371,1.0439-2.2139,1.8027v13.0547h-3.1152Z" fill="#fff"/><path d="m230.4148,43.8668h-1.3828c-.3037,0-.5488-.0469-.7354-.1396-.1865-.0938-.3086-.292-.3672-.5957l-.3496-1.6445c-.4668.4199-.9219.7959-1.3652,1.1289-.4434.332-.9102.6123-1.4004.8398-.4893.2275-1.0117.3994-1.5654.5166-.5547.1162-1.1699.1748-1.8467.1748-.6885,0-1.333-.0967-1.9336-.29-.6016-.1924-1.123-.4824-1.5664-.8691s-.7959-.875-1.0586-1.4668c-.2627-.5908-.3936-1.29-.3936-2.0977,0-.7021.1924-1.3789.5771-2.0283s1.0059-1.2266,1.8633-1.7295c.8584-.5039,1.9805-.916,3.3691-1.2383s3.0859-.4834,5.0928-.4834v-1.3906c0-1.3857-.2949-2.4326-.8838-3.1436-.5898-.71-1.4609-1.0654-2.6162-1.0654-.7588,0-1.3975.0967-1.916.2891-.5195.1924-.9688.4082-1.3477.6475-.3799.2393-.7061.4551-.9805.6475s-.5449.2881-.8135.2881c-.21,0-.3936-.0547-.5518-.166-.1572-.1104-.2822-.248-.376-.4111l-.5596-.9971c.9795-.9453,2.0352-1.6514,3.167-2.1182,1.1318-.4658,2.3857-.7002,3.7627-.7002.9912,0,1.8721.1641,2.6426.4902.7695.3271,1.417.7822,1.9424,1.3652.5254.584.9219,1.2891,1.1904,2.1172.2676.8291.4023,1.7393.4023,2.7305v11.3398Zm-8.085-1.9072c.5479,0,1.0498-.0557,1.5049-.167.4551-.1104.8838-.2676,1.2861-.4717s.7871-.4521,1.1553-.7441c.3672-.291.7256-.624,1.0762-.9971v-3.6582c-1.4355,0-2.6543.0918-3.6572.2734-1.0039.1816-1.8203.4199-2.4502.7129s-1.0879.6396-1.374,1.0381c-.2861.3994-.4287.8447-.4287,1.3379,0,.4697.0762.874.2275,1.2148.1514.3398.3555.6191.6123.8359s.5605.376.9102.4756.7285.1494,1.1377.1494Z" fill="#fff"/><path d="m238.9529,18.0894v25.7773h-3.1143v-25.7773h3.1143Z" fill="#fff"/><path d="m248.2634,18.0894v25.7773h-3.1143v-25.7773h3.1143Z" fill="#fff"/><path d="m261.1257,25.859c1.0615,0,2.042.1787,2.9404.5342s1.6738.8691,2.3271,1.54,1.1641,1.499,1.5312,2.4844c.3672.9863.5518,2.1094.5518,3.3691,0,.4902-.0527.8164-.1582.9805-.1045.1631-.3027.2441-.5947.2441h-11.7949c.0234,1.1201.1748,2.0947.4551,2.9229.2803.8291.665,1.5195,1.1553,2.0742.4893.5537,1.0732.9678,1.75,1.2422.6758.2744,1.4346.4111,2.2744.4111.7812,0,1.4551-.0898,2.0215-.2715.5654-.1807,1.0527-.376,1.4609-.5859s.75-.4053,1.0244-.5859c.2734-.1807.5098-.2715.708-.2715.2568,0,.4551.0996.5957.2979l.875,1.1367c-.3857.4668-.8467.873-1.3828,1.2168-.5371.3438-1.1113.627-1.7236.8486s-1.2461.3877-1.8984.499c-.6543.1104-1.3018.166-1.9434.166-1.2246,0-2.3535-.207-3.3857-.6211s-1.9248-1.0215-2.6777-1.8203c-.752-.7988-1.3389-1.7881-1.7588-2.9658-.4199-1.1787-.6299-2.5322-.6299-4.0605,0-1.2363.1895-2.3916.5684-3.4648.3799-1.0732.9248-2.0039,1.6367-2.791.7119-.7881,1.5811-1.4062,2.6074-1.8555s2.1816-.6738,3.4648-.6738Zm.0703,2.293c-1.5049,0-2.6895.4346-3.5527,1.3037s-1.3994,2.0732-1.6094,3.6133h9.6416c0-.7227-.0986-1.3848-.2969-1.9863-.1982-.6006-.4902-1.1191-.875-1.5566s-.8545-.7764-1.4092-1.0156c-.5537-.2393-1.1875-.3584-1.8984-.3584Z" fill="#fff"/><path d="m272.7976,43.8668v-17.7275h1.8555c.4434,0,.7227.2158.8398.6475l.2451,1.9248c.7695-.8516,1.6299-1.54,2.5811-2.0645.9512-.5254,2.0508-.7881,3.2988-.7881.9678,0,1.8223.1611,2.5635.4814.7412.3213,1.3594.7764,1.8555,1.3652.4951.5889.8721,1.2979,1.1289,2.126.2559.8291.3848,1.7441.3848,2.748v11.2871h-3.1152v-11.2871c0-1.3418-.3057-2.3828-.9189-3.124-.6123-.7412-1.5488-1.1113-2.8086-1.1113-.9219,0-1.7822.2217-2.5811.665s-1.5371,1.0439-2.2139,1.8027v13.0547h-3.1152Z" fill="#fff"/><path d="m298.5759,25.8414c.7705,0,1.4902.085,2.1611.2539.6709.1699,1.2803.418,1.8291.7441h4.8125v1.1553c0,.3848-.2451.6299-.7354.7344l-2.0127.2803c.3965.7588.5957,1.6045.5957,2.5371,0,.8643-.167,1.6484-.499,2.3545-.333.7061-.7939,1.3096-1.3828,1.8105-.5889.502-1.2891.8867-2.0996,1.1553-.8115.2686-1.7002.4023-2.6689.4023-.8281,0-1.6104-.0986-2.3447-.2969-.374.2402-.6562.5-.8486.7773s-.2891.5488-.2891.8145c0,.4346.1689.7627.5078.9863.3379.2227.7871.3828,1.3467.4795.5605.0967,1.1963.1445,1.9082.1445h2.1787c.7402,0,1.4668.0654,2.1787.1953.7109.1299,1.3477.3418,1.9072.6367.5605.2959,1.0088.7031,1.3477,1.2227.3379.5195.5078,1.1934.5078,2.0195,0,.7671-.1904,1.5112-.5693,2.2319-.3789.7197-.9248,1.3604-1.6357,1.9219-.7119.5605-1.5811,1.0098-2.6074,1.3467-1.0273.3359-2.1875.5049-3.4824.5049-1.2959,0-2.4307-.1289-3.4043-.3857-.9746-.2568-1.7822-.6016-2.4238-1.0332-.6416-.4326-1.123-.9316-1.4434-1.498-.3213-.5664-.4814-1.1592-.4814-1.7783,0-.8755.2773-1.6196.8311-2.2329s1.3154-1.1006,2.2842-1.4629c-.502-.2324-.9014-.5439-1.1992-.9346-.2969-.3896-.4463-.9111-.4463-1.5635,0-.2568.0469-.5215.1406-.7949.0928-.2744.2363-.5449.4287-.8125.1924-.2686.4287-.5244.708-.7695.2803-.2441.6064-.46.9805-.6465-.875-.4893-1.5605-1.1396-2.0566-1.9512-.4961-.8105-.7432-1.7588-.7432-2.8438,0-.8633.166-1.6475.498-2.3535.333-.7061.7969-1.3066,1.3916-1.8027.5947-.4951,1.3037-.877,2.126-1.1455.8232-.2686,1.7246-.4033,2.7041-.4033Zm5.5303,18.9243c0-.4517-.123-.814-.3682-1.0874-.2441-.2744-.5771-.4854-.9971-.6348-.4199-.1484-.9043-.2578-1.4521-.3291-.5488-.0723-1.126-.1074-1.7324-.1074h-1.8555c-.6299,0-1.2314-.0791-1.8027-.2363-.665.3154-1.2041.7012-1.6182,1.1572-.415.4551-.6211.998-.6211,1.6294,0,.3965.1016.7676.3057,1.1123s.5166.6426.9365.8945c.4199.251.9473.4492,1.584.5957.6357.1455,1.3848.2188,2.248.2188.8398,0,1.5928-.0771,2.2578-.2314.665-.1553,1.2275-.375,1.6885-.6602.4609-.2861.8145-.626,1.0586-1.0176.2451-.3936.3682-.8281.3682-1.3037Zm-5.5303-9.561c.6299,0,1.1875-.0879,1.6709-.2627.4844-.1748.8896-.4199,1.2168-.7354.3262-.3145.5713-.6914.7344-1.1289.1641-.4375.2451-.918.2451-1.4434,0-1.085-.3291-1.9482-.9883-2.5898s-1.6191-.9629-2.8789-.9629c-1.248,0-2.2021.3213-2.8613.9629s-.9883,1.5049-.9883,2.5898c0,.5254.084,1.0059.2529,1.4434.1699.4375.417.8145.7441,1.1289.3262.3154.7295.5605,1.208.7354.4775.1748,1.0264.2627,1.6445.2627Z" fill="#fff"/><path d="m317.8601,25.859c1.0615,0,2.042.1787,2.9404.5342s1.6738.8691,2.3271,1.54,1.1641,1.499,1.5312,2.4844c.3672.9863.5518,2.1094.5518,3.3691,0,.4902-.0527.8164-.1582.9805-.1045.1631-.3027.2441-.5947.2441h-11.7949c.0234,1.1201.1748,2.0947.4551,2.9229.2803.8291.665,1.5195,1.1553,2.0742.4893.5537,1.0732.9678,1.75,1.2422.6758.2744,1.4346.4111,2.2744.4111.7812,0,1.4551-.0898,2.0215-.2715.5654-.1807,1.0527-.376,1.4609-.5859s.75-.4053,1.0244-.5859c.2734-.1807.5098-.2715.708-.2715.2568,0,.4551.0996.5957.2979l.875,1.1367c-.3857.4668-.8467.873-1.3828,1.2168-.5371.3438-1.1113.627-1.7236.8486s-1.2461.3877-1.8984.499c-.6543.1104-1.3018.166-1.9434.166-1.2246,0-2.3535-.207-3.3857-.6211s-1.9248-1.0215-2.6777-1.8203c-.752-.7988-1.3389-1.7881-1.7588-2.9658-.4199-1.1787-.6299-2.5322-.6299-4.0605,0-1.2363.1895-2.3916.5684-3.4648.3799-1.0732.9248-2.0039,1.6367-2.791.7119-.7881,1.5811-1.4062,2.6074-1.8555s2.1816-.6738,3.4648-.6738Zm.0703,2.293c-1.5049,0-2.6895.4346-3.5527,1.3037s-1.3994,2.0732-1.6094,3.6133h9.6416c0-.7227-.0986-1.3848-.2969-1.9863-.1982-.6006-.4902-1.1191-.875-1.5566s-.8545-.7764-1.4092-1.0156c-.5537-.2393-1.1875-.3584-1.8984-.3584Z" fill="#fff"/><path d="m339.6833,29.0621c-.1396.2568-.3564.3848-.6475.3848-.1748,0-.374-.0645-.5947-.1924-.2217-.1289-.4932-.2715-.8145-.4287-.3203-.1582-.7031-.3037-1.1455-.4375-.4443-.1338-.9688-.2012-1.5752-.2012-.5254,0-.998.0674-1.418.2012s-.7783.3174-1.0762.5508c-.2969.2334-.5244.5049-.6826.8145-.1572.3086-.2363.6445-.2363,1.0059,0,.4551.1318.834.3945,1.1377.2617.3037.6094.5654,1.041.7871s.9209.417,1.4697.5859c.5479.1699,1.1113.3506,1.6885.543.5781.1924,1.1406.4053,1.6895.6387.5479.2334,1.0381.5254,1.4697.875s.7783.7783,1.041,1.2861.3936,1.1172.3936,1.8291c0,.8164-.1455,1.5723-.4375,2.2656-.291.6943-.7236,1.2959-1.2949,1.8027-.5713.5078-1.2715.9072-2.0996,1.1992-.8291.291-1.7852.4375-2.8701.4375-1.2363,0-2.3564-.2012-3.3604-.6045-1.0029-.4023-1.8545-.918-2.5547-1.5479l.7354-1.1904c.0928-.1514.2041-.2686.332-.3496.1279-.082.2979-.123.5078-.123s.4316.082.665.2451.5156.3447.8486.543c.332.1982.7354.3789,1.207.542.4727.1641,1.0645.2451,1.7764.2451.6064,0,1.1377-.0791,1.5928-.2363s.834-.3701,1.1377-.6387c.3027-.2686.5273-.5771.6738-.9277.1455-.3496.2188-.7227.2188-1.1201,0-.4893-.1318-.8945-.3936-1.2158-.2627-.3213-.6104-.5947-1.042-.8223s-.9248-.4258-1.4785-.5957c-.5547-.1689-1.1201-.3467-1.6973-.5332-.5781-.1865-1.1436-.3994-1.6973-.6387-.5547-.2393-1.0479-.54-1.4795-.9014s-.7783-.8076-1.041-1.3389-.3936-1.1748-.3936-1.9336c0-.6768.1396-1.3271.4199-1.9512s.6885-1.1729,1.2246-1.6455c.5371-.4727,1.1963-.8486,1.9775-1.1289.7822-.2793,1.6738-.4199,2.6777-.4199,1.167,0,2.2139.1836,3.1416.5518.9268.3672,1.7295.8721,2.4062,1.5137l-.7002,1.1377Z" fill="#fff"/><line x1="14.2246" y1="11.3421" x2="14.2246" y2="41.2565" fill="none" stroke="#fff" stroke-linecap="round" stroke-miterlimit="10" stroke-width="3"/><line x1="43.3892" y1="16.1331" x2="43.3892" y2="64.4045" fill="none" stroke="#fff" stroke-linecap="round" stroke-miterlimit="10" stroke-width="3"/><line x1="54.0707" y1="8.4372" x2="54.0707" y2="41.2565" fill="none" stroke="#fff" stroke-linecap="round" stroke-miterlimit="10" stroke-width="3"/><line x1="23.4378" y1="24.4506" x2="23.4124" y2="63.8214" fill="none" stroke="#fff" stroke-linecap="round" stroke-miterlimit="10" stroke-width="3"/><line x1="32.7077" y1="3.9389" x2="32.6256" y2="54.7988" fill="none" stroke="#fff" stroke-linecap="round" stroke-miterlimit="10" stroke-width="3"/><path d="m34.1717,3.4203c-16.9836,0-30.7514,13.7679-30.7514,30.7514s13.7679,30.7514,30.7514,30.7514" fill="none" stroke="#fff" stroke-miterlimit="10" stroke-width="6.8405"/><path d="m34.1476,64.9232c16.9836,0,30.7514-13.7679,30.7514-30.7514,0-16.9836-13.7679-30.7514-30.7514-30.7514" fill="none" stroke="#fff" stroke-miterlimit="10" stroke-width="6.8405"/></g></svg>