<svg width="44" height="40" viewBox="0 0 44 40" fill="none" xmlns="http://www.w3.org/2000/svg">
<path d="M9.81238 16.4541L3.66002 27.3308L8.39779 35.7653L3.65985 27.3315L0.40423 21.536C0.396841 21.5228 0.389628 21.5096 0.382416 21.4964C0.373444 21.48 0.364647 21.4636 0.356027 21.447C0.355851 21.4467 0.355851 21.4463 0.3555 21.4461C0.340194 21.4165 0.325417 21.3866 0.310991 21.3566C0.310815 21.3563 0.310639 21.3559 0.310463 21.3557C0.265955 21.2627 0.226021 21.1679 0.19066 21.0713C0.180809 21.0438 0.171133 21.0162 0.161985 20.9883C0.0553761 20.6683 0.000488281 20.3318 0.000488281 19.9919C0.000488281 19.4509 0.139467 18.9191 0.40423 18.4478L5.66677 9.07991V9.07956C5.71955 9.20326 5.77918 9.32396 5.84533 9.44079L9.81238 16.4531L9.81273 16.4536L9.81238 16.4541Z" fill="#42C7BB"/>
<path d="M14.9267 25.4944L14.9264 25.4951L9.99547 34.282C9.63096 34.932 9.07223 35.4511 8.39827 35.766L8.39792 35.7653L3.66016 27.3308L9.81251 16.4541L9.81286 16.4536L14.9262 25.4935L14.9267 25.4944Z" fill="#B2A4D1"/>
<path d="M27.5979 29.9861V29.9865L22.7668 38.5348C22.5155 38.9794 22.3623 39.4731 22.3178 39.9824H12.5972C12.3889 39.9824 12.182 39.9616 11.9794 39.9207C11.9372 39.9122 11.8951 39.9027 11.8532 39.8925C11.8349 39.8879 11.8166 39.8833 11.7985 39.8786C11.7815 39.874 11.7644 39.8694 11.7475 39.8646C11.7136 39.855 11.6796 39.8447 11.646 39.834C11.6293 39.8287 11.6124 39.8231 11.5957 39.8174C11.5705 39.809 11.5457 39.8001 11.5207 39.791C11.5083 39.7864 11.4958 39.7816 11.4835 39.7771C11.4432 39.7617 11.4032 39.7453 11.3636 39.7284C11.2449 39.6773 11.129 39.6187 11.0166 39.5529C10.5368 39.2717 10.1403 38.8676 9.8676 38.382L8.39795 35.766C9.07191 35.4511 9.63064 34.932 9.99515 34.282L14.9261 25.4951L14.9264 25.4944L16.4446 28.1781C16.755 28.727 17.2048 29.1835 17.7482 29.5012C18.2916 29.8187 18.9093 29.9861 19.5381 29.9861H27.5979Z" fill="#B2A4D1"/>
<path d="M19.7728 13.1646H13.7439C13.115 13.1646 12.4974 13.332 11.9539 13.6496C11.4105 13.9673 10.9607 14.4238 10.6505 14.9727L9.81278 16.4536L9.81243 16.453L5.84538 9.44078C5.77923 9.32395 5.71959 9.20325 5.66699 9.07955L9.86819 1.60103C10.1236 1.14641 10.4878 0.762627 10.9279 0.484392C11.3681 0.206333 11.8704 0.0424579 12.3893 0.00756836L19.7728 13.1646Z" fill="#1E9C96"/>
<path d="M20.2844 15.0118C20.2846 15.6256 20.127 16.2288 19.827 16.7636L14.9269 25.4944L14.9263 25.4935L9.81299 16.4536L10.6507 14.9727C10.9609 14.4238 11.4107 13.9673 11.9541 13.6496C12.4976 13.332 13.1152 13.1646 13.7441 13.1646H19.773L19.7737 13.1661L19.8265 13.2603C20.1266 13.7949 20.2842 14.3983 20.2844 15.0118Z" fill="#5081A7"/>
<path d="M40.0383 22.1334L34.1079 22.1339C33.4788 22.1337 32.861 22.3011 32.3176 22.6186C31.774 22.9364 31.3239 23.3929 31.0136 23.942L27.5983 29.9862H19.5384C18.9096 29.9862 18.292 29.8188 17.7486 29.5012C17.2051 29.1835 16.7553 28.727 16.445 28.1781L14.9268 25.4944L19.8269 16.7636C20.1268 16.2288 20.2845 15.6256 20.2843 15.0118C20.2841 14.3983 20.1265 13.7949 19.8264 13.2603L19.7736 13.1661L19.7729 13.1646H32.8941C33.523 13.1646 34.1406 13.332 34.6841 13.6496C35.2277 13.9673 35.6773 14.4238 35.9876 14.9727L40.0381 22.133V22.1334H40.0383Z" fill="#5081A7"/>
<path d="M43.9804 19.9912C43.9802 20.5321 43.8413 21.0639 43.5765 21.5353L43.2407 22.1326V22.133L40.0383 22.1334V22.133L35.9877 14.9727C35.6774 14.4238 35.2277 13.9673 34.6841 13.6496C34.1407 13.332 33.5231 13.1646 32.8941 13.1646H19.773L12.3895 0.00757702C11.8705 0.0424665 11.3683 0.206342 10.9281 0.484401C10.488 0.762636 10.1238 1.14642 9.86837 1.60104L5.66717 9.07956C5.66717 9.07956 5.66699 9.07921 5.66699 9.07903L9.86837 1.60034C10.1238 1.14572 10.488 0.761931 10.9281 0.483696C10.9547 0.466956 10.9814 0.450568 11.0083 0.434709C11.0219 0.426604 11.0353 0.418851 11.049 0.411097C11.0625 0.403344 11.0761 0.395591 11.0898 0.38819C11.1035 0.380613 11.1172 0.373212 11.1311 0.365811C11.1449 0.358587 11.1588 0.351362 11.1727 0.344138C11.2671 0.29568 11.3639 0.252156 11.4626 0.213742C11.4763 0.20828 11.49 0.202994 11.5039 0.197884C11.5148 0.193654 11.5259 0.189602 11.5368 0.185725C11.5588 0.177796 11.5808 0.170042 11.603 0.162642C11.6211 0.15665 11.6394 0.150659 11.6577 0.144844C11.6943 0.133215 11.7309 0.122466 11.7678 0.112246C11.7991 0.103611 11.8304 0.0955057 11.8619 0.0879287C11.8855 0.0821137 11.9091 0.0768274 11.9328 0.0715412C11.9566 0.0664311 11.9801 0.0616734 12.0041 0.0569157C12.1311 0.0324226 12.2597 0.0155065 12.3895 0.00687218C12.4586 0.00229073 12.5281 0 12.598 0H31.3838C31.592 0 31.7987 0.0207927 32.0012 0.0616734C32.0856 0.0785895 32.1693 0.0992061 32.252 0.123171H32.2524C32.2988 0.136739 32.3451 0.151188 32.391 0.166871C32.419 0.176386 32.4468 0.186254 32.4744 0.19665C32.4892 0.202289 32.5041 0.207751 32.5187 0.213566C32.52 0.213919 32.5212 0.214447 32.5224 0.214976C32.5324 0.218852 32.5421 0.222729 32.552 0.226782C32.6084 0.249513 32.6644 0.27383 32.7194 0.299909C32.7372 0.308367 32.755 0.317001 32.7726 0.325812C32.7903 0.334622 32.8079 0.343609 32.8255 0.352772C32.8489 0.36493 32.8721 0.377441 32.8952 0.390128C32.9068 0.396472 32.9184 0.402992 32.93 0.409511C32.9413 0.416207 32.9527 0.422727 32.964 0.429423C33.4437 0.710654 33.8402 1.1147 34.1129 1.60034L43.5765 18.447C43.8411 18.9184 43.9802 19.4502 43.9802 19.9912H43.9804Z" fill="#73C8CC"/>
<path d="M38.8285 29.9861L34.1126 38.382C33.8397 38.8676 33.4432 39.2717 32.9635 39.5529C32.9388 39.5674 32.9138 39.5815 32.8889 39.5954C32.8876 39.5959 32.8864 39.5966 32.8852 39.5973C32.8848 39.5977 32.8846 39.5977 32.8843 39.5979C32.8839 39.598 32.8834 39.5982 32.8831 39.5984C32.8568 39.6128 32.8303 39.6269 32.8037 39.6403C32.8011 39.6419 32.7984 39.6433 32.7958 39.6446C32.7925 39.6465 32.7891 39.6481 32.7858 39.6497C32.7851 39.65 32.7842 39.6504 32.7835 39.6507C32.7768 39.6542 32.7701 39.6576 32.7633 39.6608C32.7613 39.662 32.7592 39.6631 32.7573 39.6638C32.7513 39.6669 32.7451 39.6699 32.7392 39.6726C32.7383 39.6731 32.7376 39.6736 32.7367 39.6738C32.7342 39.6749 32.7318 39.6759 32.7293 39.6773C32.727 39.6786 32.7247 39.6796 32.7224 39.6805C32.6992 39.6916 32.6758 39.7022 32.6524 39.7127C32.6359 39.72 32.6192 39.7272 32.6025 39.7344C32.6007 39.7351 32.5988 39.736 32.597 39.7367C32.5953 39.7374 32.5935 39.7381 32.5919 39.7388C32.5801 39.7438 32.5683 39.7487 32.5566 39.7535C32.5427 39.7591 32.5286 39.7646 32.5145 39.7702C32.5105 39.772 32.5066 39.7734 32.5027 39.7748C32.4925 39.7785 32.4825 39.7823 32.4723 39.7862C32.4593 39.791 32.4464 39.7957 32.4334 39.8003C32.4236 39.804 32.4135 39.8075 32.4035 39.8109C32.3977 39.813 32.3919 39.8149 32.3861 39.8169C32.3856 39.8172 32.385 39.8174 32.3843 39.8176C32.3731 39.8215 32.3618 39.8252 32.3504 39.8289C32.334 39.8342 32.3176 39.8394 32.3011 39.8444C32.2724 39.8534 32.2436 39.8616 32.2147 39.8694C32.2031 39.8727 32.1915 39.8759 32.1799 39.8789C32.1664 39.8826 32.1528 39.8861 32.1393 39.8895C32.1268 39.8925 32.1143 39.8957 32.1018 39.8985C32.0867 39.9022 32.0717 39.9055 32.0566 39.9089C32.0548 39.9092 32.0531 39.9096 32.0515 39.9099C32.0413 39.9122 32.0309 39.9145 32.0207 39.9164C32.0189 39.917 32.0172 39.9173 32.0154 39.9177C32.0147 39.9179 32.014 39.918 32.0133 39.918C32.0119 39.9184 32.0105 39.9187 32.0089 39.9189C32.0042 39.92 31.9996 39.921 31.9948 39.9219C31.9801 39.9249 31.9651 39.9277 31.9501 39.9304C31.9501 39.9305 31.9498 39.9305 31.9496 39.9305C31.9392 39.9325 31.929 39.9342 31.9187 39.936C31.91 39.9376 31.9014 39.939 31.8928 39.9404C31.8652 39.945 31.8376 39.9492 31.8098 39.9531C31.8055 39.9536 31.8011 39.9542 31.7969 39.9549C31.792 39.9556 31.7869 39.9561 31.782 39.9566C31.7774 39.9573 31.7728 39.9579 31.7681 39.9586C31.7607 39.9594 31.7531 39.9603 31.7455 39.9612C31.729 39.9631 31.7125 39.9649 31.6958 39.9667C31.6639 39.9698 31.6317 39.9727 31.5997 39.9748C31.5923 39.9753 31.5849 39.9758 31.5777 39.9762C31.5563 39.9776 31.5348 39.9786 31.5133 39.9795C31.5132 39.9797 31.513 39.9797 31.5126 39.9795C31.5042 39.9801 31.4956 39.9804 31.4869 39.9806C31.4743 39.9811 31.4614 39.9815 31.4486 39.9816H31.4479C31.4407 39.9818 31.4333 39.982 31.4262 39.982C31.4118 39.9822 31.3974 39.9823 31.383 39.9823H22.3179C22.3624 39.4731 22.5156 38.9794 22.7668 38.5348L27.5978 29.9865V29.9861H38.8285Z" fill="#8C8AD1"/>
<path d="M41.6443 24.9742V24.9746L38.8287 29.9861H27.5981L31.0135 23.942C31.3238 23.3929 31.7738 22.9364 32.3174 22.6186C32.8609 22.3011 33.4787 22.1337 34.1078 22.1339L40.0381 22.1334L41.6443 24.9742Z" fill="#3F6CA7"/>
<path d="M43.2402 22.133L41.6443 24.9742L40.0381 22.1333L43.2402 22.133Z" fill="#5AA8CC"/>
</svg>
