<svg width="270" height="51" viewBox="0 0 270 51" fill="none" xmlns="http://www.w3.org/2000/svg">
<g clip-path="url(#clip0_3893_41049)">
<mask id="mask0_3893_41049" style="mask-type:alpha" maskUnits="userSpaceOnUse" x="0" y="0" width="56" height="50">
<path d="M54.3947 22.2675C55.3795 23.9451 55.3795 26.0243 54.3947 27.7019L43.3552 46.5082C42.3915 48.15 40.6301 49.1584 38.7264 49.1584L16.4922 49.1584C14.5884 49.1584 12.827 48.15 11.8633 46.5082L0.823799 27.7019C-0.160984 26.0243 -0.160984 23.9451 0.823799 22.2675L11.8633 3.46124C12.827 1.81943 14.5884 0.810976 16.4922 0.810976L38.7264 0.810976C40.6301 0.810976 42.3915 1.81943 43.3552 3.46124L54.3947 22.2675Z" fill="#FF0CE7"/>
</mask>
<g mask="url(#mask0_3893_41049)">
<path d="M50.3429 35.4319L46.7814 41.3529L46.5899 40.8287L46.3928 40.387L46.2013 40.0292L46.0825 39.7888L45.6631 39.2031L45.0928 38.6132L44.6316 38.1869L44.2486 37.906L43.7803 37.5621L43.0074 37.0981L41.8416 36.743L41.4363 36.6256L41.1204 36.6004L40.8296 36.5837L40.4774 36.5529H40.1251L39.8931 36.5473H39.6967L39.6611 36.5529L39.0516 36.62L38.2549 36.7318L37.9418 36.7822L37.6713 36.8129L37.8691 36.5837L38.2046 35.8121L38.4282 34.9175L38.4953 34.1348V33.1955L38.4562 32.3903L38.3891 32.0884L39.0293 31.7446L40.0105 31.1379L40.6255 30.7018L40.8492 30.5369L41.0393 30.3747L42.0681 29.4159L42.7194 28.7617L43.3708 27.9482L43.9578 27.185L44.4163 26.3967L44.7937 25.6642L45.1292 24.8563L45.3165 24.2357L45.4842 23.4585L45.5373 23.0783L45.5569 22.8072L45.5821 22.4382L45.5569 22.0412L45.5234 21.8567L45.5017 21.6631L45.8728 21.8567L46.3061 22.1614L46.9044 22.645L47.1783 22.8687L47.4271 23.1231L48.0086 23.6989L48.7187 24.5069L49.2862 25.2728L49.5825 25.7173L49.7754 26.0584L50.0228 26.4973L50.1165 26.679L50.3289 27.1361L50.5358 27.582L50.916 28.5101L51.0614 29.0133L51.1173 29.2677L51.285 30.0169L51.3577 30.5537L51.4583 31.2162L51.4751 31.9934L51.4583 32.5413V32.9271L51.422 33.2514L50.3429 35.4319Z" fill="#FDB635"/>
<path d="M22.1582 25.186L21.8015 24.7834L21.5418 25.1497L21.0079 25.7493L20.4823 26.3573L20.172 26.6607L19.768 27.0506L19.139 27.5832L18.5771 28.0081L17.8265 28.4344L17.5414 28.5658L17.1137 28.7615L16.767 28.8943L16.2233 29.0942L16.0555 29.1403L15.5733 29.2535L15.2071 29.3192L14.771 29.3989L14.381 29.4394L14.1001 29.4786L13.8974 29.4968L13.383 29.5331L12.9077 29.5722L12.3682 29.6114L12.6394 30.0111L12.9665 30.4836L13.2712 30.9225L13.5955 31.4453L13.9868 32.0715L14.3503 32.734L14.7053 33.4189L14.9317 33.8998L15.3874 34.8195L15.7928 35.6302L16.1031 36.2368L16.5448 36.9413L16.788 37.246L16.9361 37.4417L17.0619 37.6346L17.2437 37.8918L17.3834 38.0959L17.6714 38.3859L17.6965 37.8583L17.7748 37.2069L17.8671 36.3291L17.9985 35.5883L18.1774 34.9677L18.4709 34.1653L18.9098 33.3686L19.441 32.5523L19.9693 31.9205L20.6962 31.2356L21.5041 30.6737L22.2868 30.2376L22.6628 30.0489L23.0319 29.8738L23.3729 29.7358L23.7168 29.6058L24.3528 29.4408L24.9077 29.3388L25.3291 29.2766L25.27 29.2116L25.1593 29.0921L25.0499 28.9747L24.8944 28.794L24.742 28.6176L24.5614 28.4093L24.3545 28.1392L24.1742 27.9019L23.9869 27.6646L23.7894 27.4165L23.7143 27.3232L23.6154 27.1859L23.187 26.5894L22.8571 26.1029L22.5161 25.6277L22.1582 25.186Z" fill="#55AD7C"/>
<path d="M0.391886 26.8423L0.727352 27.6027L0.760899 27.3455L0.878313 26.8927L1.14669 26.2273L1.47097 25.6235L1.88471 25.042L2.30964 24.6199L2.73456 24.2928L3.11476 24.0077L3.47818 23.812L4.2218 23.5156L5.01015 23.2696L5.63635 23.1578L6.21223 23.0124L7.05649 22.9174L7.95107 22.8112L8.88479 22.7385L9.99183 22.649L11.11 22.5763L11.9264 22.4254L12.7538 22.2744L13.3744 22.0955L14.3976 21.8048L15.3537 21.4861L16.3657 21.1618L17.3385 20.7592L17.8306 20.5076L17.2547 19.9541L16.6732 19.4509L15.9352 18.7241L15.2698 17.9972L14.3641 17.0076L13.8329 16.3702L13.408 15.7775L13.0781 15.2632L12.642 14.9053L11.9934 14.5084L11.3561 14.1617L10.6236 13.9548H9.79614L9.22025 14.0052L8.43191 14.1617L7.39196 14.4636L6.6092 14.7879L5.6028 15.4253L4.7865 15.962L4.39512 16.1857L1.04045 21.0388L0.0676022 23.5771L-0.0330391 25.3327L0.391886 26.8423Z" fill="#076995"/>
<path d="M27.2964 47.7072L25.5743 49.5132L25.7756 50.1114L33.7038 50.2568L40.5026 50.4245L43.7119 48.367L46.8765 41.6129L46.5969 40.8302L46.3956 40.3829L46.0825 39.779L45.6688 39.1976L45.1768 38.6832L44.6288 38.18L43.8125 37.5761L43.0144 37.0967L42.5797 36.9597L42.2987 36.8703L42.015 36.7906L41.7983 36.7263L41.6026 36.669L41.4195 36.6145L40.469 36.5474H39.6975L39.0601 36.6145L38.2885 36.7263L37.6399 36.8101L37.366 37.2518L36.9243 38.0346L36.3875 38.8844L35.3811 40.1033L34.2853 41.1768L33.4578 41.9484L31.937 43.2679L30.2038 44.7998L28.7501 46.1753L27.2964 47.7072Z" fill="#FB9E2F"/>
<path d="M14.0899 48.2842L13.8215 48.4519V48.6252L14.0564 48.9048L14.4925 49.3353L15.4094 49.6149L17.8919 49.6931H25.3951L26.0493 49.0278L26.6531 48.4128L27.1955 47.8313L27.9335 47.0653L28.5765 46.3944L29.4319 45.5501L30.9974 44.1356L33.1053 42.3017L34.531 40.9654L35.3976 40.1156L35.9903 39.3943L36.4488 38.8408L36.7842 38.2929L37.0973 37.7449L37.4048 37.197L37.7012 36.7944L37.4048 36.9174L37.0302 37.0684L36.5047 37.2809L35.8505 37.5157L35.297 37.7449L34.6093 38.0357L33.9328 38.3488L33.1053 38.701L32.2946 39.0644L31.5174 39.3943L30.5613 39.8025L29.1244 40.2889L28.0733 40.6914L27.1172 40.9822L26.1164 41.189L25.4063 41.2505L24.7074 41.2841H23.9526L23.2481 41.2226L22.5996 41.1499L21.9622 41.0213L21.308 40.8592L20.5924 40.574L20.1395 40.3448L19.6195 40.0429L18.8871 39.5061L18.1882 38.8967L17.6291 38.3432V38.5165L17.657 39.4334L17.6291 40.4566L17.5899 41.9438L17.5173 42.7993L17.4166 43.6156L17.2321 44.4263L16.9637 45.1531L16.5947 45.8856L16.1922 46.4782L15.8567 46.892L15.4653 47.3113L15.1131 47.6021L14.5707 47.9878L14.0899 48.2842Z" fill="#60A161"/>
<path d="M5.48543 36.2468L6.17314 36.8282L6.25141 36.599L6.05572 34.7987L6.17314 32.9424L7.19072 31.3154L9.30416 30.1916L10.9703 29.817L12.4072 29.6269L11.8537 28.928L11.1548 28.134L10.3888 27.4128L9.46071 26.5853L8.75623 26.0374L7.8337 25.3776L6.94471 24.8688C6.62042 24.7272 5.96626 24.445 5.9439 24.4495C5.92154 24.454 5.23756 24.2725 4.89836 24.1811L3.83046 24.1196L3.1148 24.1811L2.81847 24.2538L2.38795 24.5501L1.91271 24.9807L1.4766 25.5901L1.09081 26.2946L0.861579 26.8872L0.755348 27.2954L0.705028 27.5805L1.58283 29.666L3.41113 32.8809L5.48543 36.2468Z" fill="#0A857F"/>
<path d="M11.6634 2.47613L10.4669 5.12632L8.58829 8.87795L4.3027 16.2526L4.83107 15.9395L5.31749 15.6264L5.88219 15.2462L6.50281 14.8604L6.91096 14.6703L7.31352 14.5026L7.79436 14.3461L8.35906 14.1895L8.99085 14.0553L9.49405 13.9938L9.95252 13.9659H10.3495L10.6346 13.9938L10.9366 14.0833L11.272 14.1448L11.6075 14.3237L12.1107 14.6144L12.4853 14.8325L12.8431 15.0673L13.0724 15.2798L13.0388 15.14L12.8711 14.7039L12.6083 14.0833L12.3735 13.2782L12.2337 12.473L12.1666 11.6232L12.1946 10.8684L12.2672 10.2869L12.4014 9.58802L12.681 8.77172L13.1171 7.94983L13.6259 7.15589L14.1738 6.50173L14.8615 5.85316L15.8064 5.23814L16.6059 4.88031L17.316 4.61752L17.9422 4.49452L18.4622 4.43302H19.3903L20.1228 4.49452L20.8216 4.64548L21.4702 4.8188L21.8672 5.0089L22.471 5.3276L23.1196 5.7022L23.7793 6.16067L24.5677 6.8316L25.233 7.46899L26.0158 8.23497L26.8712 9.12396L27.5366 9.95704L27.9335 10.5161L28.2578 9.43147L28.5933 8.58162L29.0574 7.59759L29.6668 6.44023L30.3713 5.33878L31.059 4.42184L32.1828 3.38189L33.2619 2.66063L34.6429 1.87229L35.5934 1.48091L36.4264 1.22931L37.1197 1.06717L37.3154 0.955346L37.2819 0.508057L33.4352 0.508057L24.4894 0.508057L20.9558 0.508057L16.8408 0.508057L14.2353 0.653426L11.6634 2.47613Z" fill="#045876"/>
<path d="M27.8051 10.8688L27.9365 10.5152L27.4375 9.83164L26.8421 9.09362L25.9069 8.13055L24.5399 6.80965L23.7697 6.15549L23.0639 5.66347L22.5551 5.36435L22.0742 5.09318L21.4802 4.82201L21.1908 4.72137L20.7827 4.62352L20.1341 4.49772L19.4031 4.43482L18.9544 4.39429L18.4736 4.41106L17.948 4.47815L17.3162 4.61234L16.4552 4.93663L15.9268 5.16866L15.4739 5.42026L15.0127 5.74175L14.7918 5.8983L14.5542 6.12753L14.3557 6.30924L14.1852 6.48257L14.023 6.68105L13.791 6.94663L13.5953 7.18425L13.436 7.44703L12.9999 8.14033L12.6784 8.73299L12.5134 9.1691L12.3904 9.62198L12.2507 10.2873L12.1947 10.7905L12.1556 11.2714V11.6404L12.1947 12.0262L12.2507 12.5909L12.3289 13.1164L12.4743 13.6588L12.6476 14.2179L12.888 14.8161L13.039 15.2187L13.408 15.789L13.8329 16.376L14.3138 16.9519L15.1189 17.8353L15.8849 18.674L16.4943 19.2946L17.0087 19.7754L17.8138 20.5302L18.3729 20.2563L19.055 19.8425L19.7372 19.3897L20.3019 18.9424L20.8107 18.5454L21.5263 17.9583L22.2811 17.265L22.8235 16.7171L23.226 16.3257L23.869 15.6995L24.389 15.0733L24.9481 14.4303L25.6022 13.7091L26.2173 12.9711L26.9217 12.0429L27.4753 11.3105L27.8051 10.8688Z" fill="#0A837F"/>
<path d="M18.5685 21.233L17.7466 20.5341L18.5685 20.1372L19.4239 19.5948L20.3353 18.9239L21.8449 17.6603L23.2594 16.2961L24.8473 14.5181L26.2283 12.947L26.9831 11.963L27.3353 11.4877L27.6596 11.0069L27.9336 10.5093L27.7659 11.0069L27.6093 11.6555L27.3968 12.6674L27.2906 13.685L27.1956 14.6858L27.162 15.709V16.6483L27.2627 17.5988L27.4807 18.4039L27.7211 18.9574L27.2627 19.0805L26.6476 19.3544L25.8705 19.7738L25.1213 20.3049L24.2043 21.1659L23.3824 22.0941L22.6612 23.1284L22.0853 24.1963L21.8225 24.8113L21.1628 23.9783L20.3744 23.0837L19.5078 22.1556L18.5685 21.233Z" fill="#309F9C"/>
<path d="M39.6695 0.743408L37.3045 0.762977L37.1982 0.978235L37.1088 1.06769L36.8963 1.11242L36.108 1.30811L35.5041 1.5038L35.11 1.63799L34.6906 1.83368L34.1399 2.15237L33.4298 2.53256L32.7421 2.99663L32.4011 3.21748L32.0768 3.46628L31.4058 4.0813L31.1934 4.28258L31.0229 4.44472L30.707 4.81374L30.3827 5.29457L29.913 6.0326L29.4713 6.81536L29.0799 7.52543L28.5264 8.73311L28.2077 9.57177L27.9352 10.5055L27.794 10.9164L27.7269 11.1596L27.5941 11.723L27.3984 12.6469L27.3551 13.0522L27.2628 13.9706L27.1901 14.703L27.1622 15.4536V16.3147V16.7172L27.1901 17.2148L27.2572 17.6621L27.3984 18.2715L27.5592 18.6797L27.7213 18.9648L28.2413 18.8027L28.8507 18.635L29.4154 18.5343L30.0975 18.4561L30.9194 18.4225H31.8419H32.675L33.6311 18.5343L34.0728 18.5958L34.699 18.6797L35.3811 18.8027L35.7669 18.8977L36.5441 19.0767L36.9858 19.1773L37.6567 19.3227L38.2885 19.4457L38.3919 18.9453L38.4842 18.3275L38.6352 17.5391L38.747 16.4433L39.0042 15.5375L39.3732 14.6709L39.9826 13.8042L40.7654 13.1277L41.6544 12.6469L42.5713 12.3729L43.259 12.2276L43.628 12.194L44.4443 12.2276L45.1768 12.3058L45.6464 12.4232L46.2055 12.5462L46.9827 12.8314L47.7878 13.1948L48.6153 13.6533L49.1632 13.9804C49.2965 14.0708 49.5647 14.2538 49.5714 14.2627C49.5781 14.2717 49.7438 14.3801 49.8258 14.4332L50.1696 14.5451L50.1836 14.4528L49.0905 12.4875L47.7067 10.1644L45.6995 6.65042L43.7342 3.27618L42.3309 1.83927L40.8548 0.972644L39.6695 0.743408Z" fill="#136E97"/>
<path d="M13.2959 48.4733L13.8662 48.423L14.5791 47.9841L15.0124 47.6654L15.4121 47.3579L15.6581 47.1482L16.1865 46.5472L16.6198 45.8958L17 45.1466L17.2656 44.4002L17.4389 43.6202L17.5172 43.0639L17.5899 42.2979L17.6374 41.3447L17.6821 39.4577V38.9433L17.6654 38.3814L17.355 38.0459L16.9189 37.4085L16.5387 36.9277L16.1138 36.2456L15.7001 35.4516L15.3646 34.7695L15.018 34.065L14.6713 33.3382L14.2352 32.4995L13.8103 31.7839L13.4161 31.1381L13.0024 30.5342L12.583 29.8969L12.3957 29.6145L11.4397 29.6648L10.696 29.7543L9.94123 29.8885L9.5834 29.9723L8.96838 30.1345L8.33099 30.3693L7.77188 30.6544L7.22954 31.0738L6.73193 31.6329L6.41883 32.1417L6.1225 32.8014L5.93241 33.573L5.89886 33.9868L5.93241 34.6185L5.98832 35.5411L6.07218 36.0219L6.16164 36.6425L5.85972 36.8159L10.9141 46.3543L13.2959 48.4733Z" fill="#2D8864"/>
<path d="M34.8501 26.2214L34.291 25.858L34.6516 25.5505L35.3002 24.9718L36.1304 24.0548L36.8852 23.0736L37.5031 21.9218L37.8441 21.167L38.1544 20.1159L38.2215 19.7769L38.2837 19.438L38.6646 19.5023L39.2028 19.6127L39.4893 19.6686L39.6542 19.7008L40.1994 19.8811L40.7962 20.0279L41.3791 20.1509L42.0822 20.2822L42.2835 20.3437L43.0131 20.5408L43.2549 20.6023L43.4841 20.6862L43.7721 20.8106L44.0419 20.949L44.587 21.1782L45.0762 21.4466L45.5053 21.6619L45.5626 22.0448L45.5962 22.4446L45.5626 22.8164L45.5011 23.4482L45.3278 24.2477L45.1209 24.9075L44.7799 25.7126L44.3606 26.5121L43.9021 27.2725L43.466 27.8428L42.6832 28.8045L41.811 29.6823L40.8885 30.5154L39.9659 31.1807L39.1608 31.6839L38.4004 32.0921L38.3725 31.7957L38.2159 31.136L37.9587 30.3141L37.6233 29.5258L37.1648 28.7094L36.628 27.9882L36.0018 27.2949L35.4539 26.7414L34.8501 26.2214Z" fill="#EE822D"/>
<path d="M38.3752 18.9238L38.2857 19.441L38.6673 19.5025L39.0489 19.5836L39.6555 19.7024L40.1895 19.8827L40.8227 20.0393L41.3706 20.1525L42.0835 20.2839L42.739 20.4754L43.2422 20.6012L43.6448 20.7521L44.1005 20.9758L44.5911 21.1826L44.9475 21.3811L45.3026 21.5614L45.8197 21.8298L46.281 22.1457L47.1812 22.8809L48.0674 23.7685L48.6432 24.4185L49.1325 25.0559L49.5881 25.7352L50.0564 26.5641L50.2996 27.0925L50.5903 27.7187L50.9104 28.5084L51.0698 29.0438L51.1984 29.628L51.2934 30.1061L51.3773 30.7127L51.4542 31.2522V31.8561V32.3789V32.8988L51.415 33.272L52.0426 32.4767L52.5011 31.7722L53.2839 30.6652L54.1225 29.2227L54.9165 27.6012L55.5091 26.114L55.5874 24.7386L55.3861 23.9335L55.0171 22.9494L53.966 21.0149L52.5906 18.6806L50.8573 15.7201L50.1724 14.5432L49.932 14.4593L49.7475 14.3783L49.5155 14.2105L49.0011 13.8695L48.4951 13.5815L47.8325 13.2153L47.0526 12.8575L46.2838 12.5528L45.7806 12.4214L45.3249 12.3179L45.051 12.2872L44.4611 12.2173L44.0585 12.1921H43.6392L43.2674 12.2173L42.5853 12.3543L42.1631 12.4829L41.8389 12.5807L41.6236 12.6534L41.4587 12.7373L40.9527 13.0084L40.6004 13.2293L40.3153 13.4585L40.0777 13.6934L39.882 13.917L39.7142 14.1658L39.5297 14.4174L39.3816 14.6355L39.2697 14.8954L39.0098 15.4741L38.8476 16.0416L38.7665 16.31L38.7246 16.5784L38.6519 17.2801L38.5904 17.6658L38.3752 18.9238Z" fill="#2E9B9C"/>
<path d="M27.9056 19.4449L27.7099 18.9529L28.8757 18.623L29.418 18.5308L30.1057 18.4497L30.9276 18.4189H31.2239H32.412H32.6553L33.5359 18.5112L33.9776 18.5839L34.7016 18.6789L35.3725 18.8019L35.8618 18.9166L36.7591 19.1234L37.4329 19.2716L37.8075 19.3443L38.2827 19.4365L38.2268 19.7552L38.1373 20.1997L38.0032 20.6386L37.8242 21.2257L37.5223 21.8798L37.117 22.6542L36.8989 23.0596L36.6809 23.3363L36.0854 24.1135L35.4452 24.8068L35.1349 25.1199L34.8022 25.4274L34.2935 25.8551L33.8378 25.4134L33.315 24.9913L32.2974 24.1694L31.4755 23.4426L30.4188 22.4697L29.5941 21.631L28.8421 20.756L28.311 20.046L27.9056 19.4449Z" fill="#5C75A9"/>
<path d="M23.0415 26.3946L22.6173 25.7722L22.5132 25.6272L22.3909 25.4728L22.2713 25.3302L22.1511 25.1834L21.9764 24.9912L21.7982 24.798L22.0295 24.3147L22.0854 24.1882L22.2811 23.8227L22.5495 23.3251L22.6571 23.1336L22.8347 22.8582L23.2987 22.2013L23.3819 22.0901L23.7432 21.6757L24.2185 21.1501L24.8279 20.5742L25.1913 20.2472L25.7001 19.8865L25.8594 19.7782L26.0971 19.6433L26.5975 19.3777L26.9749 19.1988L27.2628 19.0772L27.3467 19.0535L27.7136 18.9514L27.7996 19.1653L27.9114 19.4225L28.1015 19.7356L28.3754 20.1214L28.7501 20.6301L29.2421 21.2172L29.6614 21.7036L30.3771 22.4193L30.9474 22.9393L31.5792 23.5208L32.2613 24.1246L33.195 24.8906L33.7206 25.3155L34.0057 25.5727L34.3076 25.8578L33.7597 26.3387L33.0664 26.8363L32.2613 27.3003L31.5177 27.6973L30.7069 28.044L30.1255 28.2452L29.5887 28.4186L29.1135 28.6031L28.504 28.7652L27.766 28.9497L26.9329 29.1063L26.1614 29.2461C25.9936 29.2591 25.6526 29.2874 25.6302 29.2964C25.6078 29.3053 25.401 29.2666 25.3003 29.2461L25.0599 28.9889L24.5623 28.413L24.143 27.865L23.7125 27.3227L23.0415 26.3946Z" fill="#665790"/>
<path d="M2.8381 24.203L2.56134 24.4267L2.89401 24.2422L3.07013 24.1891L3.49785 24.1443L3.8417 24.1276L4.58532 24.1639L4.90122 24.1891L5.17239 24.2562L5.61968 24.3764L5.94955 24.4574L6.18997 24.5525L6.8637 24.8348L7.16562 25.0054L7.77505 25.352L8.32857 25.735L9.04144 26.2606L9.54743 26.6659L10.2016 27.2474L10.674 27.6891L11.0486 28.0441L11.4288 28.4467L11.8314 28.9163L12.1389 29.2909L12.3849 29.6152L13.3382 29.537C13.587 29.5202 14.0869 29.485 14.0958 29.4783C14.1047 29.4715 14.5431 29.4214 14.7611 29.3972L15.4992 29.2658L16.2204 29.0981L17.0116 28.8101L17.8167 28.4439L18.5799 28.0078L19.2005 27.5437L19.8099 27.0182L20.4753 26.3696L21.2063 25.5281L21.5725 25.1228L21.8042 24.787L21.5725 24.491L21.2063 24.0297L20.5256 23.2525L19.9679 22.6459L19.5248 22.1651L19.0998 21.7513L18.5799 21.2425L18.4219 21.1098L18.0208 20.7715L17.7636 20.5325L17.3596 20.7491L17.0381 20.8819L16.3868 21.1531L15.7368 21.3614L14.7863 21.6745L14.2314 21.8464L13.6415 22.0169L13.2571 22.1245L12.7749 22.2685L12.5499 22.309L12.062 22.3985L11.5574 22.4908L11.0962 22.576L10.6852 22.5984L10.0786 22.6403L9.71097 22.6669L9.25809 22.7046L8.5634 22.7619L8.03504 22.8053L7.62129 22.8472L7.24669 22.8961L6.8637 22.938L6.48211 22.9758L6.18997 23.0149L5.99149 23.0652L5.71053 23.1309L5.36528 23.1966L4.92358 23.2833L4.56016 23.3979L4.13524 23.5377L3.68236 23.7166L3.32173 23.8843L3.0897 24.0297L2.8381 24.203Z" fill="#53A8A0"/>
<path d="M25.5714 29.5514L25.2748 29.2197C25.3838 29.243 25.6008 29.2886 25.6064 29.2886H25.6553L26.1585 29.2439L26.5219 29.1782L27.1537 29.0608L27.7618 28.9489L27.9924 28.8902L28.5585 28.7463L29.1442 28.5883L29.5272 28.4387L29.7857 28.3493L30.0863 28.2542L30.7265 28.0334L31.512 27.6937L32.0488 27.41L32.5254 27.1458L33.0705 26.8271L33.3501 26.63L33.7457 26.3449L34.028 26.0989L34.2964 25.8542L34.8499 26.2191L35.0694 26.4064L35.43 26.7167L35.7794 27.0661L36.2379 27.5498L36.6656 28.032L36.7677 28.1718L37.1702 28.7085L37.6245 29.5178L37.9572 30.295L38.027 30.5242L38.2088 31.0819L38.3094 31.5069L38.3779 31.8074L38.3975 32.0897L38.0452 32.2016L37.556 32.3693L36.8292 32.551L35.7501 32.7411L34.6878 32.8026L33.413 32.8166L32.4234 32.7523L31.6546 32.6433L31.1793 32.5454L30.3546 32.3972L29.8291 32.2295L29.242 32.0282L28.5879 31.7571L27.9477 31.4048L27.109 30.8765L26.4185 30.3425L26.0299 29.9679L25.5714 29.5514Z" fill="#895687"/>
<path d="M17.9956 38.7182L17.6685 38.3967L17.6853 37.8809L17.695 37.8124L17.7062 37.7244L17.7538 37.3609L17.8139 36.8228L17.8572 36.3559L17.8893 36.1812L17.9494 35.8346L17.9914 35.6067L18.0529 35.3985L18.1521 35.0364L18.2723 34.7052L18.4666 34.1572L18.4904 34.1223L18.7224 33.7016L18.9013 33.3815L19.0355 33.169L19.4255 32.5777L19.4604 32.5218L19.7456 32.1836L19.9343 31.9571L20.0321 31.8593L20.2851 31.6189L20.6793 31.2429L21.0106 31.015L21.4621 30.6949L21.8241 30.4951L22.2756 30.2421L22.5579 30.1009L22.9311 29.9164L23.3463 29.7444L23.7474 29.5921L24.115 29.5012L24.3107 29.4509L24.7776 29.3545L25.0432 29.3167L25.3262 29.2776L25.5897 29.5641L25.7714 29.7277L26.023 29.9541L26.4437 30.3581L26.6464 30.5104L26.9246 30.7299L27.1636 30.9074L27.6402 31.2037L27.9547 31.405L28.2818 31.5839L28.5879 31.7531L28.8885 31.8789L29.305 32.0466L29.8767 32.2409L30.3757 32.3946L30.4148 32.403L31.0117 32.5106L31.6589 32.6392L31.9999 32.6882L32.4304 32.7525L33.4298 32.814H33.4592L34.3496 32.8042L35.219 32.7692L35.7585 32.7399L36.3121 32.6406L36.8572 32.5414L37.5659 32.3639L37.9922 32.2185L38.3933 32.0857L38.459 32.3946L38.4744 32.6924L38.501 33.1844V34.1405L38.4339 34.9246L38.3892 35.1035L38.2088 35.8234L37.8762 36.5796L37.7909 36.6774L37.6875 36.8018L37.2695 36.9766L36.498 37.2883L36.2282 37.3861L35.8578 37.5161L35.623 37.6125L35.1184 37.825L34.7032 38.0011L34.5131 38.0836L33.9708 38.3352L33.6283 38.4806L33.1181 38.7028L32.798 38.844L32.1984 39.1082L31.3234 39.4828L30.584 39.7973L30.4344 39.8532L30.2191 39.9231L29.6712 40.109L29.1079 40.2991L28.9136 40.3745L28.1672 40.6611L27.9226 40.7394L27.6486 40.8218L27.1105 40.9882L26.7485 41.0637L26.1027 41.1922L25.4192 41.2496L25.2808 41.2593L25.0963 41.2691L24.6406 41.2929L23.918 41.2845L23.2289 41.2244L22.6026 41.1559L21.9485 41.0217L21.3097 40.8666L21.2468 40.8428L20.5591 40.5619L20.1705 40.3704L19.603 40.0405L19.09 39.6659L18.9139 39.5387L18.8203 39.4618L18.598 39.2703L18.1661 38.8887L17.9956 38.7182Z" fill="#91B56A"/>
</g>
</g>
<path d="M70.2735 14.8756C69.4509 14.8756 68.7291 14.7022 68.1081 14.3554C67.4871 14.0086 66.9992 13.5207 66.6443 12.8916C66.2976 12.2545 66.1242 11.5085 66.1242 10.6537C66.1242 9.81493 66.2935 9.08103 66.6322 8.45198C66.979 7.82293 67.479 7.33501 68.1323 6.98822C68.7855 6.63337 69.5678 6.45595 70.4791 6.45595C70.9146 6.45595 71.3179 6.50433 71.6889 6.60111C72.0679 6.69789 72.4227 6.83902 72.7534 7.02451L72.8018 8.75441H72.4752L71.8703 7.53259C71.7735 7.33904 71.6808 7.1979 71.5921 7.10919C71.5034 7.02048 71.3864 6.95596 71.2413 6.91564C71.1364 6.87531 71.0356 6.85112 70.9388 6.84305C70.8421 6.82692 70.717 6.81886 70.5638 6.81886C70.0557 6.81886 69.6081 6.95193 69.221 7.21807C68.8339 7.47614 68.5315 7.88744 68.3137 8.45198C68.1041 9.01651 67.9992 9.75041 67.9992 10.6537C67.9992 12.0166 68.221 13.0045 68.6646 13.6175C69.1162 14.2223 69.717 14.5248 70.467 14.5248C70.6445 14.5248 70.7977 14.5006 70.9267 14.4522C71.08 14.428 71.1848 14.3675 71.2413 14.2707C71.2977 14.1659 71.3259 14.0368 71.3259 13.8836C71.3259 13.553 71.3219 13.1941 71.3138 12.807C71.3138 12.4118 71.3138 12.0529 71.3138 11.7303C71.3138 11.4158 71.1485 11.2222 70.8179 11.1496L70.2735 11.0287V10.7746H73.6123V11.0287L73.4671 11.065C73.3139 11.1134 73.197 11.1859 73.1163 11.2827C73.0357 11.3714 72.9953 11.4964 72.9953 11.6577C72.9953 11.9803 72.9913 12.311 72.9833 12.6497C72.9833 12.9804 72.9833 13.315 72.9833 13.6538V14.1739C72.5639 14.3998 72.1364 14.5731 71.701 14.6941C71.2735 14.8151 70.7977 14.8756 70.2735 14.8756ZM73.9572 14.6699V14.4159L74.1991 14.3312C74.3443 14.2909 74.4451 14.2223 74.5015 14.1255C74.558 14.0207 74.5903 13.8796 74.5983 13.7021V7.61727C74.5903 7.44791 74.562 7.31888 74.5136 7.23016C74.4652 7.13339 74.3644 7.0608 74.2112 7.01241L73.9572 6.92773V6.67369H79.7154L79.8001 8.60924H79.4614L78.9775 7.5205C78.913 7.36727 78.8404 7.25033 78.7597 7.16968C78.6791 7.08097 78.5581 7.03661 78.3968 7.03661H76.3403C76.3322 7.53663 76.3282 8.05277 76.3282 8.58505C76.3282 9.10926 76.3282 9.70202 76.3282 10.3633H77.5258C77.6871 10.3633 77.8081 10.323 77.8887 10.2424C77.9775 10.1536 78.0581 10.0367 78.1307 9.89154L78.3363 9.43185H78.6025V11.6698H78.3363L78.1186 11.2101C78.0541 11.065 77.9815 10.948 77.9008 10.8593C77.8202 10.7706 77.6992 10.7262 77.5379 10.7262H76.3282C76.3282 11.3069 76.3282 11.8069 76.3282 12.2263C76.3282 12.6457 76.3282 13.0207 76.3282 13.3513C76.3363 13.6739 76.3403 13.9925 76.3403 14.307H78.663C78.8243 14.307 78.9493 14.2667 79.038 14.186C79.1267 14.0973 79.1993 13.9764 79.2557 13.8231L79.7033 12.7344H80.042L79.9574 14.6699H73.9572ZM80.8007 14.6699V14.4159L81.1515 14.3191C81.3047 14.2788 81.4096 14.2022 81.466 14.0893C81.5305 13.9764 81.5628 13.8392 81.5628 13.678V7.82292C81.4902 7.66969 81.4257 7.55679 81.3692 7.4842C81.3208 7.40356 81.2684 7.33501 81.212 7.27855C81.1555 7.2221 81.0789 7.15758 80.9821 7.085L80.7644 6.92773V6.67369H82.833L86.8493 12.1658V7.67776C86.8493 7.51646 86.821 7.37533 86.7646 7.25436C86.7162 7.13339 86.6113 7.05274 86.45 7.01241L86.0871 6.92773V6.67369H87.8896V6.92773L87.5872 7.01241C87.4339 7.0608 87.3372 7.14548 87.2968 7.26646C87.2646 7.37936 87.2485 7.51646 87.2485 7.67776V14.7183H86.571L81.962 8.37939V13.6659C81.962 13.8352 81.9862 13.9764 82.0346 14.0893C82.083 14.2022 82.1838 14.2788 82.337 14.3191L82.6636 14.4159V14.6699H80.8007ZM88.4761 14.6699V14.4159L88.7181 14.3312C88.8632 14.2909 88.9641 14.2223 89.0205 14.1255C89.077 14.0207 89.1092 13.8796 89.1173 13.7021V7.61727C89.1092 7.44791 89.081 7.31888 89.0326 7.23016C88.9842 7.13339 88.8834 7.0608 88.7302 7.01241L88.4761 6.92773V6.67369H94.2344L94.3191 8.60924H93.9803L93.4965 7.5205C93.4319 7.36727 93.3594 7.25033 93.2787 7.16968C93.1981 7.08097 93.0771 7.03661 92.9158 7.03661H90.8593C90.8512 7.53663 90.8472 8.05277 90.8472 8.58505C90.8472 9.10926 90.8472 9.70202 90.8472 10.3633H92.0448C92.2061 10.3633 92.3271 10.323 92.4077 10.2424C92.4964 10.1536 92.5771 10.0367 92.6497 9.89154L92.8553 9.43185H93.1214V11.6698H92.8553L92.6376 11.2101C92.573 11.065 92.5005 10.948 92.4198 10.8593C92.3392 10.7706 92.2182 10.7262 92.0569 10.7262H90.8472C90.8472 11.3069 90.8472 11.8069 90.8472 12.2263C90.8472 12.6457 90.8472 13.0207 90.8472 13.3513C90.8552 13.6739 90.8593 13.9925 90.8593 14.307H93.1819C93.3432 14.307 93.4682 14.2667 93.5569 14.186C93.6457 14.0973 93.7182 13.9764 93.7747 13.8231L94.2223 12.7344H94.561L94.4763 14.6699H88.4761ZM97.7512 14.8756C97.3076 14.8756 96.856 14.8191 96.3963 14.7062C95.9447 14.6014 95.5656 14.4602 95.2591 14.2828L95.3317 12.6013H95.6825L96.0576 13.436C96.1705 13.6699 96.2874 13.8634 96.4084 14.0167C96.5293 14.1699 96.6906 14.2868 96.8923 14.3675C97.0294 14.4239 97.1584 14.4643 97.2794 14.4885C97.4084 14.5046 97.5495 14.5127 97.7028 14.5127C98.1947 14.5127 98.5818 14.3877 98.8641 14.1376C99.1544 13.8796 99.2996 13.5409 99.2996 13.1215C99.2996 12.7424 99.1988 12.444 98.9972 12.2263C98.8036 12.0085 98.4891 11.7989 98.0536 11.5972L97.5576 11.3795C96.8802 11.0811 96.3439 10.7343 95.9487 10.3391C95.5616 9.94396 95.368 9.41975 95.368 8.7665C95.368 8.28262 95.489 7.87131 95.7309 7.53259C95.9809 7.18581 96.3237 6.91967 96.7592 6.73418C97.1947 6.54869 97.7028 6.45595 98.2834 6.45595C98.7109 6.45595 99.1101 6.5124 99.4811 6.62531C99.8601 6.73821 100.191 6.89144 100.473 7.085L100.388 8.58505H100.038L99.5899 7.67776C99.4609 7.41162 99.3359 7.2221 99.2149 7.10919C99.102 6.98822 98.9609 6.9116 98.7915 6.87935C98.6947 6.86322 98.6101 6.85112 98.5375 6.84305C98.473 6.83499 98.3842 6.83096 98.2713 6.83096C97.8762 6.83096 97.5334 6.9479 97.2431 7.18178C96.9608 7.40759 96.8197 7.72212 96.8197 8.12535C96.8197 8.51246 96.9286 8.82699 97.1463 9.06893C97.3641 9.31088 97.6786 9.52459 98.0899 9.71008L98.6343 9.93993C99.4165 10.2787 99.977 10.6416 100.316 11.0287C100.654 11.4077 100.824 11.8956 100.824 12.4924C100.824 13.2021 100.554 13.7788 100.013 14.2223C99.4811 14.6578 98.727 14.8756 97.7512 14.8756ZM101.388 14.6699V14.4159L101.63 14.3433C101.792 14.2868 101.897 14.2143 101.945 14.1255C102.001 14.0288 102.03 13.8957 102.03 13.7263V7.61727C102.03 7.44791 102.001 7.31888 101.945 7.23016C101.897 7.13339 101.792 7.05677 101.63 7.00032L101.388 6.92773V6.67369H104.413V6.92773L104.171 7.00032C104.018 7.05677 103.913 7.13339 103.856 7.23016C103.8 7.31888 103.772 7.44791 103.772 7.61727V13.7263C103.772 13.8957 103.8 14.0288 103.856 14.1255C103.913 14.2143 104.018 14.2868 104.171 14.3433L104.413 14.4159V14.6699H101.388ZM107.545 14.8756C107.101 14.8756 106.649 14.8191 106.19 14.7062C105.738 14.6014 105.359 14.4602 105.053 14.2828L105.125 12.6013H105.476L105.851 13.436C105.964 13.6699 106.081 13.8634 106.202 14.0167C106.323 14.1699 106.484 14.2868 106.686 14.3675C106.823 14.4239 106.952 14.4643 107.073 14.4885C107.202 14.5046 107.343 14.5127 107.496 14.5127C107.988 14.5127 108.375 14.3877 108.658 14.1376C108.948 13.8796 109.093 13.5409 109.093 13.1215C109.093 12.7424 108.992 12.444 108.791 12.2263C108.597 12.0085 108.283 11.7989 107.847 11.5972L107.351 11.3795C106.674 11.0811 106.137 10.7343 105.742 10.3391C105.355 9.94396 105.162 9.41975 105.162 8.7665C105.162 8.28262 105.283 7.87131 105.524 7.53259C105.774 7.18581 106.117 6.91967 106.553 6.73418C106.988 6.54869 107.496 6.45595 108.077 6.45595C108.504 6.45595 108.904 6.5124 109.275 6.62531C109.654 6.73821 109.984 6.89144 110.267 7.085L110.182 8.58505H109.831L109.383 7.67776C109.254 7.41162 109.129 7.2221 109.008 7.10919C108.896 6.98822 108.754 6.9116 108.585 6.87935C108.488 6.86322 108.404 6.85112 108.331 6.84305C108.266 6.83499 108.178 6.83096 108.065 6.83096C107.67 6.83096 107.327 6.9479 107.037 7.18178C106.754 7.40759 106.613 7.72212 106.613 8.12535C106.613 8.51246 106.722 8.82699 106.94 9.06893C107.158 9.31088 107.472 9.52459 107.883 9.71008L108.428 9.93993C109.21 10.2787 109.771 10.6416 110.109 11.0287C110.448 11.4077 110.617 11.8956 110.617 12.4924C110.617 13.2021 110.347 13.7788 109.807 14.2223C109.275 14.6578 108.521 14.8756 107.545 14.8756ZM118.036 14.8756C117.254 14.8756 116.548 14.7143 115.919 14.3917C115.29 14.0691 114.79 13.5933 114.419 12.9642C114.056 12.3352 113.875 11.569 113.875 10.6658C113.875 9.98832 113.984 9.38749 114.202 8.86328C114.427 8.33907 114.734 7.89954 115.121 7.54469C115.516 7.18178 115.968 6.91161 116.476 6.73418C116.984 6.54869 117.524 6.45595 118.097 6.45595C118.54 6.45595 118.956 6.50837 119.343 6.61321C119.73 6.70999 120.101 6.85515 120.456 7.04871L120.504 8.63344H120.178L119.669 7.67776C119.589 7.51646 119.5 7.3713 119.403 7.24226C119.315 7.11322 119.198 7.02048 119.052 6.96403C118.851 6.86725 118.613 6.81886 118.339 6.81886C117.863 6.81886 117.427 6.93983 117.032 7.18178C116.645 7.42372 116.335 7.82696 116.101 8.39149C115.867 8.94796 115.75 9.71008 115.75 10.6779C115.75 11.6376 115.859 12.3997 116.077 12.9642C116.302 13.5288 116.605 13.932 116.984 14.1739C117.363 14.4078 117.79 14.5248 118.266 14.5248C118.484 14.5248 118.661 14.5086 118.798 14.4764C118.936 14.4441 119.073 14.3998 119.21 14.3433C119.371 14.2788 119.496 14.186 119.585 14.0651C119.673 13.936 119.75 13.7909 119.815 13.6296L120.274 12.5287H120.601L120.553 14.2707C120.206 14.4643 119.823 14.6135 119.403 14.7183C118.984 14.8232 118.528 14.8756 118.036 14.8756ZM124.188 14.8393C123.591 14.8393 123.067 14.7143 122.616 14.4643C122.172 14.2143 121.825 13.8594 121.575 13.3997C121.333 12.94 121.212 12.3916 121.212 11.7545C121.212 11.1174 121.341 10.569 121.599 10.1093C121.866 9.6496 122.22 9.29878 122.664 9.05684C123.116 8.80683 123.624 8.68182 124.188 8.68182C124.753 8.68182 125.257 8.80683 125.7 9.05684C126.152 9.29878 126.507 9.6496 126.765 10.1093C127.031 10.5609 127.164 11.1093 127.164 11.7545C127.164 12.3916 127.039 12.9441 126.789 13.4118C126.547 13.8715 126.204 14.2264 125.761 14.4764C125.317 14.7183 124.793 14.8393 124.188 14.8393ZM124.188 14.5006C124.479 14.5006 124.712 14.4239 124.89 14.2707C125.075 14.1094 125.208 13.8312 125.289 13.436C125.37 13.0408 125.41 12.4884 125.41 11.7787C125.41 11.0609 125.37 10.5045 125.289 10.1093C125.208 9.70605 125.075 9.42782 124.89 9.27459C124.712 9.11329 124.479 9.03264 124.188 9.03264C123.898 9.03264 123.664 9.11329 123.487 9.27459C123.309 9.42782 123.176 9.70605 123.087 10.1093C123.007 10.5045 122.966 11.0609 122.966 11.7787C122.966 12.4884 123.007 13.0408 123.087 13.436C123.176 13.8312 123.309 14.1094 123.487 14.2707C123.664 14.4239 123.898 14.5006 124.188 14.5006ZM127.72 14.6699V14.4401L127.914 14.3917C128.18 14.311 128.313 14.1135 128.313 13.7989V10.2303C128.305 10.0609 128.277 9.93186 128.229 9.84315C128.18 9.74637 128.075 9.68186 127.914 9.6496L127.72 9.60121V9.38346L129.68 8.68182L129.825 8.81489L129.91 9.56492C130.2 9.30684 130.523 9.09716 130.878 8.93586C131.241 8.7665 131.596 8.68182 131.942 8.68182C132.475 8.68182 132.882 8.82699 133.164 9.11732C133.455 9.40765 133.6 9.85122 133.6 10.448V13.811C133.6 14.1255 133.745 14.3231 134.035 14.4038L134.168 14.4401V14.6699H131.386V14.4401L131.567 14.3917C131.834 14.303 131.967 14.1054 131.967 13.7989V10.2061C131.967 9.9238 131.906 9.71815 131.785 9.58911C131.664 9.46008 131.463 9.39556 131.18 9.39556C130.785 9.39556 130.374 9.56895 129.946 9.91574V13.811C129.946 14.1255 130.087 14.3231 130.37 14.4038L130.491 14.4401V14.6699H127.72ZM136.76 14.8393C136.373 14.8393 136.022 14.7949 135.707 14.7062C135.401 14.6256 135.106 14.5086 134.824 14.3554V12.9279H135.151L135.514 13.6175C135.667 13.9159 135.84 14.1376 136.034 14.2828C136.235 14.428 136.49 14.5006 136.796 14.5006C137.175 14.5006 137.477 14.4199 137.703 14.2586C137.929 14.0893 138.042 13.8634 138.042 13.5812C138.042 13.3231 137.957 13.1134 137.788 12.9521C137.619 12.7908 137.316 12.6416 136.881 12.5045L136.348 12.3352C135.873 12.19 135.494 11.9723 135.211 11.6819C134.937 11.3835 134.8 11.0125 134.8 10.569C134.8 10.2222 134.893 9.90767 135.078 9.6254C135.264 9.33507 135.534 9.10522 135.889 8.93586C136.244 8.7665 136.675 8.68182 137.183 8.68182C137.514 8.68182 137.816 8.72215 138.09 8.8028C138.373 8.87538 138.647 8.98022 138.913 9.11732L138.84 10.4117H138.526L138.151 9.72218C138.022 9.46411 137.889 9.28668 137.752 9.18991C137.623 9.08506 137.421 9.03264 137.147 9.03264C136.856 9.03264 136.598 9.10926 136.373 9.26249C136.155 9.40765 136.046 9.61331 136.046 9.87944C136.046 10.1295 136.139 10.3351 136.324 10.4964C136.51 10.6496 136.808 10.7948 137.219 10.9319L137.74 11.0892C138.328 11.2747 138.748 11.5206 138.998 11.8271C139.248 12.1335 139.373 12.5005 139.373 12.9279C139.373 13.5005 139.143 13.9643 138.683 14.3191C138.232 14.6659 137.59 14.8393 136.76 14.8393ZM142.948 14.8393C142.351 14.8393 141.827 14.7143 141.376 14.4643C140.932 14.2143 140.585 13.8594 140.335 13.3997C140.093 12.94 139.972 12.3916 139.972 11.7545C139.972 11.1174 140.101 10.569 140.359 10.1093C140.626 9.6496 140.98 9.29878 141.424 9.05684C141.876 8.80683 142.384 8.68182 142.948 8.68182C143.513 8.68182 144.017 8.80683 144.46 9.05684C144.912 9.29878 145.267 9.6496 145.525 10.1093C145.791 10.5609 145.924 11.1093 145.924 11.7545C145.924 12.3916 145.799 12.9441 145.549 13.4118C145.307 13.8715 144.964 14.2264 144.521 14.4764C144.077 14.7183 143.553 14.8393 142.948 14.8393ZM142.948 14.5006C143.239 14.5006 143.472 14.4239 143.65 14.2707C143.835 14.1094 143.968 13.8312 144.049 13.436C144.13 13.0408 144.17 12.4884 144.17 11.7787C144.17 11.0609 144.13 10.5045 144.049 10.1093C143.968 9.70605 143.835 9.42782 143.65 9.27459C143.472 9.11329 143.239 9.03264 142.948 9.03264C142.658 9.03264 142.424 9.11329 142.247 9.27459C142.069 9.42782 141.936 9.70605 141.847 10.1093C141.767 10.5045 141.726 11.0609 141.726 11.7787C141.726 12.4884 141.767 13.0408 141.847 13.436C141.936 13.8312 142.069 14.1094 142.247 14.2707C142.424 14.4239 142.658 14.5006 142.948 14.5006ZM146.481 14.6699V14.4401L146.662 14.3796C146.823 14.3393 146.932 14.2707 146.989 14.1739C147.053 14.0772 147.085 13.9481 147.085 13.7868V10.2424C147.077 10.0649 147.045 9.93186 146.989 9.84315C146.932 9.74637 146.823 9.68186 146.662 9.6496L146.481 9.60121V9.38346L148.452 8.68182L148.598 8.81489L148.706 9.87944V9.96412C148.827 9.73831 148.981 9.52863 149.166 9.33507C149.352 9.14152 149.553 8.98425 149.771 8.86328C149.989 8.74231 150.206 8.68182 150.424 8.68182C150.731 8.68182 150.961 8.76247 151.114 8.92377C151.267 9.08506 151.344 9.29071 151.344 9.54072C151.344 9.81493 151.267 10.0246 151.114 10.1698C150.961 10.3069 150.775 10.3754 150.557 10.3754C150.235 10.3754 149.956 10.2303 149.723 9.93993L149.698 9.91574C149.618 9.81896 149.525 9.76654 149.42 9.75847C149.323 9.74234 149.227 9.79073 149.13 9.90364C149.049 9.98429 148.973 10.0811 148.9 10.194C148.835 10.2988 148.775 10.4238 148.719 10.569V13.7384C148.719 13.8917 148.751 14.0207 148.815 14.1255C148.88 14.2223 148.989 14.2909 149.142 14.3312L149.505 14.4401V14.6699H146.481ZM154.13 14.8393C153.63 14.8393 153.235 14.7183 152.944 14.4764C152.662 14.2264 152.521 13.8231 152.521 13.2667C152.521 13.0731 152.521 12.8916 152.521 12.7223C152.529 12.5449 152.533 12.3392 152.533 12.1053V9.23829H151.674V8.97216L152.001 8.92377C152.235 8.88344 152.432 8.81086 152.594 8.70602C152.763 8.60118 152.916 8.45601 153.053 8.27052L153.84 7.18178H154.203L154.166 8.86328H155.545V9.23829H154.154V13.3634C154.154 13.6538 154.215 13.8715 154.336 14.0167C154.465 14.1618 154.622 14.2344 154.807 14.2344C154.969 14.2344 155.114 14.1981 155.243 14.1255C155.372 14.0449 155.501 13.9401 155.63 13.811L155.787 13.9925C155.634 14.2586 155.42 14.4683 155.146 14.6215C154.872 14.7667 154.533 14.8393 154.13 14.8393ZM157.595 8.01648C157.328 8.01648 157.103 7.9318 156.917 7.76244C156.732 7.59308 156.639 7.37936 156.639 7.12129C156.639 6.85515 156.732 6.64144 156.917 6.48014C157.103 6.31078 157.328 6.2261 157.595 6.2261C157.861 6.2261 158.087 6.31078 158.272 6.48014C158.458 6.64144 158.55 6.85515 158.55 7.12129C158.55 7.37936 158.458 7.59308 158.272 7.76244C158.087 7.9318 157.861 8.01648 157.595 8.01648ZM156.203 14.6699V14.4401L156.385 14.3917C156.546 14.3433 156.655 14.2707 156.712 14.1739C156.768 14.0772 156.8 13.9481 156.808 13.7868V11.5609C156.808 11.3109 156.808 11.0811 156.808 10.8714C156.808 10.6537 156.804 10.4319 156.796 10.2061C156.796 10.0448 156.764 9.91977 156.699 9.83105C156.643 9.73428 156.534 9.66976 156.373 9.6375L156.203 9.60121V9.38346L158.32 8.68182L158.466 8.81489L158.429 10.5327V13.7989C158.429 13.9602 158.458 14.0893 158.514 14.186C158.579 14.2828 158.687 14.3554 158.841 14.4038L158.974 14.4401V14.6699H156.203ZM161.676 14.8393C161.362 14.8393 161.076 14.7828 160.817 14.6699C160.559 14.549 160.354 14.3554 160.201 14.0893C160.055 13.8151 159.987 13.4562 159.995 13.0126L160.031 9.97622C160.031 9.7988 160.003 9.66976 159.946 9.58911C159.89 9.50846 159.789 9.45201 159.644 9.41975L159.499 9.37136V9.15361L161.568 8.75441L161.701 8.88748L161.64 10.5932V13.3392C161.64 13.6134 161.713 13.8151 161.858 13.9441C162.011 14.0651 162.201 14.1255 162.426 14.1255C162.66 14.1255 162.87 14.0933 163.055 14.0288C163.249 13.9562 163.447 13.8513 163.648 13.7142L163.685 9.98832C163.685 9.80283 163.656 9.67379 163.6 9.60121C163.551 9.52863 163.455 9.47217 163.309 9.43185L163.176 9.39556V9.17781L165.197 8.75441L165.33 8.88748L165.293 10.5932V13.7626C165.293 13.932 165.314 14.0691 165.354 14.1739C165.402 14.2707 165.503 14.3433 165.656 14.3917L165.814 14.4401V14.6699L163.769 14.7909L163.66 14.0288C163.386 14.2627 163.088 14.4562 162.765 14.6094C162.443 14.7627 162.08 14.8393 161.676 14.8393ZM166.304 14.6699V14.428L166.57 14.3554C166.699 14.3151 166.784 14.2586 166.824 14.186C166.864 14.1054 166.889 14.0005 166.897 13.8715V11.4763C166.897 11.2101 166.897 10.9843 166.897 10.7988C166.897 10.6133 166.893 10.3956 166.884 10.1456C166.884 10.0085 166.864 9.90364 166.824 9.83105C166.784 9.75041 166.695 9.69395 166.558 9.66169L166.304 9.60121V9.38346L168.264 8.68182L168.409 8.81489L168.493 9.6254C168.776 9.36733 169.09 9.14555 169.437 8.96006C169.784 8.77457 170.139 8.68182 170.502 8.68182C170.905 8.68182 171.219 8.76247 171.445 8.92377C171.671 9.08506 171.844 9.33104 171.965 9.66169C172.272 9.35523 172.61 9.11732 172.981 8.94796C173.352 8.77054 173.719 8.68182 174.082 8.68182C174.631 8.68182 175.042 8.81893 175.316 9.09313C175.59 9.36733 175.728 9.7988 175.728 10.3875V13.8836C175.728 14.1417 175.84 14.303 176.066 14.3675L176.296 14.428V14.6699H173.574V14.428L173.792 14.3675C174.01 14.2949 174.119 14.1296 174.119 13.8715V10.327C174.119 9.98025 174.054 9.74637 173.925 9.6254C173.804 9.49637 173.602 9.43185 173.32 9.43185C173.102 9.43185 172.897 9.4762 172.703 9.56492C172.51 9.65363 172.296 9.79073 172.062 9.97622C172.11 10.2182 172.135 10.4964 172.135 10.8109V13.8836C172.143 14.0207 172.167 14.1296 172.207 14.2102C172.256 14.2828 172.344 14.3352 172.473 14.3675L172.679 14.428V14.6699H169.945V14.428L170.199 14.3554C170.328 14.3151 170.413 14.2586 170.453 14.186C170.502 14.1054 170.526 14.0005 170.526 13.8715V10.3391C170.526 10.0085 170.465 9.7746 170.344 9.6375C170.223 9.5004 170.018 9.43185 169.727 9.43185C169.356 9.43185 168.957 9.60927 168.53 9.96412V13.8836C168.53 14.1497 168.643 14.311 168.868 14.3675L169.074 14.428V14.6699H166.304Z" fill="white"/>
<path d="M66.2829 43.2307V42.6274L67.1403 42.4368C67.6061 42.331 67.9765 42.1828 68.2517 41.9923C68.5481 41.8017 68.8339 41.5159 69.1091 41.1349L72.5704 36.3081L68.474 29.8301C68.2623 29.5125 68.0506 29.2691 67.8389 29.0997C67.6484 28.9303 67.3732 28.8033 67.0133 28.7186L66.4735 28.5916V27.9883H74.4122V28.5916L73.9359 28.7186C73.5548 28.8033 73.322 28.9727 73.2373 29.2267C73.1738 29.4596 73.2479 29.7454 73.4596 30.0841L75.9047 33.7995L78.5086 30.1794C78.7415 29.8407 78.8474 29.5443 78.8262 29.2902C78.8262 29.0362 78.6251 28.8668 78.2228 28.7822L77.5242 28.5916V27.9883H82.4145V28.5916L81.6524 28.7504C81.2078 28.8563 80.8585 29.015 80.6045 29.2267C80.3504 29.4173 80.0858 29.7031 79.8106 30.0841L76.4128 34.5616L80.5727 41.0396C81.0596 41.7594 81.7371 42.2357 82.605 42.4686L83.2401 42.6274V43.2307H74.698V42.6274L75.1744 42.5321C75.5554 42.4263 75.7883 42.2463 75.873 41.9923C75.9788 41.7382 75.9153 41.4524 75.6824 41.1349L73.1103 37.1337L70.3158 41.1031C70.083 41.4418 70.0089 41.7382 70.0935 41.9923C70.1782 42.2463 70.4005 42.4157 70.7604 42.5003L71.332 42.6274V43.2307H66.2829ZM93.7811 43.7705C92.4897 43.7705 91.2618 43.5483 90.0975 43.1037L88.605 45.1043C90.0022 45.443 91.5371 45.7923 93.2095 46.1522C94.9031 46.5332 96.5755 46.8931 98.2268 47.2319C98.9677 47.38 99.5499 47.4436 99.9733 47.4224C100.397 47.4224 100.799 47.3165 101.18 47.1048L102.228 46.5015L102.641 47.1048L100.989 48.7878C100.524 49.2748 100.069 49.6558 99.624 49.931C99.1794 50.2062 98.6502 50.3438 98.0363 50.3438C97.6129 50.3438 96.9989 50.2803 96.1945 50.1533C95.4112 50.0263 94.5326 49.8675 93.5588 49.677C92.6061 49.4865 91.6429 49.2853 90.6691 49.0736C89.6953 48.8619 88.8167 48.6714 88.0334 48.5021C87.6735 48.4174 87.3348 48.3962 87.0173 48.4385C86.7209 48.5021 86.4351 48.6502 86.1599 48.8831L85.6518 49.2959L85.0167 48.8831L89.0496 42.6274C87.5253 41.8229 86.2657 40.595 85.2707 38.9438C84.2969 37.2925 83.81 35.2179 83.81 32.7198C83.81 30.9203 84.0852 29.3326 84.6356 27.9565C85.186 26.5805 85.927 25.4267 86.8585 24.4952C87.8111 23.5637 88.8802 22.8651 90.0657 22.3994C91.2724 21.9125 92.5109 21.669 93.7811 21.669C95.0513 21.669 96.2791 21.9019 97.4647 22.3676C98.6714 22.8334 99.7405 23.532 100.672 24.4635C101.603 25.3738 102.344 26.517 102.895 27.893C103.445 29.2691 103.72 30.878 103.72 32.7198C103.72 34.5192 103.445 36.107 102.895 37.483C102.344 38.8591 101.603 40.0129 100.672 40.9443C99.7405 41.8758 98.6819 42.585 97.4964 43.0719C96.3109 43.5377 95.0725 43.7705 93.7811 43.7705ZM93.7811 42.8179C94.9878 42.8179 95.9616 42.5109 96.7026 41.897C97.4435 41.2619 97.9833 40.2034 98.3221 38.7215C98.6608 37.2396 98.8301 35.239 98.8301 32.7198C98.8301 30.2006 98.6608 28.2106 98.3221 26.7498C97.9833 25.2679 97.4435 24.22 96.7026 23.6061C95.9616 22.971 94.9878 22.6534 93.7811 22.6534C92.5956 22.6534 91.6217 22.971 90.8596 23.6061C90.1187 24.22 89.5788 25.2679 89.2401 26.7498C88.9014 28.2106 88.732 30.2006 88.732 32.7198C88.732 35.239 88.9014 37.2396 89.2401 38.7215C89.5788 40.2034 90.1187 41.2619 90.8596 41.897C91.6217 42.5109 92.5956 42.8179 93.7811 42.8179ZM108.938 43.2307V42.5639L110.208 42.3098C111.097 42.1193 111.542 41.6006 111.542 40.7538V32.0847C111.542 30.6028 111.542 29.1209 111.542 27.639C111.542 26.1571 111.531 24.6752 111.51 23.1933H109.001C108.324 23.1933 107.826 23.3732 107.509 23.7331C107.191 24.093 106.874 24.6011 106.556 25.2573L105.445 27.6072H104.555L104.714 22.2406H122.942L123.1 27.6072H122.211L121.1 25.2573C120.782 24.6011 120.465 24.093 120.147 23.7331C119.83 23.3732 119.332 23.1933 118.655 23.1933H116.114V40.7538C116.114 41.6218 116.559 42.1405 117.448 42.3098L118.75 42.5639V43.2307H108.938ZM124.467 43.2307V42.5639L125.102 42.3733C125.546 42.2251 125.832 42.0346 125.959 41.8017C126.086 41.5477 126.15 41.1984 126.15 40.7538V24.6858C126.15 24.2624 126.086 23.9342 125.959 23.7013C125.832 23.4473 125.557 23.2462 125.134 23.098L124.467 22.9075V22.2406H132.342V22.9075L131.739 23.098C131.336 23.2462 131.061 23.4473 130.913 23.7013C130.786 23.9554 130.722 24.3047 130.722 24.7493V42.2781H135.39C136.11 42.2781 136.65 42.0981 137.01 41.7382C137.37 41.3783 137.709 40.8597 138.026 40.1822L139.201 37.5466H140.09L139.773 43.2307H124.467ZM148.593 43.2307V42.5639L149.228 42.3416C149.609 42.2357 149.874 42.0558 150.022 41.8017C150.17 41.5265 150.255 41.156 150.276 40.6903V24.7175C150.255 24.2729 150.181 23.9342 150.054 23.7013C149.927 23.4473 149.662 23.2568 149.26 23.1298L148.593 22.9075V22.2406H163.708L163.931 27.3214H163.042L161.771 24.4635C161.602 24.0612 161.412 23.7543 161.2 23.5426C160.988 23.3097 160.671 23.1933 160.247 23.1933H154.849C154.828 24.5058 154.817 25.8607 154.817 27.2579C154.817 28.634 154.817 30.19 154.817 31.9259H157.961C158.384 31.9259 158.702 31.8201 158.913 31.6084C159.146 31.3755 159.358 31.0685 159.549 30.6875L160.088 29.4808H160.787V35.3555H160.088L159.517 34.1488C159.347 33.7677 159.157 33.4607 158.945 33.2279C158.734 32.995 158.416 32.8786 157.993 32.8786H154.817C154.817 34.4028 154.817 35.7153 154.817 36.8162C154.817 37.917 154.817 38.9014 154.817 39.7694C154.838 40.6162 154.849 41.4524 154.849 42.2781H160.946C161.369 42.2781 161.697 42.1722 161.93 41.9605C162.163 41.7276 162.354 41.4101 162.502 41.0079L163.677 38.1499H164.566L164.344 43.2307H148.593ZM165.859 43.2307V42.6274L166.716 42.4368C167.182 42.331 167.552 42.1828 167.827 41.9923C168.124 41.8017 168.41 41.5159 168.685 41.1349L172.146 36.3081L168.05 29.8301C167.838 29.5125 167.626 29.2691 167.415 29.0997C167.224 28.9303 166.949 28.8033 166.589 28.7186L166.049 28.5916V27.9883H173.988V28.5916L173.512 28.7186C173.131 28.8033 172.898 28.9727 172.813 29.2267C172.749 29.4596 172.824 29.7454 173.035 30.0841L175.48 33.7995L178.084 30.1794C178.317 29.8407 178.423 29.5443 178.402 29.2902C178.402 29.0362 178.201 28.8668 177.799 28.7822L177.1 28.5916V27.9883H181.99V28.5916L181.228 28.7504C180.784 28.8563 180.434 29.015 180.18 29.2267C179.926 29.4173 179.662 29.7031 179.386 30.0841L175.988 34.5616L180.148 41.0396C180.635 41.7594 181.313 42.2357 182.181 42.4686L182.816 42.6274V43.2307H174.274V42.6274L174.75 42.5321C175.131 42.4263 175.364 42.2463 175.449 41.9923C175.555 41.7382 175.491 41.4524 175.258 41.1349L172.686 37.1337L169.892 41.1031C169.659 41.4418 169.585 41.7382 169.669 41.9923C169.754 42.2463 169.976 42.4157 170.336 42.5003L170.908 42.6274V43.2307H165.859ZM183.231 50.5661V49.9628L183.643 49.8358C184.067 49.7299 184.363 49.55 184.533 49.2959C184.702 49.0631 184.787 48.7243 184.787 48.2798C184.787 47.4118 184.787 46.5862 184.787 45.8029C184.808 45.0408 184.818 44.2998 184.818 43.58V34.8474C184.818 34.1911 184.818 33.6301 184.818 33.1644C184.818 32.6774 184.808 32.1376 184.787 31.5448C184.787 31.1003 184.713 30.7616 184.564 30.5287C184.416 30.2746 184.13 30.1053 183.707 30.0206L183.231 29.9253V29.3537L188.343 27.512L188.724 27.8295L189.01 29.0044C190.471 28.0095 192.122 27.512 193.964 27.512C195.763 27.512 197.203 28.1894 198.283 29.5443C199.383 30.8992 199.934 32.8997 199.934 35.546C199.934 38.1076 199.33 40.1081 198.124 41.5477C196.938 42.9661 195.319 43.6753 193.265 43.6753C192.44 43.6753 191.656 43.6012 190.915 43.453C190.196 43.3048 189.55 43.0825 188.978 42.7861V43.7388C188.978 44.3739 188.978 45.0619 188.978 45.8029C188.999 46.5438 189.01 47.3483 189.01 48.2163C189.01 49.0631 189.381 49.5923 190.121 49.804L190.725 49.9628V50.5661H183.231ZM191.773 42.4051C192.895 42.4051 193.773 41.9076 194.408 40.9126C195.065 39.8964 195.393 38.1499 195.393 35.673C195.393 33.2173 195.086 31.5025 194.472 30.5287C193.858 29.5337 192.99 29.0362 191.868 29.0362C191.466 29.0362 191.032 29.0997 190.566 29.2267C190.1 29.3537 189.603 29.5654 189.074 29.8618V41.8652C189.92 42.2251 190.82 42.4051 191.773 42.4051ZM201.311 43.2307V42.6274L201.788 42.5003C202.486 42.2675 202.836 41.7382 202.836 40.9126C202.836 40.1928 202.836 39.473 202.836 38.7532C202.857 38.0123 202.867 37.2819 202.867 36.5621V24.4952C202.867 24.0507 202.793 23.7225 202.645 23.5108C202.497 23.2779 202.211 23.1086 201.788 23.0027L201.311 22.8757V22.2724L206.869 20.9387L207.281 21.2245L207.154 25.7019V40.9126C207.176 41.336 207.26 41.6853 207.408 41.9605C207.578 42.2146 207.864 42.3945 208.266 42.5003L208.71 42.6274V43.2307H201.311ZM218.087 43.6753C216.52 43.6753 215.144 43.3471 213.959 42.6909C212.794 42.0346 211.884 41.1031 211.228 39.8964C210.593 38.6897 210.275 37.2502 210.275 35.5777C210.275 33.9053 210.614 32.4657 211.291 31.2591C211.99 30.0524 212.921 29.1315 214.086 28.4964C215.271 27.8401 216.605 27.512 218.087 27.512C219.569 27.512 220.892 27.8401 222.056 28.4964C223.242 29.1315 224.173 30.0524 224.851 31.2591C225.549 32.4446 225.899 33.8841 225.899 35.5777C225.899 37.2502 225.57 38.7003 224.914 39.9282C224.279 41.1349 223.379 42.0664 222.215 42.7226C221.051 43.3577 219.675 43.6753 218.087 43.6753ZM218.087 42.7861C218.849 42.7861 219.463 42.585 219.929 42.1828C220.415 41.7594 220.765 41.029 220.977 39.9917C221.188 38.9544 221.294 37.5042 221.294 35.6413C221.294 33.7571 221.188 32.2964 220.977 31.2591C220.765 30.2006 220.415 29.4702 219.929 29.068C219.463 28.6446 218.849 28.4329 218.087 28.4329C217.325 28.4329 216.711 28.6446 216.245 29.068C215.779 29.4702 215.43 30.2006 215.197 31.2591C214.985 32.2964 214.88 33.7571 214.88 35.6413C214.88 37.5042 214.985 38.9544 215.197 39.9917C215.43 41.029 215.779 41.7594 216.245 42.1828C216.711 42.585 217.325 42.7861 218.087 42.7861ZM227.359 43.2307V42.6274L227.835 42.4686C228.259 42.3627 228.545 42.1828 228.693 41.9288C228.862 41.6747 228.947 41.336 228.947 40.9126V31.6084C228.926 31.1426 228.841 30.7933 228.693 30.5604C228.545 30.3064 228.259 30.137 227.835 30.0524L227.359 29.9253V29.3537L232.535 27.512L232.916 27.8613L233.202 30.6557V30.878C233.52 30.2852 233.922 29.7348 234.409 29.2267C234.896 28.7186 235.425 28.3058 235.996 27.9883C236.568 27.6707 237.14 27.512 237.711 27.512C238.516 27.512 239.119 27.7237 239.521 28.1471C239.923 28.5705 240.125 29.1103 240.125 29.7666C240.125 30.4863 239.923 31.0368 239.521 31.4178C239.119 31.7777 238.632 31.9577 238.06 31.9577C237.214 31.9577 236.483 31.5766 235.869 30.8145L235.806 30.751C235.594 30.4969 235.351 30.3593 235.076 30.3382C234.821 30.2958 234.567 30.4228 234.313 30.7192C234.102 30.9309 233.901 31.185 233.71 31.4813C233.541 31.7565 233.382 32.0847 233.234 32.4657V40.7856C233.234 41.1878 233.318 41.5265 233.488 41.8017C233.657 42.0558 233.943 42.2357 234.345 42.3416L235.298 42.6274V43.2307H227.359ZM248.632 27.512C249.966 27.512 251.109 27.7872 252.062 28.3376C253.015 28.888 253.745 29.6501 254.253 30.624C254.782 31.5766 255.047 32.6774 255.047 33.9265C255.047 34.2017 255.036 34.4663 255.015 34.7204C254.994 34.9532 254.952 35.1755 254.888 35.3872H245.33C245.351 37.5677 245.753 39.1343 246.537 40.087C247.341 41.0396 248.505 41.5159 250.03 41.5159C251.088 41.5159 251.946 41.3466 252.602 41.0079C253.258 40.648 253.861 40.1505 254.412 39.5154L254.92 39.9917C254.285 41.156 253.417 42.0664 252.316 42.7226C251.236 43.3577 249.945 43.6753 248.442 43.6753C246.939 43.6753 245.616 43.3577 244.473 42.7226C243.329 42.0875 242.43 41.1772 241.773 39.9917C241.138 38.785 240.821 37.3454 240.821 35.673C240.821 33.9371 241.191 32.4657 241.932 31.2591C242.694 30.0524 243.668 29.1315 244.854 28.4964C246.06 27.8401 247.32 27.512 248.632 27.512ZM248.474 28.4329C247.86 28.4329 247.32 28.6128 246.854 28.9727C246.41 29.3114 246.05 29.9253 245.774 30.8145C245.52 31.6825 245.372 32.9103 245.33 34.4981H251.014C251.247 32.3599 251.162 30.8145 250.76 29.8618C250.358 28.9092 249.596 28.4329 248.474 28.4329ZM256.664 43.2307V42.6274L257.141 42.4686C257.564 42.3627 257.85 42.1828 257.998 41.9288C258.167 41.6747 258.252 41.336 258.252 40.9126V31.6084C258.231 31.1426 258.146 30.7933 257.998 30.5604C257.85 30.3064 257.564 30.137 257.141 30.0524L256.664 29.9253V29.3537L261.84 27.512L262.221 27.8613L262.507 30.6557V30.878C262.825 30.2852 263.227 29.7348 263.714 29.2267C264.201 28.7186 264.73 28.3058 265.302 27.9883C265.873 27.6707 266.445 27.512 267.016 27.512C267.821 27.512 268.424 27.7237 268.826 28.1471C269.229 28.5705 269.43 29.1103 269.43 29.7666C269.43 30.4863 269.229 31.0368 268.826 31.4178C268.424 31.7777 267.937 31.9577 267.366 31.9577C266.519 31.9577 265.789 31.5766 265.175 30.8145L265.111 30.751C264.899 30.4969 264.656 30.3593 264.381 30.3382C264.127 30.2958 263.873 30.4228 263.619 30.7192C263.407 30.9309 263.206 31.185 263.015 31.4813C262.846 31.7565 262.687 32.0847 262.539 32.4657V40.7856C262.539 41.1878 262.624 41.5265 262.793 41.8017C262.962 42.0558 263.248 42.2357 263.65 42.3416L264.603 42.6274V43.2307H256.664Z" fill="white"/>
<defs>
<clipPath id="clip0_3893_41049">
<rect width="48.3887" height="55.2849" fill="white" transform="matrix(0 1 -1 0 55.2852 0.756104)"/>
</clipPath>
</defs>
</svg>
