<svg width="2061" height="823" viewBox="0 0 2061 823" fill="none" xmlns="http://www.w3.org/2000/svg">
<g clip-path="url(#clip0_3038_41658)">
<path d="M0 823H476.656H757.397H1101H1373.84H1508.45H1925.41H2061V633.26V413.69V209.146V0H1863.7H1739.99H1491.06H1247.11H835.368H434.792C426.758 47.9922 402.325 85.9638 365.794 117.285C361.802 120.707 357.803 124.146 353.862 127.626C359.694 136.23 364.415 145.535 367.915 155.319C393.505 225.297 354.724 269.625 328.605 326.085L328.034 326.869C323.913 327.074 302.633 338.608 297.806 341.144C257.66 362.242 225.332 390.622 197.218 426.038C183.535 443.274 169.296 463.703 153.951 479.545C109.873 525.054 62.7255 545.012 0 546.653V823Z" fill="#024162"/>
<path d="M1373.84 823H1508.45H1925.41H2061V633.26V413.69V209.146V0H1863.7H1739.99H1491.05H1247.11C1246.14 24.5312 1234.82 50.3356 1221.5 70.6122C1179.98 133.89 1104.23 149.636 1046.24 190.828C1048.14 192.366 1073.1 202.891 1078.22 205.849C1122.27 231.303 1144.91 260.63 1164.73 306.35C1169.62 320.006 1176.76 343.228 1177.66 357.529C1180.57 403.621 1186.34 433.135 1204.69 475.563L1204.83 476.1C1209.49 480.379 1223.78 505.422 1229.85 513.289C1252.77 542.498 1282.86 565.302 1317.21 579.49C1327.15 583.546 1337.8 585.798 1347.7 589.659C1345.85 593.684 1341.11 598.452 1338.01 601.915C1336.51 607.09 1330.49 617.265 1327.88 622.691C1291.89 697.453 1319.55 768.366 1373.84 823Z" fill="#06356A"/>
<path d="M1899.77 401.542C1949.09 416.753 2010.02 421.552 2061 413.69V209.146V-3.05176e-05H1863.7H1739.99C1715.05 31.4096 1699.16 58.1235 1690.32 97.6878L1689.96 98.1359C1661.28 232.443 1774.43 366.913 1899.77 401.542Z" fill="#002550"/>
<path d="M1899.77 401.542C1949.09 416.753 2010.02 421.552 2061 413.69V209.146C2045.61 213.296 2030.68 218.971 2016.43 226.089C1968.57 249.566 1932.21 291.311 1915.56 341.891C1909.12 361.792 1906.32 381.688 1899.77 401.542Z" fill="#06356A"/>
<path d="M1690.32 97.6877C1762.71 93.006 1822.39 59.9192 1863.7 -6.10352e-05H1739.99C1715.05 31.4096 1699.16 58.1235 1690.32 97.6877Z" fill="#024162"/>
<path d="M1508.45 823H1925.41H2061V633.26C2004.2 674.804 1933.95 691.459 1865.77 672.274C1799.88 653.733 1732.39 633.765 1664.36 658.242L1663.74 658.315C1583.78 683.294 1520.86 736.447 1508.45 823Z" fill="#024162"/>
<path d="M1508.45 823H1925.41C1907.96 811.62 1858.35 793.792 1837.64 785.43C1780.26 762.255 1727.89 734.601 1685.8 688.078C1678.05 679.514 1669.28 668.501 1664.36 658.242L1663.74 658.315C1583.78 683.294 1520.86 736.447 1508.45 823Z" fill="#04596F"/>
<path d="M1164.73 306.35C1252.8 307.084 1287.52 315.708 1368.93 268.304C1358.41 217.545 1366.18 166.567 1395.36 123.318C1426.75 76.8013 1465.59 52.2861 1491.06 0H1247.11C1246.14 24.5312 1234.82 50.3356 1221.5 70.6122C1179.98 133.89 1104.23 149.636 1046.24 190.828C1048.14 192.366 1073.1 202.891 1078.22 205.849C1122.27 231.303 1144.91 260.63 1164.73 306.35Z" fill="#197782"/>
<path d="M1664.36 658.242C1732.39 633.765 1799.88 653.733 1865.77 672.274C1933.95 691.459 2004.2 674.804 2061 633.26V413.69C2010.02 421.552 1949.09 416.754 1899.77 401.542C1888.87 445.049 1855.91 492.886 1821.77 521.523C1766.41 567.962 1705.06 583.436 1634.09 577.772C1634.81 602.015 1650.94 638.079 1663.74 658.315L1664.36 658.242Z" fill="#04596F"/>
<path d="M1373.84 823H1508.45C1520.86 736.447 1583.78 683.294 1663.74 658.315C1650.94 638.079 1634.81 602.015 1634.09 577.772L1633.48 577.785C1604.33 577.264 1577.01 573.316 1546.73 577.185C1470.65 586.906 1426.61 606.396 1348.4 589.711L1347.7 589.659C1345.85 593.684 1341.11 598.452 1338.01 601.915C1336.51 607.09 1330.49 617.265 1327.88 622.691C1291.89 697.453 1319.55 768.366 1373.84 823Z" fill="#106472"/>
<path d="M1347.7 589.659L1348.4 589.711C1359.67 574.215 1371.63 558.859 1383.42 544.233C1412.17 508.56 1432.1 463.173 1424.22 416.657C1422.29 405.25 1419.03 394.241 1415.06 383.338C1415.05 383.328 1415.85 381.825 1415.96 381.743C1416.19 381.593 1416.43 381.442 1416.67 381.291L1413.43 380.671C1400.41 351.909 1371.45 298.161 1369.41 268.388L1368.93 268.304C1287.52 315.708 1252.8 307.084 1164.73 306.35C1169.62 320.006 1176.76 343.228 1177.66 357.529C1180.57 403.621 1186.34 433.135 1204.69 475.563L1204.83 476.1C1209.49 480.379 1223.78 505.423 1229.85 513.289C1252.77 542.498 1282.86 565.302 1317.21 579.491C1327.15 583.546 1337.8 585.798 1347.7 589.659Z" fill="#06356A"/>
<path d="M1204.69 475.563C1215.82 467.499 1232.53 445.554 1244.71 434.607C1289.47 394.395 1345.43 374.314 1405.78 380.468C1408.01 380.698 1411.17 380.874 1413.43 380.671C1400.41 351.909 1371.45 298.161 1369.41 268.387L1368.93 268.304C1287.52 315.708 1252.8 307.084 1164.73 306.35C1169.62 320.006 1176.76 343.228 1177.66 357.529C1180.57 403.621 1186.34 433.135 1204.69 475.563Z" fill="#024162"/>
<path d="M1368.93 268.304L1369.41 268.387C1389.75 253.715 1404.71 243.585 1423.08 225.972C1439.4 210.311 1453.95 192.732 1470.2 177.52C1538.21 113.868 1600.3 99.2645 1689.96 98.136L1690.32 97.6878C1699.16 58.1235 1715.05 31.4097 1739.98 0H1491.05C1465.59 52.2861 1426.75 76.8013 1395.36 123.318C1366.18 166.567 1358.41 217.545 1368.93 268.304Z" fill="#106472"/>
<path d="M1348.4 589.711C1426.61 606.396 1470.65 586.906 1546.73 577.185C1577.01 573.317 1604.33 577.264 1633.48 577.785C1631.48 568.59 1629.52 559.413 1627.03 550.331C1600.37 453.099 1512.91 396.389 1416.67 381.291C1416.43 381.442 1416.19 381.593 1415.96 381.743C1415.85 381.825 1415.05 383.328 1415.06 383.338C1419.03 394.241 1422.29 405.25 1424.22 416.657C1432.1 463.173 1412.17 508.56 1383.42 544.233C1371.63 558.859 1359.67 574.215 1348.4 589.711Z" fill="#383681"/>
<path d="M328.604 326.085C412.558 290.188 498.44 289.039 587.352 304.063C618.51 309.327 650.094 314.38 681.434 318.375L681.959 319.116C686.128 318.43 693.747 319.318 698.256 319.785C789.199 329.209 882.065 309.215 957.138 255.942C987.017 234.739 1015.74 212.124 1045.79 190.825L1046.24 190.828C1104.22 149.636 1179.98 133.89 1221.5 70.6122C1234.82 50.3356 1246.14 24.5312 1247.11 -3.05176e-05H835.368H434.792C426.758 47.9922 402.324 85.9638 365.794 117.285C361.802 120.707 357.803 124.146 353.862 127.626C359.694 136.23 364.414 145.535 367.914 155.319C393.505 225.297 354.724 269.625 328.604 326.085Z" fill="#024162"/>
<path d="M328.604 326.085C412.558 290.188 498.44 289.039 587.352 304.063C618.51 309.327 650.094 314.38 681.434 318.375C677.819 308.759 665.874 289.47 660.607 278.928C636.947 231.566 630.723 186.504 652.761 136.864C681.963 71.0865 755.954 31.0961 820.586 6.9548L821.899 6.46942C824.745 5.19421 833.284 1.55856 835.368 -3.05176e-05H434.792C426.758 47.9922 402.324 85.9638 365.794 117.285C361.802 120.707 357.803 124.146 353.862 127.626C359.694 136.23 364.414 145.535 367.914 155.319C393.505 225.297 354.724 269.625 328.604 326.085Z" fill="#383681"/>
<path d="M1045.79 190.825L1046.24 190.828C1104.23 149.636 1179.98 133.89 1221.51 70.6121C1234.82 50.3355 1246.14 24.5311 1247.11 -0.000106812H835.368C833.284 1.55847 824.745 5.19412 821.899 6.46933C822.693 82.4456 897.916 149.629 966.852 168.63C993.402 175.949 1019.48 182.314 1045.79 190.825Z" fill="#06356A"/>
<path d="M0 823H476.656C512.456 800.224 542.976 776.052 552.272 732.131C565.872 667.87 523.014 616.707 477.094 579.317C466.493 572.423 455.517 563.487 445.08 556.911C389.276 521.746 335.367 477.298 320.105 409.796C313.308 379.733 317.96 355.824 328.034 326.869C323.913 327.074 302.633 338.608 297.806 341.144C257.66 362.242 225.332 390.622 197.218 426.038C183.535 443.274 169.296 463.703 153.951 479.545C109.873 525.054 62.7255 545.012 0 546.653V823Z" fill="#002550"/>
<path d="M757.397 823H1101H1373.84C1319.55 768.366 1291.89 697.453 1327.88 622.691C1330.49 617.265 1336.51 607.09 1338.01 601.915C1341.11 598.452 1345.85 593.684 1347.7 589.659C1337.8 585.798 1327.15 583.546 1317.21 579.49C1282.86 565.302 1252.77 542.498 1229.85 513.289C1223.78 505.422 1209.49 480.379 1204.83 476.1C1155.08 534.898 1073.96 588.969 996.259 597.416C916.691 606.066 835.27 604.424 783.357 679.123C752.352 723.738 747.691 769.985 757.397 823Z" fill="#04596F"/>
<path d="M1101 823H1373.84C1319.55 768.366 1291.89 697.453 1327.88 622.691C1330.49 617.265 1336.51 607.09 1338.01 601.915C1320.22 619.061 1299.9 633.388 1277.78 644.402C1222.02 672.145 1159.35 681.338 1120.34 736.073C1101.51 762.486 1095.56 791.177 1101 823Z" fill="#197782"/>
<path d="M328.034 326.869C317.96 355.824 313.308 379.733 320.105 409.796C335.367 477.298 389.276 521.746 445.08 556.911C455.517 563.487 466.493 572.423 477.094 579.317C504.623 579.627 532.038 575.734 558.388 567.772C594.903 555.579 624.47 540.675 652.099 513.369C706.136 459.965 719.275 386.326 681.96 319.116L681.434 318.375C650.094 314.38 618.51 309.327 587.352 304.063C498.44 289.039 412.558 290.188 328.605 326.085L328.034 326.869Z" fill="#06356A"/>
<path d="M558.388 567.772C577.464 567.814 597.241 566.936 616.123 567.906C643.402 569.307 669.303 572.887 696.757 572.87C768.144 572.826 831.391 545.943 881.802 495.649C909.295 468.221 928.616 439.338 952.745 409.408C1002.54 347.641 1082.08 306.77 1162.61 306.307C1163.32 306.306 1164.02 306.32 1164.73 306.35C1144.91 260.63 1122.27 231.303 1078.22 205.849C1073.1 202.891 1048.14 192.366 1046.24 190.828L1045.79 190.825C1015.74 212.124 987.018 234.739 957.138 255.942C882.066 309.215 789.199 329.209 698.256 319.785C693.747 319.318 686.128 318.43 681.96 319.116C719.275 386.326 706.136 459.965 652.099 513.369C624.47 540.675 594.904 555.579 558.388 567.772Z" fill="#04596F"/>
<path d="M0 546.653C62.7255 545.012 109.873 525.054 153.951 479.545C169.296 463.703 183.535 443.274 197.218 426.038C225.332 390.622 257.66 362.242 297.806 341.144C302.633 338.608 323.913 327.074 328.034 326.869L328.605 326.085C354.724 269.625 393.505 225.297 367.915 155.319C364.415 145.535 359.694 136.23 353.862 127.626C357.803 124.146 361.802 120.707 365.794 117.285C402.325 85.9638 426.758 47.9923 434.792 6.10352e-05H197.745H0V222.984V546.653Z" fill="#024162"/>
<path d="M0 222.984C49.706 210.948 79.4074 211.201 129.523 208.287C188.347 204.868 253.155 188.831 304.64 160.056C314.859 154.344 345.724 135.515 353.486 127.719L353.862 127.626C357.803 124.146 361.802 120.707 365.794 117.285C402.325 85.9638 426.758 47.9922 434.792 -1.52588e-05H197.745H0V222.984Z" fill="#002550"/>
<path d="M353.485 127.719L353.862 127.626C357.803 124.146 361.802 120.707 365.794 117.285C402.325 85.9638 426.758 47.9922 434.792 -2.28882e-05H197.745C240.823 43.2401 298.324 59.3806 338.342 106.42C343.367 112.327 350.384 120.725 353.485 127.719Z" fill="#06356A"/>
</g>
<defs>
<clipPath id="clip0_3038_41658">
<rect width="2061" height="823" fill="white" transform="matrix(1 0 0 -1 0 823)"/>
</clipPath>
</defs>
</svg>
