<?xml version="1.0" encoding="utf-8"?>
<!-- Generator: Adobe Illustrator 26.3.1, SVG Export Plug-In . SVG Version: 6.00 Build 0)  -->
<svg version="1.1" id="Layer_1" xmlns="http://www.w3.org/2000/svg" xmlns:xlink="http://www.w3.org/1999/xlink" x="0px" y="0px"
	 viewBox="0 0 74.5 80" style="enable-background:new 0 0 74.5 80;" xml:space="preserve">
<g>
	<polygon points="30.4,42.2 37.2,42.2 37.2,42.2 37.2,42.2 44,42.2 37.2,25.8 	"/>
	<path d="M37.2,0L37.2,0L37.2,0L0,13.3l5.7,49.2L37.2,80l0,0l0,0l31.6-17.5l5.7-49.2L37.2,0z M60.5,61h-8.7l0,0l-4.7-11.7h-9.9l0,0
		l0,0h-9.9L22.7,61l0,0H14l0,0L37.2,8.8l0,0l0,0l0,0l0,0L60.5,61L60.5,61z"/>
</g>
</svg>
