<?xml version="1.0" encoding="utf-8"?>
<!-- Generator: Adobe Illustrator 26.3.1, SVG Export Plug-In . SVG Version: 6.00 Build 0)  -->
<svg version="1.1" id="Layer_1" xmlns="http://www.w3.org/2000/svg" xmlns:xlink="http://www.w3.org/1999/xlink" x="0px" y="0px"
	 viewBox="0 0 80 80" style="enable-background:new 0 0 80 80;" xml:space="preserve">
<style type="text/css">
	.st0{fill:#DD0031;}
	.st1{fill:#C3002F;}
	.st2{fill:#FFFFFF;}
</style>
<g>
	<polygon class="st0" points="40,0 40,0 40,0 2.8,13.3 8.4,62.5 40,80 40,80 40,80 71.6,62.5 77.2,13.3 	"/>
	<polygon class="st1" points="40,0 40,8.9 40,8.8 40,49.4 40,49.4 40,80 40,80 71.6,62.5 77.2,13.3 	"/>
	<path class="st2" d="M40,8.8L16.7,61l0,0h8.7l0,0l4.7-11.7h19.8L54.5,61l0,0h8.7l0,0L40,8.8L40,8.8L40,8.8L40,8.8L40,8.8z
		 M46.8,42.2H33.2L40,25.8L46.8,42.2z"/>
</g>
</svg>
