<?xml version="1.0" encoding="utf-8"?>
<!-- Generator: Adobe Illustrator 26.3.1, SVG Export Plug-In . SVG Version: 6.00 Build 0)  -->
<svg version="1.1" id="Layer_1" xmlns="http://www.w3.org/2000/svg" xmlns:xlink="http://www.w3.org/1999/xlink" x="0px" y="0px"
	 viewBox="0 0 74.5 80" style="enable-background:new 0 0 74.5 80;" xml:space="preserve">
<style type="text/css">
	.st0{fill:#FFFFFF;}
	.st1{opacity:0.9;}
</style>
<g>
	<g>
		<polygon class="st0" points="37.2,49.4 27.4,49.4 22.7,61 22.7,61 14,61 14,61 37.2,8.8 37.2,8.9 37.2,8.9 37.2,0 37.2,0 0,13.3 
			5.7,62.5 37.2,80 37.2,80 		"/>
		<polygon class="st0" points="30.4,42.2 37.2,42.2 37.2,42.2 37.2,25.8 		"/>
	</g>
	<g class="st1">
		<polygon class="st0" points="37.2,49.4 47.1,49.4 51.8,61 51.8,61 60.5,61 60.5,61 37.2,8.8 37.2,8.9 37.2,8.9 37.2,0 37.2,0 
			74.5,13.3 68.8,62.5 37.2,80 37.2,80 		"/>
		<polygon class="st0" points="44,42.2 37.2,42.2 37.2,42.2 37.2,25.8 		"/>
	</g>
</g>
</svg>
