<?xml version="1.0" encoding="utf-8"?>
<!-- Generator: Adobe Illustrator 26.3.1, SVG Export Plug-In . SVG Version: 6.00 Build 0)  -->
<svg version="1.1" id="Layer_1" xmlns="http://www.w3.org/2000/svg" xmlns:xlink="http://www.w3.org/1999/xlink" x="0px" y="0px"
	 viewBox="0 0 78 46.6" style="enable-background:new 0 0 78 46.6;" xml:space="preserve">
<style type="text/css">
	.st0{fill:#252F3E;}
	.st1{fill-rule:evenodd;clip-rule:evenodd;fill:#FF9900;}
</style>
<g>
	<path class="st0" d="M22,16.8c0,1,0.1,1.7,0.3,2.3c0.2,0.6,0.5,1.2,0.8,1.9c0.1,0.2,0.2,0.4,0.2,0.6c0,0.3-0.2,0.5-0.5,0.8
		l-1.6,1.1c-0.2,0.2-0.5,0.2-0.7,0.2c-0.3,0-0.5-0.1-0.8-0.4c-0.4-0.4-0.7-0.8-0.9-1.2c-0.3-0.4-0.5-0.9-0.8-1.5
		c-2,2.4-4.6,3.6-7.6,3.6c-2.2,0-3.9-0.6-5.2-1.9c-1.3-1.2-1.9-2.9-1.9-5c0-2.2,0.8-4,2.4-5.3s3.7-2,6.4-2c0.9,0,1.8,0.1,2.7,0.2
		c1,0.1,1.9,0.3,3,0.6v-2c0-2-0.4-3.3-1.2-4.2c-0.8-0.8-2.2-1.2-4.2-1.2c-0.9,0-1.8,0.1-2.8,0.3S7.7,4.2,6.8,4.6
		C6.2,4.9,5.9,5,5.7,5.1c-0.2,0-0.3,0-0.4,0c-0.4,0-0.5-0.2-0.5-0.8V3.1c0-0.4,0.1-0.7,0.2-0.9C5.1,2,5.4,1.8,5.7,1.7
		c0.9-0.5,2-0.9,3.3-1.2C10.3,0.2,11.6,0,13,0c3.1,0,5.3,0.7,6.8,2.1C21.2,3.5,22,5.6,22,8.5V16.8L22,16.8z M11.4,20.8
		c0.9,0,1.7-0.2,2.7-0.5c0.9-0.3,1.8-0.9,2.5-1.7c0.4-0.5,0.7-1,0.9-1.7c0.2-0.6,0.3-1.4,0.3-2.3v-1.1c-0.8-0.2-1.6-0.3-2.4-0.4
		c-0.8-0.1-1.6-0.2-2.4-0.2c-1.7,0-3,0.3-3.9,1c-0.9,0.7-1.3,1.7-1.3,3c0,1.2,0.3,2.1,1,2.7C9.3,20.5,10.3,20.8,11.4,20.8z
		 M32.3,23.6c-0.5,0-0.8-0.1-1-0.3c-0.2-0.2-0.4-0.5-0.5-1l-6.1-20c-0.2-0.5-0.2-0.9-0.2-1c0-0.4,0.2-0.6,0.6-0.6h2.5
		c0.5,0,0.8,0.1,1,0.3c0.2,0.2,0.4,0.5,0.5,1l4.4,17.2l4-17.2c0.1-0.5,0.3-0.9,0.5-1c0.2-0.1,0.6-0.3,1-0.3h2.1c0.5,0,0.8,0.1,1,0.3
		c0.2,0.2,0.4,0.5,0.5,1l4.1,17.4L51.2,2c0.2-0.5,0.3-0.9,0.5-1c0.2-0.2,0.5-0.3,1-0.3h2.4c0.4,0,0.6,0.2,0.6,0.6
		c0,0.1,0,0.3-0.1,0.4c0,0.2-0.1,0.4-0.2,0.6l-6.3,20.1c-0.2,0.5-0.3,0.9-0.5,1c-0.2,0.2-0.5,0.3-1,0.3h-2.2c-0.5,0-0.8-0.1-1-0.3
		c-0.2-0.2-0.4-0.5-0.5-1L40,5.6l-4,16.7c-0.1,0.5-0.3,0.9-0.5,1c-0.2,0.2-0.6,0.3-1,0.3H32.3z M65.6,24.3c-1.3,0-2.7-0.2-4-0.5
		s-2.3-0.6-3-1c-0.4-0.2-0.7-0.5-0.8-0.7c-0.1-0.2-0.2-0.5-0.2-0.7v-1.3c0-0.5,0.2-0.8,0.6-0.8c0.2,0,0.3,0,0.5,0.1
		c0.2,0.1,0.4,0.2,0.6,0.3c0.9,0.4,1.8,0.7,2.9,0.9c1,0.2,2,0.3,3.1,0.3c1.6,0,2.9-0.3,3.8-0.9c0.9-0.6,1.3-1.4,1.3-2.5
		c0-0.7-0.2-1.3-0.7-1.8c-0.5-0.5-1.3-0.9-2.6-1.3l-3.8-1.2c-1.9-0.6-3.3-1.5-4.2-2.6c-0.9-1.1-1.3-2.4-1.3-3.8c0-1.1,0.2-2,0.7-2.9
		C59,3,59.6,2.3,60.4,1.8c0.8-0.6,1.7-1,2.7-1.3c1-0.3,2.1-0.4,3.3-0.4c0.6,0,1.2,0,1.7,0.1c0.6,0.1,1.1,0.2,1.7,0.3
		c0.5,0.1,1,0.3,1.5,0.4c0.5,0.2,0.8,0.3,1.1,0.5C72.8,1.6,73,1.8,73.2,2s0.2,0.5,0.2,0.9v1c0,0.5-0.2,0.8-0.6,0.8
		c-0.2,0-0.5-0.1-1-0.3c-1.5-0.7-3.1-1-5-1c-1.5,0-2.6,0.2-3.5,0.7c-0.8,0.5-1.2,1.2-1.2,2.3c0,0.7,0.3,1.3,0.8,1.8
		c0.5,0.5,1.5,1,2.9,1.4l3.7,1.2c1.9,0.6,3.2,1.4,4,2.5s1.2,2.3,1.2,3.6c0,1.1-0.2,2.1-0.7,3c-0.5,0.9-1.1,1.7-1.9,2.3
		c-0.8,0.6-1.8,1.1-2.9,1.5C68.2,24.1,66.9,24.3,65.6,24.3z"/>
	<g>
		<path class="st1" d="M70.5,36.9c-8.5,6.3-20.9,9.7-31.6,9.7c-14.9,0-28.4-5.5-38.6-14.7c-0.8-0.7-0.1-1.7,0.9-1.1
			c11,6.3,24.6,10.1,38.6,10.1c9.5,0,19.9-2,29.4-6C70.7,34.3,71.9,35.9,70.5,36.9z"/>
		<path class="st1" d="M74.1,32.8c-1.1-1.4-7.2-0.7-10-0.3c-0.8,0.1-1-0.6-0.2-1.2c4.9-3.4,12.9-2.4,13.8-1.3
			c0.9,1.2-0.3,9.2-4.8,13c-0.7,0.6-1.4,0.3-1.1-0.5C72.9,40,75.2,34.2,74.1,32.8z"/>
	</g>
</g>
</svg>
