<svg xmlns="http://www.w3.org/2000/svg" viewBox="0 0 53.3 80" style="enable-background:new 0 0 53.3 80" xml:space="preserve">
    <path d="M13.3 80c7.4 0 13.3-6 13.3-13.3V53.3H13.3C6 53.3 0 59.3 0 66.7S6 80 13.3 80z" style="fill:#0acf83"/>
    <path d="M0 40c0-7.4 6-13.3 13.3-13.3h13.3v26.7H13.3C6 53.3 0 47.4 0 40z" style="fill:#a259ff"/>
    <path d="M0 13.3C0 6 6 0 13.3 0h13.3v26.7H13.3C6 26.7 0 20.7 0 13.3z" style="fill:#f24e1e"/>
    <path d="M26.7 0H40c7.4 0 13.3 6 13.3 13.3s-6 13.3-13.3 13.3H26.7V0z" style="fill:#ff7262"/>
    <path d="M53.3 40c0 7.4-6 13.3-13.3 13.3s-13.3-6-13.3-13.3 6-13.3 13.3-13.3S53.3 32.6 53.3 40z" style="fill:#1abcfe"/>
</svg>
