<?xml version="1.0" encoding="utf-8"?>
<!-- Generator: Adobe Illustrator 26.3.1, SVG Export Plug-In . SVG Version: 6.00 Build 0)  -->
<svg version="1.1" id="Layer_1" xmlns="http://www.w3.org/2000/svg" xmlns:xlink="http://www.w3.org/1999/xlink" x="0px" y="0px"
	 viewBox="0 0 53.3 80" style="enable-background:new 0 0 53.3 80;" xml:space="preserve">
<style type="text/css">
	.st0{fill:#0ACF83;}
	.st1{fill:#A259FF;}
	.st2{fill:#F24E1E;}
	.st3{fill:#FF7262;}
	.st4{fill:#1ABCFE;}
</style>
<path id="path0_fill" class="st0" d="M13.3,80c7.4,0,13.3-6,13.3-13.3V53.3H13.3C6,53.3,0,59.3,0,66.7S6,80,13.3,80z"/>
<path id="path1_fill" class="st1" d="M0,40c0-7.4,6-13.3,13.3-13.3h13.3v26.7H13.3C6,53.3,0,47.4,0,40z"/>
<path id="path1_fill_1_" class="st2" d="M0,13.3C0,6,6,0,13.3,0h13.3v26.7H13.3C6,26.7,0,20.7,0,13.3z"/>
<path id="path2_fill" class="st3" d="M26.7,0H40c7.4,0,13.3,6,13.3,13.3s-6,13.3-13.3,13.3H26.7V0z"/>
<path id="path3_fill" class="st4" d="M53.3,40c0,7.4-6,13.3-13.3,13.3s-13.3-6-13.3-13.3s6-13.3,13.3-13.3S53.3,32.6,53.3,40z"/>
</svg>
