<?xml version="1.0" encoding="utf-8"?>
<!-- Generator: Adobe Illustrator 26.3.1, SVG Export Plug-In . SVG Version: 6.00 Build 0)  -->
<svg version="1.1" id="Layer_1" xmlns="http://www.w3.org/2000/svg" xmlns:xlink="http://www.w3.org/1999/xlink" x="0px" y="0px"
	 viewBox="0 0 41.9 78" style="enable-background:new 0 0 41.9 78;" xml:space="preserve">
<style type="text/css">
	.st0{fill:#5382A1;}
	.st1{fill:#F8981D;}
</style>
<path class="st0" d="M40.2,61.5h-0.3v-0.2h0.8v0.2h-0.3v0.8h-0.2V61.5z M41.7,61.6L41.7,61.6l-0.3,0.8h-0.1L41,61.6h0v0.8h-0.2v-1
	h0.3l0.3,0.7l0.3-0.7h0.3v1h-0.2L41.7,61.6L41.7,61.6z"/>
<path class="st0" d="M13.9,41.4c0,0-2,1.2,1.5,1.6c4.2,0.5,6.4,0.4,11.1-0.5c0,0,1.2,0.8,2.9,1.4C18.9,48.4,5.6,43.7,13.9,41.4"/>
<path class="st0" d="M12.6,35.5c0,0-2.3,1.7,1.2,2.1c4.5,0.5,8.1,0.5,14.3-0.7c0,0,0.9,0.9,2.2,1.3C17.6,41.9,3.5,38.5,12.6,35.5"/>
<path class="st1" d="M23.4,25.6c2.6,3-0.7,5.6-0.7,5.6s6.6-3.4,3.5-7.6c-2.8-4-5-5.9,6.7-12.7C32.9,10.9,14.6,15.5,23.4,25.6"/>
<path class="st0" d="M37.2,45.7c0,0,1.5,1.2-1.7,2.2c-6,1.8-25.2,2.4-30.5,0.1c-1.9-0.8,1.7-2,2.8-2.2c1.2-0.3,1.8-0.2,1.8-0.2
	C7.6,44.1-4,48.5,3.8,49.8C25.2,53.2,42.8,48.2,37.2,45.7"/>
<path class="st0" d="M14.8,29.4c0,0-9.7,2.3-3.4,3.1c2.7,0.4,7.9,0.3,12.9-0.1c4-0.3,8.1-1.1,8.1-1.1s-1.4,0.6-2.4,1.3
	C20,35.3,0.9,34.1,6.4,31.4C11.1,29.2,14.8,29.4,14.8,29.4"/>
<path class="st0" d="M32.3,39.2c10-5.2,5.4-10.2,2.2-9.6c-0.8,0.2-1.1,0.3-1.1,0.3s0.3-0.5,0.9-0.7c6.4-2.3,11.3,6.6-2.1,10.2
	C32.1,39.5,32.2,39.3,32.3,39.2"/>
<path class="st1" d="M26.2,0c0,0,5.6,5.6-5.3,14.1c-8.7,6.9-2,10.8,0,15.2c-5.1-4.6-8.8-8.6-6.3-12.3C18.3,11.5,28.5,8.8,26.2,0"/>
<path class="st0" d="M15.8,53.3c9.6,0.6,24.4-0.3,24.8-4.9c0,0-0.7,1.7-8,3.1c-8.2,1.5-18.4,1.4-24.4,0.4
	C8.3,51.9,9.5,52.9,15.8,53.3"/>
<path class="st0" d="M14.3,70.8c-0.9,0.8-1.9,1.2-2.7,1.2c-1.2,0-1.9-0.7-1.9-1.9c0-1.3,0.7-2.2,3.6-2.2h1.1L14.3,70.8 M16.8,73.6
	v-8.8c0-2.2-1.3-3.7-4.4-3.7c-1.8,0-3.4,0.4-4.6,1l0.4,1.6c1-0.4,2.3-0.7,3.6-0.7c1.8,0,2.5,0.7,2.5,2.2v1.1h-0.9
	c-4.3,0-6.2,1.7-6.2,4.2c0,2.2,1.3,3.4,3.7,3.4c1.5,0,2.7-0.6,3.8-1.6l0.2,1.3L16.8,73.6L16.8,73.6z"/>
<path class="st0" d="M25.1,73.6H22l-3.8-12.3H21l2.3,7.5l0.5,2.3c1.2-3.3,2-6.6,2.4-9.8h2.7C28.2,65.4,26.9,69.8,25.1,73.6"/>
<path class="st0" d="M37.1,70.8c-0.9,0.8-1.9,1.2-2.7,1.2c-1.2,0-1.9-0.7-1.9-1.9c0-1.3,0.7-2.2,3.6-2.2h1.1V70.8 M39.6,73.6v-8.8
	c0-2.2-1.3-3.7-4.4-3.7c-1.8,0-3.4,0.4-4.7,1l0.4,1.6c1-0.4,2.3-0.7,3.6-0.7c1.8,0,2.5,0.7,2.5,2.2v1.1h-0.9c-4.3,0-6.2,1.7-6.2,4.2
	c0,2.2,1.3,3.4,3.7,3.4c1.6,0,2.7-0.6,3.8-1.6l0.2,1.3L39.6,73.6L39.6,73.6z"/>
<path class="st0" d="M4.4,75.7c-0.7,1-1.9,1.9-3.1,2.3L0,76.5c1-0.5,1.8-1.3,2.2-2C2.5,73.8,2.6,73,2.6,71V57h2.7v13.8
	C5.3,73.5,5.1,74.6,4.4,75.7"/>
</svg>
