<?xml version="1.0" encoding="utf-8"?>
<!-- Generator: Adobe Illustrator 26.3.1, SVG Export Plug-In . SVG Version: 6.00 Build 0)  -->
<svg version="1.1" id="Layer_1" xmlns="http://www.w3.org/2000/svg" xmlns:xlink="http://www.w3.org/1999/xlink" x="0px" y="0px"
	 viewBox="0 0 57.5 78" style="enable-background:new 0 0 57.5 78;" xml:space="preserve">
<style type="text/css">
	.st0{fill:#5382A1;}
	.st1{fill:#F8981D;}
</style>
<path class="st0" d="M18.5,60.3c0,0-3,1.7,2.1,2.3c6.2,0.7,9.3,0.6,16.2-0.7c0,0,1.8,1.1,4.3,2.1C25.8,70.6,6.5,63.7,18.5,60.3"/>
<path class="st0" d="M16.7,51.8c0,0-3.3,2.5,1.8,3c6.6,0.7,11.8,0.7,20.8-1c0,0,1.2,1.3,3.2,2C24,61.1,3.4,56.2,16.7,51.8"/>
<path class="st1" d="M32.4,37.3c3.8,4.3-1,8.2-1,8.2s9.6-4.9,5.2-11.1c-4.1-5.8-7.2-8.6,9.8-18.5C46.3,15.9,19.6,22.6,32.4,37.3"/>
<path class="st0" d="M52.6,66.6c0,0,2.2,1.8-2.4,3.2c-8.8,2.7-36.7,3.5-44.4,0.1C3,68.7,8.2,67,9.9,66.7c1.7-0.4,2.7-0.3,2.7-0.3
	c-3.1-2.2-20,4.3-8.6,6.1C35,77.6,60.7,70.3,52.6,66.6"/>
<path class="st0" d="M20,42.9c0,0-14.2,3.4-5,4.6c3.9,0.5,11.6,0.4,18.8-0.2c5.9-0.5,11.8-1.5,11.8-1.5s-2.1,0.9-3.6,1.9
	c-14.4,3.8-42.2,2-34.2-1.8C14.5,42.6,20,42.9,20,42.9"/>
<path class="st0" d="M45.4,57.1c14.6-7.6,7.9-14.9,3.1-13.9c-1.2,0.2-1.7,0.4-1.7,0.4s0.4-0.7,1.3-1c9.3-3.3,16.5,9.7-3,14.8
	C45.1,57.5,45.3,57.3,45.4,57.1"/>
<path class="st1" d="M36.6,0c0,0,8.1,8.1-7.7,20.6c-12.7,10-2.9,15.7,0,22.2c-7.4-6.7-12.8-12.5-9.2-18C25,16.8,39.8,12.9,36.6,0"/>
<path class="st0" d="M21.4,77.8c14,0.9,35.6-0.5,36.1-7.1c0,0-1,2.5-11.6,4.5c-12,2.3-26.8,2-35.5,0.5
	C10.4,75.7,12.2,77.2,21.4,77.8"/>
</svg>
