<?xml version="1.0" encoding="utf-8"?>
<!-- Generator: Adobe Illustrator 26.3.1, SVG Export Plug-In . SVG Version: 6.00 Build 0)  -->
<svg version="1.1" id="Layer_1" xmlns="http://www.w3.org/2000/svg" xmlns:xlink="http://www.w3.org/1999/xlink" x="0px" y="0px"
	 viewBox="0 0 98.1 80" style="enable-background:new 0 0 98.1 80;" xml:space="preserve">
<style type="text/css">
	.st0{fill:#003545;}
</style>
<path class="st0" d="M17.8,66l3.6,13.8h-2.7l-2.4-9.9l-4.5,9.9H9.5l-4.4-9.9l-2.4,9.9H0L3.5,66h2.3l4.8,10.7L15.5,66L17.8,66z"/>
<path class="st0" d="M31.5,71.3v-1.6h2.6v10.1h-2.6v-1.6c-0.7,1.2-2.1,1.8-3.8,1.8c-3.6,0-5.6-2.5-5.6-5.4c0-2.8,1.9-5.1,5.2-5.1
	C29.2,69.5,30.8,70.1,31.5,71.3z M24.9,74.7c0,1.9,1.2,3.4,3.4,3.4c2.2,0,3.4-1.5,3.4-3.4s-1.2-3.4-3.5-3.4
	C26,71.3,24.9,72.9,24.9,74.7L24.9,74.7z"/>
<path class="st0" d="M40,79.8h-2.6V69.7H40V72c0.6-1.5,2-2.4,3.6-2.5c0.6,0,1.1,0.1,1.6,0.3l-0.6,1.9c-0.4-0.1-0.9-0.2-1.4-0.2
	c-1.9,0-3.3,1.4-3.3,3.5V79.8z"/>
<path class="st0" d="M46.5,67.1c0-0.7,0.6-1.3,1.3-1.4c0,0,0.1,0,0.1,0c0.8,0,1.4,0.6,1.4,1.3c0,0,0,0,0,0.1c0,0.7-0.6,1.3-1.3,1.3
	c0,0-0.1,0-0.1,0c-0.7,0-1.4-0.5-1.4-1.3C46.5,67.1,46.5,67.1,46.5,67.1z M46.6,69.7h2.6v7.4c0,0.5,0.1,0.8,0.5,0.8
	c0.2,0,0.3,0,0.5-0.1l0.4,1.9C50,79.9,49.5,80,48.9,80c-1.1,0-2.3-0.3-2.3-2.8L46.6,69.7z"/>
<path class="st0" d="M60.8,71.3v-1.6h2.6v10.1h-2.6v-1.6C60.1,79.3,58.7,80,57,80c-3.6,0-5.6-2.5-5.6-5.4c0-2.8,1.9-5.1,5.2-5.1
	C58.5,69.5,60.1,70.1,60.8,71.3z M54.2,74.7c0,1.9,1.2,3.4,3.4,3.4c2.2,0,3.4-1.5,3.4-3.4s-1.2-3.4-3.5-3.4
	C55.3,71.3,54.2,72.9,54.2,74.7L54.2,74.7z"/>
<path class="st0" d="M67.4,66h6.2c5.2,0,7.8,2.9,7.8,6.9c0,4.2-2.8,6.9-7.3,6.9h-6.7V66z M69.1,67.2v11.4h4.7c4.2,0,5.7-2.8,5.7-5.7
	c0-3.3-2-5.6-5.7-5.6L69.1,67.2z"/>
<path class="st0" d="M92,79.8h-7.9V66h7.1c2.7,0,5.3,0.5,5.3,3.6c0,2.2-1.3,2.8-2.8,3c2,0.2,3.2,1.4,3.2,3.5
	C97,79.1,94.3,79.8,92,79.8z M91.5,72c2.7,0,3.3-1.1,3.3-2.4c0-2-1.2-2.5-3.3-2.5h-5.7V72L91.5,72z M91.5,73.2h-5.7v5.4h6
	c1.7,0,3.5-0.6,3.5-2.7C95.2,73.5,93.2,73.2,91.5,73.2L91.5,73.2z"/>
<path class="st0" d="M97.6,0.3C97.4,0.1,97.1,0,96.7,0c-0.9,0-2.1,0.6-2.7,0.9l-0.2,0.1c-1,0.5-2.2,0.8-3.3,0.8
	c-1.2,0-2.2,0.1-3.6,0.2C79,3,75.5,9,72.1,14.9c-1.9,3.2-3.8,6.5-6.4,9c-0.5,0.5-1.1,1-1.7,1.5c-2.7,2-6.1,3.5-8.8,4.5
	c-2.6,1-5.3,1.9-8,2.7c-2.5,0.8-4.8,1.5-6.9,2.3c-1,0.4-1.8,0.6-2.5,0.9c-1.9,0.6-3.4,1.1-5.4,2.5c-0.8,0.5-1.6,1.1-2.1,1.6
	c-1.6,1.3-3.1,2.8-4.3,4.5c-1,1.6-2.3,3-3.6,4.3c-0.4,0.4-1.2,0.6-2.4,0.6c-1.3,0-3-0.3-4.7-0.6c-1.8-0.3-3.6-0.6-5.2-0.6
	c-1.3,0-2.3,0.2-3,0.6c0,0-1.2,0.7-1.8,1.7l0.5,0.2c0.8,0.4,1.5,1,2.2,1.6c0.7,0.6,1.5,1.2,2.3,1.6c0.3,0.1,0.5,0.2,0.7,0.4
	c-0.2,0.3-0.5,0.7-0.9,1.2c-1.8,2.4-2.9,3.9-2.3,4.7c0.3,0.2,0.6,0.2,0.9,0.2c4,0,6.1-1,8.8-2.3c0.8-0.4,1.6-0.8,2.5-1.2
	c1.6-0.7,3.3-1.8,5.1-2.9c2.4-1.5,4.8-3.1,7.2-3.9c2-0.6,4-0.9,6.1-0.9c2.5,0,5.2,0.3,7.8,0.7c1.9,0.2,3.9,0.5,5.8,0.6
	c0.8,0,1.5,0.1,2.1,0.1c0.9,0,1.8,0,2.7-0.1l0.2-0.1c1.4-0.8,2-2.6,2.6-4.4c0.4-1.1,0.7-2.1,1.3-2.8c0,0,0.1-0.1,0.1-0.1
	c0.1,0,0.1,0,0.2,0c0,0,0,0,0,0.1c-0.3,6.8-3.1,11.1-5.8,15l-1.9,2c0,0,2.6,0,4.1-0.6c5.4-1.6,9.4-5.2,12.4-10.8
	c0.7-1.5,1.4-2.9,2-4.5c0.1-0.1,0.5-0.4,0.5,0.3c0,0.2,0,0.4,0,0.6l0,0c0,0.1,0,0.3,0,0.4c-0.1,0.9-0.3,3-0.3,3l1.7-0.9
	c4-2.5,7.1-7.6,9.4-15.6c1-3.3,1.7-6.6,2.3-9.5c0.8-3.5,1.4-6.5,2.1-7.6c1.2-1.8,2.9-3,4.7-4.2c0.2-0.2,0.5-0.3,0.7-0.5
	c2.2-1.5,4.3-3.3,4.8-6.6V3.7C98.3,1.2,98,0.6,97.6,0.3z"/>
</svg>
