<?xml version="1.0" encoding="utf-8"?>
<!-- Generator: Adobe Illustrator 26.3.1, SVG Export Plug-In . SVG Version: 6.00 Build 0)  -->
<svg version="1.1" id="Layer_1" xmlns="http://www.w3.org/2000/svg" xmlns:xlink="http://www.w3.org/1999/xlink" x="0px" y="0px"
	 viewBox="0 0 35.9 80" style="enable-background:new 0 0 35.9 80;" xml:space="preserve">
<style type="text/css">
	.st0{fill:#599636;}
	.st1{fill:#6CAC48;}
	.st2{fill:#C2BFBF;}
</style>
<path class="st0" d="M17.7,0.2l2.1,4c0.5,0.7,1,1.4,1.6,2c1.8,1.8,3.5,3.7,5,5.7c3.6,4.7,6.1,10,7.8,15.7c1,3.5,1.6,7.1,1.7,10.7
	c0.2,10.8-3.5,20.1-11,27.8c-1.2,1.2-2.5,2.3-3.9,3.4c-0.7,0-1.1-0.6-1.4-1.1c-0.6-1-0.9-2-1.1-3.1c-0.3-1.3-0.4-2.6-0.3-4v-0.6
	C18.1,60.5,17.5,0.5,17.7,0.2z"/>
<path class="st1" d="M17.7,0.1c-0.1-0.2-0.2,0-0.3,0c0,0.9-0.3,1.7-0.7,2.4c-0.5,0.7-1.2,1.3-1.9,1.9c-3.9,3.4-6.9,7.4-9.4,11.9
	C2.2,22.5,0.5,29,0,35.9c-0.2,2.5,0.8,11.2,1.6,13.8c2.1,6.7,6,12.3,10.9,17.2c1.2,1.2,2.5,2.3,3.9,3.3c0.4,0,0.4-0.3,0.5-0.6
	c0.2-0.6,0.3-1.1,0.4-1.7l0.9-6.5L17.7,0.1z"/>
<path class="st2" d="M19.9,72.1c0.1-1,0.6-1.8,1.1-2.7c-0.5-0.2-0.9-0.6-1.2-1.1c-0.3-0.4-0.5-1-0.6-1.4c-0.6-1.8-0.7-3.7-0.9-5.6
	v-1.1c-0.2,0.2-0.3,1.7-0.3,1.9c-0.1,2-0.4,3.9-0.8,5.9c-0.1,0.8-0.2,1.6-0.7,2.3c0,0.1,0,0.2,0,0.3c0.8,2.3,1,4.7,1.1,7.1v0.9
	c0,1,0,0.8,0.8,1.2c0.3,0.1,0.7,0.2,1.1,0.4c0.3,0,0.3-0.2,0.3-0.4l-0.1-1.4v-4C19.6,73.5,19.8,72.8,19.9,72.1L19.9,72.1z"/>
</svg>
