<?xml version="1.0" encoding="utf-8"?>
<!-- Generator: Adobe Illustrator 26.3.1, SVG Export Plug-In . SVG Version: 6.00 Build 0)  -->
<svg version="1.1" id="Layer_1" xmlns="http://www.w3.org/2000/svg" xmlns:xlink="http://www.w3.org/1999/xlink" x="0px" y="0px"
	 viewBox="0 0 125.5 78" style="enable-background:new 0 0 125.5 78;" xml:space="preserve">
<style type="text/css">
	.st0{fill:#012F55;}
	.st1{fill:#96D8E9;}
	.st2{fill:#48C4E5;}
</style>
<g>
	<path class="st0" d="M19.3,0l27.4,46.2l0-20.9l15.9,24.9L46.3,75.9L19.2,31.9L19.1,78H0V0H19.3z M65.8,21.8l7.9,12.5l0.1,0.2
		c5.2-7.9,14-12.7,23.5-12.6c15.3,0,27.8,13,28.1,28.2l0,0.5h0l0,0.2c0,1.3-0.7,2.4-1.8,3.1c-1.1,0.7-2.5,0.7-3.7,0.1
		c-1.1-0.6-1.8-1.8-1.9-3l0-0.1l0-0.2c-0.1-2.4-1.4-3.4-3.1-4.1l-0.3-0.1l0,0l-0.3-0.1l0,0l-0.3-0.1l0,0l-1.4-0.5l0,0l-0.3-0.1l0,0
		l-0.3-0.1l0,0l-0.3-0.1c0,0-0.1,0-0.1-0.1l-0.3-0.1l0,0l-0.3-0.1c-1.1-0.5-2.2-1.2-3.1-2.3l-0.1-0.1l0,0l-0.1-0.1l0,0l-0.1-0.2l0,0
		l-0.2-0.3l0,0l-0.6-1l0,0l-0.2-0.4l0,0l-0.2-0.3l0,0l-0.1-0.2l0,0l-0.2-0.3l0,0l-0.1-0.2l0,0l-0.1-0.2c0,0,0-0.1-0.1-0.1l-0.2-0.2
		c-1.5-1.7-3.8-3.3-8.3-3.3c-3.7,0-7.3,1.5-10,4.1c-2.6,2.6-4.1,6.2-4.1,10c0,0.5,0.1,1.1,0.4,1.5l0.1,0.1L100.5,78H82l-8.2-12.4
		L65.7,78H47.2l17.7-27.8L46.8,21.8H65.8z M125.5,54.5c0.2,1.3,0,2.7-0.5,3.9c-0.6,1.5-1.6,1.8-2.2,1.8l-0.1,0l0,0l-0.1,0l0,0
		l-0.1,0l0,0l-0.1,0l0,0l-0.1,0l0,0l-0.1,0l0,0l0,0l0,0l-0.1,0l0,0l-0.1-0.1l0,0l-0.1,0l0,0l-0.1-0.1l0,0l-0.1-0.1c0,0,0,0,0,0
		l-0.1-0.1c-0.3-0.4-0.6-1-0.1-1.8c0.4-0.6,1-1,1.5-1.3l0.6-0.3C124.4,55.9,125,55.5,125.5,54.5z M65.9,0v19.8l0,0.2H46.8l0-0.2
		l0-19.8H65.9z"/>
	<path class="st1" d="M95.3,41.7c-4.6-0.1-8.7,2.7-10.3,7c2.7-4,7.8-5.6,12.3-3.9c2.1,0.8,4.8,2.2,7,1.5
		C102.2,43.4,98.9,41.7,95.3,41.7L95.3,41.7z"/>
	<path class="st2" d="M116.9,51.1c0-2.3-1.3-2.9-3.9-3.8c-2-0.7-4.2-1.4-5.8-3.6c-0.3-0.4-0.6-0.9-0.9-1.4c-0.7-1.3-1.6-2.4-2.8-3.4
		c-1.5-1.1-3.6-1.7-6.2-1.7c-5.3,0-10,3.2-12,8c2.5-3.5,6.7-5.4,11-5s8.1,3.1,9.9,7c0.9,1.5,2.7,2.2,4.4,1.7
		c2.6-0.6,2.4,1.9,6.3,2.7L116.9,51.1z"/>
</g>
</svg>
