<?xml version="1.0" encoding="utf-8"?>
<!-- Generator: Adobe Illustrator 26.3.1, SVG Export Plug-In . SVG Version: 6.00 Build 0)  -->
<svg version="1.1" id="Layer_1" xmlns="http://www.w3.org/2000/svg" xmlns:xlink="http://www.w3.org/1999/xlink" x="0px" y="0px"
	 viewBox="0 0 84.5 87" style="enable-background:new 0 0 84.5 87;" xml:space="preserve">
<style type="text/css">
	.st0{stroke:#000000;stroke-width:7.3066;}
	.st1{fill:#336791;}
	.st2{fill:none;stroke:#FFFFFF;stroke-width:2.4355;stroke-linecap:round;stroke-linejoin:round;}
	.st3{fill:none;stroke:#FFFFFF;stroke-width:2.4355;stroke-linecap:round;stroke-linejoin:bevel;}
	.st4{fill:#FFFFFF;stroke:#FFFFFF;stroke-width:0.8118;}
	.st5{fill:#FFFFFF;stroke:#FFFFFF;stroke-width:0.4059;}
	.st6{fill:none;stroke:#FFFFFF;stroke-width:0.5862;stroke-linecap:round;stroke-linejoin:round;}
</style>
<g id="orginal">
</g>
<g id="Layer_x0020_3">
	<path class="st0" d="M63.2,63.4c0.6-4.6,0.4-5.3,3.8-4.5l0.9,0.1c2.6,0.1,6.1-0.4,8.1-1.4c4.4-2,7-5.4,2.7-4.5
		c-9.8,2-10.5-1.3-10.5-1.3c10.4-15.4,14.7-34.9,11-39.7c-10.2-13-27.9-6.9-28.2-6.7l-0.1,0c-1.9-0.4-4.1-0.6-6.6-0.7
		c-4.4-0.1-7.8,1.2-10.4,3.1c0,0-31.5-13-30.1,16.3c0.3,6.2,8.9,47.2,19.2,34.8c3.8-4.5,7.4-8.4,7.4-8.4c1.8,1.2,4,1.8,6.2,1.6
		l0.2-0.1c-0.1,0.6,0,1.1,0.1,1.8c-2.7,3-1.9,3.5-7.2,4.6c-5.4,1.1-2.2,3.1-0.2,3.6c2.5,0.6,8.3,1.5,12.2-4l-0.2,0.6
		c1,0.8,1,6,1.1,9.7c0.1,3.7,0.4,7.1,1.1,9.1c0.8,2,1.6,7.2,8.6,5.7C58.3,81.9,62.7,80.1,63.2,63.4"/>
	<path class="st1" d="M78.6,53c-9.8,2-10.5-1.3-10.5-1.3c10.4-15.4,14.7-34.9,11-39.7c-10.2-13-27.9-6.9-28.2-6.7l-0.1,0
		c-1.9-0.4-4.1-0.6-6.6-0.7c-4.4-0.1-7.8,1.2-10.4,3.1c0,0-31.5-13-30.1,16.3c0.3,6.2,8.9,47.2,19.2,34.8c3.8-4.5,7.4-8.4,7.4-8.4
		c1.8,1.2,4,1.8,6.2,1.6l0.2-0.1c-0.1,0.6,0,1.1,0.1,1.8c-2.7,3-1.9,3.5-7.2,4.6c-5.4,1.1-2.2,3.1-0.2,3.6c2.5,0.6,8.3,1.5,12.2-4
		l-0.2,0.6c1,0.8,1.8,5.4,1.6,9.6c-0.1,4.2-0.2,7,0.6,9.2c0.8,2.2,1.6,7.2,8.6,5.7c5.8-1.2,8.8-4.5,9.3-9.9c0.3-3.8,1-3.3,1-6.7
		l0.5-1.6c0.6-5.2,0.1-6.9,3.7-6.1l0.9,0.1c2.6,0.1,6.1-0.4,8.1-1.4C80.3,55.5,82.9,52.1,78.6,53L78.6,53z"/>
	<path class="st2" d="M42.2,56c-0.3,9.7,0.1,19.4,1,21.8c0.9,2.4,3,7,9.9,5.5c5.8-1.2,7.9-3.7,8.9-9c0.7-3.9,2-14.8,2.2-17.1"/>
	<path class="st2" d="M33.8,7.5c0,0-31.6-12.9-30.1,16.4C4,30.1,12.7,71.1,23,58.7c3.8-4.5,7.2-8.1,7.2-8.1"/>
	<path class="st2" d="M50.9,5.1C49.8,5.5,68.4-1.7,79,11.8c3.7,4.8-0.6,24.3-11,39.7"/>
	<path class="st3" d="M68.1,51.6c0,0,0.7,3.3,10.5,1.3c4.3-0.9,1.7,2.5-2.7,4.5c-3.6,1.7-11.6,2.1-11.8-0.2
		C63.8,51.3,68.4,53.1,68.1,51.6c-0.3-1.3-2.3-2.7-3.7-5.9c-1.2-2.9-16.2-24.8,4.2-21.5C69.3,24,63.2,4.8,44.2,4.5
		c-19-0.3-18.4,23.4-18.4,23.4"/>
	<path class="st2" d="M36.9,53.6c-2.7,3-1.9,3.5-7.2,4.6c-5.4,1.1-2.2,3.1-0.2,3.6c2.5,0.6,8.3,1.5,12.2-4c1.2-1.7,0-4.3-1.6-5
		C39.3,52.5,38.2,52.1,36.9,53.6L36.9,53.6z"/>
	<path class="st2" d="M36.7,53.5c-0.3-1.7,0.6-3.8,1.5-6.2c1.4-3.6,4.5-7.3,2-18.8c-1.9-8.6-14.3-1.8-14.3-0.6
		c0,1.2,0.6,5.9-0.2,11.4c-1,7.2,4.6,13.3,11,12.7"/>
	<path class="st4" d="M33.7,27.7c-0.1,0.4,0.7,1.5,1.8,1.6c1,0.1,1.9-0.7,2-1.1c0.1-0.4-0.7-0.8-1.8-1
		C34.6,27.1,33.8,27.3,33.7,27.7L33.7,27.7z"/>
	<path class="st5" d="M64.9,26.9c0.1,0.4-0.7,1.5-1.8,1.6c-1,0.1-1.9-0.7-2-1.1c-0.1-0.4,0.7-0.8,1.8-1
		C63.9,26.3,64.8,26.5,64.9,26.9L64.9,26.9z"/>
	<path class="st2" d="M68.5,24.1c0.2,3.1-0.7,5.3-0.8,8.6c-0.2,4.8,2.3,10.4-1.4,15.9"/>
	<path class="st6" d="M0,11.8"/>
</g>
</svg>
