<?xml version="1.0" encoding="utf-8"?>
<!-- Generator: Adobe Illustrator 26.3.1, SVG Export Plug-In . SVG Version: 6.00 Build 0)  -->
<svg version="1.1" id="Layer_1" xmlns="http://www.w3.org/2000/svg" xmlns:xlink="http://www.w3.org/1999/xlink" x="0px" y="0px"
	 viewBox="0 0 77.7 80" style="enable-background:new 0 0 77.7 80;" xml:space="preserve">
<style type="text/css">
	.st0{stroke:#000000;stroke-width:6.7055;}
	.st1{fill:#336791;}
	.st2{fill:none;stroke:#FFFFFF;stroke-width:2.2351;stroke-linecap:round;stroke-linejoin:round;}
	.st3{fill:none;stroke:#FFFFFF;stroke-width:2.2351;stroke-linecap:round;stroke-linejoin:bevel;}
	.st4{fill:#FFFFFF;stroke:#FFFFFF;stroke-width:0.745;}
	.st5{fill:#FFFFFF;stroke:#FFFFFF;stroke-width:0.3725;}
	.st6{fill:none;stroke:#FFFFFF;stroke-width:0.538;stroke-linecap:round;stroke-linejoin:round;}
</style>
<g id="orginal">
</g>
<g id="Layer_x0020_3">
	<path class="st0" d="M58,58.3c0.6-4.2,0.4-4.9,3.5-4.1l0.8,0.1c2.4,0.1,5.6-0.4,7.4-1.3c4-1.8,6.4-5,2.5-4.1
		c-9,1.8-9.6-1.2-9.6-1.2c9.5-14.1,13.5-32,10.1-36.4C63.3-0.7,47.1,4.9,46.8,5.1h-0.1c-1.7-0.4-3.8-0.6-6.1-0.6
		c-4-0.1-7.2,1.1-9.5,2.8c0,0-28.9-11.9-27.6,15c0.3,5.7,8.2,43.3,17.6,31.9c3.5-4.1,6.8-7.7,6.8-7.7c1.7,1.1,3.7,1.7,5.7,1.5
		l0.2-0.1c-0.1,0.6,0,1,0.1,1.7c-2.5,2.8-1.7,3.2-6.6,4.2c-5,1-2,2.8-0.2,3.3c2.3,0.6,7.6,1.4,11.2-3.7l-0.2,0.6
		c0.9,0.7,0.9,5.5,1,8.9c0.1,3.4,0.4,6.5,1,8.4c0.7,1.8,1.5,6.6,7.9,5.2C53.5,75.3,57.5,73.6,58,58.3"/>
	<path class="st1" d="M72.1,48.7c-9,1.8-9.6-1.2-9.6-1.2C72,33.4,76,15.5,72.6,11.1C63.2-0.8,47,4.8,46.7,5h-0.1
		c-1.7-0.4-3.8-0.6-6.1-0.6c-4-0.1-7.2,1.1-9.5,2.8c0,0-28.9-11.9-27.6,15c0.3,5.7,8.2,43.3,17.6,31.9c3.5-4.1,6.8-7.7,6.8-7.7
		c1.7,1.1,3.7,1.7,5.7,1.5l0.2-0.1c-0.1,0.6,0,1,0.1,1.7c-2.5,2.8-1.7,3.2-6.6,4.2c-5,1-2,2.8-0.2,3.3c2.3,0.6,7.6,1.4,11.2-3.7
		L38,53.8c0.9,0.7,1.7,5,1.5,8.8C39.4,66.5,39.3,69,40,71c0.7,2,1.5,6.6,7.9,5.2c5.3-1.1,8.1-4.1,8.5-9.1c0.3-3.5,0.9-3,0.9-6.1
		l0.5-1.5c0.6-4.8,0.1-6.3,3.4-5.6l0.8,0.1c2.4,0.1,5.6-0.4,7.4-1.3C73.7,51,76.1,47.9,72.1,48.7L72.1,48.7z"/>
	<path class="st2" d="M38.7,51.5c-0.3,8.9,0.1,17.8,0.9,20c0.8,2.2,2.8,6.4,9.1,5c5.3-1.1,7.3-3.4,8.2-8.3c0.6-3.6,1.8-13.6,2-15.7"
		/>
	<path class="st2" d="M31,7C31,7,2-4.9,3.4,22c0.3,5.7,8.3,43.3,17.7,31.9c3.5-4.1,6.6-7.4,6.6-7.4"/>
	<path class="st2" d="M46.7,4.8c-1,0.4,16.1-6.2,25.8,6.1c3.4,4.4-0.6,22.3-10.1,36.4"/>
	<path class="st3" d="M62.5,47.5c0,0,0.6,3,9.6,1.2c3.9-0.8,1.6,2.3-2.5,4.1c-3.3,1.6-10.6,1.9-10.8-0.2
		C58.6,47.2,62.8,48.8,62.5,47.5c-0.3-1.2-2.1-2.5-3.4-5.4C58,39.4,44.2,19.3,63,22.3c0.6-0.2-5-17.8-22.4-18.1S23.7,25.7,23.7,25.7
		"/>
	<path class="st2" d="M33.9,49.3c-2.5,2.8-1.7,3.2-6.6,4.2c-5,1-2,2.8-0.2,3.3c2.3,0.6,7.6,1.4,11.2-3.7c1.1-1.6,0-3.9-1.5-4.6
		C36.1,48.3,35.1,47.9,33.9,49.3L33.9,49.3z"/>
	<path class="st2" d="M33.7,49.2c-0.3-1.6,0.6-3.5,1.4-5.7c1.3-3.3,4.1-6.7,1.8-17.3c-1.7-7.9-13.1-1.7-13.1-0.6s0.6,5.4-0.2,10.5
		c-0.9,6.6,4.2,12.2,10.1,11.7"/>
	<path class="st4" d="M30.9,25.5c-0.1,0.4,0.6,1.4,1.7,1.5c0.9,0.1,1.7-0.6,1.8-1c0.1-0.4-0.6-0.7-1.7-0.9
		C31.8,25,31,25.2,30.9,25.5L30.9,25.5z"/>
	<path class="st5" d="M59.6,24.8c0.1,0.4-0.6,1.4-1.7,1.5c-0.9,0.1-1.7-0.6-1.8-1c-0.1-0.4,0.6-0.7,1.7-0.9
		C58.6,24.2,59.5,24.4,59.6,24.8L59.6,24.8z"/>
	<path class="st2" d="M62.9,22.2c0.2,2.8-0.6,4.9-0.7,7.9c-0.2,4.4,2.1,9.5-1.3,14.6"/>
	<path class="st6" d="M0,10.9"/>
</g>
</svg>
