<?xml version="1.0" encoding="utf-8"?>
<!-- Generator: Adobe Illustrator 26.3.1, SVG Export Plug-In . SVG Version: 6.00 Build 0)  -->
<svg version="1.1"
	 id="svg2" xmlns:inkscape="http://www.inkscape.org/namespaces/inkscape" xmlns:sodipodi="http://inkscape.sourceforge.net/DTD/sodipodi-0.dtd" xmlns:svg="http://www.w3.org/2000/svg" sodipodi:docname="logo-python-generic.svg" xmlns:rdf="http://www.w3.org/1999/02/22-rdf-syntax-ns#" xmlns:cc="http://web.resource.org/cc/" xmlns:dc="http://purl.org/dc/elements/1.1/"
	 xmlns="http://www.w3.org/2000/svg" xmlns:xlink="http://www.w3.org/1999/xlink" x="0px" y="0px" viewBox="0 0 77.1 78"
	 style="enable-background:new 0 0 77.1 78;" xml:space="preserve">
<style type="text/css">
	.st0{fill:url(#path1948_00000089540466436411843940000008078934679212415675_);}
	.st1{fill:url(#path1950_00000015354390700637172290000012772196949354994304_);}
</style>
<sodipodi:namedview  bordercolor="#666666" borderopacity="1.0" id="base" inkscape:current-layer="svg2" inkscape:cx="243.02499" inkscape:cy="71.887497" inkscape:pageopacity="0.0" inkscape:pageshadow="2" inkscape:window-height="543" inkscape:window-width="791" inkscape:window-x="0" inkscape:window-y="0" inkscape:zoom="1.4340089" pagecolor="#ffffff">
	</sodipodi:namedview>
<linearGradient id="path1948_00000080185117708245491510000000781704864714115763_" gradientUnits="userSpaceOnUse" x1="410.4107" y1="-207.5906" x2="486.07" y2="-272.6852" gradientTransform="matrix(0.5625 0 0 -0.568 -232.7655 -115.6846)">
	<stop  offset="0" style="stop-color:#5A9FD4"/>
	<stop  offset="1" style="stop-color:#306998"/>
</linearGradient>
<path id="path1948" style="fill:url(#path1948_00000080185117708245491510000000781704864714115763_);" d="M38.1,0
	c-3.2,0-6.2,0.3-8.9,0.8c-7.9,1.4-9.3,4.3-9.3,9.7v7.1h18.6v2.4H19.9h-7c-5.4,0-10.1,3.3-11.6,9.4c-1.7,7.1-1.8,11.5,0,18.9
	c1.3,5.5,4.5,9.4,9.9,9.4h6.4v-8.5c0-6.1,5.3-11.6,11.6-11.6h18.6c5.2,0,9.3-4.3,9.3-9.5V10.4c0-5-4.3-8.8-9.3-9.7
	C44.6,0.2,41.3,0,38.1,0z M28.1,5.7c1.9,0,3.5,1.6,3.5,3.6c0,2-1.6,3.5-3.5,3.5c-1.9,0-3.5-1.6-3.5-3.5C24.6,7.3,26.1,5.7,28.1,5.7z
	"/>
<linearGradient id="path1950_00000079450494932403869220000006670481542997984645_" gradientUnits="userSpaceOnUse" x1="515.3203" y1="-312.0833" x2="488.3025" y2="-273.8576" gradientTransform="matrix(0.5625 0 0 -0.568 -232.7655 -115.6846)">
	<stop  offset="0" style="stop-color:#FFD43B"/>
	<stop  offset="1" style="stop-color:#FFE873"/>
</linearGradient>
<path id="path1950" style="fill:url(#path1950_00000079450494932403869220000006670481542997984645_);" d="M59.4,19.9v8.3
	C59.4,34.6,54,40,47.8,40H29.2c-5.1,0-9.3,4.4-9.3,9.5v17.7c0,5,4.4,8,9.3,9.5c5.9,1.7,11.5,2,18.6,0c4.7-1.4,9.3-4.1,9.3-9.5V60
	H38.5v-2.4h18.6h9.3c5.4,0,7.4-3.8,9.3-9.4c1.9-5.8,1.9-11.4,0-18.9c-1.3-5.4-3.9-9.4-9.3-9.4H59.4z M49,64.8c1.9,0,3.5,1.6,3.5,3.5
	c0,2-1.6,3.6-3.5,3.6c-1.9,0-3.5-1.6-3.5-3.6C45.5,66.3,47.1,64.8,49,64.8z"/>
</svg>
