<?xml version="1.0" encoding="utf-8"?>
<!-- Generator: Adobe Illustrator 26.3.1, SVG Export Plug-In . SVG Version: 6.00 Build 0)  -->
<svg version="1.1" id="Layer_1" xmlns="http://www.w3.org/2000/svg" xmlns:xlink="http://www.w3.org/1999/xlink" x="0px" y="0px"
	 viewBox="0 0 80 80" style="enable-background:new 0 0 80 80;" xml:space="preserve">
<style type="text/css">
	.st0{fill:#689EC1;}
	.st1{fill:#6DB56D;}
	.st2{fill:#EB822F;}
</style>
<g id="Layer_2_00000172417298037286058280000007326730796413528967_">
	<g id="Layer_1-2">
		<g>
			<path class="st0" d="M19.8,47.7c-0.1,0-0.2,0-0.3-0.1L0.3,36C0.1,35.9,0,35.7,0,35.5V13.8c0-0.2,0.1-0.4,0.3-0.5
				c0.1-0.1,0.4-0.1,0.6,0l19,11.1c0.1,0.1,0.3,0.3,0.3,0.4l0.2,22.2c0,0.2-0.1,0.4-0.3,0.5C19.9,47.7,19.8,47.7,19.8,47.7z
				 M1.1,35.2l18.1,11L19,25.3L1.1,14.8V35.2z"/>
		</g>
		<g>
			<path class="st0" d="M19.8,47.2c-0.2,0-0.4-0.1-0.4-0.3c-0.1-0.3-0.1-0.6,0.2-0.7l10.7-6.3l0,0l5.6-3.2c0.3-0.1,0.6-0.1,0.7,0.2
				c0.1,0.3,0.1,0.6-0.2,0.7l0,0L20,47.1C20,47.1,19.8,47.2,19.8,47.2z"/>
		</g>
		<g>
			<path class="st0" d="M38.9,80c-0.1,0-0.2,0-0.3-0.1L19.8,68.7c-0.1-0.1-0.3-0.3-0.3-0.4l-0.3-21.1c0-0.2,0.1-0.4,0.3-0.5
				c0.1-0.1,0.4-0.1,0.6,0l19,10.6c0.1,0.1,0.3,0.3,0.3,0.5l0.1,21.6c0,0.2-0.1,0.4-0.3,0.5C39,79.9,38.9,80,38.9,80z M20.5,68
				l17.8,10.6l-0.1-20.4l-17.8-10L20.5,68z"/>
		</g>
		<g>
			<path class="st1" d="M42.2,79.9c-0.1,0-0.1,0-0.3-0.1c-0.1-0.1-0.3-0.3-0.3-0.4l-0.3-21.6c0-0.2,0.1-0.4,0.3-0.5l19-10.9
				c0.1-0.1,0.4-0.1,0.6,0c0.1,0.1,0.3,0.3,0.3,0.5L61,68.4c0,0.2-0.1,0.4-0.3,0.4L42.5,79.9C42.4,79.9,42.4,79.9,42.2,79.9z
				 M42.5,58.1l0.3,20.3L59.9,68l0.4-20.2L42.5,58.1z"/>
		</g>
		<g>
			<path class="st1" d="M60.7,46.9c-0.1,0-0.2,0-0.3-0.1l-10.8-6.2h-0.1L44,37.4c-0.3-0.1-0.4-0.5-0.2-0.7c0.1-0.3,0.5-0.4,0.7-0.2
				l16.4,9.4c0.3,0.1,0.4,0.5,0.2,0.7C61,46.8,60.8,46.9,60.7,46.9z"/>
		</g>
		<g>
			<path class="st1" d="M61,47.1c-0.1,0-0.2,0-0.3-0.1c-0.1-0.1-0.3-0.3-0.3-0.4l-0.3-21.7c0-0.2,0.1-0.4,0.3-0.5l18.7-10.9
				c0.1-0.1,0.4-0.1,0.6,0c0.1,0.1,0.3,0.3,0.3,0.5v21.7c0,0.2-0.1,0.4-0.3,0.4L61.3,47C61.2,47.1,61.2,47.1,61,47.1z M61.3,25.1
				l0.2,20.5l17.3-10.3V14.8L61.3,25.1z"/>
		</g>
		<g>
			<path class="st2" d="M59.6,22.2c-0.1,0-0.2,0-0.3-0.1L40.5,11.5c-0.1-0.1-0.3-0.3-0.3-0.5c0-0.2,0.1-0.4,0.3-0.5L59.6,0.2
				c0.1-0.1,0.4-0.1,0.5,0l18.4,10c0.1,0.1,0.3,0.3,0.3,0.4c0,0.2-0.1,0.4-0.3,0.5L59.9,22.2C59.8,22.2,59.7,22.2,59.6,22.2z
				 M41.9,11.1l17.7,10.1l17.6-10.5L59.9,1.3L41.9,11.1z"/>
		</g>
		<g>
			<path class="st2" d="M40.4,30.7c-0.3,0-0.5-0.2-0.6-0.5v-6.4c0,0,0,0,0-0.1l-0.1-12.4c0-0.3,0.2-0.6,0.5-0.6l0,0
				c0.3,0,0.5,0.2,0.6,0.5l0.1,18.9C40.9,30.4,40.7,30.7,40.4,30.7L40.4,30.7z"/>
		</g>
		<g>
			<path class="st2" d="M21.5,22.5c-0.1,0-0.2,0-0.3-0.1L2.4,11.7c-0.1-0.1-0.3-0.3-0.3-0.5c0-0.2,0.1-0.4,0.3-0.5L21.5,0
				c0.2,0,0.4,0,0.6,0.1l18.4,10.5c0.1,0.1,0.3,0.3,0.3,0.4c0,0.2-0.1,0.4-0.3,0.5L21.8,22.4C21.7,22.5,21.7,22.5,21.5,22.5z
				 M3.9,11.3l17.7,10.1l17.7-10.3L21.8,1.1L3.9,11.3z"/>
		</g>
	</g>
</g>
</svg>
