<?xml version="1.0" encoding="utf-8"?>
<!-- Generator: Adobe Illustrator 26.3.1, SVG Export Plug-In . SVG Version: 6.00 Build 0)  -->
<svg version="1.1" id="Layer_1" xmlns="http://www.w3.org/2000/svg" xmlns:xlink="http://www.w3.org/1999/xlink" x="0px" y="0px"
	 viewBox="0 0 78 77.9" style="enable-background:new 0 0 78 77.9;" xml:space="preserve">
<style type="text/css">
	.st0{fill:#6DB33F;}
</style>
<g id="Layer_2_00000179608594420376505780000002364708063090352047_">
	<g id="logos">
		<path class="st0" d="M71,4.6c-1.1,2.6-2.5,5.1-4.2,7.3C51.9-3.6,27.3-4,11.9,10.9s-15.9,39.5-0.9,55c0.5,0.5,1,1.1,1.6,1.6
			l1.4,1.3c16.4,13.8,40.9,11.7,54.7-4.7c5.3-6.3,8.5-14.1,9.1-22.3C78.9,32,75.9,19.5,71,4.6z M18.1,67.8c-1.2,1.4-3.2,1.6-4.7,0.5
			c-1.4-1.2-1.6-3.2-0.5-4.7c1.2-1.4,3.2-1.6,4.6-0.5C19,64.3,19.3,66.4,18.1,67.8z M70.8,56.2c-9.5,12.8-30.1,8.4-43.2,9.1
			c0,0-2.3,0.2-4.7,0.5c0,0,0.9-0.4,2-0.8c9.2-3.2,13.6-3.9,19.2-6.7c10.5-5.4,21-17.2,23.1-29.4C63.2,40.5,51,50.6,40,54.7
			c-7.6,2.8-21.3,5.5-21.3,5.5l-0.6-0.3c-9.3-4.6-9.6-24.8,7.4-31.3c7.5-2.9,14.5-1.3,22.6-3.2c8.6-2,18.5-8.4,22.5-16.9
			C75.1,22.1,80.6,43.2,70.8,56.2z"/>
	</g>
</g>
</svg>
