<?xml version="1.0" encoding="utf-8"?>
<!-- Generator: Adobe Illustrator 26.3.1, SVG Export Plug-In . SVG Version: 6.00 Build 0)  -->
<svg version="1.1" id="Layer_1" xmlns:svg="http://www.w3.org/2000/svg"
	 xmlns="http://www.w3.org/2000/svg" xmlns:xlink="http://www.w3.org/1999/xlink" x="0px" y="0px" viewBox="0 0 75.4 80"
	 style="enable-background:new 0 0 75.4 80;" xml:space="preserve">
<style type="text/css">
	.st0{fill:#5C94B9;}
	.st1{fill:#62AC62;}
	.st2{fill:#E8762B;}
	.st3{fill-rule:evenodd;clip-rule:evenodd;fill:#C4C4C4;}
	.st4{fill-rule:evenodd;clip-rule:evenodd;fill:#5C94B9;}
	.st5{fill-rule:evenodd;clip-rule:evenodd;fill:#E8762B;}
	.st6{fill-rule:evenodd;clip-rule:evenodd;fill:#62AC62;}
</style>
<g>
	<g id="svg_9">
		
			<rect id="svg_1" x="20.3" y="25.5" transform="matrix(0.865 -0.5017 0.5017 0.865 -9.5369 22.3992)" class="st0" width="33.2" height="6.9"/>
		<polygon id="svg_2" class="st1" points="22.9,43.7 51.6,60.1 48.1,66.1 19.5,49.7 		"/>
		<polygon id="svg_3" class="st2" points="58.2,23.2 58.2,56.3 65.1,56.2 65.1,23.2 		"/>
		<path id="svg_4" class="st3" d="M20.7,53.4c6.6-3.8,8.9-12.3,5.1-18.8c-3.8-6.6-12.2-8.8-18.8-5S-2,41.9,1.9,48.4
			C5.7,55,14.1,57.2,20.7,53.4z M17.3,47.4c3.3-1.9,4.4-6.1,2.5-9.4c-1.9-3.3-6.1-4.4-9.4-2.5c-3.3,1.9-4.4,6.1-2.5,9.4
			C9.7,48.3,14,49.4,17.3,47.4z"/>
		<path id="svg_5" class="st3" d="M68.5,25.7c6.6-3.8,8.9-12.3,5.1-18.8c-3.8-6.6-12.2-8.8-18.8-5s-8.9,12.3-5.1,18.8
			C53.5,27.3,61.9,29.5,68.5,25.7z M65.1,19.7c3.3-1.9,4.4-6.1,2.5-9.4c-1.9-3.3-6.1-4.4-9.4-2.5c-3.3,1.9-4.4,6.1-2.5,9.4
			c0.5,0.8,1.1,1.5,1.7,2C59.5,20.9,62.6,21.2,65.1,19.7z"/>
		<path id="svg_6" class="st4" d="M68.5,25.7c6.6-3.8,8.9-12.3,5.1-18.8c-3.8-6.6-12.2-8.8-18.8-5c-6.6,3.8-8.9,12.3-5.1,18.8
			C53.5,27.3,61.9,29.5,68.5,25.7z M65.1,19.7c3.3-1.9,4.4-6.1,2.5-9.4c-1.9-3.3-6.1-4.4-9.4-2.5c-3.3,1.9-4.4,6.1-2.5,9.4
			c0.5,0.8,1.1,1.5,1.7,2C59.5,20.9,62.6,21.2,65.1,19.7z"/>
		<path id="svg_7" class="st5" d="M53.9,78.2c6.6,3.8,15,1.5,18.9-5.1c3.8-6.6,1.6-15-5-18.8c-6.6-3.8-15-1.5-18.9,5.1
			C45,66,47.3,74.4,53.9,78.2z M57.3,72.2c3.3,1.9,7.5,0.7,9.4-2.6c1.9-3.3,0.8-7.5-2.5-9.4c-3.3-1.9-7.5-0.7-9.4,2.6
			C52.9,66.1,54,70.3,57.3,72.2z"/>
		<path id="svg_8" class="st6" d="M20.7,53.3c6.6-3.8,8.9-12.3,5.1-18.8c-3.8-6.6-12.2-8.8-18.8-5C0.3,33.3-2,41.8,1.8,48.3
			C5.7,54.9,14.1,57.1,20.7,53.3z M20.3,43.7c0.7-1.8,0.6-4-0.5-5.8c-1-1.7-2.7-2.9-4.5-3.3c-1.6-0.4-3.4-0.1-4.9,0.8
			c-1.7,1-2.8,2.5-3.2,4.2c-0.4,1.7-0.2,3.5,0.7,5.2c1.9,3.3,6.1,4.4,9.4,2.5C18.7,46.5,19.7,45.2,20.3,43.7z"/>
	</g>
</g>
</svg>
