<?xml version="1.0" encoding="utf-8"?>
<!-- Generator: Adobe Illustrator 26.3.1, SVG Export Plug-In . SVG Version: 6.00 Build 0)  -->
<svg version="1.1" id="Layer_1" xmlns="http://www.w3.org/2000/svg" xmlns:xlink="http://www.w3.org/1999/xlink" x="0px" y="0px"
	 viewBox="0 0 74.1 80" style="enable-background:new 0 0 74.1 80;" xml:space="preserve">
<style type="text/css">
	.st0{fill:#854AF6;}
	.st1{fill:#FF6447;}
	.st2{fill:#00BBE6;}
</style>
<path class="st0" d="M0,23.5c0-4.3,3.5-7.8,7.8-7.8h29.1c4.3,0,7.8,3.5,7.8,7.8v29.1c0,4.3-3.5,7.8-7.8,7.8H7.8
	c-4.3,0-7.8-3.5-7.8-7.8V23.5z"/>
<path class="st1" d="M67.1,23.5c0,13-10.5,23.5-23.5,23.5S20.1,36.5,20.1,23.5S30.7,0,43.6,0S67.1,10.5,67.1,23.5z"/>
<path class="st2" d="M70.8,50.2c4.4,2.6,4.4,9,0,11.6L41.5,79.1c-4.5,2.6-10.1-0.6-10.1-5.8V38.6c0-5.2,5.7-8.4,10.1-5.8L70.8,50.2
	L70.8,50.2z"/>
</svg>
