<svg xmlns="http://www.w3.org/2000/svg" viewBox="0 0 74.1 80" style="enable-background:new 0 0 74.1 80" xml:space="preserve">
    <path d="M0 23.5c0-4.3 3.5-7.8 7.8-7.8h29.1c4.3 0 7.8 3.5 7.8 7.8v29.1c0 4.3-3.5 7.8-7.8 7.8H7.8c-4.3 0-7.8-3.5-7.8-7.8V23.5z" style="fill:#854af6"/>
    <path d="M67.1 23.5c0 13-10.5 23.5-23.5 23.5S20.1 36.5 20.1 23.5 30.7 0 43.6 0s23.5 10.5 23.5 23.5z" style="fill:#ff6447"/>
    <path d="M70.8 50.2c4.4 2.6 4.4 9 0 11.6L41.5 79.1c-4.5 2.6-10.1-.6-10.1-5.8V38.6c0-5.2 5.7-8.4 10.1-5.8l29.3 17.4z" style="fill:#00bbe6"/>
</svg>
