<?xml version="1.0" encoding="utf-8"?>
<!-- Generator: Adobe Illustrator 26.3.1, SVG Export Plug-In . SVG Version: 6.00 Build 0)  -->
<svg version="1.1" id="Layer_1" xmlns="http://www.w3.org/2000/svg" xmlns:xlink="http://www.w3.org/1999/xlink" x="0px" y="0px"
	 viewBox="0 0 78 78" style="enable-background:new 0 0 78 78;" xml:space="preserve">
<style type="text/css">
	.st0{fill:#1976D2;}
	.st1{fill:#FFFFFF;}
</style>
<rect class="st0" width="78" height="78"/>
<polygon class="st1" points="46.6,34.7 17.8,34.7 17.8,41.7 28.1,41.7 28.1,73.7 36.3,73.7 36.3,41.7 46.6,41.7 "/>
<path class="st1" d="M71.9,43.5c0,0-3.9-2.6-8.2-2.6c-4.4,0-6,2.1-6,4.3c0,5.7,16,5.2,16,16.7c0,17.8-24.4,9.9-24.4,9.9v-8.5
	c0,0,4.7,3.5,10.3,3.5c5.6,0,5.4-3.7,5.4-4.2c0-5.3-15.8-5.3-15.8-17.1c0-16,23.1-9.7,23.1-9.7L71.9,43.5z"/>
</svg>
