<svg width="580" height="470" viewBox="0 0 580 470" fill="none" xmlns="http://www.w3.org/2000/svg">
<g clip-path="url(#clip0_1_263)">
<path d="M296.5 252.5L328 247L367 252.5L394 265.5L416.5 280L439.5 296L462 313L474 321L483.5 326.5L491 331L492 336V342.5L489 348L484.5 353L478 355.5H469L462 354L454 350.5L443 345.5L434.5 341L424.5 336L418.5 332.5L414 330L410.5 327L409.5 327.5V331.5L411.5 343L412.5 353V362.5L408 394L404.5 417L403.5 421L402.5 425L401 429L399 433.5L397 437.5L396 440.5L393.5 444.5L391.5 447.5L392.5 448.5L394 449.5L396.5 451.5L399.5 454.5L403 459L405 462.5L405.5 466L405 469L403.5 471.5L401.5 473L398.5 474H375.5H355.5L352.5 473.5L350 471.5L348 468.5L347.5 465V456.5V450L346.5 436V428L345.5 426L343 427L336 427.5H327.5L319 427L313.5 426L313 427L312.5 431.5L312 440.5L311.5 452.5V467.5L310.5 469.5L309 471L306.5 473L304 473.5H285.5H260L257 472.5L255 471L254 468V465L255 461L257 457L260 454L264 450.5L268.5 448L267 446.5L265 443.5L262.5 437.5L259.5 431L256 423.5L253.5 415.5L251.5 409.5L250 404L248.5 395L247.5 388.5L246.5 380.5L246 372V363L246.5 351L247.5 343L248.5 334L246 335L243 337L239.5 339L233.5 342.5L229.5 344.5L227 345.5L221 348L215.5 350.5L210 352.5L204.5 354L200 355.5L195.5 356.5L191 357.5H188H185.5L183.5 357L181.5 355.5L179.5 354L177.5 352L175.5 349L174 346.188L173 343.5V339.5L174 334.5L178 330L186 324.5L191.5 321L198.5 316.5L205 312.5L212.5 307.5L218.5 303L224.5 298.5L232 292.5L238 287.5L244.5 281.5L251 276L257.5 270L263.5 265.5L271 261L296.5 252.5Z" fill="#952F92"/>
<path d="M385.816 361.153L384.522 359.831L383.03 360.778L381.96 363.038L380.521 367.217L377.104 377.141L375.485 381.842L376.339 383.597L378.216 387.457L380.274 390.795L382.934 394.924L386.977 400.114L391.021 405.304L395.334 409.71L399.225 412.803L403.467 415.724L407.708 418.645L412.39 421.134L416.641 423.182L422.806 425.597L427.588 426.951L432.198 427.954L437.159 428.786L442.731 429.536L449.005 429.944L454.937 429.649L462.271 428.669L468.563 427.33L473.111 425.974L478.36 424.276L482.387 422.741L486.593 420.684L493.344 417.166L498.081 414.415L502.036 411.395L506.171 407.853L509.515 404.914L512.778 401.364L515.871 397.462L518.793 393.21L521.454 388.868L523.324 385.13L525.104 381.653L526.183 378.519L528.881 370.684L530.248 365.02L530.986 361.184L531.634 357.61L531.841 354.468L531.797 350.362L531.744 347.131L531.601 344.16L531.457 341.189L530.973 337.517L530.631 336.815L530.281 336.987L529.4 337.852L527.368 340.366L525.777 342.447L523.835 344.7L522.253 345.908L519.269 347.801L516.024 349.605L512.258 351.23L508.932 352.422L505.085 353.434L502.811 354.112L498.101 354.243L493.742 354.203L488.601 353.893L483.119 352.882L478.508 351.879L474.77 350.883L472.334 350.337L468.766 349.693L464.146 349.563L459.266 349.343L454.116 349.907L449.748 350.74L445.029 351.744L439.519 353.352L434.621 354.879L431.295 356.071L427.969 357.263L424.904 358.545L421.839 359.826L419.215 360.675L415.278 361.949L411.691 363.051L407.934 363.802L402.784 364.366L398.947 364.505L394.767 363.943L391.721 363.478L388.332 362.311L385.816 361.153Z" fill="#952F92"/>
<path d="M484.125 414.5L492.25 417.742L493.34 417.18L494.063 416.75L496.082 415.59L498.141 414.375L500.953 412.242L502.328 411.164L503.719 409.973L506.516 407.57L509.5 404.969L512.547 401.641L515.781 397.609L518.844 393.125L521.453 388.891L523.922 384.016L525.137 381.652L525.66 380.055L527.344 375.164L528.891 370.668L529.633 367.594L530.258 365.019L530.344 364.516L531.016 361.113L531.641 357.629L531.852 354.457L531.828 353L531.719 346.672L531.469 341.219L530.98 337.527L530.629 336.809L530.234 337.016L529.375 337.875L527.297 340.422L523.563 344.922L520.187 347.25L514.937 350.062L508.703 352.453L503.187 354L500.563 354.156L496.609 354.234L488.641 353.906L483.453 352.953L472.984 350.437L468.797 349.656L464.063 349.297L459.313 349.297L457.25 349.5L453.375 350.062L456.437 351.125L459.875 352L457.812 354.75L455.375 357.375L451.875 361.25L457.25 362.125L464.375 363.375L468 364.125L468 367.875L467 374.437L464.063 380.812L459.875 386.625L466.625 389.75L477.875 392.75L475.875 396.125L473.125 401.25L471.25 405.062L469.438 408.937L472.813 410.812L477.875 412.437L484.125 414.5Z" fill="#D3BDE7"/>
<path d="M350.5 472.5L349 471L348 469.5L347.5 468.5V460.5V450.5L348 450L349 449.5L350.5 449L353 448.5L358 447.5C358 447.5 361.337 446.794 363.5 446.5C365.637 446.21 369 446 369 446H376H380.5C380.5 446 384.487 446.095 387 446.5C388.777 446.787 389.91 446.655 391.5 447.5C392.604 448.087 394 449.5 394 449.5L396.5 451.5L399.5 454.5L402 457.5C402 457.5 403.393 459.23 404 460.5C404.533 461.614 405 463.5 405 463.5C405 463.5 405.577 465.621 405.5 467C405.445 467.994 405 470.5 405 470.5L404 472.5L402 474L400.5 474.5H394H371H355L352.5 474L350.5 472.5Z" fill="#3C1048"/>
<path d="M310 470L311.5 467.5V460.5V450.5L311 450L310 449.5L308.5 449L306 448.5L301 447.5L295.5 446.5L290 446H283L277 446.5L273 447L269 448L265.5 449.5L262.5 451.5L259.5 454.5L257 457.5C257 457.5 255.608 459.23 255 460.5C254.467 461.614 254 463.5 254 463.5C254 463.5 253.423 465.621 253.5 467C253.555 467.994 254 469.5 254 469.5L255 471.5L257 473L258.5 473.5H265H288H304L306.5 473L308.5 471.5L310 470Z" fill="#3C1048"/>
<path d="M183.5 204.5L165 194.5L168 191.5L171 188.5L175 183.5L179 178.5L183 172.5L187 164.5L190 157.5L193 151L196 145.5L198 140.5L200 135.5L204 129L206.5 125L204.5 120L202.5 112.5L200 102.5L198.5 92L197.5 82.5L197 75V65.5L197.5 54.5L198.5 43L199.5 36L200.5 30L202 23L204.5 16L207 9L209 4.5L212 1.5L215 0.5H219L222.5 1.5L230 4.5L239 9.5L248 15.5L257.5 22.5L265 28.5L272 34.5L278 40.5L284 46.5L290 53.5L293.5 57L298 55.5L303.5 54.5L311 53L317 52.5H327H340.5L350 53.5L357 55L365.5 57.5L369 54L372.5 50L378 44L384 37.5L391 30.5L399.5 23.5L407 17.5L415.5 11.5L425.5 5.5L434.5 2L440 0H444L447.5 1.5L450.5 5.5L453.5 12.5L456.5 21.5L458.5 33L460.5 46L461.5 56.5V71.5L460.5 84L460 90L459.5 93.5L458 102L456 112L454 119.5L451 126L454 129.5L457 134.5L461 143L465.5 153L472 167L478.5 178L486.5 188L493 194.5L485 198.5L476 204L468.5 209.5L442.5 225.5L411.5 240L378 251L347.5 259H311.5L287.5 251L273 245.5L236 231L196 211.5L183.5 204.5Z" fill="#943092"/>
<path d="M179 220L169 211.5L175 207.5C175 207.5 180.962 204.679 185 203.5C189.007 202.33 191.366 202.076 195.5 201.5C200.35 200.825 208 200.5 208 200.5C208 200.5 220.515 199.917 228.5 200.5C234.587 200.944 244 202.5 244 202.5L261.5 206L279 211L297 216.5L309.5 221.5L318 226L327.5 230H330L337.5 226.5L347.5 222L359.5 217.5L374.5 212.5L392 207.5L409.5 203.5L423.5 202L440 201C440 201 449.463 200.56 455.5 201C462.8 201.532 474 204 474 204C474 204 479.702 205.312 483 207C485.507 208.283 489 211 489 211L478 220L463.5 231C463.5 231 453.085 238.417 446 242.5C436.086 248.213 419.5 255 419.5 255L405.5 261C405.5 261 398.301 264.35 393.5 266C387.588 268.032 378 270 378 270L365 273L369 282.5L373 293.5C373 293.5 376.226 303.018 377.5 309C378.771 314.969 379.5 324.5 379.5 324.5C379.5 324.5 379.96 331.505 380 336C380.051 341.666 379.5 350.5 379.5 350.5L378.5 356.5L376.5 363L373 371C373 371 369.197 377.613 366 381C363.132 384.039 357.5 387.5 357.5 387.5C357.5 387.5 350.722 391.202 346 392.5C342.564 393.444 337 394 337 394H324.5L316.5 393L310.5 391.5L305 389L299.5 386L294.5 382.5L291 378.5L287.5 374L285 370.5L283 366C283 366 280.869 360.292 280 356.5C279.031 352.274 278.853 349.627 278.5 345.5C277.818 337.521 279 325 279 325C279 325 279.187 321.33 279.5 319C279.897 316.04 280.451 314.403 281 311.5C281.713 307.73 283.5 302 283.5 302L287.5 288L291.5 277.5L293.5 272.5L285.5 271L275.5 268.5L254 262C254 262 240.107 256.609 231.5 252.5C220.221 247.115 214.103 243.616 203.5 237C193.62 230.835 179 220 179 220Z" fill="#D3BDE7"/>
<path d="M333 229V238.652C333.298 240.032 334.061 242.044 335.378 243.683C336.716 245.348 338.493 246.5 341 246.5C343.824 246.5 345.433 245.491 346.402 244.439C347.473 243.278 347.933 241.87 348.025 241.091C348.251 239.171 349.99 237.799 351.909 238.024C353.829 238.25 355.202 239.99 354.976 241.909C354.734 243.964 353.744 246.805 351.548 249.186C349.251 251.676 345.776 253.5 341 253.5C335.907 253.5 332.267 250.986 329.922 248.067C329.777 247.887 329.636 247.704 329.499 247.52C329.363 247.704 329.223 247.887 329.078 248.067C326.733 250.986 323.093 253.5 318 253.5C313.224 253.5 309.749 251.676 307.452 249.186C305.257 246.805 304.266 243.964 304.025 241.909C303.799 239.99 305.171 238.25 307.091 238.024C309.011 237.799 310.75 239.171 310.976 241.091C311.067 241.87 311.527 243.278 312.598 244.439C313.568 245.491 315.176 246.5 318 246.5C320.507 246.5 322.284 245.348 323.622 243.683C324.939 242.044 325.702 240.032 326 238.652V229H333Z" fill="#41104B"/>
<path d="M349 216C349 225 334 231 329.5 232C325.5 231.5 309.5 223.5 309.5 216C309.5 207 322.667 206.333 329.5 206.5C336 206.5 349 206.5 349 216Z" fill="#DD72B8"/>
<circle cx="266.5" cy="177" r="23" fill="#400E49"/>
<circle cx="273" cy="171.5" r="8.5" fill="#FBFEF9"/>
<circle cx="256" cy="187.5" r="4.5" fill="#FBFEF9"/>
<circle cx="23" cy="23" r="23" transform="matrix(-1 0 0 1 415.5 154)" fill="#3D0F48"/>
<circle cx="8.5" cy="8.5" r="8.5" transform="matrix(-1 0 0 1 394.5 163)" fill="#FBFEF9"/>
<circle cx="4.5" cy="4.5" r="4.5" transform="matrix(-1 0 0 1 407.5 183)" fill="#FBFEF9"/>
<path d="M258.5 71.5L267 67V65.5L261.5 57L255 48.5L242 34.5L233 27.5L225.5 23L223 24L221 27.5L219 32.5L218 38.5L216.5 46L216 53V69L216.5 80.5L218 93.5L221 103L222 103.5L225 99.5L230 94L237 87L243 81.5L250 76.5L258.5 71.5Z" fill="#F5A6D5"/>
<path d="M287 50L293.5 57L288.5 58.5L283.5 60L277.5 62L271.5 64.5L267 67L266.5 66L262.5 60L257.5 52.5L252 46L244 37.5L237.5 31.5L233.5 28.5L228.5 25.5L223.5 22.5C223.5 22.5 220.285 21.0205 218 21C216.812 20.9894 215 21.5 215 21.5L212.5 22.5L208.5 25.5L203 31L199.5 36L200.5 30L201.5 25L202.5 21.5L205 14.5L207 9L209 4.5L212 1.5L215 0.5H217H219L222.5 1.5L226.5 3L231 5L235.5 7.5L239.5 10L246 14L255 20.5L262.5 26.5L270.5 33L274 36.5L282.5 45L287 50Z" fill="#3C114C"/>
<path d="M399.5 71.5L391 67V65.5L396.5 57L403 48.5L416 34.5L425 27.5L432.5 23L435 24L437 27.5L439 32.5L440 38.5L441.5 46L442 53V69L441.5 80.5L440 93.5L437 103L436 103.5L433 99.5L428 94L421 87L415 81.5L408 76.5L399.5 71.5Z" fill="#F5A6D5"/>
<path d="M371 50L364.5 57L369.5 58.5L374.5 60L380.5 62L386.5 64.5L391 67L391.5 66L395.5 60L400.5 52.5L406 46L414 37.5L420.5 31.5L424.5 28.5L429.5 25.5L434.5 22.5C434.5 22.5 437.715 21.0205 440 21C441.188 20.9894 443 21.5 443 21.5L445.5 22.5L449.5 25.5L455 31L458.5 36L457.5 30L456.5 25L455.5 21.5L453 14.5L451 9L449 4.5L446 1.5L443 0.5H441H439L435.5 1.5L431.5 3L427 5L422.5 7.5L418.5 10L412 14L403 20.5L395.5 26.5L387.5 33L384 36.5L375.5 45L371 50Z" fill="#3C114C"/>
<path d="M228 341.5L230.5 344L227 345.5L222.5 347.5L215.5 350.5L208 353L200.5 355L192.5 357L189 357.5L184.5 357L180 355L177 352L174 347.5L172.5 342.5V339L173.5 336L174.5 333.5L176.5 331L178 329.5L179.5 328.5L182.5 326.5L186 324.5L190 322L195 318.5L199.5 316L203.5 313.5L207.5 311L212 308L218 304V304.5C218 304.5 217.592 307.234 217.5 309C217.419 310.56 217.312 311.449 217.5 313C217.694 314.598 218 316.5 218 316.5L219 321.5L220 326L221.5 330L223 333.5L225 337.5L228 341.5Z" fill="#401146"/>
<rect x="111.001" y="240.92" width="10.0676" height="34.7637" transform="rotate(-123.5 111.001 240.92)" fill="#93318F"/>
<path d="M126.181 230.873L120.624 222.478L130.516 215.812C130.516 215.812 132.738 216.772 135.219 218.797C136.902 220.17 138.906 222.478 138.906 222.478L126.181 230.873Z" fill="#29BBB8"/>
<path d="M122.5 264C122.5 264 120.366 261.314 119.5 259.5C118.594 257.602 117.5 254.5 117.5 254.5L152.158 231.542L157.715 239.937L122.5 264Z" fill="#29BBB8"/>
<path d="M139.187 252.531L133.407 243.953L152.158 231.541L157.715 239.937L139.187 252.531Z" fill="#93318F"/>
<rect x="132.128" y="288.252" width="10.0676" height="45.2921" transform="rotate(-123.5 132.128 288.252)" fill="#93318F"/>
<path d="M151.254 275.593L145.698 267.198L164.687 254.563C164.687 254.563 166.496 257.455 167.312 259.469C168.03 261.24 168.719 264.156 168.719 264.156L151.254 275.593Z" fill="#29BBB8"/>
<path d="M190.5 312.5L218 358.625L199.25 368.875L170.5 324.625L156.312 334.094L148.625 319.781L151.469 317.844L168.344 306.75L195.25 290.75L206 302.531L190.5 312.5Z" fill="#16898C"/>
<ellipse cx="214.512" cy="373.242" rx="17.1677" ry="15.717" transform="rotate(-26 214.512 373.242)" fill="#29BBB8"/>
<path d="M122.375 300.188L130.5 309.75L149.5 297.5L147.5 295.5L144 292.5L139 287.5L134 282L130.5 277L127 271.5L123.5 266C123.5 266 120.386 261.689 119 258.75C118.025 256.683 117 253.5 117 253.5L115 246.5C115 246.5 113.972 243.176 113.5 241C112.956 238.49 112.5 234.5 112.5 234.5L111.5 228.5L111 223.5C111 223.5 110.63 219.569 110.5 218C110.242 214.886 110.5 211.5 110.5 211.5V207C110.5 207 110.54 205.912 111 205.5C111.742 204.836 113.5 206 113.5 206L119 209L125 212.5L130 215.5L134.5 218.5L139 222.5L144 227.5L148 231.5L153 236.5L157 242.5L161 249L165 255L167.5 260.5L170 269L172.5 277L174 281.5L194 270L192.5 266.5L190 261L187 254.5L184 248.5L180 240.5L174.5 232L169 223.5L162 214.5L152.5 205L142 196L133 189.5L124 185L116 181.5L113.406 180V178.125L113.75 176.625V166.625L113.188 157.625L111.281 146.875L109.312 137.906L105.344 128.781L98.4062 113.719L90.125 99.8438L82.8438 87.9062L74.9688 77.4688L66.7812 67.625L58.1562 58.625L50.4062 51.5625L40.2812 44L30.8125 37.4688L20.625 31.9375L13.6562 28.4062L7.3125 25.625L2.84375 24.3125L19.7812 51.3438L25.0625 60.5312L29.7812 68.4062L34 75.3125L38.75 80.4375L44.9062 85.4688L50.9688 90.3125L59.1562 98.1562L67.625 108.469L73.6875 118.25L78.75 126.875L82.9375 136.312L86.6875 145.5L89.6875 157.312L91.0625 166.25L91.5 176.5L90.5 186L89 198.375C89 198.375 88.0423 207.428 88 213.25C87.9525 219.778 87.9381 223.496 89 229.938C89.7597 234.546 91.8125 241.562 91.8125 241.562L94 248.188L98.0625 258.75L105.938 274.875L113.812 288L122.375 300.188Z" fill="#943092"/>
<path d="M91 187C90.6056 190.541 89.5 196 89.5 196L83.5 193.5L77.5 190L69.5 185L62 179.5L54.5 173L45 162.5L37 152L28 138L22 126.5L16.5 115.5L11.5 104L8 94.5C8 94.5 5.90806 88.7831 5 85C4.21327 81.7224 2.8125 75 2.8125 75L1.5 66.5C1.5 66.5 0.893095 61.3477 0.5 58C0.157671 55.0846 0 50.5 0 50.5V41.5C0 38.7594 0.5 34.5 0.5 34.5L2 27L3 24.5L14.5 42.5L22 55L29 67L34 75L36 77.5V80.5L36.5 86.5L37.5 93.5L40 102L43.5 112.5L49 124.5L55 134.5L62 143.5L67.5 150.5L75 158L82.5 163.5L91 168.5C91 168.5 91.5 173.065 91.5 176C91.5 178.935 91.4759 182.726 91 187Z" fill="#2FBBBD"/>
<path d="M156.438 333.875L155.594 337.125L132.938 350.75L127.875 337.125V332L129.125 329.875V327.125L125.25 318.062V315.375L125.875 311.938L164 287.5L196.812 267.812L201.375 268.375L212.562 278.438L215.938 278.75L229.5 291.812L208.5 305.062L206.125 304.062L195.125 290.875L148.719 319.656L156.438 333.875Z" fill="#29BBB8"/>
<ellipse cx="187.007" cy="342.514" rx="14.5" ry="15.9494" transform="rotate(-27 187.007 342.514)" fill="#401146"/>
<path d="M439.347 341.5L436.847 344L440.347 345.5L444.847 347.5L451.847 350.5L459.347 353L466.847 355L474.847 357L478.347 357.5L482.847 357L487.347 355L490.347 352L493.347 347.5L494.847 342.5V339L493.847 336L492.847 333.5L490.847 331L489.347 329.5L487.847 328.5L484.847 326.5L481.347 324.5L477.347 322L472.347 318.5L467.847 316L463.847 313.5L459.847 311L455.347 308L449.347 304V304.5C449.347 304.5 449.755 307.234 449.847 309C449.928 310.56 450.035 311.449 449.847 313C449.653 314.598 449.347 316.5 449.347 316.5L448.347 321.5L447.347 326L445.847 330L444.347 333.5L442.347 337.5L439.347 341.5Z" fill="#401146"/>
<ellipse cx="14.5" cy="15.9494" rx="14.5" ry="15.9494" transform="matrix(-0.891007 -0.453991 -0.453991 0.891007 500.5 334.886)" fill="#401146"/>
<path d="M481.312 406.25L498.312 415L508.281 409.688L514.25 406.531L521.969 401.719L528.844 397.625L535.875 392.656L543.906 386.062L549.719 380.156L556.125 372.938L562 364.594L566.844 356.281L571.938 344.906L574.344 338.062L576.688 330.25L578.562 321.844L579.594 313.281L579.875 304.062V254.938V250.719L578.469 248.688L577.25 247.531L575.531 246.875L573.062 246.656L566.688 246.438L558 245.562L550.312 244.625L541.938 242.812L532.875 240.562L526.062 238.219L518.875 235.062L511.562 231.688L502.312 226.875L498.125 224.812L496.875 225.312L491.438 228.438L484.75 232.5L476.062 236.188L466.688 239.5L454.5 242.812L443.75 245.375L438 246.281L434.562 246.656L429.812 247L424.406 247.25L422.25 247.469L420.781 247.75L418.719 248.844L417.5 251.125V257.438V280.25L417.875 303.625L418.438 314.125L420.062 326.312L421.938 335.562L425.562 345.625L430 355.688L434.062 363.438L439.25 371.125L443.812 377.25L449.375 382.875L454.438 387.375L462.938 394.5L472.812 400.875L481.312 406.25Z" fill="#3B1347"/>
<path d="M484.697 390.433L498.386 397.479L506.413 393.201L511.219 390.66L517.434 386.785L522.97 383.488L528.632 379.487L535.099 374.178L539.78 369.422L544.938 363.609L549.669 356.89L553.569 349.197L557.671 340.037L559.609 334.526L561.496 328.235L563.006 321.466L563.836 314.572L564.062 307.148V266.591V263.194L562.93 261.558L561.949 260.627L560.565 260.099L558.577 259.923L553.443 259.747L546.448 259.042L540.258 258.287L533.514 256.828L526.216 255.016L520.731 253.129L514.943 250.587L509.055 247.869L501.606 243.994L498.235 242.333L497.228 242.736L492.85 245.252L487.465 248.524L480.469 251.493L472.92 254.16L463.106 256.828L454.45 258.891L449.82 259.621L447.052 259.923L443.227 260.2L438.874 260.401L437.137 260.577L435.955 260.804L434.294 261.684L433.312 263.521V268.604V287.974L433.614 306.796L434.067 315.251L435.376 325.065L436.886 332.513L439.805 340.616L443.378 348.719L446.649 355.959L450.826 362.149L454.5 367.081L458.979 371.611L463.056 375.234L469.9 380.972L477.852 386.105L484.697 390.433Z" fill="#D5BEEA"/>
<path d="M498.125 271.5C506.962 271.5 514.125 278.663 514.125 287.5C514.125 289.905 513.593 292.185 512.643 294.231L523.267 304.855C525.63 303.477 528.379 302.688 531.312 302.688C540.149 302.688 547.312 309.851 547.312 318.688C547.312 327.524 540.149 334.688 531.312 334.688C528.216 334.688 525.325 333.807 522.876 332.284L512.439 342.721C513.518 344.874 514.125 347.303 514.125 349.875C514.125 358.712 506.962 365.875 498.125 365.875C489.288 365.875 482.125 358.712 482.125 349.875C482.125 347.27 482.747 344.811 483.852 342.638L473.824 332.61C471.496 333.932 468.805 334.688 465.938 334.688C457.101 334.688 449.938 327.524 449.938 318.688C449.938 309.851 457.101 302.688 465.938 302.688C468.903 302.688 471.68 303.495 474.062 304.901L483.979 294.983C482.796 292.75 482.125 290.204 482.125 287.5C482.125 278.663 489.288 271.5 498.125 271.5ZM507.017 300.803C504.474 302.506 501.416 303.5 498.125 303.5C495.126 303.5 492.321 302.674 489.922 301.238L480.039 311.121C481.25 313.374 481.938 315.951 481.938 318.688C481.937 321.523 481.199 324.185 479.905 326.494L489.688 336.277C492.138 334.754 495.029 333.875 498.125 333.875C501.254 333.875 504.172 334.773 506.638 336.325L517.039 325.924C515.935 323.751 515.313 321.292 515.312 318.688C515.312 315.918 516.015 313.312 517.254 311.04L507.017 300.803Z" fill="#3E114A"/>
</g>
</svg>
