<svg width="35" height="38" viewBox="0 0 35 38" fill="none" xmlns="http://www.w3.org/2000/svg">
<path d="M17.5898 0.500488C17.5898 9.75043 0.5 9.75043 0.5 19.0004C0.5 28.2501 17.5898 28.2501 17.5898 37.5" stroke="currentColor" stroke-miterlimit="2" stroke-linecap="round" stroke-linejoin="round"/>
<path d="M0.5 37.4998C0.5 31.9543 6.64333 29.7323 11.5638 26.8511" stroke="currentColor" stroke-miterlimit="2" stroke-linecap="round" stroke-linejoin="round"/>
<path d="M0.5 0.5C0.5 6.60496 7.94506 8.68056 13.0077 12.0466" stroke="currentColor" stroke-miterlimit="2" stroke-linecap="round" stroke-linejoin="round"/>
<path d="M10.2496 16.2812H4.2168" stroke="currentColor" stroke-miterlimit="2" stroke-linecap="round" stroke-linejoin="round"/>
<path d="M9.61461 21.7184H4.23615" stroke="currentColor" stroke-miterlimit="2" stroke-linecap="round" stroke-linejoin="round"/>
<path d="M4.23615 3.21985H13.8741" stroke="currentColor" stroke-miterlimit="2" stroke-linecap="round" stroke-linejoin="round"/>
<path d="M4.2168 34.7803H13.857" stroke="currentColor" stroke-miterlimit="2" stroke-linecap="round" stroke-linejoin="round"/>
<path fill-rule="evenodd" clip-rule="evenodd" d="M14.4953 13.3195C18.1141 9.6933 23.9822 9.6933 27.6009 13.3195C31.2219 16.9457 31.2219 22.8251 27.6009 26.4515C23.9822 30.0777 18.1141 30.0777 14.4953 26.4515C10.8766 22.8251 10.8766 16.9457 14.4953 13.3195Z" stroke="currentColor" stroke-miterlimit="2" stroke-linecap="round" stroke-linejoin="round"/>
<path d="M26.043 28.0067L31.2545 33.2345L34.3702 30.1211L29.1609 24.8936" stroke="currentColor" stroke-miterlimit="2" stroke-linecap="round" stroke-linejoin="round"/>
</svg>
