<svg width="24" height="12" viewBox="0 0 24 12" fill="none" xmlns="http://www.w3.org/2000/svg">
<path opacity="0.87" d="M17.8335 0.166992H13.1668V2.50033H17.8335C19.7585 2.50033 21.3335 4.07533 21.3335 6.00033C21.3335 7.92533 19.7585 9.50033 17.8335 9.50033H13.1668V11.8337H17.8335C21.0535 11.8337 23.6668 9.22033 23.6668 6.00033C23.6668 2.78033 21.0535 0.166992 17.8335 0.166992ZM10.8335 9.50033H6.16683C4.24183 9.50033 2.66683 7.92533 2.66683 6.00033C2.66683 4.07533 4.24183 2.50033 6.16683 2.50033H10.8335V0.166992H6.16683C2.94683 0.166992 0.333496 2.78033 0.333496 6.00033C0.333496 9.22033 2.94683 11.8337 6.16683 11.8337H10.8335V9.50033ZM7.3335 4.83366H16.6668V7.16699H7.3335V4.83366Z" fill="currentColor"/>
</svg>
