<svg
  version="1.1"
  xmlns="http://www.w3.org/2000/svg"
  xmlns:xlink="http://www.w3.org/1999/xlink"
  viewBox="0 0 14 20"
  xml:space="preserve"
>
  <path
    class="svg-icon-bg"
    fill="transparent"
    d="M2,11l1.2-1.6C3.7,8.7,4,7.9,4,7V1h6v6c0,0.9,0.3,1.7,0.8,2.4L12,11H2z"
  />
  <path
    fill="currentColor"
    d="M9,2v5c0,1.1,0.4,2.2,1,3H4c0.7-0.9,1-1.9,1-3V2H9z M12,0H2C1.4,0,1,0.4,1,1s0.4,1,1,1h1v5c0,1.7-1.3,3-3,3v2h6v7l1,1l1-1
	v-7h6v-2c-1.7,0-3-1.3-3-3V2h1c0.5,0,1-0.5,1-1S12.5,0,12,0z"
  />
</svg>