<svg width="96" height="96" viewBox="0 0 96 96" fill="none" xmlns="http://www.w3.org/2000/svg">
<path d="M37.964 32.216V4V32.216Z" fill="white"/>
<path d="M37.964 32.216V4" stroke="#00C9BA" stroke-width="4" stroke-miterlimit="10"/>
<path d="M21.984 50.1997C25.0399 50.1997 28.5819 50.1578 31.6722 48.9412C34.9453 47.6525 37.5724 45.1156 38.9285 40.5716L35.0956 39.4277C34.0796 42.8318 32.3007 44.3949 30.2069 45.2192C27.9302 46.1155 25.1442 46.1997 21.984 46.1997C17.9038 46.1997 14.0348 47.9087 10.956 50.4596L12.2389 52.008L10.9526 50.4624C6.90463 53.8314 4 58.9139 4 64.1837V91.9997H8V64.1837C8 60.3508 10.1659 56.3227 13.5081 53.5397C16.0293 51.4507 19.0243 50.1997 21.984 50.1997Z" fill="#55A5C9"/>
<path d="M11.448 46.304C8.22 44.336 6 40.34 6 32.216V4" stroke="#00C9BA" stroke-width="4" stroke-miterlimit="10"/>
<path d="M37.964 92.0001V64.1841C37.964 60.5361 36.336 56.8881 33.792 53.9961" stroke="#00C9BA" stroke-width="4" stroke-miterlimit="10"/>
<path d="M89.9641 32.216V4V32.216Z" fill="white"/>
<path d="M89.9641 32.216V4" stroke="#55A5C9" stroke-width="4" stroke-miterlimit="10"/>
<path d="M73.984 50.1997C77.0399 50.1997 80.5819 50.1578 83.6722 48.9412C86.9453 47.6525 89.5724 45.1156 90.9285 40.5716L87.0956 39.4277C86.0796 42.8318 84.3008 44.3949 82.2069 45.2192C79.9302 46.1155 77.1442 46.1997 73.984 46.1997C69.9038 46.1997 66.0348 47.9087 62.956 50.4596L64.2388 52.0079L62.9526 50.4624C58.9046 53.8314 56 58.9139 56 64.1837V91.9997H60V64.1837C60 60.3508 62.1659 56.3227 65.5081 53.5397C68.0293 51.4507 71.0243 50.1997 73.984 50.1997Z" fill="#00C9BA"/>
<path d="M63.448 46.304C60.22 44.336 58 40.34 58 32.216V4" stroke="#55A5C9" stroke-width="4" stroke-miterlimit="10"/>
<path d="M89.964 92.0001V64.1841C89.964 60.5361 88.336 56.8881 85.792 53.9961" stroke="#55A5C9" stroke-width="4" stroke-miterlimit="10"/>
<path d="M28 84H12C10.8954 84 10 84.8954 10 86C10 87.1046 10.8954 88 12 88H28C29.1046 88 30 87.1046 30 86C30 84.8954 29.1046 84 28 84Z" fill="#55A5C9"/>
<path d="M32 76H16C14.8954 76 14 76.8954 14 78C14 79.1046 14.8954 80 16 80H32C33.1046 80 34 79.1046 34 78C34 76.8954 33.1046 76 32 76Z" fill="#3F6AA2"/>
<path d="M32 60H16C14.8954 60 14 60.8954 14 62C14 63.1046 14.8954 64 16 64H32C33.1046 64 34 63.1046 34 62C34 60.8954 33.1046 60 32 60Z" fill="#00C9BA"/>
<path d="M28 52H20C18.8954 52 18 52.8954 18 54C18 55.1046 18.8954 56 20 56H28C29.1046 56 30 55.1046 30 54C30 52.8954 29.1046 52 28 52Z" fill="#3F6AA2"/>
<path d="M28 40H20C18.8954 40 18 40.8954 18 42C18 43.1046 18.8954 44 20 44H28C29.1046 44 30 43.1046 30 42C30 40.8954 29.1046 40 28 40Z" fill="white"/>
<path d="M28 68H12C10.8954 68 10 68.8954 10 70C10 71.1046 10.8954 72 12 72H28C29.1046 72 30 71.1046 30 70C30 68.8954 29.1046 68 28 68Z" fill="#55A5C9"/>
<path d="M28 32H12C10.8954 32 10 32.8954 10 34C10 35.1046 10.8954 36 12 36H28C29.1046 36 30 35.1046 30 34C30 32.8954 29.1046 32 28 32Z" fill="#3F6AA2"/>
<path d="M32 24H16C14.8954 24 14 24.8954 14 26C14 27.1046 14.8954 28 16 28H32C33.1046 28 34 27.1046 34 26C34 24.8954 33.1046 24 32 24Z" fill="#3F6AA2"/>
<path d="M34 8H18C16.8954 8 16 8.89543 16 10C16 11.1046 16.8954 12 18 12H34C35.1046 12 36 11.1046 36 10C36 8.89543 35.1046 8 34 8Z" fill="#3F6AA2"/>
<path d="M30 16H14C12.8954 16 12 16.8954 12 18C12 19.1046 12.8954 20 14 20H30C31.1046 20 32 19.1046 32 18C32 16.8954 31.1046 16 30 16Z" fill="#3F6AA2"/>
<path d="M80 84H64C62.8954 84 62 84.8954 62 86C62 87.1046 62.8954 88 64 88H80C81.1046 88 82 87.1046 82 86C82 84.8954 81.1046 84 80 84Z" fill="#00C9BA"/>
<path d="M84 76H68C66.8954 76 66 76.8954 66 78C66 79.1046 66.8954 80 68 80H84C85.1046 80 86 79.1046 86 78C86 76.8954 85.1046 76 84 76Z" fill="#00677D"/>
<path d="M84 60H68C66.8954 60 66 60.8954 66 62C66 63.1046 66.8954 64 68 64H84C85.1046 64 86 63.1046 86 62C86 60.8954 85.1046 60 84 60Z" fill="#00677D"/>
<path d="M80 52H72C70.8954 52 70 52.8954 70 54C70 55.1046 70.8954 56 72 56H80C81.1046 56 82 55.1046 82 54C82 52.8954 81.1046 52 80 52Z" fill="#00C9BA"/>
<path d="M80 40H72C70.8954 40 70 40.8954 70 42C70 43.1046 70.8954 44 72 44H80C81.1046 44 82 43.1046 82 42C82 40.8954 81.1046 40 80 40Z" fill="white"/>
<path d="M80 68H64C62.8954 68 62 68.8954 62 70C62 71.1046 62.8954 72 64 72H80C81.1046 72 82 71.1046 82 70C82 68.8954 81.1046 68 80 68Z" fill="#00C9BA"/>
<path d="M80 32H64C62.8954 32 62 32.8954 62 34C62 35.1046 62.8954 36 64 36H80C81.1046 36 82 35.1046 82 34C82 32.8954 81.1046 32 80 32Z" fill="#00677D"/>
<path d="M84 24H68C66.8954 24 66 24.8954 66 26C66 27.1046 66.8954 28 68 28H84C85.1046 28 86 27.1046 86 26C86 24.8954 85.1046 24 84 24Z" fill="#00C9BA"/>
<path d="M84 8H68C66.8954 8 66 8.89543 66 10C66 11.1046 66.8954 12 68 12H84C85.1046 12 86 11.1046 86 10C86 8.89543 85.1046 8 84 8Z" fill="#00C9BA"/>
<path d="M80 16H64C62.8954 16 62 16.8954 62 18C62 19.1046 62.8954 20 64 20H80C81.1046 20 82 19.1046 82 18C82 16.8954 81.1046 16 80 16Z" fill="#00677D"/>
</svg>
