<svg width="96" height="96" viewBox="0 0 96 96" fill="none" xmlns="http://www.w3.org/2000/svg">
<path d="M24 4H12C10.8954 4 10 4.89543 10 6C10 7.10457 10.8954 8 12 8H24C25.1046 8 26 7.10457 26 6C26 4.89543 25.1046 4 24 4Z" fill="#00C9BA"/>
<path d="M24 32H12C10.8954 32 10 32.8954 10 34C10 35.1046 10.8954 36 12 36H24C25.1046 36 26 35.1046 26 34C26 32.8954 25.1046 32 24 32Z" fill="#00C9BA"/>
<path d="M24 52H12C10.8954 52 10 52.8954 10 54C10 55.1046 10.8954 56 12 56H24C25.1046 56 26 55.1046 26 54C26 52.8954 25.1046 52 24 52Z" fill="#00C9BA"/>
<path d="M24 60H12C10.8954 60 10 60.8954 10 62C10 63.1046 10.8954 64 12 64H24C25.1046 64 26 63.1046 26 62C26 60.8954 25.1046 60 24 60Z" fill="#00677D"/>
<path d="M24 80H12C10.8954 80 10 80.8954 10 82C10 83.1046 10.8954 84 12 84H24C25.1046 84 26 83.1046 26 82C26 80.8954 25.1046 80 24 80Z" fill="#00677D"/>
<path d="M24 88H12C10.8954 88 10 88.8954 10 90C10 91.1046 10.8954 92 12 92H24C25.1046 92 26 91.1046 26 90C26 88.8954 25.1046 88 24 88Z" fill="#00C9BA"/>
<path d="M24 12H12C10.8954 12 10 12.8954 10 14V26C10 27.1046 10.8954 28 12 28H24C25.1046 28 26 27.1046 26 26V14C26 12.8954 25.1046 12 24 12Z" fill="#55A5C9"/>
<path d="M24 40H12C10.8954 40 10 40.8954 10 42V46C10 47.1046 10.8954 48 12 48H24C25.1046 48 26 47.1046 26 46V42C26 40.8954 25.1046 40 24 40Z" fill="#3F6AA2"/>
<path d="M24 68H12C10.8954 68 10 68.8954 10 70V74C10 75.1046 10.8954 76 12 76H24C25.1046 76 26 75.1046 26 74V70C26 68.8954 25.1046 68 24 68Z" fill="#55A5C9"/>
<path d="M84 4H72C70.8954 4 70 4.89543 70 6C70 7.10457 70.8954 8 72 8H84C85.1046 8 86 7.10457 86 6C86 4.89543 85.1046 4 84 4Z" fill="#00C9BA"/>
<path d="M84 44H72C70.8954 44 70 44.8954 70 46C70 47.1046 70.8954 48 72 48H84C85.1046 48 86 47.1046 86 46C86 44.8954 85.1046 44 84 44Z" fill="#00C9BA"/>
<path d="M84 52H72C70.8954 52 70 52.8954 70 54C70 55.1046 70.8954 56 72 56H84C85.1046 56 86 55.1046 86 54C86 52.8954 85.1046 52 84 52Z" fill="#00677D"/>
<path d="M84 60H72C70.8954 60 70 60.8954 70 62C70 63.1046 70.8954 64 72 64H84C85.1046 64 86 63.1046 86 62C86 60.8954 85.1046 60 84 60Z" fill="#00C9BA"/>
<path d="M84 80H72C70.8954 80 70 80.8954 70 82C70 83.1046 70.8954 84 72 84H84C85.1046 84 86 83.1046 86 82C86 80.8954 85.1046 80 84 80Z" fill="#00677D"/>
<path d="M84 88H72C70.8954 88 70 88.8954 70 90C70 91.1046 70.8954 92 72 92H84C85.1046 92 86 91.1046 86 90C86 88.8954 85.1046 88 84 88Z" fill="#00C9BA"/>
<path d="M84 12H72C70.8954 12 70 12.8954 70 14V26C70 27.1046 70.8954 28 72 28H84C85.1046 28 86 27.1046 86 26V14C86 12.8954 85.1046 12 84 12Z" fill="#3F6AA2"/>
<path d="M84 32H72C70.8954 32 70 32.8954 70 34V38C70 39.1046 70.8954 40 72 40H84C85.1046 40 86 39.1046 86 38V34C86 32.8954 85.1046 32 84 32Z" fill="#55A5C9"/>
<path d="M84 68H72C70.8954 68 70 68.8954 70 70V74C70 75.1046 70.8954 76 72 76H84C85.1046 76 86 75.1046 86 74V70C86 68.8954 85.1046 68 84 68Z" fill="#3F6AA2"/>
<path d="M32 92H44C45.1046 92 46 91.1046 46 90C46 88.8954 45.1046 88 44 88H32C30.8954 88 30 88.8954 30 90C30 91.1046 30.8954 92 32 92Z" fill="#00C9BA"/>
<path d="M32 36H44C45.1046 36 46 35.1046 46 34C46 32.8954 45.1046 32 44 32H32C30.8954 32 30 32.8954 30 34C30 35.1046 30.8954 36 32 36Z" fill="#00677D"/>
<path d="M52 36H64C65.1046 36 66 35.1046 66 34C66 32.8954 65.1046 32 64 32H52C50.8954 32 50 32.8954 50 34C50 35.1046 50.8954 36 52 36Z" fill="#00C9BA"/>
<path d="M52 44H64C65.1046 44 66 43.1046 66 42C66 40.8954 65.1046 40 64 40H52C50.8954 40 50 40.8954 50 42C50 43.1046 50.8954 44 52 44Z" fill="#00C9BA"/>
<path d="M32 16H44C45.1046 16 46 15.1046 46 14C46 12.8954 45.1046 12 44 12L32 12C30.8954 12 30 12.8954 30 14C30 15.1046 30.8954 16 32 16Z" fill="#00677D"/>
<path d="M32 8L44 8C45.1046 8 46 7.10457 46 6C46 4.89543 45.1046 4 44 4L32 4C30.8954 4 30 4.89543 30 6C30 7.10457 30.8954 8 32 8Z" fill="#00C9BA"/>
<path d="M32 84H44C45.1046 84 46 83.1046 46 82V70C46 68.8954 45.1046 68 44 68H32C30.8954 68 30 68.8954 30 70V82C30 83.1046 30.8954 84 32 84Z" fill="#3F6AA2"/>
<path d="M32 28H44C45.1046 28 46 27.1046 46 26V22C46 20.8954 45.1046 20 44 20H32C30.8954 20 30 20.8954 30 22V26C30 27.1046 30.8954 28 32 28Z" fill="#3F6AA2"/>
<path d="M64 4H52C50.8954 4 50 4.89543 50 6C50 7.10457 50.8954 8 52 8H64C65.1046 8 66 7.10457 66 6C66 4.89543 65.1046 4 64 4Z" fill="#00C9BA"/>
<path d="M64 76H52C50.8954 76 50 76.8954 50 78C50 79.1046 50.8954 80 52 80H64C65.1046 80 66 79.1046 66 78C66 76.8954 65.1046 76 64 76Z" fill="#00C9BA"/>
<path d="M64 12H52C50.8954 12 50 12.8954 50 14V26C50 27.1046 50.8954 28 52 28H64C65.1046 28 66 27.1046 66 26V14C66 12.8954 65.1046 12 64 12Z" fill="#55A5C9"/>
<path d="M64 84H52C50.8954 84 50 84.8954 50 86V90C50 91.1046 50.8954 92 52 92H64C65.1046 92 66 91.1046 66 90V86C66 84.8954 65.1046 84 64 84Z" fill="#3F6AA2"/>
<path d="M58.016 69.1998V51.3398" stroke="#00C9BA" stroke-width="5" stroke-miterlimit="10"/>
<path d="M52.344 55.6003L58 49.9443L63.656 55.6003" stroke="#00C9BA" stroke-width="5" stroke-linecap="round" stroke-linejoin="round"/>
<path d="M37.984 41.5439V59.4039" stroke="#3F6AA2" stroke-width="5" stroke-miterlimit="10"/>
<path d="M43.656 55.1436L38 60.7996L32.344 55.1436" stroke="#3F6AA2" stroke-width="5" stroke-linecap="round" stroke-linejoin="round"/>
</svg>
