<svg width="119" height="46" viewBox="0 0 119 46" fill="none" xmlns="http://www.w3.org/2000/svg">
<ellipse cx="99.1091" cy="30.1871" rx="3.63227" ry="3.35413" fill="#24AB9F"/>
<path d="M56.8567 0.0005118C70.7534 0.0005118 86.0712 8.94486 99.968 19.167C101.357 15.3038 106.919 11.5153 109.697 12.7781C112.475 14.0559 113.859 21.7225 111.081 28.1113C115.248 35.7779 124.967 43.4445 113.848 46H38.8298C33.2408 46 25.8574 41.0337 23.1771 37.0955C15.6153 37.6745 10.1939 37.0706 6.35655 35.5782C2.41612 34.0459 2.4458e-06 31.1659 2.4458e-06 28.1112C0.567551 23.7288 4.34572 21.333 8.17255 19.9654C12.2264 18.5379 16.9289 17.8891 20.7559 17.8891C22.5396 17.9739 23.6693 19.3415 23.6531 20.5645C23.5828 21.9021 22.2045 23.065 20.7559 23.0001C17.6641 23.0001 13.3724 23.629 10.1618 24.7571C8.1511 25.4908 6.29166 26.3842 5.5349 28.1112C5.5349 28.8898 5.88624 29.8432 8.51848 30.8663C11.0265 31.8396 15.5128 32.5334 22.2692 32.0642C23.6638 16.1918 38.3606 0 56.8623 0L56.8567 0.0005118ZM99.622 28.1113C98.0923 28.1113 96.8546 29.2543 96.8546 30.6668C96.8546 32.0794 98.0924 33.2224 99.622 33.2224C101.152 33.2224 102.389 32.0794 102.389 30.6668C102.389 29.2543 101.152 28.1113 99.622 28.1113Z" fill="#3F6AA2"/>
</svg>
