<svg width="40" height="24" viewBox="0 0 40 24" fill="none" xmlns="http://www.w3.org/2000/svg">
<path d="M0 23.8188C2.26643 19.542 5.96534 15.6478 15.0243 11.0218C15.1319 10.9613 15.2261 10.8808 15.3001 10.7868C15.374 10.6861 15.4278 10.5719 15.4547 10.4511C15.4816 10.3302 15.4816 10.2026 15.4547 10.0818C15.4278 9.96093 15.374 9.84679 15.3001 9.7528C13.3901 7.06716 13.76 -1.2449 16.2887 0.158348C16.2887 0.158348 17.6337 0.829758 18.0574 1.11846L22.1531 3.64968C22.3011 3.75039 22.4759 3.79739 22.6575 3.79739C22.8391 3.79739 23.0072 3.74368 23.1552 3.64968C23.2157 3.60268 23.2561 3.53554 23.3233 3.48854C24.7491 2.49486 28.8381 -0.419065 38.1795 1.03789C39.269 1.20575 39.8608 2.468 39.6524 3.54897C39.1345 6.10704 37.8298 10.5585 34.4873 12.6399C34.3999 12.6936 34.3259 12.754 34.2587 12.8346C33.2902 14.0565 30.1523 15.4453 27.1523 23.8188C25.5471 23.8188 27.6524 23.8188 26.1524 23.8188C25.0488 23.8188 27.1524 23.8188 24.8432 23.8188H23.3233C23.0184 23.8188 22.1531 23.8188 18.0574 23.8188C12.6524 23.8188 8.67253 23.8188 8 23.8188" fill="#6098BF"/>
</svg>
